999
dxfrw 0.6.3
  0
SECTION
  2
HEADER
  9
$ACADVER
  1
AC1021
  9
$DWGCODEPAGE
  3
ANSI_1252
  9
$INSBASE
 10
0
 20
0
 30
0
  9
$EXTMIN
 10
-160
 20
-122.465
 30
0
  9
$EXTMAX
 10
154.325
 20
1.377953
 30
0
  9
$LIMMIN
 10
0
 20
0
  9
$LIMMAX
 10
420
 20
297
  9
$ORTHOMODE
 70
    0
  9
$REGENMODE
 70
    1
  9
$FILLMODE
 70
    1
  9
$QTEXTMODE
 70
    0
  9
$MIRRTEXT
 70
    0
  9
$LTSCALE
 40
1
  9
$ATTMODE
 70
    0
  9
$TEXTSIZE
 40
2.5
  9
$TRACEWID
 40
15.68
  9
$TEXTSTYLE
  7
STANDARD
  9
$CLAYER
  8
0
  9
$CELTYPE
  6
BYLAYER
  9
$CECOLOR
 62
  256
  9
$CELTSCALE
 40
1
  9
$DISPSILH
 70
    0
  9
$DIMSCALE
 40
2.5
  9
$DIMASZ
 40
2.5
  9
$DIMEXO
 40
0.625
  9
$DIMDLI
 40
3.75
  9
$DIMRND
 40
0
  9
$DIMDLE
 40
0
  9
$DIMEXE
 40
1.25
  9
$DIMTP
 40
0
  9
$DIMTM
 40
0
  9
$DIMTXT
 40
2.5
  9
$DIMCEN
 40
2.5
  9
$DIMTSZ
 40
0
  9
$DIMTOL
 70
    0
  9
$DIMLIM
 70
    0
  9
$DIMTIH
 70
    0
  9
$DIMTOH
 70
    0
  9
$DIMSE1
 70
    0
  9
$DIMSE2
 70
    0
  9
$DIMTAD
 70
    1
  9
$DIMZIN
 70
    8
  9
$DIMBLK
  1

  9
$DIMASO
 70
    1
  9
$DIMSHO
 70
    1
  9
$DIMPOST
  1

  9
$DIMAPOST
  1

  9
$DIMALT
 70
    0
  9
$DIMALTD
 70
    3
  9
$DIMALTF
 40
0.03937
  9
$DIMLFAC
 40
1
  9
$DIMTOFL
 70
    1
  9
$DIMTVP
 40
0
  9
$DIMTIX
 70
    0
  9
$DIMSOXD
 70
    0
  9
$DIMSAH
 70
    0
  9
$DIMBLK1
  1

  9
$DIMBLK2
  1

  9
$DIMSTYLE
  2
Standard
  9
$DIMCLRD
 70
    0
  9
$DIMCLRE
 70
    0
  9
$DIMCLRT
 70
    0
  9
$DIMTFAC
 40
1
  9
$DIMGAP
 40
0.625
  9
$DIMJUST
 70
    0
  9
$DIMSD1
 70
    0
  9
$DIMSD2
 70
    0
  9
$DIMTOLJ
 70
    0
  9
$DIMTZIN
 70
    8
  9
$DIMALTZ
 70
    0
  9
$DIMALTTZ
 70
    0
  9
$DIMUPT
 70
    0
  9
$DIMDEC
 70
    2
  9
$DIMTDEC
 70
    2
  9
$DIMALTU
 70
    2
  9
$DIMALTTD
 70
    3
  9
$DIMTXSTY
  7
STANDARD
  9
$DIMAUNIT
 70
    0
  9
$DIMADEC
 70
    0
  9
$DIMALTRND
 40
0
  9
$DIMAZIN
 70
    0
  9
$DIMDSEP
 70
   44
  9
$DIMATFIT
 70
    3
  9
$DIMFRAC
 70
    0
  9
$DIMLDRBLK
  1
STANDARD
  9
$DIMLUNIT
 70
    2
  9
$DIMLWD
 70
   -2
  9
$DIMLWE
 70
   -2
  9
$DIMTMOVE
 70
    0
  9
$DIMFXL
 40
1
  9
$DIMFXLON
 70
    0
  9
$DIMJOGANG
 40
0.7854
  9
$DIMTFILL
 70
    0
  9
$DIMTFILLCLR
 70
    0
  9
$DIMARCSYM
 70
    0
  9
$DIMLTYPE
  6

  9
$DIMLTEX1
  6

  9
$DIMLTEX2
  6

  9
$LUNITS
 70
    2
  9
$LUPREC
 70
    4
  9
$SKETCHINC
 40
1
  9
$FILLETRAD
 40
0
  9
$AUNITS
 70
    0
  9
$AUPREC
 70
    2
  9
$MENU
  1
.
  9
$ELEVATION
 40
0
  9
$PELEVATION
 40
0
  9
$THICKNESS
 40
0
  9
$LIMCHECK
 70
    0
  9
$CHAMFERA
 40
0
  9
$CHAMFERB
 40
0
  9
$CHAMFERC
 40
0
  9
$CHAMFERD
 40
0
  9
$SKPOLY
 70
    0
  9
$USRTIMER
 70
    1
  9
$ANGBASE
 50
0
  9
$ANGDIR
 70
    0
  9
$PDMODE
 70
   34
  9
$PDSIZE
 40
0
  9
$PLINEWID
 40
0
  9
$SPLFRAME
 70
    0
  9
$SPLINETYPE
 70
    2
  9
$SPLINESEGS
 70
    8
  9
$HANDSEED
  5
20000
  9
$SURFTAB1
 70
    6
  9
$SURFTAB2
 70
    6
  9
$SURFTYPE
 70
    6
  9
$SURFU
 70
    6
  9
$SURFV
 70
    6
  9
$UCSBASE
  2

  9
$UCSNAME
  2

  9
$UCSORG
 10
0
 20
0
 30
0
  9
$UCSXDIR
 10
1
 20
0
 30
0
  9
$UCSYDIR
 10
0
 20
1
 30
0
  9
$UCSORTHOREF
  2

  9
$UCSORTHOVIEW
 70
    0
  9
$UCSORGTOP
 10
0
 20
0
 30
0
  9
$UCSORGBOTTOM
 10
0
 20
0
 30
0
  9
$UCSORGLEFT
 10
0
 20
0
 30
0
  9
$UCSORGRIGHT
 10
0
 20
0
 30
0
  9
$UCSORGFRONT
 10
0
 20
0
 30
0
  9
$UCSORGBACK
 10
0
 20
0
 30
0
  9
$PUCSBASE
  2

  9
$PUCSNAME
  2

  9
$PUCSORG
 10
0
 20
0
 30
0
  9
$PUCSXDIR
 10
1
 20
0
 30
0
  9
$PUCSYDIR
 10
0
 20
1
 30
0
  9
$PUCSORTHOREF
  2

  9
$PUCSORTHOVIEW
 70
    0
  9
$PUCSORGTOP
 10
0
 20
0
 30
0
  9
$PUCSORGBOTTOM
 10
0
 20
0
 30
0
  9
$PUCSORGLEFT
 10
0
 20
0
 30
0
  9
$PUCSORGRIGHT
 10
0
 20
0
 30
0
  9
$PUCSORGFRONT
 10
0
 20
0
 30
0
  9
$PUCSORGBACK
 10
0
 20
0
 30
0
  9
$USERI1
 70
    0
  9
$USERI2
 70
    0
  9
$USERI3
 70
    0
  9
$USERI4
 70
    0
  9
$USERI5
 70
    0
  9
$USERR1
 40
0
  9
$USERR2
 40
0
  9
$USERR3
 40
0
  9
$USERR4
 40
0
  9
$USERR5
 40
0
  9
$WORLDVIEW
 70
    1
  9
$SHADEDGE
 70
    3
  9
$SHADEDIF
 70
   70
  9
$TILEMODE
 70
    1
  9
$MAXACTVP
 70
   64
  9
$PINSBASE
 10
0
 20
0
 30
0
  9
$PLIMCHECK
 70
    0
  9
$PEXTMIN
 10
0
 20
0
 30
0
  9
$PEXTMAX
 10
0
 20
0
 30
0
  9
$GRIDMODE
 70
    1
  9
$SNAPSTYLE
 70
    0
  9
$PLIMMIN
 10
0
 20
0
  9
$PLIMMAX
 10
210
 20
297
  9
$UNITMODE
 70
    0
  9
$VISRETAIN
 70
    1
  9
$PLINEGEN
 70
    0
  9
$PSLTSCALE
 70
    1
  9
$TREEDEPTH
 70
 3020
  9
$CMLSTYLE
  2
Standard
  9
$CMLJUST
 70
    0
  9
$CMLSCALE
 40
20
  9
$PROXYGRAPHICS
 70
    1
  9
$MEASUREMENT
 70
    1
  9
$CELWEIGHT
370
   -1
  9
$ENDCAPS
280
    0
  9
$JOINSTYLE
280
    0
  9
$LWDISPLAY
290
    0
  9
$INSUNITS
 70
    4
  9
$HYPERLINKBASE
  1

  9
$STYLESHEET
  1

  9
$XEDIT
290
    1
  9
$CEPSNTYPE
380
    0
  9
$PSTYLEMODE
290
    1
  9
$EXTNAMES
290
    1
  9
$PSVPSCALE
 40
1
  9
$OLESTARTUP
290
    0
  9
$SORTENTS
280
  127
  9
$INDEXCTL
280
    0
  9
$HIDETEXT
280
    1
  9
$XCLIPFRAME
290
    0
  9
$HALOGAP
280
    0
  9
$OBSCOLOR
 70
  257
  9
$OBSLTYPE
280
    0
  9
$INTERSECTIONDISPLAY
280
    0
  9
$INTERSECTIONCOLOR
 70
  257
  9
$DIMASSOC
280
    1
  9
$PROJECTNAME
  1

  9
$CAMERADISPLAY
290
    0
  9
$LENSLENGTH
 40
50
  9
$CAMERAHEIGHT
 40
0
  9
$STEPSPERSEC
 40
2
  9
$STEPSIZE
 40
50
  9
$3DDWFPREC
 40
2
  9
$PSOLWIDTH
 40
5
  9
$PSOLHEIGHT
 40
80
  9
$LOFTANG1
 40
1.570796326794897
  9
$LOFTANG2
 40
1.570796326794897
  9
$LOFTMAG1
 40
0
  9
$LOFTMAG2
 40
0
  9
$LOFTPARAM
 70
    7
  9
$LOFTNORMALS
280
    1
  9
$LATITUDE
 40
1
  9
$LONGITUDE
 40
1
  9
$NORTHDIRECTION
 40
0
  9
$TIMEZONE
 70
-8000
  9
$LIGHTGLYPHDISPLAY
280
    1
  9
$TILEMODELIGHTSYNCH
280
    1
  9
$SOLIDHIST
280
    1
  9
$SHOWHIST
280
    1
  9
$DWFFRAME
280
    2
  9
$DGNFRAME
280
    0
  9
$REALWORLDSCALE
290
    1
  9
$INTERFERECOLOR
 62
    1
  9
$CSHADOW
280
    0
  9
$SHADOWPLANELOCATION
 40
0
  0
ENDSEC
  0
SECTION
  2
CLASSES
  0
ENDSEC
  0
SECTION
  2
TABLES
  0
TABLE
  2
VPORT
  5
8
330
0
100
AcDbSymbolTable
 70
    1
  0
VPORT
  5
31
330
2
100
AcDbSymbolTableRecord
100
AcDbViewportTableRecord
  2
*ACTIVE
 70
    0
 10
0
 20
0
 11
1
 21
1
 12
15.72119613017112
 22
15.17150395778752
 13
0
 23
0
 14
10
 24
10
 15
10
 25
10
 16
0
 26
0
 36
1
 17
0
 27
0
 37
0
 40
178.3201407212417
 41
1.955610357583231
 42
50
 43
0
 44
0
 50
0
 51
0
 71
    0
 72
  100
 73
    1
 74
    3
 75
    0
 76
    1
 77
    0
 78
    0
281
    0
 65
    1
110
0
120
0
130
0
111
1
121
0
131
0
112
0
122
1
132
0
 79
    0
146
0
348
10020
 60
    7
 61
    5
292
1
282
    1
141
0
142
0
 63
  250
421
3358443
  0
ENDTAB
  0
TABLE
  2
LTYPE
  5
5
330
0
100
AcDbSymbolTable
 70
    4
  0
LTYPE
  5
14
330
5
100
AcDbSymbolTableRecord
100
AcDbLinetypeTableRecord
  2
ByBlock
 70
    0
  3

 72
   65
 73
    0
 40
0
  0
LTYPE
  5
15
330
5
100
AcDbSymbolTableRecord
100
AcDbLinetypeTableRecord
  2
ByLayer
 70
    0
  3

 72
   65
 73
    0
 40
0
  0
LTYPE
  5
16
330
5
100
AcDbSymbolTableRecord
100
AcDbLinetypeTableRecord
  2
Continuous
 70
    0
  3
Solid line
 72
   65
 73
    0
 40
0
  0
LTYPE
  5
32
330
5
100
AcDbSymbolTableRecord
100
AcDbLinetypeTableRecord
  2
DOT
 70
    0
  3
Dot . . . . . . . . . . . . . . . . . . . . . .
 72
   65
 73
    2
 40
6.35
 49
0
 74
    0
 49
-6.35
 74
    0
  0
LTYPE
  5
33
330
5
100
AcDbSymbolTableRecord
100
AcDbLinetypeTableRecord
  2
DOTTINY
 70
    0
  3
Dot (.15x) .....................................
 72
   65
 73
    2
 40
0.9525
 49
0
 74
    0
 49
-0.9525
 74
    0
  0
LTYPE
  5
34
330
5
100
AcDbSymbolTableRecord
100
AcDbLinetypeTableRecord
  2
DOT2
 70
    0
  3
Dot (.5x) .....................................
 72
   65
 73
    2
 40
3.175
 49
0
 74
    0
 49
-3.175
 74
    0
  0
LTYPE
  5
35
330
5
100
AcDbSymbolTableRecord
100
AcDbLinetypeTableRecord
  2
DOTX2
 70
    0
  3
Dot (2x) .  .  .  .  .  .  .  .  .  .  .  .  .
 72
   65
 73
    2
 40
12.7
 49
0
 74
    0
 49
-12.7
 74
    0
  0
LTYPE
  5
36
330
5
100
AcDbSymbolTableRecord
100
AcDbLinetypeTableRecord
  2
DASHED
 70
    0
  3
Dashed _ _ _ _ _ _ _ _ _ _ _ _ _ _ _ _ _
 72
   65
 73
    2
 40
19.05
 49
12.7
 74
    0
 49
-6.35
 74
    0
  0
LTYPE
  5
37
330
5
100
AcDbSymbolTableRecord
100
AcDbLinetypeTableRecord
  2
DASHEDTINY
 70
    0
  3
Dashed (.15x) _ _ _ _ _ _ _ _ _ _ _ _ _ _ _ _ _
 72
   65
 73
    2
 40
2.8575
 49
1.905
 74
    0
 49
-0.9525
 74
    0
  0
LTYPE
  5
38
330
5
100
AcDbSymbolTableRecord
100
AcDbLinetypeTableRecord
  2
DASHED2
 70
    0
  3
Dashed (.5x) _ _ _ _ _ _ _ _ _ _ _ _ _ _ _ _ _
 72
   65
 73
    2
 40
9.524999999999999
 49
6.35
 74
    0
 49
-3.175
 74
    0
  0
LTYPE
  5
39
330
5
100
AcDbSymbolTableRecord
100
AcDbLinetypeTableRecord
  2
DASHEDX2
 70
    0
  3
Dashed (2x) ____  ____  ____  ____  ____  ___
 72
   65
 73
    2
 40
38.09999999999999
 49
25.4
 74
    0
 49
-12.7
 74
    0
  0
LTYPE
  5
3A
330
5
100
AcDbSymbolTableRecord
100
AcDbLinetypeTableRecord
  2
DASHDOT
 70
    0
  3
Dash dot __ . __ . __ . __ . __ . __ . __ . __
 72
   65
 73
    4
 40
25.4
 49
12.7
 74
    0
 49
-6.35
 74
    0
 49
0
 74
    0
 49
-6.35
 74
    0
  0
LTYPE
  5
3B
330
5
100
AcDbSymbolTableRecord
100
AcDbLinetypeTableRecord
  2
DASHDOTTINY
 70
    0
  3
Dash dot (.15x) _._._._._._._._._._._._._._._.
 72
   65
 73
    4
 40
3.81
 49
1.905
 74
    0
 49
-0.9525
 74
    0
 49
0
 74
    0
 49
-0.9525
 74
    0
  0
LTYPE
  5
3C
330
5
100
AcDbSymbolTableRecord
100
AcDbLinetypeTableRecord
  2
DASHDOT2
 70
    0
  3
Dash dot (.5x) _._._._._._._._._._._._._._._.
 72
   65
 73
    4
 40
12.7
 49
6.35
 74
    0
 49
-3.175
 74
    0
 49
0
 74
    0
 49
-3.175
 74
    0
  0
LTYPE
  5
3D
330
5
100
AcDbSymbolTableRecord
100
AcDbLinetypeTableRecord
  2
DASHDOTX2
 70
    0
  3
Dash dot (2x) ____  .  ____  .  ____  .  ___
 72
   65
 73
    4
 40
50.8
 49
25.4
 74
    0
 49
-12.7
 74
    0
 49
0
 74
    0
 49
-12.7
 74
    0
  0
LTYPE
  5
3E
330
5
100
AcDbSymbolTableRecord
100
AcDbLinetypeTableRecord
  2
DIVIDE
 70
    0
  3
Divide ____ . . ____ . . ____ . . ____ . . ____
 72
   65
 73
    6
 40
31.75
 49
12.7
 74
    0
 49
-6.35
 74
    0
 49
0
 74
    0
 49
-6.35
 74
    0
 49
0
 74
    0
 49
-6.35
 74
    0
  0
LTYPE
  5
3F
330
5
100
AcDbSymbolTableRecord
100
AcDbLinetypeTableRecord
  2
DIVIDETINY
 70
    0
  3
Divide (.15x) __..__..__..__..__..__..__..__.._
 72
   65
 73
    6
 40
4.7625
 49
1.905
 74
    0
 49
-0.9525
 74
    0
 49
0
 74
    0
 49
-0.9525
 74
    0
 49
0
 74
    0
 49
-0.9525
 74
    0
  0
LTYPE
  5
40
330
5
100
AcDbSymbolTableRecord
100
AcDbLinetypeTableRecord
  2
DIVIDE2
 70
    0
  3
Divide (.5x) __..__..__..__..__..__..__..__.._
 72
   65
 73
    6
 40
15.875
 49
6.35
 74
    0
 49
-3.175
 74
    0
 49
0
 74
    0
 49
-3.175
 74
    0
 49
0
 74
    0
 49
-3.175
 74
    0
  0
LTYPE
  5
41
330
5
100
AcDbSymbolTableRecord
100
AcDbLinetypeTableRecord
  2
DIVIDEX2
 70
    0
  3
Divide (2x) ________  .  .  ________  .  .  _
 72
   65
 73
    6
 40
63.5
 49
25.4
 74
    0
 49
-12.7
 74
    0
 49
0
 74
    0
 49
-12.7
 74
    0
 49
0
 74
    0
 49
-12.7
 74
    0
  0
LTYPE
  5
42
330
5
100
AcDbSymbolTableRecord
100
AcDbLinetypeTableRecord
  2
BORDER
 70
    0
  3
Border __ __ . __ __ . __ __ . __ __ . __ __ .
 72
   65
 73
    6
 40
44.45
 49
12.7
 74
    0
 49
-6.35
 74
    0
 49
12.7
 74
    0
 49
-6.35
 74
    0
 49
0
 74
    0
 49
-6.35
 74
    0
  0
LTYPE
  5
43
330
5
100
AcDbSymbolTableRecord
100
AcDbLinetypeTableRecord
  2
BORDERTINY
 70
    0
  3
Border (.15x) __.__.__.__.__.__.__.__.__.__.__.
 72
   65
 73
    6
 40
6.6675
 49
1.905
 74
    0
 49
-0.9525
 74
    0
 49
1.905
 74
    0
 49
-0.9525
 74
    0
 49
0
 74
    0
 49
-0.9525
 74
    0
  0
LTYPE
  5
44
330
5
100
AcDbSymbolTableRecord
100
AcDbLinetypeTableRecord
  2
BORDER2
 70
    0
  3
Border (.5x) __.__.__.__.__.__.__.__.__.__.__.
 72
   65
 73
    6
 40
22.225
 49
6.35
 74
    0
 49
-3.175
 74
    0
 49
6.35
 74
    0
 49
-3.175
 74
    0
 49
0
 74
    0
 49
-3.175
 74
    0
  0
LTYPE
  5
45
330
5
100
AcDbSymbolTableRecord
100
AcDbLinetypeTableRecord
  2
BORDERX2
 70
    0
  3
Border (2x) ____  ____  .  ____  ____  .  ___
 72
   65
 73
    6
 40
88.89999999999999
 49
25.4
 74
    0
 49
-12.7
 74
    0
 49
25.4
 74
    0
 49
-12.7
 74
    0
 49
0
 74
    0
 49
-12.7
 74
    0
  0
LTYPE
  5
46
330
5
100
AcDbSymbolTableRecord
100
AcDbLinetypeTableRecord
  2
CENTER
 70
    0
  3
Center ____ _ ____ _ ____ _ ____ _ ____ _ ____
 72
   65
 73
    4
 40
50.8
 49
31.75
 74
    0
 49
-6.35
 74
    0
 49
6.35
 74
    0
 49
-6.35
 74
    0
  0
LTYPE
  5
47
330
5
100
AcDbSymbolTableRecord
100
AcDbLinetypeTableRecord
  2
CENTERTINY
 70
    0
  3
Center (.15x) ___ _ ___ _ ___ _ ___ _ ___ _ ___
 72
   65
 73
    4
 40
7.62
 49
4.7625
 74
    0
 49
-0.9525
 74
    0
 49
0.9525
 74
    0
 49
-0.9525
 74
    0
  0
LTYPE
  5
48
330
5
100
AcDbSymbolTableRecord
100
AcDbLinetypeTableRecord
  2
CENTER2
 70
    0
  3
Center (.5x) ___ _ ___ _ ___ _ ___ _ ___ _ ___
 72
   65
 73
    4
 40
28.575
 49
19.05
 74
    0
 49
-3.175
 74
    0
 49
3.175
 74
    0
 49
-3.175
 74
    0
  0
LTYPE
  5
49
330
5
100
AcDbSymbolTableRecord
100
AcDbLinetypeTableRecord
  2
CENTERX2
 70
    0
  3
Center (2x) ________  __  ________  __  _____
 72
   65
 73
    4
 40
101.6
 49
63.5
 74
    0
 49
-12.7
 74
    0
 49
12.7
 74
    0
 49
-12.7
 74
    0
  0
ENDTAB
  0
TABLE
  2
LAYER
  5
2
330
0
100
AcDbSymbolTable
 70
    1
  0
LAYER
  5
10
330
2
100
AcDbSymbolTableRecord
100
AcDbLayerTableRecord
  2
0
 70
    0
 62
    7
  6
CONTINUOUS
370
   -3
390
F
  0
ENDTAB
  0
TABLE
  2
STYLE
  5
3
330
0
100
AcDbSymbolTable
 70
    3
  0
STYLE
  5
4A
330
2
100
AcDbSymbolTableRecord
100
AcDbTextStyleTableRecord
  2
Standard
 70
    0
 40
0
 41
1
 50
0
 71
    0
 42
1
  3
txt
  4

  0
ENDTAB
  0
TABLE
  2
VIEW
  5
6
330
0
100
AcDbSymbolTable
 70
    0
  0
ENDTAB
  0
TABLE
  2
UCS
  5
7
330
0
100
AcDbSymbolTable
 70
    0
  0
ENDTAB
  0
TABLE
  2
APPID
  5
9
330
0
100
AcDbSymbolTable
 70
    1
  0
APPID
  5
12
330
9
100
AcDbSymbolTableRecord
100
AcDbRegAppTableRecord
  2
ACAD
 70
    0
  0
APPID
  5
4B
330
9
100
AcDbSymbolTableRecord
100
AcDbRegAppTableRecord
  2
LibreCad
 70
    0
  0
ENDTAB
  0
TABLE
  2
DIMSTYLE
  5
A
330
0
100
AcDbSymbolTable
 70
    1
100
AcDbDimStyleTable
 71
    1
  0
DIMSTYLE
105
4C
330
A
100
AcDbSymbolTableRecord
100
AcDbDimStyleTableRecord
  2
Standard
 70
    0
 40
2.5
 41
2.5
 42
0.625
 43
0.38
 44
1.25
 45
0
 46
0
 47
0
 48
0
 49
1
140
2.5
141
0.09
142
0
143
25.4
144
1
145
0
146
1
147
0.625
148
0
 71
    0
 72
    0
 73
    0
 74
    1
 75
    0
 76
    0
 77
    0
 78
    8
 79
    0
170
    0
171
    2
172
    0
173
    0
174
    0
175
    0
176
    0
177
    0
178
    0
179
    0
271
    2
272
    4
273
    2
274
    2
275
    0
276
    0
277
    2
278
   44
279
    0
280
    0
281
    0
282
    0
283
    1
284
    0
285
    0
286
    0
288
    0
289
    3
340
STANDARD
341

371
   -2
372
   -2
  0
ENDTAB
  0
TABLE
  2
BLOCK_RECORD
  5
1
330
0
100
AcDbSymbolTable
 70
    2
  0
BLOCK_RECORD
  5
1F
330
1
100
AcDbSymbolTableRecord
100
AcDbBlockTableRecord
  2
*Model_Space
 70
    0
280
    1
281
    0
  0
BLOCK_RECORD
  5
1E
330
1
100
AcDbSymbolTableRecord
100
AcDbBlockTableRecord
  2
*Paper_Space
 70
    0
280
    1
281
    0
  0
ENDTAB
  0
ENDSEC
  0
SECTION
  2
BLOCKS
  0
BLOCK
  5
20
330
1F
100
AcDbEntity
  8
0
100
AcDbBlockBegin
  2
*Model_Space
 70
    0
 10
0
 20
0
 30
0
  3
*Model_Space
  1

  0
ENDBLK
  5
21
330
1F
100
AcDbEntity
  8
0
100
AcDbBlockEnd
  0
BLOCK
  5
1C
330
1B
100
AcDbEntity
  8
0
100
AcDbBlockBegin
  2
*Paper_Space
 70
    0
 10
0
 20
0
 30
0
  3
*Paper_Space
  1

  0
ENDBLK
  5
1D
330
1F
100
AcDbEntity
  8
0
100
AcDbBlockEnd
  0
ENDSEC
  0
SECTION
  2
ENTITIES
  0
LWPOLYLINE
  5
4D
100
AcDbEntity
  8
0
  6
ByLayer
 62
  256
370
   -1
100
AcDbPolyline
 90
    8
 70
    1
 43
0
 10
-44.4625
 20
-82.1345468543698
 42
-0.4142135623730929
 10
-43.46250000000001
 20
-83.1345468543698
 10
-43.46250000000002
 20
-95.13454685436982
 42
-0.4142135623730909
 10
-44.46250000000001
 20
-96.13454685436979
 10
-56.46250000000004
 20
-96.13454685436979
 42
-0.4142135623730971
 10
-57.46250000000002
 20
-95.13454685436982
 10
-57.46250000000001
 20
-83.1345468543698
 42
-0.414213562373095
 10
-56.46250000000001
 20
-82.1345468543698
  0
LWPOLYLINE
  5
4E
100
AcDbEntity
  8
0
  6
ByLayer
 62
  256
370
   -1
100
AcDbPolyline
 90
    8
 70
    1
 43
0
 10
-71.75000000000003
 20
-45.03454685436981
 10
-71.75000000000003
 20
-57.03454685436981
 42
0.414213562373095
 10
-70.75000000000003
 20
-58.03454685436981
 10
-58.75000000000003
 20
-58.03454685436981
 42
0.414213562373095
 10
-57.75000000000003
 20
-57.03454685436981
 10
-57.75000000000003
 20
-45.03454685436981
 42
0.4142135623730929
 10
-58.75000000000003
 20
-44.03454685436981
 10
-70.75000000000003
 20
-44.03454685436981
 42
0.414213562373095
  0
LWPOLYLINE
  5
4F
100
AcDbEntity
  8
0
  6
ByLayer
 62
  256
370
   -1
100
AcDbPolyline
 90
    8
 70
    1
 43
0
 10
-9.837499999999999
 20
-64.0845468543698
 42
-0.4142135623730961
 10
-8.837499999999977
 20
-63.08454685436981
 10
3.162499999999999
 20
-63.08454685436978
 42
-0.4142135623730958
 10
4.162500000000023
 20
-64.0845468543698
 10
4.162499999999994
 20
-76.0845468543698
 42
-0.4142135623730945
 10
3.162499999999994
 20
-77.0845468543698
 10
-8.837499999999979
 20
-77.0845468543698
 42
-0.4142135623730945
 10
-9.837499999999977
 20
-76.0845468543698
  0
LWPOLYLINE
  5
50
100
AcDbEntity
  8
0
  6
ByLayer
 62
  256
370
   -1
100
AcDbPolyline
 90
    8
 70
    1
 43
0
 10
-81.27500000000001
 20
-25.9845468543698
 42
-0.4142135623730929
 10
-80.27500000000003
 20
-24.9845468543698
 10
-68.27500000000001
 20
-24.9845468543698
 42
-0.414213562373095
 10
-67.27500000000001
 20
-25.9845468543698
 10
-67.27500000000001
 20
-37.98454685436981
 42
-0.414213562373095
 10
-68.27500000000001
 20
-38.98454685436981
 10
-80.27500000000003
 20
-38.98454685436982
 42
-0.414213562373095
 10
-81.27500000000006
 20
-37.98454685436981
  0
LWPOLYLINE
  5
51
100
AcDbEntity
  8
0
  6
ByLayer
 62
  256
370
   -1
100
AcDbPolyline
 90
    8
 70
    1
 43
0
 10
52.07500000000002
 20
-25.9845468543698
 42
-0.4142135623730919
 10
53.07500000000001
 20
-24.9845468543698
 10
65.075
 20
-24.9845468543698
 42
-0.4142135623730981
 10
66.07500000000002
 20
-25.9845468543698
 10
66.07500000000002
 20
-37.98454685436981
 42
-0.414213562373095
 10
65.07500000000002
 20
-38.98454685436981
 10
53.07500000000001
 20
-38.98454685436982
 42
-0.4142135623730929
 10
52.07499999999998
 20
-37.98454685436981
  0
LWPOLYLINE
  5
52
100
AcDbEntity
  8
0
  6
ByLayer
 62
  256
370
   -1
100
AcDbPolyline
 90
    8
 70
    1
 43
0
 10
-28.88750000000001
 20
-64.0845468543698
 42
-0.4142135623730971
 10
-27.88750000000002
 20
-63.08454685436982
 10
-15.88749999999999
 20
-63.08454685436981
 42
-0.414213562373095
 10
-14.8875
 20
-64.0845468543698
 10
-14.8875
 20
-76.0845468543698
 42
-0.414213562373095
 10
-15.8875
 20
-77.0845468543698
 10
-27.88750000000002
 20
-77.0845468543698
 42
-0.414213562373095
 10
-28.88750000000002
 20
-76.0845468543698
  0
LWPOLYLINE
  5
53
100
AcDbEntity
  8
0
  6
ByLayer
 62
  256
370
   -1
100
AcDbPolyline
 90
    8
 70
    1
 43
0
 10
52.07500000000001
 20
-2.17204685436981
 10
52.07500000000001
 20
-14.1720468543698
 42
0.4142135623730961
 10
53.07500000000001
 20
-15.1720468543698
 10
65.07500000000002
 20
-15.1720468543698
 42
0.414213562373095
 10
66.07500000000002
 20
-14.1720468543698
 10
66.07500000000003
 20
-2.172046854369832
 42
0.4142135623730992
 10
65.07500000000002
 20
-1.17204685436981
 10
53.07500000000002
 20
-1.17204685436981
 42
0.4142135623730973
  0
LWPOLYLINE
  5
54
100
AcDbEntity
  8
0
  6
ByLayer
 62
  256
370
   -1
100
AcDbPolyline
 90
    8
 70
    1
 43
0
 10
-114.6125
 20
-83.1345468543698
 42
-0.414213562373095
 10
-113.6125
 20
-82.1345468543698
 10
-101.6125
 20
-82.1345468543698
 42
-0.414213562373095
 10
-100.6125
 20
-83.1345468543698
 10
-100.6125
 20
-95.13454685436982
 42
-0.414213562373095
 10
-101.6125
 20
-96.13454685436984
 10
-113.6125
 20
-96.13454685436984
 42
-0.414213562373095
 10
-114.6125
 20
-95.13454685436982
  0
LWPOLYLINE
  5
55
100
AcDbEntity
  8
0
  6
ByLayer
 62
  256
370
   -1
100
AcDbPolyline
 90
    8
 70
    1
 43
0
 10
-66.98750000000001
 20
-64.0845468543698
 42
-0.414213562373095
 10
-65.98750000000001
 20
-63.0845468543698
 10
-53.98750000000001
 20
-63.0845468543698
 42
-0.4142135623730929
 10
-52.98749999999998
 20
-64.0845468543698
 10
-52.98750000000001
 20
-76.0845468543698
 42
-0.414213562373095
 10
-53.98750000000001
 20
-77.0845468543698
 10
-65.98750000000001
 20
-77.0845468543698
 42
-0.414213562373095
 10
-66.98750000000001
 20
-76.0845468543698
  0
LWPOLYLINE
  5
56
100
AcDbEntity
  8
0
  6
ByLayer
 62
  256
370
   -1
100
AcDbPolyline
 90
    8
 70
    1
 43
0
 10
-128.9
 20
-45.03454685436981
 42
-0.414213562373095
 10
-127.9
 20
-44.03454685436981
 10
-115.9
 20
-44.03454685436981
 42
-0.414213562373095
 10
-114.9
 20
-45.03454685436981
 10
-114.9
 20
-57.03454685436981
 42
-0.414213562373095
 10
-115.9
 20
-58.03454685436981
 10
-127.9
 20
-58.03454685436982
 42
-0.4142135623730992
 10
-128.9
 20
-57.03454685436981
  0
LWPOLYLINE
  5
57
100
AcDbEntity
  8
0
  6
ByLayer
 62
  256
370
   -1
100
AcDbPolyline
 90
    8
 70
    1
 43
0
 10
94.9375
 20
-106.94704685437
 42
-0.414213562373095
 10
95.9375
 20
-105.94704685437
 10
107.9375
 20
-105.94704685437
 42
-0.414213562373095
 10
108.9375
 20
-106.94704685437
 10
108.9375
 20
-118.94704685437
 42
-0.414213562373095
 10
107.9375
 20
-119.94704685437
 10
95.93750000000001
 20
-119.94704685437
 42
-0.4142135623730909
 10
94.93750000000003
 20
-118.94704685437
  0
LWPOLYLINE
  5
58
100
AcDbEntity
  8
0
  6
ByLayer
 62
  256
370
   -1
100
AcDbPolyline
 90
    8
 70
    1
 43
0
 10
-6.362500000000009
 20
-82.1345468543698
 42
-0.4142135623730945
 10
-5.36250000000001
 20
-83.1345468543698
 10
-5.362499999999997
 20
-95.13454685436982
 42
-0.4142135623730924
 10
-6.362500000000011
 20
-96.13454685436979
 10
-18.3625
 20
-96.13454685436984
 42
-0.4142135623730971
 10
-19.36250000000001
 20
-95.13454685436982
 10
-19.3625
 20
-83.1345468543698
 42
-0.414213562373094
 10
-18.3625
 20
-82.1345468543698
  0
LWPOLYLINE
  5
59
100
AcDbEntity
  8
0
  6
ByLayer
 62
  256
370
   -1
100
AcDbPolyline
 90
    8
 70
    1
 43
0
 10
-100.325
 20
-25.98454685436981
 42
-0.4142135623731013
 10
-99.32500000000002
 20
-24.9845468543698
 10
-87.32500000000002
 20
-24.9845468543698
 42
-0.414213562373095
 10
-86.32500000000002
 20
-25.9845468543698
 10
-86.32500000000002
 20
-37.98454685436981
 42
-0.414213562373095
 10
-87.32500000000002
 20
-38.98454685436981
 10
-99.32500000000003
 20
-38.98454685436981
 42
-0.4142135623731054
 10
-100.325
 20
-37.98454685436981
  0
LWPOLYLINE
  5
5A
100
AcDbEntity
  8
0
  6
ByLayer
 62
  256
370
   -1
100
AcDbPolyline
 90
    8
 70
    1
 43
0
 10
150.8
 20
-82.1345468543698
 42
-0.414213562373095
 10
151.8
 20
-83.1345468543698
 10
151.8
 20
-95.13454685436982
 42
-0.4142135623730992
 10
150.8
 20
-96.13454685436983
 10
138.8
 20
-96.13454685436986
 42
-0.4142135623731034
 10
137.8
 20
-95.13454685436982
 10
137.8
 20
-83.1345468543698
 42
-0.4142135623730992
 10
138.8
 20
-82.1345468543698
  0
LWPOLYLINE
  5
5B
100
AcDbEntity
  8
0
  6
ByLayer
 62
  256
370
   -1
100
AcDbPolyline
 90
    8
 70
    1
 43
0
 10
113.9875
 20
-106.94704685437
 42
-0.414213562373095
 10
114.9875
 20
-105.94704685437
 10
126.9875
 20
-105.94704685437
 42
-0.4142135623730909
 10
127.9875
 20
-106.94704685437
 10
127.9875
 20
-118.94704685437
 42
-0.414213562373095
 10
126.9875
 20
-119.94704685437
 10
114.9875
 20
-119.94704685437
 42
-0.414213562373095
 10
113.9875
 20
-118.94704685437
  0
LWPOLYLINE
  5
5C
100
AcDbEntity
  8
0
  6
ByLayer
 62
  256
370
   -1
100
AcDbPolyline
 90
    8
 70
    1
 43
0
 10
-47.93750000000002
 20
-64.0845468543698
 42
-0.4142135623730909
 10
-46.93750000000003
 20
-63.08454685436983
 10
-34.93750000000003
 20
-63.0845468543698
 42
-0.414213562373095
 10
-33.93750000000003
 20
-64.0845468543698
 10
-33.93750000000003
 20
-76.0845468543698
 42
-0.414213562373095
 10
-34.93750000000003
 20
-77.0845468543698
 10
-46.93750000000004
 20
-77.0845468543698
 42
-0.4142135623730909
 10
-47.93750000000002
 20
-76.0845468543698
  0
LWPOLYLINE
  5
5D
100
AcDbEntity
  8
0
  6
ByLayer
 62
  256
370
   -1
100
AcDbPolyline
 90
    8
 70
    1
 43
0
 10
-105.0875
 20
-64.0845468543698
 42
-0.414213562373095
 10
-104.0875
 20
-63.0845468543698
 10
-92.08750000000001
 20
-63.0845468543698
 42
-0.414213562373095
 10
-91.08750000000001
 20
-64.0845468543698
 10
-91.08750000000001
 20
-76.0845468543698
 42
-0.414213562373095
 10
-92.08750000000001
 20
-77.0845468543698
 10
-104.0875
 20
-77.0845468543698
 42
-0.414213562373095
 10
-105.0875
 20
-76.0845468543698
  0
LWPOLYLINE
  5
5E
100
AcDbEntity
  8
0
  6
ByLayer
 62
  256
370
   -1
100
AcDbPolyline
 90
    8
 70
    1
 43
0
 10
137.8
 20
-64.0845468543698
 42
-0.4142135623730992
 10
138.8
 20
-63.0845468543698
 10
150.8
 20
-63.0845468543698
 42
-0.414213562373095
 10
151.8
 20
-64.0845468543698
 10
151.8
 20
-76.0845468543698
 42
-0.414213562373095
 10
150.8
 20
-77.0845468543698
 10
138.8
 20
-77.08454685436985
 42
-0.4142135623731034
 10
137.8
 20
-76.0845468543698
  0
LWPOLYLINE
  5
5F
100
AcDbEntity
  8
0
  6
ByLayer
 62
  256
370
   -1
100
AcDbPolyline
 90
    8
 70
    1
 43
0
 10
-38.41249999999999
 20
-83.1345468543698
 42
-0.414213562373095
 10
-37.41249999999999
 20
-82.1345468543698
 10
-25.41249999999999
 20
-82.1345468543698
 42
-0.414213562373095
 10
-24.41249999999999
 20
-83.1345468543698
 10
-24.41250000000001
 20
-95.13454685436982
 42
-0.4142135623730961
 10
-25.41249999999999
 20
-96.13454685436979
 10
-37.41250000000002
 20
-96.1345468543698
 42
-0.4142135623730909
 10
-38.41249999999999
 20
-95.13454685436982
  0
LWPOLYLINE
  5
60
100
AcDbEntity
  8
0
  6
ByLayer
 62
  256
370
   -1
100
AcDbPolyline
 90
    8
 70
    1
 43
0
 10
33.02500000000001
 20
-25.9845468543698
 42
-0.414213562373095
 10
34.02500000000001
 20
-24.9845468543698
 10
46.025
 20
-24.98454685436982
 42
-0.414213562373094
 10
47.02499999999997
 20
-25.9845468543698
 10
47.025
 20
-37.98454685436981
 42
-0.414213562373095
 10
46.025
 20
-38.98454685436981
 10
34.025
 20
-38.98454685436982
 42
-0.4142135623730909
 10
33.02499999999998
 20
-37.98454685436981
  0
LWPOLYLINE
  5
61
100
AcDbEntity
  8
0
  6
ByLayer
 62
  256
370
   -1
100
AcDbPolyline
 90
    8
 70
    1
 43
0
 10
-30.17500000000001
 20
-24.98454685436981
 42
-0.414213562373095
 10
-29.17500000000004
 20
-25.9845468543698
 10
-29.17500000000003
 20
-37.98454685436981
 42
-0.414213562373094
 10
-30.17500000000001
 20
-38.98454685436981
 10
-42.17500000000001
 20
-38.98454685436981
 42
-0.414213562373095
 10
-43.17500000000001
 20
-37.98454685436981
 10
-43.17500000000005
 20
-25.98454685436981
 42
-0.4142135623730971
 10
-42.17500000000001
 20
-24.9845468543698
  0
LWPOLYLINE
  5
62
100
AcDbEntity
  8
0
  6
ByLayer
 62
  256
370
   -1
100
AcDbPolyline
 90
    8
 70
    1
 43
0
 10
-9.837499999999977
 20
-2.17204685436981
 42
-0.414213562373095
 10
-8.837499999999977
 20
-1.17204685436981
 10
3.162499999999997
 20
-1.172046854369799
 42
-0.4142135623730949
 10
4.162500000000023
 20
-2.17204685436981
 10
4.162499999999993
 20
-14.17204685436979
 42
-0.414213562373095
 10
3.162499999999994
 20
-15.1720468543698
 10
-8.837499999999977
 20
-15.17204685436981
 42
-0.414213562373095
 10
-9.837500000000006
 20
-14.1720468543698
  0
LWPOLYLINE
  5
63
100
AcDbEntity
  8
0
  6
ByLayer
 62
  256
370
   -1
100
AcDbPolyline
 90
    8
 70
    1
 43
0
 10
-86.03749999999999
 20
-64.0845468543698
 10
-86.03749999999999
 20
-76.0845468543698
 42
0.414213562373095
 10
-85.03749999999999
 20
-77.0845468543698
 10
-73.03749999999999
 20
-77.0845468543698
 42
0.414213562373095
 10
-72.03749999999999
 20
-76.0845468543698
 10
-72.03749999999999
 20
-64.0845468543698
 42
0.4142135623730992
 10
-73.03749999999999
 20
-63.0845468543698
 10
-85.03749999999999
 20
-63.0845468543698
 42
0.414213562373095
  0
LWPOLYLINE
  5
64
100
AcDbEntity
  8
0
  6
ByLayer
 62
  256
370
   -1
100
AcDbPolyline
 90
    8
 70
    1
 43
0
 10
-28.88750000000002
 20
-2.17204685436981
 42
-0.414213562373095
 10
-27.88750000000002
 20
-1.17204685436981
 10
-15.8875
 20
-1.172046854369811
 42
-0.4142135623730955
 10
-14.8875
 20
-2.17204685436981
 10
-14.8875
 20
-14.1720468543698
 42
-0.414213562373095
 10
-15.8875
 20
-15.1720468543698
 10
-27.88750000000002
 20
-15.1720468543698
 42
-0.414213562373095
 10
-28.88750000000002
 20
-14.1720468543698
  0
LWPOLYLINE
  5
65
100
AcDbEntity
  8
0
  6
ByLayer
 62
  256
370
   -1
100
AcDbPolyline
 90
    8
 70
    1
 43
0
 10
-90.80000000000004
 20
-45.03454685436981
 42
-0.414213562373095
 10
-89.80000000000004
 20
-44.03454685436981
 10
-77.80000000000003
 20
-44.03454685436981
 42
-0.4142135623730929
 10
-76.80000000000004
 20
-45.03454685436981
 10
-76.80000000000004
 20
-57.03454685436981
 42
-0.4142135623730929
 10
-77.80000000000001
 20
-58.03454685436981
 10
-89.80000000000003
 20
-58.03454685436981
 42
-0.4142135623730971
 10
-90.79999999999998
 20
-57.03454685436981
  0
LWPOLYLINE
  5
66
100
AcDbEntity
  8
0
  6
ByLayer
 62
  256
370
   -1
100
AcDbPolyline
 90
    8
 70
    1
 43
0
 10
42.54999999999998
 20
-45.03454685436981
 42
-0.414213562373095
 10
43.54999999999998
 20
-44.03454685436981
 10
55.54999999999998
 20
-44.03454685436984
 42
-0.414213562373095
 10
56.54999999999998
 20
-45.03454685436981
 10
56.54999999999998
 20
-57.03454685436981
 42
-0.414213562373095
 10
55.54999999999998
 20
-58.03454685436981
 10
43.54999999999998
 20
-58.03454685436982
 42
-0.414213562373095
 10
42.54999999999998
 20
-57.03454685436981
  0
LWPOLYLINE
  5
67
100
AcDbEntity
  8
0
  6
ByLayer
 62
  256
370
   -1
100
AcDbPolyline
 90
    8
 70
    1
 43
0
 10
4.450000000000003
 20
-45.03454685436981
 42
-0.414213562373095
 10
5.450000000000017
 20
-44.03454685436979
 10
17.45000000000001
 20
-44.03454685436984
 42
-0.414213562373094
 10
18.44999999999999
 20
-45.03454685436981
 10
18.44999999999999
 20
-57.03454685436981
 42
-0.414213562373095
 10
17.44999999999999
 20
-58.03454685436981
 10
5.449999999999988
 20
-58.03454685436982
 42
-0.4142135623730948
 10
4.44999999999996
 20
-57.03454685436981
  0
LWPOLYLINE
  5
68
100
AcDbEntity
  8
0
  6
ByLayer
 62
  256
370
   -1
100
AcDbPolyline
 90
    8
 70
    1
 43
0
 10
-152.7125
 20
-45.03454685436981
 42
-0.414213562373095
 10
-151.7125
 20
-44.03454685436981
 10
-139.7125
 20
-44.03454685436981
 42
-0.414213562373095
 10
-138.7125
 20
-45.03454685436981
 10
-138.7125
 20
-57.03454685436981
 42
-0.414213562373095
 10
-139.7125
 20
-58.03454685436981
 10
-151.7125
 20
-58.03454685436981
 42
-0.414213562373095
 10
-152.7125
 20
-57.03454685436981
  0
LWPOLYLINE
  5
69
100
AcDbEntity
  8
0
  6
ByLayer
 62
  256
370
   -1
100
AcDbPolyline
 90
    8
 70
    1
 43
0
 10
36.50000000000001
 20
-44.03454685436981
 42
-0.4142135623730909
 10
37.5
 20
-45.03454685436981
 10
37.5
 20
-57.03454685436981
 42
-0.414213562373095
 10
36.5
 20
-58.03454685436981
 10
24.5
 20
-58.03454685436979
 42
-0.414213562373094
 10
23.50000000000003
 20
-57.03454685436981
 10
23.49999999999999
 20
-45.03454685436981
 42
-0.414213562373095
 10
24.5
 20
-44.03454685436979
  0
LWPOLYLINE
  5
6A
100
AcDbEntity
  8
0
  6
ByLayer
 62
  256
370
   -1
100
AcDbPolyline
 90
    8
 70
    1
 43
0
 10
90.17499999999998
 20
-2.17204685436981
 42
-0.414213562373095
 10
91.17499999999998
 20
-1.17204685436981
 10
103.175
 20
-1.172046854369795
 42
-0.4142135623730909
 10
104.175
 20
-2.17204685436981
 10
104.175
 20
-14.1720468543698
 42
-0.414213562373095
 10
103.175
 20
-15.1720468543698
 10
91.175
 20
-15.17204685436981
 42
-0.4142135623731003
 10
90.17499999999997
 20
-14.1720468543698
  0
LWPOLYLINE
  5
6B
100
AcDbEntity
  8
0
  6
ByLayer
 62
  256
370
   -1
100
AcDbPolyline
 90
    8
 70
    1
 43
0
 10
47.31249999999999
 20
-64.0845468543698
 10
47.31249999999999
 20
-76.0845468543698
 42
0.414213562373095
 10
48.31249999999999
 20
-77.0845468543698
 10
60.31249999999999
 20
-77.0845468543698
 42
0.414213562373095
 10
61.31249999999999
 20
-76.0845468543698
 10
61.3125
 20
-64.0845468543698
 42
0.4142135623730909
 10
60.31249999999999
 20
-63.0845468543698
 10
48.31250000000001
 20
-63.0845468543698
 42
0.4142135623730992
  0
LWPOLYLINE
  5
6C
100
AcDbEntity
  8
0
  6
ByLayer
 62
  256
370
   -1
100
AcDbPolyline
 90
    8
 70
    1
 43
0
 10
33.02500000000001
 20
-2.17204685436981
 10
33.02500000000001
 20
-14.1720468543698
 42
0.414213562373095
 10
34.02500000000001
 20
-15.1720468543698
 10
46.025
 20
-15.1720468543698
 42
0.414213562373095
 10
47.025
 20
-14.1720468543698
 10
47.02500000000001
 20
-2.172046854369803
 42
0.414213562373094
 10
46.025
 20
-1.17204685436981
 10
34.025
 20
-1.172046854369803
 42
0.4142135623730962
  0
LWPOLYLINE
  5
6D
100
AcDbEntity
  8
0
  6
ByLayer
 62
  256
370
   -1
100
AcDbPolyline
 90
   10
 70
    1
 43
0
 10
-137.33125
 20
-63.0845468543698
 10
-154.09375
 20
-63.0845468543698
 42
0.1084391695173797
 10
-154.5125
 20
-63.17644529754926
 42
0.5472327724910805
 10
-155.93125
 20
-64.0845468543698
 10
-155.93125
 20
-76.0845468543698
 42
0.5472327724911102
 10
-154.5125
 20
-76.99264841119037
 42
0.1084391695173797
 10
-154.09375
 20
-77.08454685436982
 10
-137.33125
 20
-77.0845468543698
 42
0.414213562373095
 10
-136.33125
 20
-76.0845468543698
 10
-136.33125
 20
-64.0845468543698
 42
0.414213562373095
  0
LWPOLYLINE
  5
6E
100
AcDbEntity
  8
0
  6
ByLayer
 62
  256
370
   -1
100
AcDbPolyline
 90
    8
 70
    1
 43
0
 10
56.8375
 20
-83.1345468543698
 42
-0.414213562373095
 10
57.8375
 20
-82.1345468543698
 10
69.83750000000002
 20
-82.1345468543698
 42
-0.4142135623730867
 10
70.83750000000001
 20
-83.1345468543698
 10
70.83750000000001
 20
-95.13454685436982
 42
-0.4142135623730909
 10
69.83750000000001
 20
-96.13454685436983
 10
57.83750000000001
 20
-96.13454685436977
 42
-0.414213562373095
 10
56.83750000000003
 20
-95.13454685436982
  0
LWPOLYLINE
  5
6F
100
AcDbEntity
  8
0
  6
ByLayer
 62
  256
370
   -1
100
AcDbPolyline
 90
    8
 70
    1
 43
0
 10
28.26250000000001
 20
-64.0845468543698
 42
-0.414213562373095
 10
29.26249999999999
 20
-63.0845468543698
 10
41.26250000000002
 20
-63.08454685436978
 42
-0.4142135623730971
 10
42.26250000000002
 20
-64.0845468543698
 10
42.26250000000002
 20
-76.0845468543698
 42
-0.414213562373095
 10
41.26250000000002
 20
-77.0845468543698
 10
29.26250000000001
 20
-77.08454685436985
 42
-0.4142135623730992
 10
28.26249999999999
 20
-76.0845468543698
  0
LWPOLYLINE
  5
70
100
AcDbEntity
  8
0
  6
ByLayer
 62
  256
370
   -1
100
AcDbPolyline
 90
    8
 70
    1
 43
0
 10
84.12499999999999
 20
-1.172046854369795
 42
-0.4142135623730931
 10
85.125
 20
-2.17204685436981
 10
85.125
 20
-14.1720468543698
 42
-0.414213562373095
 10
84.125
 20
-15.1720468543698
 10
72.12500000000001
 20
-15.17204685436981
 42
-0.4142135623730919
 10
71.125
 20
-14.1720468543698
 10
71.125
 20
-2.172046854369811
 42
-0.4142135623730953
 10
72.125
 20
-1.17204685436981
  0
LWPOLYLINE
  5
71
100
AcDbEntity
  8
0
  6
ByLayer
 62
  256
370
   -1
100
AcDbPolyline
 90
    8
 70
    1
 43
0
 10
37.78749999999999
 20
-83.1345468543698
 10
37.78750000000001
 20
-95.13454685436982
 42
0.4142135623730909
 10
38.78749999999999
 20
-96.13454685436979
 10
50.78749999999999
 20
-96.13454685436984
 42
0.4142135623730992
 10
51.78750000000002
 20
-95.13454685436982
 10
51.78750000000001
 20
-83.1345468543698
 42
0.4142135623730909
 10
50.78749999999999
 20
-82.1345468543698
 10
38.78749999999999
 20
-82.1345468543698
 42
0.414213562373095
  0
LWPOLYLINE
  5
72
100
AcDbEntity
  8
0
  6
ByLayer
 62
  256
370
   -1
100
AcDbPolyline
 90
    8
 70
    1
 43
0
 10
-90.80000000000004
 20
-2.17204685436981
 42
-0.414213562373095
 10
-89.80000000000004
 20
-1.17204685436981
 10
-77.80000000000003
 20
-1.17204685436981
 42
-0.4142135623730932
 10
-76.80000000000005
 20
-2.17204685436981
 10
-76.80000000000005
 20
-14.1720468543698
 42
-0.4142135623730929
 10
-77.80000000000001
 20
-15.1720468543698
 10
-89.80000000000004
 20
-15.17204685436978
 42
-0.4142135623730966
 10
-90.79999999999998
 20
-14.1720468543698
  0
LWPOLYLINE
  5
73
100
AcDbEntity
  8
0
  6
ByLayer
 62
  256
370
   -1
100
AcDbPolyline
 90
    8
 70
    1
 43
0
 10
79.3625
 20
-63.08454685436979
 42
-0.414213562373095
 10
80.36250000000004
 20
-64.0845468543698
 10
80.36249999999997
 20
-76.0845468543698
 42
-0.4142135623730909
 10
79.36249999999998
 20
-77.08454685436978
 10
67.36249999999998
 20
-77.08454685436978
 42
-0.414213562373095
 10
66.36250000000004
 20
-76.0845468543698
 10
66.36250000000003
 20
-64.0845468543698
 42
-0.4142135623730909
 10
67.36249999999998
 20
-63.0845468543698
  0
LWPOLYLINE
  5
74
100
AcDbEntity
  8
0
  6
ByLayer
 62
  256
370
   -1
100
AcDbPolyline
 90
    8
 70
    1
 43
0
 10
-14.60000000000001
 20
-45.03454685436981
 42
-0.4142135623730961
 10
-13.59999999999999
 20
-44.03454685436979
 10
-1.599999999999991
 20
-44.03454685436981
 42
-0.414213562373094
 10
-0.5999999999999943
 20
-45.03454685436981
 10
-0.5999999999999943
 20
-57.03454685436981
 42
-0.4142135623730945
 10
-1.599999999999994
 20
-58.03454685436981
 10
-13.59999999999999
 20
-58.03454685436981
 42
-0.414213562373095
 10
-14.59999999999999
 20
-57.03454685436981
  0
LWPOLYLINE
  5
75
100
AcDbEntity
  8
0
  6
ByLayer
 62
  256
370
   -1
100
AcDbPolyline
 90
    8
 70
    1
 43
0
 10
-96.85000000000002
 20
-1.172046854369811
 42
-0.4142135623730945
 10
-95.85000000000002
 20
-2.17204685436981
 10
-95.85000000000002
 20
-14.1720468543698
 42
-0.414213562373095
 10
-96.85000000000002
 20
-15.1720468543698
 10
-108.85
 20
-15.1720468543698
 42
-0.414213562373095
 10
-109.85
 20
-14.1720468543698
 10
-109.85
 20
-2.172046854369811
 42
-0.4142135623730953
 10
-108.85
 20
-1.17204685436981
  0
LWPOLYLINE
  5
76
100
AcDbEntity
  8
0
  6
ByLayer
 62
  256
370
   -1
100
AcDbPolyline
 90
   20
 70
    1
 43
0
 10
33.1875
 20
-115.1625
 10
33.81617556428333
 20
-115.1625
 42
0.05264173015812686
 10
34.02500000000001
 20
-115.18454685437
 10
46.02500000000008
 20
-115.18454685437
 42
0.05264173015810994
 10
46.23382443571671
 20
-115.1625
 10
52.86617556428331
 20
-115.1625
 42
0.05264173015812664
 10
53.07500000000001
 20
-115.18454685437
 10
65.075
 20
-115.18454685437
 42
0.0526417301581095
 10
65.28382443571661
 20
-115.1625
 10
71.91617556428334
 20
-115.1625
 42
0.05264173015812686
 10
72.125
 20
-115.18454685437
 10
84.12499999999999
 20
-115.18454685437
 42
0.05264173015811239
 10
84.33382443571659
 20
-115.1625
 10
84.96250000000003
 20
-115.1625
 42
0.4142135623730909
 10
85.96250000000006
 20
-114.1625
 10
85.96250000000003
 20
-102.1625
 42
0.414213562373095
 10
84.96250000000003
 20
-101.1625
 10
33.18750000000001
 20
-101.1625
 42
0.4142135623730992
 10
32.1875
 20
-102.1625
 10
32.1875
 20
-114.1625
 42
0.4142135623731013
  0
LWPOLYLINE
  5
77
100
AcDbEntity
  8
0
  6
ByLayer
 62
  256
370
   -1
100
AcDbPolyline
 90
    8
 70
    1
 43
0
 10
-5.074999999999989
 20
-25.9845468543698
 42
-0.414213562373095
 10
-4.074999999999989
 20
-24.9845468543698
 10
7.925000000000012
 20
-24.98454685436979
 42
-0.414213562373094
 10
8.925000000000011
 20
-25.9845468543698
 10
8.925000000000011
 20
-37.98454685436981
 42
-0.414213562373095
 10
7.925000000000011
 20
-38.98454685436981
 10
-4.074999999999991
 20
-38.98454685436981
 42
-0.4142135623730945
 10
-5.07499999999999
 20
-37.98454685436981
  0
LWPOLYLINE
  5
78
100
AcDbEntity
  8
0
  6
ByLayer
 62
  256
370
   -1
100
AcDbPolyline
 90
    8
 70
    1
 43
0
 10
-47.93750000000003
 20
-2.17204685436981
 42
-0.414213562373094
 10
-46.93750000000003
 20
-1.17204685436981
 10
-34.93750000000003
 20
-1.172046854369817
 42
-0.4142135623730969
 10
-33.93750000000003
 20
-2.17204685436981
 10
-33.93750000000004
 20
-14.17204685436981
 42
-0.4142135623730961
 10
-34.93750000000003
 20
-15.1720468543698
 10
-46.93750000000004
 20
-15.1720468543698
 42
-0.414213562373095
 10
-47.93750000000003
 20
-14.1720468543698
  0
LWPOLYLINE
  5
79
100
AcDbEntity
  8
0
  6
ByLayer
 62
  256
370
   -1
100
AcDbPolyline
 90
    8
 70
    1
 43
0
 10
-107.46875
 20
-102.18454685437
 42
-0.414213562373095
 10
-106.46875
 20
-101.18454685437
 10
-94.46875000000001
 20
-101.18454685437
 42
-0.414213562373095
 10
-93.46875000000003
 20
-102.18454685437
 10
-93.46875000000003
 20
-114.18454685437
 42
-0.414213562373095
 10
-94.46875000000003
 20
-115.18454685437
 10
-106.46875
 20
-115.18454685437
 42
-0.414213562373095
 10
-107.46875
 20
-114.18454685437
  0
LWPOLYLINE
  5
7A
100
AcDbEntity
  8
0
  6
ByLayer
 62
  256
370
   -1
100
AcDbPolyline
 90
    8
 70
    1
 43
0
 10
-95.56250000000003
 20
-83.1345468543698
 10
-95.56250000000003
 20
-95.13454685436982
 42
0.4142135623730909
 10
-94.56250000000003
 20
-96.1345468543698
 10
-82.56250000000003
 20
-96.13454685436986
 42
0.4142135623730992
 10
-81.5625
 20
-95.13454685436982
 10
-81.56250000000003
 20
-83.1345468543698
 42
0.414213562373095
 10
-82.56250000000003
 20
-82.1345468543698
 10
-94.56250000000003
 20
-82.1345468543698
 42
0.414213562373095
  0
LWPOLYLINE
  5
7B
100
AcDbEntity
  8
0
  6
ByLayer
 62
  256
370
   -1
100
AcDbPolyline
 90
    8
 70
    1
 43
0
 10
22.21250000000001
 20
-63.08454685436978
 42
-0.4142135623730971
 10
23.21250000000001
 20
-64.0845468543698
 10
23.21250000000001
 20
-76.0845468543698
 42
-0.414213562373095
 10
22.21250000000001
 20
-77.0845468543698
 10
10.2125
 20
-77.08454685436983
 42
-0.4142135623731003
 10
9.212499999999975
 20
-76.0845468543698
 10
9.212500000000011
 20
-64.0845468543698
 42
-0.4142135623730971
 10
10.21250000000001
 20
-63.08454685436981
  0
LWPOLYLINE
  5
7C
100
AcDbEntity
  8
0
  6
ByLayer
 62
  256
370
   -1
100
AcDbPolyline
 90
    8
 70
    1
 43
0
 10
137.8
 20
-45.03454685436981
 10
137.8
 20
-57.03454685436981
 42
0.414213562373095
 10
138.8
 20
-58.03454685436981
 10
150.8
 20
-58.03454685436981
 42
0.414213562373095
 10
151.8
 20
-57.03454685436981
 10
151.8
 20
-45.03454685436981
 42
0.414213562373095
 10
150.8
 20
-44.03454685436981
 10
138.8
 20
-44.03454685436981
 42
0.414213562373095
  0
LWPOLYLINE
  5
7D
100
AcDbEntity
  8
0
  6
ByLayer
 62
  256
370
   -1
100
AcDbPolyline
 90
    8
 70
    1
 43
0
 10
-128.9
 20
-2.17204685436981
 42
-0.414213562373095
 10
-127.9
 20
-1.17204685436981
 10
-115.9
 20
-1.172046854369811
 42
-0.4142135623730945
 10
-114.9
 20
-2.17204685436981
 10
-114.9
 20
-14.1720468543698
 42
-0.414213562373095
 10
-115.9
 20
-15.1720468543698
 10
-127.9
 20
-15.17204685436981
 42
-0.4142135623730976
 10
-128.9
 20
-14.1720468543698
  0
LWPOLYLINE
  5
7E
100
AcDbEntity
  8
0
  6
ByLayer
 62
  256
370
   -1
100
AcDbPolyline
 90
    8
 70
    1
 43
0
 10
71.125
 20
-25.9845468543698
 42
-0.414213562373095
 10
72.125
 20
-24.9845468543698
 10
84.12499999999999
 20
-24.9845468543698
 42
-0.4142135623730909
 10
85.125
 20
-25.9845468543698
 10
85.125
 20
-37.98454685436981
 42
-0.414213562373095
 10
84.125
 20
-38.98454685436981
 10
72.12500000000001
 20
-38.98454685436981
 42
-0.4142135623730909
 10
71.125
 20
-37.98454685436981
  0
LWPOLYLINE
  5
7F
100
AcDbEntity
  8
0
  6
ByLayer
 62
  256
370
   -1
100
AcDbPolyline
 90
    8
 70
    1
 43
0
 10
80.65000000000001
 20
-45.03454685436981
 42
-0.414213562373095
 10
81.65000000000001
 20
-44.03454685436981
 10
93.65000000000002
 20
-44.03454685436979
 42
-0.4142135623730888
 10
94.65000000000001
 20
-45.03454685436981
 10
94.65000000000001
 20
-57.03454685436981
 42
-0.414213562373095
 10
93.65000000000001
 20
-58.03454685436981
 10
81.64999999999999
 20
-58.03454685436982
 42
-0.4142135623730888
 10
80.65000000000001
 20
-57.03454685436981
  0
LWPOLYLINE
  5
80
100
AcDbEntity
  8
0
  6
ByLayer
 62
  256
370
   -1
100
AcDbPolyline
 90
    8
 70
    1
 43
0
 10
18.73750000000001
 20
-83.1345468543698
 42
-0.414213562373094
 10
19.73750000000001
 20
-82.1345468543698
 10
31.73749999999999
 20
-82.1345468543698
 42
-0.4142135623730857
 10
32.73750000000001
 20
-83.1345468543698
 10
32.7375
 20
-95.13454685436982
 42
-0.4142135623730909
 10
31.73750000000001
 20
-96.13454685436979
 10
19.7375
 20
-96.13454685436986
 42
-0.4142135623730992
 10
18.73749999999998
 20
-95.13454685436982
  0
LWPOLYLINE
  5
81
100
AcDbEntity
  8
0
  6
ByLayer
 62
  256
370
   -1
100
AcDbPolyline
 90
    8
 70
    1
 43
0
 10
9.212500000000006
 20
-2.17204685436981
 42
-0.414213562373095
 10
10.21250000000001
 20
-1.17204685436981
 10
22.2125
 20
-1.172046854369803
 42
-0.4142135623731018
 10
23.21250000000001
 20
-2.172046854369825
 10
23.21250000000001
 20
-14.1720468543698
 42
-0.414213562373095
 10
22.21250000000001
 20
-15.1720468543698
 10
10.21250000000001
 20
-15.17204685436981
 42
-0.414213562373095
 10
9.212499999999977
 20
-14.1720468543698
  0
LWPOLYLINE
  5
82
100
AcDbEntity
  8
0
  6
ByLayer
 62
  256
370
   -1
100
AcDbPolyline
 90
    8
 70
    1
 43
0
 10
-58.75000000000001
 20
-1.172046854369796
 42
-0.4142135623730924
 10
-57.75000000000003
 20
-2.172046854369811
 10
-57.75000000000003
 20
-14.1720468543698
 42
-0.414213562373095
 10
-58.75000000000003
 20
-15.1720468543698
 10
-70.75000000000003
 20
-15.1720468543698
 42
-0.414213562373095
 10
-71.75000000000003
 20
-14.1720468543698
 10
-71.75000000000003
 20
-2.172046854369811
 42
-0.4142135623730953
 10
-70.75000000000003
 20
-1.17204685436981
  0
LWPOLYLINE
  5
83
100
AcDbEntity
  8
0
  6
ByLayer
 62
  256
370
   -1
100
AcDbPolyline
 90
    8
 70
    1
 43
0
 10
83.03125000000003
 20
-83.1345468543698
 42
-0.414213562373095
 10
84.03125000000003
 20
-82.1345468543698
 10
96.03125000000001
 20
-82.13454685436983
 42
-0.4142135623730992
 10
97.03125
 20
-83.1345468543698
 10
97.03125
 20
-95.13454685436982
 42
-0.414213562373095
 10
96.03125
 20
-96.13454685436984
 10
84.03125000000003
 20
-96.13454685436983
 42
-0.414213562373095
 10
83.03125
 20
-95.13454685436982
  0
LWPOLYLINE
  5
84
100
AcDbEntity
  8
0
  6
ByLayer
 62
  256
370
   -1
100
AcDbPolyline
 90
    8
 70
    1
 43
0
 10
113.9875
 20
-87.8970468543698
 42
-0.414213562373095
 10
114.9875
 20
-86.8970468543698
 10
126.9875
 20
-86.89704685436982
 42
-0.4142135623730909
 10
127.9875
 20
-87.8970468543698
 10
127.9875
 20
-99.89704685436982
 42
-0.414213562373095
 10
126.9875
 20
-100.8970468543698
 10
114.9875
 20
-100.8970468543698
 42
-0.4142135623730867
 10
113.9875
 20
-99.89704685436982
  0
LWPOLYLINE
  5
85
100
AcDbEntity
  8
0
  6
ByLayer
 62
  256
370
   -1
100
AcDbPolyline
 90
    8
 70
    1
 43
0
 10
-155.09375
 20
-102.18454685437
 42
-0.414213562373095
 10
-154.09375
 20
-101.18454685437
 10
-142.09375
 20
-101.18454685437
 42
-0.4142135623730992
 10
-141.09375
 20
-102.18454685437
 10
-141.09375
 20
-114.18454685437
 42
-0.414213562373095
 10
-142.09375
 20
-115.18454685437
 10
-154.09375
 20
-115.18454685437
 42
-0.414213562373095
 10
-155.09375
 20
-114.18454685437
  0
LWPOLYLINE
  5
86
100
AcDbEntity
  8
0
  6
ByLayer
 62
  256
370
   -1
100
AcDbPolyline
 90
    8
 70
    1
 43
0
 10
-96.85000000000002
 20
-44.03454685436984
 42
-0.414213562373095
 10
-95.85000000000005
 20
-45.03454685436981
 10
-95.85000000000002
 20
-57.03454685436981
 42
-0.414213562373095
 10
-96.85000000000002
 20
-58.03454685436981
 10
-108.85
 20
-58.03454685436981
 42
-0.414213562373095
 10
-109.85
 20
-57.03454685436981
 10
-109.85
 20
-45.03454685436981
 42
-0.414213562373095
 10
-108.85
 20
-44.03454685436981
  0
LWPOLYLINE
  5
87
100
AcDbEntity
  8
0
  6
ByLayer
 62
  256
370
   -1
100
AcDbPolyline
 90
    8
 70
    1
 43
0
 10
104.4625
 20
-45.03454685436981
 42
-0.414213562373095
 10
105.4625
 20
-44.03454685436981
 10
117.4625
 20
-44.03454685436979
 42
-0.4142135623730929
 10
118.4625
 20
-45.03454685436981
 10
118.4625
 20
-57.03454685436981
 42
-0.414213562373095
 10
117.4625
 20
-58.03454685436981
 10
105.4625
 20
-58.03454685436982
 42
-0.4142135623730909
 10
104.4625
 20
-57.03454685436981
  0
LWPOLYLINE
  5
88
100
AcDbEntity
  8
0
  6
ByLayer
 62
  256
370
   -1
100
AcDbPolyline
 90
    8
 70
    1
 43
0
 10
146.0375
 20
-105.94704685437
 42
-0.4142135623731117
 10
147.0375000000001
 20
-106.94704685437
 10
147.0375
 20
-118.94704685437
 42
-0.414213562373095
 10
146.0375
 20
-119.94704685437
 10
134.0375
 20
-119.94704685437
 42
-0.414213562373095
 10
133.0375
 20
-118.94704685437
 10
133.0375
 20
-106.94704685437
 42
-0.414213562373095
 10
134.0375
 20
-105.94704685437
  0
LWPOLYLINE
  5
89
100
AcDbEntity
  8
0
  6
ByLayer
 62
  256
370
   -1
100
AcDbPolyline
 90
    8
 70
    1
 43
0
 10
61.59999999999997
 20
-45.03454685436981
 42
-0.414213562373095
 10
62.59999999999999
 20
-44.03454685436979
 10
74.60000000000001
 20
-44.03454685436979
 42
-0.4142135623730888
 10
75.59999999999999
 20
-45.03454685436981
 10
75.59999999999999
 20
-57.03454685436981
 42
-0.414213562373095
 10
74.59999999999999
 20
-58.03454685436981
 10
62.59999999999999
 20
-58.03454685436984
 42
-0.414213562373095
 10
61.59999999999999
 20
-57.03454685436981
  0
LWPOLYLINE
  5
8A
100
AcDbEntity
  8
0
  6
ByLayer
 62
  256
370
   -1
100
AcDbPolyline
 90
    8
 70
    1
 43
0
 10
-157.475
 20
-25.9845468543698
 10
-157.475
 20
-37.98454685436981
 42
0.4142135623730971
 10
-156.475
 20
-38.98454685436981
 10
-144.475
 20
-38.98454685436981
 42
0.414213562373095
 10
-143.475
 20
-37.98454685436981
 10
-143.475
 20
-25.9845468543698
 42
0.414213562373095
 10
-144.475
 20
-24.9845468543698
 10
-156.475
 20
-24.9845468543698
 42
0.414213562373095
  0
LWPOLYLINE
  5
8B
100
AcDbEntity
  8
0
  6
ByLayer
 62
  256
370
   -1
100
AcDbPolyline
 90
    8
 70
    1
 43
0
 10
-33.65000000000001
 20
-45.03454685436981
 42
-0.414213562373095
 10
-32.65000000000001
 20
-44.03454685436981
 10
-20.65000000000001
 20
-44.03454685436981
 42
-0.414213562373095
 10
-19.65000000000001
 20
-45.03454685436981
 10
-19.65000000000001
 20
-57.03454685436981
 42
-0.414213562373095
 10
-20.65000000000001
 20
-58.03454685436981
 10
-32.65000000000001
 20
-58.03454685436981
 42
-0.414213562373095
 10
-33.65000000000001
 20
-57.03454685436981
  0
LWPOLYLINE
  5
8C
100
AcDbEntity
  8
0
  6
ByLayer
 62
  256
370
   -1
100
AcDbPolyline
 90
    8
 70
    1
 43
0
 10
-52.70000000000003
 20
-45.03454685436981
 42
-0.414213562373095
 10
-51.70000000000002
 20
-44.03454685436979
 10
-39.70000000000002
 20
-44.03454685436981
 42
-0.414213562373095
 10
-38.70000000000002
 20
-45.03454685436981
 10
-38.70000000000002
 20
-57.03454685436981
 42
-0.414213562373095
 10
-39.70000000000002
 20
-58.03454685436981
 10
-51.70000000000002
 20
-58.03454685436981
 42
-0.414213562373095
 10
-52.70000000000002
 20
-57.03454685436981
  0
LWPOLYLINE
  5
8D
100
AcDbEntity
  8
0
  6
ByLayer
 62
  256
370
   -1
100
AcDbPolyline
 90
    8
 70
    1
 43
0
 10
-131.28125
 20
-102.18454685437
 42
-0.414213562373095
 10
-130.28125
 20
-101.18454685437
 10
-118.28125
 20
-101.18454685437
 42
-0.4142135623730867
 10
-117.28125
 20
-102.18454685437
 10
-117.28125
 20
-114.18454685437
 42
-0.414213562373095
 10
-118.28125
 20
-115.18454685437
 10
-130.28125
 20
-115.18454685437
 42
-0.414213562373095
 10
-131.28125
 20
-114.18454685437
  0
LWPOLYLINE
  5
8E
100
AcDbEntity
  8
0
  6
ByLayer
 62
  256
370
   -1
100
AcDbPolyline
 90
    8
 70
    1
 43
0
 10
-124.1375
 20
-64.0845468543698
 42
-0.414213562373095
 10
-123.1375
 20
-63.0845468543698
 10
-111.1375
 20
-63.0845468543698
 42
-0.414213562373095
 10
-110.1375
 20
-64.0845468543698
 10
-110.1375
 20
-76.0845468543698
 42
-0.414213562373095
 10
-111.1375
 20
-77.0845468543698
 10
-123.1375
 20
-77.0845468543698
 42
-0.414213562373095
 10
-124.1375
 20
-76.0845468543698
  0
LWPOLYLINE
  5
8F
100
AcDbEntity
  8
0
  6
ByLayer
 62
  256
370
   -1
100
AcDbPolyline
 90
    8
 70
    1
 43
0
 10
12.6875
 20
-82.13454685436979
 42
-0.4142135623730924
 10
13.6875
 20
-83.1345468543698
 10
13.68750000000001
 20
-95.13454685436982
 42
-0.4142135623730966
 10
12.6875
 20
-96.13454685436979
 10
0.6875000000000085
 20
-96.13454685436977
 42
-0.4142135623730914
 10
-0.3124999999999717
 20
-95.13454685436982
 10
-0.312499999999971
 20
-83.1345468543698
 42
-0.4142135623730946
 10
0.6875000000000284
 20
-82.1345468543698
  0
LWPOLYLINE
  5
90
100
AcDbEntity
  8
0
  6
ByLayer
 62
  256
370
   -1
100
AcDbPolyline
 90
    8
 70
    1
 43
0
 10
-49.22499999999999
 20
-24.9845468543698
 42
-0.414213562373094
 10
-48.22499999999999
 20
-25.9845468543698
 10
-48.22499999999997
 20
-37.98454685436981
 42
-0.414213562373095
 10
-49.22499999999999
 20
-38.98454685436981
 10
-61.22500000000002
 20
-38.98454685436981
 42
-0.414213562373095
 10
-62.22500000000002
 20
-37.98454685436981
 10
-62.22500000000002
 20
-25.9845468543698
 42
-0.4142135623730961
 10
-61.22500000000002
 20
-24.9845468543698
  0
LWPOLYLINE
  5
91
100
AcDbEntity
  8
0
  6
ByLayer
 62
  256
370
   -1
100
AcDbPolyline
 90
    8
 70
    1
 43
0
 10
-24.125
 20
-25.9845468543698
 42
-0.414213562373095
 10
-23.125
 20
-24.9845468543698
 10
-11.12500000000001
 20
-24.98454685436982
 42
-0.4142135623730955
 10
-10.125
 20
-25.9845468543698
 10
-10.125
 20
-37.98454685436981
 42
-0.414213562373095
 10
-11.125
 20
-38.98454685436981
 10
-23.125
 20
-38.98454685436981
 42
-0.414213562373095
 10
-24.12500000000003
 20
-37.98454685436981
  0
LWPOLYLINE
  5
92
100
AcDbEntity
  8
0
  6
ByLayer
 62
  256
370
   -1
100
AcDbPolyline
 90
    8
 70
    1
 43
0
 10
-119.375
 20
-25.9845468543698
 42
-0.414213562373095
 10
-118.375
 20
-24.9845468543698
 10
-106.375
 20
-24.9845468543698
 42
-0.414213562373095
 10
-105.375
 20
-25.9845468543698
 10
-105.375
 20
-37.9845468543698
 42
-0.4142135623730971
 10
-106.375
 20
-38.98454685436981
 10
-118.375
 20
-38.98454685436981
 42
-0.4142135623730888
 10
-119.375
 20
-37.98454685436981
  0
LWPOLYLINE
  5
93
100
AcDbEntity
  8
0
  6
ByLayer
 62
  256
370
   -1
100
AcDbPolyline
 90
    8
 70
    1
 43
0
 10
13.97499999999999
 20
-25.9845468543698
 42
-0.414213562373095
 10
14.97499999999999
 20
-24.9845468543698
 10
26.97499999999999
 20
-24.98454685436982
 42
-0.414213562373095
 10
27.97499999999999
 20
-25.9845468543698
 10
27.97500000000001
 20
-37.98454685436981
 42
-0.414213562373095
 10
26.97499999999999
 20
-38.98454685436982
 10
14.975
 20
-38.98454685436978
 42
-0.4142135623730935
 10
13.97500000000002
 20
-37.98454685436981
  0
LWPOLYLINE
  5
94
100
AcDbEntity
  8
0
  6
ByLayer
 62
  256
370
   -1
100
AcDbPolyline
 90
    8
 70
    1
 43
0
 10
-138.425
 20
-25.9845468543698
 42
-0.414213562373095
 10
-137.425
 20
-24.9845468543698
 10
-125.425
 20
-24.9845468543698
 42
-0.4142135623730878
 10
-124.425
 20
-25.9845468543698
 10
-124.425
 20
-37.9845468543698
 42
-0.4142135623730929
 10
-125.425
 20
-38.98454685436982
 10
-137.425
 20
-38.98454685436981
 42
-0.414213562373095
 10
-138.425
 20
-37.98454685436981
  0
LWPOLYLINE
  5
95
100
AcDbEntity
  8
0
  6
ByLayer
 62
  256
370
   -1
100
AcDbPolyline
 90
    8
 70
    1
 43
0
 10
-76.51250000000002
 20
-83.1345468543698
 42
-0.414213562373095
 10
-75.51250000000002
 20
-82.1345468543698
 10
-63.51250000000002
 20
-82.1345468543698
 42
-0.4142135623730929
 10
-62.51250000000002
 20
-83.1345468543698
 10
-62.5125
 20
-95.13454685436982
 42
-0.414213562373095
 10
-63.51250000000002
 20
-96.13454685436983
 10
-75.51250000000003
 20
-96.1345468543698
 42
-0.4142135623730909
 10
-76.51249999999999
 20
-95.13454685436982
  0
LWPOLYLINE
  5
96
100
AcDbEntity
  8
0
  6
ByLayer
 62
  256
370
   -1
100
AcDbPolyline
 90
    8
 70
    1
 43
0
 10
151.8
 20
-34.72204685436981
 10
151.8
 20
-19.72204685436981
 42
0.414213562373095
 10
150.8
 20
-18.72204685436981
 10
138.8
 20
-18.72204685436981
 42
0.414213562373095
 10
137.8
 20
-19.72204685436981
 10
137.8
 20
-34.72204685436981
 42
0.4142135623730971
 10
138.8
 20
-35.72204685436981
 10
150.8
 20
-35.72204685436981
 42
0.414213562373095
  0
LWPOLYLINE
  5
97
100
AcDbEntity
  8
0
  6
ByLayer
 62
  256
370
   -1
100
AcDbPolyline
 90
    8
 70
    1
 43
0
 10
109.463
 20
-2.154243205807475
 10
109.463
 20
-14.1542432058075
 42
0.4142135623730953
 10
111.463
 20
-16.1542432058075
 10
149.5629999999999
 20
-16.1542432058075
 42
0.414213562373095
 10
151.5629999999999
 20
-14.1542432058075
 10
151.5629999999999
 20
-2.154243205807467
 42
0.4142135623730938
 10
149.5629999999999
 20
-0.1542432058074752
 10
111.463
 20
-0.1542432058074752
 42
0.414213562373095
  0
LWPOLYLINE
  5
98
100
AcDbEntity
  8
0
  6
ByLayer
 62
  256
370
   -1
100
AcDbPolyline
 90
    8
 70
    1
 43
0
 10
-44.46250000000002
 20
-82.13454685436983
 42
-0.4142135623730971
 10
-43.46250000000002
 20
-83.1345468543698
 10
-43.46250000000002
 20
-95.13454685436982
 42
-0.4142135623730909
 10
-44.46250000000001
 20
-96.13454685436979
 10
-56.46250000000004
 20
-96.13454685436979
 42
-0.4142135623730971
 10
-57.46250000000002
 20
-95.13454685436982
 10
-57.46250000000001
 20
-83.1345468543698
 42
-0.414213562373095
 10
-56.46250000000001
 20
-82.1345468543698
  0
LWPOLYLINE
  5
99
100
AcDbEntity
  8
0
  6
ByLayer
 62
  256
370
   -1
100
AcDbPolyline
 90
    8
 70
    1
 43
0
 10
-71.75000000000003
 20
-45.03454685436981
 10
-71.75000000000003
 20
-57.03454685436981
 42
0.414213562373095
 10
-70.75000000000003
 20
-58.03454685436981
 10
-58.75000000000003
 20
-58.03454685436981
 42
0.414213562373095
 10
-57.75000000000003
 20
-57.03454685436981
 10
-57.75000000000003
 20
-45.03454685436981
 42
0.4142135623730929
 10
-58.75000000000003
 20
-44.03454685436981
 10
-70.75000000000003
 20
-44.03454685436981
 42
0.414213562373095
  0
LWPOLYLINE
  5
9A
100
AcDbEntity
  8
0
  6
ByLayer
 62
  256
370
   -1
100
AcDbPolyline
 90
    8
 70
    1
 43
0
 10
-9.837499999999999
 20
-64.0845468543698
 42
-0.4142135623730966
 10
-8.837499999999977
 20
-63.08454685436982
 10
3.162499999999999
 20
-63.08454685436978
 42
-0.4142135623730958
 10
4.162500000000023
 20
-64.0845468543698
 10
4.162499999999994
 20
-76.0845468543698
 42
-0.414213562373095
 10
3.162499999999993
 20
-77.0845468543698
 10
-8.837499999999979
 20
-77.0845468543698
 42
-0.4142135623730945
 10
-9.837499999999977
 20
-76.0845468543698
  0
LWPOLYLINE
  5
9B
100
AcDbEntity
  8
0
  6
ByLayer
 62
  256
370
   -1
100
AcDbPolyline
 90
    8
 70
    1
 43
0
 10
-81.27500000000001
 20
-25.9845468543698
 42
-0.4142135623730929
 10
-80.27500000000003
 20
-24.9845468543698
 10
-68.27500000000001
 20
-24.9845468543698
 42
-0.4142135623730961
 10
-67.27500000000001
 20
-25.9845468543698
 10
-67.27500000000001
 20
-37.98454685436981
 42
-0.414213562373095
 10
-68.27500000000001
 20
-38.98454685436981
 10
-80.27500000000002
 20
-38.98454685436981
 42
-0.4142135623730784
 10
-81.27500000000005
 20
-37.98454685436981
  0
LWPOLYLINE
  5
9C
100
AcDbEntity
  8
0
  6
ByLayer
 62
  256
370
   -1
100
AcDbPolyline
 90
    8
 70
    1
 43
0
 10
52.07500000000002
 20
-25.9845468543698
 42
-0.4142135623730919
 10
53.07500000000001
 20
-24.9845468543698
 10
65.07500000000002
 20
-24.9845468543698
 42
-0.4142135623730878
 10
66.07500000000002
 20
-25.9845468543698
 10
66.07500000000002
 20
-37.98454685436981
 42
-0.414213562373095
 10
65.07500000000002
 20
-38.98454685436981
 10
53.075
 20
-38.98454685436981
 42
-0.4142135623730929
 10
52.075
 20
-37.98454685436981
  0
LWPOLYLINE
  5
9D
100
AcDbEntity
  8
0
  6
ByLayer
 62
  256
370
   -1
100
AcDbPolyline
 90
    8
 70
    1
 43
0
 10
-28.88750000000001
 20
-64.0845468543698
 42
-0.4142135623730971
 10
-27.88750000000002
 20
-63.08454685436982
 10
-15.88749999999999
 20
-63.08454685436981
 42
-0.414213562373095
 10
-14.8875
 20
-64.0845468543698
 10
-14.8875
 20
-76.0845468543698
 42
-0.414213562373095
 10
-15.8875
 20
-77.0845468543698
 10
-27.88750000000001
 20
-77.08454685436979
 42
-0.4142135623730971
 10
-28.88750000000002
 20
-76.0845468543698
  0
LWPOLYLINE
  5
9E
100
AcDbEntity
  8
0
  6
ByLayer
 62
  256
370
   -1
100
AcDbPolyline
 90
    8
 70
    1
 43
0
 10
52.07500000000001
 20
-2.17204685436981
 10
52.075
 20
-14.1720468543698
 42
0.4142135623730929
 10
53.07500000000001
 20
-15.1720468543698
 10
65.07500000000002
 20
-15.1720468543698
 42
0.414213562373095
 10
66.07500000000002
 20
-14.1720468543698
 10
66.07500000000005
 20
-2.17204685436983
 42
0.4142135623730925
 10
65.07500000000002
 20
-1.17204685436981
 10
53.075
 20
-1.172046854369814
 42
0.4142135623731022
  0
LWPOLYLINE
  5
9F
100
AcDbEntity
  8
0
  6
ByLayer
 62
  256
370
   -1
100
AcDbPolyline
 90
    8
 70
    1
 43
0
 10
-114.6125
 20
-83.1345468543698
 42
-0.414213562373095
 10
-113.6125
 20
-82.1345468543698
 10
-101.6125
 20
-82.1345468543698
 42
-0.414213562373095
 10
-100.6125
 20
-83.1345468543698
 10
-100.6125
 20
-95.13454685436982
 42
-0.4142135623730742
 10
-101.6125
 20
-96.13454685436983
 10
-113.6125
 20
-96.13454685436984
 42
-0.4142135623730784
 10
-114.6125
 20
-95.13454685436982
  0
LWPOLYLINE
  5
A0
100
AcDbEntity
  8
0
  6
ByLayer
 62
  256
370
   -1
100
AcDbPolyline
 90
    8
 70
    1
 43
0
 10
-66.98750000000001
 20
-64.0845468543698
 42
-0.414213562373095
 10
-65.98750000000001
 20
-63.0845468543698
 10
-53.98750000000003
 20
-63.0845468543698
 42
-0.4142135623730846
 10
-52.98749999999998
 20
-64.0845468543698
 10
-52.98750000000001
 20
-76.0845468543698
 42
-0.414213562373095
 10
-53.98750000000001
 20
-77.0845468543698
 10
-65.98750000000001
 20
-77.0845468543698
 42
-0.414213562373095
 10
-66.98750000000001
 20
-76.0845468543698
  0
LWPOLYLINE
  5
A1
100
AcDbEntity
  8
0
  6
ByLayer
 62
  256
370
   -1
100
AcDbPolyline
 90
    8
 70
    1
 43
0
 10
-128.9
 20
-45.03454685436981
 42
-0.414213562373095
 10
-127.9
 20
-44.03454685436981
 10
-115.9
 20
-44.03454685436981
 42
-0.414213562373095
 10
-114.9
 20
-45.03454685436981
 10
-114.9
 20
-57.03454685436981
 42
-0.414213562373095
 10
-115.9
 20
-58.03454685436981
 10
-127.9
 20
-58.03454685436981
 42
-0.4142135623730784
 10
-128.9
 20
-57.03454685436981
  0
LWPOLYLINE
  5
A2
100
AcDbEntity
  8
0
  6
ByLayer
 62
  256
370
   -1
100
AcDbPolyline
 90
    8
 70
    1
 43
0
 10
94.9375
 20
-106.94704685437
 42
-0.414213562373095
 10
95.9375
 20
-105.94704685437
 10
107.9375
 20
-105.94704685437
 42
-0.4142135623730784
 10
108.9375
 20
-106.94704685437
 10
108.9375
 20
-118.94704685437
 42
-0.414213562373095
 10
107.9375
 20
-119.94704685437
 10
95.9375
 20
-119.94704685437
 42
-0.4142135623730867
 10
94.93750000000003
 20
-118.94704685437
  0
LWPOLYLINE
  5
A3
100
AcDbEntity
  8
0
  6
ByLayer
 62
  256
370
   -1
100
AcDbPolyline
 90
    8
 70
    1
 43
0
 10
-6.362500000000006
 20
-82.1345468543698
 42
-0.4142135623730935
 10
-5.362500000000011
 20
-83.1345468543698
 10
-5.362499999999996
 20
-95.13454685436982
 42
-0.4142135623730921
 10
-6.362500000000011
 20
-96.13454685436979
 10
-18.3625
 20
-96.13454685436983
 42
-0.4142135623730846
 10
-19.36250000000001
 20
-95.13454685436982
 10
-19.36250000000001
 20
-83.1345468543698
 42
-0.4142135623730971
 10
-18.3625
 20
-82.1345468543698
  0
LWPOLYLINE
  5
A4
100
AcDbEntity
  8
0
  6
ByLayer
 62
  256
370
   -1
100
AcDbPolyline
 90
    8
 70
    1
 43
0
 10
-100.325
 20
-25.98454685436981
 42
-0.4142135623731013
 10
-99.32500000000002
 20
-24.9845468543698
 10
-87.32500000000002
 20
-24.9845468543698
 42
-0.414213562373095
 10
-86.32500000000002
 20
-25.9845468543698
 10
-86.32500000000002
 20
-37.98454685436981
 42
-0.414213562373095
 10
-87.32500000000002
 20
-38.98454685436981
 10
-99.32500000000002
 20
-38.9845468543698
 42
-0.4142135623730971
 10
-100.325
 20
-37.98454685436981
  0
LWPOLYLINE
  5
A5
100
AcDbEntity
  8
0
  6
ByLayer
 62
  256
370
   -1
100
AcDbPolyline
 90
    8
 70
    1
 43
0
 10
150.8
 20
-82.1345468543698
 42
-0.4142135623730617
 10
151.8
 20
-83.1345468543698
 10
151.8
 20
-95.13454685436982
 42
-0.4142135623730659
 10
150.8
 20
-96.13454685436983
 10
138.8
 20
-96.13454685436984
 42
-0.4142135623730701
 10
137.8
 20
-95.13454685436982
 10
137.8
 20
-83.1345468543698
 42
-0.4142135623731117
 10
138.8
 20
-82.1345468543698
  0
LWPOLYLINE
  5
A6
100
AcDbEntity
  8
0
  6
ByLayer
 62
  256
370
   -1
100
AcDbPolyline
 90
    8
 70
    1
 43
0
 10
113.9875
 20
-106.94704685437
 42
-0.414213562373095
 10
114.9875
 20
-105.94704685437
 10
126.9875
 20
-105.94704685437
 42
-0.4142135623730784
 10
127.9875
 20
-106.94704685437
 10
127.9875
 20
-118.94704685437
 42
-0.414213562373095
 10
126.9875
 20
-119.94704685437
 10
114.9875
 20
-119.94704685437
 42
-0.4142135623730867
 10
113.9875
 20
-118.94704685437
  0
LWPOLYLINE
  5
A7
100
AcDbEntity
  8
0
  6
ByLayer
 62
  256
370
   -1
100
AcDbPolyline
 90
    8
 70
    1
 43
0
 10
-47.93750000000002
 20
-64.0845468543698
 42
-0.4142135623730909
 10
-46.93750000000003
 20
-63.08454685436983
 10
-34.93750000000004
 20
-63.0845468543698
 42
-0.4142135623730992
 10
-33.93750000000003
 20
-64.0845468543698
 10
-33.93750000000003
 20
-76.0845468543698
 42
-0.414213562373095
 10
-34.93750000000003
 20
-77.0845468543698
 10
-46.93750000000004
 20
-77.0845468543698
 42
-0.4142135623730909
 10
-47.93750000000002
 20
-76.0845468543698
  0
LWPOLYLINE
  5
A8
100
AcDbEntity
  8
0
  6
ByLayer
 62
  256
370
   -1
100
AcDbPolyline
 90
    8
 70
    1
 43
0
 10
-105.0875
 20
-64.0845468543698
 42
-0.4142135623731034
 10
-104.0875
 20
-63.0845468543698
 10
-92.08750000000001
 20
-63.0845468543698
 42
-0.414213562373095
 10
-91.08750000000001
 20
-64.0845468543698
 10
-91.08750000000001
 20
-76.0845468543698
 42
-0.414213562373095
 10
-92.08750000000001
 20
-77.0845468543698
 10
-104.0875
 20
-77.08454685436983
 42
-0.4142135623731034
 10
-105.0875
 20
-76.0845468543698
  0
LWPOLYLINE
  5
A9
100
AcDbEntity
  8
0
  6
ByLayer
 62
  256
370
   -1
100
AcDbPolyline
 90
    8
 70
    1
 43
0
 10
137.8
 20
-64.0845468543698
 42
-0.4142135623730992
 10
138.8
 20
-63.0845468543698
 10
150.8
 20
-63.08454685436982
 42
-0.4142135623730742
 10
151.8
 20
-64.0845468543698
 10
151.8
 20
-76.0845468543698
 42
-0.414213562373095
 10
150.8
 20
-77.0845468543698
 10
138.8
 20
-77.08454685436983
 42
-0.4142135623730867
 10
137.8
 20
-76.0845468543698
  0
LWPOLYLINE
  5
AA
100
AcDbEntity
  8
0
  6
ByLayer
 62
  256
370
   -1
100
AcDbPolyline
 90
    8
 70
    1
 43
0
 10
-38.41250000000005
 20
-83.1345468543698
 42
-0.4142135623730992
 10
-37.41249999999999
 20
-82.1345468543698
 10
-25.41250000000001
 20
-82.13454685436983
 42
-0.4142135623730929
 10
-24.41249999999999
 20
-83.1345468543698
 10
-24.41250000000001
 20
-95.13454685436982
 42
-0.4142135623730961
 10
-25.41249999999999
 20
-96.13454685436979
 10
-37.41250000000002
 20
-96.1345468543698
 42
-0.4142135623730909
 10
-38.41249999999999
 20
-95.13454685436982
  0
LWPOLYLINE
  5
AB
100
AcDbEntity
  8
0
  6
ByLayer
 62
  256
370
   -1
100
AcDbPolyline
 90
    8
 70
    1
 43
0
 10
33.025
 20
-25.9845468543698
 42
-0.4142135623730909
 10
34.02500000000001
 20
-24.9845468543698
 10
46.02499999999999
 20
-24.98454685436982
 42
-0.4142135623730971
 10
47.02499999999996
 20
-25.9845468543698
 10
47.02499999999999
 20
-37.9845468543698
 42
-0.414213562373095
 10
46.025
 20
-38.98454685436981
 10
34.02500000000001
 20
-38.98454685436982
 42
-0.4142135623731013
 10
33.02499999999997
 20
-37.98454685436981
  0
LWPOLYLINE
  5
AC
100
AcDbEntity
  8
0
  6
ByLayer
 62
  256
370
   -1
100
AcDbPolyline
 90
    8
 70
    1
 43
0
 10
-30.17500000000001
 20
-24.9845468543698
 42
-0.4142135623730971
 10
-29.17500000000001
 20
-25.9845468543698
 10
-29.175
 20
-37.9845468543698
 42
-0.4142135623730981
 10
-30.17500000000001
 20
-38.98454685436982
 10
-42.17500000000001
 20
-38.98454685436981
 42
-0.414213562373095
 10
-43.17500000000001
 20
-37.98454685436981
 10
-43.17500000000005
 20
-25.98454685436981
 42
-0.4142135623730971
 10
-42.17500000000001
 20
-24.9845468543698
  0
LWPOLYLINE
  5
AD
100
AcDbEntity
  8
0
  6
ByLayer
 62
  256
370
   -1
100
AcDbPolyline
 90
    8
 70
    1
 43
0
 10
-9.837499999999977
 20
-2.172046854369811
 42
-0.4142135623730953
 10
-8.837499999999977
 20
-1.17204685436981
 10
3.162499999999996
 20
-1.172046854369799
 42
-0.4142135623730953
 10
4.162500000000023
 20
-2.17204685436981
 10
4.162499999999992
 20
-14.17204685436979
 42
-0.4142135623730945
 10
3.162499999999994
 20
-15.1720468543698
 10
-8.837500000000004
 20
-15.17204685436981
 42
-0.4142135623730966
 10
-9.837500000000006
 20
-14.1720468543698
  0
LWPOLYLINE
  5
AE
100
AcDbEntity
  8
0
  6
ByLayer
 62
  256
370
   -1
100
AcDbPolyline
 90
    8
 70
    1
 43
0
 10
-86.03749999999999
 20
-64.0845468543698
 10
-86.03749999999999
 20
-76.0845468543698
 42
0.4142135623730867
 10
-85.03749999999999
 20
-77.08454685436982
 10
-73.03749999999999
 20
-77.0845468543698
 42
0.414213562373095
 10
-72.03749999999999
 20
-76.0845468543698
 10
-72.03749999999999
 20
-64.0845468543698
 42
0.4142135623730992
 10
-73.03749999999999
 20
-63.0845468543698
 10
-85.03750000000001
 20
-63.08454685436983
 42
0.414213562373095
  0
LWPOLYLINE
  5
AF
100
AcDbEntity
  8
0
  6
ByLayer
 62
  256
370
   -1
100
AcDbPolyline
 90
    8
 70
    1
 43
0
 10
-28.88750000000002
 20
-2.172046854369807
 42
-0.4142135623730925
 10
-27.88750000000002
 20
-1.17204685436981
 10
-15.8875
 20
-1.172046854369812
 42
-0.4142135623730945
 10
-14.8875
 20
-2.17204685436981
 10
-14.8875
 20
-14.1720468543698
 42
-0.414213562373094
 10
-15.8875
 20
-15.1720468543698
 10
-27.88750000000002
 20
-15.1720468543698
 42
-0.414213562373095
 10
-28.88750000000002
 20
-14.1720468543698
  0
LWPOLYLINE
  5
B0
100
AcDbEntity
  8
0
  6
ByLayer
 62
  256
370
   -1
100
AcDbPolyline
 90
    8
 70
    1
 43
0
 10
-90.8
 20
-45.03454685436981
 42
-0.4142135623730929
 10
-89.80000000000004
 20
-44.03454685436981
 10
-77.80000000000003
 20
-44.03454685436981
 42
-0.4142135623730929
 10
-76.80000000000004
 20
-45.03454685436981
 10
-76.80000000000004
 20
-57.03454685436981
 42
-0.4142135623730929
 10
-77.80000000000001
 20
-58.03454685436981
 10
-89.80000000000001
 20
-58.03454685436978
 42
-0.4142135623730784
 10
-90.79999999999998
 20
-57.03454685436981
  0
LWPOLYLINE
  5
B1
100
AcDbEntity
  8
0
  6
ByLayer
 62
  256
370
   -1
100
AcDbPolyline
 90
    8
 70
    1
 43
0
 10
42.54999999999998
 20
-45.03454685436981
 42
-0.414213562373095
 10
43.54999999999998
 20
-44.03454685436981
 10
55.54999999999998
 20
-44.03454685436984
 42
-0.414213562373095
 10
56.54999999999998
 20
-45.03454685436981
 10
56.54999999999998
 20
-57.03454685436981
 42
-0.414213562373095
 10
55.54999999999998
 20
-58.03454685436981
 10
43.54999999999998
 20
-58.03454685436981
 42
-0.4142135623730909
 10
42.54999999999998
 20
-57.03454685436981
  0
LWPOLYLINE
  5
B2
100
AcDbEntity
  8
0
  6
ByLayer
 62
  256
370
   -1
100
AcDbPolyline
 90
    8
 70
    1
 43
0
 10
4.45000000000001
 20
-45.03454685436981
 42
-0.4142135623730963
 10
5.450000000000017
 20
-44.03454685436979
 10
17.45000000000001
 20
-44.03454685436984
 42
-0.4142135623730981
 10
18.44999999999999
 20
-45.03454685436981
 10
18.44999999999999
 20
-57.03454685436981
 42
-0.414213562373095
 10
17.44999999999999
 20
-58.03454685436981
 10
5.449999999999987
 20
-58.03454685436982
 42
-0.4142135623730945
 10
4.44999999999996
 20
-57.03454685436981
  0
LWPOLYLINE
  5
B3
100
AcDbEntity
  8
0
  6
ByLayer
 62
  256
370
   -1
100
AcDbPolyline
 90
    8
 70
    1
 43
0
 10
-152.7124999999999
 20
-45.03454685436981
 42
-0.414213562373095
 10
-151.7125
 20
-44.03454685436981
 10
-139.7125
 20
-44.03454685436981
 42
-0.414213562373095
 10
-138.7125
 20
-45.03454685436981
 10
-138.7125000000001
 20
-57.03454685436981
 42
-0.4142135623731159
 10
-139.7125
 20
-58.03454685436981
 10
-151.7125
 20
-58.03454685436981
 42
-0.414213562373095
 10
-152.7125
 20
-57.03454685436981
  0
LWPOLYLINE
  5
B4
100
AcDbEntity
  8
0
  6
ByLayer
 62
  256
370
   -1
100
AcDbPolyline
 90
    8
 70
    1
 43
0
 10
36.49999999999999
 20
-44.03454685436978
 42
-0.4142135623730929
 10
37.5
 20
-45.03454685436981
 10
37.5
 20
-57.03454685436981
 42
-0.414213562373095
 10
36.5
 20
-58.03454685436981
 10
24.49999999999999
 20
-58.03454685436978
 42
-0.4142135623730888
 10
23.50000000000002
 20
-57.03454685436981
 10
23.49999999999999
 20
-45.03454685436981
 42
-0.4142135623730898
 10
24.5
 20
-44.03454685436981
  0
LWPOLYLINE
  5
B5
100
AcDbEntity
  8
0
  6
ByLayer
 62
  256
370
   -1
100
AcDbPolyline
 90
    8
 70
    1
 43
0
 10
90.17499999999998
 20
-2.172046854369811
 42
-0.4142135623730953
 10
91.17499999999998
 20
-1.17204685436981
 10
103.175
 20
-1.172046854369796
 42
-0.4142135623730824
 10
104.175
 20
-2.17204685436981
 10
104.175
 20
-14.1720468543698
 42
-0.414213562373095
 10
103.175
 20
-15.1720468543698
 10
91.175
 20
-15.17204685436981
 42
-0.4142135623730857
 10
90.17499999999998
 20
-14.1720468543698
  0
LWPOLYLINE
  5
B6
100
AcDbEntity
  8
0
  6
ByLayer
 62
  256
370
   -1
100
AcDbPolyline
 90
    8
 70
    1
 43
0
 10
47.31249999999999
 20
-64.0845468543698
 10
47.31249999999999
 20
-76.0845468543698
 42
0.4142135623730929
 10
48.31249999999999
 20
-77.08454685436982
 10
60.31249999999999
 20
-77.0845468543698
 42
0.414213562373095
 10
61.31249999999999
 20
-76.0845468543698
 10
61.31249999999999
 20
-64.0845468543698
 42
0.4142135623730846
 10
60.31249999999999
 20
-63.0845468543698
 10
48.31250000000001
 20
-63.0845468543698
 42
0.4142135623730992
  0
LWPOLYLINE
  5
B7
100
AcDbEntity
  8
0
  6
ByLayer
 62
  256
370
   -1
100
AcDbPolyline
 90
    8
 70
    1
 43
0
 10
33.02500000000001
 20
-2.17204685436981
 10
33.02500000000001
 20
-14.1720468543698
 42
0.414213562373095
 10
34.02500000000001
 20
-15.1720468543698
 10
46.025
 20
-15.1720468543698
 42
0.414213562373095
 10
47.025
 20
-14.1720468543698
 10
47.02500000000001
 20
-2.172046854369803
 42
0.414213562373094
 10
46.025
 20
-1.17204685436981
 10
34.025
 20
-1.172046854369803
 42
0.4142135623730962
  0
LWPOLYLINE
  5
B8
100
AcDbEntity
  8
0
  6
ByLayer
 62
  256
370
   -1
100
AcDbPolyline
 90
   10
 70
    1
 43
0
 10
-137.33125
 20
-63.0845468543698
 10
-154.09375
 20
-63.0845468543698
 42
0.1084391695173647
 10
-154.5125
 20
-63.17644529754925
 42
0.547232772491086
 10
-155.93125
 20
-64.0845468543698
 10
-155.93125
 20
-76.0845468543698
 42
0.5472327724910765
 10
-154.5125
 20
-76.99264841119042
 42
0.1084391695173635
 10
-154.09375
 20
-77.0845468543698
 10
-137.33125
 20
-77.0845468543698
 42
0.414213562373095
 10
-136.33125
 20
-76.0845468543698
 10
-136.33125
 20
-64.0845468543698
 42
0.414213562373095
  0
LWPOLYLINE
  5
B9
100
AcDbEntity
  8
0
  6
ByLayer
 62
  256
370
   -1
100
AcDbPolyline
 90
    8
 70
    1
 43
0
 10
56.8375
 20
-83.1345468543698
 42
-0.414213562373095
 10
57.8375
 20
-82.1345468543698
 10
69.83749999999999
 20
-82.1345468543698
 42
-0.4142135623730742
 10
70.83750000000001
 20
-83.1345468543698
 10
70.83750000000001
 20
-95.1345468543698
 42
-0.4142135623730784
 10
69.83750000000001
 20
-96.13454685436983
 10
57.83750000000001
 20
-96.13454685436979
 42
-0.4142135623730992
 10
56.83750000000003
 20
-95.13454685436982
  0
LWPOLYLINE
  5
BA
100
AcDbEntity
  8
0
  6
ByLayer
 62
  256
370
   -1
100
AcDbPolyline
 90
    8
 70
    1
 43
0
 10
28.2625
 20
-64.0845468543698
 42
-0.4142135623730961
 10
29.26249999999999
 20
-63.08454685436982
 10
41.2625
 20
-63.0845468543698
 42
-0.4142135623730888
 10
42.26250000000002
 20
-64.0845468543698
 10
42.26250000000002
 20
-76.0845468543698
 42
-0.414213562373095
 10
41.26250000000002
 20
-77.0845468543698
 10
29.26250000000001
 20
-77.08454685436982
 42
-0.414213562373095
 10
28.26249999999999
 20
-76.0845468543698
  0
LWPOLYLINE
  5
BB
100
AcDbEntity
  8
0
  6
ByLayer
 62
  256
370
   -1
100
AcDbPolyline
 90
    8
 70
    1
 43
0
 10
84.125
 20
-1.172046854369796
 42
-0.4142135623730824
 10
85.125
 20
-2.17204685436981
 10
85.125
 20
-14.1720468543698
 42
-0.414213562373095
 10
84.125
 20
-15.1720468543698
 10
72.12500000000001
 20
-15.17204685436982
 42
-0.4142135623730888
 10
71.12499999999997
 20
-14.1720468543698
 10
71.125
 20
-2.172046854369813
 42
-0.4142135623730958
 10
72.125
 20
-1.17204685436981
  0
LWPOLYLINE
  5
BC
100
AcDbEntity
  8
0
  6
ByLayer
 62
  256
370
   -1
100
AcDbPolyline
 90
    8
 70
    1
 43
0
 10
37.78749999999999
 20
-83.1345468543698
 10
37.78750000000001
 20
-95.13454685436982
 42
0.4142135623730909
 10
38.78749999999999
 20
-96.13454685436979
 10
50.78750000000001
 20
-96.13454685436983
 42
0.4142135623730825
 10
51.78749999999998
 20
-95.13454685436982
 10
51.78750000000001
 20
-83.1345468543698
 42
0.4142135623730825
 10
50.78749999999999
 20
-82.1345468543698
 10
38.78749999999999
 20
-82.1345468543698
 42
0.4142135623730971
  0
LWPOLYLINE
  5
BD
100
AcDbEntity
  8
0
  6
ByLayer
 62
  256
370
   -1
100
AcDbPolyline
 90
    8
 70
    1
 43
0
 10
-90.80000000000003
 20
-2.172046854369811
 42
-0.4142135623730993
 10
-89.80000000000004
 20
-1.17204685436981
 10
-77.80000000000003
 20
-1.17204685436981
 42
-0.4142135623730929
 10
-76.80000000000005
 20
-2.17204685436981
 10
-76.80000000000005
 20
-14.1720468543698
 42
-0.4142135623730929
 10
-77.80000000000001
 20
-15.1720468543698
 10
-89.80000000000003
 20
-15.17204685436978
 42
-0.4142135623730909
 10
-90.8
 20
-14.1720468543698
  0
LWPOLYLINE
  5
BE
100
AcDbEntity
  8
0
  6
ByLayer
 62
  256
370
   -1
100
AcDbPolyline
 90
    8
 70
    1
 43
0
 10
79.36250000000001
 20
-63.0845468543698
 42
-0.4142135623731034
 10
80.36250000000004
 20
-64.0845468543698
 10
80.36249999999998
 20
-76.0845468543698
 42
-0.4142135623731034
 10
79.36249999999998
 20
-77.0845468543698
 10
67.36249999999998
 20
-77.08454685436978
 42
-0.414213562373095
 10
66.36250000000004
 20
-76.0845468543698
 10
66.36250000000003
 20
-64.0845468543698
 42
-0.4142135623730909
 10
67.36249999999998
 20
-63.0845468543698
  0
LWPOLYLINE
  5
BF
100
AcDbEntity
  8
0
  6
ByLayer
 62
  256
370
   -1
100
AcDbPolyline
 90
    8
 70
    1
 43
0
 10
-14.60000000000001
 20
-45.03454685436981
 42
-0.4142135623730929
 10
-13.59999999999999
 20
-44.03454685436979
 10
-1.599999999999992
 20
-44.03454685436981
 42
-0.4142135623730944
 10
-0.5999999999999942
 20
-45.03454685436981
 10
-0.5999999999999943
 20
-57.03454685436981
 42
-0.4142135623730948
 10
-1.599999999999995
 20
-58.03454685436981
 10
-13.59999999999999
 20
-58.03454685436981
 42
-0.414213562373095
 10
-14.59999999999999
 20
-57.03454685436981
  0
LWPOLYLINE
  5
C0
100
AcDbEntity
  8
0
  6
ByLayer
 62
  256
370
   -1
100
AcDbPolyline
 90
    8
 70
    1
 43
0
 10
-96.85000000000002
 20
-1.17204685436981
 42
-0.4142135623730941
 10
-95.85000000000002
 20
-2.17204685436981
 10
-95.85000000000002
 20
-14.1720468543698
 42
-0.414213562373095
 10
-96.85000000000002
 20
-15.1720468543698
 10
-108.85
 20
-15.1720468543698
 42
-0.414213562373094
 10
-109.85
 20
-14.1720468543698
 10
-109.85
 20
-2.172046854369812
 42
-0.4142135623730955
 10
-108.85
 20
-1.17204685436981
  0
LWPOLYLINE
  5
C1
100
AcDbEntity
  8
0
  6
ByLayer
 62
  256
370
   -1
100
AcDbPolyline
 90
   20
 70
    1
 43
0
 10
33.1875
 20
-115.1625
 10
33.81617556428333
 20
-115.1625
 42
0.05264173015807877
 10
34.02500000000001
 20
-115.18454685437
 10
46.02500000000011
 20
-115.18454685437
 42
0.05264173015815826
 10
46.23382443571671
 20
-115.1625
 10
52.86617556428333
 20
-115.1625
 42
0.05264173015807921
 10
53.07500000000001
 20
-115.18454685437
 10
65.07500000000002
 20
-115.18454685437
 42
0.05264173015815647
 10
65.28382443571661
 20
-115.1625
 10
71.91617556428332
 20
-115.1625
 42
0.05264173015807921
 10
72.125
 20
-115.18454685437
 10
84.12499999999999
 20
-115.18454685437
 42
0.0526417301581449
 10
84.33382443571659
 20
-115.1625
 10
84.96250000000002
 20
-115.1625
 42
0.4142135623731159
 10
85.96250000000006
 20
-114.1625
 10
85.96250000000003
 20
-102.1625
 42
0.414213562373095
 10
84.96250000000003
 20
-101.1625
 10
33.18749999999999
 20
-101.1625
 42
0.4142135623731013
 10
32.1875
 20
-102.1625
 10
32.1875
 20
-114.1625
 42
0.4142135623731054
  0
LWPOLYLINE
  5
C2
100
AcDbEntity
  8
0
  6
ByLayer
 62
  256
370
   -1
100
AcDbPolyline
 90
    8
 70
    1
 43
0
 10
-5.074999999999989
 20
-25.9845468543698
 42
-0.414213562373095
 10
-4.074999999999989
 20
-24.9845468543698
 10
7.92500000000001
 20
-24.98454685436979
 42
-0.4142135623730969
 10
8.925000000000011
 20
-25.9845468543698
 10
8.925000000000011
 20
-37.98454685436981
 42
-0.414213562373095
 10
7.925000000000011
 20
-38.98454685436981
 10
-4.074999999999991
 20
-38.98454685436981
 42
-0.4142135623730945
 10
-5.07499999999999
 20
-37.98454685436981
  0
LWPOLYLINE
  5
C3
100
AcDbEntity
  8
0
  6
ByLayer
 62
  256
370
   -1
100
AcDbPolyline
 90
    8
 70
    1
 43
0
 10
-47.93750000000002
 20
-2.172046854369804
 42
-0.4142135623730953
 10
-46.93750000000003
 20
-1.17204685436981
 10
-34.93750000000003
 20
-1.172046854369817
 42
-0.4142135623730974
 10
-33.93750000000003
 20
-2.17204685436981
 10
-33.93750000000004
 20
-14.17204685436981
 42
-0.4142135623730961
 10
-34.93750000000003
 20
-15.1720468543698
 10
-46.93750000000004
 20
-15.1720468543698
 42
-0.414213562373095
 10
-47.93750000000003
 20
-14.1720468543698
  0
LWPOLYLINE
  5
C4
100
AcDbEntity
  8
0
  6
ByLayer
 62
  256
370
   -1
100
AcDbPolyline
 90
    8
 70
    1
 43
0
 10
-107.46875
 20
-102.18454685437
 42
-0.414213562373095
 10
-106.46875
 20
-101.18454685437
 10
-94.46875000000001
 20
-101.18454685437
 42
-0.414213562373095
 10
-93.46875000000003
 20
-102.18454685437
 10
-93.46875000000003
 20
-114.18454685437
 42
-0.414213562373095
 10
-94.46875000000003
 20
-115.18454685437
 10
-106.46875
 20
-115.18454685437
 42
-0.414213562373095
 10
-107.46875
 20
-114.18454685437
  0
LWPOLYLINE
  5
C5
100
AcDbEntity
  8
0
  6
ByLayer
 62
  256
370
   -1
100
AcDbPolyline
 90
    8
 70
    1
 43
0
 10
-95.56250000000003
 20
-83.1345468543698
 10
-95.56250000000003
 20
-95.13454685436982
 42
0.4142135623730825
 10
-94.56250000000003
 20
-96.1345468543698
 10
-82.56250000000001
 20
-96.13454685436984
 42
0.4142135623730742
 10
-81.56250000000003
 20
-95.13454685436982
 10
-81.56250000000003
 20
-83.1345468543698
 42
0.414213562373095
 10
-82.56250000000003
 20
-82.1345468543698
 10
-94.56250000000001
 20
-82.1345468543698
 42
0.4142135623731075
  0
LWPOLYLINE
  5
C6
100
AcDbEntity
  8
0
  6
ByLayer
 62
  256
370
   -1
100
AcDbPolyline
 90
    8
 70
    1
 43
0
 10
22.21250000000001
 20
-63.0845468543698
 42
-0.4142135623730867
 10
23.21250000000001
 20
-64.0845468543698
 10
23.21250000000001
 20
-76.0845468543698
 42
-0.4142135623730961
 10
22.21250000000001
 20
-77.0845468543698
 10
10.2125
 20
-77.08454685436983
 42
-0.4142135623730955
 10
9.212499999999977
 20
-76.0845468543698
 10
9.212500000000009
 20
-64.0845468543698
 42
-0.4142135623730976
 10
10.21250000000001
 20
-63.08454685436981
  0
LWPOLYLINE
  5
C7
100
AcDbEntity
  8
0
  6
ByLayer
 62
  256
370
   -1
100
AcDbPolyline
 90
    8
 70
    1
 43
0
 10
137.8
 20
-45.03454685436981
 10
137.8
 20
-57.03454685436981
 42
0.4142135623730805
 10
138.8
 20
-58.03454685436981
 10
150.8
 20
-58.03454685436981
 42
0.414213562373095
 10
151.8
 20
-57.03454685436981
 10
151.8
 20
-45.03454685436981
 42
0.4142135623730784
 10
150.8
 20
-44.03454685436981
 10
138.8
 20
-44.03454685436979
 42
0.4142135623730825
  0
LWPOLYLINE
  5
C8
100
AcDbEntity
  8
0
  6
ByLayer
 62
  256
370
   -1
100
AcDbPolyline
 90
    8
 70
    1
 43
0
 10
-128.9
 20
-2.172046854369811
 42
-0.4142135623730951
 10
-127.9
 20
-1.17204685436981
 10
-115.9
 20
-1.17204685436981
 42
-0.4142135623730941
 10
-114.9
 20
-2.17204685436981
 10
-114.9
 20
-14.1720468543698
 42
-0.414213562373095
 10
-115.9
 20
-15.1720468543698
 10
-127.9
 20
-15.17204685436981
 42
-0.4142135623730898
 10
-128.9
 20
-14.1720468543698
  0
LWPOLYLINE
  5
C9
100
AcDbEntity
  8
0
  6
ByLayer
 62
  256
370
   -1
100
AcDbPolyline
 90
    8
 70
    1
 43
0
 10
71.125
 20
-25.9845468543698
 42
-0.414213562373095
 10
72.125
 20
-24.9845468543698
 10
84.125
 20
-24.9845468543698
 42
-0.4142135623730794
 10
85.125
 20
-25.9845468543698
 10
85.125
 20
-37.98454685436981
 42
-0.414213562373095
 10
84.125
 20
-38.98454685436981
 10
72.125
 20
-38.98454685436981
 42
-0.4142135623730805
 10
71.125
 20
-37.98454685436981
  0
LWPOLYLINE
  5
CA
100
AcDbEntity
  8
0
  6
ByLayer
 62
  256
370
   -1
100
AcDbPolyline
 90
    8
 70
    1
 43
0
 10
80.65000000000001
 20
-45.03454685436981
 42
-0.414213562373095
 10
81.65000000000001
 20
-44.03454685436981
 10
93.65000000000001
 20
-44.03454685436979
 42
-0.4142135623730825
 10
94.65000000000001
 20
-45.03454685436981
 10
94.65000000000001
 20
-57.03454685436981
 42
-0.414213562373095
 10
93.65000000000001
 20
-58.03454685436981
 10
81.65000000000003
 20
-58.03454685436981
 42
-0.4142135623730805
 10
80.65000000000001
 20
-57.03454685436981
  0
LWPOLYLINE
  5
CB
100
AcDbEntity
  8
0
  6
ByLayer
 62
  256
370
   -1
100
AcDbPolyline
 90
    8
 70
    1
 43
0
 10
18.73750000000001
 20
-83.1345468543698
 42
-0.414213562373094
 10
19.73750000000001
 20
-82.1345468543698
 10
31.73750000000001
 20
-82.1345468543698
 42
-0.4142135623730784
 10
32.73750000000001
 20
-83.1345468543698
 10
32.7375
 20
-95.13454685436982
 42
-0.4142135623730909
 10
31.73750000000001
 20
-96.13454685436979
 10
19.73749999999999
 20
-96.13454685436983
 42
-0.4142135623730857
 10
18.73749999999998
 20
-95.13454685436982
  0
LWPOLYLINE
  5
CC
100
AcDbEntity
  8
0
  6
ByLayer
 62
  256
370
   -1
100
AcDbPolyline
 90
    8
 70
    1
 43
0
 10
9.212500000000006
 20
-2.17204685436981
 42
-0.414213562373094
 10
10.21250000000001
 20
-1.17204685436981
 10
22.2125
 20
-1.172046854369803
 42
-0.4142135623731018
 10
23.21250000000001
 20
-2.172046854369825
 10
23.21250000000001
 20
-14.1720468543698
 42
-0.4142135623730909
 10
22.21250000000001
 20
-15.1720468543698
 10
10.21250000000001
 20
-15.17204685436981
 42
-0.4142135623730961
 10
9.212499999999977
 20
-14.1720468543698
  0
LWPOLYLINE
  5
CD
100
AcDbEntity
  8
0
  6
ByLayer
 62
  256
370
   -1
100
AcDbPolyline
 90
    8
 70
    1
 43
0
 10
-58.75000000000001
 20
-1.172046854369795
 42
-0.4142135623730916
 10
-57.75000000000002
 20
-2.17204685436981
 10
-57.75000000000003
 20
-14.1720468543698
 42
-0.414213562373095
 10
-58.75000000000003
 20
-15.1720468543698
 10
-70.75000000000003
 20
-15.1720468543698
 42
-0.414213562373095
 10
-71.75000000000003
 20
-14.1720468543698
 10
-71.75000000000003
 20
-2.172046854369813
 42
-0.4142135623730958
 10
-70.75000000000003
 20
-1.17204685436981
  0
LWPOLYLINE
  5
CE
100
AcDbEntity
  8
0
  6
ByLayer
 62
  256
370
   -1
100
AcDbPolyline
 90
    8
 70
    1
 43
0
 10
83.03125000000003
 20
-83.1345468543698
 42
-0.414213562373095
 10
84.03125000000003
 20
-82.1345468543698
 10
96.03125
 20
-82.13454685436983
 42
-0.4142135623730867
 10
97.03125
 20
-83.1345468543698
 10
97.03125
 20
-95.13454685436982
 42
-0.4142135623730701
 10
96.03125
 20
-96.13454685436984
 10
84.03125
 20
-96.13454685436984
 42
-0.4142135623730784
 10
83.03124999999997
 20
-95.13454685436982
  0
LWPOLYLINE
  5
CF
100
AcDbEntity
  8
0
  6
ByLayer
 62
  256
370
   -1
100
AcDbPolyline
 90
    8
 70
    1
 43
0
 10
113.9875
 20
-87.8970468543698
 42
-0.4142135623731034
 10
114.9875
 20
-86.8970468543698
 10
126.9875
 20
-86.89704685436982
 42
-0.4142135623730742
 10
127.9875
 20
-87.8970468543698
 10
127.9875
 20
-99.89704685436982
 42
-0.4142135623730825
 10
126.9875
 20
-100.8970468543698
 10
114.9875
 20
-100.8970468543698
 42
-0.4142135623730784
 10
113.9875
 20
-99.89704685436982
  0
LWPOLYLINE
  5
D0
100
AcDbEntity
  8
0
  6
ByLayer
 62
  256
370
   -1
100
AcDbPolyline
 90
    8
 70
    1
 43
0
 10
-155.09375
 20
-102.18454685437
 42
-0.414213562373095
 10
-154.09375
 20
-101.18454685437
 10
-142.09375
 20
-101.18454685437
 42
-0.4142135623730992
 10
-141.09375
 20
-102.18454685437
 10
-141.09375
 20
-114.18454685437
 42
-0.414213562373095
 10
-142.09375
 20
-115.18454685437
 10
-154.09375
 20
-115.18454685437
 42
-0.414213562373095
 10
-155.09375
 20
-114.18454685437
  0
LWPOLYLINE
  5
D1
100
AcDbEntity
  8
0
  6
ByLayer
 62
  256
370
   -1
100
AcDbPolyline
 90
    8
 70
    1
 43
0
 10
-96.84999999999999
 20
-44.03454685436984
 42
-0.414213562373095
 10
-95.85000000000005
 20
-45.03454685436981
 10
-95.85000000000002
 20
-57.03454685436981
 42
-0.414213562373095
 10
-96.85000000000002
 20
-58.03454685436981
 10
-108.85
 20
-58.03454685436981
 42
-0.414213562373095
 10
-109.85
 20
-57.03454685436981
 10
-109.85
 20
-45.03454685436981
 42
-0.414213562373095
 10
-108.85
 20
-44.03454685436981
  0
LWPOLYLINE
  5
D2
100
AcDbEntity
  8
0
  6
ByLayer
 62
  256
370
   -1
100
AcDbPolyline
 90
    8
 70
    1
 43
0
 10
104.4625
 20
-45.03454685436981
 42
-0.414213562373095
 10
105.4625
 20
-44.03454685436981
 10
117.4624999999999
 20
-44.03454685436979
 42
-0.4142135623730805
 10
118.4625
 20
-45.03454685436981
 10
118.4625
 20
-57.03454685436981
 42
-0.414213562373095
 10
117.4625
 20
-58.03454685436981
 10
105.4625
 20
-58.03454685436981
 42
-0.4142135623730784
 10
104.4625
 20
-57.03454685436981
  0
LWPOLYLINE
  5
D3
100
AcDbEntity
  8
0
  6
ByLayer
 62
  256
370
   -1
100
AcDbPolyline
 90
    8
 70
    1
 43
0
 10
146.0375
 20
-105.94704685437
 42
-0.4142135623730784
 10
147.0375
 20
-106.94704685437
 10
147.0375
 20
-118.94704685437
 42
-0.414213562373095
 10
146.0375
 20
-119.94704685437
 10
134.0374999999999
 20
-119.94704685437
 42
-0.4142135623730742
 10
133.0375
 20
-118.94704685437
 10
133.0375
 20
-106.94704685437
 42
-0.414213562373095
 10
134.0375
 20
-105.94704685437
  0
LWPOLYLINE
  5
D4
100
AcDbEntity
  8
0
  6
ByLayer
 62
  256
370
   -1
100
AcDbPolyline
 90
    8
 70
    1
 43
0
 10
61.59999999999997
 20
-45.03454685436981
 42
-0.414213562373095
 10
62.59999999999999
 20
-44.03454685436979
 10
74.60000000000001
 20
-44.03454685436979
 42
-0.4142135623730888
 10
75.59999999999999
 20
-45.03454685436981
 10
75.59999999999999
 20
-57.03454685436981
 42
-0.414213562373095
 10
74.59999999999999
 20
-58.03454685436981
 10
62.6
 20
-58.03454685436981
 42
-0.414213562373095
 10
61.59999999999999
 20
-57.03454685436981
  0
LWPOLYLINE
  5
D5
100
AcDbEntity
  8
0
  6
ByLayer
 62
  256
370
   -1
100
AcDbPolyline
 90
    8
 70
    1
 43
0
 10
-157.475
 20
-25.9845468543698
 10
-157.475
 20
-37.98454685436981
 42
0.4142135623730971
 10
-156.475
 20
-38.98454685436981
 10
-144.475
 20
-38.98454685436981
 42
0.414213562373095
 10
-143.475
 20
-37.98454685436981
 10
-143.475
 20
-25.9845468543698
 42
0.414213562373095
 10
-144.475
 20
-24.9845468543698
 10
-156.475
 20
-24.9845468543698
 42
0.414213562373095
  0
LWPOLYLINE
  5
D6
100
AcDbEntity
  8
0
  6
ByLayer
 62
  256
370
   -1
100
AcDbPolyline
 90
    8
 70
    1
 43
0
 10
-33.65000000000001
 20
-45.03454685436979
 42
-0.414213562373095
 10
-32.65000000000001
 20
-44.03454685436981
 10
-20.65000000000001
 20
-44.03454685436981
 42
-0.414213562373095
 10
-19.65000000000001
 20
-45.03454685436981
 10
-19.65000000000001
 20
-57.03454685436981
 42
-0.414213562373095
 10
-20.65000000000001
 20
-58.03454685436981
 10
-32.65000000000001
 20
-58.03454685436981
 42
-0.414213562373095
 10
-33.65000000000001
 20
-57.03454685436981
  0
LWPOLYLINE
  5
D7
100
AcDbEntity
  8
0
  6
ByLayer
 62
  256
370
   -1
100
AcDbPolyline
 90
    8
 70
    1
 43
0
 10
-52.70000000000003
 20
-45.03454685436981
 42
-0.414213562373095
 10
-51.70000000000002
 20
-44.03454685436979
 10
-39.70000000000002
 20
-44.03454685436982
 42
-0.4142135623730971
 10
-38.70000000000002
 20
-45.03454685436981
 10
-38.70000000000002
 20
-57.03454685436981
 42
-0.414213562373095
 10
-39.70000000000002
 20
-58.03454685436981
 10
-51.70000000000002
 20
-58.03454685436981
 42
-0.414213562373095
 10
-52.70000000000002
 20
-57.03454685436981
  0
LWPOLYLINE
  5
D8
100
AcDbEntity
  8
0
  6
ByLayer
 62
  256
370
   -1
100
AcDbPolyline
 90
    8
 70
    1
 43
0
 10
-131.28125
 20
-102.18454685437
 42
-0.414213562373095
 10
-130.28125
 20
-101.18454685437
 10
-118.28125
 20
-101.18454685437
 42
-0.4142135623730701
 10
-117.28125
 20
-102.18454685437
 10
-117.28125
 20
-114.18454685437
 42
-0.414213562373095
 10
-118.28125
 20
-115.18454685437
 10
-130.28125
 20
-115.18454685437
 42
-0.4142135623730659
 10
-131.28125
 20
-114.18454685437
  0
LWPOLYLINE
  5
D9
100
AcDbEntity
  8
0
  6
ByLayer
 62
  256
370
   -1
100
AcDbPolyline
 90
    8
 70
    1
 43
0
 10
-124.1375
 20
-64.0845468543698
 42
-0.414213562373095
 10
-123.1375
 20
-63.0845468543698
 10
-111.1375
 20
-63.0845468543698
 42
-0.414213562373095
 10
-110.1375
 20
-64.0845468543698
 10
-110.1375
 20
-76.0845468543698
 42
-0.414213562373095
 10
-111.1375
 20
-77.0845468543698
 10
-123.1375
 20
-77.0845468543698
 42
-0.414213562373095
 10
-124.1375
 20
-76.0845468543698
  0
LWPOLYLINE
  5
DA
100
AcDbEntity
  8
0
  6
ByLayer
 62
  256
370
   -1
100
AcDbPolyline
 90
    8
 70
    1
 43
0
 10
12.68749999999999
 20
-82.1345468543698
 42
-0.414213562373081
 10
13.6875
 20
-83.1345468543698
 10
13.68749999999999
 20
-95.13454685436982
 42
-0.4142135623730919
 10
12.6875
 20
-96.13454685436979
 10
0.6875000000000093
 20
-96.13454685436979
 42
-0.4142135623730958
 10
-0.3124999999999716
 20
-95.13454685436982
 10
-0.3124999999999999
 20
-83.1345468543698
 42
-0.4142135623730954
 10
0.6875000000000284
 20
-82.1345468543698
  0
LWPOLYLINE
  5
DB
100
AcDbEntity
  8
0
  6
ByLayer
 62
  256
370
   -1
100
AcDbPolyline
 90
    8
 70
    1
 43
0
 10
-49.22499999999998
 20
-24.9845468543698
 42
-0.4142135623730919
 10
-48.22499999999998
 20
-25.9845468543698
 10
-48.22499999999997
 20
-37.98454685436981
 42
-0.414213562373095
 10
-49.22499999999999
 20
-38.98454685436981
 10
-61.22500000000002
 20
-38.98454685436981
 42
-0.4142135623730992
 10
-62.22499999999999
 20
-37.98454685436981
 10
-62.22500000000002
 20
-25.9845468543698
 42
-0.4142135623730961
 10
-61.22500000000002
 20
-24.9845468543698
  0
LWPOLYLINE
  5
DC
100
AcDbEntity
  8
0
  6
ByLayer
 62
  256
370
   -1
100
AcDbPolyline
 90
    8
 70
    1
 43
0
 10
-24.125
 20
-25.98454685436981
 42
-0.4142135623730929
 10
-23.125
 20
-24.9845468543698
 10
-11.12500000000001
 20
-24.98454685436982
 42
-0.4142135623730955
 10
-10.125
 20
-25.9845468543698
 10
-10.12500000000001
 20
-37.98454685436981
 42
-0.4142135623730919
 10
-11.125
 20
-38.98454685436981
 10
-23.125
 20
-38.98454685436981
 42
-0.4142135623730992
 10
-24.12500000000003
 20
-37.98454685436981
  0
LWPOLYLINE
  5
DD
100
AcDbEntity
  8
0
  6
ByLayer
 62
  256
370
   -1
100
AcDbPolyline
 90
    8
 70
    1
 43
0
 10
-119.375
 20
-25.98454685436981
 42
-0.4142135623730929
 10
-118.375
 20
-24.9845468543698
 10
-106.375
 20
-24.9845468543698
 42
-0.414213562373095
 10
-105.375
 20
-25.9845468543698
 10
-105.375
 20
-37.98454685436981
 42
-0.4142135623730805
 10
-106.375
 20
-38.98454685436981
 10
-118.375
 20
-38.98454685436981
 42
-0.4142135623730784
 10
-119.375
 20
-37.98454685436981
  0
LWPOLYLINE
  5
DE
100
AcDbEntity
  8
0
  6
ByLayer
 62
  256
370
   -1
100
AcDbPolyline
 90
    8
 70
    1
 43
0
 10
13.97499999999999
 20
-25.9845468543698
 42
-0.4142135623730909
 10
14.97499999999999
 20
-24.9845468543698
 10
26.97499999999999
 20
-24.98454685436984
 42
-0.4142135623730971
 10
27.97499999999999
 20
-25.9845468543698
 10
27.97500000000001
 20
-37.98454685436981
 42
-0.4142135623730961
 10
26.97499999999999
 20
-38.98454685436981
 10
14.975
 20
-38.98454685436979
 42
-0.4142135623730966
 10
13.97500000000002
 20
-37.98454685436981
  0
LWPOLYLINE
  5
DF
100
AcDbEntity
  8
0
  6
ByLayer
 62
  256
370
   -1
100
AcDbPolyline
 90
    8
 70
    1
 43
0
 10
-138.425
 20
-25.98454685436981
 42
-0.4142135623730971
 10
-137.425
 20
-24.9845468543698
 10
-125.425
 20
-24.9845468543698
 42
-0.4142135623730794
 10
-124.425
 20
-25.9845468543698
 10
-124.425
 20
-37.98454685436981
 42
-0.4142135623730805
 10
-125.425
 20
-38.98454685436981
 10
-137.425
 20
-38.98454685436981
 42
-0.414213562373095
 10
-138.425
 20
-37.98454685436981
  0
LWPOLYLINE
  5
E0
100
AcDbEntity
  8
0
  6
ByLayer
 62
  256
370
   -1
100
AcDbPolyline
 90
    8
 70
    1
 43
0
 10
-76.51250000000002
 20
-83.1345468543698
 42
-0.4142135623730992
 10
-75.51250000000002
 20
-82.1345468543698
 10
-63.51250000000002
 20
-82.13454685436979
 42
-0.4142135623730763
 10
-62.51250000000002
 20
-83.1345468543698
 10
-62.51250000000003
 20
-95.1345468543698
 42
-0.4142135623730825
 10
-63.51250000000002
 20
-96.13454685436983
 10
-75.51250000000003
 20
-96.1345468543698
 42
-0.4142135623730909
 10
-76.51249999999999
 20
-95.13454685436982
  0
LWPOLYLINE
  5
E1
100
AcDbEntity
  8
0
  6
ByLayer
 62
  256
370
   -1
100
AcDbPolyline
 90
    8
 70
    1
 43
0
 10
151.8
 20
-34.72204685436981
 10
151.8
 20
-19.72204685436981
 42
0.414213562373095
 10
150.8
 20
-18.72204685436981
 10
138.8
 20
-18.72204685436981
 42
0.414213562373095
 10
137.8
 20
-19.72204685436981
 10
137.8
 20
-34.72204685436981
 42
0.4142135623730971
 10
138.8
 20
-35.72204685436981
 10
150.8
 20
-35.72204685436981
 42
0.414213562373095
  0
LWPOLYLINE
  5
E2
100
AcDbEntity
  8
0
  6
ByLayer
 62
  256
370
   -1
100
AcDbPolyline
 90
    8
 70
    1
 43
0
 10
109.463
 20
-2.154243205807475
 10
109.463
 20
-14.1542432058075
 42
0.4142135623730953
 10
111.463
 20
-16.1542432058075
 10
149.5629999999999
 20
-16.1542432058075
 42
0.414213562373095
 10
151.5629999999999
 20
-14.1542432058075
 10
151.5629999999999
 20
-2.154243205807466
 42
0.4142135623730938
 10
149.5629999999999
 20
-0.1542432058074745
 10
111.463
 20
-0.1542432058074752
 42
0.414213562373095
  0
ARC
  5
E3
100
AcDbEntity
  8
0
  6
ByLayer
 62
  256
370
   -1
100
AcDbCircle
 10
-156.4749992017176
 20
-2.17204685436981
 40
1
100
AcDbArc
 50
90
 51
180
  0
LINE
  5
E4
100
AcDbEntity
  8
0
  6
ByLayer
 62
    7
370
   -1
100
AcDbLine
 10
-156.4749992017176
 20
-1.17204685436981
 11
-144.4740892017176
 21
-1.17204685436981
  0
ARC
  5
E5
100
AcDbEntity
  8
0
  6
ByLayer
 62
  256
370
   -1
100
AcDbCircle
 10
-144.4740892017176
 20
-2.17204685436981
 40
1
100
AcDbArc
 50
0
 51
90
  0
LINE
  5
E6
100
AcDbEntity
  8
0
  6
ByLayer
 62
    7
370
   -1
100
AcDbLine
 10
-143.4740892017176
 20
-2.17204685436981
 11
-143.4740892017176
 21
-14.17204685436981
  0
ARC
  5
E7
100
AcDbEntity
  8
0
  6
ByLayer
 62
  256
370
   -1
100
AcDbCircle
 10
-144.4740892017176
 20
-14.17204685436981
 40
1
100
AcDbArc
 50
270
 51
0
  0
LINE
  5
E8
100
AcDbEntity
  8
0
  6
ByLayer
 62
    7
370
   -1
100
AcDbLine
 10
-157.4749992017176
 20
-14.17204685436981
 11
-157.4749992017176
 21
-2.17204685436981
  0
LINE
  5
E9
100
AcDbEntity
  8
0
  6
ByLayer
 62
    7
370
   -1
100
AcDbLine
 10
-144.4740892017176
 20
-15.17204685436981
 11
-156.4749992017176
 21
-15.17204685436981
  0
ARC
  5
EA
100
AcDbEntity
  8
0
  6
ByLayer
 62
  256
370
   -1
100
AcDbCircle
 10
-156.4749992017176
 20
-14.17204685436981
 40
1
100
AcDbArc
 50
180
 51
269.9999999999999
  0
LINE
  5
EB
100
AcDbEntity
  8
0
  6
ByLayer
 62
  256
370
   -1
100
AcDbLine
 10
-160
 20
-121.465
 11
-160
 21
0.377953
  0
LINE
  5
EC
100
AcDbEntity
  8
0
  6
ByLayer
 62
  256
370
   -1
100
AcDbLine
 10
-159
 20
1.37795
 11
153.325
 21
1.37795
  0
LINE
  5
ED
100
AcDbEntity
  8
0
  6
ByLayer
 62
  256
370
   -1
100
AcDbLine
 10
154.325
 20
0.377953
 11
154.325
 21
-121.465
  0
ARC
  5
EE
100
AcDbEntity
  8
0
  6
ByLayer
 62
  256
370
   -1
100
AcDbCircle
 10
153.325
 20
0.377953
 40
1
100
AcDbArc
 50
1.27222e-14
 51
90
  0
ARC
  5
EF
100
AcDbEntity
  8
0
  6
ByLayer
 62
  256
370
   -1
100
AcDbCircle
 10
-159
 20
0.377953
 40
1
100
AcDbArc
 50
90
 51
180
  0
LINE
  5
F0
100
AcDbEntity
  8
0
  6
ByLayer
 62
  256
370
   -1
100
AcDbLine
 10
89.7003
 20
-22.984
 11
123.7
 21
-22.984
  0
LINE
  5
F1
100
AcDbEntity
  8
0
  6
ByLayer
 62
  256
370
   -1
100
AcDbLine
 10
88.7003
 20
-40.984
 11
88.7003
 21
-23.984
  0
ARC
  5
F2
100
AcDbEntity
  8
0
  6
ByLayer
 62
  256
370
   -1
100
AcDbCircle
 10
89.7003
 20
-23.984
 40
1
100
AcDbArc
 50
90
 51
180
  0
LINE
  5
F3
100
AcDbEntity
  8
0
  6
ByLayer
 62
  256
370
   -1
100
AcDbLine
 10
123.7
 20
-41.984
 11
89.7003
 21
-41.984
  0
ARC
  5
F4
100
AcDbEntity
  8
0
  6
ByLayer
 62
  256
370
   -1
100
AcDbCircle
 10
89.7003
 20
-40.984
 40
1
100
AcDbArc
 50
180
 51
270
  0
ARC
  5
F5
100
AcDbEntity
  8
0
  6
ByLayer
 62
  256
370
   -1
100
AcDbCircle
 10
123.7
 20
-40.984
 40
1
100
AcDbArc
 50
270
 51
0
  0
LINE
  5
F6
100
AcDbEntity
  8
0
  6
ByLayer
 62
  256
370
   -1
100
AcDbLine
 10
124.7
 20
-23.984
 11
124.7
 21
-40.984
  0
ARC
  5
F7
100
AcDbEntity
  8
0
  6
ByLayer
 62
  256
370
   -1
100
AcDbCircle
 10
123.7
 20
-23.984
 40
1
100
AcDbArc
 50
0
 51
90
  0
LINE
  5
F8
100
AcDbEntity
  8
0
  6
ByLayer
 62
  256
370
   -1
100
AcDbLine
 10
87.31829999999999
 20
-61.0839
 11
121.318
 21
-61.0839
  0
LINE
  5
F9
100
AcDbEntity
  8
0
  6
ByLayer
 62
  256
370
   -1
100
AcDbLine
 10
122.318
 20
-62.0839
 11
122.318
 21
-79.0839
  0
ARC
  5
FA
100
AcDbEntity
  8
0
  6
ByLayer
 62
  256
370
   -1
100
AcDbCircle
 10
121.318
 20
-62.0839
 40
1
100
AcDbArc
 50
0
 51
90
  0
ARC
  5
FB
100
AcDbEntity
  8
0
  6
ByLayer
 62
  256
370
   -1
100
AcDbCircle
 10
87.31829999999999
 20
-62.0839
 40
1
100
AcDbArc
 50
90
 51
180
  0
LINE
  5
FC
100
AcDbEntity
  8
0
  6
ByLayer
 62
  256
370
   -1
100
AcDbLine
 10
86.31829999999999
 20
-79.0839
 11
86.31829999999999
 21
-62.0839
  0
LINE
  5
FD
100
AcDbEntity
  8
0
  6
ByLayer
 62
  256
370
   -1
100
AcDbLine
 10
121.318
 20
-80.0839
 11
87.31829999999999
 21
-80.0839
  0
ARC
  5
FE
100
AcDbEntity
  8
0
  6
ByLayer
 62
  256
370
   -1
100
AcDbCircle
 10
87.31829999999999
 20
-79.0839
 40
1
100
AcDbArc
 50
180
 51
270
  0
ARC
  5
FF
100
AcDbEntity
  8
0
  6
ByLayer
 62
  256
370
   -1
100
AcDbCircle
 10
121.318
 20
-79.0839
 40
1
100
AcDbArc
 50
270
 51
0
  0
LINE
  5
100
100
AcDbEntity
  8
0
  6
ByLayer
 62
  256
370
   -1
100
AcDbLine
 10
153.325
 20
-122.465
 11
-159
 21
-122.465
  0
ARC
  5
101
100
AcDbEntity
  8
0
  6
ByLayer
 62
  256
370
   -1
100
AcDbCircle
 10
153.325
 20
-121.465
 40
1
100
AcDbArc
 50
270
 51
8.14222e-13
  0
LINE
  5
102
100
AcDbEntity
  8
0
  6
ByLayer
 62
  256
370
   -1
100
AcDbLine
 10
26.9683
 20
-99.18389999999999
 11
26.9683
 21
-116.184
  0
LINE
  5
103
100
AcDbEntity
  8
0
  6
ByLayer
 62
  256
370
   -1
100
AcDbLine
 10
-84.0317
 20
-98.18389999999999
 11
25.9683
 21
-98.18389999999999
  0
ARC
  5
104
100
AcDbEntity
  8
0
  6
ByLayer
 62
  256
370
   -1
100
AcDbCircle
 10
25.9683
 20
-99.18389999999999
 40
1
100
AcDbArc
 50
0
 51
90
  0
LINE
  5
105
100
AcDbEntity
  8
0
  6
ByLayer
 62
  256
370
   -1
100
AcDbLine
 10
25.9683
 20
-117.184
 11
-84.0317
 21
-117.184
  0
ARC
  5
106
100
AcDbEntity
  8
0
  6
ByLayer
 62
  256
370
   -1
100
AcDbCircle
 10
25.9683
 20
-116.184
 40
1
100
AcDbArc
 50
270
 51
0
  0
LINE
  5
107
100
AcDbEntity
  8
0
  6
ByLayer
 62
  256
370
   -1
100
AcDbLine
 10
-85.0317
 20
-116.184
 11
-85.0317
 21
-99.18389999999999
  0
ARC
  5
108
100
AcDbEntity
  8
0
  6
ByLayer
 62
  256
370
   -1
100
AcDbCircle
 10
-84.0317
 20
-99.18389999999999
 40
1
100
AcDbArc
 50
90
 51
180
  0
ARC
  5
109
100
AcDbEntity
  8
0
  6
ByLayer
 62
  256
370
   -1
100
AcDbCircle
 10
-84.0317
 20
-116.184
 40
1
100
AcDbArc
 50
180
 51
270
  0
ARC
  5
10A
100
AcDbEntity
  8
0
  6
ByLayer
 62
  256
370
   -1
100
AcDbCircle
 10
-159
 20
-121.465
 40
1
100
AcDbArc
 50
180
 51
270
  0
LINE
  5
10B
100
AcDbEntity
  8
0
  6
ByLayer
 62
  256
370
   -1
100
AcDbLine
 10
-155.569
 20
-80.1339
 11
-121.569
 21
-80.1339
  0
ARC
  5
10C
100
AcDbEntity
  8
0
  6
ByLayer
 62
  256
370
   -1
100
AcDbCircle
 10
-155.569
 20
-81.1339
 40
1
100
AcDbArc
 50
90
 51
180
  0
ARC
  5
10D
100
AcDbEntity
  8
0
  6
ByLayer
 62
  256
370
   -1
100
AcDbCircle
 10
-121.569
 20
-81.1339
 40
1
100
AcDbArc
 50
0
 51
90
  0
LINE
  5
10E
100
AcDbEntity
  8
0
  6
ByLayer
 62
  256
370
   -1
100
AcDbLine
 10
-120.569
 20
-81.1339
 11
-120.569
 21
-98.1339
  0
ARC
  5
10F
100
AcDbEntity
  8
0
  6
ByLayer
 62
  256
370
   -1
100
AcDbCircle
 10
-121.569
 20
-98.1339
 40
1
100
AcDbArc
 50
270
 51
0
  0
LINE
  5
110
100
AcDbEntity
  8
0
  6
ByLayer
 62
  256
370
   -1
100
AcDbLine
 10
-121.569
 20
-99.1339
 11
-155.569
 21
-99.1339
  0
LINE
  5
111
100
AcDbEntity
  8
0
  6
ByLayer
 62
  256
370
   -1
100
AcDbLine
 10
-156.569
 20
-98.1339
 11
-156.569
 21
-81.1339
  0
ARC
  5
112
100
AcDbEntity
  8
0
  6
ByLayer
 62
  256
370
   -1
100
AcDbCircle
 10
-155.569
 20
-98.1339
 40
1
100
AcDbArc
 50
180
 51
270
  0
ENDSEC
  0
SECTION
  2
OBJECTS
  0
DICTIONARY
  5
C
330
0
100
AcDbDictionary
281
    1
  3
ACAD_GROUP
350
D
  0
DICTIONARY
  5
D
330
C
100
AcDbDictionary
281
    1
  0
PLOTSETTINGS
  5
113
100
AcDbPlotSettings
  6
1x1
 40
0
 41
0
 42
0
 43
0
  0
ENDSEC
  0
EOF
