999
dxfrw 0.6.3
  0
SECTION
  2
HEADER
  9
$ACADVER
  1
AC1021
  9
$DWGCODEPAGE
  3
ANSI_1252
  9
$INSBASE
 10
0
 20
0
 30
0
  9
$EXTMIN
 10
-164.5249950835411
 20
-126.989854147629
 30
0
  9
$EXTMAX
 10
158.8499950835415
 20
5.902953153080984
 30
0
  9
$LIMMIN
 10
0
 20
0
  9
$LIMMAX
 10
420
 20
297
  9
$ORTHOMODE
 70
    0
  9
$REGENMODE
 70
    1
  9
$FILLMODE
 70
    1
  9
$QTEXTMODE
 70
    0
  9
$MIRRTEXT
 70
    0
  9
$LTSCALE
 40
1
  9
$ATTMODE
 70
    0
  9
$TEXTSIZE
 40
2.5
  9
$TRACEWID
 40
15.68
  9
$TEXTSTYLE
  7
STANDARD
  9
$CLAYER
  8
0
  9
$CELTYPE
  6
BYLAYER
  9
$CECOLOR
 62
  256
  9
$CELTSCALE
 40
1
  9
$DISPSILH
 70
    0
  9
$DIMSCALE
 40
2.5
  9
$DIMASZ
 40
2.5
  9
$DIMEXO
 40
0.625
  9
$DIMDLI
 40
3.75
  9
$DIMRND
 40
0
  9
$DIMDLE
 40
0
  9
$DIMEXE
 40
1.25
  9
$DIMTP
 40
0
  9
$DIMTM
 40
0
  9
$DIMTXT
 40
2.5
  9
$DIMCEN
 40
2.5
  9
$DIMTSZ
 40
0
  9
$DIMTOL
 70
    0
  9
$DIMLIM
 70
    0
  9
$DIMTIH
 70
    0
  9
$DIMTOH
 70
    0
  9
$DIMSE1
 70
    0
  9
$DIMSE2
 70
    0
  9
$DIMTAD
 70
    1
  9
$DIMZIN
 70
    8
  9
$DIMBLK
  1

  9
$DIMASO
 70
    1
  9
$DIMSHO
 70
    1
  9
$DIMPOST
  1

  9
$DIMAPOST
  1

  9
$DIMALT
 70
    0
  9
$DIMALTD
 70
    3
  9
$DIMALTF
 40
0.03937
  9
$DIMLFAC
 40
1
  9
$DIMTOFL
 70
    1
  9
$DIMTVP
 40
0
  9
$DIMTIX
 70
    0
  9
$DIMSOXD
 70
    0
  9
$DIMSAH
 70
    0
  9
$DIMBLK1
  1

  9
$DIMBLK2
  1

  9
$DIMSTYLE
  2
Standard
  9
$DIMCLRD
 70
    0
  9
$DIMCLRE
 70
    0
  9
$DIMCLRT
 70
    0
  9
$DIMTFAC
 40
1
  9
$DIMGAP
 40
0.625
  9
$DIMJUST
 70
    0
  9
$DIMSD1
 70
    0
  9
$DIMSD2
 70
    0
  9
$DIMTOLJ
 70
    0
  9
$DIMTZIN
 70
    8
  9
$DIMALTZ
 70
    0
  9
$DIMALTTZ
 70
    0
  9
$DIMUPT
 70
    0
  9
$DIMDEC
 70
    2
  9
$DIMTDEC
 70
    2
  9
$DIMALTU
 70
    2
  9
$DIMALTTD
 70
    3
  9
$DIMTXSTY
  7
STANDARD
  9
$DIMAUNIT
 70
    0
  9
$DIMADEC
 70
    0
  9
$DIMALTRND
 40
0
  9
$DIMAZIN
 70
    0
  9
$DIMDSEP
 70
   44
  9
$DIMATFIT
 70
    3
  9
$DIMFRAC
 70
    0
  9
$DIMLDRBLK
  1
STANDARD
  9
$DIMLUNIT
 70
    2
  9
$DIMLWD
 70
   -2
  9
$DIMLWE
 70
   -2
  9
$DIMTMOVE
 70
    0
  9
$DIMFXL
 40
1
  9
$DIMFXLON
 70
    0
  9
$DIMJOGANG
 40
0.7854
  9
$DIMTFILL
 70
    0
  9
$DIMTFILLCLR
 70
    0
  9
$DIMARCSYM
 70
    0
  9
$DIMLTYPE
  6

  9
$DIMLTEX1
  6

  9
$DIMLTEX2
  6

  9
$LUNITS
 70
    2
  9
$LUPREC
 70
    4
  9
$SKETCHINC
 40
1
  9
$FILLETRAD
 40
0
  9
$AUNITS
 70
    0
  9
$AUPREC
 70
    2
  9
$MENU
  1
.
  9
$ELEVATION
 40
0
  9
$PELEVATION
 40
0
  9
$THICKNESS
 40
0
  9
$LIMCHECK
 70
    0
  9
$CHAMFERA
 40
0
  9
$CHAMFERB
 40
0
  9
$CHAMFERC
 40
0
  9
$CHAMFERD
 40
0
  9
$SKPOLY
 70
    0
  9
$USRTIMER
 70
    1
  9
$ANGBASE
 50
0
  9
$ANGDIR
 70
    0
  9
$PDMODE
 70
   34
  9
$PDSIZE
 40
0
  9
$PLINEWID
 40
0
  9
$SPLFRAME
 70
    0
  9
$SPLINETYPE
 70
    2
  9
$SPLINESEGS
 70
    8
  9
$HANDSEED
  5
20000
  9
$SURFTAB1
 70
    6
  9
$SURFTAB2
 70
    6
  9
$SURFTYPE
 70
    6
  9
$SURFU
 70
    6
  9
$SURFV
 70
    6
  9
$UCSBASE
  2

  9
$UCSNAME
  2

  9
$UCSORG
 10
0
 20
0
 30
0
  9
$UCSXDIR
 10
1
 20
0
 30
0
  9
$UCSYDIR
 10
0
 20
1
 30
0
  9
$UCSORTHOREF
  2

  9
$UCSORTHOVIEW
 70
    0
  9
$UCSORGTOP
 10
0
 20
0
 30
0
  9
$UCSORGBOTTOM
 10
0
 20
0
 30
0
  9
$UCSORGLEFT
 10
0
 20
0
 30
0
  9
$UCSORGRIGHT
 10
0
 20
0
 30
0
  9
$UCSORGFRONT
 10
0
 20
0
 30
0
  9
$UCSORGBACK
 10
0
 20
0
 30
0
  9
$PUCSBASE
  2

  9
$PUCSNAME
  2

  9
$PUCSORG
 10
0
 20
0
 30
0
  9
$PUCSXDIR
 10
1
 20
0
 30
0
  9
$PUCSYDIR
 10
0
 20
1
 30
0
  9
$PUCSORTHOREF
  2

  9
$PUCSORTHOVIEW
 70
    0
  9
$PUCSORGTOP
 10
0
 20
0
 30
0
  9
$PUCSORGBOTTOM
 10
0
 20
0
 30
0
  9
$PUCSORGLEFT
 10
0
 20
0
 30
0
  9
$PUCSORGRIGHT
 10
0
 20
0
 30
0
  9
$PUCSORGFRONT
 10
0
 20
0
 30
0
  9
$PUCSORGBACK
 10
0
 20
0
 30
0
  9
$USERI1
 70
    0
  9
$USERI2
 70
    0
  9
$USERI3
 70
    0
  9
$USERI4
 70
    0
  9
$USERI5
 70
    0
  9
$USERR1
 40
0
  9
$USERR2
 40
0
  9
$USERR3
 40
0
  9
$USERR4
 40
0
  9
$USERR5
 40
0
  9
$WORLDVIEW
 70
    1
  9
$SHADEDGE
 70
    3
  9
$SHADEDIF
 70
   70
  9
$TILEMODE
 70
    1
  9
$MAXACTVP
 70
   64
  9
$PINSBASE
 10
0
 20
0
 30
0
  9
$PLIMCHECK
 70
    0
  9
$PEXTMIN
 10
0
 20
0
 30
0
  9
$PEXTMAX
 10
0
 20
0
 30
0
  9
$GRIDMODE
 70
    1
  9
$SNAPSTYLE
 70
    0
  9
$PLIMMIN
 10
0
 20
0
  9
$PLIMMAX
 10
210
 20
297
  9
$UNITMODE
 70
    0
  9
$VISRETAIN
 70
    1
  9
$PLINEGEN
 70
    0
  9
$PSLTSCALE
 70
    1
  9
$TREEDEPTH
 70
 3020
  9
$CMLSTYLE
  2
Standard
  9
$CMLJUST
 70
    0
  9
$CMLSCALE
 40
20
  9
$PROXYGRAPHICS
 70
    1
  9
$MEASUREMENT
 70
    1
  9
$CELWEIGHT
370
   -1
  9
$ENDCAPS
280
    0
  9
$JOINSTYLE
280
    0
  9
$LWDISPLAY
290
    0
  9
$INSUNITS
 70
    4
  9
$HYPERLINKBASE
  1

  9
$STYLESHEET
  1

  9
$XEDIT
290
    1
  9
$CEPSNTYPE
380
    0
  9
$PSTYLEMODE
290
    1
  9
$EXTNAMES
290
    1
  9
$PSVPSCALE
 40
1
  9
$OLESTARTUP
290
    0
  9
$SORTENTS
280
  127
  9
$INDEXCTL
280
    0
  9
$HIDETEXT
280
    1
  9
$XCLIPFRAME
290
    0
  9
$HALOGAP
280
    0
  9
$OBSCOLOR
 70
  257
  9
$OBSLTYPE
280
    0
  9
$INTERSECTIONDISPLAY
280
    0
  9
$INTERSECTIONCOLOR
 70
  257
  9
$DIMASSOC
280
    1
  9
$PROJECTNAME
  1

  9
$CAMERADISPLAY
290
    0
  9
$LENSLENGTH
 40
50
  9
$CAMERAHEIGHT
 40
0
  9
$STEPSPERSEC
 40
2
  9
$STEPSIZE
 40
50
  9
$3DDWFPREC
 40
2
  9
$PSOLWIDTH
 40
5
  9
$PSOLHEIGHT
 40
80
  9
$LOFTANG1
 40
1.570796326794897
  9
$LOFTANG2
 40
1.570796326794897
  9
$LOFTMAG1
 40
0
  9
$LOFTMAG2
 40
0
  9
$LOFTPARAM
 70
    7
  9
$LOFTNORMALS
280
    1
  9
$LATITUDE
 40
1
  9
$LONGITUDE
 40
1
  9
$NORTHDIRECTION
 40
0
  9
$TIMEZONE
 70
-8000
  9
$LIGHTGLYPHDISPLAY
280
    1
  9
$TILEMODELIGHTSYNCH
280
    1
  9
$SOLIDHIST
280
    1
  9
$SHOWHIST
280
    1
  9
$DWFFRAME
280
    2
  9
$DGNFRAME
280
    0
  9
$REALWORLDSCALE
290
    1
  9
$INTERFERECOLOR
 62
    1
  9
$CSHADOW
280
    0
  9
$SHADOWPLANELOCATION
 40
0
  0
ENDSEC
  0
SECTION
  2
CLASSES
  0
ENDSEC
  0
SECTION
  2
TABLES
  0
TABLE
  2
VPORT
  5
8
330
0
100
AcDbSymbolTable
 70
    1
  0
VPORT
  5
31
330
2
100
AcDbSymbolTableRecord
100
AcDbViewportTableRecord
  2
*ACTIVE
 70
    0
 10
0
 20
0
 11
1
 21
1
 12
59.36868845091988
 22
18.66149327528915
 13
0
 23
0
 14
10
 24
10
 15
10
 25
10
 16
0
 26
0
 36
1
 17
0
 27
0
 37
0
 40
156.8338968524301
 41
1.955610357583231
 42
50
 43
0
 44
0
 50
0
 51
0
 71
    0
 72
  100
 73
    1
 74
    3
 75
    0
 76
    1
 77
    0
 78
    0
281
    0
 65
    1
110
0
120
0
130
0
111
1
121
0
131
0
112
0
122
1
132
0
 79
    0
146
0
348
10020
 60
    7
 61
    5
292
1
282
    1
141
0
142
0
 63
  250
421
3358443
  0
ENDTAB
  0
TABLE
  2
LTYPE
  5
5
330
0
100
AcDbSymbolTable
 70
    4
  0
LTYPE
  5
14
330
5
100
AcDbSymbolTableRecord
100
AcDbLinetypeTableRecord
  2
ByBlock
 70
    0
  3

 72
   65
 73
    0
 40
0
  0
LTYPE
  5
15
330
5
100
AcDbSymbolTableRecord
100
AcDbLinetypeTableRecord
  2
ByLayer
 70
    0
  3

 72
   65
 73
    0
 40
0
  0
LTYPE
  5
16
330
5
100
AcDbSymbolTableRecord
100
AcDbLinetypeTableRecord
  2
Continuous
 70
    0
  3
Solid line
 72
   65
 73
    0
 40
0
  0
LTYPE
  5
32
330
5
100
AcDbSymbolTableRecord
100
AcDbLinetypeTableRecord
  2
DOT
 70
    0
  3
Dot . . . . . . . . . . . . . . . . . . . . . .
 72
   65
 73
    2
 40
6.35
 49
0
 74
    0
 49
-6.35
 74
    0
  0
LTYPE
  5
33
330
5
100
AcDbSymbolTableRecord
100
AcDbLinetypeTableRecord
  2
DOTTINY
 70
    0
  3
Dot (.15x) .....................................
 72
   65
 73
    2
 40
0.9525
 49
0
 74
    0
 49
-0.9525
 74
    0
  0
LTYPE
  5
34
330
5
100
AcDbSymbolTableRecord
100
AcDbLinetypeTableRecord
  2
DOT2
 70
    0
  3
Dot (.5x) .....................................
 72
   65
 73
    2
 40
3.175
 49
0
 74
    0
 49
-3.175
 74
    0
  0
LTYPE
  5
35
330
5
100
AcDbSymbolTableRecord
100
AcDbLinetypeTableRecord
  2
DOTX2
 70
    0
  3
Dot (2x) .  .  .  .  .  .  .  .  .  .  .  .  .
 72
   65
 73
    2
 40
12.7
 49
0
 74
    0
 49
-12.7
 74
    0
  0
LTYPE
  5
36
330
5
100
AcDbSymbolTableRecord
100
AcDbLinetypeTableRecord
  2
DASHED
 70
    0
  3
Dashed _ _ _ _ _ _ _ _ _ _ _ _ _ _ _ _ _
 72
   65
 73
    2
 40
19.05
 49
12.7
 74
    0
 49
-6.35
 74
    0
  0
LTYPE
  5
37
330
5
100
AcDbSymbolTableRecord
100
AcDbLinetypeTableRecord
  2
DASHEDTINY
 70
    0
  3
Dashed (.15x) _ _ _ _ _ _ _ _ _ _ _ _ _ _ _ _ _
 72
   65
 73
    2
 40
2.8575
 49
1.905
 74
    0
 49
-0.9525
 74
    0
  0
LTYPE
  5
38
330
5
100
AcDbSymbolTableRecord
100
AcDbLinetypeTableRecord
  2
DASHED2
 70
    0
  3
Dashed (.5x) _ _ _ _ _ _ _ _ _ _ _ _ _ _ _ _ _
 72
   65
 73
    2
 40
9.524999999999999
 49
6.35
 74
    0
 49
-3.175
 74
    0
  0
LTYPE
  5
39
330
5
100
AcDbSymbolTableRecord
100
AcDbLinetypeTableRecord
  2
DASHEDX2
 70
    0
  3
Dashed (2x) ____  ____  ____  ____  ____  ___
 72
   65
 73
    2
 40
38.09999999999999
 49
25.4
 74
    0
 49
-12.7
 74
    0
  0
LTYPE
  5
3A
330
5
100
AcDbSymbolTableRecord
100
AcDbLinetypeTableRecord
  2
DASHDOT
 70
    0
  3
Dash dot __ . __ . __ . __ . __ . __ . __ . __
 72
   65
 73
    4
 40
25.4
 49
12.7
 74
    0
 49
-6.35
 74
    0
 49
0
 74
    0
 49
-6.35
 74
    0
  0
LTYPE
  5
3B
330
5
100
AcDbSymbolTableRecord
100
AcDbLinetypeTableRecord
  2
DASHDOTTINY
 70
    0
  3
Dash dot (.15x) _._._._._._._._._._._._._._._.
 72
   65
 73
    4
 40
3.81
 49
1.905
 74
    0
 49
-0.9525
 74
    0
 49
0
 74
    0
 49
-0.9525
 74
    0
  0
LTYPE
  5
3C
330
5
100
AcDbSymbolTableRecord
100
AcDbLinetypeTableRecord
  2
DASHDOT2
 70
    0
  3
Dash dot (.5x) _._._._._._._._._._._._._._._.
 72
   65
 73
    4
 40
12.7
 49
6.35
 74
    0
 49
-3.175
 74
    0
 49
0
 74
    0
 49
-3.175
 74
    0
  0
LTYPE
  5
3D
330
5
100
AcDbSymbolTableRecord
100
AcDbLinetypeTableRecord
  2
DASHDOTX2
 70
    0
  3
Dash dot (2x) ____  .  ____  .  ____  .  ___
 72
   65
 73
    4
 40
50.8
 49
25.4
 74
    0
 49
-12.7
 74
    0
 49
0
 74
    0
 49
-12.7
 74
    0
  0
LTYPE
  5
3E
330
5
100
AcDbSymbolTableRecord
100
AcDbLinetypeTableRecord
  2
DIVIDE
 70
    0
  3
Divide ____ . . ____ . . ____ . . ____ . . ____
 72
   65
 73
    6
 40
31.75
 49
12.7
 74
    0
 49
-6.35
 74
    0
 49
0
 74
    0
 49
-6.35
 74
    0
 49
0
 74
    0
 49
-6.35
 74
    0
  0
LTYPE
  5
3F
330
5
100
AcDbSymbolTableRecord
100
AcDbLinetypeTableRecord
  2
DIVIDETINY
 70
    0
  3
Divide (.15x) __..__..__..__..__..__..__..__.._
 72
   65
 73
    6
 40
4.7625
 49
1.905
 74
    0
 49
-0.9525
 74
    0
 49
0
 74
    0
 49
-0.9525
 74
    0
 49
0
 74
    0
 49
-0.9525
 74
    0
  0
LTYPE
  5
40
330
5
100
AcDbSymbolTableRecord
100
AcDbLinetypeTableRecord
  2
DIVIDE2
 70
    0
  3
Divide (.5x) __..__..__..__..__..__..__..__.._
 72
   65
 73
    6
 40
15.875
 49
6.35
 74
    0
 49
-3.175
 74
    0
 49
0
 74
    0
 49
-3.175
 74
    0
 49
0
 74
    0
 49
-3.175
 74
    0
  0
LTYPE
  5
41
330
5
100
AcDbSymbolTableRecord
100
AcDbLinetypeTableRecord
  2
DIVIDEX2
 70
    0
  3
Divide (2x) ________  .  .  ________  .  .  _
 72
   65
 73
    6
 40
63.5
 49
25.4
 74
    0
 49
-12.7
 74
    0
 49
0
 74
    0
 49
-12.7
 74
    0
 49
0
 74
    0
 49
-12.7
 74
    0
  0
LTYPE
  5
42
330
5
100
AcDbSymbolTableRecord
100
AcDbLinetypeTableRecord
  2
BORDER
 70
    0
  3
Border __ __ . __ __ . __ __ . __ __ . __ __ .
 72
   65
 73
    6
 40
44.45
 49
12.7
 74
    0
 49
-6.35
 74
    0
 49
12.7
 74
    0
 49
-6.35
 74
    0
 49
0
 74
    0
 49
-6.35
 74
    0
  0
LTYPE
  5
43
330
5
100
AcDbSymbolTableRecord
100
AcDbLinetypeTableRecord
  2
BORDERTINY
 70
    0
  3
Border (.15x) __.__.__.__.__.__.__.__.__.__.__.
 72
   65
 73
    6
 40
6.6675
 49
1.905
 74
    0
 49
-0.9525
 74
    0
 49
1.905
 74
    0
 49
-0.9525
 74
    0
 49
0
 74
    0
 49
-0.9525
 74
    0
  0
LTYPE
  5
44
330
5
100
AcDbSymbolTableRecord
100
AcDbLinetypeTableRecord
  2
BORDER2
 70
    0
  3
Border (.5x) __.__.__.__.__.__.__.__.__.__.__.
 72
   65
 73
    6
 40
22.225
 49
6.35
 74
    0
 49
-3.175
 74
    0
 49
6.35
 74
    0
 49
-3.175
 74
    0
 49
0
 74
    0
 49
-3.175
 74
    0
  0
LTYPE
  5
45
330
5
100
AcDbSymbolTableRecord
100
AcDbLinetypeTableRecord
  2
BORDERX2
 70
    0
  3
Border (2x) ____  ____  .  ____  ____  .  ___
 72
   65
 73
    6
 40
88.89999999999999
 49
25.4
 74
    0
 49
-12.7
 74
    0
 49
25.4
 74
    0
 49
-12.7
 74
    0
 49
0
 74
    0
 49
-12.7
 74
    0
  0
LTYPE
  5
46
330
5
100
AcDbSymbolTableRecord
100
AcDbLinetypeTableRecord
  2
CENTER
 70
    0
  3
Center ____ _ ____ _ ____ _ ____ _ ____ _ ____
 72
   65
 73
    4
 40
50.8
 49
31.75
 74
    0
 49
-6.35
 74
    0
 49
6.35
 74
    0
 49
-6.35
 74
    0
  0
LTYPE
  5
47
330
5
100
AcDbSymbolTableRecord
100
AcDbLinetypeTableRecord
  2
CENTERTINY
 70
    0
  3
Center (.15x) ___ _ ___ _ ___ _ ___ _ ___ _ ___
 72
   65
 73
    4
 40
7.62
 49
4.7625
 74
    0
 49
-0.9525
 74
    0
 49
0.9525
 74
    0
 49
-0.9525
 74
    0
  0
LTYPE
  5
48
330
5
100
AcDbSymbolTableRecord
100
AcDbLinetypeTableRecord
  2
CENTER2
 70
    0
  3
Center (.5x) ___ _ ___ _ ___ _ ___ _ ___ _ ___
 72
   65
 73
    4
 40
28.575
 49
19.05
 74
    0
 49
-3.175
 74
    0
 49
3.175
 74
    0
 49
-3.175
 74
    0
  0
LTYPE
  5
49
330
5
100
AcDbSymbolTableRecord
100
AcDbLinetypeTableRecord
  2
CENTERX2
 70
    0
  3
Center (2x) ________  __  ________  __  _____
 72
   65
 73
    4
 40
101.6
 49
63.5
 74
    0
 49
-12.7
 74
    0
 49
12.7
 74
    0
 49
-12.7
 74
    0
  0
ENDTAB
  0
TABLE
  2
LAYER
  5
2
330
0
100
AcDbSymbolTable
 70
    1
  0
LAYER
  5
10
330
2
100
AcDbSymbolTableRecord
100
AcDbLayerTableRecord
  2
0
 70
    0
 62
    7
  6
CONTINUOUS
370
   -3
390
F
  0
ENDTAB
  0
TABLE
  2
STYLE
  5
3
330
0
100
AcDbSymbolTable
 70
    3
  0
STYLE
  5
4A
330
2
100
AcDbSymbolTableRecord
100
AcDbTextStyleTableRecord
  2
Standard
 70
    0
 40
0
 41
1
 50
0
 71
    0
 42
1
  3
txt
  4

  0
ENDTAB
  0
TABLE
  2
VIEW
  5
6
330
0
100
AcDbSymbolTable
 70
    0
  0
ENDTAB
  0
TABLE
  2
UCS
  5
7
330
0
100
AcDbSymbolTable
 70
    0
  0
ENDTAB
  0
TABLE
  2
APPID
  5
9
330
0
100
AcDbSymbolTable
 70
    1
  0
APPID
  5
12
330
9
100
AcDbSymbolTableRecord
100
AcDbRegAppTableRecord
  2
ACAD
 70
    0
  0
APPID
  5
4B
330
9
100
AcDbSymbolTableRecord
100
AcDbRegAppTableRecord
  2
LibreCad
 70
    0
  0
ENDTAB
  0
TABLE
  2
DIMSTYLE
  5
A
330
0
100
AcDbSymbolTable
 70
    1
100
AcDbDimStyleTable
 71
    1
  0
DIMSTYLE
105
4C
330
A
100
AcDbSymbolTableRecord
100
AcDbDimStyleTableRecord
  2
Standard
 70
    0
 40
2.5
 41
2.5
 42
0.625
 43
0.38
 44
1.25
 45
0
 46
0
 47
0
 48
0
 49
1
140
2.5
141
0.09
142
0
143
25.4
144
1
145
0
146
1
147
0.625
148
0
 71
    0
 72
    0
 73
    0
 74
    1
 75
    0
 76
    0
 77
    0
 78
    8
 79
    0
170
    0
171
    2
172
    0
173
    0
174
    0
175
    0
176
    0
177
    0
178
    0
179
    0
271
    2
272
    4
273
    2
274
    2
275
    0
276
    0
277
    2
278
   44
279
    0
280
    0
281
    0
282
    0
283
    1
284
    0
285
    0
286
    0
288
    0
289
    3
340
STANDARD
341

371
   -2
372
   -2
  0
ENDTAB
  0
TABLE
  2
BLOCK_RECORD
  5
1
330
0
100
AcDbSymbolTable
 70
    2
  0
BLOCK_RECORD
  5
1F
330
1
100
AcDbSymbolTableRecord
100
AcDbBlockTableRecord
  2
*Model_Space
 70
    0
280
    1
281
    0
  0
BLOCK_RECORD
  5
1E
330
1
100
AcDbSymbolTableRecord
100
AcDbBlockTableRecord
  2
*Paper_Space
 70
    0
280
    1
281
    0
  0
BLOCK_RECORD
  5
4D
330
1
100
AcDbSymbolTableRecord
100
AcDbBlockTableRecord
  2
ck75---ansi-standard-1
 70
    0
280
    1
281
    0
  0
ENDTAB
  0
ENDSEC
  0
SECTION
  2
BLOCKS
  0
BLOCK
  5
20
330
1F
100
AcDbEntity
  8
0
100
AcDbBlockBegin
  2
*Model_Space
 70
    0
 10
0
 20
0
 30
0
  3
*Model_Space
  1

  0
ENDBLK
  5
21
330
1F
100
AcDbEntity
  8
0
100
AcDbBlockEnd
  0
BLOCK
  5
1C
330
1B
100
AcDbEntity
  8
0
100
AcDbBlockBegin
  2
*Paper_Space
 70
    0
 10
0
 20
0
 30
0
  3
*Paper_Space
  1

  0
ENDBLK
  5
1D
330
1F
100
AcDbEntity
  8
0
100
AcDbBlockEnd
  0
BLOCK
  5
4E
330
4D
100
AcDbEntity
  8
0
100
AcDbBlockBegin
  2
ck75---ansi-standard-1
 70
    0
 10
0
 20
0
  3
ck75---ansi-standard-1
  1

  0
LINE
  5
50
100
AcDbEntity
  8
0
  6
ByLayer
 62
  256
370
   -1
100
AcDbLine
 10
-6.5
 20
7
 11
6.499999999999998
 21
7
  0
LINE
  5
51
100
AcDbEntity
  8
0
  6
ByLayer
 62
  256
370
   -1
100
AcDbLine
 10
-6.5
 20
-6.999999999999998
 11
6.499999999999998
 21
-6.999999999999998
  0
LINE
  5
52
100
AcDbEntity
  8
0
  6
ByLayer
 62
  256
370
   -1
100
AcDbLine
 10
-7
 20
6.5
 11
-7
 21
-6.499999999999998
  0
LINE
  5
53
100
AcDbEntity
  8
0
  6
ByLayer
 62
  256
370
   -1
100
AcDbLine
 10
6.999999999999998
 20
6.5
 11
6.999999999999998
 21
-6.499999999999998
  0
ARC
  5
54
100
AcDbEntity
  8
0
  6
ByLayer
 62
  256
370
   -1
100
AcDbCircle
 10
-6.5
 20
6.5
 40
0.5
100
AcDbArc
 50
90
 51
180
  0
ARC
  5
55
100
AcDbEntity
  8
0
  6
ByLayer
 62
  256
370
   -1
100
AcDbCircle
 10
6.499999999999998
 20
6.5
 40
0.5
100
AcDbArc
 50
0
 51
90
  0
ARC
  5
56
100
AcDbEntity
  8
0
  6
ByLayer
 62
  256
370
   -1
100
AcDbCircle
 10
-6.5
 20
-6.499999999999998
 40
0.5
100
AcDbArc
 50
180
 51
270
  0
ARC
  5
57
100
AcDbEntity
  8
0
  6
ByLayer
 62
  256
370
   -1
100
AcDbCircle
 10
6.499999999999998
 20
-6.499999999999998
 40
0.5
100
AcDbArc
 50
270
 51
0
  0
LINE
  5
58
100
AcDbEntity
  8
0
  6
ByLayer
 62
  256
370
   -1
100
AcDbLine
 10
22.075
 20
7
 11
35.075
 21
7
  0
LINE
  5
59
100
AcDbEntity
  8
0
  6
ByLayer
 62
  256
370
   -1
100
AcDbLine
 10
22.075
 20
-6.999999999999998
 11
35.075
 21
-6.999999999999998
  0
LINE
  5
5A
100
AcDbEntity
  8
0
  6
ByLayer
 62
  256
370
   -1
100
AcDbLine
 10
21.575
 20
6.5
 11
21.575
 21
-6.499999999999998
  0
LINE
  5
5B
100
AcDbEntity
  8
0
  6
ByLayer
 62
  256
370
   -1
100
AcDbLine
 10
35.575
 20
6.5
 11
35.575
 21
-6.499999999999998
  0
ARC
  5
5C
100
AcDbEntity
  8
0
  6
ByLayer
 62
  256
370
   -1
100
AcDbCircle
 10
22.075
 20
6.5
 40
0.5
100
AcDbArc
 50
90
 51
180
  0
ARC
  5
5D
100
AcDbEntity
  8
0
  6
ByLayer
 62
  256
370
   -1
100
AcDbCircle
 10
35.075
 20
6.5
 40
0.5
100
AcDbArc
 50
0
 51
90
  0
ARC
  5
5E
100
AcDbEntity
  8
0
  6
ByLayer
 62
  256
370
   -1
100
AcDbCircle
 10
22.075
 20
-6.499999999999998
 40
0.5
100
AcDbArc
 50
180
 51
270
  0
ARC
  5
5F
100
AcDbEntity
  8
0
  6
ByLayer
 62
  256
370
   -1
100
AcDbCircle
 10
35.075
 20
-6.499999999999998
 40
0.5
100
AcDbArc
 50
270
 51
0
  0
LINE
  5
60
100
AcDbEntity
  8
0
  6
ByLayer
 62
  256
370
   -1
100
AcDbLine
 10
41.125
 20
7
 11
54.125
 21
7
  0
LINE
  5
61
100
AcDbEntity
  8
0
  6
ByLayer
 62
  256
370
   -1
100
AcDbLine
 10
41.125
 20
-6.999999999999998
 11
54.125
 21
-6.999999999999998
  0
LINE
  5
62
100
AcDbEntity
  8
0
  6
ByLayer
 62
  256
370
   -1
100
AcDbLine
 10
40.625
 20
6.5
 11
40.625
 21
-6.499999999999998
  0
LINE
  5
63
100
AcDbEntity
  8
0
  6
ByLayer
 62
  256
370
   -1
100
AcDbLine
 10
54.62500000000001
 20
6.5
 11
54.62500000000001
 21
-6.499999999999998
  0
ARC
  5
64
100
AcDbEntity
  8
0
  6
ByLayer
 62
  256
370
   -1
100
AcDbCircle
 10
41.125
 20
6.5
 40
0.5
100
AcDbArc
 50
90
 51
180
  0
ARC
  5
65
100
AcDbEntity
  8
0
  6
ByLayer
 62
  256
370
   -1
100
AcDbCircle
 10
54.125
 20
6.5
 40
0.5
100
AcDbArc
 50
0
 51
90
  0
ARC
  5
66
100
AcDbEntity
  8
0
  6
ByLayer
 62
  256
370
   -1
100
AcDbCircle
 10
41.125
 20
-6.499999999999998
 40
0.5
100
AcDbArc
 50
180
 51
270
  0
ARC
  5
67
100
AcDbEntity
  8
0
  6
ByLayer
 62
  256
370
   -1
100
AcDbCircle
 10
54.125
 20
-6.499999999999998
 40
0.5
100
AcDbArc
 50
270
 51
0
  0
LINE
  5
68
100
AcDbEntity
  8
0
  6
ByLayer
 62
  256
370
   -1
100
AcDbLine
 10
60.175
 20
7
 11
73.175
 21
7
  0
LINE
  5
69
100
AcDbEntity
  8
0
  6
ByLayer
 62
  256
370
   -1
100
AcDbLine
 10
60.175
 20
-6.999999999999998
 11
73.175
 21
-6.999999999999998
  0
LINE
  5
6A
100
AcDbEntity
  8
0
  6
ByLayer
 62
  256
370
   -1
100
AcDbLine
 10
59.675
 20
6.5
 11
59.675
 21
-6.499999999999998
  0
LINE
  5
6B
100
AcDbEntity
  8
0
  6
ByLayer
 62
  256
370
   -1
100
AcDbLine
 10
73.675
 20
6.5
 11
73.675
 21
-6.499999999999998
  0
ARC
  5
6C
100
AcDbEntity
  8
0
  6
ByLayer
 62
  256
370
   -1
100
AcDbCircle
 10
60.175
 20
6.5
 40
0.5
100
AcDbArc
 50
90
 51
180
  0
ARC
  5
6D
100
AcDbEntity
  8
0
  6
ByLayer
 62
  256
370
   -1
100
AcDbCircle
 10
73.175
 20
6.5
 40
0.5
100
AcDbArc
 50
0
 51
90
  0
ARC
  5
6E
100
AcDbEntity
  8
0
  6
ByLayer
 62
  256
370
   -1
100
AcDbCircle
 10
60.175
 20
-6.499999999999998
 40
0.5
100
AcDbArc
 50
180
 51
270
  0
ARC
  5
6F
100
AcDbEntity
  8
0
  6
ByLayer
 62
  256
370
   -1
100
AcDbCircle
 10
73.175
 20
-6.499999999999998
 40
0.5
100
AcDbArc
 50
270
 51
0
  0
LINE
  5
70
100
AcDbEntity
  8
0
  6
ByLayer
 62
  256
370
   -1
100
AcDbLine
 10
79.22499999999999
 20
7
 11
92.22499999999999
 21
7
  0
LINE
  5
71
100
AcDbEntity
  8
0
  6
ByLayer
 62
  256
370
   -1
100
AcDbLine
 10
79.22499999999999
 20
-6.999999999999998
 11
92.22499999999999
 21
-6.999999999999998
  0
LINE
  5
72
100
AcDbEntity
  8
0
  6
ByLayer
 62
  256
370
   -1
100
AcDbLine
 10
78.72499999999999
 20
6.5
 11
78.72499999999999
 21
-6.499999999999998
  0
LINE
  5
73
100
AcDbEntity
  8
0
  6
ByLayer
 62
  256
370
   -1
100
AcDbLine
 10
92.72499999999999
 20
6.5
 11
92.72499999999999
 21
-6.499999999999998
  0
ARC
  5
74
100
AcDbEntity
  8
0
  6
ByLayer
 62
  256
370
   -1
100
AcDbCircle
 10
79.22499999999999
 20
6.5
 40
0.5
100
AcDbArc
 50
90
 51
180
  0
ARC
  5
75
100
AcDbEntity
  8
0
  6
ByLayer
 62
  256
370
   -1
100
AcDbCircle
 10
92.22499999999999
 20
6.5
 40
0.5
100
AcDbArc
 50
0
 51
90
  0
ARC
  5
76
100
AcDbEntity
  8
0
  6
ByLayer
 62
  256
370
   -1
100
AcDbCircle
 10
79.22499999999999
 20
-6.499999999999998
 40
0.5
100
AcDbArc
 50
180
 51
270
  0
ARC
  5
77
100
AcDbEntity
  8
0
  6
ByLayer
 62
  256
370
   -1
100
AcDbCircle
 10
92.22499999999999
 20
-6.499999999999998
 40
0.5
100
AcDbArc
 50
270
 51
0
  0
LINE
  5
78
100
AcDbEntity
  8
0
  6
ByLayer
 62
  256
370
   -1
100
AcDbLine
 10
103.0375
 20
7
 11
116.0375
 21
7
  0
LINE
  5
79
100
AcDbEntity
  8
0
  6
ByLayer
 62
  256
370
   -1
100
AcDbLine
 10
103.0375
 20
-6.999999999999998
 11
116.0375
 21
-6.999999999999998
  0
LINE
  5
7A
100
AcDbEntity
  8
0
  6
ByLayer
 62
  256
370
   -1
100
AcDbLine
 10
102.5375
 20
6.5
 11
102.5375
 21
-6.499999999999998
  0
LINE
  5
7B
100
AcDbEntity
  8
0
  6
ByLayer
 62
  256
370
   -1
100
AcDbLine
 10
116.5375
 20
6.5
 11
116.5375
 21
-6.499999999999998
  0
ARC
  5
7C
100
AcDbEntity
  8
0
  6
ByLayer
 62
  256
370
   -1
100
AcDbCircle
 10
103.0375
 20
6.5
 40
0.5
100
AcDbArc
 50
90
 51
180
  0
ARC
  5
7D
100
AcDbEntity
  8
0
  6
ByLayer
 62
  256
370
   -1
100
AcDbCircle
 10
116.0375
 20
6.5
 40
0.5
100
AcDbArc
 50
0
 51
90
  0
ARC
  5
7E
100
AcDbEntity
  8
0
  6
ByLayer
 62
  256
370
   -1
100
AcDbCircle
 10
103.0375
 20
-6.499999999999998
 40
0.5
100
AcDbArc
 50
180
 51
270
  0
ARC
  5
7F
100
AcDbEntity
  8
0
  6
ByLayer
 62
  256
370
   -1
100
AcDbCircle
 10
116.0375
 20
-6.499999999999998
 40
0.5
100
AcDbArc
 50
270
 51
0
  0
LINE
  5
80
100
AcDbEntity
  8
0
  6
ByLayer
 62
  256
370
   -1
100
AcDbLine
 10
122.0875
 20
7
 11
135.0875
 21
7
  0
LINE
  5
81
100
AcDbEntity
  8
0
  6
ByLayer
 62
  256
370
   -1
100
AcDbLine
 10
122.0875
 20
-6.999999999999998
 11
135.0875
 21
-6.999999999999998
  0
LINE
  5
82
100
AcDbEntity
  8
0
  6
ByLayer
 62
  256
370
   -1
100
AcDbLine
 10
121.5875
 20
6.5
 11
121.5875
 21
-6.499999999999998
  0
LINE
  5
83
100
AcDbEntity
  8
0
  6
ByLayer
 62
  256
370
   -1
100
AcDbLine
 10
135.5875
 20
6.5
 11
135.5875
 21
-6.499999999999998
  0
ARC
  5
84
100
AcDbEntity
  8
0
  6
ByLayer
 62
  256
370
   -1
100
AcDbCircle
 10
122.0875
 20
6.5
 40
0.5
100
AcDbArc
 50
90
 51
180
  0
ARC
  5
85
100
AcDbEntity
  8
0
  6
ByLayer
 62
  256
370
   -1
100
AcDbCircle
 10
135.0875
 20
6.5
 40
0.5
100
AcDbArc
 50
0
 51
90
  0
ARC
  5
86
100
AcDbEntity
  8
0
  6
ByLayer
 62
  256
370
   -1
100
AcDbCircle
 10
122.0875
 20
-6.499999999999998
 40
0.5
100
AcDbArc
 50
180
 51
270
  0
ARC
  5
87
100
AcDbEntity
  8
0
  6
ByLayer
 62
  256
370
   -1
100
AcDbCircle
 10
135.0875
 20
-6.499999999999998
 40
0.5
100
AcDbArc
 50
270
 51
0
  0
LINE
  5
88
100
AcDbEntity
  8
0
  6
ByLayer
 62
  256
370
   -1
100
AcDbLine
 10
141.1375
 20
7
 11
154.1375
 21
7
  0
LINE
  5
89
100
AcDbEntity
  8
0
  6
ByLayer
 62
  256
370
   -1
100
AcDbLine
 10
141.1375
 20
-6.999999999999998
 11
154.1375
 21
-6.999999999999998
  0
LINE
  5
8A
100
AcDbEntity
  8
0
  6
ByLayer
 62
  256
370
   -1
100
AcDbLine
 10
140.6375
 20
6.5
 11
140.6375
 21
-6.499999999999998
  0
LINE
  5
8B
100
AcDbEntity
  8
0
  6
ByLayer
 62
  256
370
   -1
100
AcDbLine
 10
154.6375
 20
6.5
 11
154.6375
 21
-6.499999999999998
  0
ARC
  5
8C
100
AcDbEntity
  8
0
  6
ByLayer
 62
  256
370
   -1
100
AcDbCircle
 10
141.1375
 20
6.5
 40
0.5
100
AcDbArc
 50
90
 51
180
  0
ARC
  5
8D
100
AcDbEntity
  8
0
  6
ByLayer
 62
  256
370
   -1
100
AcDbCircle
 10
154.1375
 20
6.5
 40
0.5
100
AcDbArc
 50
0
 51
90
  0
ARC
  5
8E
100
AcDbEntity
  8
0
  6
ByLayer
 62
  256
370
   -1
100
AcDbCircle
 10
141.1375
 20
-6.499999999999998
 40
0.5
100
AcDbArc
 50
180
 51
270
  0
ARC
  5
8F
100
AcDbEntity
  8
0
  6
ByLayer
 62
  256
370
   -1
100
AcDbCircle
 10
154.1375
 20
-6.499999999999998
 40
0.5
100
AcDbArc
 50
270
 51
0
  0
LINE
  5
90
100
AcDbEntity
  8
0
  6
ByLayer
 62
  256
370
   -1
100
AcDbLine
 10
160.1875
 20
7
 11
173.1875
 21
7
  0
LINE
  5
91
100
AcDbEntity
  8
0
  6
ByLayer
 62
  256
370
   -1
100
AcDbLine
 10
160.1875
 20
-6.999999999999998
 11
173.1875
 21
-6.999999999999998
  0
LINE
  5
92
100
AcDbEntity
  8
0
  6
ByLayer
 62
  256
370
   -1
100
AcDbLine
 10
159.6875
 20
6.5
 11
159.6875
 21
-6.499999999999998
  0
LINE
  5
93
100
AcDbEntity
  8
0
  6
ByLayer
 62
  256
370
   -1
100
AcDbLine
 10
173.6875
 20
6.5
 11
173.6875
 21
-6.499999999999998
  0
ARC
  5
94
100
AcDbEntity
  8
0
  6
ByLayer
 62
  256
370
   -1
100
AcDbCircle
 10
160.1875
 20
6.5
 40
0.5
100
AcDbArc
 50
90
 51
180
  0
ARC
  5
95
100
AcDbEntity
  8
0
  6
ByLayer
 62
  256
370
   -1
100
AcDbCircle
 10
173.1875
 20
6.5
 40
0.5
100
AcDbArc
 50
0
 51
90
  0
ARC
  5
96
100
AcDbEntity
  8
0
  6
ByLayer
 62
  256
370
   -1
100
AcDbCircle
 10
160.1875
 20
-6.499999999999998
 40
0.5
100
AcDbArc
 50
180
 51
270
  0
ARC
  5
97
100
AcDbEntity
  8
0
  6
ByLayer
 62
  256
370
   -1
100
AcDbCircle
 10
173.1875
 20
-6.499999999999998
 40
0.5
100
AcDbArc
 50
270
 51
0
  0
LINE
  5
98
100
AcDbEntity
  8
0
  6
ByLayer
 62
  256
370
   -1
100
AcDbLine
 10
184
 20
7
 11
197
 21
7
  0
LINE
  5
99
100
AcDbEntity
  8
0
  6
ByLayer
 62
  256
370
   -1
100
AcDbLine
 10
184
 20
-6.999999999999998
 11
197
 21
-6.999999999999998
  0
LINE
  5
9A
100
AcDbEntity
  8
0
  6
ByLayer
 62
  256
370
   -1
100
AcDbLine
 10
183.5
 20
6.5
 11
183.5
 21
-6.499999999999998
  0
LINE
  5
9B
100
AcDbEntity
  8
0
  6
ByLayer
 62
  256
370
   -1
100
AcDbLine
 10
197.5
 20
6.5
 11
197.5
 21
-6.499999999999998
  0
ARC
  5
9C
100
AcDbEntity
  8
0
  6
ByLayer
 62
  256
370
   -1
100
AcDbCircle
 10
184
 20
6.5
 40
0.5
100
AcDbArc
 50
90
 51
180
  0
ARC
  5
9D
100
AcDbEntity
  8
0
  6
ByLayer
 62
  256
370
   -1
100
AcDbCircle
 10
197
 20
6.5
 40
0.5
100
AcDbArc
 50
0
 51
90
  0
ARC
  5
9E
100
AcDbEntity
  8
0
  6
ByLayer
 62
  256
370
   -1
100
AcDbCircle
 10
184
 20
-6.499999999999998
 40
0.5
100
AcDbArc
 50
180
 51
270
  0
ARC
  5
9F
100
AcDbEntity
  8
0
  6
ByLayer
 62
  256
370
   -1
100
AcDbCircle
 10
197
 20
-6.499999999999998
 40
0.5
100
AcDbArc
 50
270
 51
0
  0
LINE
  5
A0
100
AcDbEntity
  8
0
  6
ByLayer
 62
  256
370
   -1
100
AcDbLine
 10
203.05
 20
7
 11
216.05
 21
7
  0
LINE
  5
A1
100
AcDbEntity
  8
0
  6
ByLayer
 62
  256
370
   -1
100
AcDbLine
 10
203.05
 20
-6.999999999999998
 11
216.05
 21
-6.999999999999998
  0
LINE
  5
A2
100
AcDbEntity
  8
0
  6
ByLayer
 62
  256
370
   -1
100
AcDbLine
 10
202.55
 20
6.5
 11
202.55
 21
-6.499999999999998
  0
LINE
  5
A3
100
AcDbEntity
  8
0
  6
ByLayer
 62
  256
370
   -1
100
AcDbLine
 10
216.55
 20
6.5
 11
216.55
 21
-6.499999999999998
  0
ARC
  5
A4
100
AcDbEntity
  8
0
  6
ByLayer
 62
  256
370
   -1
100
AcDbCircle
 10
203.05
 20
6.5
 40
0.5
100
AcDbArc
 50
90
 51
180
  0
ARC
  5
A5
100
AcDbEntity
  8
0
  6
ByLayer
 62
  256
370
   -1
100
AcDbCircle
 10
216.05
 20
6.5
 40
0.5
100
AcDbArc
 50
0
 51
90
  0
ARC
  5
A6
100
AcDbEntity
  8
0
  6
ByLayer
 62
  256
370
   -1
100
AcDbCircle
 10
203.05
 20
-6.499999999999998
 40
0.5
100
AcDbArc
 50
180
 51
270
  0
ARC
  5
A7
100
AcDbEntity
  8
0
  6
ByLayer
 62
  256
370
   -1
100
AcDbCircle
 10
216.05
 20
-6.499999999999998
 40
0.5
100
AcDbArc
 50
270
 51
0
  0
LINE
  5
A8
100
AcDbEntity
  8
0
  6
ByLayer
 62
  256
370
   -1
100
AcDbLine
 10
222.1
 20
7
 11
235.1
 21
7
  0
LINE
  5
A9
100
AcDbEntity
  8
0
  6
ByLayer
 62
  256
370
   -1
100
AcDbLine
 10
222.1
 20
-6.999999999999998
 11
235.1
 21
-6.999999999999998
  0
LINE
  5
AA
100
AcDbEntity
  8
0
  6
ByLayer
 62
  256
370
   -1
100
AcDbLine
 10
221.6
 20
6.5
 11
221.6
 21
-6.499999999999998
  0
LINE
  5
AB
100
AcDbEntity
  8
0
  6
ByLayer
 62
  256
370
   -1
100
AcDbLine
 10
235.6
 20
6.5
 11
235.6
 21
-6.499999999999998
  0
ARC
  5
AC
100
AcDbEntity
  8
0
  6
ByLayer
 62
  256
370
   -1
100
AcDbCircle
 10
222.1
 20
6.5
 40
0.5
100
AcDbArc
 50
90
 51
180
  0
ARC
  5
AD
100
AcDbEntity
  8
0
  6
ByLayer
 62
  256
370
   -1
100
AcDbCircle
 10
235.1
 20
6.5
 40
0.5
100
AcDbArc
 50
0
 51
90
  0
ARC
  5
AE
100
AcDbEntity
  8
0
  6
ByLayer
 62
  256
370
   -1
100
AcDbCircle
 10
222.1
 20
-6.499999999999998
 40
0.5
100
AcDbArc
 50
180
 51
270
  0
ARC
  5
AF
100
AcDbEntity
  8
0
  6
ByLayer
 62
  256
370
   -1
100
AcDbCircle
 10
235.1
 20
-6.499999999999998
 40
0.5
100
AcDbArc
 50
270
 51
0
  0
LINE
  5
B0
100
AcDbEntity
  8
0
  6
ByLayer
 62
  256
370
   -1
100
AcDbLine
 10
241.15
 20
7
 11
254.15
 21
7
  0
LINE
  5
B1
100
AcDbEntity
  8
0
  6
ByLayer
 62
  256
370
   -1
100
AcDbLine
 10
241.15
 20
-6.999999999999998
 11
254.15
 21
-6.999999999999998
  0
LINE
  5
B2
100
AcDbEntity
  8
0
  6
ByLayer
 62
  256
370
   -1
100
AcDbLine
 10
240.65
 20
6.5
 11
240.65
 21
-6.499999999999998
  0
LINE
  5
B3
100
AcDbEntity
  8
0
  6
ByLayer
 62
  256
370
   -1
100
AcDbLine
 10
254.65
 20
6.5
 11
254.65
 21
-6.499999999999998
  0
ARC
  5
B4
100
AcDbEntity
  8
0
  6
ByLayer
 62
  256
370
   -1
100
AcDbCircle
 10
241.15
 20
6.5
 40
0.5
100
AcDbArc
 50
90
 51
180
  0
ARC
  5
B5
100
AcDbEntity
  8
0
  6
ByLayer
 62
  256
370
   -1
100
AcDbCircle
 10
254.15
 20
6.5
 40
0.5
100
AcDbArc
 50
0
 51
90
  0
ARC
  5
B6
100
AcDbEntity
  8
0
  6
ByLayer
 62
  256
370
   -1
100
AcDbCircle
 10
241.15
 20
-6.499999999999998
 40
0.5
100
AcDbArc
 50
180
 51
270
  0
ARC
  5
B7
100
AcDbEntity
  8
0
  6
ByLayer
 62
  256
370
   -1
100
AcDbCircle
 10
254.15
 20
-6.499999999999998
 40
0.5
100
AcDbArc
 50
270
 51
0
  0
LINE
  5
B8
100
AcDbEntity
  8
0
  6
ByLayer
 62
  256
370
   -1
100
AcDbLine
 10
-6.5
 20
-16.8125
 11
6.499999999999998
 21
-16.8125
  0
LINE
  5
B9
100
AcDbEntity
  8
0
  6
ByLayer
 62
  256
370
   -1
100
AcDbLine
 10
-6.5
 20
-30.8125
 11
6.499999999999998
 21
-30.8125
  0
LINE
  5
BA
100
AcDbEntity
  8
0
  6
ByLayer
 62
  256
370
   -1
100
AcDbLine
 10
-7
 20
-17.3125
 11
-7
 21
-30.3125
  0
LINE
  5
BB
100
AcDbEntity
  8
0
  6
ByLayer
 62
  256
370
   -1
100
AcDbLine
 10
6.999999999999998
 20
-17.3125
 11
6.999999999999998
 21
-30.3125
  0
ARC
  5
BC
100
AcDbEntity
  8
0
  6
ByLayer
 62
  256
370
   -1
100
AcDbCircle
 10
-6.5
 20
-17.3125
 40
0.5
100
AcDbArc
 50
90
 51
180
  0
ARC
  5
BD
100
AcDbEntity
  8
0
  6
ByLayer
 62
  256
370
   -1
100
AcDbCircle
 10
6.499999999999998
 20
-17.3125
 40
0.5
100
AcDbArc
 50
0
 51
90
  0
ARC
  5
BE
100
AcDbEntity
  8
0
  6
ByLayer
 62
  256
370
   -1
100
AcDbCircle
 10
-6.5
 20
-30.3125
 40
0.5
100
AcDbArc
 50
180
 51
270
  0
ARC
  5
BF
100
AcDbEntity
  8
0
  6
ByLayer
 62
  256
370
   -1
100
AcDbCircle
 10
6.499999999999998
 20
-30.3125
 40
0.5
100
AcDbArc
 50
270
 51
0
  0
LINE
  5
C0
100
AcDbEntity
  8
0
  6
ByLayer
 62
  256
370
   -1
100
AcDbLine
 10
12.55
 20
-16.8125
 11
25.55
 21
-16.8125
  0
LINE
  5
C1
100
AcDbEntity
  8
0
  6
ByLayer
 62
  256
370
   -1
100
AcDbLine
 10
12.55
 20
-30.8125
 11
25.55
 21
-30.8125
  0
LINE
  5
C2
100
AcDbEntity
  8
0
  6
ByLayer
 62
  256
370
   -1
100
AcDbLine
 10
12.05
 20
-17.3125
 11
12.05
 21
-30.3125
  0
LINE
  5
C3
100
AcDbEntity
  8
0
  6
ByLayer
 62
  256
370
   -1
100
AcDbLine
 10
26.05
 20
-17.3125
 11
26.05
 21
-30.3125
  0
ARC
  5
C4
100
AcDbEntity
  8
0
  6
ByLayer
 62
  256
370
   -1
100
AcDbCircle
 10
12.55
 20
-17.3125
 40
0.5
100
AcDbArc
 50
90
 51
180
  0
ARC
  5
C5
100
AcDbEntity
  8
0
  6
ByLayer
 62
  256
370
   -1
100
AcDbCircle
 10
25.55
 20
-17.3125
 40
0.5
100
AcDbArc
 50
0
 51
90
  0
ARC
  5
C6
100
AcDbEntity
  8
0
  6
ByLayer
 62
  256
370
   -1
100
AcDbCircle
 10
12.55
 20
-30.3125
 40
0.5
100
AcDbArc
 50
180
 51
270
  0
ARC
  5
C7
100
AcDbEntity
  8
0
  6
ByLayer
 62
  256
370
   -1
100
AcDbCircle
 10
25.55
 20
-30.3125
 40
0.5
100
AcDbArc
 50
270
 51
0
  0
LINE
  5
C8
100
AcDbEntity
  8
0
  6
ByLayer
 62
  256
370
   -1
100
AcDbLine
 10
31.6
 20
-16.8125
 11
44.6
 21
-16.8125
  0
LINE
  5
C9
100
AcDbEntity
  8
0
  6
ByLayer
 62
  256
370
   -1
100
AcDbLine
 10
31.6
 20
-30.8125
 11
44.6
 21
-30.8125
  0
LINE
  5
CA
100
AcDbEntity
  8
0
  6
ByLayer
 62
  256
370
   -1
100
AcDbLine
 10
31.1
 20
-17.3125
 11
31.1
 21
-30.3125
  0
LINE
  5
CB
100
AcDbEntity
  8
0
  6
ByLayer
 62
  256
370
   -1
100
AcDbLine
 10
45.1
 20
-17.3125
 11
45.1
 21
-30.3125
  0
ARC
  5
CC
100
AcDbEntity
  8
0
  6
ByLayer
 62
  256
370
   -1
100
AcDbCircle
 10
31.6
 20
-17.3125
 40
0.5
100
AcDbArc
 50
90
 51
180
  0
ARC
  5
CD
100
AcDbEntity
  8
0
  6
ByLayer
 62
  256
370
   -1
100
AcDbCircle
 10
44.6
 20
-17.3125
 40
0.5
100
AcDbArc
 50
0
 51
90
  0
ARC
  5
CE
100
AcDbEntity
  8
0
  6
ByLayer
 62
  256
370
   -1
100
AcDbCircle
 10
31.6
 20
-30.3125
 40
0.5
100
AcDbArc
 50
180
 51
270
  0
ARC
  5
CF
100
AcDbEntity
  8
0
  6
ByLayer
 62
  256
370
   -1
100
AcDbCircle
 10
44.6
 20
-30.3125
 40
0.5
100
AcDbArc
 50
270
 51
0
  0
LINE
  5
D0
100
AcDbEntity
  8
0
  6
ByLayer
 62
  256
370
   -1
100
AcDbLine
 10
50.65
 20
-16.8125
 11
63.65
 21
-16.8125
  0
LINE
  5
D1
100
AcDbEntity
  8
0
  6
ByLayer
 62
  256
370
   -1
100
AcDbLine
 10
50.65
 20
-30.8125
 11
63.65
 21
-30.8125
  0
LINE
  5
D2
100
AcDbEntity
  8
0
  6
ByLayer
 62
  256
370
   -1
100
AcDbLine
 10
50.15
 20
-17.3125
 11
50.15
 21
-30.3125
  0
LINE
  5
D3
100
AcDbEntity
  8
0
  6
ByLayer
 62
  256
370
   -1
100
AcDbLine
 10
64.14999999999999
 20
-17.3125
 11
64.14999999999999
 21
-30.3125
  0
ARC
  5
D4
100
AcDbEntity
  8
0
  6
ByLayer
 62
  256
370
   -1
100
AcDbCircle
 10
50.65
 20
-17.3125
 40
0.5
100
AcDbArc
 50
90
 51
180
  0
ARC
  5
D5
100
AcDbEntity
  8
0
  6
ByLayer
 62
  256
370
   -1
100
AcDbCircle
 10
63.65
 20
-17.3125
 40
0.5
100
AcDbArc
 50
0
 51
90
  0
ARC
  5
D6
100
AcDbEntity
  8
0
  6
ByLayer
 62
  256
370
   -1
100
AcDbCircle
 10
50.65
 20
-30.3125
 40
0.5
100
AcDbArc
 50
180
 51
270
  0
ARC
  5
D7
100
AcDbEntity
  8
0
  6
ByLayer
 62
  256
370
   -1
100
AcDbCircle
 10
63.65
 20
-30.3125
 40
0.5
100
AcDbArc
 50
270
 51
0
  0
LINE
  5
D8
100
AcDbEntity
  8
0
  6
ByLayer
 62
  256
370
   -1
100
AcDbLine
 10
69.69999999999999
 20
-16.8125
 11
82.69999999999999
 21
-16.8125
  0
LINE
  5
D9
100
AcDbEntity
  8
0
  6
ByLayer
 62
  256
370
   -1
100
AcDbLine
 10
69.69999999999999
 20
-30.8125
 11
82.69999999999999
 21
-30.8125
  0
LINE
  5
DA
100
AcDbEntity
  8
0
  6
ByLayer
 62
  256
370
   -1
100
AcDbLine
 10
69.19999999999999
 20
-17.3125
 11
69.19999999999999
 21
-30.3125
  0
LINE
  5
DB
100
AcDbEntity
  8
0
  6
ByLayer
 62
  256
370
   -1
100
AcDbLine
 10
83.19999999999999
 20
-17.3125
 11
83.19999999999999
 21
-30.3125
  0
ARC
  5
DC
100
AcDbEntity
  8
0
  6
ByLayer
 62
  256
370
   -1
100
AcDbCircle
 10
69.69999999999999
 20
-17.3125
 40
0.5
100
AcDbArc
 50
90
 51
180
  0
ARC
  5
DD
100
AcDbEntity
  8
0
  6
ByLayer
 62
  256
370
   -1
100
AcDbCircle
 10
82.69999999999999
 20
-17.3125
 40
0.5
100
AcDbArc
 50
0
 51
90
  0
ARC
  5
DE
100
AcDbEntity
  8
0
  6
ByLayer
 62
  256
370
   -1
100
AcDbCircle
 10
69.69999999999999
 20
-30.3125
 40
0.5
100
AcDbArc
 50
180
 51
270
  0
ARC
  5
DF
100
AcDbEntity
  8
0
  6
ByLayer
 62
  256
370
   -1
100
AcDbCircle
 10
82.69999999999999
 20
-30.3125
 40
0.5
100
AcDbArc
 50
270
 51
0
  0
LINE
  5
E0
100
AcDbEntity
  8
0
  6
ByLayer
 62
  256
370
   -1
100
AcDbLine
 10
88.75
 20
-16.8125
 11
101.75
 21
-16.8125
  0
LINE
  5
E1
100
AcDbEntity
  8
0
  6
ByLayer
 62
  256
370
   -1
100
AcDbLine
 10
88.75
 20
-30.8125
 11
101.75
 21
-30.8125
  0
LINE
  5
E2
100
AcDbEntity
  8
0
  6
ByLayer
 62
  256
370
   -1
100
AcDbLine
 10
88.25
 20
-17.3125
 11
88.25
 21
-30.3125
  0
LINE
  5
E3
100
AcDbEntity
  8
0
  6
ByLayer
 62
  256
370
   -1
100
AcDbLine
 10
102.25
 20
-17.3125
 11
102.25
 21
-30.3125
  0
ARC
  5
E4
100
AcDbEntity
  8
0
  6
ByLayer
 62
  256
370
   -1
100
AcDbCircle
 10
88.75
 20
-17.3125
 40
0.5
100
AcDbArc
 50
90
 51
180
  0
ARC
  5
E5
100
AcDbEntity
  8
0
  6
ByLayer
 62
  256
370
   -1
100
AcDbCircle
 10
101.75
 20
-17.3125
 40
0.5
100
AcDbArc
 50
0
 51
90
  0
ARC
  5
E6
100
AcDbEntity
  8
0
  6
ByLayer
 62
  256
370
   -1
100
AcDbCircle
 10
88.75
 20
-30.3125
 40
0.5
100
AcDbArc
 50
180
 51
270
  0
ARC
  5
E7
100
AcDbEntity
  8
0
  6
ByLayer
 62
  256
370
   -1
100
AcDbCircle
 10
101.75
 20
-30.3125
 40
0.5
100
AcDbArc
 50
270
 51
0
  0
LINE
  5
E8
100
AcDbEntity
  8
0
  6
ByLayer
 62
  256
370
   -1
100
AcDbLine
 10
107.8
 20
-16.8125
 11
120.8
 21
-16.8125
  0
LINE
  5
E9
100
AcDbEntity
  8
0
  6
ByLayer
 62
  256
370
   -1
100
AcDbLine
 10
107.8
 20
-30.8125
 11
120.8
 21
-30.8125
  0
LINE
  5
EA
100
AcDbEntity
  8
0
  6
ByLayer
 62
  256
370
   -1
100
AcDbLine
 10
107.3
 20
-17.3125
 11
107.3
 21
-30.3125
  0
LINE
  5
EB
100
AcDbEntity
  8
0
  6
ByLayer
 62
  256
370
   -1
100
AcDbLine
 10
121.3
 20
-17.3125
 11
121.3
 21
-30.3125
  0
ARC
  5
EC
100
AcDbEntity
  8
0
  6
ByLayer
 62
  256
370
   -1
100
AcDbCircle
 10
107.8
 20
-17.3125
 40
0.5
100
AcDbArc
 50
90
 51
180
  0
ARC
  5
ED
100
AcDbEntity
  8
0
  6
ByLayer
 62
  256
370
   -1
100
AcDbCircle
 10
120.8
 20
-17.3125
 40
0.5
100
AcDbArc
 50
0
 51
90
  0
ARC
  5
EE
100
AcDbEntity
  8
0
  6
ByLayer
 62
  256
370
   -1
100
AcDbCircle
 10
107.8
 20
-30.3125
 40
0.5
100
AcDbArc
 50
180
 51
270
  0
ARC
  5
EF
100
AcDbEntity
  8
0
  6
ByLayer
 62
  256
370
   -1
100
AcDbCircle
 10
120.8
 20
-30.3125
 40
0.5
100
AcDbArc
 50
270
 51
0
  0
LINE
  5
F0
100
AcDbEntity
  8
0
  6
ByLayer
 62
  256
370
   -1
100
AcDbLine
 10
126.85
 20
-16.8125
 11
139.85
 21
-16.8125
  0
LINE
  5
F1
100
AcDbEntity
  8
0
  6
ByLayer
 62
  256
370
   -1
100
AcDbLine
 10
126.85
 20
-30.8125
 11
139.85
 21
-30.8125
  0
LINE
  5
F2
100
AcDbEntity
  8
0
  6
ByLayer
 62
  256
370
   -1
100
AcDbLine
 10
126.35
 20
-17.3125
 11
126.35
 21
-30.3125
  0
LINE
  5
F3
100
AcDbEntity
  8
0
  6
ByLayer
 62
  256
370
   -1
100
AcDbLine
 10
140.35
 20
-17.3125
 11
140.35
 21
-30.3125
  0
ARC
  5
F4
100
AcDbEntity
  8
0
  6
ByLayer
 62
  256
370
   -1
100
AcDbCircle
 10
126.85
 20
-17.3125
 40
0.5
100
AcDbArc
 50
90
 51
180
  0
ARC
  5
F5
100
AcDbEntity
  8
0
  6
ByLayer
 62
  256
370
   -1
100
AcDbCircle
 10
139.85
 20
-17.3125
 40
0.5
100
AcDbArc
 50
0
 51
90
  0
ARC
  5
F6
100
AcDbEntity
  8
0
  6
ByLayer
 62
  256
370
   -1
100
AcDbCircle
 10
126.85
 20
-30.3125
 40
0.5
100
AcDbArc
 50
180
 51
270
  0
ARC
  5
F7
100
AcDbEntity
  8
0
  6
ByLayer
 62
  256
370
   -1
100
AcDbCircle
 10
139.85
 20
-30.3125
 40
0.5
100
AcDbArc
 50
270
 51
0
  0
LINE
  5
F8
100
AcDbEntity
  8
0
  6
ByLayer
 62
  256
370
   -1
100
AcDbLine
 10
145.9
 20
-16.8125
 11
158.9
 21
-16.8125
  0
LINE
  5
F9
100
AcDbEntity
  8
0
  6
ByLayer
 62
  256
370
   -1
100
AcDbLine
 10
145.9
 20
-30.8125
 11
158.9
 21
-30.8125
  0
LINE
  5
FA
100
AcDbEntity
  8
0
  6
ByLayer
 62
  256
370
   -1
100
AcDbLine
 10
145.4
 20
-17.3125
 11
145.4
 21
-30.3125
  0
LINE
  5
FB
100
AcDbEntity
  8
0
  6
ByLayer
 62
  256
370
   -1
100
AcDbLine
 10
159.4
 20
-17.3125
 11
159.4
 21
-30.3125
  0
ARC
  5
FC
100
AcDbEntity
  8
0
  6
ByLayer
 62
  256
370
   -1
100
AcDbCircle
 10
145.9
 20
-17.3125
 40
0.5
100
AcDbArc
 50
90
 51
180
  0
ARC
  5
FD
100
AcDbEntity
  8
0
  6
ByLayer
 62
  256
370
   -1
100
AcDbCircle
 10
158.9
 20
-17.3125
 40
0.5
100
AcDbArc
 50
0
 51
90
  0
ARC
  5
FE
100
AcDbEntity
  8
0
  6
ByLayer
 62
  256
370
   -1
100
AcDbCircle
 10
145.9
 20
-30.3125
 40
0.5
100
AcDbArc
 50
180
 51
270
  0
ARC
  5
FF
100
AcDbEntity
  8
0
  6
ByLayer
 62
  256
370
   -1
100
AcDbCircle
 10
158.9
 20
-30.3125
 40
0.5
100
AcDbArc
 50
270
 51
0
  0
LINE
  5
100
100
AcDbEntity
  8
0
  6
ByLayer
 62
  256
370
   -1
100
AcDbLine
 10
164.95
 20
-16.8125
 11
177.95
 21
-16.8125
  0
LINE
  5
101
100
AcDbEntity
  8
0
  6
ByLayer
 62
  256
370
   -1
100
AcDbLine
 10
164.95
 20
-30.8125
 11
177.95
 21
-30.8125
  0
LINE
  5
102
100
AcDbEntity
  8
0
  6
ByLayer
 62
  256
370
   -1
100
AcDbLine
 10
164.45
 20
-17.3125
 11
164.45
 21
-30.3125
  0
LINE
  5
103
100
AcDbEntity
  8
0
  6
ByLayer
 62
  256
370
   -1
100
AcDbLine
 10
178.45
 20
-17.3125
 11
178.45
 21
-30.3125
  0
ARC
  5
104
100
AcDbEntity
  8
0
  6
ByLayer
 62
  256
370
   -1
100
AcDbCircle
 10
164.95
 20
-17.3125
 40
0.5
100
AcDbArc
 50
90
 51
180
  0
ARC
  5
105
100
AcDbEntity
  8
0
  6
ByLayer
 62
  256
370
   -1
100
AcDbCircle
 10
177.95
 20
-17.3125
 40
0.5
100
AcDbArc
 50
0
 51
90
  0
ARC
  5
106
100
AcDbEntity
  8
0
  6
ByLayer
 62
  256
370
   -1
100
AcDbCircle
 10
164.95
 20
-30.3125
 40
0.5
100
AcDbArc
 50
180
 51
270
  0
ARC
  5
107
100
AcDbEntity
  8
0
  6
ByLayer
 62
  256
370
   -1
100
AcDbCircle
 10
177.95
 20
-30.3125
 40
0.5
100
AcDbArc
 50
270
 51
0
  0
LINE
  5
108
100
AcDbEntity
  8
0
  6
ByLayer
 62
  256
370
   -1
100
AcDbLine
 10
184
 20
-16.8125
 11
197
 21
-16.8125
  0
LINE
  5
109
100
AcDbEntity
  8
0
  6
ByLayer
 62
  256
370
   -1
100
AcDbLine
 10
184
 20
-30.8125
 11
197
 21
-30.8125
  0
LINE
  5
10A
100
AcDbEntity
  8
0
  6
ByLayer
 62
  256
370
   -1
100
AcDbLine
 10
183.5
 20
-17.3125
 11
183.5
 21
-30.3125
  0
LINE
  5
10B
100
AcDbEntity
  8
0
  6
ByLayer
 62
  256
370
   -1
100
AcDbLine
 10
197.5
 20
-17.3125
 11
197.5
 21
-30.3125
  0
ARC
  5
10C
100
AcDbEntity
  8
0
  6
ByLayer
 62
  256
370
   -1
100
AcDbCircle
 10
184
 20
-17.3125
 40
0.5
100
AcDbArc
 50
90
 51
180
  0
ARC
  5
10D
100
AcDbEntity
  8
0
  6
ByLayer
 62
  256
370
   -1
100
AcDbCircle
 10
197
 20
-17.3125
 40
0.5
100
AcDbArc
 50
0
 51
90
  0
ARC
  5
10E
100
AcDbEntity
  8
0
  6
ByLayer
 62
  256
370
   -1
100
AcDbCircle
 10
184
 20
-30.3125
 40
0.5
100
AcDbArc
 50
180
 51
270
  0
ARC
  5
10F
100
AcDbEntity
  8
0
  6
ByLayer
 62
  256
370
   -1
100
AcDbCircle
 10
197
 20
-30.3125
 40
0.5
100
AcDbArc
 50
270
 51
0
  0
LINE
  5
110
100
AcDbEntity
  8
0
  6
ByLayer
 62
  256
370
   -1
100
AcDbLine
 10
203.05
 20
-16.8125
 11
216.05
 21
-16.8125
  0
LINE
  5
111
100
AcDbEntity
  8
0
  6
ByLayer
 62
  256
370
   -1
100
AcDbLine
 10
203.05
 20
-30.8125
 11
216.05
 21
-30.8125
  0
LINE
  5
112
100
AcDbEntity
  8
0
  6
ByLayer
 62
  256
370
   -1
100
AcDbLine
 10
202.55
 20
-17.3125
 11
202.55
 21
-30.3125
  0
LINE
  5
113
100
AcDbEntity
  8
0
  6
ByLayer
 62
  256
370
   -1
100
AcDbLine
 10
216.55
 20
-17.3125
 11
216.55
 21
-30.3125
  0
ARC
  5
114
100
AcDbEntity
  8
0
  6
ByLayer
 62
  256
370
   -1
100
AcDbCircle
 10
203.05
 20
-17.3125
 40
0.5
100
AcDbArc
 50
90
 51
180
  0
ARC
  5
115
100
AcDbEntity
  8
0
  6
ByLayer
 62
  256
370
   -1
100
AcDbCircle
 10
216.05
 20
-17.3125
 40
0.5
100
AcDbArc
 50
0
 51
90
  0
ARC
  5
116
100
AcDbEntity
  8
0
  6
ByLayer
 62
  256
370
   -1
100
AcDbCircle
 10
203.05
 20
-30.3125
 40
0.5
100
AcDbArc
 50
180
 51
270
  0
ARC
  5
117
100
AcDbEntity
  8
0
  6
ByLayer
 62
  256
370
   -1
100
AcDbCircle
 10
216.05
 20
-30.3125
 40
0.5
100
AcDbArc
 50
270
 51
0
  0
LINE
  5
118
100
AcDbEntity
  8
0
  6
ByLayer
 62
  256
370
   -1
100
AcDbLine
 10
222.1
 20
-16.8125
 11
235.1
 21
-16.8125
  0
LINE
  5
119
100
AcDbEntity
  8
0
  6
ByLayer
 62
  256
370
   -1
100
AcDbLine
 10
222.1
 20
-30.8125
 11
235.1
 21
-30.8125
  0
LINE
  5
11A
100
AcDbEntity
  8
0
  6
ByLayer
 62
  256
370
   -1
100
AcDbLine
 10
221.6
 20
-17.3125
 11
221.6
 21
-30.3125
  0
LINE
  5
11B
100
AcDbEntity
  8
0
  6
ByLayer
 62
  256
370
   -1
100
AcDbLine
 10
235.6
 20
-17.3125
 11
235.6
 21
-30.3125
  0
ARC
  5
11C
100
AcDbEntity
  8
0
  6
ByLayer
 62
  256
370
   -1
100
AcDbCircle
 10
222.1
 20
-17.3125
 40
0.5
100
AcDbArc
 50
90
 51
180
  0
ARC
  5
11D
100
AcDbEntity
  8
0
  6
ByLayer
 62
  256
370
   -1
100
AcDbCircle
 10
235.1
 20
-17.3125
 40
0.5
100
AcDbArc
 50
0
 51
90
  0
ARC
  5
11E
100
AcDbEntity
  8
0
  6
ByLayer
 62
  256
370
   -1
100
AcDbCircle
 10
222.1
 20
-30.3125
 40
0.5
100
AcDbArc
 50
180
 51
270
  0
ARC
  5
11F
100
AcDbEntity
  8
0
  6
ByLayer
 62
  256
370
   -1
100
AcDbCircle
 10
235.1
 20
-30.3125
 40
0.5
100
AcDbArc
 50
270
 51
0
  0
LINE
  5
120
100
AcDbEntity
  8
0
  6
ByLayer
 62
  256
370
   -1
100
AcDbLine
 10
250.675
 20
-16.8125
 11
263.675
 21
-16.8125
  0
LINE
  5
121
100
AcDbEntity
  8
0
  6
ByLayer
 62
  256
370
   -1
100
AcDbLine
 10
250.675
 20
-30.8125
 11
263.675
 21
-30.8125
  0
ARC
  5
122
100
AcDbEntity
  8
0
  6
ByLayer
 62
  256
370
   -1
100
AcDbCircle
 10
250.675
 20
-17.3125
 40
0.5
100
AcDbArc
 50
90
 51
180
  0
ARC
  5
123
100
AcDbEntity
  8
0
  6
ByLayer
 62
  256
370
   -1
100
AcDbCircle
 10
263.675
 20
-17.3125
 40
0.5
100
AcDbArc
 50
0
 51
90
  0
ARC
  5
124
100
AcDbEntity
  8
0
  6
ByLayer
 62
  256
370
   -1
100
AcDbCircle
 10
250.675
 20
-30.3125
 40
0.5
100
AcDbArc
 50
180
 51
270
  0
ARC
  5
125
100
AcDbEntity
  8
0
  6
ByLayer
 62
  256
370
   -1
100
AcDbCircle
 10
263.675
 20
-30.3125
 40
0.5
100
AcDbArc
 50
270
 51
0
  0
LINE
  5
126
100
AcDbEntity
  8
0
  6
ByLayer
 62
  256
370
   -1
100
AcDbLine
 10
241.9096
 20
-18.1229
 11
248.5644
 21
-18.1229
  0
LINE
  5
127
100
AcDbEntity
  8
0
  6
ByLayer
 62
  256
370
   -1
100
AcDbLine
 10
248.5644
 20
-18.1229
 11
248.5644
 21
-18.9357
  0
LINE
  5
128
100
AcDbEntity
  8
0
  6
ByLayer
 62
  256
370
   -1
100
AcDbLine
 10
248.5644
 20
-29.6291
 11
248.5644
 21
-30.4165
  0
LINE
  5
129
100
AcDbEntity
  8
0
  6
ByLayer
 62
  256
370
   -1
100
AcDbLine
 10
248.5644
 20
-30.4165
 11
246.761
 21
-30.4165
  0
LINE
  5
12A
100
AcDbEntity
  8
0
  6
ByLayer
 62
  256
370
   -1
100
AcDbLine
 10
246.761
 20
-30.4165
 11
246.761
 21
-31.5849
  0
LINE
  5
12B
100
AcDbEntity
  8
0
  6
ByLayer
 62
  256
370
   -1
100
AcDbLine
 10
246.761
 20
-31.5849
 11
243.713
 21
-31.5849
  0
LINE
  5
12C
100
AcDbEntity
  8
0
  6
ByLayer
 62
  256
370
   -1
100
AcDbLine
 10
243.713
 20
-31.5849
 11
243.713
 21
-30.4165
  0
LINE
  5
12D
100
AcDbEntity
  8
0
  6
ByLayer
 62
  256
370
   -1
100
AcDbLine
 10
243.713
 20
-30.4165
 11
241.9096
 21
-30.4165
  0
LINE
  5
12E
100
AcDbEntity
  8
0
  6
ByLayer
 62
  256
370
   -1
100
AcDbLine
 10
241.9096
 20
-30.4165
 11
241.9096
 21
-24.3205
  0
LINE
  5
12F
100
AcDbEntity
  8
0
  6
ByLayer
 62
  256
370
   -1
100
AcDbLine
 10
241.9096
 20
-24.3205
 11
241.046
 21
-24.3205
  0
LINE
  5
130
100
AcDbEntity
  8
0
  6
ByLayer
 62
  256
370
   -1
100
AcDbLine
 10
241.046
 20
-24.3205
 11
241.046
 21
-21.5265
  0
LINE
  5
131
100
AcDbEntity
  8
0
  6
ByLayer
 62
  256
370
   -1
100
AcDbLine
 10
241.046
 20
-21.5265
 11
241.9096
 21
-21.5265
  0
LINE
  5
132
100
AcDbEntity
  8
0
  6
ByLayer
 62
  256
370
   -1
100
AcDbLine
 10
241.9096
 20
-21.5265
 11
241.9096
 21
-18.1229
  0
LINE
  5
133
100
AcDbEntity
  8
0
  6
ByLayer
 62
  256
370
   -1
100
AcDbLine
 10
272.4404
 20
-18.1229
 11
265.7856
 21
-18.1229
  0
LINE
  5
134
100
AcDbEntity
  8
0
  6
ByLayer
 62
  256
370
   -1
100
AcDbLine
 10
265.7856
 20
-18.1229
 11
265.7856
 21
-18.9357
  0
LINE
  5
135
100
AcDbEntity
  8
0
  6
ByLayer
 62
  256
370
   -1
100
AcDbLine
 10
265.7856
 20
-29.6291
 11
265.7856
 21
-30.4165
  0
LINE
  5
136
100
AcDbEntity
  8
0
  6
ByLayer
 62
  256
370
   -1
100
AcDbLine
 10
265.7856
 20
-30.4165
 11
267.589
 21
-30.4165
  0
LINE
  5
137
100
AcDbEntity
  8
0
  6
ByLayer
 62
  256
370
   -1
100
AcDbLine
 10
267.589
 20
-30.4165
 11
267.589
 21
-31.5849
  0
LINE
  5
138
100
AcDbEntity
  8
0
  6
ByLayer
 62
  256
370
   -1
100
AcDbLine
 10
267.589
 20
-31.5849
 11
270.637
 21
-31.5849
  0
LINE
  5
139
100
AcDbEntity
  8
0
  6
ByLayer
 62
  256
370
   -1
100
AcDbLine
 10
270.637
 20
-31.5849
 11
270.637
 21
-30.4165
  0
LINE
  5
13A
100
AcDbEntity
  8
0
  6
ByLayer
 62
  256
370
   -1
100
AcDbLine
 10
270.637
 20
-30.4165
 11
272.4404
 21
-30.4165
  0
LINE
  5
13B
100
AcDbEntity
  8
0
  6
ByLayer
 62
  256
370
   -1
100
AcDbLine
 10
272.4404
 20
-30.4165
 11
272.4404
 21
-24.3205
  0
LINE
  5
13C
100
AcDbEntity
  8
0
  6
ByLayer
 62
  256
370
   -1
100
AcDbLine
 10
272.4404
 20
-24.3205
 11
273.304
 21
-24.3205
  0
LINE
  5
13D
100
AcDbEntity
  8
0
  6
ByLayer
 62
  256
370
   -1
100
AcDbLine
 10
273.304
 20
-24.3205
 11
273.304
 21
-21.5265
  0
LINE
  5
13E
100
AcDbEntity
  8
0
  6
ByLayer
 62
  256
370
   -1
100
AcDbLine
 10
273.304
 20
-21.5265
 11
272.4404
 21
-21.5265
  0
LINE
  5
13F
100
AcDbEntity
  8
0
  6
ByLayer
 62
  256
370
   -1
100
AcDbLine
 10
272.4404
 20
-21.5265
 11
272.4404
 21
-18.1229
  0
LINE
  5
140
100
AcDbEntity
  8
0
  6
ByLayer
 62
  256
370
   -1
100
AcDbLine
 10
-1.737500000000001
 20
-35.8625
 11
11.2625
 21
-35.8625
  0
LINE
  5
141
100
AcDbEntity
  8
0
  6
ByLayer
 62
  256
370
   -1
100
AcDbLine
 10
-1.737500000000001
 20
-49.8625
 11
11.2625
 21
-49.8625
  0
LINE
  5
142
100
AcDbEntity
  8
0
  6
ByLayer
 62
  256
370
   -1
100
AcDbLine
 10
-2.237500000000001
 20
-36.3625
 11
-2.237500000000001
 21
-49.3625
  0
LINE
  5
143
100
AcDbEntity
  8
0
  6
ByLayer
 62
  256
370
   -1
100
AcDbLine
 10
11.7625
 20
-36.3625
 11
11.7625
 21
-49.3625
  0
ARC
  5
144
100
AcDbEntity
  8
0
  6
ByLayer
 62
  256
370
   -1
100
AcDbCircle
 10
-1.737500000000001
 20
-36.3625
 40
0.5
100
AcDbArc
 50
90
 51
180
  0
ARC
  5
145
100
AcDbEntity
  8
0
  6
ByLayer
 62
  256
370
   -1
100
AcDbCircle
 10
11.2625
 20
-36.3625
 40
0.5
100
AcDbArc
 50
0
 51
90
  0
ARC
  5
146
100
AcDbEntity
  8
0
  6
ByLayer
 62
  256
370
   -1
100
AcDbCircle
 10
-1.737500000000001
 20
-49.3625
 40
0.5
100
AcDbArc
 50
180
 51
270
  0
ARC
  5
147
100
AcDbEntity
  8
0
  6
ByLayer
 62
  256
370
   -1
100
AcDbCircle
 10
11.2625
 20
-49.3625
 40
0.5
100
AcDbArc
 50
270
 51
0
  0
LINE
  5
148
100
AcDbEntity
  8
0
  6
ByLayer
 62
  256
370
   -1
100
AcDbLine
 10
-6.737500000000001
 20
-35.8625
 11
-5.237500000000001
 21
-35.8625
  0
LINE
  5
149
100
AcDbEntity
  8
0
  6
ByLayer
 62
  256
370
   -1
100
AcDbLine
 10
-6.737500000000001
 20
-49.8625
 11
-5.237500000000001
 21
-49.8625
  0
LINE
  5
14A
100
AcDbEntity
  8
0
  6
ByLayer
 62
  256
370
   -1
100
AcDbLine
 10
-6.737500000000001
 20
-35.8625
 11
-6.737500000000001
 21
-49.8625
  0
LINE
  5
14B
100
AcDbEntity
  8
0
  6
ByLayer
 62
  256
370
   -1
100
AcDbLine
 10
-5.237500000000001
 20
-35.8625
 11
-5.237500000000001
 21
-49.8625
  0
LINE
  5
14C
100
AcDbEntity
  8
0
  6
ByLayer
 62
  256
370
   -1
100
AcDbLine
 10
14.7625
 20
-35.8625
 11
16.2625
 21
-35.8625
  0
LINE
  5
14D
100
AcDbEntity
  8
0
  6
ByLayer
 62
  256
370
   -1
100
AcDbLine
 10
14.7625
 20
-49.8625
 11
16.2625
 21
-49.8625
  0
LINE
  5
14E
100
AcDbEntity
  8
0
  6
ByLayer
 62
  256
370
   -1
100
AcDbLine
 10
14.7625
 20
-35.8625
 11
14.7625
 21
-49.8625
  0
LINE
  5
14F
100
AcDbEntity
  8
0
  6
ByLayer
 62
  256
370
   -1
100
AcDbLine
 10
16.2625
 20
-35.8625
 11
16.2625
 21
-49.8625
  0
LINE
  5
150
100
AcDbEntity
  8
0
  6
ByLayer
 62
  256
370
   -1
100
AcDbLine
 10
22.075
 20
-35.8625
 11
35.075
 21
-35.8625
  0
LINE
  5
151
100
AcDbEntity
  8
0
  6
ByLayer
 62
  256
370
   -1
100
AcDbLine
 10
22.075
 20
-49.8625
 11
35.075
 21
-49.8625
  0
LINE
  5
152
100
AcDbEntity
  8
0
  6
ByLayer
 62
  256
370
   -1
100
AcDbLine
 10
21.575
 20
-36.3625
 11
21.575
 21
-49.3625
  0
LINE
  5
153
100
AcDbEntity
  8
0
  6
ByLayer
 62
  256
370
   -1
100
AcDbLine
 10
35.575
 20
-36.3625
 11
35.575
 21
-49.3625
  0
ARC
  5
154
100
AcDbEntity
  8
0
  6
ByLayer
 62
  256
370
   -1
100
AcDbCircle
 10
22.075
 20
-36.3625
 40
0.5
100
AcDbArc
 50
90
 51
180
  0
ARC
  5
155
100
AcDbEntity
  8
0
  6
ByLayer
 62
  256
370
   -1
100
AcDbCircle
 10
35.075
 20
-36.3625
 40
0.5
100
AcDbArc
 50
0
 51
90
  0
ARC
  5
156
100
AcDbEntity
  8
0
  6
ByLayer
 62
  256
370
   -1
100
AcDbCircle
 10
22.075
 20
-49.3625
 40
0.5
100
AcDbArc
 50
180
 51
270
  0
ARC
  5
157
100
AcDbEntity
  8
0
  6
ByLayer
 62
  256
370
   -1
100
AcDbCircle
 10
35.075
 20
-49.3625
 40
0.5
100
AcDbArc
 50
270
 51
0
  0
LINE
  5
158
100
AcDbEntity
  8
0
  6
ByLayer
 62
  256
370
   -1
100
AcDbLine
 10
41.125
 20
-35.8625
 11
54.125
 21
-35.8625
  0
LINE
  5
159
100
AcDbEntity
  8
0
  6
ByLayer
 62
  256
370
   -1
100
AcDbLine
 10
41.125
 20
-49.8625
 11
54.125
 21
-49.8625
  0
LINE
  5
15A
100
AcDbEntity
  8
0
  6
ByLayer
 62
  256
370
   -1
100
AcDbLine
 10
40.625
 20
-36.3625
 11
40.625
 21
-49.3625
  0
LINE
  5
15B
100
AcDbEntity
  8
0
  6
ByLayer
 62
  256
370
   -1
100
AcDbLine
 10
54.62500000000001
 20
-36.3625
 11
54.62500000000001
 21
-49.3625
  0
ARC
  5
15C
100
AcDbEntity
  8
0
  6
ByLayer
 62
  256
370
   -1
100
AcDbCircle
 10
41.125
 20
-36.3625
 40
0.5
100
AcDbArc
 50
90
 51
180
  0
ARC
  5
15D
100
AcDbEntity
  8
0
  6
ByLayer
 62
  256
370
   -1
100
AcDbCircle
 10
54.125
 20
-36.3625
 40
0.5
100
AcDbArc
 50
0
 51
90
  0
ARC
  5
15E
100
AcDbEntity
  8
0
  6
ByLayer
 62
  256
370
   -1
100
AcDbCircle
 10
41.125
 20
-49.3625
 40
0.5
100
AcDbArc
 50
180
 51
270
  0
ARC
  5
15F
100
AcDbEntity
  8
0
  6
ByLayer
 62
  256
370
   -1
100
AcDbCircle
 10
54.125
 20
-49.3625
 40
0.5
100
AcDbArc
 50
270
 51
0
  0
LINE
  5
160
100
AcDbEntity
  8
0
  6
ByLayer
 62
  256
370
   -1
100
AcDbLine
 10
60.175
 20
-35.8625
 11
73.175
 21
-35.8625
  0
LINE
  5
161
100
AcDbEntity
  8
0
  6
ByLayer
 62
  256
370
   -1
100
AcDbLine
 10
60.175
 20
-49.8625
 11
73.175
 21
-49.8625
  0
LINE
  5
162
100
AcDbEntity
  8
0
  6
ByLayer
 62
  256
370
   -1
100
AcDbLine
 10
59.675
 20
-36.3625
 11
59.675
 21
-49.3625
  0
LINE
  5
163
100
AcDbEntity
  8
0
  6
ByLayer
 62
  256
370
   -1
100
AcDbLine
 10
73.675
 20
-36.3625
 11
73.675
 21
-49.3625
  0
ARC
  5
164
100
AcDbEntity
  8
0
  6
ByLayer
 62
  256
370
   -1
100
AcDbCircle
 10
60.175
 20
-36.3625
 40
0.5
100
AcDbArc
 50
90
 51
180
  0
ARC
  5
165
100
AcDbEntity
  8
0
  6
ByLayer
 62
  256
370
   -1
100
AcDbCircle
 10
73.175
 20
-36.3625
 40
0.5
100
AcDbArc
 50
0
 51
90
  0
ARC
  5
166
100
AcDbEntity
  8
0
  6
ByLayer
 62
  256
370
   -1
100
AcDbCircle
 10
60.175
 20
-49.3625
 40
0.5
100
AcDbArc
 50
180
 51
270
  0
ARC
  5
167
100
AcDbEntity
  8
0
  6
ByLayer
 62
  256
370
   -1
100
AcDbCircle
 10
73.175
 20
-49.3625
 40
0.5
100
AcDbArc
 50
270
 51
0
  0
LINE
  5
168
100
AcDbEntity
  8
0
  6
ByLayer
 62
  256
370
   -1
100
AcDbLine
 10
79.22499999999999
 20
-35.8625
 11
92.22499999999999
 21
-35.8625
  0
LINE
  5
169
100
AcDbEntity
  8
0
  6
ByLayer
 62
  256
370
   -1
100
AcDbLine
 10
79.22499999999999
 20
-49.8625
 11
92.22499999999999
 21
-49.8625
  0
LINE
  5
16A
100
AcDbEntity
  8
0
  6
ByLayer
 62
  256
370
   -1
100
AcDbLine
 10
78.72499999999999
 20
-36.3625
 11
78.72499999999999
 21
-49.3625
  0
LINE
  5
16B
100
AcDbEntity
  8
0
  6
ByLayer
 62
  256
370
   -1
100
AcDbLine
 10
92.72499999999999
 20
-36.3625
 11
92.72499999999999
 21
-49.3625
  0
ARC
  5
16C
100
AcDbEntity
  8
0
  6
ByLayer
 62
  256
370
   -1
100
AcDbCircle
 10
79.22499999999999
 20
-36.3625
 40
0.5
100
AcDbArc
 50
90
 51
180
  0
ARC
  5
16D
100
AcDbEntity
  8
0
  6
ByLayer
 62
  256
370
   -1
100
AcDbCircle
 10
92.22499999999999
 20
-36.3625
 40
0.5
100
AcDbArc
 50
0
 51
90
  0
ARC
  5
16E
100
AcDbEntity
  8
0
  6
ByLayer
 62
  256
370
   -1
100
AcDbCircle
 10
79.22499999999999
 20
-49.3625
 40
0.5
100
AcDbArc
 50
180
 51
270
  0
ARC
  5
16F
100
AcDbEntity
  8
0
  6
ByLayer
 62
  256
370
   -1
100
AcDbCircle
 10
92.22499999999999
 20
-49.3625
 40
0.5
100
AcDbArc
 50
270
 51
0
  0
LINE
  5
170
100
AcDbEntity
  8
0
  6
ByLayer
 62
  256
370
   -1
100
AcDbLine
 10
98.27499999999999
 20
-35.8625
 11
111.275
 21
-35.8625
  0
LINE
  5
171
100
AcDbEntity
  8
0
  6
ByLayer
 62
  256
370
   -1
100
AcDbLine
 10
98.27499999999999
 20
-49.8625
 11
111.275
 21
-49.8625
  0
LINE
  5
172
100
AcDbEntity
  8
0
  6
ByLayer
 62
  256
370
   -1
100
AcDbLine
 10
97.77499999999999
 20
-36.3625
 11
97.77499999999999
 21
-49.3625
  0
LINE
  5
173
100
AcDbEntity
  8
0
  6
ByLayer
 62
  256
370
   -1
100
AcDbLine
 10
111.775
 20
-36.3625
 11
111.775
 21
-49.3625
  0
ARC
  5
174
100
AcDbEntity
  8
0
  6
ByLayer
 62
  256
370
   -1
100
AcDbCircle
 10
98.27499999999999
 20
-36.3625
 40
0.5
100
AcDbArc
 50
90
 51
180
  0
ARC
  5
175
100
AcDbEntity
  8
0
  6
ByLayer
 62
  256
370
   -1
100
AcDbCircle
 10
111.275
 20
-36.3625
 40
0.5
100
AcDbArc
 50
0
 51
90
  0
ARC
  5
176
100
AcDbEntity
  8
0
  6
ByLayer
 62
  256
370
   -1
100
AcDbCircle
 10
98.27499999999999
 20
-49.3625
 40
0.5
100
AcDbArc
 50
180
 51
270
  0
ARC
  5
177
100
AcDbEntity
  8
0
  6
ByLayer
 62
  256
370
   -1
100
AcDbCircle
 10
111.275
 20
-49.3625
 40
0.5
100
AcDbArc
 50
270
 51
0
  0
LINE
  5
178
100
AcDbEntity
  8
0
  6
ByLayer
 62
  256
370
   -1
100
AcDbLine
 10
117.325
 20
-35.8625
 11
130.325
 21
-35.8625
  0
LINE
  5
179
100
AcDbEntity
  8
0
  6
ByLayer
 62
  256
370
   -1
100
AcDbLine
 10
117.325
 20
-49.8625
 11
130.325
 21
-49.8625
  0
LINE
  5
17A
100
AcDbEntity
  8
0
  6
ByLayer
 62
  256
370
   -1
100
AcDbLine
 10
116.825
 20
-36.3625
 11
116.825
 21
-49.3625
  0
LINE
  5
17B
100
AcDbEntity
  8
0
  6
ByLayer
 62
  256
370
   -1
100
AcDbLine
 10
130.825
 20
-36.3625
 11
130.825
 21
-49.3625
  0
ARC
  5
17C
100
AcDbEntity
  8
0
  6
ByLayer
 62
  256
370
   -1
100
AcDbCircle
 10
117.325
 20
-36.3625
 40
0.5
100
AcDbArc
 50
90
 51
180
  0
ARC
  5
17D
100
AcDbEntity
  8
0
  6
ByLayer
 62
  256
370
   -1
100
AcDbCircle
 10
130.325
 20
-36.3625
 40
0.5
100
AcDbArc
 50
0
 51
90
  0
ARC
  5
17E
100
AcDbEntity
  8
0
  6
ByLayer
 62
  256
370
   -1
100
AcDbCircle
 10
117.325
 20
-49.3625
 40
0.5
100
AcDbArc
 50
180
 51
270
  0
ARC
  5
17F
100
AcDbEntity
  8
0
  6
ByLayer
 62
  256
370
   -1
100
AcDbCircle
 10
130.325
 20
-49.3625
 40
0.5
100
AcDbArc
 50
270
 51
0
  0
LINE
  5
180
100
AcDbEntity
  8
0
  6
ByLayer
 62
  256
370
   -1
100
AcDbLine
 10
136.375
 20
-35.8625
 11
149.375
 21
-35.8625
  0
LINE
  5
181
100
AcDbEntity
  8
0
  6
ByLayer
 62
  256
370
   -1
100
AcDbLine
 10
136.375
 20
-49.8625
 11
149.375
 21
-49.8625
  0
LINE
  5
182
100
AcDbEntity
  8
0
  6
ByLayer
 62
  256
370
   -1
100
AcDbLine
 10
135.875
 20
-36.3625
 11
135.875
 21
-49.3625
  0
LINE
  5
183
100
AcDbEntity
  8
0
  6
ByLayer
 62
  256
370
   -1
100
AcDbLine
 10
149.875
 20
-36.3625
 11
149.875
 21
-49.3625
  0
ARC
  5
184
100
AcDbEntity
  8
0
  6
ByLayer
 62
  256
370
   -1
100
AcDbCircle
 10
136.375
 20
-36.3625
 40
0.5
100
AcDbArc
 50
90
 51
180
  0
ARC
  5
185
100
AcDbEntity
  8
0
  6
ByLayer
 62
  256
370
   -1
100
AcDbCircle
 10
149.375
 20
-36.3625
 40
0.5
100
AcDbArc
 50
0
 51
90
  0
ARC
  5
186
100
AcDbEntity
  8
0
  6
ByLayer
 62
  256
370
   -1
100
AcDbCircle
 10
136.375
 20
-49.3625
 40
0.5
100
AcDbArc
 50
180
 51
270
  0
ARC
  5
187
100
AcDbEntity
  8
0
  6
ByLayer
 62
  256
370
   -1
100
AcDbCircle
 10
149.375
 20
-49.3625
 40
0.5
100
AcDbArc
 50
270
 51
0
  0
LINE
  5
188
100
AcDbEntity
  8
0
  6
ByLayer
 62
  256
370
   -1
100
AcDbLine
 10
155.425
 20
-35.8625
 11
168.425
 21
-35.8625
  0
LINE
  5
189
100
AcDbEntity
  8
0
  6
ByLayer
 62
  256
370
   -1
100
AcDbLine
 10
155.425
 20
-49.8625
 11
168.425
 21
-49.8625
  0
LINE
  5
18A
100
AcDbEntity
  8
0
  6
ByLayer
 62
  256
370
   -1
100
AcDbLine
 10
154.925
 20
-36.3625
 11
154.925
 21
-49.3625
  0
LINE
  5
18B
100
AcDbEntity
  8
0
  6
ByLayer
 62
  256
370
   -1
100
AcDbLine
 10
168.925
 20
-36.3625
 11
168.925
 21
-49.3625
  0
ARC
  5
18C
100
AcDbEntity
  8
0
  6
ByLayer
 62
  256
370
   -1
100
AcDbCircle
 10
155.425
 20
-36.3625
 40
0.5
100
AcDbArc
 50
90
 51
180
  0
ARC
  5
18D
100
AcDbEntity
  8
0
  6
ByLayer
 62
  256
370
   -1
100
AcDbCircle
 10
168.425
 20
-36.3625
 40
0.5
100
AcDbArc
 50
0
 51
90
  0
ARC
  5
18E
100
AcDbEntity
  8
0
  6
ByLayer
 62
  256
370
   -1
100
AcDbCircle
 10
155.425
 20
-49.3625
 40
0.5
100
AcDbArc
 50
180
 51
270
  0
ARC
  5
18F
100
AcDbEntity
  8
0
  6
ByLayer
 62
  256
370
   -1
100
AcDbCircle
 10
168.425
 20
-49.3625
 40
0.5
100
AcDbArc
 50
270
 51
0
  0
LINE
  5
190
100
AcDbEntity
  8
0
  6
ByLayer
 62
  256
370
   -1
100
AcDbLine
 10
174.475
 20
-35.8625
 11
187.475
 21
-35.8625
  0
LINE
  5
191
100
AcDbEntity
  8
0
  6
ByLayer
 62
  256
370
   -1
100
AcDbLine
 10
174.475
 20
-49.8625
 11
187.475
 21
-49.8625
  0
LINE
  5
192
100
AcDbEntity
  8
0
  6
ByLayer
 62
  256
370
   -1
100
AcDbLine
 10
173.975
 20
-36.3625
 11
173.975
 21
-49.3625
  0
LINE
  5
193
100
AcDbEntity
  8
0
  6
ByLayer
 62
  256
370
   -1
100
AcDbLine
 10
187.975
 20
-36.3625
 11
187.975
 21
-49.3625
  0
ARC
  5
194
100
AcDbEntity
  8
0
  6
ByLayer
 62
  256
370
   -1
100
AcDbCircle
 10
174.475
 20
-36.3625
 40
0.5
100
AcDbArc
 50
90
 51
180
  0
ARC
  5
195
100
AcDbEntity
  8
0
  6
ByLayer
 62
  256
370
   -1
100
AcDbCircle
 10
187.475
 20
-36.3625
 40
0.5
100
AcDbArc
 50
0
 51
90
  0
ARC
  5
196
100
AcDbEntity
  8
0
  6
ByLayer
 62
  256
370
   -1
100
AcDbCircle
 10
174.475
 20
-49.3625
 40
0.5
100
AcDbArc
 50
180
 51
270
  0
ARC
  5
197
100
AcDbEntity
  8
0
  6
ByLayer
 62
  256
370
   -1
100
AcDbCircle
 10
187.475
 20
-49.3625
 40
0.5
100
AcDbArc
 50
270
 51
0
  0
LINE
  5
198
100
AcDbEntity
  8
0
  6
ByLayer
 62
  256
370
   -1
100
AcDbLine
 10
193.525
 20
-35.8625
 11
206.525
 21
-35.8625
  0
LINE
  5
199
100
AcDbEntity
  8
0
  6
ByLayer
 62
  256
370
   -1
100
AcDbLine
 10
193.525
 20
-49.8625
 11
206.525
 21
-49.8625
  0
LINE
  5
19A
100
AcDbEntity
  8
0
  6
ByLayer
 62
  256
370
   -1
100
AcDbLine
 10
193.025
 20
-36.3625
 11
193.025
 21
-49.3625
  0
LINE
  5
19B
100
AcDbEntity
  8
0
  6
ByLayer
 62
  256
370
   -1
100
AcDbLine
 10
207.025
 20
-36.3625
 11
207.025
 21
-49.3625
  0
ARC
  5
19C
100
AcDbEntity
  8
0
  6
ByLayer
 62
  256
370
   -1
100
AcDbCircle
 10
193.525
 20
-36.3625
 40
0.5
100
AcDbArc
 50
90
 51
180
  0
ARC
  5
19D
100
AcDbEntity
  8
0
  6
ByLayer
 62
  256
370
   -1
100
AcDbCircle
 10
206.525
 20
-36.3625
 40
0.5
100
AcDbArc
 50
0
 51
90
  0
ARC
  5
19E
100
AcDbEntity
  8
0
  6
ByLayer
 62
  256
370
   -1
100
AcDbCircle
 10
193.525
 20
-49.3625
 40
0.5
100
AcDbArc
 50
180
 51
270
  0
ARC
  5
19F
100
AcDbEntity
  8
0
  6
ByLayer
 62
  256
370
   -1
100
AcDbCircle
 10
206.525
 20
-49.3625
 40
0.5
100
AcDbArc
 50
270
 51
0
  0
LINE
  5
1A0
100
AcDbEntity
  8
0
  6
ByLayer
 62
  256
370
   -1
100
AcDbLine
 10
212.575
 20
-35.8625
 11
225.575
 21
-35.8625
  0
LINE
  5
1A1
100
AcDbEntity
  8
0
  6
ByLayer
 62
  256
370
   -1
100
AcDbLine
 10
212.575
 20
-49.8625
 11
225.575
 21
-49.8625
  0
LINE
  5
1A2
100
AcDbEntity
  8
0
  6
ByLayer
 62
  256
370
   -1
100
AcDbLine
 10
212.075
 20
-36.3625
 11
212.075
 21
-49.3625
  0
LINE
  5
1A3
100
AcDbEntity
  8
0
  6
ByLayer
 62
  256
370
   -1
100
AcDbLine
 10
226.075
 20
-36.3625
 11
226.075
 21
-49.3625
  0
ARC
  5
1A4
100
AcDbEntity
  8
0
  6
ByLayer
 62
  256
370
   -1
100
AcDbCircle
 10
212.575
 20
-36.3625
 40
0.5
100
AcDbArc
 50
90
 51
180
  0
ARC
  5
1A5
100
AcDbEntity
  8
0
  6
ByLayer
 62
  256
370
   -1
100
AcDbCircle
 10
225.575
 20
-36.3625
 40
0.5
100
AcDbArc
 50
0
 51
90
  0
ARC
  5
1A6
100
AcDbEntity
  8
0
  6
ByLayer
 62
  256
370
   -1
100
AcDbCircle
 10
212.575
 20
-49.3625
 40
0.5
100
AcDbArc
 50
180
 51
270
  0
ARC
  5
1A7
100
AcDbEntity
  8
0
  6
ByLayer
 62
  256
370
   -1
100
AcDbCircle
 10
225.575
 20
-49.3625
 40
0.5
100
AcDbArc
 50
270
 51
0
  0
LINE
  5
1A8
100
AcDbEntity
  8
0
  6
ByLayer
 62
  256
370
   -1
100
AcDbLine
 10
231.625
 20
-35.8625
 11
244.625
 21
-35.8625
  0
LINE
  5
1A9
100
AcDbEntity
  8
0
  6
ByLayer
 62
  256
370
   -1
100
AcDbLine
 10
231.625
 20
-49.8625
 11
244.625
 21
-49.8625
  0
LINE
  5
1AA
100
AcDbEntity
  8
0
  6
ByLayer
 62
  256
370
   -1
100
AcDbLine
 10
231.125
 20
-36.3625
 11
231.125
 21
-49.3625
  0
LINE
  5
1AB
100
AcDbEntity
  8
0
  6
ByLayer
 62
  256
370
   -1
100
AcDbLine
 10
245.125
 20
-36.3625
 11
245.125
 21
-49.3625
  0
ARC
  5
1AC
100
AcDbEntity
  8
0
  6
ByLayer
 62
  256
370
   -1
100
AcDbCircle
 10
231.625
 20
-36.3625
 40
0.5
100
AcDbArc
 50
90
 51
180
  0
ARC
  5
1AD
100
AcDbEntity
  8
0
  6
ByLayer
 62
  256
370
   -1
100
AcDbCircle
 10
244.625
 20
-36.3625
 40
0.5
100
AcDbArc
 50
0
 51
90
  0
ARC
  5
1AE
100
AcDbEntity
  8
0
  6
ByLayer
 62
  256
370
   -1
100
AcDbCircle
 10
231.625
 20
-49.3625
 40
0.5
100
AcDbArc
 50
180
 51
270
  0
ARC
  5
1AF
100
AcDbEntity
  8
0
  6
ByLayer
 62
  256
370
   -1
100
AcDbCircle
 10
244.625
 20
-49.3625
 40
0.5
100
AcDbArc
 50
270
 51
0
  0
LINE
  5
1B0
100
AcDbEntity
  8
0
  6
ByLayer
 62
  256
370
   -1
100
AcDbLine
 10
255.4375
 20
-35.8625
 11
268.4375
 21
-35.8625
  0
LINE
  5
1B1
100
AcDbEntity
  8
0
  6
ByLayer
 62
  256
370
   -1
100
AcDbLine
 10
255.4375
 20
-49.8625
 11
268.4375
 21
-49.8625
  0
LINE
  5
1B2
100
AcDbEntity
  8
0
  6
ByLayer
 62
  256
370
   -1
100
AcDbLine
 10
254.9375
 20
-36.3625
 11
254.9375
 21
-49.3625
  0
LINE
  5
1B3
100
AcDbEntity
  8
0
  6
ByLayer
 62
  256
370
   -1
100
AcDbLine
 10
268.9375
 20
-36.3625
 11
268.9375
 21
-49.3625
  0
ARC
  5
1B4
100
AcDbEntity
  8
0
  6
ByLayer
 62
  256
370
   -1
100
AcDbCircle
 10
255.4375
 20
-36.3625
 40
0.5
100
AcDbArc
 50
90
 51
180
  0
ARC
  5
1B5
100
AcDbEntity
  8
0
  6
ByLayer
 62
  256
370
   -1
100
AcDbCircle
 10
268.4375
 20
-36.3625
 40
0.5
100
AcDbArc
 50
0
 51
90
  0
ARC
  5
1B6
100
AcDbEntity
  8
0
  6
ByLayer
 62
  256
370
   -1
100
AcDbCircle
 10
255.4375
 20
-49.3625
 40
0.5
100
AcDbArc
 50
180
 51
270
  0
ARC
  5
1B7
100
AcDbEntity
  8
0
  6
ByLayer
 62
  256
370
   -1
100
AcDbCircle
 10
268.4375
 20
-49.3625
 40
0.5
100
AcDbArc
 50
270
 51
0
  0
LINE
  5
1B8
100
AcDbEntity
  8
0
  6
ByLayer
 62
  256
370
   -1
100
AcDbLine
 10
250.4375
 20
-35.8625
 11
251.9375
 21
-35.8625
  0
LINE
  5
1B9
100
AcDbEntity
  8
0
  6
ByLayer
 62
  256
370
   -1
100
AcDbLine
 10
250.4375
 20
-49.8625
 11
251.9375
 21
-49.8625
  0
LINE
  5
1BA
100
AcDbEntity
  8
0
  6
ByLayer
 62
  256
370
   -1
100
AcDbLine
 10
250.4375
 20
-35.8625
 11
250.4375
 21
-49.8625
  0
LINE
  5
1BB
100
AcDbEntity
  8
0
  6
ByLayer
 62
  256
370
   -1
100
AcDbLine
 10
251.9375
 20
-35.8625
 11
251.9375
 21
-49.8625
  0
LINE
  5
1BC
100
AcDbEntity
  8
0
  6
ByLayer
 62
  256
370
   -1
100
AcDbLine
 10
271.9375
 20
-35.8625
 11
273.4375
 21
-35.8625
  0
LINE
  5
1BD
100
AcDbEntity
  8
0
  6
ByLayer
 62
  256
370
   -1
100
AcDbLine
 10
271.9375
 20
-49.8625
 11
273.4375
 21
-49.8625
  0
LINE
  5
1BE
100
AcDbEntity
  8
0
  6
ByLayer
 62
  256
370
   -1
100
AcDbLine
 10
271.9375
 20
-35.8625
 11
271.9375
 21
-49.8625
  0
LINE
  5
1BF
100
AcDbEntity
  8
0
  6
ByLayer
 62
  256
370
   -1
100
AcDbLine
 10
273.4375
 20
-35.8625
 11
273.4375
 21
-49.8625
  0
LINE
  5
1C0
100
AcDbEntity
  8
0
  6
ByLayer
 62
  256
370
   -1
100
AcDbLine
 10
288.775
 20
-35.8625
 11
301.775
 21
-35.8625
  0
LINE
  5
1C1
100
AcDbEntity
  8
0
  6
ByLayer
 62
  256
370
   -1
100
AcDbLine
 10
288.775
 20
-49.8625
 11
301.775
 21
-49.8625
  0
LINE
  5
1C2
100
AcDbEntity
  8
0
  6
ByLayer
 62
  256
370
   -1
100
AcDbLine
 10
288.275
 20
-36.3625
 11
288.275
 21
-49.3625
  0
LINE
  5
1C3
100
AcDbEntity
  8
0
  6
ByLayer
 62
  256
370
   -1
100
AcDbLine
 10
302.275
 20
-36.3625
 11
302.275
 21
-49.3625
  0
ARC
  5
1C4
100
AcDbEntity
  8
0
  6
ByLayer
 62
  256
370
   -1
100
AcDbCircle
 10
288.775
 20
-36.3625
 40
0.5
100
AcDbArc
 50
90
 51
180
  0
ARC
  5
1C5
100
AcDbEntity
  8
0
  6
ByLayer
 62
  256
370
   -1
100
AcDbCircle
 10
301.775
 20
-36.3625
 40
0.5
100
AcDbArc
 50
0
 51
90
  0
ARC
  5
1C6
100
AcDbEntity
  8
0
  6
ByLayer
 62
  256
370
   -1
100
AcDbCircle
 10
288.775
 20
-49.3625
 40
0.5
100
AcDbArc
 50
180
 51
270
  0
ARC
  5
1C7
100
AcDbEntity
  8
0
  6
ByLayer
 62
  256
370
   -1
100
AcDbCircle
 10
301.775
 20
-49.3625
 40
0.5
100
AcDbArc
 50
270
 51
0
  0
LINE
  5
1C8
100
AcDbEntity
  8
0
  6
ByLayer
 62
  256
370
   -1
100
AcDbLine
 10
0.6437499999999989
 20
-54.9125
 11
13.64375
 21
-54.9125
  0
LINE
  5
1C9
100
AcDbEntity
  8
0
  6
ByLayer
 62
  256
370
   -1
100
AcDbLine
 10
0.6437499999999989
 20
-68.91249999999999
 11
13.64375
 21
-68.91249999999999
  0
LINE
  5
1CA
100
AcDbEntity
  8
0
  6
ByLayer
 62
  256
370
   -1
100
AcDbLine
 10
0.1437499999999989
 20
-55.4125
 11
0.1437499999999989
 21
-68.41249999999999
  0
LINE
  5
1CB
100
AcDbEntity
  8
0
  6
ByLayer
 62
  256
370
   -1
100
AcDbLine
 10
14.14375
 20
-55.4125
 11
14.14375
 21
-68.41249999999999
  0
ARC
  5
1CC
100
AcDbEntity
  8
0
  6
ByLayer
 62
  256
370
   -1
100
AcDbCircle
 10
0.6437499999999989
 20
-55.4125
 40
0.5
100
AcDbArc
 50
90
 51
180
  0
ARC
  5
1CD
100
AcDbEntity
  8
0
  6
ByLayer
 62
  256
370
   -1
100
AcDbCircle
 10
13.64375
 20
-55.4125
 40
0.5
100
AcDbArc
 50
0
 51
90
  0
ARC
  5
1CE
100
AcDbEntity
  8
0
  6
ByLayer
 62
  256
370
   -1
100
AcDbCircle
 10
0.6437499999999989
 20
-68.41249999999999
 40
0.5
100
AcDbArc
 50
180
 51
270
  0
ARC
  5
1CF
100
AcDbEntity
  8
0
  6
ByLayer
 62
  256
370
   -1
100
AcDbCircle
 10
13.64375
 20
-68.41249999999999
 40
0.5
100
AcDbArc
 50
270
 51
0
  0
LINE
  5
1D0
100
AcDbEntity
  8
0
  6
ByLayer
 62
  256
370
   -1
100
AcDbLine
 10
-4.35625
 20
-54.9125
 11
-2.85625
 21
-54.9125
  0
LINE
  5
1D1
100
AcDbEntity
  8
0
  6
ByLayer
 62
  256
370
   -1
100
AcDbLine
 10
-4.35625
 20
-68.91249999999999
 11
-2.85625
 21
-68.91249999999999
  0
LINE
  5
1D2
100
AcDbEntity
  8
0
  6
ByLayer
 62
  256
370
   -1
100
AcDbLine
 10
-4.35625
 20
-54.9125
 11
-4.35625
 21
-68.91249999999999
  0
LINE
  5
1D3
100
AcDbEntity
  8
0
  6
ByLayer
 62
  256
370
   -1
100
AcDbLine
 10
-2.85625
 20
-54.9125
 11
-2.85625
 21
-68.91249999999999
  0
LINE
  5
1D4
100
AcDbEntity
  8
0
  6
ByLayer
 62
  256
370
   -1
100
AcDbLine
 10
17.14375
 20
-54.9125
 11
18.64375
 21
-54.9125
  0
LINE
  5
1D5
100
AcDbEntity
  8
0
  6
ByLayer
 62
  256
370
   -1
100
AcDbLine
 10
17.14375
 20
-68.91249999999999
 11
18.64375
 21
-68.91249999999999
  0
LINE
  5
1D6
100
AcDbEntity
  8
0
  6
ByLayer
 62
  256
370
   -1
100
AcDbLine
 10
17.14375
 20
-54.9125
 11
17.14375
 21
-68.91249999999999
  0
LINE
  5
1D7
100
AcDbEntity
  8
0
  6
ByLayer
 62
  256
370
   -1
100
AcDbLine
 10
18.64375
 20
-54.9125
 11
18.64375
 21
-68.91249999999999
  0
LINE
  5
1D8
100
AcDbEntity
  8
0
  6
ByLayer
 62
  256
370
   -1
100
AcDbLine
 10
26.8375
 20
-54.9125
 11
39.8375
 21
-54.9125
  0
LINE
  5
1D9
100
AcDbEntity
  8
0
  6
ByLayer
 62
  256
370
   -1
100
AcDbLine
 10
26.8375
 20
-68.91249999999999
 11
39.8375
 21
-68.91249999999999
  0
LINE
  5
1DA
100
AcDbEntity
  8
0
  6
ByLayer
 62
  256
370
   -1
100
AcDbLine
 10
26.3375
 20
-55.4125
 11
26.3375
 21
-68.41249999999999
  0
LINE
  5
1DB
100
AcDbEntity
  8
0
  6
ByLayer
 62
  256
370
   -1
100
AcDbLine
 10
40.3375
 20
-55.4125
 11
40.3375
 21
-68.41249999999999
  0
ARC
  5
1DC
100
AcDbEntity
  8
0
  6
ByLayer
 62
  256
370
   -1
100
AcDbCircle
 10
26.8375
 20
-55.4125
 40
0.5
100
AcDbArc
 50
90
 51
180
  0
ARC
  5
1DD
100
AcDbEntity
  8
0
  6
ByLayer
 62
  256
370
   -1
100
AcDbCircle
 10
39.8375
 20
-55.4125
 40
0.5
100
AcDbArc
 50
0
 51
90
  0
ARC
  5
1DE
100
AcDbEntity
  8
0
  6
ByLayer
 62
  256
370
   -1
100
AcDbCircle
 10
26.8375
 20
-68.41249999999999
 40
0.5
100
AcDbArc
 50
180
 51
270
  0
ARC
  5
1DF
100
AcDbEntity
  8
0
  6
ByLayer
 62
  256
370
   -1
100
AcDbCircle
 10
39.8375
 20
-68.41249999999999
 40
0.5
100
AcDbArc
 50
270
 51
0
  0
LINE
  5
1E0
100
AcDbEntity
  8
0
  6
ByLayer
 62
  256
370
   -1
100
AcDbLine
 10
45.8875
 20
-54.9125
 11
58.8875
 21
-54.9125
  0
LINE
  5
1E1
100
AcDbEntity
  8
0
  6
ByLayer
 62
  256
370
   -1
100
AcDbLine
 10
45.8875
 20
-68.91249999999999
 11
58.8875
 21
-68.91249999999999
  0
LINE
  5
1E2
100
AcDbEntity
  8
0
  6
ByLayer
 62
  256
370
   -1
100
AcDbLine
 10
45.3875
 20
-55.4125
 11
45.3875
 21
-68.41249999999999
  0
LINE
  5
1E3
100
AcDbEntity
  8
0
  6
ByLayer
 62
  256
370
   -1
100
AcDbLine
 10
59.3875
 20
-55.4125
 11
59.3875
 21
-68.41249999999999
  0
ARC
  5
1E4
100
AcDbEntity
  8
0
  6
ByLayer
 62
  256
370
   -1
100
AcDbCircle
 10
45.8875
 20
-55.4125
 40
0.5
100
AcDbArc
 50
90
 51
180
  0
ARC
  5
1E5
100
AcDbEntity
  8
0
  6
ByLayer
 62
  256
370
   -1
100
AcDbCircle
 10
58.8875
 20
-55.4125
 40
0.5
100
AcDbArc
 50
0
 51
90
  0
ARC
  5
1E6
100
AcDbEntity
  8
0
  6
ByLayer
 62
  256
370
   -1
100
AcDbCircle
 10
45.8875
 20
-68.41249999999999
 40
0.5
100
AcDbArc
 50
180
 51
270
  0
ARC
  5
1E7
100
AcDbEntity
  8
0
  6
ByLayer
 62
  256
370
   -1
100
AcDbCircle
 10
58.8875
 20
-68.41249999999999
 40
0.5
100
AcDbArc
 50
270
 51
0
  0
LINE
  5
1E8
100
AcDbEntity
  8
0
  6
ByLayer
 62
  256
370
   -1
100
AcDbLine
 10
64.9375
 20
-54.9125
 11
77.9375
 21
-54.9125
  0
LINE
  5
1E9
100
AcDbEntity
  8
0
  6
ByLayer
 62
  256
370
   -1
100
AcDbLine
 10
64.9375
 20
-68.91249999999999
 11
77.9375
 21
-68.91249999999999
  0
LINE
  5
1EA
100
AcDbEntity
  8
0
  6
ByLayer
 62
  256
370
   -1
100
AcDbLine
 10
64.4375
 20
-55.4125
 11
64.4375
 21
-68.41249999999999
  0
LINE
  5
1EB
100
AcDbEntity
  8
0
  6
ByLayer
 62
  256
370
   -1
100
AcDbLine
 10
78.4375
 20
-55.4125
 11
78.4375
 21
-68.41249999999999
  0
ARC
  5
1EC
100
AcDbEntity
  8
0
  6
ByLayer
 62
  256
370
   -1
100
AcDbCircle
 10
64.9375
 20
-55.4125
 40
0.5
100
AcDbArc
 50
90
 51
180
  0
ARC
  5
1ED
100
AcDbEntity
  8
0
  6
ByLayer
 62
  256
370
   -1
100
AcDbCircle
 10
77.9375
 20
-55.4125
 40
0.5
100
AcDbArc
 50
0
 51
90
  0
ARC
  5
1EE
100
AcDbEntity
  8
0
  6
ByLayer
 62
  256
370
   -1
100
AcDbCircle
 10
64.9375
 20
-68.41249999999999
 40
0.5
100
AcDbArc
 50
180
 51
270
  0
ARC
  5
1EF
100
AcDbEntity
  8
0
  6
ByLayer
 62
  256
370
   -1
100
AcDbCircle
 10
77.9375
 20
-68.41249999999999
 40
0.5
100
AcDbArc
 50
270
 51
0
  0
LINE
  5
1F0
100
AcDbEntity
  8
0
  6
ByLayer
 62
  256
370
   -1
100
AcDbLine
 10
83.9875
 20
-54.9125
 11
96.9875
 21
-54.9125
  0
LINE
  5
1F1
100
AcDbEntity
  8
0
  6
ByLayer
 62
  256
370
   -1
100
AcDbLine
 10
83.9875
 20
-68.91249999999999
 11
96.9875
 21
-68.91249999999999
  0
LINE
  5
1F2
100
AcDbEntity
  8
0
  6
ByLayer
 62
  256
370
   -1
100
AcDbLine
 10
83.4875
 20
-55.4125
 11
83.4875
 21
-68.41249999999999
  0
LINE
  5
1F3
100
AcDbEntity
  8
0
  6
ByLayer
 62
  256
370
   -1
100
AcDbLine
 10
97.4875
 20
-55.4125
 11
97.4875
 21
-68.41249999999999
  0
ARC
  5
1F4
100
AcDbEntity
  8
0
  6
ByLayer
 62
  256
370
   -1
100
AcDbCircle
 10
83.9875
 20
-55.4125
 40
0.5
100
AcDbArc
 50
90
 51
180
  0
ARC
  5
1F5
100
AcDbEntity
  8
0
  6
ByLayer
 62
  256
370
   -1
100
AcDbCircle
 10
96.9875
 20
-55.4125
 40
0.5
100
AcDbArc
 50
0
 51
90
  0
ARC
  5
1F6
100
AcDbEntity
  8
0
  6
ByLayer
 62
  256
370
   -1
100
AcDbCircle
 10
83.9875
 20
-68.41249999999999
 40
0.5
100
AcDbArc
 50
180
 51
270
  0
ARC
  5
1F7
100
AcDbEntity
  8
0
  6
ByLayer
 62
  256
370
   -1
100
AcDbCircle
 10
96.9875
 20
-68.41249999999999
 40
0.5
100
AcDbArc
 50
270
 51
0
  0
LINE
  5
1F8
100
AcDbEntity
  8
0
  6
ByLayer
 62
  256
370
   -1
100
AcDbLine
 10
103.0375
 20
-54.9125
 11
116.0375
 21
-54.9125
  0
LINE
  5
1F9
100
AcDbEntity
  8
0
  6
ByLayer
 62
  256
370
   -1
100
AcDbLine
 10
103.0375
 20
-68.91249999999999
 11
116.0375
 21
-68.91249999999999
  0
LINE
  5
1FA
100
AcDbEntity
  8
0
  6
ByLayer
 62
  256
370
   -1
100
AcDbLine
 10
102.5375
 20
-55.4125
 11
102.5375
 21
-68.41249999999999
  0
LINE
  5
1FB
100
AcDbEntity
  8
0
  6
ByLayer
 62
  256
370
   -1
100
AcDbLine
 10
116.5375
 20
-55.4125
 11
116.5375
 21
-68.41249999999999
  0
ARC
  5
1FC
100
AcDbEntity
  8
0
  6
ByLayer
 62
  256
370
   -1
100
AcDbCircle
 10
103.0375
 20
-55.4125
 40
0.5
100
AcDbArc
 50
90
 51
180
  0
ARC
  5
1FD
100
AcDbEntity
  8
0
  6
ByLayer
 62
  256
370
   -1
100
AcDbCircle
 10
116.0375
 20
-55.4125
 40
0.5
100
AcDbArc
 50
0
 51
90
  0
ARC
  5
1FE
100
AcDbEntity
  8
0
  6
ByLayer
 62
  256
370
   -1
100
AcDbCircle
 10
103.0375
 20
-68.41249999999999
 40
0.5
100
AcDbArc
 50
180
 51
270
  0
ARC
  5
1FF
100
AcDbEntity
  8
0
  6
ByLayer
 62
  256
370
   -1
100
AcDbCircle
 10
116.0375
 20
-68.41249999999999
 40
0.5
100
AcDbArc
 50
270
 51
0
  0
LINE
  5
200
100
AcDbEntity
  8
0
  6
ByLayer
 62
  256
370
   -1
100
AcDbLine
 10
122.0875
 20
-54.9125
 11
135.0875
 21
-54.9125
  0
LINE
  5
201
100
AcDbEntity
  8
0
  6
ByLayer
 62
  256
370
   -1
100
AcDbLine
 10
122.0875
 20
-68.91249999999999
 11
135.0875
 21
-68.91249999999999
  0
LINE
  5
202
100
AcDbEntity
  8
0
  6
ByLayer
 62
  256
370
   -1
100
AcDbLine
 10
121.5875
 20
-55.4125
 11
121.5875
 21
-68.41249999999999
  0
LINE
  5
203
100
AcDbEntity
  8
0
  6
ByLayer
 62
  256
370
   -1
100
AcDbLine
 10
135.5875
 20
-55.4125
 11
135.5875
 21
-68.41249999999999
  0
ARC
  5
204
100
AcDbEntity
  8
0
  6
ByLayer
 62
  256
370
   -1
100
AcDbCircle
 10
122.0875
 20
-55.4125
 40
0.5
100
AcDbArc
 50
90
 51
180
  0
ARC
  5
205
100
AcDbEntity
  8
0
  6
ByLayer
 62
  256
370
   -1
100
AcDbCircle
 10
135.0875
 20
-55.4125
 40
0.5
100
AcDbArc
 50
0
 51
90
  0
ARC
  5
206
100
AcDbEntity
  8
0
  6
ByLayer
 62
  256
370
   -1
100
AcDbCircle
 10
122.0875
 20
-68.41249999999999
 40
0.5
100
AcDbArc
 50
180
 51
270
  0
ARC
  5
207
100
AcDbEntity
  8
0
  6
ByLayer
 62
  256
370
   -1
100
AcDbCircle
 10
135.0875
 20
-68.41249999999999
 40
0.5
100
AcDbArc
 50
270
 51
0
  0
LINE
  5
208
100
AcDbEntity
  8
0
  6
ByLayer
 62
  256
370
   -1
100
AcDbLine
 10
141.1375
 20
-54.9125
 11
154.1375
 21
-54.9125
  0
LINE
  5
209
100
AcDbEntity
  8
0
  6
ByLayer
 62
  256
370
   -1
100
AcDbLine
 10
141.1375
 20
-68.91249999999999
 11
154.1375
 21
-68.91249999999999
  0
LINE
  5
20A
100
AcDbEntity
  8
0
  6
ByLayer
 62
  256
370
   -1
100
AcDbLine
 10
140.6375
 20
-55.4125
 11
140.6375
 21
-68.41249999999999
  0
LINE
  5
20B
100
AcDbEntity
  8
0
  6
ByLayer
 62
  256
370
   -1
100
AcDbLine
 10
154.6375
 20
-55.4125
 11
154.6375
 21
-68.41249999999999
  0
ARC
  5
20C
100
AcDbEntity
  8
0
  6
ByLayer
 62
  256
370
   -1
100
AcDbCircle
 10
141.1375
 20
-55.4125
 40
0.5
100
AcDbArc
 50
90
 51
180
  0
ARC
  5
20D
100
AcDbEntity
  8
0
  6
ByLayer
 62
  256
370
   -1
100
AcDbCircle
 10
154.1375
 20
-55.4125
 40
0.5
100
AcDbArc
 50
0
 51
90
  0
ARC
  5
20E
100
AcDbEntity
  8
0
  6
ByLayer
 62
  256
370
   -1
100
AcDbCircle
 10
141.1375
 20
-68.41249999999999
 40
0.5
100
AcDbArc
 50
180
 51
270
  0
ARC
  5
20F
100
AcDbEntity
  8
0
  6
ByLayer
 62
  256
370
   -1
100
AcDbCircle
 10
154.1375
 20
-68.41249999999999
 40
0.5
100
AcDbArc
 50
270
 51
0
  0
LINE
  5
210
100
AcDbEntity
  8
0
  6
ByLayer
 62
  256
370
   -1
100
AcDbLine
 10
160.1875
 20
-54.9125
 11
173.1875
 21
-54.9125
  0
LINE
  5
211
100
AcDbEntity
  8
0
  6
ByLayer
 62
  256
370
   -1
100
AcDbLine
 10
160.1875
 20
-68.91249999999999
 11
173.1875
 21
-68.91249999999999
  0
LINE
  5
212
100
AcDbEntity
  8
0
  6
ByLayer
 62
  256
370
   -1
100
AcDbLine
 10
159.6875
 20
-55.4125
 11
159.6875
 21
-68.41249999999999
  0
LINE
  5
213
100
AcDbEntity
  8
0
  6
ByLayer
 62
  256
370
   -1
100
AcDbLine
 10
173.6875
 20
-55.4125
 11
173.6875
 21
-68.41249999999999
  0
ARC
  5
214
100
AcDbEntity
  8
0
  6
ByLayer
 62
  256
370
   -1
100
AcDbCircle
 10
160.1875
 20
-55.4125
 40
0.5
100
AcDbArc
 50
90
 51
180
  0
ARC
  5
215
100
AcDbEntity
  8
0
  6
ByLayer
 62
  256
370
   -1
100
AcDbCircle
 10
173.1875
 20
-55.4125
 40
0.5
100
AcDbArc
 50
0
 51
90
  0
ARC
  5
216
100
AcDbEntity
  8
0
  6
ByLayer
 62
  256
370
   -1
100
AcDbCircle
 10
160.1875
 20
-68.41249999999999
 40
0.5
100
AcDbArc
 50
180
 51
270
  0
ARC
  5
217
100
AcDbEntity
  8
0
  6
ByLayer
 62
  256
370
   -1
100
AcDbCircle
 10
173.1875
 20
-68.41249999999999
 40
0.5
100
AcDbArc
 50
270
 51
0
  0
LINE
  5
218
100
AcDbEntity
  8
0
  6
ByLayer
 62
  256
370
   -1
100
AcDbLine
 10
179.2375
 20
-54.9125
 11
192.2375
 21
-54.9125
  0
LINE
  5
219
100
AcDbEntity
  8
0
  6
ByLayer
 62
  256
370
   -1
100
AcDbLine
 10
179.2375
 20
-68.91249999999999
 11
192.2375
 21
-68.91249999999999
  0
LINE
  5
21A
100
AcDbEntity
  8
0
  6
ByLayer
 62
  256
370
   -1
100
AcDbLine
 10
178.7375
 20
-55.4125
 11
178.7375
 21
-68.41249999999999
  0
LINE
  5
21B
100
AcDbEntity
  8
0
  6
ByLayer
 62
  256
370
   -1
100
AcDbLine
 10
192.7375
 20
-55.4125
 11
192.7375
 21
-68.41249999999999
  0
ARC
  5
21C
100
AcDbEntity
  8
0
  6
ByLayer
 62
  256
370
   -1
100
AcDbCircle
 10
179.2375
 20
-55.4125
 40
0.5
100
AcDbArc
 50
90
 51
180
  0
ARC
  5
21D
100
AcDbEntity
  8
0
  6
ByLayer
 62
  256
370
   -1
100
AcDbCircle
 10
192.2375
 20
-55.4125
 40
0.5
100
AcDbArc
 50
0
 51
90
  0
ARC
  5
21E
100
AcDbEntity
  8
0
  6
ByLayer
 62
  256
370
   -1
100
AcDbCircle
 10
179.2375
 20
-68.41249999999999
 40
0.5
100
AcDbArc
 50
180
 51
270
  0
ARC
  5
21F
100
AcDbEntity
  8
0
  6
ByLayer
 62
  256
370
   -1
100
AcDbCircle
 10
192.2375
 20
-68.41249999999999
 40
0.5
100
AcDbArc
 50
270
 51
0
  0
LINE
  5
220
100
AcDbEntity
  8
0
  6
ByLayer
 62
  256
370
   -1
100
AcDbLine
 10
198.2875
 20
-54.9125
 11
211.2875
 21
-54.9125
  0
LINE
  5
221
100
AcDbEntity
  8
0
  6
ByLayer
 62
  256
370
   -1
100
AcDbLine
 10
198.2875
 20
-68.91249999999999
 11
211.2875
 21
-68.91249999999999
  0
LINE
  5
222
100
AcDbEntity
  8
0
  6
ByLayer
 62
  256
370
   -1
100
AcDbLine
 10
197.7875
 20
-55.4125
 11
197.7875
 21
-68.41249999999999
  0
LINE
  5
223
100
AcDbEntity
  8
0
  6
ByLayer
 62
  256
370
   -1
100
AcDbLine
 10
211.7875
 20
-55.4125
 11
211.7875
 21
-68.41249999999999
  0
ARC
  5
224
100
AcDbEntity
  8
0
  6
ByLayer
 62
  256
370
   -1
100
AcDbCircle
 10
198.2875
 20
-55.4125
 40
0.5
100
AcDbArc
 50
90
 51
180
  0
ARC
  5
225
100
AcDbEntity
  8
0
  6
ByLayer
 62
  256
370
   -1
100
AcDbCircle
 10
211.2875
 20
-55.4125
 40
0.5
100
AcDbArc
 50
0
 51
90
  0
ARC
  5
226
100
AcDbEntity
  8
0
  6
ByLayer
 62
  256
370
   -1
100
AcDbCircle
 10
198.2875
 20
-68.41249999999999
 40
0.5
100
AcDbArc
 50
180
 51
270
  0
ARC
  5
227
100
AcDbEntity
  8
0
  6
ByLayer
 62
  256
370
   -1
100
AcDbCircle
 10
211.2875
 20
-68.41249999999999
 40
0.5
100
AcDbArc
 50
270
 51
0
  0
LINE
  5
228
100
AcDbEntity
  8
0
  6
ByLayer
 62
  256
370
   -1
100
AcDbLine
 10
217.3375
 20
-54.9125
 11
230.3375
 21
-54.9125
  0
LINE
  5
229
100
AcDbEntity
  8
0
  6
ByLayer
 62
  256
370
   -1
100
AcDbLine
 10
217.3375
 20
-68.91249999999999
 11
230.3375
 21
-68.91249999999999
  0
LINE
  5
22A
100
AcDbEntity
  8
0
  6
ByLayer
 62
  256
370
   -1
100
AcDbLine
 10
216.8375
 20
-55.4125
 11
216.8375
 21
-68.41249999999999
  0
LINE
  5
22B
100
AcDbEntity
  8
0
  6
ByLayer
 62
  256
370
   -1
100
AcDbLine
 10
230.8375
 20
-55.4125
 11
230.8375
 21
-68.41249999999999
  0
ARC
  5
22C
100
AcDbEntity
  8
0
  6
ByLayer
 62
  256
370
   -1
100
AcDbCircle
 10
217.3375
 20
-55.4125
 40
0.5
100
AcDbArc
 50
90
 51
180
  0
ARC
  5
22D
100
AcDbEntity
  8
0
  6
ByLayer
 62
  256
370
   -1
100
AcDbCircle
 10
230.3375
 20
-55.4125
 40
0.5
100
AcDbArc
 50
0
 51
90
  0
ARC
  5
22E
100
AcDbEntity
  8
0
  6
ByLayer
 62
  256
370
   -1
100
AcDbCircle
 10
217.3375
 20
-68.41249999999999
 40
0.5
100
AcDbArc
 50
180
 51
270
  0
ARC
  5
22F
100
AcDbEntity
  8
0
  6
ByLayer
 62
  256
370
   -1
100
AcDbCircle
 10
230.3375
 20
-68.41249999999999
 40
0.5
100
AcDbArc
 50
270
 51
0
  0
LINE
  5
230
100
AcDbEntity
  8
0
  6
ByLayer
 62
  256
370
   -1
100
AcDbLine
 10
248.29375
 20
-54.9125
 11
261.29375
 21
-54.9125
  0
LINE
  5
231
100
AcDbEntity
  8
0
  6
ByLayer
 62
  256
370
   -1
100
AcDbLine
 10
248.29375
 20
-68.91249999999999
 11
261.29375
 21
-68.91249999999999
  0
ARC
  5
232
100
AcDbEntity
  8
0
  6
ByLayer
 62
  256
370
   -1
100
AcDbCircle
 10
248.29375
 20
-55.4125
 40
0.5
100
AcDbArc
 50
90
 51
180
  0
ARC
  5
233
100
AcDbEntity
  8
0
  6
ByLayer
 62
  256
370
   -1
100
AcDbCircle
 10
261.29375
 20
-55.4125
 40
0.5
100
AcDbArc
 50
0
 51
90
  0
ARC
  5
234
100
AcDbEntity
  8
0
  6
ByLayer
 62
  256
370
   -1
100
AcDbCircle
 10
248.29375
 20
-68.41249999999999
 40
0.5
100
AcDbArc
 50
180
 51
270
  0
ARC
  5
235
100
AcDbEntity
  8
0
  6
ByLayer
 62
  256
370
   -1
100
AcDbCircle
 10
261.29375
 20
-68.41249999999999
 40
0.5
100
AcDbArc
 50
270
 51
0
  0
LINE
  5
236
100
AcDbEntity
  8
0
  6
ByLayer
 62
  256
370
   -1
100
AcDbLine
 10
239.52835
 20
-56.2229
 11
246.18315
 21
-56.2229
  0
LINE
  5
237
100
AcDbEntity
  8
0
  6
ByLayer
 62
  256
370
   -1
100
AcDbLine
 10
246.18315
 20
-56.2229
 11
246.18315
 21
-57.0357
  0
LINE
  5
238
100
AcDbEntity
  8
0
  6
ByLayer
 62
  256
370
   -1
100
AcDbLine
 10
246.18315
 20
-67.72909999999999
 11
246.18315
 21
-68.51649999999999
  0
LINE
  5
239
100
AcDbEntity
  8
0
  6
ByLayer
 62
  256
370
   -1
100
AcDbLine
 10
246.18315
 20
-68.51649999999999
 11
244.37975
 21
-68.51649999999999
  0
LINE
  5
23A
100
AcDbEntity
  8
0
  6
ByLayer
 62
  256
370
   -1
100
AcDbLine
 10
244.37975
 20
-68.51649999999999
 11
244.37975
 21
-69.6849
  0
LINE
  5
23B
100
AcDbEntity
  8
0
  6
ByLayer
 62
  256
370
   -1
100
AcDbLine
 10
244.37975
 20
-69.6849
 11
241.33175
 21
-69.6849
  0
LINE
  5
23C
100
AcDbEntity
  8
0
  6
ByLayer
 62
  256
370
   -1
100
AcDbLine
 10
241.33175
 20
-69.6849
 11
241.33175
 21
-68.51649999999999
  0
LINE
  5
23D
100
AcDbEntity
  8
0
  6
ByLayer
 62
  256
370
   -1
100
AcDbLine
 10
241.33175
 20
-68.51649999999999
 11
239.52835
 21
-68.51649999999999
  0
LINE
  5
23E
100
AcDbEntity
  8
0
  6
ByLayer
 62
  256
370
   -1
100
AcDbLine
 10
239.52835
 20
-68.51649999999999
 11
239.52835
 21
-62.4205
  0
LINE
  5
23F
100
AcDbEntity
  8
0
  6
ByLayer
 62
  256
370
   -1
100
AcDbLine
 10
239.52835
 20
-62.4205
 11
238.66475
 21
-62.4205
  0
LINE
  5
240
100
AcDbEntity
  8
0
  6
ByLayer
 62
  256
370
   -1
100
AcDbLine
 10
238.66475
 20
-62.4205
 11
238.66475
 21
-59.6265
  0
LINE
  5
241
100
AcDbEntity
  8
0
  6
ByLayer
 62
  256
370
   -1
100
AcDbLine
 10
238.66475
 20
-59.6265
 11
239.52835
 21
-59.6265
  0
LINE
  5
242
100
AcDbEntity
  8
0
  6
ByLayer
 62
  256
370
   -1
100
AcDbLine
 10
239.52835
 20
-59.6265
 11
239.52835
 21
-56.2229
  0
LINE
  5
243
100
AcDbEntity
  8
0
  6
ByLayer
 62
  256
370
   -1
100
AcDbLine
 10
270.05915
 20
-56.2229
 11
263.40435
 21
-56.2229
  0
LINE
  5
244
100
AcDbEntity
  8
0
  6
ByLayer
 62
  256
370
   -1
100
AcDbLine
 10
263.40435
 20
-56.2229
 11
263.40435
 21
-57.0357
  0
LINE
  5
245
100
AcDbEntity
  8
0
  6
ByLayer
 62
  256
370
   -1
100
AcDbLine
 10
263.40435
 20
-67.72909999999999
 11
263.40435
 21
-68.51649999999999
  0
LINE
  5
246
100
AcDbEntity
  8
0
  6
ByLayer
 62
  256
370
   -1
100
AcDbLine
 10
263.40435
 20
-68.51649999999999
 11
265.20775
 21
-68.51649999999999
  0
LINE
  5
247
100
AcDbEntity
  8
0
  6
ByLayer
 62
  256
370
   -1
100
AcDbLine
 10
265.20775
 20
-68.51649999999999
 11
265.20775
 21
-69.6849
  0
LINE
  5
248
100
AcDbEntity
  8
0
  6
ByLayer
 62
  256
370
   -1
100
AcDbLine
 10
265.20775
 20
-69.6849
 11
268.25575
 21
-69.6849
  0
LINE
  5
249
100
AcDbEntity
  8
0
  6
ByLayer
 62
  256
370
   -1
100
AcDbLine
 10
268.25575
 20
-69.6849
 11
268.25575
 21
-68.51649999999999
  0
LINE
  5
24A
100
AcDbEntity
  8
0
  6
ByLayer
 62
  256
370
   -1
100
AcDbLine
 10
268.25575
 20
-68.51649999999999
 11
270.05915
 21
-68.51649999999999
  0
LINE
  5
24B
100
AcDbEntity
  8
0
  6
ByLayer
 62
  256
370
   -1
100
AcDbLine
 10
270.05915
 20
-68.51649999999999
 11
270.05915
 21
-62.4205
  0
LINE
  5
24C
100
AcDbEntity
  8
0
  6
ByLayer
 62
  256
370
   -1
100
AcDbLine
 10
270.05915
 20
-62.4205
 11
270.92275
 21
-62.4205
  0
LINE
  5
24D
100
AcDbEntity
  8
0
  6
ByLayer
 62
  256
370
   -1
100
AcDbLine
 10
270.92275
 20
-62.4205
 11
270.92275
 21
-59.6265
  0
LINE
  5
24E
100
AcDbEntity
  8
0
  6
ByLayer
 62
  256
370
   -1
100
AcDbLine
 10
270.92275
 20
-59.6265
 11
270.05915
 21
-59.6265
  0
LINE
  5
24F
100
AcDbEntity
  8
0
  6
ByLayer
 62
  256
370
   -1
100
AcDbLine
 10
270.05915
 20
-59.6265
 11
270.05915
 21
-56.2229
  0
LINE
  5
250
100
AcDbEntity
  8
0
  6
ByLayer
 62
  256
370
   -1
100
AcDbLine
 10
288.775
 20
-54.9125
 11
301.775
 21
-54.9125
  0
LINE
  5
251
100
AcDbEntity
  8
0
  6
ByLayer
 62
  256
370
   -1
100
AcDbLine
 10
288.775
 20
-68.91249999999999
 11
301.775
 21
-68.91249999999999
  0
LINE
  5
252
100
AcDbEntity
  8
0
  6
ByLayer
 62
  256
370
   -1
100
AcDbLine
 10
288.275
 20
-55.4125
 11
288.275
 21
-68.41249999999999
  0
LINE
  5
253
100
AcDbEntity
  8
0
  6
ByLayer
 62
  256
370
   -1
100
AcDbLine
 10
302.275
 20
-55.4125
 11
302.275
 21
-68.41249999999999
  0
ARC
  5
254
100
AcDbEntity
  8
0
  6
ByLayer
 62
  256
370
   -1
100
AcDbCircle
 10
288.775
 20
-55.4125
 40
0.5
100
AcDbArc
 50
90
 51
180
  0
ARC
  5
255
100
AcDbEntity
  8
0
  6
ByLayer
 62
  256
370
   -1
100
AcDbCircle
 10
301.775
 20
-55.4125
 40
0.5
100
AcDbArc
 50
0
 51
90
  0
ARC
  5
256
100
AcDbEntity
  8
0
  6
ByLayer
 62
  256
370
   -1
100
AcDbCircle
 10
288.775
 20
-68.41249999999999
 40
0.5
100
AcDbArc
 50
180
 51
270
  0
ARC
  5
257
100
AcDbEntity
  8
0
  6
ByLayer
 62
  256
370
   -1
100
AcDbCircle
 10
301.775
 20
-68.41249999999999
 40
0.5
100
AcDbArc
 50
270
 51
0
  0
LINE
  5
258
100
AcDbEntity
  8
0
  6
ByLayer
 62
  256
370
   -1
100
AcDbLine
 10
5.40625
 20
-73.96249999999999
 11
18.40625
 21
-73.96249999999999
  0
LINE
  5
259
100
AcDbEntity
  8
0
  6
ByLayer
 62
  256
370
   -1
100
AcDbLine
 10
5.40625
 20
-87.96249999999999
 11
18.40625
 21
-87.96249999999999
  0
ARC
  5
25A
100
AcDbEntity
  8
0
  6
ByLayer
 62
  256
370
   -1
100
AcDbCircle
 10
5.40625
 20
-74.46249999999999
 40
0.5
100
AcDbArc
 50
90
 51
180
  0
ARC
  5
25B
100
AcDbEntity
  8
0
  6
ByLayer
 62
  256
370
   -1
100
AcDbCircle
 10
18.40625
 20
-74.46249999999999
 40
0.5
100
AcDbArc
 50
0
 51
90
  0
ARC
  5
25C
100
AcDbEntity
  8
0
  6
ByLayer
 62
  256
370
   -1
100
AcDbCircle
 10
5.40625
 20
-87.46249999999999
 40
0.5
100
AcDbArc
 50
180
 51
270
  0
ARC
  5
25D
100
AcDbEntity
  8
0
  6
ByLayer
 62
  256
370
   -1
100
AcDbCircle
 10
18.40625
 20
-87.46249999999999
 40
0.5
100
AcDbArc
 50
270
 51
0
  0
LINE
  5
25E
100
AcDbEntity
  8
0
  6
ByLayer
 62
  256
370
   -1
100
AcDbLine
 10
-3.359150000000001
 20
-75.27289999999999
 11
3.29565
 21
-75.27289999999999
  0
LINE
  5
25F
100
AcDbEntity
  8
0
  6
ByLayer
 62
  256
370
   -1
100
AcDbLine
 10
3.29565
 20
-75.27289999999999
 11
3.29565
 21
-76.08569999999999
  0
LINE
  5
260
100
AcDbEntity
  8
0
  6
ByLayer
 62
  256
370
   -1
100
AcDbLine
 10
3.29565
 20
-86.7791
 11
3.29565
 21
-87.56649999999999
  0
LINE
  5
261
100
AcDbEntity
  8
0
  6
ByLayer
 62
  256
370
   -1
100
AcDbLine
 10
3.29565
 20
-87.56649999999999
 11
1.49225
 21
-87.56649999999999
  0
LINE
  5
262
100
AcDbEntity
  8
0
  6
ByLayer
 62
  256
370
   -1
100
AcDbLine
 10
1.49225
 20
-87.56649999999999
 11
1.49225
 21
-88.7349
  0
LINE
  5
263
100
AcDbEntity
  8
0
  6
ByLayer
 62
  256
370
   -1
100
AcDbLine
 10
1.49225
 20
-88.7349
 11
-1.555750000000001
 21
-88.7349
  0
LINE
  5
264
100
AcDbEntity
  8
0
  6
ByLayer
 62
  256
370
   -1
100
AcDbLine
 10
-1.555750000000001
 20
-88.7349
 11
-1.555750000000001
 21
-87.56649999999999
  0
LINE
  5
265
100
AcDbEntity
  8
0
  6
ByLayer
 62
  256
370
   -1
100
AcDbLine
 10
-1.555750000000001
 20
-87.56649999999999
 11
-3.359150000000001
 21
-87.56649999999999
  0
LINE
  5
266
100
AcDbEntity
  8
0
  6
ByLayer
 62
  256
370
   -1
100
AcDbLine
 10
-3.359150000000001
 20
-87.56649999999999
 11
-3.359150000000001
 21
-81.4705
  0
LINE
  5
267
100
AcDbEntity
  8
0
  6
ByLayer
 62
  256
370
   -1
100
AcDbLine
 10
-3.359150000000001
 20
-81.4705
 11
-4.22275
 21
-81.4705
  0
LINE
  5
268
100
AcDbEntity
  8
0
  6
ByLayer
 62
  256
370
   -1
100
AcDbLine
 10
-4.22275
 20
-81.4705
 11
-4.22275
 21
-78.67649999999999
  0
LINE
  5
269
100
AcDbEntity
  8
0
  6
ByLayer
 62
  256
370
   -1
100
AcDbLine
 10
-4.22275
 20
-78.67649999999999
 11
-3.359150000000001
 21
-78.67649999999999
  0
LINE
  5
26A
100
AcDbEntity
  8
0
  6
ByLayer
 62
  256
370
   -1
100
AcDbLine
 10
-3.359150000000001
 20
-78.67649999999999
 11
-3.359150000000001
 21
-75.27289999999999
  0
LINE
  5
26B
100
AcDbEntity
  8
0
  6
ByLayer
 62
  256
370
   -1
100
AcDbLine
 10
27.17165
 20
-75.27289999999999
 11
20.51685
 21
-75.27289999999999
  0
LINE
  5
26C
100
AcDbEntity
  8
0
  6
ByLayer
 62
  256
370
   -1
100
AcDbLine
 10
20.51685
 20
-75.27289999999999
 11
20.51685
 21
-76.08569999999999
  0
LINE
  5
26D
100
AcDbEntity
  8
0
  6
ByLayer
 62
  256
370
   -1
100
AcDbLine
 10
20.51685
 20
-86.7791
 11
20.51685
 21
-87.56649999999999
  0
LINE
  5
26E
100
AcDbEntity
  8
0
  6
ByLayer
 62
  256
370
   -1
100
AcDbLine
 10
20.51685
 20
-87.56649999999999
 11
22.32025
 21
-87.56649999999999
  0
LINE
  5
26F
100
AcDbEntity
  8
0
  6
ByLayer
 62
  256
370
   -1
100
AcDbLine
 10
22.32025
 20
-87.56649999999999
 11
22.32025
 21
-88.7349
  0
LINE
  5
270
100
AcDbEntity
  8
0
  6
ByLayer
 62
  256
370
   -1
100
AcDbLine
 10
22.32025
 20
-88.7349
 11
25.36825
 21
-88.7349
  0
LINE
  5
271
100
AcDbEntity
  8
0
  6
ByLayer
 62
  256
370
   -1
100
AcDbLine
 10
25.36825
 20
-88.7349
 11
25.36825
 21
-87.56649999999999
  0
LINE
  5
272
100
AcDbEntity
  8
0
  6
ByLayer
 62
  256
370
   -1
100
AcDbLine
 10
25.36825
 20
-87.56649999999999
 11
27.17165
 21
-87.56649999999999
  0
LINE
  5
273
100
AcDbEntity
  8
0
  6
ByLayer
 62
  256
370
   -1
100
AcDbLine
 10
27.17165
 20
-87.56649999999999
 11
27.17165
 21
-81.4705
  0
LINE
  5
274
100
AcDbEntity
  8
0
  6
ByLayer
 62
  256
370
   -1
100
AcDbLine
 10
27.17165
 20
-81.4705
 11
28.03525
 21
-81.4705
  0
LINE
  5
275
100
AcDbEntity
  8
0
  6
ByLayer
 62
  256
370
   -1
100
AcDbLine
 10
28.03525
 20
-81.4705
 11
28.03525
 21
-78.67649999999999
  0
LINE
  5
276
100
AcDbEntity
  8
0
  6
ByLayer
 62
  256
370
   -1
100
AcDbLine
 10
28.03525
 20
-78.67649999999999
 11
27.17165
 21
-78.67649999999999
  0
LINE
  5
277
100
AcDbEntity
  8
0
  6
ByLayer
 62
  256
370
   -1
100
AcDbLine
 10
27.17165
 20
-78.67649999999999
 11
27.17165
 21
-75.27289999999999
  0
LINE
  5
278
100
AcDbEntity
  8
0
  6
ByLayer
 62
  256
370
   -1
100
AcDbLine
 10
36.3625
 20
-73.96249999999999
 11
49.3625
 21
-73.96249999999999
  0
LINE
  5
279
100
AcDbEntity
  8
0
  6
ByLayer
 62
  256
370
   -1
100
AcDbLine
 10
36.3625
 20
-87.96249999999999
 11
49.3625
 21
-87.96249999999999
  0
LINE
  5
27A
100
AcDbEntity
  8
0
  6
ByLayer
 62
  256
370
   -1
100
AcDbLine
 10
35.8625
 20
-74.46249999999999
 11
35.8625
 21
-87.46249999999999
  0
LINE
  5
27B
100
AcDbEntity
  8
0
  6
ByLayer
 62
  256
370
   -1
100
AcDbLine
 10
49.8625
 20
-74.46249999999999
 11
49.8625
 21
-87.46249999999999
  0
ARC
  5
27C
100
AcDbEntity
  8
0
  6
ByLayer
 62
  256
370
   -1
100
AcDbCircle
 10
36.3625
 20
-74.46249999999999
 40
0.5
100
AcDbArc
 50
90
 51
180
  0
ARC
  5
27D
100
AcDbEntity
  8
0
  6
ByLayer
 62
  256
370
   -1
100
AcDbCircle
 10
49.3625
 20
-74.46249999999999
 40
0.5
100
AcDbArc
 50
0
 51
90
  0
ARC
  5
27E
100
AcDbEntity
  8
0
  6
ByLayer
 62
  256
370
   -1
100
AcDbCircle
 10
36.3625
 20
-87.46249999999999
 40
0.5
100
AcDbArc
 50
180
 51
270
  0
ARC
  5
27F
100
AcDbEntity
  8
0
  6
ByLayer
 62
  256
370
   -1
100
AcDbCircle
 10
49.3625
 20
-87.46249999999999
 40
0.5
100
AcDbArc
 50
270
 51
0
  0
LINE
  5
280
100
AcDbEntity
  8
0
  6
ByLayer
 62
  256
370
   -1
100
AcDbLine
 10
55.4125
 20
-73.96249999999999
 11
68.41249999999999
 21
-73.96249999999999
  0
LINE
  5
281
100
AcDbEntity
  8
0
  6
ByLayer
 62
  256
370
   -1
100
AcDbLine
 10
55.4125
 20
-87.96249999999999
 11
68.41249999999999
 21
-87.96249999999999
  0
LINE
  5
282
100
AcDbEntity
  8
0
  6
ByLayer
 62
  256
370
   -1
100
AcDbLine
 10
54.9125
 20
-74.46249999999999
 11
54.9125
 21
-87.46249999999999
  0
LINE
  5
283
100
AcDbEntity
  8
0
  6
ByLayer
 62
  256
370
   -1
100
AcDbLine
 10
68.91249999999999
 20
-74.46249999999999
 11
68.91249999999999
 21
-87.46249999999999
  0
ARC
  5
284
100
AcDbEntity
  8
0
  6
ByLayer
 62
  256
370
   -1
100
AcDbCircle
 10
55.4125
 20
-74.46249999999999
 40
0.5
100
AcDbArc
 50
90
 51
180
  0
ARC
  5
285
100
AcDbEntity
  8
0
  6
ByLayer
 62
  256
370
   -1
100
AcDbCircle
 10
68.41249999999999
 20
-74.46249999999999
 40
0.5
100
AcDbArc
 50
0
 51
90
  0
ARC
  5
286
100
AcDbEntity
  8
0
  6
ByLayer
 62
  256
370
   -1
100
AcDbCircle
 10
55.4125
 20
-87.46249999999999
 40
0.5
100
AcDbArc
 50
180
 51
270
  0
ARC
  5
287
100
AcDbEntity
  8
0
  6
ByLayer
 62
  256
370
   -1
100
AcDbCircle
 10
68.41249999999999
 20
-87.46249999999999
 40
0.5
100
AcDbArc
 50
270
 51
0
  0
LINE
  5
288
100
AcDbEntity
  8
0
  6
ByLayer
 62
  256
370
   -1
100
AcDbLine
 10
74.46249999999999
 20
-73.96249999999999
 11
87.46249999999999
 21
-73.96249999999999
  0
LINE
  5
289
100
AcDbEntity
  8
0
  6
ByLayer
 62
  256
370
   -1
100
AcDbLine
 10
74.46249999999999
 20
-87.96249999999999
 11
87.46249999999999
 21
-87.96249999999999
  0
LINE
  5
28A
100
AcDbEntity
  8
0
  6
ByLayer
 62
  256
370
   -1
100
AcDbLine
 10
73.96249999999999
 20
-74.46249999999999
 11
73.96249999999999
 21
-87.46249999999999
  0
LINE
  5
28B
100
AcDbEntity
  8
0
  6
ByLayer
 62
  256
370
   -1
100
AcDbLine
 10
87.96249999999999
 20
-74.46249999999999
 11
87.96249999999999
 21
-87.46249999999999
  0
ARC
  5
28C
100
AcDbEntity
  8
0
  6
ByLayer
 62
  256
370
   -1
100
AcDbCircle
 10
74.46249999999999
 20
-74.46249999999999
 40
0.5
100
AcDbArc
 50
90
 51
180
  0
ARC
  5
28D
100
AcDbEntity
  8
0
  6
ByLayer
 62
  256
370
   -1
100
AcDbCircle
 10
87.46249999999999
 20
-74.46249999999999
 40
0.5
100
AcDbArc
 50
0
 51
90
  0
ARC
  5
28E
100
AcDbEntity
  8
0
  6
ByLayer
 62
  256
370
   -1
100
AcDbCircle
 10
74.46249999999999
 20
-87.46249999999999
 40
0.5
100
AcDbArc
 50
180
 51
270
  0
ARC
  5
28F
100
AcDbEntity
  8
0
  6
ByLayer
 62
  256
370
   -1
100
AcDbCircle
 10
87.46249999999999
 20
-87.46249999999999
 40
0.5
100
AcDbArc
 50
270
 51
0
  0
LINE
  5
290
100
AcDbEntity
  8
0
  6
ByLayer
 62
  256
370
   -1
100
AcDbLine
 10
93.51249999999999
 20
-73.96249999999999
 11
106.5125
 21
-73.96249999999999
  0
LINE
  5
291
100
AcDbEntity
  8
0
  6
ByLayer
 62
  256
370
   -1
100
AcDbLine
 10
93.51249999999999
 20
-87.96249999999999
 11
106.5125
 21
-87.96249999999999
  0
LINE
  5
292
100
AcDbEntity
  8
0
  6
ByLayer
 62
  256
370
   -1
100
AcDbLine
 10
93.01249999999999
 20
-74.46249999999999
 11
93.01249999999999
 21
-87.46249999999999
  0
LINE
  5
293
100
AcDbEntity
  8
0
  6
ByLayer
 62
  256
370
   -1
100
AcDbLine
 10
107.0125
 20
-74.46249999999999
 11
107.0125
 21
-87.46249999999999
  0
ARC
  5
294
100
AcDbEntity
  8
0
  6
ByLayer
 62
  256
370
   -1
100
AcDbCircle
 10
93.51249999999999
 20
-74.46249999999999
 40
0.5
100
AcDbArc
 50
90
 51
180
  0
ARC
  5
295
100
AcDbEntity
  8
0
  6
ByLayer
 62
  256
370
   -1
100
AcDbCircle
 10
106.5125
 20
-74.46249999999999
 40
0.5
100
AcDbArc
 50
0
 51
90
  0
ARC
  5
296
100
AcDbEntity
  8
0
  6
ByLayer
 62
  256
370
   -1
100
AcDbCircle
 10
93.51249999999999
 20
-87.46249999999999
 40
0.5
100
AcDbArc
 50
180
 51
270
  0
ARC
  5
297
100
AcDbEntity
  8
0
  6
ByLayer
 62
  256
370
   -1
100
AcDbCircle
 10
106.5125
 20
-87.46249999999999
 40
0.5
100
AcDbArc
 50
270
 51
0
  0
LINE
  5
298
100
AcDbEntity
  8
0
  6
ByLayer
 62
  256
370
   -1
100
AcDbLine
 10
112.5625
 20
-73.96249999999999
 11
125.5625
 21
-73.96249999999999
  0
LINE
  5
299
100
AcDbEntity
  8
0
  6
ByLayer
 62
  256
370
   -1
100
AcDbLine
 10
112.5625
 20
-87.96249999999999
 11
125.5625
 21
-87.96249999999999
  0
LINE
  5
29A
100
AcDbEntity
  8
0
  6
ByLayer
 62
  256
370
   -1
100
AcDbLine
 10
112.0625
 20
-74.46249999999999
 11
112.0625
 21
-87.46249999999999
  0
LINE
  5
29B
100
AcDbEntity
  8
0
  6
ByLayer
 62
  256
370
   -1
100
AcDbLine
 10
126.0625
 20
-74.46249999999999
 11
126.0625
 21
-87.46249999999999
  0
ARC
  5
29C
100
AcDbEntity
  8
0
  6
ByLayer
 62
  256
370
   -1
100
AcDbCircle
 10
112.5625
 20
-74.46249999999999
 40
0.5
100
AcDbArc
 50
90
 51
180
  0
ARC
  5
29D
100
AcDbEntity
  8
0
  6
ByLayer
 62
  256
370
   -1
100
AcDbCircle
 10
125.5625
 20
-74.46249999999999
 40
0.5
100
AcDbArc
 50
0
 51
90
  0
ARC
  5
29E
100
AcDbEntity
  8
0
  6
ByLayer
 62
  256
370
   -1
100
AcDbCircle
 10
112.5625
 20
-87.46249999999999
 40
0.5
100
AcDbArc
 50
180
 51
270
  0
ARC
  5
29F
100
AcDbEntity
  8
0
  6
ByLayer
 62
  256
370
   -1
100
AcDbCircle
 10
125.5625
 20
-87.46249999999999
 40
0.5
100
AcDbArc
 50
270
 51
0
  0
LINE
  5
2A0
100
AcDbEntity
  8
0
  6
ByLayer
 62
  256
370
   -1
100
AcDbLine
 10
131.6125
 20
-73.96249999999999
 11
144.6125
 21
-73.96249999999999
  0
LINE
  5
2A1
100
AcDbEntity
  8
0
  6
ByLayer
 62
  256
370
   -1
100
AcDbLine
 10
131.6125
 20
-87.96249999999999
 11
144.6125
 21
-87.96249999999999
  0
LINE
  5
2A2
100
AcDbEntity
  8
0
  6
ByLayer
 62
  256
370
   -1
100
AcDbLine
 10
131.1125
 20
-74.46249999999999
 11
131.1125
 21
-87.46249999999999
  0
LINE
  5
2A3
100
AcDbEntity
  8
0
  6
ByLayer
 62
  256
370
   -1
100
AcDbLine
 10
145.1125
 20
-74.46249999999999
 11
145.1125
 21
-87.46249999999999
  0
ARC
  5
2A4
100
AcDbEntity
  8
0
  6
ByLayer
 62
  256
370
   -1
100
AcDbCircle
 10
131.6125
 20
-74.46249999999999
 40
0.5
100
AcDbArc
 50
90
 51
180
  0
ARC
  5
2A5
100
AcDbEntity
  8
0
  6
ByLayer
 62
  256
370
   -1
100
AcDbCircle
 10
144.6125
 20
-74.46249999999999
 40
0.5
100
AcDbArc
 50
0
 51
90
  0
ARC
  5
2A6
100
AcDbEntity
  8
0
  6
ByLayer
 62
  256
370
   -1
100
AcDbCircle
 10
131.6125
 20
-87.46249999999999
 40
0.5
100
AcDbArc
 50
180
 51
270
  0
ARC
  5
2A7
100
AcDbEntity
  8
0
  6
ByLayer
 62
  256
370
   -1
100
AcDbCircle
 10
144.6125
 20
-87.46249999999999
 40
0.5
100
AcDbArc
 50
270
 51
0
  0
LINE
  5
2A8
100
AcDbEntity
  8
0
  6
ByLayer
 62
  256
370
   -1
100
AcDbLine
 10
150.6625
 20
-73.96249999999999
 11
163.6625
 21
-73.96249999999999
  0
LINE
  5
2A9
100
AcDbEntity
  8
0
  6
ByLayer
 62
  256
370
   -1
100
AcDbLine
 10
150.6625
 20
-87.96249999999999
 11
163.6625
 21
-87.96249999999999
  0
LINE
  5
2AA
100
AcDbEntity
  8
0
  6
ByLayer
 62
  256
370
   -1
100
AcDbLine
 10
150.1625
 20
-74.46249999999999
 11
150.1625
 21
-87.46249999999999
  0
LINE
  5
2AB
100
AcDbEntity
  8
0
  6
ByLayer
 62
  256
370
   -1
100
AcDbLine
 10
164.1625
 20
-74.46249999999999
 11
164.1625
 21
-87.46249999999999
  0
ARC
  5
2AC
100
AcDbEntity
  8
0
  6
ByLayer
 62
  256
370
   -1
100
AcDbCircle
 10
150.6625
 20
-74.46249999999999
 40
0.5
100
AcDbArc
 50
90
 51
180
  0
ARC
  5
2AD
100
AcDbEntity
  8
0
  6
ByLayer
 62
  256
370
   -1
100
AcDbCircle
 10
163.6625
 20
-74.46249999999999
 40
0.5
100
AcDbArc
 50
0
 51
90
  0
ARC
  5
2AE
100
AcDbEntity
  8
0
  6
ByLayer
 62
  256
370
   -1
100
AcDbCircle
 10
150.6625
 20
-87.46249999999999
 40
0.5
100
AcDbArc
 50
180
 51
270
  0
ARC
  5
2AF
100
AcDbEntity
  8
0
  6
ByLayer
 62
  256
370
   -1
100
AcDbCircle
 10
163.6625
 20
-87.46249999999999
 40
0.5
100
AcDbArc
 50
270
 51
0
  0
LINE
  5
2B0
100
AcDbEntity
  8
0
  6
ByLayer
 62
  256
370
   -1
100
AcDbLine
 10
169.7125
 20
-73.96249999999999
 11
182.7125
 21
-73.96249999999999
  0
LINE
  5
2B1
100
AcDbEntity
  8
0
  6
ByLayer
 62
  256
370
   -1
100
AcDbLine
 10
169.7125
 20
-87.96249999999999
 11
182.7125
 21
-87.96249999999999
  0
LINE
  5
2B2
100
AcDbEntity
  8
0
  6
ByLayer
 62
  256
370
   -1
100
AcDbLine
 10
169.2125
 20
-74.46249999999999
 11
169.2125
 21
-87.46249999999999
  0
LINE
  5
2B3
100
AcDbEntity
  8
0
  6
ByLayer
 62
  256
370
   -1
100
AcDbLine
 10
183.2125
 20
-74.46249999999999
 11
183.2125
 21
-87.46249999999999
  0
ARC
  5
2B4
100
AcDbEntity
  8
0
  6
ByLayer
 62
  256
370
   -1
100
AcDbCircle
 10
169.7125
 20
-74.46249999999999
 40
0.5
100
AcDbArc
 50
90
 51
180
  0
ARC
  5
2B5
100
AcDbEntity
  8
0
  6
ByLayer
 62
  256
370
   -1
100
AcDbCircle
 10
182.7125
 20
-74.46249999999999
 40
0.5
100
AcDbArc
 50
0
 51
90
  0
ARC
  5
2B6
100
AcDbEntity
  8
0
  6
ByLayer
 62
  256
370
   -1
100
AcDbCircle
 10
169.7125
 20
-87.46249999999999
 40
0.5
100
AcDbArc
 50
180
 51
270
  0
ARC
  5
2B7
100
AcDbEntity
  8
0
  6
ByLayer
 62
  256
370
   -1
100
AcDbCircle
 10
182.7125
 20
-87.46249999999999
 40
0.5
100
AcDbArc
 50
270
 51
0
  0
LINE
  5
2B8
100
AcDbEntity
  8
0
  6
ByLayer
 62
  256
370
   -1
100
AcDbLine
 10
188.7625
 20
-73.96249999999999
 11
201.7625
 21
-73.96249999999999
  0
LINE
  5
2B9
100
AcDbEntity
  8
0
  6
ByLayer
 62
  256
370
   -1
100
AcDbLine
 10
188.7625
 20
-87.96249999999999
 11
201.7625
 21
-87.96249999999999
  0
LINE
  5
2BA
100
AcDbEntity
  8
0
  6
ByLayer
 62
  256
370
   -1
100
AcDbLine
 10
188.2625
 20
-74.46249999999999
 11
188.2625
 21
-87.46249999999999
  0
LINE
  5
2BB
100
AcDbEntity
  8
0
  6
ByLayer
 62
  256
370
   -1
100
AcDbLine
 10
202.2625
 20
-74.46249999999999
 11
202.2625
 21
-87.46249999999999
  0
ARC
  5
2BC
100
AcDbEntity
  8
0
  6
ByLayer
 62
  256
370
   -1
100
AcDbCircle
 10
188.7625
 20
-74.46249999999999
 40
0.5
100
AcDbArc
 50
90
 51
180
  0
ARC
  5
2BD
100
AcDbEntity
  8
0
  6
ByLayer
 62
  256
370
   -1
100
AcDbCircle
 10
201.7625
 20
-74.46249999999999
 40
0.5
100
AcDbArc
 50
0
 51
90
  0
ARC
  5
2BE
100
AcDbEntity
  8
0
  6
ByLayer
 62
  256
370
   -1
100
AcDbCircle
 10
188.7625
 20
-87.46249999999999
 40
0.5
100
AcDbArc
 50
180
 51
270
  0
ARC
  5
2BF
100
AcDbEntity
  8
0
  6
ByLayer
 62
  256
370
   -1
100
AcDbCircle
 10
201.7625
 20
-87.46249999999999
 40
0.5
100
AcDbArc
 50
270
 51
0
  0
LINE
  5
2C0
100
AcDbEntity
  8
0
  6
ByLayer
 62
  256
370
   -1
100
AcDbLine
 10
207.8125
 20
-73.96249999999999
 11
220.8125
 21
-73.96249999999999
  0
LINE
  5
2C1
100
AcDbEntity
  8
0
  6
ByLayer
 62
  256
370
   -1
100
AcDbLine
 10
207.8125
 20
-87.96249999999999
 11
220.8125
 21
-87.96249999999999
  0
LINE
  5
2C2
100
AcDbEntity
  8
0
  6
ByLayer
 62
  256
370
   -1
100
AcDbLine
 10
207.3125
 20
-74.46249999999999
 11
207.3125
 21
-87.46249999999999
  0
LINE
  5
2C3
100
AcDbEntity
  8
0
  6
ByLayer
 62
  256
370
   -1
100
AcDbLine
 10
221.3125
 20
-74.46249999999999
 11
221.3125
 21
-87.46249999999999
  0
ARC
  5
2C4
100
AcDbEntity
  8
0
  6
ByLayer
 62
  256
370
   -1
100
AcDbCircle
 10
207.8125
 20
-74.46249999999999
 40
0.5
100
AcDbArc
 50
90
 51
180
  0
ARC
  5
2C5
100
AcDbEntity
  8
0
  6
ByLayer
 62
  256
370
   -1
100
AcDbCircle
 10
220.8125
 20
-74.46249999999999
 40
0.5
100
AcDbArc
 50
0
 51
90
  0
ARC
  5
2C6
100
AcDbEntity
  8
0
  6
ByLayer
 62
  256
370
   -1
100
AcDbCircle
 10
207.8125
 20
-87.46249999999999
 40
0.5
100
AcDbArc
 50
180
 51
270
  0
ARC
  5
2C7
100
AcDbEntity
  8
0
  6
ByLayer
 62
  256
370
   -1
100
AcDbCircle
 10
220.8125
 20
-87.46249999999999
 40
0.5
100
AcDbArc
 50
270
 51
0
  0
LINE
  5
2C8
100
AcDbEntity
  8
0
  6
ByLayer
 62
  256
370
   -1
100
AcDbLine
 10
234.00625
 20
-73.96249999999999
 11
247.00625
 21
-73.96249999999999
  0
LINE
  5
2C9
100
AcDbEntity
  8
0
  6
ByLayer
 62
  256
370
   -1
100
AcDbLine
 10
234.00625
 20
-87.96249999999999
 11
247.00625
 21
-87.96249999999999
  0
LINE
  5
2CA
100
AcDbEntity
  8
0
  6
ByLayer
 62
  256
370
   -1
100
AcDbLine
 10
233.50625
 20
-74.46249999999999
 11
233.50625
 21
-87.46249999999999
  0
LINE
  5
2CB
100
AcDbEntity
  8
0
  6
ByLayer
 62
  256
370
   -1
100
AcDbLine
 10
247.50625
 20
-74.46249999999999
 11
247.50625
 21
-87.46249999999999
  0
ARC
  5
2CC
100
AcDbEntity
  8
0
  6
ByLayer
 62
  256
370
   -1
100
AcDbCircle
 10
234.00625
 20
-74.46249999999999
 40
0.5
100
AcDbArc
 50
90
 51
180
  0
ARC
  5
2CD
100
AcDbEntity
  8
0
  6
ByLayer
 62
  256
370
   -1
100
AcDbCircle
 10
247.00625
 20
-74.46249999999999
 40
0.5
100
AcDbArc
 50
0
 51
90
  0
ARC
  5
2CE
100
AcDbEntity
  8
0
  6
ByLayer
 62
  256
370
   -1
100
AcDbCircle
 10
234.00625
 20
-87.46249999999999
 40
0.5
100
AcDbArc
 50
180
 51
270
  0
ARC
  5
2CF
100
AcDbEntity
  8
0
  6
ByLayer
 62
  256
370
   -1
100
AcDbCircle
 10
247.00625
 20
-87.46249999999999
 40
0.5
100
AcDbArc
 50
270
 51
0
  0
LINE
  5
2D0
100
AcDbEntity
  8
0
  6
ByLayer
 62
  256
370
   -1
100
AcDbLine
 10
229.00625
 20
-73.96249999999999
 11
230.50625
 21
-73.96249999999999
  0
LINE
  5
2D1
100
AcDbEntity
  8
0
  6
ByLayer
 62
  256
370
   -1
100
AcDbLine
 10
229.00625
 20
-87.96249999999999
 11
230.50625
 21
-87.96249999999999
  0
LINE
  5
2D2
100
AcDbEntity
  8
0
  6
ByLayer
 62
  256
370
   -1
100
AcDbLine
 10
229.00625
 20
-73.96249999999999
 11
229.00625
 21
-87.96249999999999
  0
LINE
  5
2D3
100
AcDbEntity
  8
0
  6
ByLayer
 62
  256
370
   -1
100
AcDbLine
 10
230.50625
 20
-73.96249999999999
 11
230.50625
 21
-87.96249999999999
  0
LINE
  5
2D4
100
AcDbEntity
  8
0
  6
ByLayer
 62
  256
370
   -1
100
AcDbLine
 10
250.50625
 20
-73.96249999999999
 11
252.00625
 21
-73.96249999999999
  0
LINE
  5
2D5
100
AcDbEntity
  8
0
  6
ByLayer
 62
  256
370
   -1
100
AcDbLine
 10
250.50625
 20
-87.96249999999999
 11
252.00625
 21
-87.96249999999999
  0
LINE
  5
2D6
100
AcDbEntity
  8
0
  6
ByLayer
 62
  256
370
   -1
100
AcDbLine
 10
250.50625
 20
-73.96249999999999
 11
250.50625
 21
-87.96249999999999
  0
LINE
  5
2D7
100
AcDbEntity
  8
0
  6
ByLayer
 62
  256
370
   -1
100
AcDbLine
 10
252.00625
 20
-73.96249999999999
 11
252.00625
 21
-87.96249999999999
  0
LINE
  5
2D8
100
AcDbEntity
  8
0
  6
ByLayer
 62
  256
370
   -1
100
AcDbLine
 10
288.775
 20
-73.96249999999999
 11
301.775
 21
-73.96249999999999
  0
LINE
  5
2D9
100
AcDbEntity
  8
0
  6
ByLayer
 62
  256
370
   -1
100
AcDbLine
 10
288.775
 20
-87.96249999999999
 11
301.775
 21
-87.96249999999999
  0
LINE
  5
2DA
100
AcDbEntity
  8
0
  6
ByLayer
 62
  256
370
   -1
100
AcDbLine
 10
288.275
 20
-74.46249999999999
 11
288.275
 21
-87.46249999999999
  0
LINE
  5
2DB
100
AcDbEntity
  8
0
  6
ByLayer
 62
  256
370
   -1
100
AcDbLine
 10
302.275
 20
-74.46249999999999
 11
302.275
 21
-87.46249999999999
  0
ARC
  5
2DC
100
AcDbEntity
  8
0
  6
ByLayer
 62
  256
370
   -1
100
AcDbCircle
 10
288.775
 20
-74.46249999999999
 40
0.5
100
AcDbArc
 50
90
 51
180
  0
ARC
  5
2DD
100
AcDbEntity
  8
0
  6
ByLayer
 62
  256
370
   -1
100
AcDbCircle
 10
301.775
 20
-74.46249999999999
 40
0.5
100
AcDbArc
 50
0
 51
90
  0
ARC
  5
2DE
100
AcDbEntity
  8
0
  6
ByLayer
 62
  256
370
   -1
100
AcDbCircle
 10
288.775
 20
-87.46249999999999
 40
0.5
100
AcDbArc
 50
180
 51
270
  0
ARC
  5
2DF
100
AcDbEntity
  8
0
  6
ByLayer
 62
  256
370
   -1
100
AcDbCircle
 10
301.775
 20
-87.46249999999999
 40
0.5
100
AcDbArc
 50
270
 51
0
  0
LINE
  5
2E0
100
AcDbEntity
  8
0
  6
ByLayer
 62
  256
370
   -1
100
AcDbLine
 10
264.9625
 20
-78.72499999999999
 11
277.9625
 21
-78.72499999999999
  0
LINE
  5
2E1
100
AcDbEntity
  8
0
  6
ByLayer
 62
  256
370
   -1
100
AcDbLine
 10
264.9625
 20
-92.72499999999999
 11
277.9625
 21
-92.72499999999999
  0
LINE
  5
2E2
100
AcDbEntity
  8
0
  6
ByLayer
 62
  256
370
   -1
100
AcDbLine
 10
264.4625
 20
-79.22499999999999
 11
264.4625
 21
-92.22499999999999
  0
LINE
  5
2E3
100
AcDbEntity
  8
0
  6
ByLayer
 62
  256
370
   -1
100
AcDbLine
 10
278.4625
 20
-79.22499999999999
 11
278.4625
 21
-92.22499999999999
  0
ARC
  5
2E4
100
AcDbEntity
  8
0
  6
ByLayer
 62
  256
370
   -1
100
AcDbCircle
 10
264.9625
 20
-79.22499999999999
 40
0.5
100
AcDbArc
 50
90
 51
180
  0
ARC
  5
2E5
100
AcDbEntity
  8
0
  6
ByLayer
 62
  256
370
   -1
100
AcDbCircle
 10
277.9625
 20
-79.22499999999999
 40
0.5
100
AcDbArc
 50
0
 51
90
  0
ARC
  5
2E6
100
AcDbEntity
  8
0
  6
ByLayer
 62
  256
370
   -1
100
AcDbCircle
 10
264.9625
 20
-92.22499999999999
 40
0.5
100
AcDbArc
 50
180
 51
270
  0
ARC
  5
2E7
100
AcDbEntity
  8
0
  6
ByLayer
 62
  256
370
   -1
100
AcDbCircle
 10
277.9625
 20
-92.22499999999999
 40
0.5
100
AcDbArc
 50
270
 51
0
  0
LINE
  5
2E8
100
AcDbEntity
  8
0
  6
ByLayer
 62
  256
370
   -1
100
AcDbLine
 10
-4.11875
 20
-93.01249999999999
 11
8.88125
 21
-93.01249999999999
  0
LINE
  5
2E9
100
AcDbEntity
  8
0
  6
ByLayer
 62
  256
370
   -1
100
AcDbLine
 10
-4.11875
 20
-107.0125
 11
8.88125
 21
-107.0125
  0
LINE
  5
2EA
100
AcDbEntity
  8
0
  6
ByLayer
 62
  256
370
   -1
100
AcDbLine
 10
-4.61875
 20
-93.51249999999999
 11
-4.61875
 21
-106.5125
  0
LINE
  5
2EB
100
AcDbEntity
  8
0
  6
ByLayer
 62
  256
370
   -1
100
AcDbLine
 10
9.38125
 20
-93.51249999999999
 11
9.38125
 21
-106.5125
  0
ARC
  5
2EC
100
AcDbEntity
  8
0
  6
ByLayer
 62
  256
370
   -1
100
AcDbCircle
 10
-4.11875
 20
-93.51249999999999
 40
0.5
100
AcDbArc
 50
90
 51
180
  0
ARC
  5
2ED
100
AcDbEntity
  8
0
  6
ByLayer
 62
  256
370
   -1
100
AcDbCircle
 10
8.88125
 20
-93.51249999999999
 40
0.5
100
AcDbArc
 50
0
 51
90
  0
ARC
  5
2EE
100
AcDbEntity
  8
0
  6
ByLayer
 62
  256
370
   -1
100
AcDbCircle
 10
-4.11875
 20
-106.5125
 40
0.5
100
AcDbArc
 50
180
 51
270
  0
ARC
  5
2EF
100
AcDbEntity
  8
0
  6
ByLayer
 62
  256
370
   -1
100
AcDbCircle
 10
8.88125
 20
-106.5125
 40
0.5
100
AcDbArc
 50
270
 51
0
  0
LINE
  5
2F0
100
AcDbEntity
  8
0
  6
ByLayer
 62
  256
370
   -1
100
AcDbLine
 10
19.69375
 20
-93.01249999999999
 11
32.69375
 21
-93.01249999999999
  0
LINE
  5
2F1
100
AcDbEntity
  8
0
  6
ByLayer
 62
  256
370
   -1
100
AcDbLine
 10
19.69375
 20
-107.0125
 11
32.69375
 21
-107.0125
  0
LINE
  5
2F2
100
AcDbEntity
  8
0
  6
ByLayer
 62
  256
370
   -1
100
AcDbLine
 10
19.19375
 20
-93.51249999999999
 11
19.19375
 21
-106.5125
  0
LINE
  5
2F3
100
AcDbEntity
  8
0
  6
ByLayer
 62
  256
370
   -1
100
AcDbLine
 10
33.19375
 20
-93.51249999999999
 11
33.19375
 21
-106.5125
  0
ARC
  5
2F4
100
AcDbEntity
  8
0
  6
ByLayer
 62
  256
370
   -1
100
AcDbCircle
 10
19.69375
 20
-93.51249999999999
 40
0.5
100
AcDbArc
 50
90
 51
180
  0
ARC
  5
2F5
100
AcDbEntity
  8
0
  6
ByLayer
 62
  256
370
   -1
100
AcDbCircle
 10
32.69375
 20
-93.51249999999999
 40
0.5
100
AcDbArc
 50
0
 51
90
  0
ARC
  5
2F6
100
AcDbEntity
  8
0
  6
ByLayer
 62
  256
370
   -1
100
AcDbCircle
 10
19.69375
 20
-106.5125
 40
0.5
100
AcDbArc
 50
180
 51
270
  0
ARC
  5
2F7
100
AcDbEntity
  8
0
  6
ByLayer
 62
  256
370
   -1
100
AcDbCircle
 10
32.69375
 20
-106.5125
 40
0.5
100
AcDbArc
 50
270
 51
0
  0
LINE
  5
2F8
100
AcDbEntity
  8
0
  6
ByLayer
 62
  256
370
   -1
100
AcDbLine
 10
43.50625
 20
-93.01249999999999
 11
56.50625
 21
-93.01249999999999
  0
LINE
  5
2F9
100
AcDbEntity
  8
0
  6
ByLayer
 62
  256
370
   -1
100
AcDbLine
 10
43.50625
 20
-107.0125
 11
56.50625
 21
-107.0125
  0
LINE
  5
2FA
100
AcDbEntity
  8
0
  6
ByLayer
 62
  256
370
   -1
100
AcDbLine
 10
43.00625
 20
-93.51249999999999
 11
43.00625
 21
-106.5125
  0
LINE
  5
2FB
100
AcDbEntity
  8
0
  6
ByLayer
 62
  256
370
   -1
100
AcDbLine
 10
57.00625
 20
-93.51249999999999
 11
57.00625
 21
-106.5125
  0
ARC
  5
2FC
100
AcDbEntity
  8
0
  6
ByLayer
 62
  256
370
   -1
100
AcDbCircle
 10
43.50625
 20
-93.51249999999999
 40
0.5
100
AcDbArc
 50
90
 51
180
  0
ARC
  5
2FD
100
AcDbEntity
  8
0
  6
ByLayer
 62
  256
370
   -1
100
AcDbCircle
 10
56.50625
 20
-93.51249999999999
 40
0.5
100
AcDbArc
 50
0
 51
90
  0
ARC
  5
2FE
100
AcDbEntity
  8
0
  6
ByLayer
 62
  256
370
   -1
100
AcDbCircle
 10
43.50625
 20
-106.5125
 40
0.5
100
AcDbArc
 50
180
 51
270
  0
ARC
  5
2FF
100
AcDbEntity
  8
0
  6
ByLayer
 62
  256
370
   -1
100
AcDbCircle
 10
56.50625
 20
-106.5125
 40
0.5
100
AcDbArc
 50
270
 51
0
  0
LINE
  5
300
100
AcDbEntity
  8
0
  6
ByLayer
 62
  256
370
   -1
100
AcDbLine
 10
114.94375
 20
-93.01249999999999
 11
127.94375
 21
-93.01249999999999
  0
LINE
  5
301
100
AcDbEntity
  8
0
  6
ByLayer
 62
  256
370
   -1
100
AcDbLine
 10
114.94375
 20
-107.0125
 11
127.94375
 21
-107.0125
  0
ARC
  5
302
100
AcDbEntity
  8
0
  6
ByLayer
 62
  256
370
   -1
100
AcDbCircle
 10
114.94375
 20
-93.51249999999999
 40
0.5
100
AcDbArc
 50
90
 51
180
  0
ARC
  5
303
100
AcDbEntity
  8
0
  6
ByLayer
 62
  256
370
   -1
100
AcDbCircle
 10
127.94375
 20
-93.51249999999999
 40
0.5
100
AcDbArc
 50
0
 51
90
  0
ARC
  5
304
100
AcDbEntity
  8
0
  6
ByLayer
 62
  256
370
   -1
100
AcDbCircle
 10
114.94375
 20
-106.5125
 40
0.5
100
AcDbArc
 50
180
 51
270
  0
ARC
  5
305
100
AcDbEntity
  8
0
  6
ByLayer
 62
  256
370
   -1
100
AcDbCircle
 10
127.94375
 20
-106.5125
 40
0.5
100
AcDbArc
 50
270
 51
0
  0
LINE
  5
306
100
AcDbEntity
  8
0
  6
ByLayer
 62
  256
370
   -1
100
AcDbLine
 10
174.77115
 20
-105.7021
 11
168.11635
 21
-105.7021
  0
LINE
  5
307
100
AcDbEntity
  8
0
  6
ByLayer
 62
  256
370
   -1
100
AcDbLine
 10
168.11635
 20
-105.7021
 11
168.11635
 21
-102.3125
  0
LINE
  5
308
100
AcDbEntity
  8
0
  6
ByLayer
 62
  256
370
   -1
100
AcDbLine
 10
168.11635
 20
-97.71249999999999
 11
168.11635
 21
-93.40849999999999
  0
LINE
  5
309
100
AcDbEntity
  8
0
  6
ByLayer
 62
  256
370
   -1
100
AcDbLine
 10
168.11635
 20
-93.40849999999999
 11
169.91975
 21
-93.40849999999999
  0
LINE
  5
30A
100
AcDbEntity
  8
0
  6
ByLayer
 62
  256
370
   -1
100
AcDbLine
 10
169.91975
 20
-93.40849999999999
 11
169.91975
 21
-92.2401
  0
LINE
  5
30B
100
AcDbEntity
  8
0
  6
ByLayer
 62
  256
370
   -1
100
AcDbLine
 10
169.91975
 20
-92.2401
 11
172.96775
 21
-92.2401
  0
LINE
  5
30C
100
AcDbEntity
  8
0
  6
ByLayer
 62
  256
370
   -1
100
AcDbLine
 10
172.96775
 20
-92.2401
 11
172.96775
 21
-93.40849999999999
  0
LINE
  5
30D
100
AcDbEntity
  8
0
  6
ByLayer
 62
  256
370
   -1
100
AcDbLine
 10
172.96775
 20
-93.40849999999999
 11
174.77115
 21
-93.40849999999999
  0
LINE
  5
30E
100
AcDbEntity
  8
0
  6
ByLayer
 62
  256
370
   -1
100
AcDbLine
 10
174.77115
 20
-93.40849999999999
 11
174.77115
 21
-99.50449999999999
  0
LINE
  5
30F
100
AcDbEntity
  8
0
  6
ByLayer
 62
  256
370
   -1
100
AcDbLine
 10
174.77115
 20
-99.50449999999999
 11
175.63475
 21
-99.50449999999999
  0
LINE
  5
310
100
AcDbEntity
  8
0
  6
ByLayer
 62
  256
370
   -1
100
AcDbLine
 10
175.63475
 20
-99.50449999999999
 11
175.63475
 21
-102.2985
  0
LINE
  5
311
100
AcDbEntity
  8
0
  6
ByLayer
 62
  256
370
   -1
100
AcDbLine
 10
175.63475
 20
-102.2985
 11
174.77115
 21
-102.2985
  0
LINE
  5
312
100
AcDbEntity
  8
0
  6
ByLayer
 62
  256
370
   -1
100
AcDbLine
 10
174.77115
 20
-102.2985
 11
174.77115
 21
-105.7021
  0
LINE
  5
313
100
AcDbEntity
  8
0
  6
ByLayer
 62
  256
370
   -1
100
AcDbLine
 10
68.11635
 20
-105.7021
 11
74.77114999999999
 21
-105.7021
  0
LINE
  5
314
100
AcDbEntity
  8
0
  6
ByLayer
 62
  256
370
   -1
100
AcDbLine
 10
74.77114999999999
 20
-105.7021
 11
74.77114999999999
 21
-102.3125
  0
LINE
  5
315
100
AcDbEntity
  8
0
  6
ByLayer
 62
  256
370
   -1
100
AcDbLine
 10
74.77114999999999
 20
-97.71249999999999
 11
74.77114999999999
 21
-93.40849999999999
  0
LINE
  5
316
100
AcDbEntity
  8
0
  6
ByLayer
 62
  256
370
   -1
100
AcDbLine
 10
74.77114999999999
 20
-93.40849999999999
 11
72.96775
 21
-93.40849999999999
  0
LINE
  5
317
100
AcDbEntity
  8
0
  6
ByLayer
 62
  256
370
   -1
100
AcDbLine
 10
72.96775
 20
-93.40849999999999
 11
72.96775
 21
-92.2401
  0
LINE
  5
318
100
AcDbEntity
  8
0
  6
ByLayer
 62
  256
370
   -1
100
AcDbLine
 10
72.96775
 20
-92.2401
 11
69.91974999999999
 21
-92.2401
  0
LINE
  5
319
100
AcDbEntity
  8
0
  6
ByLayer
 62
  256
370
   -1
100
AcDbLine
 10
69.91974999999999
 20
-92.2401
 11
69.91974999999999
 21
-93.40849999999999
  0
LINE
  5
31A
100
AcDbEntity
  8
0
  6
ByLayer
 62
  256
370
   -1
100
AcDbLine
 10
69.91974999999999
 20
-93.40849999999999
 11
68.11635
 21
-93.40849999999999
  0
LINE
  5
31B
100
AcDbEntity
  8
0
  6
ByLayer
 62
  256
370
   -1
100
AcDbLine
 10
68.11635
 20
-93.40849999999999
 11
68.11635
 21
-99.50449999999999
  0
LINE
  5
31C
100
AcDbEntity
  8
0
  6
ByLayer
 62
  256
370
   -1
100
AcDbLine
 10
68.11635
 20
-99.50449999999999
 11
67.25274999999999
 21
-99.50449999999999
  0
LINE
  5
31D
100
AcDbEntity
  8
0
  6
ByLayer
 62
  256
370
   -1
100
AcDbLine
 10
67.25274999999999
 20
-99.50449999999999
 11
67.25274999999999
 21
-102.2985
  0
LINE
  5
31E
100
AcDbEntity
  8
0
  6
ByLayer
 62
  256
370
   -1
100
AcDbLine
 10
67.25274999999999
 20
-102.2985
 11
68.11635
 21
-102.2985
  0
LINE
  5
31F
100
AcDbEntity
  8
0
  6
ByLayer
 62
  256
370
   -1
100
AcDbLine
 10
68.11635
 20
-102.2985
 11
68.11635
 21
-105.7021
  0
LINE
  5
320
100
AcDbEntity
  8
0
  6
ByLayer
 62
  256
370
   -1
100
AcDbLine
 10
184
 20
-93.01249999999999
 11
197
 21
-93.01249999999999
  0
LINE
  5
321
100
AcDbEntity
  8
0
  6
ByLayer
 62
  256
370
   -1
100
AcDbLine
 10
184
 20
-107.0125
 11
197
 21
-107.0125
  0
LINE
  5
322
100
AcDbEntity
  8
0
  6
ByLayer
 62
  256
370
   -1
100
AcDbLine
 10
183.5
 20
-93.51249999999999
 11
183.5
 21
-106.5125
  0
ARC
  5
323
100
AcDbEntity
  8
0
  6
ByLayer
 62
  256
370
   -1
100
AcDbCircle
 10
184
 20
-93.51249999999999
 40
0.5
100
AcDbArc
 50
90
 51
180
  0
ARC
  5
324
100
AcDbEntity
  8
0
  6
ByLayer
 62
  256
370
   -1
100
AcDbCircle
 10
184
 20
-106.5125
 40
0.5
100
AcDbArc
 50
180
 51
270
  0
LINE
  5
325
100
AcDbEntity
  8
0
  6
ByLayer
 62
  256
370
   -1
100
AcDbLine
 10
203.05
 20
-93.01249999999999
 11
216.05
 21
-93.01249999999999
  0
LINE
  5
326
100
AcDbEntity
  8
0
  6
ByLayer
 62
  256
370
   -1
100
AcDbLine
 10
203.05
 20
-107.0125
 11
216.05
 21
-107.0125
  0
LINE
  5
327
100
AcDbEntity
  8
0
  6
ByLayer
 62
  256
370
   -1
100
AcDbLine
 10
222.1
 20
-93.01249999999999
 11
235.1
 21
-93.01249999999999
  0
LINE
  5
328
100
AcDbEntity
  8
0
  6
ByLayer
 62
  256
370
   -1
100
AcDbLine
 10
222.1
 20
-107.0125
 11
235.1
 21
-107.0125
  0
LINE
  5
329
100
AcDbEntity
  8
0
  6
ByLayer
 62
  256
370
   -1
100
AcDbLine
 10
235.6
 20
-93.51249999999999
 11
235.6
 21
-106.5125
  0
ARC
  5
32A
100
AcDbEntity
  8
0
  6
ByLayer
 62
  256
370
   -1
100
AcDbCircle
 10
235.1
 20
-93.51249999999999
 40
0.5
100
AcDbArc
 50
0
 51
90
  0
ARC
  5
32B
100
AcDbEntity
  8
0
  6
ByLayer
 62
  256
370
   -1
100
AcDbCircle
 10
235.1
 20
-106.5125
 40
0.5
100
AcDbArc
 50
270
 51
0
  0
LINE
  5
32C
100
AcDbEntity
  8
0
  6
ByLayer
 62
  256
370
   -1
100
AcDbLine
 10
245.9125
 20
-97.77499999999999
 11
258.9125
 21
-97.77499999999999
  0
LINE
  5
32D
100
AcDbEntity
  8
0
  6
ByLayer
 62
  256
370
   -1
100
AcDbLine
 10
245.9125
 20
-111.775
 11
258.9125
 21
-111.775
  0
LINE
  5
32E
100
AcDbEntity
  8
0
  6
ByLayer
 62
  256
370
   -1
100
AcDbLine
 10
245.4125
 20
-98.27499999999999
 11
245.4125
 21
-111.275
  0
LINE
  5
32F
100
AcDbEntity
  8
0
  6
ByLayer
 62
  256
370
   -1
100
AcDbLine
 10
259.4125
 20
-98.27499999999999
 11
259.4125
 21
-111.275
  0
ARC
  5
330
100
AcDbEntity
  8
0
  6
ByLayer
 62
  256
370
   -1
100
AcDbCircle
 10
245.9125
 20
-98.27499999999999
 40
0.5
100
AcDbArc
 50
90
 51
180
  0
ARC
  5
331
100
AcDbEntity
  8
0
  6
ByLayer
 62
  256
370
   -1
100
AcDbCircle
 10
258.9125
 20
-98.27499999999999
 40
0.5
100
AcDbArc
 50
0
 51
90
  0
ARC
  5
332
100
AcDbEntity
  8
0
  6
ByLayer
 62
  256
370
   -1
100
AcDbCircle
 10
245.9125
 20
-111.275
 40
0.5
100
AcDbArc
 50
180
 51
270
  0
ARC
  5
333
100
AcDbEntity
  8
0
  6
ByLayer
 62
  256
370
   -1
100
AcDbCircle
 10
258.9125
 20
-111.275
 40
0.5
100
AcDbArc
 50
270
 51
0
  0
LINE
  5
334
100
AcDbEntity
  8
0
  6
ByLayer
 62
  256
370
   -1
100
AcDbLine
 10
264.9625
 20
-97.77499999999999
 11
277.9625
 21
-97.77499999999999
  0
LINE
  5
335
100
AcDbEntity
  8
0
  6
ByLayer
 62
  256
370
   -1
100
AcDbLine
 10
264.9625
 20
-111.775
 11
277.9625
 21
-111.775
  0
LINE
  5
336
100
AcDbEntity
  8
0
  6
ByLayer
 62
  256
370
   -1
100
AcDbLine
 10
264.4625
 20
-98.27499999999999
 11
264.4625
 21
-111.275
  0
LINE
  5
337
100
AcDbEntity
  8
0
  6
ByLayer
 62
  256
370
   -1
100
AcDbLine
 10
278.4625
 20
-98.27499999999999
 11
278.4625
 21
-111.275
  0
ARC
  5
338
100
AcDbEntity
  8
0
  6
ByLayer
 62
  256
370
   -1
100
AcDbCircle
 10
264.9625
 20
-98.27499999999999
 40
0.5
100
AcDbArc
 50
90
 51
180
  0
ARC
  5
339
100
AcDbEntity
  8
0
  6
ByLayer
 62
  256
370
   -1
100
AcDbCircle
 10
277.9625
 20
-98.27499999999999
 40
0.5
100
AcDbArc
 50
0
 51
90
  0
ARC
  5
33A
100
AcDbEntity
  8
0
  6
ByLayer
 62
  256
370
   -1
100
AcDbCircle
 10
264.9625
 20
-111.275
 40
0.5
100
AcDbArc
 50
180
 51
270
  0
ARC
  5
33B
100
AcDbEntity
  8
0
  6
ByLayer
 62
  256
370
   -1
100
AcDbCircle
 10
277.9625
 20
-111.275
 40
0.5
100
AcDbArc
 50
270
 51
0
  0
LINE
  5
33C
100
AcDbEntity
  8
0
  6
ByLayer
 62
  256
370
   -1
100
AcDbLine
 10
284.0125
 20
-97.77499999999999
 11
297.0125
 21
-97.77499999999999
  0
LINE
  5
33D
100
AcDbEntity
  8
0
  6
ByLayer
 62
  256
370
   -1
100
AcDbLine
 10
284.0125
 20
-111.775
 11
297.0125
 21
-111.775
  0
LINE
  5
33E
100
AcDbEntity
  8
0
  6
ByLayer
 62
  256
370
   -1
100
AcDbLine
 10
283.5125
 20
-98.27499999999999
 11
283.5125
 21
-111.275
  0
LINE
  5
33F
100
AcDbEntity
  8
0
  6
ByLayer
 62
  256
370
   -1
100
AcDbLine
 10
297.5125
 20
-98.27499999999999
 11
297.5125
 21
-111.275
  0
ARC
  5
340
100
AcDbEntity
  8
0
  6
ByLayer
 62
  256
370
   -1
100
AcDbCircle
 10
284.0125
 20
-98.27499999999999
 40
0.5
100
AcDbArc
 50
90
 51
180
  0
ARC
  5
341
100
AcDbEntity
  8
0
  6
ByLayer
 62
  256
370
   -1
100
AcDbCircle
 10
297.0125
 20
-98.27499999999999
 40
0.5
100
AcDbArc
 50
0
 51
90
  0
ARC
  5
342
100
AcDbEntity
  8
0
  6
ByLayer
 62
  256
370
   -1
100
AcDbCircle
 10
284.0125
 20
-111.275
 40
0.5
100
AcDbArc
 50
180
 51
270
  0
ARC
  5
343
100
AcDbEntity
  8
0
  6
ByLayer
 62
  256
370
   -1
100
AcDbCircle
 10
297.0125
 20
-111.275
 40
0.5
100
AcDbArc
 50
270
 51
0
  0
LINE
  5
344
100
AcDbEntity
  8
0
  6
ByLayer
 62
  256
370
   -1
100
AcDbLine
 10
3.29565
 20
-76.08569999999999
 11
4.906250000000002
 21
-76.08569999999999
  0
LINE
  5
345
100
AcDbEntity
  8
0
  6
ByLayer
 62
  256
370
   -1
100
AcDbLine
 10
20.51685
 20
-76.08569999999999
 11
18.90625
 21
-76.08569999999999
  0
LINE
  5
346
100
AcDbEntity
  8
0
  6
ByLayer
 62
  256
370
   -1
100
AcDbLine
 10
4.906250000000002
 20
-86.7791
 11
3.29565
 21
-86.7791
  0
LINE
  5
347
100
AcDbEntity
  8
0
  6
ByLayer
 62
  256
370
   -1
100
AcDbLine
 10
18.90625
 20
-86.7791
 11
20.51685
 21
-86.7791
  0
LINE
  5
348
100
AcDbEntity
  8
0
  6
ByLayer
 62
  256
370
   -1
100
AcDbLine
 10
4.906250000000002
 20
-76.08569999999999
 11
4.906250000000002
 21
-74.46249999999999
  0
LINE
  5
349
100
AcDbEntity
  8
0
  6
ByLayer
 62
  256
370
   -1
100
AcDbLine
 10
4.906250000000002
 20
-86.7791
 11
4.906250000000002
 21
-87.46249999999999
  0
LINE
  5
34A
100
AcDbEntity
  8
0
  6
ByLayer
 62
  256
370
   -1
100
AcDbLine
 10
18.90625
 20
-87.46249999999999
 11
18.90625
 21
-86.7791
  0
LINE
  5
34B
100
AcDbEntity
  8
0
  6
ByLayer
 62
  256
370
   -1
100
AcDbLine
 10
18.90625
 20
-74.46249999999999
 11
18.90625
 21
-76.08569999999999
  0
LINE
  5
34C
100
AcDbEntity
  8
0
  6
ByLayer
 62
  256
370
   -1
100
AcDbLine
 10
128.44375
 20
-97.71249999999999
 11
168.11635
 21
-97.71249999999999
  0
LINE
  5
34D
100
AcDbEntity
  8
0
  6
ByLayer
 62
  256
370
   -1
100
AcDbLine
 10
168.11635
 20
-102.3125
 11
128.44375
 21
-102.3125
  0
LINE
  5
34E
100
AcDbEntity
  8
0
  6
ByLayer
 62
  256
370
   -1
100
AcDbLine
 10
114.44375
 20
-97.71249999999999
 11
74.77114999999999
 21
-97.71249999999999
  0
LINE
  5
34F
100
AcDbEntity
  8
0
  6
ByLayer
 62
  256
370
   -1
100
AcDbLine
 10
74.77114999999999
 20
-102.3125
 11
114.44375
 21
-102.3125
  0
LINE
  5
350
100
AcDbEntity
  8
0
  6
ByLayer
 62
  256
370
   -1
100
AcDbLine
 10
114.44375
 20
-93.51249999999999
 11
114.44375
 21
-97.71249999999999
  0
LINE
  5
351
100
AcDbEntity
  8
0
  6
ByLayer
 62
  256
370
   -1
100
AcDbLine
 10
128.44375
 20
-97.71249999999999
 11
128.44375
 21
-93.51249999999999
  0
LINE
  5
352
100
AcDbEntity
  8
0
  6
ByLayer
 62
  256
370
   -1
100
AcDbLine
 10
128.44375
 20
-102.3125
 11
128.44375
 21
-106.5125
  0
LINE
  5
353
100
AcDbEntity
  8
0
  6
ByLayer
 62
  256
370
   -1
100
AcDbLine
 10
114.44375
 20
-106.5125
 11
114.44375
 21
-102.3125
  0
LINE
  5
354
100
AcDbEntity
  8
0
  6
ByLayer
 62
  256
370
   -1
100
AcDbLine
 10
246.18315
 20
-57.0357
 11
247.79375
 21
-57.0357
  0
LINE
  5
355
100
AcDbEntity
  8
0
  6
ByLayer
 62
  256
370
   -1
100
AcDbLine
 10
263.40435
 20
-57.0357
 11
261.79375
 21
-57.0357
  0
LINE
  5
356
100
AcDbEntity
  8
0
  6
ByLayer
 62
  256
370
   -1
100
AcDbLine
 10
261.79375
 20
-67.72909999999999
 11
263.40435
 21
-67.72909999999999
  0
LINE
  5
357
100
AcDbEntity
  8
0
  6
ByLayer
 62
  256
370
   -1
100
AcDbLine
 10
247.79375
 20
-67.72909999999999
 11
246.18315
 21
-67.72909999999999
  0
LINE
  5
358
100
AcDbEntity
  8
0
  6
ByLayer
 62
  256
370
   -1
100
AcDbLine
 10
247.79375
 20
-57.0357
 11
247.79375
 21
-55.4125
  0
LINE
  5
359
100
AcDbEntity
  8
0
  6
ByLayer
 62
  256
370
   -1
100
AcDbLine
 10
261.79375
 20
-55.4125
 11
261.79375
 21
-57.0357
  0
LINE
  5
35A
100
AcDbEntity
  8
0
  6
ByLayer
 62
  256
370
   -1
100
AcDbLine
 10
261.79375
 20
-68.41249999999999
 11
261.79375
 21
-67.72909999999999
  0
LINE
  5
35B
100
AcDbEntity
  8
0
  6
ByLayer
 62
  256
370
   -1
100
AcDbLine
 10
247.79375
 20
-67.72909999999999
 11
247.79375
 21
-68.41249999999999
  0
LINE
  5
35C
100
AcDbEntity
  8
0
  6
ByLayer
 62
  256
370
   -1
100
AcDbLine
 10
248.5644
 20
-18.9357
 11
250.175
 21
-18.9357
  0
LINE
  5
35D
100
AcDbEntity
  8
0
  6
ByLayer
 62
  256
370
   -1
100
AcDbLine
 10
250.175
 20
-29.6291
 11
248.5644
 21
-29.6291
  0
LINE
  5
35E
100
AcDbEntity
  8
0
  6
ByLayer
 62
  256
370
   -1
100
AcDbLine
 10
265.7856
 20
-18.9357
 11
264.175
 21
-18.9357
  0
LINE
  5
35F
100
AcDbEntity
  8
0
  6
ByLayer
 62
  256
370
   -1
100
AcDbLine
 10
264.175
 20
-29.6291
 11
265.7856
 21
-29.6291
  0
LINE
  5
360
100
AcDbEntity
  8
0
  6
ByLayer
 62
  256
370
   -1
100
AcDbLine
 10
250.175
 20
-18.9357
 11
250.175
 21
-17.3125
  0
LINE
  5
361
100
AcDbEntity
  8
0
  6
ByLayer
 62
  256
370
   -1
100
AcDbLine
 10
264.175
 20
-17.3125
 11
264.175
 21
-18.9357
  0
LINE
  5
362
100
AcDbEntity
  8
0
  6
ByLayer
 62
  256
370
   -1
100
AcDbLine
 10
264.175
 20
-29.6291
 11
264.175
 21
-30.3125
  0
LINE
  5
363
100
AcDbEntity
  8
0
  6
ByLayer
 62
  256
370
   -1
100
AcDbLine
 10
250.175
 20
-30.3125
 11
250.175
 21
-29.6291
  0
LINE
  5
364
100
AcDbEntity
  8
0
  6
ByLayer
 62
  256
370
   -1
100
AcDbLine
 10
197
 20
-93.01249999999999
 11
203.05
 21
-93.01249999999999
  0
LINE
  5
365
100
AcDbEntity
  8
0
  6
ByLayer
 62
  256
370
   -1
100
AcDbLine
 10
216.05
 20
-93.01249999999999
 11
222.1
 21
-93.01249999999999
  0
LINE
  5
366
100
AcDbEntity
  8
0
  6
ByLayer
 62
  256
370
   -1
100
AcDbLine
 10
222.1
 20
-107.0125
 11
216.05
 21
-107.0125
  0
LINE
  5
367
100
AcDbEntity
  8
0
  6
ByLayer
 62
  256
370
   -1
100
AcDbLine
 10
203.05
 20
-107.0125
 11
197
 21
-107.0125
  0
ENDBLK
  5
4F
330
4D
100
AcDbEntity
  8
0
100
AcDbBlockEnd
  0
ENDSEC
  0
SECTION
  2
ENTITIES
  0
LWPOLYLINE
  5
368
100
AcDbEntity
  8
0
  6
ByLayer
 62
  256
370
   -1
100
AcDbPolyline
 90
    8
 70
    1
 43
0
 10
151.8
 20
-34.7220468543698
 10
151.8
 20
-19.7220468543698
 42
0.414213562373095
 10
150.8
 20
-18.7220468543698
 10
138.8
 20
-18.7220468543698
 42
0.414213562373095
 10
137.8
 20
-19.7220468543698
 10
137.8
 20
-34.7220468543698
 42
0.4142135623730992
 10
138.8
 20
-35.72204685436981
 10
150.8
 20
-35.7220468543698
 42
0.414213562373095
  0
LWPOLYLINE
  5
369
100
AcDbEntity
  8
0
  6
ByLayer
 62
  256
370
   -1
100
AcDbPolyline
 90
    8
 70
    1
 43
0
 10
109.463
 20
-2.15424320580748
 10
109.463
 20
-14.1542432058075
 42
0.4142135623730953
 10
111.463
 20
-16.1542432058075
 10
149.563
 20
-16.1542432058075
 42
0.414213562373095
 10
151.563
 20
-14.1542432058075
 10
151.563
 20
-2.15424320580747
 42
0.4142135623730938
 10
149.563
 20
-0.1542432058074783
 10
111.463
 20
-0.1542432058074805
 42
0.414213562373095
  0
LWPOLYLINE
  5
36A
100
AcDbEntity
  8
0
  6
ByLayer
 62
  256
370
   -1
100
AcDbPolyline
 90
  104
 70
    1
 43
0
 10
-158
 20
-122.464850495482
 42
-0.414213562373095
 10
-160
 20
-120.464850495482
 10
-160
 20
-115.739536340188
 42
0.2679491924304641
 10
-160.499999999998
 20
-114.873510936405
 10
-163.899995083535
 20
-112.910522859673
 42
-0.2679491924330181
 10
-164.524995083541
 20
-111.827991104937
 10
-164.5249950835257
 20
-100.137392181599
 42
-0.2679491925338047
 10
-163.899995083198
 20
-99.05486042677991
 10
-160.5000000003321
 20
-97.09187235217267
 42
0.2679491925338714
 10
-160
 20
-96.22584694819651
 10
-160
 20
-24.8610503942043
 42
0.2679491925338517
 10
-160.500000000332
 20
-23.99502499022818
 10
-163.8999950832008
 20
-22.03203691562777
 42
-0.2679491925338939
 10
-164.524995083534
 20
-20.9495051608018
 10
-164.5249950835411
 20
-9.258906237463499
 42
-0.2679491924329864
 10
-163.899995083535
 20
-8.176374482727654
 10
-160.4999999999981
 20
-6.213386405996093
 42
0.2679491924305512
 10
-160
 20
-5.34736100221272
 10
-160
 20
-0.62204684691921
 42
-0.414213562373095
 10
-158
 20
1.37795315308079
 10
-130.461945688546
 20
1.37795315308079
 42
0.2679491924310579
 10
-129.595920284762
 20
1.877953153080786
 10
-127.6329293695173
 20
5.277953153080794
 42
-0.2679491924312762
 10
-126.550397614786
 20
5.90295315308048
 10
-114.859798691545
 20
5.902953153080984
 42
-0.2679491924311757
 10
-113.777266936814
 20
5.277953153080599
 10
-111.8142760215696
 20
1.877953153081027
 42
0.2679491924311965
 10
-110.948250617785
 20
1.37795315308078
 10
-64.9943475353804
 20
1.37795315308078
 42
0.2679491924311153
 10
-64.12832213159601
 20
1.877953153080769
 10
-62.16533121635125
 20
5.277953153080793
 42
-0.267949192431105
 10
-61.08279946162081
 20
5.90295315308069
 10
-49.39220053837921
 20
5.902953153080732
 42
-0.2679491924311163
 10
-48.3096687836487
 20
5.277953153080784
 10
-46.34667786840403
 20
1.877953153080759
 42
0.2679491924311199
 10
-45.4806524646196
 20
1.37795315308078
 10
39.8056524646195
 20
1.37795315308078
 42
0.2679491924311316
 10
40.671677868404
 20
1.877953153080776
 10
42.63466878364867
 20
5.27795315308083
 42
-0.2679491924311362
 10
43.7172005383793
 20
5.9029531530808
 10
55.4077994616208
 20
5.902953153080751
 42
-0.2679491924311201
 10
56.49033121635131
 20
5.277953153080779
 10
58.45332213159606
 20
1.877953153080799
 42
0.2679491924311033
 10
59.31934753538041
 20
1.37795315308077
 10
105.273250617785
 20
1.37795315308077
 42
0.2679491924312071
 10
106.13927602157
 20
1.877953153080754
 10
108.1022669368143
 20
5.27795315308046
 42
-0.2679491924311695
 10
109.184798691545
 20
5.90295315308067
 10
120.875397614786
 20
5.902953153080208
 42
-0.2679491924312795
 10
121.957929369517
 20
5.277953153080686
 10
123.9209202847617
 20
1.87795315308058
 42
0.2679491924310589
 10
124.786945688546
 20
1.37795315308077
 10
152.325
 20
1.377953153080771
 42
-0.414213562373094
 10
154.325
 20
-0.622046846919222
 10
154.325
 20
-5.34736100221262
 42
0.2679491924305405
 10
154.824999999998
 20
-6.213386405996165
 10
158.224995083535
 20
-8.176374482727628
 42
-0.2679491924329873
 10
158.849995083541
 20
-9.25890623746341
 10
158.8499950835333
 20
-20.9495051608018
 42
-0.2679491925340038
 10
158.224995083201
 20
-22.03203691562791
 10
154.8250000003321
 20
-23.99502499022811
 42
0.2679491925338837
 10
154.325
 20
-24.8610503942043
 10
154.325
 20
-96.22584694819651
 42
0.2679491925338507
 10
154.825000000332
 20
-97.0918723521726
 10
158.2249950832016
 20
-99.05486042677354
 42
-0.2679491925338117
 10
158.849995083533
 20
-100.137392181599
 10
158.8499950835415
 20
-111.827991104937
 42
-0.2679491924332283
 10
158.224995083535
 20
-112.910522859673
 10
154.8249999999979
 20
-114.8735109364048
 42
0.2679491924304692
 10
154.325
 20
-115.739536340188
 10
154.325
 20
-120.464850495482
 42
-0.414213562373095
 10
152.325
 20
-122.464850495482
 10
112.156849807738
 20
-122.464850495482
 42
0.2679491924311992
 10
111.290824403953
 20
-122.964850495482
 10
109.3278313801407
 20
-126.3648541476294
 42
-0.2679491924311421
 10
108.245299625411
 20
-126.989854147629
 10
96.55470070216872
 20
-126.989854147628
 42
-0.2679491924311929
 10
95.47216894743779
 20
-126.364854147628
 10
93.50917592362526
 20
-122.964850495482
 42
0.2679491924311291
 10
92.64315051984082
 20
-122.464850495482
 10
46.2193475353805
 20
-122.464850495482
 42
0.2679491924311196
 10
45.35332213159609
 20
-122.964850495482
 10
43.39033121635133
 20
-126.364850495482
 42
-0.2679491924311138
 10
42.3077994616208
 20
-126.989850495482
 10
30.6172002950249
 20
-126.9898504954812
 42
-0.2679489586343478
 10
29.5346692073099
 20
-126.364851229284
 10
27.57167786840396
 20
-122.964850495482
 42
0.267949192431132
 10
26.7056524646195
 20
-122.464850495482
 10
-32.3806524646195
 20
-122.464850495482
 42
0.267949192431136
 10
-33.24667786840401
 20
-122.964850495482
 10
-35.20966920730929
 20
-126.3648512292844
 42
-0.2679489586343271
 10
-36.2922002950249
 20
-126.989850495482
 10
-47.9827994616208
 20
-126.9898504954824
 42
-0.2679494241287271
 10
-49.06533175679331
 20
-126.364849559409
 10
-51.02832213159596
 20
-122.964850495482
 42
0.267949192431123
 10
-51.8943475353804
 20
-122.464850495482
 10
-98.31815051984071
 20
-122.464850495482
 42
0.267949192431136
 10
-99.18417592362522
 20
-122.964850495482
 10
-101.1471689474372
 20
-126.3648541476285
 42
-0.2679491924314668
 10
-102.229700702169
 20
-126.989854147629
 10
-113.920299625411
 20
-126.9898541476282
 42
-0.2679491924311386
 10
-115.00283138014
 20
-126.364854147629
 10
-116.9658244039534
 20
-122.9648504954823
 42
0.2679491924312019
 10
-117.831849807738
 20
-122.464850495482
  0
CIRCLE
  5
36B
100
AcDbEntity
  8
0
  6
ByLayer
 62
  256
370
   -1
100
AcDbCircle
 10
49.56250000000001
 20
4.20295315308078
 40
1.1
  0
CIRCLE
  5
36C
100
AcDbEntity
  8
0
  6
ByLayer
 62
  256
370
   -1
100
AcDbCircle
 10
102.400000163789
 20
-125.289854147629
 40
1.09999999999999
  0
CIRCLE
  5
36D
100
AcDbEntity
  8
0
  6
ByLayer
 62
  256
370
   -1
100
AcDbCircle
 10
-162.824995083534
 20
-105.982691643323
 40
1.09999999999999
  0
CIRCLE
  5
36E
100
AcDbEntity
  8
0
  6
ByLayer
 62
  256
370
   -1
100
AcDbCircle
 10
-120.705098153166
 20
4.20295315308066
 40
1.09999999999999
  0
CIRCLE
  5
36F
100
AcDbEntity
  8
0
  6
ByLayer
 62
  256
370
   -1
100
AcDbCircle
 10
-108.075000163789
 20
-125.289854147629
 40
1.09999999999999
  0
CIRCLE
  5
370
100
AcDbEntity
  8
0
  6
ByLayer
 62
  256
370
   -1
100
AcDbCircle
 10
157.149995083534
 20
-105.982691643323
 40
1.09999999999999
  0
CIRCLE
  5
371
100
AcDbEntity
  8
0
  6
ByLayer
 62
  256
370
   -1
100
AcDbCircle
 10
115.030098153166
 20
4.20295315308078
 40
1.09999999999999
  0
CIRCLE
  5
372
100
AcDbEntity
  8
0
  6
ByLayer
 62
  256
370
   -1
100
AcDbCircle
 10
36.46250000000001
 20
-125.289850495482
 40
1.1
  0
CIRCLE
  5
373
100
AcDbEntity
  8
0
  6
ByLayer
 62
  256
370
   -1
100
AcDbCircle
 10
-162.824995083534
 20
-15.1042056990779
 40
1.09999999999999
  0
CIRCLE
  5
374
100
AcDbEntity
  8
0
  6
ByLayer
 62
  256
370
   -1
100
AcDbCircle
 10
-55.2375
 20
4.20295315308075
 40
1.1
  0
CIRCLE
  5
375
100
AcDbEntity
  8
0
  6
ByLayer
 62
  256
370
   -1
100
AcDbCircle
 10
-42.1375
 20
-125.289850495482
 40
1.09999999999999
  0
CIRCLE
  5
376
100
AcDbEntity
  8
0
  6
ByLayer
 62
  256
370
   -1
100
AcDbCircle
 10
157.149995083533
 20
-15.1042056990778
 40
1.09999999999999
  0
CIRCLE
  5
377
100
AcDbEntity
  8
0
  6
ByLayer
 62
  256
370
   -1
100
AcDbCircle
 10
49.56250000000001
 20
4.20295315308078
 40
1.1
  0
CIRCLE
  5
378
100
AcDbEntity
  8
0
  6
ByLayer
 62
  256
370
   -1
100
AcDbCircle
 10
102.400000163789
 20
-125.289854147629
 40
1.09999999999999
  0
CIRCLE
  5
379
100
AcDbEntity
  8
0
  6
ByLayer
 62
  256
370
   -1
100
AcDbCircle
 10
-162.824995083534
 20
-105.982691643323
 40
1.09999999999999
  0
CIRCLE
  5
37A
100
AcDbEntity
  8
0
  6
ByLayer
 62
  256
370
   -1
100
AcDbCircle
 10
-120.705098153166
 20
4.20295315308066
 40
1.09999999999999
  0
CIRCLE
  5
37B
100
AcDbEntity
  8
0
  6
ByLayer
 62
  256
370
   -1
100
AcDbCircle
 10
-108.075000163789
 20
-125.289854147629
 40
1.09999999999999
  0
CIRCLE
  5
37C
100
AcDbEntity
  8
0
  6
ByLayer
 62
  256
370
   -1
100
AcDbCircle
 10
157.149995083534
 20
-105.982691643323
 40
1.09999999999999
  0
CIRCLE
  5
37D
100
AcDbEntity
  8
0
  6
ByLayer
 62
  256
370
   -1
100
AcDbCircle
 10
115.030098153166
 20
4.20295315308078
 40
1.09999999999999
  0
CIRCLE
  5
37E
100
AcDbEntity
  8
0
  6
ByLayer
 62
  256
370
   -1
100
AcDbCircle
 10
36.46250000000001
 20
-125.289850495482
 40
1.1
  0
CIRCLE
  5
37F
100
AcDbEntity
  8
0
  6
ByLayer
 62
  256
370
   -1
100
AcDbCircle
 10
-162.824995083534
 20
-15.1042056990779
 40
1.09999999999999
  0
CIRCLE
  5
380
100
AcDbEntity
  8
0
  6
ByLayer
 62
  256
370
   -1
100
AcDbCircle
 10
-55.2375
 20
4.20295315308075
 40
1.1
  0
CIRCLE
  5
381
100
AcDbEntity
  8
0
  6
ByLayer
 62
  256
370
   -1
100
AcDbCircle
 10
-42.1375
 20
-125.289850495482
 40
1.09999999999999
  0
CIRCLE
  5
382
100
AcDbEntity
  8
0
  6
ByLayer
 62
  256
370
   -1
100
AcDbCircle
 10
157.149995083533
 20
-15.1042056990778
 40
1.09999999999999
  0
LWPOLYLINE
  5
383
100
AcDbEntity
  8
0
  6
ByLayer
 62
  256
370
   -1
100
AcDbPolyline
 90
    8
 70
    1
 43
0
 10
151.8
 20
-34.7220468543698
 10
151.8
 20
-19.7220468543698
 42
0.414213562373095
 10
150.8
 20
-18.7220468543698
 10
138.8
 20
-18.7220468543698
 42
0.414213562373095
 10
137.8
 20
-19.7220468543698
 10
137.8
 20
-34.7220468543698
 42
0.4142135623730992
 10
138.8
 20
-35.72204685436981
 10
150.8
 20
-35.7220468543698
 42
0.414213562373095
  0
LWPOLYLINE
  5
384
100
AcDbEntity
  8
0
  6
ByLayer
 62
  256
370
   -1
100
AcDbPolyline
 90
    8
 70
    1
 43
0
 10
109.463
 20
-2.15424320580748
 10
109.463
 20
-14.1542432058075
 42
0.4142135623730953
 10
111.463
 20
-16.1542432058075
 10
149.563
 20
-16.1542432058075
 42
0.414213562373095
 10
151.563
 20
-14.1542432058075
 10
151.563
 20
-2.15424320580747
 42
0.4142135623730938
 10
149.563
 20
-0.154243205807479
 10
111.463
 20
-0.1542432058074805
 42
0.414213562373095
  0
LWPOLYLINE
  5
385
100
AcDbEntity
  8
0
  6
ByLayer
 62
  256
370
   -1
100
AcDbPolyline
 90
  104
 70
    1
 43
0
 10
-158
 20
-122.464850495482
 42
-0.414213562373095
 10
-160
 20
-120.464850495482
 10
-160
 20
-115.739536340188
 42
0.2679491924304641
 10
-160.499999999998
 20
-114.873510936405
 10
-163.899995083535
 20
-112.910522859673
 42
-0.2679491924330181
 10
-164.524995083541
 20
-111.827991104937
 10
-164.5249950835257
 20
-100.137392181599
 42
-0.2679491925338099
 10
-163.899995083198
 20
-99.05486042677991
 10
-160.5000000003321
 20
-97.09187235217267
 42
0.2679491925338714
 10
-160
 20
-96.22584694819651
 10
-160
 20
-24.8610503942043
 42
0.2679491925338517
 10
-160.500000000332
 20
-23.99502499022818
 10
-163.8999950832008
 20
-22.03203691562777
 42
-0.2679491925338939
 10
-164.524995083534
 20
-20.9495051608018
 10
-164.5249950835411
 20
-9.258906237463503
 42
-0.2679491924329863
 10
-163.899995083535
 20
-8.176374482727658
 10
-160.4999999999981
 20
-6.213386405996093
 42
0.2679491924305512
 10
-160
 20
-5.34736100221272
 10
-160
 20
-0.6220468469192111
 42
-0.4142135623730953
 10
-158
 20
1.37795315308079
 10
-130.461945688546
 20
1.37795315308079
 42
0.2679491924310579
 10
-129.595920284762
 20
1.877953153080786
 10
-127.6329293695173
 20
5.277953153080794
 42
-0.2679491924312762
 10
-126.550397614786
 20
5.90295315308048
 10
-114.859798691545
 20
5.902953153080984
 42
-0.2679491924311757
 10
-113.777266936814
 20
5.277953153080599
 10
-111.8142760215696
 20
1.877953153081027
 42
0.2679491924311965
 10
-110.948250617785
 20
1.37795315308078
 10
-64.9943475353804
 20
1.37795315308078
 42
0.2679491924311153
 10
-64.12832213159601
 20
1.877953153080769
 10
-62.16533121635125
 20
5.277953153080793
 42
-0.267949192431105
 10
-61.08279946162081
 20
5.90295315308069
 10
-49.39220053837921
 20
5.902953153080732
 42
-0.2679491924311163
 10
-48.3096687836487
 20
5.277953153080784
 10
-46.34667786840403
 20
1.877953153080758
 42
0.2679491924311193
 10
-45.4806524646196
 20
1.37795315308078
 10
39.8056524646195
 20
1.37795315308078
 42
0.2679491924311316
 10
40.671677868404
 20
1.877953153080776
 10
42.63466878364867
 20
5.27795315308083
 42
-0.2679491924311362
 10
43.7172005383793
 20
5.9029531530808
 10
55.4077994616208
 20
5.902953153080751
 42
-0.2679491924311201
 10
56.49033121635131
 20
5.277953153080779
 10
58.45332213159605
 20
1.877953153080795
 42
0.2679491924311034
 10
59.31934753538041
 20
1.37795315308077
 10
105.273250617785
 20
1.37795315308077
 42
0.2679491924312071
 10
106.13927602157
 20
1.877953153080754
 10
108.1022669368143
 20
5.27795315308046
 42
-0.2679491924311695
 10
109.184798691545
 20
5.90295315308067
 10
120.875397614786
 20
5.902953153080208
 42
-0.2679491924312841
 10
121.957929369517
 20
5.27795315308069
 10
123.9209202847617
 20
1.877953153080591
 42
0.267949192431057
 10
124.786945688546
 20
1.37795315308077
 10
152.325
 20
1.377953153080774
 42
-0.4142135623730945
 10
154.325
 20
-0.622046846919222
 10
154.325
 20
-5.34736100221262
 42
0.2679491924305405
 10
154.824999999998
 20
-6.213386405996165
 10
158.224995083535
 20
-8.176374482727628
 42
-0.2679491924329873
 10
158.849995083541
 20
-9.25890623746341
 10
158.8499950835333
 20
-20.9495051608018
 42
-0.2679491925340038
 10
158.224995083201
 20
-22.03203691562791
 10
154.8250000003321
 20
-23.99502499022811
 42
0.2679491925338837
 10
154.325
 20
-24.8610503942043
 10
154.325
 20
-96.22584694819651
 42
0.2679491925338507
 10
154.825000000332
 20
-97.0918723521726
 10
158.2249950832016
 20
-99.05486042677354
 42
-0.2679491925338117
 10
158.849995083533
 20
-100.137392181599
 10
158.8499950835415
 20
-111.827991104937
 42
-0.2679491924332283
 10
158.224995083535
 20
-112.910522859673
 10
154.8249999999979
 20
-114.8735109364048
 42
0.2679491924304692
 10
154.325
 20
-115.739536340188
 10
154.325
 20
-120.464850495482
 42
-0.414213562373095
 10
152.325
 20
-122.464850495482
 10
112.156849807738
 20
-122.464850495482
 42
0.2679491924311992
 10
111.290824403953
 20
-122.964850495482
 10
109.3278313801407
 20
-126.3648541476294
 42
-0.2679491924311421
 10
108.245299625411
 20
-126.989854147629
 10
96.55470070216872
 20
-126.989854147628
 42
-0.2679491924311929
 10
95.47216894743779
 20
-126.364854147628
 10
93.50917592362526
 20
-122.964850495482
 42
0.2679491924311291
 10
92.64315051984082
 20
-122.464850495482
 10
46.2193475353805
 20
-122.464850495482
 42
0.2679491924311196
 10
45.35332213159609
 20
-122.964850495482
 10
43.39033121635133
 20
-126.364850495482
 42
-0.2679491924311138
 10
42.3077994616208
 20
-126.989850495482
 10
30.6172002950249
 20
-126.9898504954812
 42
-0.2679489586343478
 10
29.5346692073099
 20
-126.364851229284
 10
27.57167786840396
 20
-122.964850495482
 42
0.267949192431132
 10
26.7056524646195
 20
-122.464850495482
 10
-32.3806524646195
 20
-122.464850495482
 42
0.267949192431136
 10
-33.24667786840401
 20
-122.964850495482
 10
-35.20966920730929
 20
-126.3648512292844
 42
-0.2679489586343271
 10
-36.2922002950249
 20
-126.989850495482
 10
-47.9827994616208
 20
-126.9898504954824
 42
-0.2679494241287271
 10
-49.06533175679331
 20
-126.364849559409
 10
-51.02832213159596
 20
-122.964850495482
 42
0.267949192431123
 10
-51.8943475353804
 20
-122.464850495482
 10
-98.31815051984071
 20
-122.464850495482
 42
0.267949192431136
 10
-99.18417592362522
 20
-122.964850495482
 10
-101.1471689474372
 20
-126.3648541476285
 42
-0.2679491924314668
 10
-102.229700702169
 20
-126.989854147629
 10
-113.920299625411
 20
-126.9898541476282
 42
-0.2679491924311386
 10
-115.00283138014
 20
-126.364854147629
 10
-116.9658244039534
 20
-122.9648504954823
 42
0.2679491924312019
 10
-117.831849807738
 20
-122.464850495482
  0
INSERT
  5
386
100
AcDbEntity
  8
0
  6
ByLayer
 62
  256
370
   -1
100
AcDbBlockReference
  2
ck75---ansi-standard-1
 10
-150.4745427249353
 20
-8.17204682738271
 30
0
 41
1
 42
1
 43
0
 50
0
 70
    1
 71
    1
 44
0
 45
0
  0
ENDSEC
  0
SECTION
  2
OBJECTS
  0
DICTIONARY
  5
C
330
0
100
AcDbDictionary
281
    1
  3
ACAD_GROUP
350
D
  0
DICTIONARY
  5
D
330
C
100
AcDbDictionary
281
    1
  0
PLOTSETTINGS
  5
387
100
AcDbPlotSettings
  6
1x1
 40
0
 41
0
 42
0
 43
0
  0
ENDSEC
  0
EOF
