999
dxfrw 0.6.3
  0
SECTION
  2
HEADER
  9
$ACADVER
  1
AC1021
  9
$DWGCODEPAGE
  3
ANSI_1252
  9
$INSBASE
 10
0
 20
0
 30
0
  9
$EXTMIN
 10
-164.5249950835411
 20
-126.989854147629
 30
0
  9
$EXTMAX
 10
158.8499950835415
 20
5.902953153080983
 30
0
  9
$LIMMIN
 10
0
 20
0
  9
$LIMMAX
 10
420
 20
297
  9
$ORTHOMODE
 70
    0
  9
$REGENMODE
 70
    1
  9
$FILLMODE
 70
    1
  9
$QTEXTMODE
 70
    0
  9
$MIRRTEXT
 70
    0
  9
$LTSCALE
 40
1
  9
$ATTMODE
 70
    0
  9
$TEXTSIZE
 40
2.5
  9
$TRACEWID
 40
15.68
  9
$TEXTSTYLE
  7
STANDARD
  9
$CLAYER
  8
0
  9
$CELTYPE
  6
BYLAYER
  9
$CECOLOR
 62
  256
  9
$CELTSCALE
 40
1
  9
$DISPSILH
 70
    0
  9
$DIMSCALE
 40
2.5
  9
$DIMASZ
 40
2.5
  9
$DIMEXO
 40
0.625
  9
$DIMDLI
 40
3.75
  9
$DIMRND
 40
0
  9
$DIMDLE
 40
0
  9
$DIMEXE
 40
1.25
  9
$DIMTP
 40
0
  9
$DIMTM
 40
0
  9
$DIMTXT
 40
2.5
  9
$DIMCEN
 40
2.5
  9
$DIMTSZ
 40
0
  9
$DIMTOL
 70
    0
  9
$DIMLIM
 70
    0
  9
$DIMTIH
 70
    0
  9
$DIMTOH
 70
    0
  9
$DIMSE1
 70
    0
  9
$DIMSE2
 70
    0
  9
$DIMTAD
 70
    1
  9
$DIMZIN
 70
    8
  9
$DIMBLK
  1

  9
$DIMASO
 70
    1
  9
$DIMSHO
 70
    1
  9
$DIMPOST
  1

  9
$DIMAPOST
  1

  9
$DIMALT
 70
    0
  9
$DIMALTD
 70
    3
  9
$DIMALTF
 40
0.03937
  9
$DIMLFAC
 40
1
  9
$DIMTOFL
 70
    1
  9
$DIMTVP
 40
0
  9
$DIMTIX
 70
    0
  9
$DIMSOXD
 70
    0
  9
$DIMSAH
 70
    0
  9
$DIMBLK1
  1

  9
$DIMBLK2
  1

  9
$DIMSTYLE
  2
Standard
  9
$DIMCLRD
 70
    0
  9
$DIMCLRE
 70
    0
  9
$DIMCLRT
 70
    0
  9
$DIMTFAC
 40
1
  9
$DIMGAP
 40
0.625
  9
$DIMJUST
 70
    0
  9
$DIMSD1
 70
    0
  9
$DIMSD2
 70
    0
  9
$DIMTOLJ
 70
    0
  9
$DIMTZIN
 70
    8
  9
$DIMALTZ
 70
    0
  9
$DIMALTTZ
 70
    0
  9
$DIMUPT
 70
    0
  9
$DIMDEC
 70
    2
  9
$DIMTDEC
 70
    2
  9
$DIMALTU
 70
    2
  9
$DIMALTTD
 70
    3
  9
$DIMTXSTY
  7
STANDARD
  9
$DIMAUNIT
 70
    0
  9
$DIMADEC
 70
    0
  9
$DIMALTRND
 40
0
  9
$DIMAZIN
 70
    0
  9
$DIMDSEP
 70
   44
  9
$DIMATFIT
 70
    3
  9
$DIMFRAC
 70
    0
  9
$DIMLDRBLK
  1
STANDARD
  9
$DIMLUNIT
 70
    2
  9
$DIMLWD
 70
   -2
  9
$DIMLWE
 70
   -2
  9
$DIMTMOVE
 70
    0
  9
$DIMFXL
 40
1
  9
$DIMFXLON
 70
    0
  9
$DIMJOGANG
 40
0.7854
  9
$DIMTFILL
 70
    0
  9
$DIMTFILLCLR
 70
    0
  9
$DIMARCSYM
 70
    0
  9
$DIMLTYPE
  6

  9
$DIMLTEX1
  6

  9
$DIMLTEX2
  6

  9
$LUNITS
 70
    2
  9
$LUPREC
 70
    4
  9
$SKETCHINC
 40
1
  9
$FILLETRAD
 40
0
  9
$AUNITS
 70
    0
  9
$AUPREC
 70
    2
  9
$MENU
  1
.
  9
$ELEVATION
 40
0
  9
$PELEVATION
 40
0
  9
$THICKNESS
 40
0
  9
$LIMCHECK
 70
    0
  9
$CHAMFERA
 40
0
  9
$CHAMFERB
 40
0
  9
$CHAMFERC
 40
0
  9
$CHAMFERD
 40
0
  9
$SKPOLY
 70
    0
  9
$USRTIMER
 70
    1
  9
$ANGBASE
 50
0
  9
$ANGDIR
 70
    0
  9
$PDMODE
 70
   34
  9
$PDSIZE
 40
0
  9
$PLINEWID
 40
0
  9
$SPLFRAME
 70
    0
  9
$SPLINETYPE
 70
    2
  9
$SPLINESEGS
 70
    8
  9
$HANDSEED
  5
20000
  9
$SURFTAB1
 70
    6
  9
$SURFTAB2
 70
    6
  9
$SURFTYPE
 70
    6
  9
$SURFU
 70
    6
  9
$SURFV
 70
    6
  9
$UCSBASE
  2

  9
$UCSNAME
  2

  9
$UCSORG
 10
0
 20
0
 30
0
  9
$UCSXDIR
 10
1
 20
0
 30
0
  9
$UCSYDIR
 10
0
 20
1
 30
0
  9
$UCSORTHOREF
  2

  9
$UCSORTHOVIEW
 70
    0
  9
$UCSORGTOP
 10
0
 20
0
 30
0
  9
$UCSORGBOTTOM
 10
0
 20
0
 30
0
  9
$UCSORGLEFT
 10
0
 20
0
 30
0
  9
$UCSORGRIGHT
 10
0
 20
0
 30
0
  9
$UCSORGFRONT
 10
0
 20
0
 30
0
  9
$UCSORGBACK
 10
0
 20
0
 30
0
  9
$PUCSBASE
  2

  9
$PUCSNAME
  2

  9
$PUCSORG
 10
0
 20
0
 30
0
  9
$PUCSXDIR
 10
1
 20
0
 30
0
  9
$PUCSYDIR
 10
0
 20
1
 30
0
  9
$PUCSORTHOREF
  2

  9
$PUCSORTHOVIEW
 70
    0
  9
$PUCSORGTOP
 10
0
 20
0
 30
0
  9
$PUCSORGBOTTOM
 10
0
 20
0
 30
0
  9
$PUCSORGLEFT
 10
0
 20
0
 30
0
  9
$PUCSORGRIGHT
 10
0
 20
0
 30
0
  9
$PUCSORGFRONT
 10
0
 20
0
 30
0
  9
$PUCSORGBACK
 10
0
 20
0
 30
0
  9
$USERI1
 70
    0
  9
$USERI2
 70
    0
  9
$USERI3
 70
    0
  9
$USERI4
 70
    0
  9
$USERI5
 70
    0
  9
$USERR1
 40
0
  9
$USERR2
 40
0
  9
$USERR3
 40
0
  9
$USERR4
 40
0
  9
$USERR5
 40
0
  9
$WORLDVIEW
 70
    1
  9
$SHADEDGE
 70
    3
  9
$SHADEDIF
 70
   70
  9
$TILEMODE
 70
    1
  9
$MAXACTVP
 70
   64
  9
$PINSBASE
 10
0
 20
0
 30
0
  9
$PLIMCHECK
 70
    0
  9
$PEXTMIN
 10
0
 20
0
 30
0
  9
$PEXTMAX
 10
0
 20
0
 30
0
  9
$GRIDMODE
 70
    1
  9
$SNAPSTYLE
 70
    0
  9
$PLIMMIN
 10
0
 20
0
  9
$PLIMMAX
 10
210
 20
297
  9
$UNITMODE
 70
    0
  9
$VISRETAIN
 70
    1
  9
$PLINEGEN
 70
    0
  9
$PSLTSCALE
 70
    1
  9
$TREEDEPTH
 70
 3020
  9
$CMLSTYLE
  2
Standard
  9
$CMLJUST
 70
    0
  9
$CMLSCALE
 40
20
  9
$PROXYGRAPHICS
 70
    1
  9
$MEASUREMENT
 70
    1
  9
$CELWEIGHT
370
   -1
  9
$ENDCAPS
280
    0
  9
$JOINSTYLE
280
    0
  9
$LWDISPLAY
290
    0
  9
$INSUNITS
 70
    4
  9
$HYPERLINKBASE
  1

  9
$STYLESHEET
  1

  9
$XEDIT
290
    1
  9
$CEPSNTYPE
380
    0
  9
$PSTYLEMODE
290
    1
  9
$EXTNAMES
290
    1
  9
$PSVPSCALE
 40
1
  9
$OLESTARTUP
290
    0
  9
$SORTENTS
280
  127
  9
$INDEXCTL
280
    0
  9
$HIDETEXT
280
    1
  9
$XCLIPFRAME
290
    0
  9
$HALOGAP
280
    0
  9
$OBSCOLOR
 70
  257
  9
$OBSLTYPE
280
    0
  9
$INTERSECTIONDISPLAY
280
    0
  9
$INTERSECTIONCOLOR
 70
  257
  9
$DIMASSOC
280
    1
  9
$PROJECTNAME
  1

  9
$CAMERADISPLAY
290
    0
  9
$LENSLENGTH
 40
50
  9
$CAMERAHEIGHT
 40
0
  9
$STEPSPERSEC
 40
2
  9
$STEPSIZE
 40
50
  9
$3DDWFPREC
 40
2
  9
$PSOLWIDTH
 40
5
  9
$PSOLHEIGHT
 40
80
  9
$LOFTANG1
 40
1.570796326794897
  9
$LOFTANG2
 40
1.570796326794897
  9
$LOFTMAG1
 40
0
  9
$LOFTMAG2
 40
0
  9
$LOFTPARAM
 70
    7
  9
$LOFTNORMALS
280
    1
  9
$LATITUDE
 40
1
  9
$LONGITUDE
 40
1
  9
$NORTHDIRECTION
 40
0
  9
$TIMEZONE
 70
-8000
  9
$LIGHTGLYPHDISPLAY
280
    1
  9
$TILEMODELIGHTSYNCH
280
    1
  9
$SOLIDHIST
280
    1
  9
$SHOWHIST
280
    1
  9
$DWFFRAME
280
    2
  9
$DGNFRAME
280
    0
  9
$REALWORLDSCALE
290
    1
  9
$INTERFERECOLOR
 62
    1
  9
$CSHADOW
280
    0
  9
$SHADOWPLANELOCATION
 40
0
  0
ENDSEC
  0
SECTION
  2
CLASSES
  0
ENDSEC
  0
SECTION
  2
TABLES
  0
TABLE
  2
VPORT
  5
8
330
0
100
AcDbSymbolTable
 70
    1
  0
VPORT
  5
31
330
2
100
AcDbSymbolTableRecord
100
AcDbViewportTableRecord
  2
*ACTIVE
 70
    0
 10
0
 20
0
 11
1
 21
1
 12
75.74758135444559
 22
14.07211961301747
 13
0
 23
0
 14
10
 24
10
 15
10
 25
10
 16
0
 26
0
 36
1
 17
0
 27
0
 37
0
 40
178.3201407212057
 41
1.955610357583231
 42
50
 43
0
 44
0
 50
0
 51
0
 71
    0
 72
  100
 73
    1
 74
    3
 75
    0
 76
    1
 77
    0
 78
    0
281
    0
 65
    1
110
0
120
0
130
0
111
1
121
0
131
0
112
0
122
1
132
0
 79
    0
146
0
348
10020
 60
    7
 61
    5
292
1
282
    1
141
0
142
0
 63
  250
421
3358443
  0
ENDTAB
  0
TABLE
  2
LTYPE
  5
5
330
0
100
AcDbSymbolTable
 70
    4
  0
LTYPE
  5
14
330
5
100
AcDbSymbolTableRecord
100
AcDbLinetypeTableRecord
  2
ByBlock
 70
    0
  3

 72
   65
 73
    0
 40
0
  0
LTYPE
  5
15
330
5
100
AcDbSymbolTableRecord
100
AcDbLinetypeTableRecord
  2
ByLayer
 70
    0
  3

 72
   65
 73
    0
 40
0
  0
LTYPE
  5
16
330
5
100
AcDbSymbolTableRecord
100
AcDbLinetypeTableRecord
  2
Continuous
 70
    0
  3
Solid line
 72
   65
 73
    0
 40
0
  0
LTYPE
  5
32
330
5
100
AcDbSymbolTableRecord
100
AcDbLinetypeTableRecord
  2
DOT
 70
    0
  3
Dot . . . . . . . . . . . . . . . . . . . . . .
 72
   65
 73
    2
 40
6.35
 49
0
 74
    0
 49
-6.35
 74
    0
  0
LTYPE
  5
33
330
5
100
AcDbSymbolTableRecord
100
AcDbLinetypeTableRecord
  2
DOTTINY
 70
    0
  3
Dot (.15x) .....................................
 72
   65
 73
    2
 40
0.9525
 49
0
 74
    0
 49
-0.9525
 74
    0
  0
LTYPE
  5
34
330
5
100
AcDbSymbolTableRecord
100
AcDbLinetypeTableRecord
  2
DOT2
 70
    0
  3
Dot (.5x) .....................................
 72
   65
 73
    2
 40
3.175
 49
0
 74
    0
 49
-3.175
 74
    0
  0
LTYPE
  5
35
330
5
100
AcDbSymbolTableRecord
100
AcDbLinetypeTableRecord
  2
DOTX2
 70
    0
  3
Dot (2x) .  .  .  .  .  .  .  .  .  .  .  .  .
 72
   65
 73
    2
 40
12.7
 49
0
 74
    0
 49
-12.7
 74
    0
  0
LTYPE
  5
36
330
5
100
AcDbSymbolTableRecord
100
AcDbLinetypeTableRecord
  2
DASHED
 70
    0
  3
Dashed _ _ _ _ _ _ _ _ _ _ _ _ _ _ _ _ _
 72
   65
 73
    2
 40
19.05
 49
12.7
 74
    0
 49
-6.35
 74
    0
  0
LTYPE
  5
37
330
5
100
AcDbSymbolTableRecord
100
AcDbLinetypeTableRecord
  2
DASHEDTINY
 70
    0
  3
Dashed (.15x) _ _ _ _ _ _ _ _ _ _ _ _ _ _ _ _ _
 72
   65
 73
    2
 40
2.8575
 49
1.905
 74
    0
 49
-0.9525
 74
    0
  0
LTYPE
  5
38
330
5
100
AcDbSymbolTableRecord
100
AcDbLinetypeTableRecord
  2
DASHED2
 70
    0
  3
Dashed (.5x) _ _ _ _ _ _ _ _ _ _ _ _ _ _ _ _ _
 72
   65
 73
    2
 40
9.524999999999999
 49
6.35
 74
    0
 49
-3.175
 74
    0
  0
LTYPE
  5
39
330
5
100
AcDbSymbolTableRecord
100
AcDbLinetypeTableRecord
  2
DASHEDX2
 70
    0
  3
Dashed (2x) ____  ____  ____  ____  ____  ___
 72
   65
 73
    2
 40
38.09999999999999
 49
25.4
 74
    0
 49
-12.7
 74
    0
  0
LTYPE
  5
3A
330
5
100
AcDbSymbolTableRecord
100
AcDbLinetypeTableRecord
  2
DASHDOT
 70
    0
  3
Dash dot __ . __ . __ . __ . __ . __ . __ . __
 72
   65
 73
    4
 40
25.4
 49
12.7
 74
    0
 49
-6.35
 74
    0
 49
0
 74
    0
 49
-6.35
 74
    0
  0
LTYPE
  5
3B
330
5
100
AcDbSymbolTableRecord
100
AcDbLinetypeTableRecord
  2
DASHDOTTINY
 70
    0
  3
Dash dot (.15x) _._._._._._._._._._._._._._._.
 72
   65
 73
    4
 40
3.81
 49
1.905
 74
    0
 49
-0.9525
 74
    0
 49
0
 74
    0
 49
-0.9525
 74
    0
  0
LTYPE
  5
3C
330
5
100
AcDbSymbolTableRecord
100
AcDbLinetypeTableRecord
  2
DASHDOT2
 70
    0
  3
Dash dot (.5x) _._._._._._._._._._._._._._._.
 72
   65
 73
    4
 40
12.7
 49
6.35
 74
    0
 49
-3.175
 74
    0
 49
0
 74
    0
 49
-3.175
 74
    0
  0
LTYPE
  5
3D
330
5
100
AcDbSymbolTableRecord
100
AcDbLinetypeTableRecord
  2
DASHDOTX2
 70
    0
  3
Dash dot (2x) ____  .  ____  .  ____  .  ___
 72
   65
 73
    4
 40
50.8
 49
25.4
 74
    0
 49
-12.7
 74
    0
 49
0
 74
    0
 49
-12.7
 74
    0
  0
LTYPE
  5
3E
330
5
100
AcDbSymbolTableRecord
100
AcDbLinetypeTableRecord
  2
DIVIDE
 70
    0
  3
Divide ____ . . ____ . . ____ . . ____ . . ____
 72
   65
 73
    6
 40
31.75
 49
12.7
 74
    0
 49
-6.35
 74
    0
 49
0
 74
    0
 49
-6.35
 74
    0
 49
0
 74
    0
 49
-6.35
 74
    0
  0
LTYPE
  5
3F
330
5
100
AcDbSymbolTableRecord
100
AcDbLinetypeTableRecord
  2
DIVIDETINY
 70
    0
  3
Divide (.15x) __..__..__..__..__..__..__..__.._
 72
   65
 73
    6
 40
4.7625
 49
1.905
 74
    0
 49
-0.9525
 74
    0
 49
0
 74
    0
 49
-0.9525
 74
    0
 49
0
 74
    0
 49
-0.9525
 74
    0
  0
LTYPE
  5
40
330
5
100
AcDbSymbolTableRecord
100
AcDbLinetypeTableRecord
  2
DIVIDE2
 70
    0
  3
Divide (.5x) __..__..__..__..__..__..__..__.._
 72
   65
 73
    6
 40
15.875
 49
6.35
 74
    0
 49
-3.175
 74
    0
 49
0
 74
    0
 49
-3.175
 74
    0
 49
0
 74
    0
 49
-3.175
 74
    0
  0
LTYPE
  5
41
330
5
100
AcDbSymbolTableRecord
100
AcDbLinetypeTableRecord
  2
DIVIDEX2
 70
    0
  3
Divide (2x) ________  .  .  ________  .  .  _
 72
   65
 73
    6
 40
63.5
 49
25.4
 74
    0
 49
-12.7
 74
    0
 49
0
 74
    0
 49
-12.7
 74
    0
 49
0
 74
    0
 49
-12.7
 74
    0
  0
LTYPE
  5
42
330
5
100
AcDbSymbolTableRecord
100
AcDbLinetypeTableRecord
  2
BORDER
 70
    0
  3
Border __ __ . __ __ . __ __ . __ __ . __ __ .
 72
   65
 73
    6
 40
44.45
 49
12.7
 74
    0
 49
-6.35
 74
    0
 49
12.7
 74
    0
 49
-6.35
 74
    0
 49
0
 74
    0
 49
-6.35
 74
    0
  0
LTYPE
  5
43
330
5
100
AcDbSymbolTableRecord
100
AcDbLinetypeTableRecord
  2
BORDERTINY
 70
    0
  3
Border (.15x) __.__.__.__.__.__.__.__.__.__.__.
 72
   65
 73
    6
 40
6.6675
 49
1.905
 74
    0
 49
-0.9525
 74
    0
 49
1.905
 74
    0
 49
-0.9525
 74
    0
 49
0
 74
    0
 49
-0.9525
 74
    0
  0
LTYPE
  5
44
330
5
100
AcDbSymbolTableRecord
100
AcDbLinetypeTableRecord
  2
BORDER2
 70
    0
  3
Border (.5x) __.__.__.__.__.__.__.__.__.__.__.
 72
   65
 73
    6
 40
22.225
 49
6.35
 74
    0
 49
-3.175
 74
    0
 49
6.35
 74
    0
 49
-3.175
 74
    0
 49
0
 74
    0
 49
-3.175
 74
    0
  0
LTYPE
  5
45
330
5
100
AcDbSymbolTableRecord
100
AcDbLinetypeTableRecord
  2
BORDERX2
 70
    0
  3
Border (2x) ____  ____  .  ____  ____  .  ___
 72
   65
 73
    6
 40
88.89999999999999
 49
25.4
 74
    0
 49
-12.7
 74
    0
 49
25.4
 74
    0
 49
-12.7
 74
    0
 49
0
 74
    0
 49
-12.7
 74
    0
  0
LTYPE
  5
46
330
5
100
AcDbSymbolTableRecord
100
AcDbLinetypeTableRecord
  2
CENTER
 70
    0
  3
Center ____ _ ____ _ ____ _ ____ _ ____ _ ____
 72
   65
 73
    4
 40
50.8
 49
31.75
 74
    0
 49
-6.35
 74
    0
 49
6.35
 74
    0
 49
-6.35
 74
    0
  0
LTYPE
  5
47
330
5
100
AcDbSymbolTableRecord
100
AcDbLinetypeTableRecord
  2
CENTERTINY
 70
    0
  3
Center (.15x) ___ _ ___ _ ___ _ ___ _ ___ _ ___
 72
   65
 73
    4
 40
7.62
 49
4.7625
 74
    0
 49
-0.9525
 74
    0
 49
0.9525
 74
    0
 49
-0.9525
 74
    0
  0
LTYPE
  5
48
330
5
100
AcDbSymbolTableRecord
100
AcDbLinetypeTableRecord
  2
CENTER2
 70
    0
  3
Center (.5x) ___ _ ___ _ ___ _ ___ _ ___ _ ___
 72
   65
 73
    4
 40
28.575
 49
19.05
 74
    0
 49
-3.175
 74
    0
 49
3.175
 74
    0
 49
-3.175
 74
    0
  0
LTYPE
  5
49
330
5
100
AcDbSymbolTableRecord
100
AcDbLinetypeTableRecord
  2
CENTERX2
 70
    0
  3
Center (2x) ________  __  ________  __  _____
 72
   65
 73
    4
 40
101.6
 49
63.5
 74
    0
 49
-12.7
 74
    0
 49
12.7
 74
    0
 49
-12.7
 74
    0
  0
ENDTAB
  0
TABLE
  2
LAYER
  5
2
330
0
100
AcDbSymbolTable
 70
    1
  0
LAYER
  5
10
330
2
100
AcDbSymbolTableRecord
100
AcDbLayerTableRecord
  2
0
 70
    0
 62
    7
  6
CONTINUOUS
370
   -3
390
F
  0
ENDTAB
  0
TABLE
  2
STYLE
  5
3
330
0
100
AcDbSymbolTable
 70
    3
  0
STYLE
  5
4A
330
2
100
AcDbSymbolTableRecord
100
AcDbTextStyleTableRecord
  2
Standard
 70
    0
 40
0
 41
1
 50
0
 71
    0
 42
1
  3
txt
  4

  0
ENDTAB
  0
TABLE
  2
VIEW
  5
6
330
0
100
AcDbSymbolTable
 70
    0
  0
ENDTAB
  0
TABLE
  2
UCS
  5
7
330
0
100
AcDbSymbolTable
 70
    0
  0
ENDTAB
  0
TABLE
  2
APPID
  5
9
330
0
100
AcDbSymbolTable
 70
    1
  0
APPID
  5
12
330
9
100
AcDbSymbolTableRecord
100
AcDbRegAppTableRecord
  2
ACAD
 70
    0
  0
APPID
  5
4B
330
9
100
AcDbSymbolTableRecord
100
AcDbRegAppTableRecord
  2
LibreCad
 70
    0
  0
ENDTAB
  0
TABLE
  2
DIMSTYLE
  5
A
330
0
100
AcDbSymbolTable
 70
    1
100
AcDbDimStyleTable
 71
    1
  0
DIMSTYLE
105
4C
330
A
100
AcDbSymbolTableRecord
100
AcDbDimStyleTableRecord
  2
Standard
 70
    0
 40
2.5
 41
2.5
 42
0.625
 43
0.38
 44
1.25
 45
0
 46
0
 47
0
 48
0
 49
1
140
2.5
141
0.09
142
0
143
25.4
144
1
145
0
146
1
147
0.625
148
0
 71
    0
 72
    0
 73
    0
 74
    1
 75
    0
 76
    0
 77
    0
 78
    8
 79
    0
170
    0
171
    2
172
    0
173
    0
174
    0
175
    0
176
    0
177
    0
178
    0
179
    0
271
    2
272
    4
273
    2
274
    2
275
    0
276
    0
277
    2
278
   44
279
    0
280
    0
281
    0
282
    0
283
    1
284
    0
285
    0
286
    0
288
    0
289
    3
340
STANDARD
341

371
   -2
372
   -2
  0
ENDTAB
  0
TABLE
  2
BLOCK_RECORD
  5
1
330
0
100
AcDbSymbolTable
 70
    2
  0
BLOCK_RECORD
  5
1F
330
1
100
AcDbSymbolTableRecord
100
AcDbBlockTableRecord
  2
*Model_Space
 70
    0
280
    1
281
    0
  0
BLOCK_RECORD
  5
1E
330
1
100
AcDbSymbolTableRecord
100
AcDbBlockTableRecord
  2
*Paper_Space
 70
    0
280
    1
281
    0
  0
BLOCK_RECORD
  5
4D
330
1
100
AcDbSymbolTableRecord
100
AcDbBlockTableRecord
  2
S75_ANSI_625_WK_BKSP_Stabilizers_Only-3
 70
    0
280
    1
281
    0
  0
ENDTAB
  0
ENDSEC
  0
SECTION
  2
BLOCKS
  0
BLOCK
  5
20
330
1F
100
AcDbEntity
  8
0
100
AcDbBlockBegin
  2
*Model_Space
 70
    0
 10
0
 20
0
 30
0
  3
*Model_Space
  1

  0
ENDBLK
  5
21
330
1F
100
AcDbEntity
  8
0
100
AcDbBlockEnd
  0
BLOCK
  5
1C
330
1B
100
AcDbEntity
  8
0
100
AcDbBlockBegin
  2
*Paper_Space
 70
    0
 10
0
 20
0
 30
0
  3
*Paper_Space
  1

  0
ENDBLK
  5
1D
330
1F
100
AcDbEntity
  8
0
100
AcDbBlockEnd
  0
BLOCK
  5
4E
330
4D
100
AcDbEntity
  8
0
100
AcDbBlockBegin
  2
S75_ANSI_625_WK_BKSP_Stabilizers_Only-3
 70
    0
 10
0
 20
0
  3
S75_ANSI_625_WK_BKSP_Stabilizers_Only-3
  1

  0
LINE
  5
50
100
AcDbEntity
  8
0
  6
ByLayer
 62
    0
370
   -1
100
AcDbLine
 10
10.90621
 20
-85.6626
 11
9.380710000000001
 21
-85.6626
  0
LINE
  5
51
100
AcDbEntity
  8
0
  6
ByLayer
 62
    0
370
   -1
100
AcDbLine
 10
9.380710000000001
 20
-85.6626
 11
9.380710000000001
 21
-82.43259999999998
  0
LINE
  5
52
100
AcDbEntity
  8
0
  6
ByLayer
 62
    0
370
   -1
100
AcDbLine
 10
9.380710000000001
 20
-82.43259999999998
 11
2.629710000000001
 21
-82.43259999999998
  0
LINE
  5
53
100
AcDbEntity
  8
0
  6
ByLayer
 62
    0
370
   -1
100
AcDbLine
 10
2.629710000000001
 20
-82.43259999999998
 11
2.629710000000001
 21
-85.6626
  0
LINE
  5
54
100
AcDbEntity
  8
0
  6
ByLayer
 62
    0
370
   -1
100
AcDbLine
 10
2.629710000000001
 20
-85.6626
 11
1.805709999999999
 21
-85.6626
  0
LINE
  5
55
100
AcDbEntity
  8
0
  6
ByLayer
 62
    0
370
   -1
100
AcDbLine
 10
1.805709999999999
 20
-85.6626
 11
1.805709999999999
 21
-88.46119999999999
  0
LINE
  5
56
100
AcDbEntity
  8
0
  6
ByLayer
 62
    0
370
   -1
100
AcDbLine
 10
1.805709999999999
 20
-88.46119999999999
 11
2.629710000000001
 21
-88.46119999999999
  0
LINE
  5
57
100
AcDbEntity
  8
0
  6
ByLayer
 62
    0
370
   -1
100
AcDbLine
 10
2.629710000000001
 20
-88.46119999999999
 11
2.629710000000001
 21
-94.73149999999998
  0
LINE
  5
58
100
AcDbEntity
  8
0
  6
ByLayer
 62
    0
370
   -1
100
AcDbLine
 10
2.629710000000001
 20
-94.73149999999998
 11
4.35641
 21
-94.73149999999998
  0
LINE
  5
59
100
AcDbEntity
  8
0
  6
ByLayer
 62
    0
370
   -1
100
AcDbLine
 10
4.35641
 20
-94.73149999999998
 11
4.35641
 21
-95.93169999999999
  0
LINE
  5
5A
100
AcDbEntity
  8
0
  6
ByLayer
 62
    0
370
   -1
100
AcDbLine
 10
4.35641
 20
-95.93169999999999
 11
7.65681
 21
-95.93169999999999
  0
LINE
  5
5B
100
AcDbEntity
  8
0
  6
ByLayer
 62
    0
370
   -1
100
AcDbLine
 10
7.65681
 20
-95.93169999999999
 11
7.65681
 21
-94.73149999999998
  0
LINE
  5
5C
100
AcDbEntity
  8
0
  6
ByLayer
 62
    0
370
   -1
100
AcDbLine
 10
7.65681
 20
-94.73149999999998
 11
9.380710000000001
 21
-94.73149999999998
  0
LINE
  5
5D
100
AcDbEntity
  8
0
  6
ByLayer
 62
    0
370
   -1
100
AcDbLine
 10
9.380710000000001
 20
-94.73149999999998
 11
9.380710000000001
 21
-90.26249999999999
  0
LINE
  5
5E
100
AcDbEntity
  8
0
  6
ByLayer
 62
    0
370
   -1
100
AcDbLine
 10
9.380710000000001
 20
-90.26249999999999
 11
10.90621
 21
-90.26249999999999
  0
LINE
  5
5F
100
AcDbEntity
  8
0
  6
ByLayer
 62
    0
370
   -1
100
AcDbLine
 10
24.90571
 20
-90.26249999999999
 11
26.43121
 21
-90.26249999999999
  0
LINE
  5
60
100
AcDbEntity
  8
0
  6
ByLayer
 62
    0
370
   -1
100
AcDbLine
 10
26.43121
 20
-90.26249999999999
 11
26.43121
 21
-94.73149999999998
  0
LINE
  5
61
100
AcDbEntity
  8
0
  6
ByLayer
 62
    0
370
   -1
100
AcDbLine
 10
26.43121
 20
-94.73149999999998
 11
28.15651
 21
-94.73149999999998
  0
LINE
  5
62
100
AcDbEntity
  8
0
  6
ByLayer
 62
    0
370
   -1
100
AcDbLine
 10
28.15651
 20
-94.73149999999998
 11
28.15651
 21
-95.93169999999999
  0
LINE
  5
63
100
AcDbEntity
  8
0
  6
ByLayer
 62
    0
370
   -1
100
AcDbLine
 10
28.15651
 20
-95.93169999999999
 11
31.45711
 21
-95.93169999999999
  0
LINE
  5
64
100
AcDbEntity
  8
0
  6
ByLayer
 62
    0
370
   -1
100
AcDbLine
 10
31.45711
 20
-95.93169999999999
 11
31.45711
 21
-94.73149999999998
  0
LINE
  5
65
100
AcDbEntity
  8
0
  6
ByLayer
 62
    0
370
   -1
100
AcDbLine
 10
31.45711
 20
-94.73149999999998
 11
33.18071
 21
-94.73149999999998
  0
LINE
  5
66
100
AcDbEntity
  8
0
  6
ByLayer
 62
    0
370
   -1
100
AcDbLine
 10
33.18071
 20
-94.73149999999998
 11
33.18071
 21
-88.46119999999999
  0
LINE
  5
67
100
AcDbEntity
  8
0
  6
ByLayer
 62
    0
370
   -1
100
AcDbLine
 10
33.18071
 20
-88.46119999999999
 11
34.00621
 21
-88.46119999999999
  0
LINE
  5
68
100
AcDbEntity
  8
0
  6
ByLayer
 62
    0
370
   -1
100
AcDbLine
 10
34.00621
 20
-88.46119999999999
 11
34.00621
 21
-85.6626
  0
LINE
  5
69
100
AcDbEntity
  8
0
  6
ByLayer
 62
    0
370
   -1
100
AcDbLine
 10
34.00621
 20
-85.6626
 11
33.18071
 21
-85.6626
  0
LINE
  5
6A
100
AcDbEntity
  8
0
  6
ByLayer
 62
    0
370
   -1
100
AcDbLine
 10
33.18071
 20
-85.6626
 11
33.18071
 21
-82.43259999999998
  0
LINE
  5
6B
100
AcDbEntity
  8
0
  6
ByLayer
 62
    0
370
   -1
100
AcDbLine
 10
33.18071
 20
-82.43259999999998
 11
26.43121
 21
-82.43259999999998
  0
LINE
  5
6C
100
AcDbEntity
  8
0
  6
ByLayer
 62
    0
370
   -1
100
AcDbLine
 10
26.43121
 20
-82.43259999999998
 11
26.43121
 21
-85.6626
  0
LINE
  5
6D
100
AcDbEntity
  8
0
  6
ByLayer
 62
    0
370
   -1
100
AcDbLine
 10
26.43121
 20
-85.6626
 11
24.90571
 21
-85.6626
  0
LINE
  5
6E
100
AcDbEntity
  8
0
  6
ByLayer
 62
    0
370
   -1
100
AcDbLine
 10
253.79381
 20
-66.61259999999999
 11
252.26781
 21
-66.61259999999999
  0
LINE
  5
6F
100
AcDbEntity
  8
0
  6
ByLayer
 62
    0
370
   -1
100
AcDbLine
 10
252.26781
 20
-66.61259999999999
 11
252.26781
 21
-63.3826
  0
LINE
  5
70
100
AcDbEntity
  8
0
  6
ByLayer
 62
    0
370
   -1
100
AcDbLine
 10
252.26781
 20
-63.3826
 11
245.51881
 21
-63.3826
  0
LINE
  5
71
100
AcDbEntity
  8
0
  6
ByLayer
 62
    0
370
   -1
100
AcDbLine
 10
245.51881
 20
-63.3826
 11
245.51881
 21
-66.61259999999999
  0
LINE
  5
72
100
AcDbEntity
  8
0
  6
ByLayer
 62
    0
370
   -1
100
AcDbLine
 10
245.51881
 20
-66.61259999999999
 11
244.69281
 21
-66.61259999999999
  0
LINE
  5
73
100
AcDbEntity
  8
0
  6
ByLayer
 62
    0
370
   -1
100
AcDbLine
 10
244.69281
 20
-66.61259999999999
 11
244.69281
 21
-69.41119999999999
  0
LINE
  5
74
100
AcDbEntity
  8
0
  6
ByLayer
 62
    0
370
   -1
100
AcDbLine
 10
244.69281
 20
-69.41119999999999
 11
245.51881
 21
-69.41119999999999
  0
LINE
  5
75
100
AcDbEntity
  8
0
  6
ByLayer
 62
    0
370
   -1
100
AcDbLine
 10
245.51881
 20
-69.41119999999999
 11
245.51881
 21
-75.68149999999999
  0
LINE
  5
76
100
AcDbEntity
  8
0
  6
ByLayer
 62
    0
370
   -1
100
AcDbLine
 10
245.51881
 20
-75.68149999999999
 11
247.24281
 21
-75.68149999999999
  0
LINE
  5
77
100
AcDbEntity
  8
0
  6
ByLayer
 62
    0
370
   -1
100
AcDbLine
 10
247.24281
 20
-75.68149999999999
 11
247.24281
 21
-76.8817
  0
LINE
  5
78
100
AcDbEntity
  8
0
  6
ByLayer
 62
    0
370
   -1
100
AcDbLine
 10
247.24281
 20
-76.8817
 11
250.54281
 21
-76.8817
  0
LINE
  5
79
100
AcDbEntity
  8
0
  6
ByLayer
 62
    0
370
   -1
100
AcDbLine
 10
250.54281
 20
-76.8817
 11
250.54281
 21
-75.68149999999999
  0
LINE
  5
7A
100
AcDbEntity
  8
0
  6
ByLayer
 62
    0
370
   -1
100
AcDbLine
 10
250.54281
 20
-75.68149999999999
 11
252.26781
 21
-75.68149999999999
  0
LINE
  5
7B
100
AcDbEntity
  8
0
  6
ByLayer
 62
    0
370
   -1
100
AcDbLine
 10
252.26781
 20
-75.68149999999999
 11
252.26781
 21
-71.21249999999999
  0
LINE
  5
7C
100
AcDbEntity
  8
0
  6
ByLayer
 62
    0
370
   -1
100
AcDbLine
 10
252.26781
 20
-71.21249999999999
 11
253.79381
 21
-71.21249999999999
  0
LINE
  5
7D
100
AcDbEntity
  8
0
  6
ByLayer
 62
    0
370
   -1
100
AcDbLine
 10
267.79281
 20
-71.21249999999999
 11
269.31881
 21
-71.21249999999999
  0
LINE
  5
7E
100
AcDbEntity
  8
0
  6
ByLayer
 62
    0
370
   -1
100
AcDbLine
 10
269.31881
 20
-71.21249999999999
 11
269.31881
 21
-75.68149999999999
  0
LINE
  5
7F
100
AcDbEntity
  8
0
  6
ByLayer
 62
    0
370
   -1
100
AcDbLine
 10
269.31881
 20
-75.68149999999999
 11
271.04281
 21
-75.68149999999999
  0
LINE
  5
80
100
AcDbEntity
  8
0
  6
ByLayer
 62
    0
370
   -1
100
AcDbLine
 10
271.04281
 20
-75.68149999999999
 11
271.04281
 21
-76.8817
  0
LINE
  5
81
100
AcDbEntity
  8
0
  6
ByLayer
 62
    0
370
   -1
100
AcDbLine
 10
271.04281
 20
-76.8817
 11
274.34281
 21
-76.8817
  0
LINE
  5
82
100
AcDbEntity
  8
0
  6
ByLayer
 62
    0
370
   -1
100
AcDbLine
 10
274.34281
 20
-76.8817
 11
274.34281
 21
-75.68149999999999
  0
LINE
  5
83
100
AcDbEntity
  8
0
  6
ByLayer
 62
    0
370
   -1
100
AcDbLine
 10
274.34281
 20
-75.68149999999999
 11
276.06781
 21
-75.68149999999999
  0
LINE
  5
84
100
AcDbEntity
  8
0
  6
ByLayer
 62
    0
370
   -1
100
AcDbLine
 10
276.06781
 20
-75.68149999999999
 11
276.06781
 21
-69.41119999999999
  0
LINE
  5
85
100
AcDbEntity
  8
0
  6
ByLayer
 62
    0
370
   -1
100
AcDbLine
 10
276.06781
 20
-69.41119999999999
 11
276.89381
 21
-69.41119999999999
  0
LINE
  5
86
100
AcDbEntity
  8
0
  6
ByLayer
 62
    0
370
   -1
100
AcDbLine
 10
276.89381
 20
-69.41119999999999
 11
276.89381
 21
-66.61259999999999
  0
LINE
  5
87
100
AcDbEntity
  8
0
  6
ByLayer
 62
    0
370
   -1
100
AcDbLine
 10
276.89381
 20
-66.61259999999999
 11
276.06781
 21
-66.61259999999999
  0
LINE
  5
88
100
AcDbEntity
  8
0
  6
ByLayer
 62
    0
370
   -1
100
AcDbLine
 10
276.06781
 20
-66.61259999999999
 11
276.06781
 21
-63.3826
  0
LINE
  5
89
100
AcDbEntity
  8
0
  6
ByLayer
 62
    0
370
   -1
100
AcDbLine
 10
276.06781
 20
-63.3826
 11
269.31881
 21
-63.3826
  0
LINE
  5
8A
100
AcDbEntity
  8
0
  6
ByLayer
 62
    0
370
   -1
100
AcDbLine
 10
269.31881
 20
-63.3826
 11
269.31881
 21
-66.61259999999999
  0
LINE
  5
8B
100
AcDbEntity
  8
0
  6
ByLayer
 62
    0
370
   -1
100
AcDbLine
 10
269.31881
 20
-66.61259999999999
 11
267.79281
 21
-66.61259999999999
  0
LINE
  5
8C
100
AcDbEntity
  8
0
  6
ByLayer
 62
    0
370
   -1
100
AcDbLine
 10
256.17481
 20
-28.51299999999999
 11
254.65081
 21
-28.51299999999999
  0
LINE
  5
8D
100
AcDbEntity
  8
0
  6
ByLayer
 62
    0
370
   -1
100
AcDbLine
 10
254.65081
 20
-28.51299999999999
 11
254.65081
 21
-25.28299999999999
  0
LINE
  5
8E
100
AcDbEntity
  8
0
  6
ByLayer
 62
    0
370
   -1
100
AcDbLine
 10
254.65081
 20
-25.28299999999999
 11
247.89981
 21
-25.28299999999999
  0
LINE
  5
8F
100
AcDbEntity
  8
0
  6
ByLayer
 62
    0
370
   -1
100
AcDbLine
 10
247.89981
 20
-25.28299999999999
 11
247.89981
 21
-28.51299999999999
  0
LINE
  5
90
100
AcDbEntity
  8
0
  6
ByLayer
 62
    0
370
   -1
100
AcDbLine
 10
247.89981
 20
-28.51299999999999
 11
247.07581
 21
-28.51299999999999
  0
LINE
  5
91
100
AcDbEntity
  8
0
  6
ByLayer
 62
    0
370
   -1
100
AcDbLine
 10
247.07581
 20
-28.51299999999999
 11
247.07581
 21
-31.31099999999999
  0
LINE
  5
92
100
AcDbEntity
  8
0
  6
ByLayer
 62
    0
370
   -1
100
AcDbLine
 10
247.07581
 20
-31.31099999999999
 11
247.89981
 21
-31.31099999999999
  0
LINE
  5
93
100
AcDbEntity
  8
0
  6
ByLayer
 62
    0
370
   -1
100
AcDbLine
 10
247.89981
 20
-31.31099999999999
 11
247.89981
 21
-37.58199999999999
  0
LINE
  5
94
100
AcDbEntity
  8
0
  6
ByLayer
 62
    0
370
   -1
100
AcDbLine
 10
247.89981
 20
-37.58199999999999
 11
249.62481
 21
-37.58199999999999
  0
LINE
  5
95
100
AcDbEntity
  8
0
  6
ByLayer
 62
    0
370
   -1
100
AcDbLine
 10
249.62481
 20
-37.58199999999999
 11
249.62481
 21
-38.782
  0
LINE
  5
96
100
AcDbEntity
  8
0
  6
ByLayer
 62
    0
370
   -1
100
AcDbLine
 10
249.62481
 20
-38.782
 11
252.92581
 21
-38.782
  0
LINE
  5
97
100
AcDbEntity
  8
0
  6
ByLayer
 62
    0
370
   -1
100
AcDbLine
 10
252.92581
 20
-38.782
 11
252.92581
 21
-37.58199999999999
  0
LINE
  5
98
100
AcDbEntity
  8
0
  6
ByLayer
 62
    0
370
   -1
100
AcDbLine
 10
252.92581
 20
-37.58199999999999
 11
254.65081
 21
-37.58199999999999
  0
LINE
  5
99
100
AcDbEntity
  8
0
  6
ByLayer
 62
    0
370
   -1
100
AcDbLine
 10
254.65081
 20
-37.58199999999999
 11
254.65081
 21
-33.11299999999999
  0
LINE
  5
9A
100
AcDbEntity
  8
0
  6
ByLayer
 62
    0
370
   -1
100
AcDbLine
 10
254.65081
 20
-33.11299999999999
 11
256.17481
 21
-33.11299999999999
  0
LINE
  5
9B
100
AcDbEntity
  8
0
  6
ByLayer
 62
    0
370
   -1
100
AcDbLine
 10
270.17581
 20
-33.11299999999999
 11
271.69981
 21
-33.11299999999999
  0
LINE
  5
9C
100
AcDbEntity
  8
0
  6
ByLayer
 62
    0
370
   -1
100
AcDbLine
 10
271.69981
 20
-33.11299999999999
 11
271.69981
 21
-37.58199999999999
  0
LINE
  5
9D
100
AcDbEntity
  8
0
  6
ByLayer
 62
    0
370
   -1
100
AcDbLine
 10
271.69981
 20
-37.58199999999999
 11
273.42481
 21
-37.58199999999999
  0
LINE
  5
9E
100
AcDbEntity
  8
0
  6
ByLayer
 62
    0
370
   -1
100
AcDbLine
 10
273.42481
 20
-37.58199999999999
 11
273.42481
 21
-38.782
  0
LINE
  5
9F
100
AcDbEntity
  8
0
  6
ByLayer
 62
    0
370
   -1
100
AcDbLine
 10
273.42481
 20
-38.782
 11
276.72581
 21
-38.782
  0
LINE
  5
A0
100
AcDbEntity
  8
0
  6
ByLayer
 62
    0
370
   -1
100
AcDbLine
 10
276.72581
 20
-38.782
 11
276.72581
 21
-37.58199999999999
  0
LINE
  5
A1
100
AcDbEntity
  8
0
  6
ByLayer
 62
    0
370
   -1
100
AcDbLine
 10
276.72581
 20
-37.58199999999999
 11
278.45081
 21
-37.58199999999999
  0
LINE
  5
A2
100
AcDbEntity
  8
0
  6
ByLayer
 62
    0
370
   -1
100
AcDbLine
 10
278.45081
 20
-37.58199999999999
 11
278.45081
 21
-31.31099999999999
  0
LINE
  5
A3
100
AcDbEntity
  8
0
  6
ByLayer
 62
    0
370
   -1
100
AcDbLine
 10
278.45081
 20
-31.31099999999999
 11
279.27481
 21
-31.31099999999999
  0
LINE
  5
A4
100
AcDbEntity
  8
0
  6
ByLayer
 62
    0
370
   -1
100
AcDbLine
 10
279.27481
 20
-31.31099999999999
 11
279.27481
 21
-28.51299999999999
  0
LINE
  5
A5
100
AcDbEntity
  8
0
  6
ByLayer
 62
    0
370
   -1
100
AcDbLine
 10
279.27481
 20
-28.51299999999999
 11
278.45081
 21
-28.51299999999999
  0
LINE
  5
A6
100
AcDbEntity
  8
0
  6
ByLayer
 62
    0
370
   -1
100
AcDbLine
 10
278.45081
 20
-28.51299999999999
 11
278.45081
 21
-25.28299999999999
  0
LINE
  5
A7
100
AcDbEntity
  8
0
  6
ByLayer
 62
    0
370
   -1
100
AcDbLine
 10
278.45081
 20
-25.28299999999999
 11
271.69981
 21
-25.28299999999999
  0
LINE
  5
A8
100
AcDbEntity
  8
0
  6
ByLayer
 62
    0
370
   -1
100
AcDbLine
 10
271.69981
 20
-25.28299999999999
 11
271.69981
 21
-28.51299999999999
  0
LINE
  5
A9
100
AcDbEntity
  8
0
  6
ByLayer
 62
    0
370
   -1
100
AcDbLine
 10
271.69981
 20
-28.51299999999999
 11
270.17581
 21
-28.51299999999999
  0
LINE
  5
AA
100
AcDbEntity
  8
0
  6
ByLayer
 62
    0
370
   -1
100
AcDbLine
 10
10.90621
 20
-90.26249999999999
 11
10.90621
 21
-93.96149999999999
  0
ARC
  5
AB
100
AcDbEntity
  8
0
  6
ByLayer
 62
  256
370
   -1
100
AcDbCircle
 10
11.90621
 20
-93.96149999999999
 40
1
100
AcDbArc
 50
180
 51
270
  0
LINE
  5
AC
100
AcDbEntity
  8
0
  6
ByLayer
 62
    0
370
   -1
100
AcDbLine
 10
10.90621
 20
-81.9622
 11
10.90621
 21
-85.6626
  0
ARC
  5
AD
100
AcDbEntity
  8
0
  6
ByLayer
 62
  256
370
   -1
100
AcDbCircle
 10
11.90621
 20
-81.9622
 40
1
100
AcDbArc
 50
90
 51
180
  0
LINE
  5
AE
100
AcDbEntity
  8
0
  6
ByLayer
 62
    0
370
   -1
100
AcDbLine
 10
24.90571
 20
-85.6626
 11
24.90571
 21
-81.9622
  0
LINE
  5
AF
100
AcDbEntity
  8
0
  6
ByLayer
 62
    0
370
   -1
100
AcDbLine
 10
23.90571
 20
-80.9622
 11
11.90621
 21
-80.9622
  0
ARC
  5
B0
100
AcDbEntity
  8
0
  6
ByLayer
 62
  256
370
   -1
100
AcDbCircle
 10
23.90571
 20
-81.9622
 40
1
100
AcDbArc
 50
0
 51
90
  0
LINE
  5
B1
100
AcDbEntity
  8
0
  6
ByLayer
 62
    0
370
   -1
100
AcDbLine
 10
11.90621
 20
-94.96149999999999
 11
23.90571
 21
-94.96149999999999
  0
LINE
  5
B2
100
AcDbEntity
  8
0
  6
ByLayer
 62
    0
370
   -1
100
AcDbLine
 10
24.90571
 20
-93.96149999999999
 11
24.90571
 21
-90.26249999999999
  0
ARC
  5
B3
100
AcDbEntity
  8
0
  6
ByLayer
 62
  256
370
   -1
100
AcDbCircle
 10
23.90571
 20
-93.96149999999999
 40
1
100
AcDbArc
 50
270
 51
0
  0
LINE
  5
B4
100
AcDbEntity
  8
0
  6
ByLayer
 62
    0
370
   -1
100
AcDbLine
 10
253.79381
 20
-71.21249999999999
 11
253.79381
 21
-74.91149999999999
  0
ARC
  5
B5
100
AcDbEntity
  8
0
  6
ByLayer
 62
  256
370
   -1
100
AcDbCircle
 10
254.79381
 20
-74.91149999999999
 40
1
100
AcDbArc
 50
180
 51
270
  0
LINE
  5
B6
100
AcDbEntity
  8
0
  6
ByLayer
 62
    0
370
   -1
100
AcDbLine
 10
254.79381
 20
-75.91149999999999
 11
266.79281
 21
-75.91149999999999
  0
LINE
  5
B7
100
AcDbEntity
  8
0
  6
ByLayer
 62
    0
370
   -1
100
AcDbLine
 10
267.79281
 20
-74.91149999999999
 11
267.79281
 21
-71.21249999999999
  0
ARC
  5
B8
100
AcDbEntity
  8
0
  6
ByLayer
 62
  256
370
   -1
100
AcDbCircle
 10
266.79281
 20
-74.91149999999999
 40
1
100
AcDbArc
 50
270
 51
0
  0
LINE
  5
B9
100
AcDbEntity
  8
0
  6
ByLayer
 62
    0
370
   -1
100
AcDbLine
 10
267.79281
 20
-66.61259999999999
 11
267.79281
 21
-62.91219999999998
  0
ARC
  5
BA
100
AcDbEntity
  8
0
  6
ByLayer
 62
  256
370
   -1
100
AcDbCircle
 10
266.79281
 20
-62.91219999999998
 40
1
100
AcDbArc
 50
0
 51
90
  0
LINE
  5
BB
100
AcDbEntity
  8
0
  6
ByLayer
 62
    0
370
   -1
100
AcDbLine
 10
253.79381
 20
-62.91219999999998
 11
253.79381
 21
-66.61259999999999
  0
LINE
  5
BC
100
AcDbEntity
  8
0
  6
ByLayer
 62
    0
370
   -1
100
AcDbLine
 10
266.79281
 20
-61.91219999999998
 11
254.79381
 21
-61.91219999999998
  0
ARC
  5
BD
100
AcDbEntity
  8
0
  6
ByLayer
 62
  256
370
   -1
100
AcDbCircle
 10
254.79381
 20
-62.91219999999998
 40
1
100
AcDbArc
 50
90
 51
180
  0
LINE
  5
BE
100
AcDbEntity
  8
0
  6
ByLayer
 62
    0
370
   -1
100
AcDbLine
 10
256.17481
 20
-24.81199999999998
 11
256.17481
 21
-28.51299999999999
  0
ARC
  5
BF
100
AcDbEntity
  8
0
  6
ByLayer
 62
  256
370
   -1
100
AcDbCircle
 10
257.17481
 20
-24.81199999999998
 40
1
100
AcDbArc
 50
90
 51
180
  0
LINE
  5
C0
100
AcDbEntity
  8
0
  6
ByLayer
 62
    0
370
   -1
100
AcDbLine
 10
269.17581
 20
-23.81199999999998
 11
257.17481
 21
-23.81199999999998
  0
LINE
  5
C1
100
AcDbEntity
  8
0
  6
ByLayer
 62
    0
370
   -1
100
AcDbLine
 10
270.17581
 20
-28.51299999999999
 11
270.17581
 21
-24.81199999999998
  0
ARC
  5
C2
100
AcDbEntity
  8
0
  6
ByLayer
 62
  256
370
   -1
100
AcDbCircle
 10
269.17581
 20
-24.81199999999998
 40
1
100
AcDbArc
 50
0
 51
90
  0
LINE
  5
C3
100
AcDbEntity
  8
0
  6
ByLayer
 62
    0
370
   -1
100
AcDbLine
 10
270.17581
 20
-36.81199999999998
 11
270.17581
 21
-33.11299999999999
  0
ARC
  5
C4
100
AcDbEntity
  8
0
  6
ByLayer
 62
  256
370
   -1
100
AcDbCircle
 10
269.17581
 20
-36.81199999999998
 40
1
100
AcDbArc
 50
270
 51
0
  0
LINE
  5
C5
100
AcDbEntity
  8
0
  6
ByLayer
 62
    0
370
   -1
100
AcDbLine
 10
257.17481
 20
-37.81199999999998
 11
269.17581
 21
-37.81199999999998
  0
LINE
  5
C6
100
AcDbEntity
  8
0
  6
ByLayer
 62
    0
370
   -1
100
AcDbLine
 10
256.17481
 20
-33.11299999999999
 11
256.17481
 21
-36.81199999999998
  0
ARC
  5
C7
100
AcDbEntity
  8
0
  6
ByLayer
 62
  256
370
   -1
100
AcDbCircle
 10
257.17481
 20
-36.81199999999998
 40
1
100
AcDbArc
 50
180
 51
270
  0
LINE
  5
C8
100
AcDbEntity
  8
0
  6
ByLayer
 62
    0
370
   -1
100
AcDbLine
 10
120.44381
 20
-109.3112
 11
80.81810999999999
 21
-109.3112
  0
LINE
  5
C9
100
AcDbEntity
  8
0
  6
ByLayer
 62
    0
370
   -1
100
AcDbLine
 10
80.81810999999999
 20
-109.3112
 11
80.81810999999999
 21
-112.5412
  0
LINE
  5
CA
100
AcDbEntity
  8
0
  6
ByLayer
 62
    0
370
   -1
100
AcDbLine
 10
80.81810999999999
 20
-112.5412
 11
74.06871
 21
-112.5412
  0
LINE
  5
CB
100
AcDbEntity
  8
0
  6
ByLayer
 62
    0
370
   -1
100
AcDbLine
 10
74.06871
 20
-112.5412
 11
74.06871
 21
-109.3112
  0
LINE
  5
CC
100
AcDbEntity
  8
0
  6
ByLayer
 62
    0
370
   -1
100
AcDbLine
 10
74.06871
 20
-109.3112
 11
73.24320999999999
 21
-109.3112
  0
LINE
  5
CD
100
AcDbEntity
  8
0
  6
ByLayer
 62
    0
370
   -1
100
AcDbLine
 10
73.24320999999999
 20
-109.3112
 11
73.24320999999999
 21
-106.5126
  0
LINE
  5
CE
100
AcDbEntity
  8
0
  6
ByLayer
 62
    0
370
   -1
100
AcDbLine
 10
73.24320999999999
 20
-106.5126
 11
74.06871
 21
-106.5126
  0
LINE
  5
CF
100
AcDbEntity
  8
0
  6
ByLayer
 62
    0
370
   -1
100
AcDbLine
 10
74.06871
 20
-106.5126
 11
74.06871
 21
-100.2423
  0
LINE
  5
D0
100
AcDbEntity
  8
0
  6
ByLayer
 62
    0
370
   -1
100
AcDbLine
 10
74.06871
 20
-100.2423
 11
75.79380999999999
 21
-100.2423
  0
LINE
  5
D1
100
AcDbEntity
  8
0
  6
ByLayer
 62
    0
370
   -1
100
AcDbLine
 10
75.79380999999999
 20
-100.2423
 11
75.79380999999999
 21
-99.04209999999999
  0
LINE
  5
D2
100
AcDbEntity
  8
0
  6
ByLayer
 62
    0
370
   -1
100
AcDbLine
 10
75.79380999999999
 20
-99.04209999999999
 11
79.09300999999999
 21
-99.04209999999999
  0
LINE
  5
D3
100
AcDbEntity
  8
0
  6
ByLayer
 62
    0
370
   -1
100
AcDbLine
 10
79.09300999999999
 20
-99.04209999999999
 11
79.09300999999999
 21
-100.2423
  0
LINE
  5
D4
100
AcDbEntity
  8
0
  6
ByLayer
 62
    0
370
   -1
100
AcDbLine
 10
79.09300999999999
 20
-100.2423
 11
80.81810999999999
 21
-100.2423
  0
LINE
  5
D5
100
AcDbEntity
  8
0
  6
ByLayer
 62
    0
370
   -1
100
AcDbLine
 10
80.81810999999999
 20
-100.2423
 11
80.81810999999999
 21
-104.7113
  0
LINE
  5
D6
100
AcDbEntity
  8
0
  6
ByLayer
 62
    0
370
   -1
100
AcDbLine
 10
80.81810999999999
 20
-104.7113
 11
120.44381
 21
-104.7113
  0
LINE
  5
D7
100
AcDbEntity
  8
0
  6
ByLayer
 62
    0
370
   -1
100
AcDbLine
 10
134.44281
 20
-104.7113
 11
174.06881
 21
-104.7113
  0
LINE
  5
D8
100
AcDbEntity
  8
0
  6
ByLayer
 62
    0
370
   -1
100
AcDbLine
 10
174.06881
 20
-104.7113
 11
174.06881
 21
-100.2423
  0
LINE
  5
D9
100
AcDbEntity
  8
0
  6
ByLayer
 62
    0
370
   -1
100
AcDbLine
 10
174.06881
 20
-100.2423
 11
175.79281
 21
-100.2423
  0
LINE
  5
DA
100
AcDbEntity
  8
0
  6
ByLayer
 62
    0
370
   -1
100
AcDbLine
 10
175.79281
 20
-100.2423
 11
175.79281
 21
-99.04209999999999
  0
LINE
  5
DB
100
AcDbEntity
  8
0
  6
ByLayer
 62
    0
370
   -1
100
AcDbLine
 10
175.79281
 20
-99.04209999999999
 11
179.09281
 21
-99.04209999999999
  0
LINE
  5
DC
100
AcDbEntity
  8
0
  6
ByLayer
 62
    0
370
   -1
100
AcDbLine
 10
179.09281
 20
-99.04209999999999
 11
179.09281
 21
-100.2423
  0
LINE
  5
DD
100
AcDbEntity
  8
0
  6
ByLayer
 62
    0
370
   -1
100
AcDbLine
 10
179.09281
 20
-100.2423
 11
180.81781
 21
-100.2423
  0
LINE
  5
DE
100
AcDbEntity
  8
0
  6
ByLayer
 62
    0
370
   -1
100
AcDbLine
 10
180.81781
 20
-100.2423
 11
180.81781
 21
-106.5126
  0
LINE
  5
DF
100
AcDbEntity
  8
0
  6
ByLayer
 62
    0
370
   -1
100
AcDbLine
 10
180.81781
 20
-106.5126
 11
181.64381
 21
-106.5126
  0
LINE
  5
E0
100
AcDbEntity
  8
0
  6
ByLayer
 62
    0
370
   -1
100
AcDbLine
 10
181.64381
 20
-106.5126
 11
181.64381
 21
-109.3112
  0
LINE
  5
E1
100
AcDbEntity
  8
0
  6
ByLayer
 62
    0
370
   -1
100
AcDbLine
 10
181.64381
 20
-109.3112
 11
180.81781
 21
-109.3112
  0
LINE
  5
E2
100
AcDbEntity
  8
0
  6
ByLayer
 62
    0
370
   -1
100
AcDbLine
 10
180.81781
 20
-109.3112
 11
180.81781
 21
-112.5412
  0
LINE
  5
E3
100
AcDbEntity
  8
0
  6
ByLayer
 62
    0
370
   -1
100
AcDbLine
 10
180.81781
 20
-112.5412
 11
174.06881
 21
-112.5412
  0
LINE
  5
E4
100
AcDbEntity
  8
0
  6
ByLayer
 62
    0
370
   -1
100
AcDbLine
 10
174.06881
 20
-112.5412
 11
174.06881
 21
-109.3112
  0
LINE
  5
E5
100
AcDbEntity
  8
0
  6
ByLayer
 62
    0
370
   -1
100
AcDbLine
 10
174.06881
 20
-109.3112
 11
134.44281
 21
-109.3112
  0
LINE
  5
E6
100
AcDbEntity
  8
0
  6
ByLayer
 62
    0
370
   -1
100
AcDbLine
 10
120.44381
 20
-104.7113
 11
120.44381
 21
-101.0122
  0
ARC
  5
E7
100
AcDbEntity
  8
0
  6
ByLayer
 62
  256
370
   -1
100
AcDbCircle
 10
121.44381
 20
-101.0122
 40
1
100
AcDbArc
 50
90
 51
180
  0
LINE
  5
E8
100
AcDbEntity
  8
0
  6
ByLayer
 62
    0
370
   -1
100
AcDbLine
 10
120.44381
 20
-113.0116
 11
120.44381
 21
-109.3112
  0
ARC
  5
E9
100
AcDbEntity
  8
0
  6
ByLayer
 62
  256
370
   -1
100
AcDbCircle
 10
121.44381
 20
-113.0116
 40
1
100
AcDbArc
 50
180
 51
270
  0
LINE
  5
EA
100
AcDbEntity
  8
0
  6
ByLayer
 62
    0
370
   -1
100
AcDbLine
 10
134.44281
 20
-109.3112
 11
134.44281
 21
-113.0116
  0
LINE
  5
EB
100
AcDbEntity
  8
0
  6
ByLayer
 62
    0
370
   -1
100
AcDbLine
 10
133.44281
 20
-114.0116
 11
121.44381
 21
-114.0116
  0
ARC
  5
EC
100
AcDbEntity
  8
0
  6
ByLayer
 62
  256
370
   -1
100
AcDbCircle
 10
133.44281
 20
-113.0116
 40
1
100
AcDbArc
 50
270
 51
0
  0
LINE
  5
ED
100
AcDbEntity
  8
0
  6
ByLayer
 62
    0
370
   -1
100
AcDbLine
 10
121.44381
 20
-100.0122
 11
133.44281
 21
-100.0122
  0
LINE
  5
EE
100
AcDbEntity
  8
0
  6
ByLayer
 62
    0
370
   -1
100
AcDbLine
 10
134.44281
 20
-101.0122
 11
134.44281
 21
-104.7113
  0
ARC
  5
EF
100
AcDbEntity
  8
0
  6
ByLayer
 62
  256
370
   -1
100
AcDbCircle
 10
133.44281
 20
-101.0122
 40
1
100
AcDbArc
 50
0
 51
90
  0
LINE
  5
F0
100
AcDbEntity
  8
0
  6
ByLayer
 62
  256
370
   -1
100
AcDbLine
 10
133.44281
 20
-100.0122
 11
121.44381
 21
-100.0122
  0
ARC
  5
F1
100
AcDbEntity
  8
0
  6
ByLayer
 62
  256
370
   -1
100
AcDbCircle
 10
0
 20
-1
 40
1
100
AcDbArc
 50
90
 51
180
  0
LINE
  5
F2
100
AcDbEntity
  8
0
  6
ByLayer
 62
    0
370
   -1
100
AcDbLine
 10
0
 20
0
 11
12.00091
 21
0
  0
ARC
  5
F3
100
AcDbEntity
  8
0
  6
ByLayer
 62
  256
370
   -1
100
AcDbCircle
 10
12.00091
 20
-1
 40
1
100
AcDbArc
 50
0
 51
90
  0
LINE
  5
F4
100
AcDbEntity
  8
0
  6
ByLayer
 62
    0
370
   -1
100
AcDbLine
 10
13.00091
 20
-1
 11
13.00091
 21
-13
  0
ARC
  5
F5
100
AcDbEntity
  8
0
  6
ByLayer
 62
  256
370
   -1
100
AcDbCircle
 10
12.00091
 20
-13
 40
1
100
AcDbArc
 50
270
 51
0
  0
LINE
  5
F6
100
AcDbEntity
  8
0
  6
ByLayer
 62
    0
370
   -1
100
AcDbLine
 10
-1
 20
-13
 11
-1
 21
-1
  0
LINE
  5
F7
100
AcDbEntity
  8
0
  6
ByLayer
 62
    0
370
   -1
100
AcDbLine
 10
12.00091
 20
-14
 11
-1.77635683940025e-15
 21
-14
  0
ARC
  5
F8
100
AcDbEntity
  8
0
  6
ByLayer
 62
  256
370
   -1
100
AcDbCircle
 10
0
 20
-13
 40
1
100
AcDbArc
 50
180
 51
269.9999999999999
  0
ENDBLK
  5
4F
330
4D
100
AcDbEntity
  8
0
100
AcDbBlockEnd
  0
ENDSEC
  0
SECTION
  2
ENTITIES
  0
LWPOLYLINE
  5
F9
100
AcDbEntity
  8
0
  6
ByLayer
 62
  256
370
   -1
100
AcDbPolyline
 90
    8
 70
    1
 43
0
 10
-44.4625
 20
-82.1345468543698
 42
-0.4142135623730929
 10
-43.46250000000001
 20
-83.1345468543698
 10
-43.46250000000001
 20
-95.13454685436982
 42
-0.4142135623730909
 10
-44.4625
 20
-96.13454685436979
 10
-56.46250000000001
 20
-96.13454685436979
 42
-0.4142135623730971
 10
-57.46250000000002
 20
-95.13454685436982
 10
-57.46250000000001
 20
-83.1345468543698
 42
-0.414213562373095
 10
-56.46250000000001
 20
-82.1345468543698
  0
LWPOLYLINE
  5
FA
100
AcDbEntity
  8
0
  6
ByLayer
 62
  256
370
   -1
100
AcDbPolyline
 90
    8
 70
    1
 43
0
 10
-71.75
 20
-45.03454685436981
 10
-71.75
 20
-57.03454685436981
 42
0.414213562373095
 10
-70.75
 20
-58.03454685436981
 10
-58.75
 20
-58.03454685436981
 42
0.414213562373095
 10
-57.75
 20
-57.03454685436981
 10
-57.75
 20
-45.03454685436981
 42
0.4142135623730929
 10
-58.75
 20
-44.03454685436981
 10
-70.75
 20
-44.03454685436981
 42
0.414213562373095
  0
LWPOLYLINE
  5
FB
100
AcDbEntity
  8
0
  6
ByLayer
 62
  256
370
   -1
100
AcDbPolyline
 90
    8
 70
    1
 43
0
 10
-9.837499999999986
 20
-64.0845468543698
 42
-0.4142135623730955
 10
-8.83749999999999
 20
-63.08454685436981
 10
3.162500000000001
 20
-63.08454685436979
 42
-0.4142135623730938
 10
4.16250000000001
 20
-64.0845468543698
 10
4.162499999999997
 20
-76.0845468543698
 42
-0.414213562373094
 10
3.162500000000001
 20
-77.0845468543698
 10
-8.83749999999999
 20
-77.0845468543698
 42
-0.4142135623730945
 10
-9.837499999999988
 20
-76.0845468543698
  0
LWPOLYLINE
  5
FC
100
AcDbEntity
  8
0
  6
ByLayer
 62
  256
370
   -1
100
AcDbPolyline
 90
    8
 70
    1
 43
0
 10
-81.27500000000001
 20
-25.9845468543698
 42
-0.4142135623730909
 10
-80.27500000000002
 20
-24.9845468543698
 10
-68.27500000000001
 20
-24.9845468543698
 42
-0.414213562373095
 10
-67.27500000000001
 20
-25.9845468543698
 10
-67.27500000000001
 20
-37.9845468543698
 42
-0.414213562373095
 10
-68.27500000000001
 20
-38.9845468543698
 10
-80.27500000000002
 20
-38.98454685436982
 42
-0.414213562373095
 10
-81.27500000000003
 20
-37.9845468543698
  0
LWPOLYLINE
  5
FD
100
AcDbEntity
  8
0
  6
ByLayer
 62
  256
370
   -1
100
AcDbPolyline
 90
    8
 70
    1
 43
0
 10
52.07500000000002
 20
-25.9845468543698
 42
-0.4142135623730929
 10
53.07500000000001
 20
-24.9845468543698
 10
65.075
 20
-24.98454685436979
 42
-0.4142135623730981
 10
66.07500000000003
 20
-25.9845468543698
 10
66.075
 20
-37.9845468543698
 42
-0.414213562373095
 10
65.075
 20
-38.9845468543698
 10
53.07500000000001
 20
-38.98454685436982
 42
-0.414213562373095
 10
52.075
 20
-37.9845468543698
  0
LWPOLYLINE
  5
FE
100
AcDbEntity
  8
0
  6
ByLayer
 62
  256
370
   -1
100
AcDbPolyline
 90
    8
 70
    1
 43
0
 10
-28.8875
 20
-64.0845468543698
 42
-0.4142135623730961
 10
-27.8875
 20
-63.08454685436981
 10
-15.8875
 20
-63.08454685436981
 42
-0.4142135623730966
 10
-14.8875
 20
-64.0845468543698
 10
-14.8875
 20
-76.0845468543698
 42
-0.414213562373095
 10
-15.8875
 20
-77.0845468543698
 10
-27.8875
 20
-77.0845468543698
 42
-0.414213562373095
 10
-28.8875
 20
-76.0845468543698
  0
LWPOLYLINE
  5
FF
100
AcDbEntity
  8
0
  6
ByLayer
 62
  256
370
   -1
100
AcDbPolyline
 90
    8
 70
    1
 43
0
 10
52.075
 20
-2.172046854369811
 10
52.075
 20
-14.1720468543698
 42
0.4142135623730971
 10
53.07500000000001
 20
-15.1720468543698
 10
65.075
 20
-15.1720468543698
 42
0.414213562373095
 10
66.075
 20
-14.1720468543698
 10
66.07500000000003
 20
-2.172046854369831
 42
0.4142135623731013
 10
65.075
 20
-1.17204685436981
 10
53.07500000000001
 20
-1.172046854369809
 42
0.4142135623730975
  0
LWPOLYLINE
  5
100
100
AcDbEntity
  8
0
  6
ByLayer
 62
  256
370
   -1
100
AcDbPolyline
 90
    8
 70
    1
 43
0
 10
-114.6125
 20
-83.1345468543698
 42
-0.414213562373095
 10
-113.6125
 20
-82.1345468543698
 10
-101.6125
 20
-82.1345468543698
 42
-0.414213562373095
 10
-100.6125
 20
-83.1345468543698
 10
-100.6125
 20
-95.13454685436982
 42
-0.414213562373095
 10
-101.6125
 20
-96.13454685436984
 10
-113.6125
 20
-96.13454685436984
 42
-0.414213562373095
 10
-114.6125
 20
-95.13454685436982
  0
LWPOLYLINE
  5
101
100
AcDbEntity
  8
0
  6
ByLayer
 62
  256
370
   -1
100
AcDbPolyline
 90
    8
 70
    1
 43
0
 10
-66.9875
 20
-64.0845468543698
 42
-0.414213562373095
 10
-65.9875
 20
-63.0845468543698
 10
-53.9875
 20
-63.08454685436979
 42
-0.414213562373095
 10
-52.98749999999998
 20
-64.0845468543698
 10
-52.9875
 20
-76.0845468543698
 42
-0.414213562373095
 10
-53.9875
 20
-77.0845468543698
 10
-65.9875
 20
-77.0845468543698
 42
-0.414213562373095
 10
-66.9875
 20
-76.0845468543698
  0
LWPOLYLINE
  5
102
100
AcDbEntity
  8
0
  6
ByLayer
 62
  256
370
   -1
100
AcDbPolyline
 90
    8
 70
    1
 43
0
 10
-128.9
 20
-45.03454685436981
 42
-0.414213562373095
 10
-127.9
 20
-44.03454685436981
 10
-115.9
 20
-44.03454685436981
 42
-0.414213562373095
 10
-114.9
 20
-45.03454685436981
 10
-114.9
 20
-57.03454685436981
 42
-0.414213562373095
 10
-115.9
 20
-58.03454685436981
 10
-127.9
 20
-58.03454685436982
 42
-0.4142135623730992
 10
-128.9
 20
-57.03454685436981
  0
LWPOLYLINE
  5
103
100
AcDbEntity
  8
0
  6
ByLayer
 62
  256
370
   -1
100
AcDbPolyline
 90
    8
 70
    1
 43
0
 10
94.9375
 20
-106.94704685437
 42
-0.414213562373095
 10
95.9375
 20
-105.94704685437
 10
107.9375
 20
-105.94704685437
 42
-0.414213562373095
 10
108.9375
 20
-106.94704685437
 10
108.9375
 20
-118.94704685437
 42
-0.414213562373095
 10
107.9375
 20
-119.94704685437
 10
95.9375
 20
-119.94704685437
 42
-0.414213562373095
 10
94.93750000000003
 20
-118.94704685437
  0
LWPOLYLINE
  5
104
100
AcDbEntity
  8
0
  6
ByLayer
 62
  256
370
   -1
100
AcDbPolyline
 90
    8
 70
    1
 43
0
 10
-6.3625
 20
-82.1345468543698
 42
-0.4142135623730943
 10
-5.362500000000003
 20
-83.1345468543698
 10
-5.362500000000003
 20
-95.13454685436982
 42
-0.414213562373094
 10
-6.3625
 20
-96.13454685436979
 10
-18.3625
 20
-96.13454685436984
 42
-0.4142135623730971
 10
-19.36250000000001
 20
-95.13454685436982
 10
-19.3625
 20
-83.1345468543698
 42
-0.414213562373094
 10
-18.3625
 20
-82.1345468543698
  0
LWPOLYLINE
  5
105
100
AcDbEntity
  8
0
  6
ByLayer
 62
  256
370
   -1
100
AcDbPolyline
 90
    8
 70
    1
 43
0
 10
-100.325
 20
-25.9845468543698
 42
-0.4142135623730981
 10
-99.32500000000002
 20
-24.9845468543698
 10
-87.325
 20
-24.9845468543698
 42
-0.414213562373095
 10
-86.325
 20
-25.9845468543698
 10
-86.325
 20
-37.9845468543698
 42
-0.414213562373095
 10
-87.325
 20
-38.9845468543698
 10
-99.32500000000002
 20
-38.9845468543698
 42
-0.4142135623731075
 10
-100.325
 20
-37.9845468543698
  0
LWPOLYLINE
  5
106
100
AcDbEntity
  8
0
  6
ByLayer
 62
  256
370
   -1
100
AcDbPolyline
 90
    8
 70
    1
 43
0
 10
150.8
 20
-82.1345468543698
 42
-0.414213562373095
 10
151.8
 20
-83.1345468543698
 10
151.8
 20
-95.13454685436982
 42
-0.4142135623730992
 10
150.8
 20
-96.13454685436983
 10
138.8
 20
-96.13454685436986
 42
-0.4142135623731034
 10
137.8
 20
-95.13454685436982
 10
137.8
 20
-83.1345468543698
 42
-0.4142135623730992
 10
138.8
 20
-82.1345468543698
  0
LWPOLYLINE
  5
107
100
AcDbEntity
  8
0
  6
ByLayer
 62
  256
370
   -1
100
AcDbPolyline
 90
    8
 70
    1
 43
0
 10
113.9875
 20
-106.94704685437
 42
-0.414213562373095
 10
114.9875
 20
-105.94704685437
 10
126.9875
 20
-105.94704685437
 42
-0.4142135623730909
 10
127.9875
 20
-106.94704685437
 10
127.9875
 20
-118.94704685437
 42
-0.414213562373095
 10
126.9875
 20
-119.94704685437
 10
114.9875
 20
-119.94704685437
 42
-0.414213562373095
 10
113.9875
 20
-118.94704685437
  0
LWPOLYLINE
  5
108
100
AcDbEntity
  8
0
  6
ByLayer
 62
  256
370
   -1
100
AcDbPolyline
 90
    8
 70
    1
 43
0
 10
-47.93749999999999
 20
-64.0845468543698
 42
-0.4142135623730929
 10
-46.93750000000001
 20
-63.08454685436981
 10
-34.9375
 20
-63.08454685436981
 42
-0.414213562373095
 10
-33.93750000000001
 20
-64.0845468543698
 10
-33.9375
 20
-76.0845468543698
 42
-0.414213562373095
 10
-34.9375
 20
-77.0845468543698
 10
-46.93750000000001
 20
-77.0845468543698
 42
-0.4142135623730929
 10
-47.9375
 20
-76.0845468543698
  0
LWPOLYLINE
  5
109
100
AcDbEntity
  8
0
  6
ByLayer
 62
  256
370
   -1
100
AcDbPolyline
 90
    8
 70
    1
 43
0
 10
-105.0875
 20
-64.0845468543698
 42
-0.414213562373095
 10
-104.0875
 20
-63.0845468543698
 10
-92.08750000000001
 20
-63.0845468543698
 42
-0.414213562373095
 10
-91.08750000000001
 20
-64.0845468543698
 10
-91.08750000000001
 20
-76.0845468543698
 42
-0.414213562373095
 10
-92.08750000000001
 20
-77.0845468543698
 10
-104.0875
 20
-77.0845468543698
 42
-0.414213562373095
 10
-105.0875
 20
-76.0845468543698
  0
LWPOLYLINE
  5
10A
100
AcDbEntity
  8
0
  6
ByLayer
 62
  256
370
   -1
100
AcDbPolyline
 90
    8
 70
    1
 43
0
 10
137.8
 20
-64.0845468543698
 42
-0.4142135623730992
 10
138.8
 20
-63.0845468543698
 10
150.8
 20
-63.0845468543698
 42
-0.414213562373095
 10
151.8
 20
-64.0845468543698
 10
151.8
 20
-76.0845468543698
 42
-0.414213562373095
 10
150.8
 20
-77.0845468543698
 10
138.8
 20
-77.08454685436985
 42
-0.4142135623731034
 10
137.8
 20
-76.0845468543698
  0
LWPOLYLINE
  5
10B
100
AcDbEntity
  8
0
  6
ByLayer
 62
  256
370
   -1
100
AcDbPolyline
 90
    8
 70
    1
 43
0
 10
-38.4125
 20
-83.1345468543698
 42
-0.414213562373095
 10
-37.4125
 20
-82.1345468543698
 10
-25.4125
 20
-82.1345468543698
 42
-0.414213562373095
 10
-24.4125
 20
-83.1345468543698
 10
-24.4125
 20
-95.13454685436982
 42
-0.414213562373095
 10
-25.4125
 20
-96.13454685436979
 10
-37.4125
 20
-96.1345468543698
 42
-0.4142135623730929
 10
-38.4125
 20
-95.13454685436982
  0
LWPOLYLINE
  5
10C
100
AcDbEntity
  8
0
  6
ByLayer
 62
  256
370
   -1
100
AcDbPolyline
 90
    8
 70
    1
 43
0
 10
33.025
 20
-25.9845468543698
 42
-0.414213562373095
 10
34.025
 20
-24.9845468543698
 10
46.025
 20
-24.98454685436982
 42
-0.414213562373095
 10
47.02499999999998
 20
-25.9845468543698
 10
47.025
 20
-37.9845468543698
 42
-0.414213562373095
 10
46.025
 20
-38.9845468543698
 10
34.025
 20
-38.98454685436982
 42
-0.4142135623730909
 10
33.02499999999998
 20
-37.9845468543698
  0
LWPOLYLINE
  5
10D
100
AcDbEntity
  8
0
  6
ByLayer
 62
  256
370
   -1
100
AcDbPolyline
 90
    8
 70
    1
 43
0
 10
-30.175
 20
-24.98454685436981
 42
-0.414213562373095
 10
-29.17500000000001
 20
-25.9845468543698
 10
-29.17499999999999
 20
-37.9845468543698
 42
-0.414213562373094
 10
-30.175
 20
-38.98454685436982
 10
-42.175
 20
-38.9845468543698
 42
-0.4142135623730929
 10
-43.175
 20
-37.9845468543698
 10
-43.17500000000001
 20
-25.9845468543698
 42
-0.4142135623730961
 10
-42.175
 20
-24.9845468543698
  0
LWPOLYLINE
  5
10E
100
AcDbEntity
  8
0
  6
ByLayer
 62
  256
370
   -1
100
AcDbPolyline
 90
    8
 70
    1
 43
0
 10
-9.83749999999999
 20
-2.17204685436981
 42
-0.414213562373095
 10
-8.83749999999999
 20
-1.17204685436981
 10
3.162500000000001
 20
-1.172046854369799
 42
-0.414213562373095
 10
4.16250000000001
 20
-2.172046854369813
 10
4.162499999999997
 20
-14.1720468543698
 42
-0.414213562373095
 10
3.162500000000001
 20
-15.1720468543698
 10
-8.83749999999999
 20
-15.17204685436981
 42
-0.414213562373095
 10
-9.8375
 20
-14.1720468543698
  0
LWPOLYLINE
  5
10F
100
AcDbEntity
  8
0
  6
ByLayer
 62
  256
370
   -1
100
AcDbPolyline
 90
    8
 70
    1
 43
0
 10
-86.03749999999999
 20
-64.0845468543698
 10
-86.03749999999999
 20
-76.0845468543698
 42
0.414213562373095
 10
-85.03749999999999
 20
-77.0845468543698
 10
-73.03749999999999
 20
-77.0845468543698
 42
0.414213562373095
 10
-72.03749999999999
 20
-76.0845468543698
 10
-72.03749999999999
 20
-64.0845468543698
 42
0.4142135623730992
 10
-73.03749999999999
 20
-63.0845468543698
 10
-85.03749999999999
 20
-63.0845468543698
 42
0.414213562373095
  0
LWPOLYLINE
  5
110
100
AcDbEntity
  8
0
  6
ByLayer
 62
  256
370
   -1
100
AcDbPolyline
 90
    8
 70
    1
 43
0
 10
-28.8875
 20
-2.17204685436981
 42
-0.414213562373095
 10
-27.8875
 20
-1.17204685436981
 10
-15.8875
 20
-1.172046854369813
 42
-0.4142135623730955
 10
-14.8875
 20
-2.172046854369812
 10
-14.8875
 20
-14.1720468543698
 42
-0.414213562373095
 10
-15.8875
 20
-15.1720468543698
 10
-27.8875
 20
-15.1720468543698
 42
-0.414213562373095
 10
-28.8875
 20
-14.1720468543698
  0
LWPOLYLINE
  5
111
100
AcDbEntity
  8
0
  6
ByLayer
 62
  256
370
   -1
100
AcDbPolyline
 90
    8
 70
    1
 43
0
 10
-90.80000000000001
 20
-45.03454685436981
 42
-0.414213562373095
 10
-89.80000000000001
 20
-44.03454685436981
 10
-77.8
 20
-44.03454685436981
 42
-0.4142135623730929
 10
-76.80000000000001
 20
-45.03454685436981
 10
-76.80000000000001
 20
-57.03454685436981
 42
-0.4142135623730909
 10
-77.8
 20
-58.0345468543698
 10
-89.80000000000001
 20
-58.03454685436979
 42
-0.4142135623730929
 10
-90.79999999999998
 20
-57.03454685436981
  0
LWPOLYLINE
  5
112
100
AcDbEntity
  8
0
  6
ByLayer
 62
  256
370
   -1
100
AcDbPolyline
 90
    8
 70
    1
 43
0
 10
42.55
 20
-45.03454685436981
 42
-0.414213562373095
 10
43.55
 20
-44.03454685436981
 10
55.55
 20
-44.03454685436984
 42
-0.414213562373095
 10
56.54999999999997
 20
-45.03454685436981
 10
56.55
 20
-57.03454685436981
 42
-0.414213562373095
 10
55.55
 20
-58.03454685436981
 10
43.55
 20
-58.03454685436982
 42
-0.414213562373095
 10
42.54999999999998
 20
-57.03454685436981
  0
LWPOLYLINE
  5
113
100
AcDbEntity
  8
0
  6
ByLayer
 62
  256
370
   -1
100
AcDbPolyline
 90
    8
 70
    1
 43
0
 10
4.450000000000006
 20
-45.03454685436981
 42
-0.414213562373095
 10
5.450000000000021
 20
-44.03454685436979
 10
17.45
 20
-44.03454685436984
 42
-0.414213562373094
 10
18.44999999999998
 20
-45.03454685436981
 10
18.45
 20
-57.03454685436981
 42
-0.414213562373094
 10
17.45
 20
-58.03454685436981
 10
5.449999999999982
 20
-58.03454685436982
 42
-0.4142135623730948
 10
4.449999999999969
 20
-57.03454685436981
  0
LWPOLYLINE
  5
114
100
AcDbEntity
  8
0
  6
ByLayer
 62
  256
370
   -1
100
AcDbPolyline
 90
    8
 70
    1
 43
0
 10
-152.7125
 20
-45.03454685436981
 42
-0.414213562373095
 10
-151.7125
 20
-44.03454685436981
 10
-139.7125
 20
-44.03454685436981
 42
-0.414213562373095
 10
-138.7125
 20
-45.03454685436981
 10
-138.7125
 20
-57.03454685436981
 42
-0.414213562373095
 10
-139.7125
 20
-58.03454685436981
 10
-151.7125
 20
-58.03454685436981
 42
-0.414213562373095
 10
-152.7125
 20
-57.03454685436981
  0
LWPOLYLINE
  5
115
100
AcDbEntity
  8
0
  6
ByLayer
 62
  256
370
   -1
100
AcDbPolyline
 90
    8
 70
    1
 43
0
 10
36.5
 20
-44.03454685436981
 42
-0.4142135623730909
 10
37.5
 20
-45.03454685436981
 10
37.5
 20
-57.03454685436981
 42
-0.414213562373095
 10
36.5
 20
-58.03454685436981
 10
24.5
 20
-58.03454685436978
 42
-0.4142135623730929
 10
23.50000000000002
 20
-57.03454685436981
 10
23.49999999999999
 20
-45.03454685436981
 42
-0.414213562373095
 10
24.5
 20
-44.03454685436979
  0
LWPOLYLINE
  5
116
100
AcDbEntity
  8
0
  6
ByLayer
 62
  256
370
   -1
100
AcDbPolyline
 90
    8
 70
    1
 43
0
 10
90.175
 20
-2.17204685436981
 42
-0.414213562373095
 10
91.175
 20
-1.17204685436981
 10
103.175
 20
-1.172046854369796
 42
-0.4142135623730909
 10
104.175
 20
-2.172046854369811
 10
104.175
 20
-14.1720468543698
 42
-0.414213562373095
 10
103.175
 20
-15.1720468543698
 10
91.175
 20
-15.17204685436981
 42
-0.4142135623730981
 10
90.17499999999997
 20
-14.1720468543698
  0
LWPOLYLINE
  5
117
100
AcDbEntity
  8
0
  6
ByLayer
 62
  256
370
   -1
100
AcDbPolyline
 90
    8
 70
    1
 43
0
 10
47.3125
 20
-64.0845468543698
 10
47.3125
 20
-76.0845468543698
 42
0.4142135623730971
 10
48.31250000000001
 20
-77.0845468543698
 10
60.3125
 20
-77.0845468543698
 42
0.414213562373095
 10
61.3125
 20
-76.0845468543698
 10
61.3125
 20
-64.0845468543698
 42
0.4142135623730929
 10
60.3125
 20
-63.0845468543698
 10
48.31250000000001
 20
-63.0845468543698
 42
0.4142135623730992
  0
LWPOLYLINE
  5
118
100
AcDbEntity
  8
0
  6
ByLayer
 62
  256
370
   -1
100
AcDbPolyline
 90
    8
 70
    1
 43
0
 10
33.02500000000001
 20
-2.172046854369811
 10
33.02500000000001
 20
-14.1720468543698
 42
0.414213562373095
 10
34.025
 20
-15.1720468543698
 10
46.025
 20
-15.1720468543698
 42
0.414213562373095
 10
47.025
 20
-14.1720468543698
 10
47.02500000000001
 20
-2.17204685436981
 42
0.414213562373095
 10
46.025
 20
-1.17204685436981
 10
34.025
 20
-1.172046854369809
 42
0.4142135623730954
  0
LWPOLYLINE
  5
119
100
AcDbEntity
  8
0
  6
ByLayer
 62
  256
370
   -1
100
AcDbPolyline
 90
   10
 70
    1
 43
0
 10
-137.33125
 20
-63.0845468543698
 10
-154.09375
 20
-63.0845468543698
 42
0.1084391695173797
 10
-154.5125
 20
-63.17644529754926
 42
0.5472327724910805
 10
-155.93125
 20
-64.0845468543698
 10
-155.93125
 20
-76.0845468543698
 42
0.5472327724910973
 10
-154.5125
 20
-76.99264841119037
 42
0.1084391695173788
 10
-154.09375
 20
-77.0845468543698
 10
-137.33125
 20
-77.0845468543698
 42
0.414213562373095
 10
-136.33125
 20
-76.0845468543698
 10
-136.33125
 20
-64.0845468543698
 42
0.414213562373095
  0
LWPOLYLINE
  5
11A
100
AcDbEntity
  8
0
  6
ByLayer
 62
  256
370
   -1
100
AcDbPolyline
 90
    8
 70
    1
 43
0
 10
56.83750000000001
 20
-83.1345468543698
 42
-0.414213562373095
 10
57.83750000000001
 20
-82.1345468543698
 10
69.83750000000001
 20
-82.1345468543698
 42
-0.4142135623730867
 10
70.83750000000001
 20
-83.1345468543698
 10
70.83750000000001
 20
-95.13454685436982
 42
-0.414213562373095
 10
69.83750000000001
 20
-96.13454685436984
 10
57.83750000000001
 20
-96.13454685436977
 42
-0.414213562373095
 10
56.83750000000003
 20
-95.13454685436982
  0
LWPOLYLINE
  5
11B
100
AcDbEntity
  8
0
  6
ByLayer
 62
  256
370
   -1
100
AcDbPolyline
 90
    8
 70
    1
 43
0
 10
28.2625
 20
-64.0845468543698
 42
-0.414213562373094
 10
29.2625
 20
-63.0845468543698
 10
41.2625
 20
-63.08454685436979
 42
-0.414213562373095
 10
42.26250000000002
 20
-64.0845468543698
 10
42.2625
 20
-76.0845468543698
 42
-0.414213562373095
 10
41.2625
 20
-77.0845468543698
 10
29.2625
 20
-77.08454685436983
 42
-0.4142135623730971
 10
28.26249999999999
 20
-76.0845468543698
  0
LWPOLYLINE
  5
11C
100
AcDbEntity
  8
0
  6
ByLayer
 62
  256
370
   -1
100
AcDbPolyline
 90
    8
 70
    1
 43
0
 10
84.125
 20
-1.172046854369796
 42
-0.4142135623730909
 10
85.125
 20
-2.172046854369811
 10
85.125
 20
-14.1720468543698
 42
-0.414213562373095
 10
84.125
 20
-15.1720468543698
 10
72.125
 20
-15.17204685436981
 42
-0.4142135623730904
 10
71.125
 20
-14.1720468543698
 10
71.125
 20
-2.172046854369811
 42
-0.4142135623730953
 10
72.125
 20
-1.17204685436981
  0
LWPOLYLINE
  5
11D
100
AcDbEntity
  8
0
  6
ByLayer
 62
  256
370
   -1
100
AcDbPolyline
 90
    8
 70
    1
 43
0
 10
37.78750000000001
 20
-83.1345468543698
 10
37.78750000000001
 20
-95.13454685436982
 42
0.4142135623730909
 10
38.7875
 20
-96.13454685436979
 10
50.7875
 20
-96.13454685436984
 42
0.4142135623730992
 10
51.78750000000002
 20
-95.13454685436982
 10
51.78750000000002
 20
-83.1345468543698
 42
0.4142135623730909
 10
50.7875
 20
-82.1345468543698
 10
38.7875
 20
-82.1345468543698
 42
0.4142135623730929
  0
LWPOLYLINE
  5
11E
100
AcDbEntity
  8
0
  6
ByLayer
 62
  256
370
   -1
100
AcDbPolyline
 90
    8
 70
    1
 43
0
 10
-90.80000000000001
 20
-2.17204685436981
 42
-0.4142135623730951
 10
-89.80000000000001
 20
-1.17204685436981
 10
-77.8
 20
-1.172046854369813
 42
-0.4142135623730953
 10
-76.80000000000003
 20
-2.172046854369814
 10
-76.80000000000003
 20
-14.1720468543698
 42
-0.4142135623730945
 10
-77.8
 20
-15.1720468543698
 10
-89.80000000000001
 20
-15.17204685436978
 42
-0.4142135623730966
 10
-90.79999999999998
 20
-14.1720468543698
  0
LWPOLYLINE
  5
11F
100
AcDbEntity
  8
0
  6
ByLayer
 62
  256
370
   -1
100
AcDbPolyline
 90
    8
 70
    1
 43
0
 10
79.3625
 20
-63.0845468543698
 42
-0.414213562373095
 10
80.36250000000003
 20
-64.0845468543698
 10
80.36249999999997
 20
-76.0845468543698
 42
-0.4142135623730867
 10
79.3625
 20
-77.08454685436978
 10
67.3625
 20
-77.08454685436978
 42
-0.414213562373095
 10
66.36250000000003
 20
-76.0845468543698
 10
66.36250000000003
 20
-64.0845468543698
 42
-0.414213562373095
 10
67.3625
 20
-63.0845468543698
  0
LWPOLYLINE
  5
120
100
AcDbEntity
  8
0
  6
ByLayer
 62
  256
370
   -1
100
AcDbPolyline
 90
    8
 70
    1
 43
0
 10
-14.60000000000002
 20
-45.03454685436981
 42
-0.4142135623730955
 10
-13.6
 20
-44.03454685436979
 10
-1.599999999999981
 20
-44.03454685436981
 42
-0.414213562373094
 10
-0.5999999999999845
 20
-45.03454685436981
 10
-0.5999999999999835
 20
-57.03454685436981
 42
-0.4142135623730943
 10
-1.599999999999981
 20
-58.03454685436981
 10
-13.6
 20
-58.03454685436981
 42
-0.414213562373095
 10
-14.6
 20
-57.03454685436981
  0
LWPOLYLINE
  5
121
100
AcDbEntity
  8
0
  6
ByLayer
 62
  256
370
   -1
100
AcDbPolyline
 90
    8
 70
    1
 43
0
 10
-96.85000000000001
 20
-1.172046854369814
 42
-0.4142135623730943
 10
-95.85000000000001
 20
-2.172046854369811
 10
-95.85000000000001
 20
-14.1720468543698
 42
-0.414213562373095
 10
-96.85000000000001
 20
-15.1720468543698
 10
-108.85
 20
-15.1720468543698
 42
-0.414213562373095
 10
-109.85
 20
-14.1720468543698
 10
-109.85
 20
-2.172046854369811
 42
-0.4142135623730953
 10
-108.85
 20
-1.17204685436981
  0
LWPOLYLINE
  5
122
100
AcDbEntity
  8
0
  6
ByLayer
 62
  256
370
   -1
100
AcDbPolyline
 90
   20
 70
    1
 43
0
 10
33.18750000000001
 20
-115.1625
 10
33.81617556428333
 20
-115.1625
 42
0.05264173015812709
 10
34.025
 20
-115.18454685437
 10
46.0250000000001
 20
-115.18454685437
 42
0.05264173015811061
 10
46.23382443571671
 20
-115.1625
 10
52.86617556428333
 20
-115.1625
 42
0.05264173015812731
 10
53.07500000000001
 20
-115.18454685437
 10
65.075
 20
-115.18454685437
 42
0.0526417301581095
 10
65.28382443571661
 20
-115.1625
 10
71.91617556428332
 20
-115.1625
 42
0.05264173015812731
 10
72.125
 20
-115.18454685437
 10
84.125
 20
-115.18454685437
 42
0.05264173015811261
 10
84.33382443571661
 20
-115.1625
 10
84.96250000000003
 20
-115.1625
 42
0.4142135623730909
 10
85.96250000000005
 20
-114.1625
 10
85.96250000000003
 20
-102.1625
 42
0.414213562373095
 10
84.96250000000003
 20
-101.1625
 10
33.18750000000001
 20
-101.1625
 42
0.4142135623730992
 10
32.18749999999999
 20
-102.1625
 10
32.1875
 20
-114.1625
 42
0.4142135623730992
  0
LWPOLYLINE
  5
123
100
AcDbEntity
  8
0
  6
ByLayer
 62
  256
370
   -1
100
AcDbPolyline
 90
    8
 70
    1
 43
0
 10
-5.074999999999992
 20
-25.9845468543698
 42
-0.4142135623730953
 10
-4.07499999999999
 20
-24.9845468543698
 10
7.925
 20
-24.98454685436979
 42
-0.4142135623730948
 10
8.925000000000008
 20
-25.9845468543698
 10
8.924999999999997
 20
-37.9845468543698
 42
-0.4142135623730948
 10
7.925
 20
-38.9845468543698
 10
-4.07499999999999
 20
-38.9845468543698
 42
-0.4142135623730943
 10
-5.074999999999987
 20
-37.9845468543698
  0
LWPOLYLINE
  5
124
100
AcDbEntity
  8
0
  6
ByLayer
 62
  256
370
   -1
100
AcDbPolyline
 90
    8
 70
    1
 43
0
 10
-47.9375
 20
-2.17204685436981
 42
-0.4142135623730929
 10
-46.93750000000001
 20
-1.17204685436981
 10
-34.9375
 20
-1.172046854369814
 42
-0.4142135623730966
 10
-33.93750000000001
 20
-2.172046854369813
 10
-33.93750000000001
 20
-14.1720468543698
 42
-0.4142135623730966
 10
-34.9375
 20
-15.1720468543698
 10
-46.93750000000001
 20
-15.1720468543698
 42
-0.414213562373095
 10
-47.93749999999999
 20
-14.1720468543698
  0
LWPOLYLINE
  5
125
100
AcDbEntity
  8
0
  6
ByLayer
 62
  256
370
   -1
100
AcDbPolyline
 90
    8
 70
    1
 43
0
 10
-107.46875
 20
-102.18454685437
 42
-0.414213562373095
 10
-106.46875
 20
-101.18454685437
 10
-94.46875
 20
-101.18454685437
 42
-0.414213562373095
 10
-93.46875000000003
 20
-102.18454685437
 10
-93.46875
 20
-114.18454685437
 42
-0.414213562373095
 10
-94.46875
 20
-115.18454685437
 10
-106.46875
 20
-115.18454685437
 42
-0.414213562373095
 10
-107.46875
 20
-114.18454685437
  0
LWPOLYLINE
  5
126
100
AcDbEntity
  8
0
  6
ByLayer
 62
  256
370
   -1
100
AcDbPolyline
 90
    8
 70
    1
 43
0
 10
-95.5625
 20
-83.1345468543698
 10
-95.5625
 20
-95.13454685436982
 42
0.4142135623730909
 10
-94.5625
 20
-96.1345468543698
 10
-82.5625
 20
-96.13454685436984
 42
0.4142135623730992
 10
-81.56249999999999
 20
-95.13454685436982
 10
-81.5625
 20
-83.1345468543698
 42
0.414213562373095
 10
-82.5625
 20
-82.1345468543698
 10
-94.5625
 20
-82.1345468543698
 42
0.414213562373095
  0
LWPOLYLINE
  5
127
100
AcDbEntity
  8
0
  6
ByLayer
 62
  256
370
   -1
100
AcDbPolyline
 90
    8
 70
    1
 43
0
 10
22.2125
 20
-63.08454685436979
 42
-0.414213562373095
 10
23.21250000000001
 20
-64.0845468543698
 10
23.2125
 20
-76.0845468543698
 42
-0.414213562373095
 10
22.2125
 20
-77.0845468543698
 10
10.2125
 20
-77.08454685436983
 42
-0.4142135623730981
 10
9.21249999999999
 20
-76.0845468543698
 10
9.212500000000004
 20
-64.0845468543698
 42
-0.4142135623730955
 10
10.2125
 20
-63.08454685436981
  0
LWPOLYLINE
  5
128
100
AcDbEntity
  8
0
  6
ByLayer
 62
  256
370
   -1
100
AcDbPolyline
 90
    8
 70
    1
 43
0
 10
137.8
 20
-45.03454685436981
 10
137.8
 20
-57.03454685436981
 42
0.414213562373095
 10
138.8
 20
-58.03454685436981
 10
150.8
 20
-58.03454685436981
 42
0.414213562373095
 10
151.8
 20
-57.03454685436981
 10
151.8
 20
-45.03454685436981
 42
0.414213562373095
 10
150.8
 20
-44.03454685436981
 10
138.8
 20
-44.03454685436979
 42
0.4142135623730971
  0
LWPOLYLINE
  5
129
100
AcDbEntity
  8
0
  6
ByLayer
 62
  256
370
   -1
100
AcDbPolyline
 90
    8
 70
    1
 43
0
 10
-128.9
 20
-2.17204685436981
 42
-0.414213562373095
 10
-127.9
 20
-1.17204685436981
 10
-115.9
 20
-1.172046854369814
 42
-0.4142135623730943
 10
-114.9
 20
-2.172046854369811
 10
-114.9
 20
-14.1720468543698
 42
-0.414213562373095
 10
-115.9
 20
-15.1720468543698
 10
-127.9
 20
-15.17204685436981
 42
-0.4142135623730976
 10
-128.9
 20
-14.1720468543698
  0
LWPOLYLINE
  5
12A
100
AcDbEntity
  8
0
  6
ByLayer
 62
  256
370
   -1
100
AcDbPolyline
 90
    8
 70
    1
 43
0
 10
71.125
 20
-25.9845468543698
 42
-0.414213562373095
 10
72.125
 20
-24.9845468543698
 10
84.125
 20
-24.98454685436979
 42
-0.4142135623730898
 10
85.125
 20
-25.9845468543698
 10
85.125
 20
-37.9845468543698
 42
-0.414213562373095
 10
84.125
 20
-38.9845468543698
 10
72.125
 20
-38.98454685436982
 42
-0.4142135623730909
 10
71.125
 20
-37.9845468543698
  0
LWPOLYLINE
  5
12B
100
AcDbEntity
  8
0
  6
ByLayer
 62
  256
370
   -1
100
AcDbPolyline
 90
    8
 70
    1
 43
0
 10
80.65000000000001
 20
-45.03454685436981
 42
-0.414213562373095
 10
81.65000000000001
 20
-44.03454685436981
 10
93.65000000000001
 20
-44.03454685436979
 42
-0.4142135623730909
 10
94.65000000000001
 20
-45.03454685436981
 10
94.65000000000001
 20
-57.03454685436981
 42
-0.414213562373095
 10
93.65000000000001
 20
-58.03454685436981
 10
81.65000000000001
 20
-58.03454685436982
 42
-0.4142135623730909
 10
80.65000000000001
 20
-57.03454685436981
  0
LWPOLYLINE
  5
12C
100
AcDbEntity
  8
0
  6
ByLayer
 62
  256
370
   -1
100
AcDbPolyline
 90
    8
 70
    1
 43
0
 10
18.7375
 20
-83.1345468543698
 42
-0.414213562373094
 10
19.7375
 20
-82.1345468543698
 10
31.7375
 20
-82.1345468543698
 42
-0.4142135623730888
 10
32.73750000000001
 20
-83.1345468543698
 10
32.7375
 20
-95.13454685436982
 42
-0.4142135623730919
 10
31.7375
 20
-96.13454685436979
 10
19.7375
 20
-96.13454685436984
 42
-0.4142135623730971
 10
18.73749999999999
 20
-95.13454685436982
  0
LWPOLYLINE
  5
12D
100
AcDbEntity
  8
0
  6
ByLayer
 62
  256
370
   -1
100
AcDbPolyline
 90
    8
 70
    1
 43
0
 10
9.2125
 20
-2.17204685436981
 42
-0.414213562373095
 10
10.2125
 20
-1.17204685436981
 10
22.2125
 20
-1.172046854369809
 42
-0.4142135623731003
 10
23.21250000000001
 20
-2.172046854369831
 10
23.2125
 20
-14.1720468543698
 42
-0.414213562373095
 10
22.2125
 20
-15.1720468543698
 10
10.2125
 20
-15.17204685436981
 42
-0.414213562373095
 10
9.21249999999999
 20
-14.1720468543698
  0
LWPOLYLINE
  5
12E
100
AcDbEntity
  8
0
  6
ByLayer
 62
  256
370
   -1
100
AcDbPolyline
 90
    8
 70
    1
 43
0
 10
-58.75
 20
-1.172046854369796
 42
-0.4142135623730914
 10
-57.75
 20
-2.172046854369813
 10
-57.75
 20
-14.1720468543698
 42
-0.414213562373095
 10
-58.75
 20
-15.1720468543698
 10
-70.75
 20
-15.1720468543698
 42
-0.414213562373095
 10
-71.75
 20
-14.1720468543698
 10
-71.75
 20
-2.172046854369811
 42
-0.4142135623730953
 10
-70.75
 20
-1.17204685436981
  0
LWPOLYLINE
  5
12F
100
AcDbEntity
  8
0
  6
ByLayer
 62
  256
370
   -1
100
AcDbPolyline
 90
    8
 70
    1
 43
0
 10
83.03125000000001
 20
-83.1345468543698
 42
-0.414213562373095
 10
84.03125000000001
 20
-82.1345468543698
 10
96.03125
 20
-82.13454685436983
 42
-0.4142135623730992
 10
97.03125
 20
-83.1345468543698
 10
97.03125
 20
-95.13454685436982
 42
-0.414213562373095
 10
96.03125
 20
-96.13454685436984
 10
84.03125000000001
 20
-96.13454685436983
 42
-0.414213562373095
 10
83.03125
 20
-95.13454685436982
  0
LWPOLYLINE
  5
130
100
AcDbEntity
  8
0
  6
ByLayer
 62
  256
370
   -1
100
AcDbPolyline
 90
    8
 70
    1
 43
0
 10
113.9875
 20
-87.8970468543698
 42
-0.414213562373095
 10
114.9875
 20
-86.8970468543698
 10
126.9875
 20
-86.89704685436982
 42
-0.4142135623730909
 10
127.9875
 20
-87.8970468543698
 10
127.9875
 20
-99.89704685436982
 42
-0.414213562373095
 10
126.9875
 20
-100.8970468543698
 10
114.9875
 20
-100.8970468543698
 42
-0.4142135623730867
 10
113.9875
 20
-99.89704685436982
  0
LWPOLYLINE
  5
131
100
AcDbEntity
  8
0
  6
ByLayer
 62
  256
370
   -1
100
AcDbPolyline
 90
    8
 70
    1
 43
0
 10
-155.09375
 20
-102.18454685437
 42
-0.414213562373095
 10
-154.09375
 20
-101.18454685437
 10
-142.09375
 20
-101.18454685437
 42
-0.4142135623730992
 10
-141.09375
 20
-102.18454685437
 10
-141.09375
 20
-114.18454685437
 42
-0.414213562373095
 10
-142.09375
 20
-115.18454685437
 10
-154.09375
 20
-115.18454685437
 42
-0.414213562373095
 10
-155.09375
 20
-114.18454685437
  0
LWPOLYLINE
  5
132
100
AcDbEntity
  8
0
  6
ByLayer
 62
  256
370
   -1
100
AcDbPolyline
 90
    8
 70
    1
 43
0
 10
-96.85000000000001
 20
-44.03454685436984
 42
-0.4142135623730929
 10
-95.85000000000002
 20
-45.03454685436981
 10
-95.85000000000001
 20
-57.03454685436981
 42
-0.414213562373095
 10
-96.85000000000001
 20
-58.03454685436981
 10
-108.85
 20
-58.03454685436981
 42
-0.414213562373095
 10
-109.85
 20
-57.03454685436981
 10
-109.85
 20
-45.03454685436981
 42
-0.414213562373095
 10
-108.85
 20
-44.03454685436981
  0
LWPOLYLINE
  5
133
100
AcDbEntity
  8
0
  6
ByLayer
 62
  256
370
   -1
100
AcDbPolyline
 90
    8
 70
    1
 43
0
 10
104.4625
 20
-45.03454685436981
 42
-0.414213562373095
 10
105.4625
 20
-44.03454685436981
 10
117.4625
 20
-44.03454685436979
 42
-0.4142135623730929
 10
118.4625
 20
-45.03454685436981
 10
118.4625
 20
-57.03454685436981
 42
-0.414213562373095
 10
117.4625
 20
-58.03454685436981
 10
105.4625
 20
-58.03454685436982
 42
-0.4142135623730909
 10
104.4625
 20
-57.03454685436981
  0
LWPOLYLINE
  5
134
100
AcDbEntity
  8
0
  6
ByLayer
 62
  256
370
   -1
100
AcDbPolyline
 90
    8
 70
    1
 43
0
 10
146.0375
 20
-105.94704685437
 42
-0.4142135623731117
 10
147.0375000000001
 20
-106.94704685437
 10
147.0375
 20
-118.94704685437
 42
-0.414213562373095
 10
146.0375
 20
-119.94704685437
 10
134.0375
 20
-119.94704685437
 42
-0.414213562373095
 10
133.0375
 20
-118.94704685437
 10
133.0375
 20
-106.94704685437
 42
-0.414213562373095
 10
134.0375
 20
-105.94704685437
  0
LWPOLYLINE
  5
135
100
AcDbEntity
  8
0
  6
ByLayer
 62
  256
370
   -1
100
AcDbPolyline
 90
    8
 70
    1
 43
0
 10
61.59999999999998
 20
-45.03454685436981
 42
-0.414213562373095
 10
62.60000000000001
 20
-44.03454685436979
 10
74.59999999999999
 20
-44.03454685436979
 42
-0.4142135623730909
 10
75.59999999999999
 20
-45.03454685436981
 10
75.59999999999999
 20
-57.03454685436981
 42
-0.414213562373095
 10
74.59999999999999
 20
-58.03454685436981
 10
62.60000000000001
 20
-58.03454685436982
 42
-0.414213562373095
 10
61.59999999999998
 20
-57.03454685436981
  0
LWPOLYLINE
  5
136
100
AcDbEntity
  8
0
  6
ByLayer
 62
  256
370
   -1
100
AcDbPolyline
 90
    8
 70
    1
 43
0
 10
-157.475
 20
-25.9845468543698
 10
-157.475
 20
-37.9845468543698
 42
0.4142135623730992
 10
-156.475
 20
-38.98454685436982
 10
-144.475
 20
-38.9845468543698
 42
0.414213562373095
 10
-143.475
 20
-37.9845468543698
 10
-143.475
 20
-25.9845468543698
 42
0.414213562373095
 10
-144.475
 20
-24.9845468543698
 10
-156.475
 20
-24.9845468543698
 42
0.414213562373095
  0
LWPOLYLINE
  5
137
100
AcDbEntity
  8
0
  6
ByLayer
 62
  256
370
   -1
100
AcDbPolyline
 90
    8
 70
    1
 43
0
 10
-33.65
 20
-45.03454685436981
 42
-0.414213562373095
 10
-32.65
 20
-44.03454685436981
 10
-20.65
 20
-44.03454685436981
 42
-0.414213562373095
 10
-19.65
 20
-45.03454685436981
 10
-19.65
 20
-57.03454685436981
 42
-0.414213562373095
 10
-20.65
 20
-58.03454685436981
 10
-32.65
 20
-58.03454685436981
 42
-0.414213562373095
 10
-33.65
 20
-57.03454685436981
  0
LWPOLYLINE
  5
138
100
AcDbEntity
  8
0
  6
ByLayer
 62
  256
370
   -1
100
AcDbPolyline
 90
    8
 70
    1
 43
0
 10
-52.70000000000002
 20
-45.03454685436981
 42
-0.414213562373095
 10
-51.70000000000001
 20
-44.03454685436979
 10
-39.7
 20
-44.03454685436981
 42
-0.414213562373095
 10
-38.7
 20
-45.03454685436981
 10
-38.7
 20
-57.03454685436981
 42
-0.414213562373095
 10
-39.7
 20
-58.03454685436981
 10
-51.70000000000001
 20
-58.03454685436981
 42
-0.4142135623730929
 10
-52.7
 20
-57.03454685436981
  0
LWPOLYLINE
  5
139
100
AcDbEntity
  8
0
  6
ByLayer
 62
  256
370
   -1
100
AcDbPolyline
 90
    8
 70
    1
 43
0
 10
-131.28125
 20
-102.18454685437
 42
-0.414213562373095
 10
-130.28125
 20
-101.18454685437
 10
-118.28125
 20
-101.18454685437
 42
-0.4142135623730867
 10
-117.28125
 20
-102.18454685437
 10
-117.28125
 20
-114.18454685437
 42
-0.414213562373095
 10
-118.28125
 20
-115.18454685437
 10
-130.28125
 20
-115.18454685437
 42
-0.414213562373095
 10
-131.28125
 20
-114.18454685437
  0
LWPOLYLINE
  5
13A
100
AcDbEntity
  8
0
  6
ByLayer
 62
  256
370
   -1
100
AcDbPolyline
 90
    8
 70
    1
 43
0
 10
-124.1375
 20
-64.0845468543698
 42
-0.414213562373095
 10
-123.1375
 20
-63.0845468543698
 10
-111.1375
 20
-63.0845468543698
 42
-0.414213562373095
 10
-110.1375
 20
-64.0845468543698
 10
-110.1375
 20
-76.0845468543698
 42
-0.414213562373095
 10
-111.1375
 20
-77.0845468543698
 10
-123.1375
 20
-77.0845468543698
 42
-0.414213562373095
 10
-124.1375
 20
-76.0845468543698
  0
LWPOLYLINE
  5
13B
100
AcDbEntity
  8
0
  6
ByLayer
 62
  256
370
   -1
100
AcDbPolyline
 90
    8
 70
    1
 43
0
 10
12.6875
 20
-82.13454685436979
 42
-0.414213562373094
 10
13.68750000000001
 20
-83.1345468543698
 10
13.6875
 20
-95.13454685436982
 42
-0.414213562373095
 10
12.6875
 20
-96.13454685436979
 10
0.6875000000000125
 20
-96.13454685436979
 42
-0.4142135623730935
 10
-0.3124999999999821
 20
-95.13454685436982
 10
-0.3124999999999823
 20
-83.1345468543698
 42
-0.4142135623730943
 10
0.6875000000000148
 20
-82.1345468543698
  0
LWPOLYLINE
  5
13C
100
AcDbEntity
  8
0
  6
ByLayer
 62
  256
370
   -1
100
AcDbPolyline
 90
    8
 70
    1
 43
0
 10
-49.225
 20
-24.98454685436979
 42
-0.414213562373094
 10
-48.22499999999999
 20
-25.9845468543698
 10
-48.22499999999999
 20
-37.9845468543698
 42
-0.414213562373095
 10
-49.225
 20
-38.98454685436982
 10
-61.22500000000001
 20
-38.9845468543698
 42
-0.414213562373095
 10
-62.22500000000001
 20
-37.9845468543698
 10
-62.22500000000001
 20
-25.9845468543698
 42
-0.4142135623730961
 10
-61.22500000000001
 20
-24.9845468543698
  0
LWPOLYLINE
  5
13D
100
AcDbEntity
  8
0
  6
ByLayer
 62
  256
370
   -1
100
AcDbPolyline
 90
    8
 70
    1
 43
0
 10
-24.125
 20
-25.9845468543698
 42
-0.414213562373095
 10
-23.125
 20
-24.9845468543698
 10
-11.125
 20
-24.98454685436981
 42
-0.4142135623730955
 10
-10.125
 20
-25.9845468543698
 10
-10.125
 20
-37.9845468543698
 42
-0.414213562373095
 10
-11.125
 20
-38.9845468543698
 10
-23.125
 20
-38.9845468543698
 42
-0.414213562373095
 10
-24.125
 20
-37.9845468543698
  0
LWPOLYLINE
  5
13E
100
AcDbEntity
  8
0
  6
ByLayer
 62
  256
370
   -1
100
AcDbPolyline
 90
    8
 70
    1
 43
0
 10
-119.375
 20
-25.9845468543698
 42
-0.414213562373095
 10
-118.375
 20
-24.9845468543698
 10
-106.375
 20
-24.9845468543698
 42
-0.414213562373095
 10
-105.375
 20
-25.9845468543698
 10
-105.375
 20
-37.9845468543698
 42
-0.4142135623730971
 10
-106.375
 20
-38.98454685436981
 10
-118.375
 20
-38.98454685436982
 42
-0.4142135623730909
 10
-119.375
 20
-37.9845468543698
  0
LWPOLYLINE
  5
13F
100
AcDbEntity
  8
0
  6
ByLayer
 62
  256
370
   -1
100
AcDbPolyline
 90
    8
 70
    1
 43
0
 10
13.975
 20
-25.9845468543698
 42
-0.414213562373095
 10
14.975
 20
-24.9845468543698
 10
26.975
 20
-24.98454685436982
 42
-0.414213562373095
 10
27.97499999999998
 20
-25.9845468543698
 10
27.97500000000002
 20
-37.9845468543698
 42
-0.414213562373095
 10
26.975
 20
-38.98454685436982
 10
14.975
 20
-38.98454685436978
 42
-0.4142135623730955
 10
13.97500000000002
 20
-37.9845468543698
  0
LWPOLYLINE
  5
140
100
AcDbEntity
  8
0
  6
ByLayer
 62
  256
370
   -1
100
AcDbPolyline
 90
    8
 70
    1
 43
0
 10
-138.425
 20
-25.9845468543698
 42
-0.414213562373095
 10
-137.425
 20
-24.9845468543698
 10
-125.425
 20
-24.98454685436979
 42
-0.4142135623730898
 10
-124.425
 20
-25.9845468543698
 10
-124.425
 20
-37.9845468543698
 42
-0.4142135623730929
 10
-125.425
 20
-38.98454685436982
 10
-137.425
 20
-38.9845468543698
 42
-0.414213562373095
 10
-138.425
 20
-37.9845468543698
  0
LWPOLYLINE
  5
141
100
AcDbEntity
  8
0
  6
ByLayer
 62
  256
370
   -1
100
AcDbPolyline
 90
    8
 70
    1
 43
0
 10
-76.5125
 20
-83.1345468543698
 42
-0.414213562373095
 10
-75.5125
 20
-82.1345468543698
 10
-63.5125
 20
-82.1345468543698
 42
-0.4142135623730909
 10
-62.51249999999999
 20
-83.1345468543698
 10
-62.51249999999999
 20
-95.13454685436982
 42
-0.414213562373095
 10
-63.5125
 20
-96.13454685436983
 10
-75.5125
 20
-96.13454685436979
 42
-0.4142135623730867
 10
-76.51249999999997
 20
-95.13454685436982
  0
LWPOLYLINE
  5
142
100
AcDbEntity
  8
0
  6
ByLayer
 62
  256
370
   -1
100
AcDbPolyline
 90
    8
 70
    1
 43
0
 10
151.8
 20
-34.7220468543698
 10
151.8
 20
-19.7220468543698
 42
0.414213562373095
 10
150.8
 20
-18.7220468543698
 10
138.8
 20
-18.7220468543698
 42
0.414213562373095
 10
137.8
 20
-19.7220468543698
 10
137.8
 20
-34.7220468543698
 42
0.4142135623730992
 10
138.8
 20
-35.72204685436981
 10
150.8
 20
-35.7220468543698
 42
0.414213562373095
  0
LWPOLYLINE
  5
143
100
AcDbEntity
  8
0
  6
ByLayer
 62
  256
370
   -1
100
AcDbPolyline
 90
    8
 70
    1
 43
0
 10
109.463
 20
-2.15424320580748
 10
109.463
 20
-14.1542432058075
 42
0.4142135623730953
 10
111.463
 20
-16.1542432058075
 10
149.563
 20
-16.1542432058075
 42
0.414213562373095
 10
151.563
 20
-14.1542432058075
 10
151.563
 20
-2.15424320580747
 42
0.4142135623730938
 10
149.563
 20
-0.1542432058074783
 10
111.463
 20
-0.1542432058074805
 42
0.414213562373095
  0
LWPOLYLINE
  5
144
100
AcDbEntity
  8
0
  6
ByLayer
 62
  256
370
   -1
100
AcDbPolyline
 90
  104
 70
    1
 43
0
 10
-158
 20
-122.464850495482
 42
-0.414213562373095
 10
-160
 20
-120.464850495482
 10
-160
 20
-115.739536340188
 42
0.2679491924304641
 10
-160.499999999998
 20
-114.873510936405
 10
-163.899995083535
 20
-112.910522859673
 42
-0.2679491924330247
 10
-164.524995083541
 20
-111.827991104937
 10
-164.5249950835257
 20
-100.137392181599
 42
-0.2679491925338047
 10
-163.899995083198
 20
-99.05486042677991
 10
-160.5000000003321
 20
-97.09187235217267
 42
0.2679491925338677
 10
-160
 20
-96.22584694819651
 10
-160
 20
-24.8610503942043
 42
0.2679491925338517
 10
-160.500000000332
 20
-23.99502499022818
 10
-163.8999950832008
 20
-22.03203691562777
 42
-0.2679491925338939
 10
-164.524995083534
 20
-20.9495051608018
 10
-164.5249950835411
 20
-9.258906237463499
 42
-0.267949192432987
 10
-163.899995083535
 20
-8.176374482727653
 10
-160.4999999999981
 20
-6.213386405996093
 42
0.2679491924305505
 10
-160
 20
-5.34736100221272
 10
-160
 20
-0.622046846919211
 42
-0.4142135623730951
 10
-158
 20
1.37795315308079
 10
-130.461945688546
 20
1.37795315308079
 42
0.2679491924310579
 10
-129.595920284762
 20
1.877953153080786
 10
-127.6329293695173
 20
5.277953153080794
 42
-0.2679491924312762
 10
-126.550397614786
 20
5.90295315308048
 10
-114.859798691545
 20
5.902953153080983
 42
-0.2679491924311755
 10
-113.777266936814
 20
5.277953153080599
 10
-111.8142760215696
 20
1.877953153081027
 42
0.2679491924311965
 10
-110.948250617785
 20
1.37795315308078
 10
-64.9943475353804
 20
1.37795315308078
 42
0.2679491924311153
 10
-64.12832213159601
 20
1.877953153080769
 10
-62.16533121635125
 20
5.277953153080793
 42
-0.267949192431105
 10
-61.08279946162081
 20
5.90295315308069
 10
-49.39220053837921
 20
5.902953153080732
 42
-0.2679491924311163
 10
-48.3096687836487
 20
5.277953153080784
 10
-46.34667786840403
 20
1.877953153080759
 42
0.2679491924311199
 10
-45.4806524646196
 20
1.37795315308078
 10
39.8056524646195
 20
1.37795315308078
 42
0.2679491924311316
 10
40.671677868404
 20
1.877953153080776
 10
42.63466878364867
 20
5.27795315308083
 42
-0.2679491924311362
 10
43.7172005383793
 20
5.9029531530808
 10
55.4077994616208
 20
5.902953153080751
 42
-0.2679491924311201
 10
56.49033121635131
 20
5.277953153080779
 10
58.45332213159606
 20
1.877953153080799
 42
0.2679491924311031
 10
59.31934753538041
 20
1.37795315308077
 10
105.273250617785
 20
1.37795315308077
 42
0.2679491924312045
 10
106.13927602157
 20
1.877953153080763
 10
108.1022669368143
 20
5.27795315308046
 42
-0.2679491924311695
 10
109.184798691545
 20
5.90295315308067
 10
120.875397614786
 20
5.902953153080208
 42
-0.2679491924312795
 10
121.957929369517
 20
5.277953153080686
 10
123.9209202847617
 20
1.87795315308058
 42
0.2679491924310589
 10
124.786945688546
 20
1.37795315308077
 10
152.325
 20
1.377953153080771
 42
-0.414213562373094
 10
154.325
 20
-0.622046846919222
 10
154.325
 20
-5.34736100221262
 42
0.2679491924305405
 10
154.824999999998
 20
-6.213386405996165
 10
158.224995083535
 20
-8.176374482727626
 42
-0.2679491924329882
 10
158.849995083541
 20
-9.25890623746341
 10
158.8499950835333
 20
-20.9495051608018
 42
-0.2679491925340038
 10
158.224995083201
 20
-22.03203691562791
 10
154.8250000003321
 20
-23.99502499022812
 42
0.2679491925338767
 10
154.325
 20
-24.8610503942043
 10
154.325
 20
-96.22584694819651
 42
0.2679491925338507
 10
154.825000000332
 20
-97.0918723521726
 10
158.2249950832016
 20
-99.05486042677354
 42
-0.2679491925338117
 10
158.849995083533
 20
-100.137392181599
 10
158.8499950835415
 20
-111.827991104937
 42
-0.2679491924332283
 10
158.224995083535
 20
-112.910522859673
 10
154.8249999999979
 20
-114.8735109364048
 42
0.2679491924304692
 10
154.325
 20
-115.739536340188
 10
154.325
 20
-120.464850495482
 42
-0.414213562373095
 10
152.325
 20
-122.464850495482
 10
112.156849807738
 20
-122.464850495482
 42
0.2679491924311992
 10
111.290824403953
 20
-122.964850495482
 10
109.3278313801407
 20
-126.3648541476294
 42
-0.2679491924311421
 10
108.245299625411
 20
-126.989854147629
 10
96.55470070216872
 20
-126.989854147628
 42
-0.2679491924311929
 10
95.47216894743779
 20
-126.364854147628
 10
93.50917592362526
 20
-122.964850495482
 42
0.2679491924311291
 10
92.64315051984082
 20
-122.464850495482
 10
46.2193475353805
 20
-122.464850495482
 42
0.2679491924311196
 10
45.35332213159609
 20
-122.964850495482
 10
43.39033121635133
 20
-126.364850495482
 42
-0.2679491924311138
 10
42.3077994616208
 20
-126.989850495482
 10
30.6172002950249
 20
-126.9898504954812
 42
-0.2679489586343478
 10
29.5346692073099
 20
-126.364851229284
 10
27.57167786840396
 20
-122.964850495482
 42
0.267949192431132
 10
26.7056524646195
 20
-122.464850495482
 10
-32.3806524646195
 20
-122.464850495482
 42
0.267949192431136
 10
-33.24667786840401
 20
-122.964850495482
 10
-35.20966920730929
 20
-126.3648512292844
 42
-0.2679489586343271
 10
-36.2922002950249
 20
-126.989850495482
 10
-47.9827994616208
 20
-126.9898504954824
 42
-0.2679494241287271
 10
-49.06533175679331
 20
-126.364849559409
 10
-51.02832213159596
 20
-122.964850495482
 42
0.267949192431123
 10
-51.8943475353804
 20
-122.464850495482
 10
-98.31815051984071
 20
-122.464850495482
 42
0.267949192431136
 10
-99.18417592362522
 20
-122.964850495482
 10
-101.1471689474372
 20
-126.3648541476285
 42
-0.2679491924314668
 10
-102.229700702169
 20
-126.989854147629
 10
-113.920299625411
 20
-126.9898541476282
 42
-0.2679491924311386
 10
-115.00283138014
 20
-126.364854147629
 10
-116.9658244039534
 20
-122.9648504954823
 42
0.2679491924312019
 10
-117.831849807738
 20
-122.464850495482
  0
CIRCLE
  5
145
100
AcDbEntity
  8
0
  6
ByLayer
 62
  256
370
   -1
100
AcDbCircle
 10
49.56250000000001
 20
4.20295315308078
 40
1.1
  0
CIRCLE
  5
146
100
AcDbEntity
  8
0
  6
ByLayer
 62
  256
370
   -1
100
AcDbCircle
 10
102.400000163789
 20
-125.289854147629
 40
1.09999999999999
  0
CIRCLE
  5
147
100
AcDbEntity
  8
0
  6
ByLayer
 62
  256
370
   -1
100
AcDbCircle
 10
-162.824995083534
 20
-105.982691643323
 40
1.09999999999999
  0
CIRCLE
  5
148
100
AcDbEntity
  8
0
  6
ByLayer
 62
  256
370
   -1
100
AcDbCircle
 10
-120.705098153166
 20
4.20295315308066
 40
1.09999999999999
  0
CIRCLE
  5
149
100
AcDbEntity
  8
0
  6
ByLayer
 62
  256
370
   -1
100
AcDbCircle
 10
-108.075000163789
 20
-125.289854147629
 40
1.09999999999999
  0
CIRCLE
  5
14A
100
AcDbEntity
  8
0
  6
ByLayer
 62
  256
370
   -1
100
AcDbCircle
 10
157.149995083534
 20
-105.982691643323
 40
1.09999999999999
  0
CIRCLE
  5
14B
100
AcDbEntity
  8
0
  6
ByLayer
 62
  256
370
   -1
100
AcDbCircle
 10
115.030098153166
 20
4.20295315308078
 40
1.09999999999999
  0
CIRCLE
  5
14C
100
AcDbEntity
  8
0
  6
ByLayer
 62
  256
370
   -1
100
AcDbCircle
 10
36.46250000000001
 20
-125.289850495482
 40
1.1
  0
CIRCLE
  5
14D
100
AcDbEntity
  8
0
  6
ByLayer
 62
  256
370
   -1
100
AcDbCircle
 10
-162.824995083534
 20
-15.1042056990779
 40
1.09999999999999
  0
CIRCLE
  5
14E
100
AcDbEntity
  8
0
  6
ByLayer
 62
  256
370
   -1
100
AcDbCircle
 10
-55.2375
 20
4.20295315308075
 40
1.1
  0
CIRCLE
  5
14F
100
AcDbEntity
  8
0
  6
ByLayer
 62
  256
370
   -1
100
AcDbCircle
 10
-42.1375
 20
-125.289850495482
 40
1.09999999999999
  0
CIRCLE
  5
150
100
AcDbEntity
  8
0
  6
ByLayer
 62
  256
370
   -1
100
AcDbCircle
 10
157.149995083533
 20
-15.1042056990778
 40
1.09999999999999
  0
LWPOLYLINE
  5
151
100
AcDbEntity
  8
0
  6
ByLayer
 62
  256
370
   -1
100
AcDbPolyline
 90
    8
 70
    1
 43
0
 10
-44.4625
 20
-82.13454685436983
 42
-0.4142135623730992
 10
-43.46250000000001
 20
-83.1345468543698
 10
-43.46250000000001
 20
-95.13454685436982
 42
-0.4142135623730909
 10
-44.4625
 20
-96.13454685436979
 10
-56.46250000000001
 20
-96.13454685436979
 42
-0.4142135623730971
 10
-57.46250000000002
 20
-95.13454685436982
 10
-57.46250000000001
 20
-83.1345468543698
 42
-0.414213562373095
 10
-56.46250000000001
 20
-82.1345468543698
  0
LWPOLYLINE
  5
152
100
AcDbEntity
  8
0
  6
ByLayer
 62
  256
370
   -1
100
AcDbPolyline
 90
    8
 70
    1
 43
0
 10
-71.75
 20
-45.03454685436981
 10
-71.75
 20
-57.03454685436981
 42
0.414213562373095
 10
-70.75
 20
-58.03454685436981
 10
-58.75
 20
-58.03454685436981
 42
0.414213562373095
 10
-57.75
 20
-57.03454685436981
 10
-57.75
 20
-45.03454685436981
 42
0.4142135623730929
 10
-58.75
 20
-44.03454685436981
 10
-70.75
 20
-44.03454685436981
 42
0.414213562373095
  0
LWPOLYLINE
  5
153
100
AcDbEntity
  8
0
  6
ByLayer
 62
  256
370
   -1
100
AcDbPolyline
 90
    8
 70
    1
 43
0
 10
-9.83749999999999
 20
-64.0845468543698
 42
-0.4142135623730966
 10
-8.83749999999999
 20
-63.08454685436981
 10
3.162500000000001
 20
-63.08454685436979
 42
-0.4142135623730938
 10
4.16250000000001
 20
-64.0845468543698
 10
4.162499999999999
 20
-76.0845468543698
 42
-0.4142135623730945
 10
3.162500000000001
 20
-77.0845468543698
 10
-8.83749999999999
 20
-77.0845468543698
 42
-0.4142135623730945
 10
-9.837499999999988
 20
-76.0845468543698
  0
LWPOLYLINE
  5
154
100
AcDbEntity
  8
0
  6
ByLayer
 62
  256
370
   -1
100
AcDbPolyline
 90
    8
 70
    1
 43
0
 10
-81.27500000000001
 20
-25.9845468543698
 42
-0.4142135623730909
 10
-80.27500000000002
 20
-24.9845468543698
 10
-68.27500000000001
 20
-24.9845468543698
 42
-0.4142135623730961
 10
-67.27500000000001
 20
-25.9845468543698
 10
-67.27500000000001
 20
-37.9845468543698
 42
-0.414213562373095
 10
-68.27500000000001
 20
-38.9845468543698
 10
-80.27500000000002
 20
-38.98454685436982
 42
-0.4142135623730846
 10
-81.27500000000003
 20
-37.9845468543698
  0
LWPOLYLINE
  5
155
100
AcDbEntity
  8
0
  6
ByLayer
 62
  256
370
   -1
100
AcDbPolyline
 90
    8
 70
    1
 43
0
 10
52.07500000000002
 20
-25.9845468543698
 42
-0.4142135623730929
 10
53.07500000000001
 20
-24.9845468543698
 10
65.075
 20
-24.98454685436979
 42
-0.4142135623730898
 10
66.07500000000003
 20
-25.9845468543698
 10
66.075
 20
-37.9845468543698
 42
-0.414213562373095
 10
65.075
 20
-38.9845468543698
 10
53.07500000000001
 20
-38.98454685436982
 42
-0.4142135623730929
 10
52.075
 20
-37.9845468543698
  0
LWPOLYLINE
  5
156
100
AcDbEntity
  8
0
  6
ByLayer
 62
  256
370
   -1
100
AcDbPolyline
 90
    8
 70
    1
 43
0
 10
-28.8875
 20
-64.0845468543698
 42
-0.4142135623730971
 10
-27.8875
 20
-63.08454685436981
 10
-15.8875
 20
-63.08454685436981
 42
-0.4142135623730966
 10
-14.8875
 20
-64.0845468543698
 10
-14.8875
 20
-76.0845468543698
 42
-0.414213562373095
 10
-15.8875
 20
-77.0845468543698
 10
-27.8875
 20
-77.08454685436978
 42
-0.414213562373094
 10
-28.8875
 20
-76.0845468543698
  0
LWPOLYLINE
  5
157
100
AcDbEntity
  8
0
  6
ByLayer
 62
  256
370
   -1
100
AcDbPolyline
 90
    8
 70
    1
 43
0
 10
52.075
 20
-2.172046854369811
 10
52.075
 20
-14.1720468543698
 42
0.4142135623730929
 10
53.07500000000001
 20
-15.1720468543698
 10
65.075
 20
-15.1720468543698
 42
0.414213562373095
 10
66.075
 20
-14.1720468543698
 10
66.07500000000003
 20
-2.17204685436983
 42
0.4142135623730925
 10
65.075
 20
-1.17204685436981
 10
53.07500000000001
 20
-1.172046854369809
 42
0.4142135623730996
  0
LWPOLYLINE
  5
158
100
AcDbEntity
  8
0
  6
ByLayer
 62
  256
370
   -1
100
AcDbPolyline
 90
    8
 70
    1
 43
0
 10
-114.6125
 20
-83.1345468543698
 42
-0.414213562373095
 10
-113.6125
 20
-82.1345468543698
 10
-101.6125
 20
-82.1345468543698
 42
-0.414213562373095
 10
-100.6125
 20
-83.1345468543698
 10
-100.6125
 20
-95.13454685436982
 42
-0.4142135623730742
 10
-101.6125
 20
-96.13454685436983
 10
-113.6125
 20
-96.13454685436984
 42
-0.4142135623730784
 10
-114.6125
 20
-95.13454685436982
  0
LWPOLYLINE
  5
159
100
AcDbEntity
  8
0
  6
ByLayer
 62
  256
370
   -1
100
AcDbPolyline
 90
    8
 70
    1
 43
0
 10
-66.9875
 20
-64.0845468543698
 42
-0.414213562373095
 10
-65.9875
 20
-63.0845468543698
 10
-53.9875
 20
-63.0845468543698
 42
-0.4142135623730888
 10
-52.98749999999998
 20
-64.0845468543698
 10
-52.9875
 20
-76.0845468543698
 42
-0.414213562373095
 10
-53.9875
 20
-77.0845468543698
 10
-65.9875
 20
-77.0845468543698
 42
-0.414213562373095
 10
-66.9875
 20
-76.0845468543698
  0
LWPOLYLINE
  5
15A
100
AcDbEntity
  8
0
  6
ByLayer
 62
  256
370
   -1
100
AcDbPolyline
 90
    8
 70
    1
 43
0
 10
-128.9
 20
-45.03454685436981
 42
-0.414213562373095
 10
-127.9
 20
-44.03454685436981
 10
-115.9
 20
-44.03454685436981
 42
-0.414213562373095
 10
-114.9
 20
-45.03454685436981
 10
-114.9
 20
-57.03454685436981
 42
-0.414213562373095
 10
-115.9
 20
-58.03454685436981
 10
-127.9
 20
-58.03454685436981
 42
-0.4142135623730784
 10
-128.9
 20
-57.03454685436981
  0
LWPOLYLINE
  5
15B
100
AcDbEntity
  8
0
  6
ByLayer
 62
  256
370
   -1
100
AcDbPolyline
 90
    8
 70
    1
 43
0
 10
94.9375
 20
-106.94704685437
 42
-0.414213562373095
 10
95.9375
 20
-105.94704685437
 10
107.9375
 20
-105.94704685437
 42
-0.4142135623730784
 10
108.9375
 20
-106.94704685437
 10
108.9375
 20
-118.94704685437
 42
-0.414213562373095
 10
107.9375
 20
-119.94704685437
 10
95.9375
 20
-119.94704685437
 42
-0.4142135623730867
 10
94.93750000000003
 20
-118.94704685437
  0
LWPOLYLINE
  5
15C
100
AcDbEntity
  8
0
  6
ByLayer
 62
  256
370
   -1
100
AcDbPolyline
 90
    8
 70
    1
 43
0
 10
-6.3625
 20
-82.1345468543698
 42
-0.4142135623730938
 10
-5.362500000000004
 20
-83.1345468543698
 10
-5.362500000000004
 20
-95.13454685436982
 42
-0.4142135623730935
 10
-6.3625
 20
-96.13454685436979
 10
-18.3625
 20
-96.13454685436983
 42
-0.4142135623730846
 10
-19.36250000000001
 20
-95.13454685436982
 10
-19.36250000000001
 20
-83.1345468543698
 42
-0.4142135623730971
 10
-18.3625
 20
-82.1345468543698
  0
LWPOLYLINE
  5
15D
100
AcDbEntity
  8
0
  6
ByLayer
 62
  256
370
   -1
100
AcDbPolyline
 90
    8
 70
    1
 43
0
 10
-100.325
 20
-25.9845468543698
 42
-0.4142135623730981
 10
-99.32500000000002
 20
-24.9845468543698
 10
-87.325
 20
-24.9845468543698
 42
-0.414213562373095
 10
-86.325
 20
-25.9845468543698
 10
-86.325
 20
-37.9845468543698
 42
-0.414213562373095
 10
-87.325
 20
-38.9845468543698
 10
-99.32500000000002
 20
-38.9845468543698
 42
-0.414213562373095
 10
-100.325
 20
-37.9845468543698
  0
LWPOLYLINE
  5
15E
100
AcDbEntity
  8
0
  6
ByLayer
 62
  256
370
   -1
100
AcDbPolyline
 90
    8
 70
    1
 43
0
 10
150.8
 20
-82.1345468543698
 42
-0.4142135623730617
 10
151.8
 20
-83.1345468543698
 10
151.8
 20
-95.13454685436982
 42
-0.4142135623730659
 10
150.8
 20
-96.13454685436983
 10
138.8
 20
-96.13454685436984
 42
-0.4142135623730701
 10
137.8
 20
-95.13454685436982
 10
137.8
 20
-83.1345468543698
 42
-0.4142135623731117
 10
138.8
 20
-82.1345468543698
  0
LWPOLYLINE
  5
15F
100
AcDbEntity
  8
0
  6
ByLayer
 62
  256
370
   -1
100
AcDbPolyline
 90
    8
 70
    1
 43
0
 10
113.9875
 20
-106.94704685437
 42
-0.414213562373095
 10
114.9875
 20
-105.94704685437
 10
126.9875
 20
-105.94704685437
 42
-0.4142135623730784
 10
127.9875
 20
-106.94704685437
 10
127.9875
 20
-118.94704685437
 42
-0.414213562373095
 10
126.9875
 20
-119.94704685437
 10
114.9875
 20
-119.94704685437
 42
-0.4142135623730867
 10
113.9875
 20
-118.94704685437
  0
LWPOLYLINE
  5
160
100
AcDbEntity
  8
0
  6
ByLayer
 62
  256
370
   -1
100
AcDbPolyline
 90
    8
 70
    1
 43
0
 10
-47.93749999999999
 20
-64.0845468543698
 42
-0.4142135623730929
 10
-46.93750000000001
 20
-63.08454685436981
 10
-34.9375
 20
-63.08454685436981
 42
-0.4142135623730971
 10
-33.9375
 20
-64.0845468543698
 10
-33.9375
 20
-76.0845468543698
 42
-0.414213562373095
 10
-34.9375
 20
-77.0845468543698
 10
-46.93750000000001
 20
-77.0845468543698
 42
-0.4142135623730929
 10
-47.9375
 20
-76.0845468543698
  0
LWPOLYLINE
  5
161
100
AcDbEntity
  8
0
  6
ByLayer
 62
  256
370
   -1
100
AcDbPolyline
 90
    8
 70
    1
 43
0
 10
-105.0875
 20
-64.0845468543698
 42
-0.4142135623731034
 10
-104.0875
 20
-63.0845468543698
 10
-92.08750000000001
 20
-63.0845468543698
 42
-0.414213562373095
 10
-91.08750000000001
 20
-64.0845468543698
 10
-91.08750000000001
 20
-76.0845468543698
 42
-0.414213562373095
 10
-92.08750000000001
 20
-77.0845468543698
 10
-104.0875
 20
-77.08454685436983
 42
-0.4142135623731034
 10
-105.0875
 20
-76.0845468543698
  0
LWPOLYLINE
  5
162
100
AcDbEntity
  8
0
  6
ByLayer
 62
  256
370
   -1
100
AcDbPolyline
 90
    8
 70
    1
 43
0
 10
137.8
 20
-64.0845468543698
 42
-0.4142135623730992
 10
138.8
 20
-63.0845468543698
 10
150.8
 20
-63.08454685436982
 42
-0.4142135623730742
 10
151.8
 20
-64.0845468543698
 10
151.8
 20
-76.0845468543698
 42
-0.414213562373095
 10
150.8
 20
-77.0845468543698
 10
138.8
 20
-77.08454685436983
 42
-0.4142135623730867
 10
137.8
 20
-76.0845468543698
  0
LWPOLYLINE
  5
163
100
AcDbEntity
  8
0
  6
ByLayer
 62
  256
370
   -1
100
AcDbPolyline
 90
    8
 70
    1
 43
0
 10
-38.41250000000002
 20
-83.1345468543698
 42
-0.4142135623730992
 10
-37.4125
 20
-82.1345468543698
 10
-25.4125
 20
-82.13454685436983
 42
-0.414213562373095
 10
-24.4125
 20
-83.1345468543698
 10
-24.4125
 20
-95.13454685436982
 42
-0.414213562373095
 10
-25.4125
 20
-96.13454685436979
 10
-37.4125
 20
-96.1345468543698
 42
-0.4142135623730929
 10
-38.4125
 20
-95.13454685436982
  0
LWPOLYLINE
  5
164
100
AcDbEntity
  8
0
  6
ByLayer
 62
  256
370
   -1
100
AcDbPolyline
 90
    8
 70
    1
 43
0
 10
33.025
 20
-25.9845468543698
 42
-0.4142135623730909
 10
34.025
 20
-24.9845468543698
 10
46.025
 20
-24.98454685436982
 42
-0.4142135623730992
 10
47.02499999999998
 20
-25.9845468543698
 10
47.02499999999998
 20
-37.9845468543698
 42
-0.414213562373095
 10
46.025
 20
-38.9845468543698
 10
34.025
 20
-38.98454685436982
 42
-0.4142135623730992
 10
33.02499999999998
 20
-37.9845468543698
  0
LWPOLYLINE
  5
165
100
AcDbEntity
  8
0
  6
ByLayer
 62
  256
370
   -1
100
AcDbPolyline
 90
    8
 70
    1
 43
0
 10
-30.175
 20
-24.9845468543698
 42
-0.4142135623730971
 10
-29.175
 20
-25.9845468543698
 10
-29.17499999999999
 20
-37.9845468543698
 42
-0.4142135623730971
 10
-30.175
 20
-38.98454685436982
 10
-42.175
 20
-38.9845468543698
 42
-0.414213562373095
 10
-43.175
 20
-37.9845468543698
 10
-43.17500000000001
 20
-25.9845468543698
 42
-0.4142135623730961
 10
-42.175
 20
-24.9845468543698
  0
LWPOLYLINE
  5
166
100
AcDbEntity
  8
0
  6
ByLayer
 62
  256
370
   -1
100
AcDbPolyline
 90
    8
 70
    1
 43
0
 10
-9.83749999999999
 20
-2.172046854369811
 42
-0.4142135623730953
 10
-8.83749999999999
 20
-1.17204685436981
 10
3.162500000000001
 20
-1.172046854369799
 42
-0.4142135623730955
 10
4.16250000000001
 20
-2.172046854369813
 10
4.162499999999994
 20
-14.1720468543698
 42
-0.4142135623730945
 10
3.162500000000001
 20
-15.1720468543698
 10
-8.83749999999999
 20
-15.17204685436981
 42
-0.4142135623730961
 10
-9.8375
 20
-14.1720468543698
  0
LWPOLYLINE
  5
167
100
AcDbEntity
  8
0
  6
ByLayer
 62
  256
370
   -1
100
AcDbPolyline
 90
    8
 70
    1
 43
0
 10
-86.03749999999999
 20
-64.0845468543698
 10
-86.03749999999999
 20
-76.0845468543698
 42
0.4142135623730867
 10
-85.03749999999999
 20
-77.0845468543698
 10
-73.03749999999999
 20
-77.0845468543698
 42
0.414213562373095
 10
-72.03749999999999
 20
-76.0845468543698
 10
-72.03749999999999
 20
-64.0845468543698
 42
0.4142135623730992
 10
-73.03749999999999
 20
-63.0845468543698
 10
-85.03749999999999
 20
-63.08454685436982
 42
0.4142135623730992
  0
LWPOLYLINE
  5
168
100
AcDbEntity
  8
0
  6
ByLayer
 62
  256
370
   -1
100
AcDbPolyline
 90
    8
 70
    1
 43
0
 10
-28.8875
 20
-2.17204685436981
 42
-0.4142135623730931
 10
-27.8875
 20
-1.172046854369809
 10
-15.8875
 20
-1.172046854369817
 42
-0.4142135623730944
 10
-14.8875
 20
-2.172046854369811
 10
-14.8875
 20
-14.1720468543698
 42
-0.414213562373094
 10
-15.8875
 20
-15.1720468543698
 10
-27.8875
 20
-15.1720468543698
 42
-0.414213562373095
 10
-28.8875
 20
-14.1720468543698
  0
LWPOLYLINE
  5
169
100
AcDbEntity
  8
0
  6
ByLayer
 62
  256
370
   -1
100
AcDbPolyline
 90
    8
 70
    1
 43
0
 10
-90.79999999999998
 20
-45.03454685436981
 42
-0.414213562373095
 10
-89.80000000000001
 20
-44.03454685436981
 10
-77.8
 20
-44.03454685436981
 42
-0.4142135623730929
 10
-76.80000000000001
 20
-45.03454685436981
 10
-76.80000000000001
 20
-57.03454685436981
 42
-0.4142135623730909
 10
-77.8
 20
-58.0345468543698
 10
-89.80000000000001
 20
-58.03454685436978
 42
-0.4142135623730784
 10
-90.79999999999998
 20
-57.03454685436981
  0
LWPOLYLINE
  5
16A
100
AcDbEntity
  8
0
  6
ByLayer
 62
  256
370
   -1
100
AcDbPolyline
 90
    8
 70
    1
 43
0
 10
42.55
 20
-45.03454685436981
 42
-0.414213562373095
 10
43.55
 20
-44.03454685436981
 10
55.55
 20
-44.03454685436984
 42
-0.414213562373095
 10
56.54999999999997
 20
-45.03454685436981
 10
56.55
 20
-57.03454685436981
 42
-0.414213562373095
 10
55.55
 20
-58.03454685436981
 10
43.55
 20
-58.03454685436981
 42
-0.4142135623730909
 10
42.54999999999998
 20
-57.03454685436981
  0
LWPOLYLINE
  5
16B
100
AcDbEntity
  8
0
  6
ByLayer
 62
  256
370
   -1
100
AcDbPolyline
 90
    8
 70
    1
 43
0
 10
4.450000000000019
 20
-45.03454685436981
 42
-0.4142135623730955
 10
5.450000000000021
 20
-44.03454685436979
 10
17.45
 20
-44.03454685436984
 42
-0.4142135623730981
 10
18.44999999999998
 20
-45.03454685436981
 10
18.45
 20
-57.03454685436981
 42
-0.414213562373094
 10
17.45
 20
-58.03454685436981
 10
5.449999999999982
 20
-58.03454685436982
 42
-0.4142135623730945
 10
4.44999999999997
 20
-57.03454685436981
  0
LWPOLYLINE
  5
16C
100
AcDbEntity
  8
0
  6
ByLayer
 62
  256
370
   -1
100
AcDbPolyline
 90
    8
 70
    1
 43
0
 10
-152.7124999999999
 20
-45.03454685436981
 42
-0.414213562373095
 10
-151.7125
 20
-44.0345468543698
 10
-139.7125
 20
-44.0345468543698
 42
-0.4142135623730971
 10
-138.7125
 20
-45.03454685436981
 10
-138.7125000000001
 20
-57.03454685436981
 42
-0.4142135623731034
 10
-139.7125
 20
-58.03454685436981
 10
-151.7125
 20
-58.03454685436981
 42
-0.414213562373095
 10
-152.7125
 20
-57.03454685436981
  0
LWPOLYLINE
  5
16D
100
AcDbEntity
  8
0
  6
ByLayer
 62
  256
370
   -1
100
AcDbPolyline
 90
    8
 70
    1
 43
0
 10
36.5
 20
-44.03454685436977
 42
-0.4142135623730929
 10
37.5
 20
-45.03454685436981
 10
37.5
 20
-57.03454685436981
 42
-0.414213562373095
 10
36.5
 20
-58.03454685436981
 10
24.5
 20
-58.03454685436978
 42
-0.4142135623730888
 10
23.50000000000002
 20
-57.03454685436981
 10
23.49999999999999
 20
-45.03454685436981
 42
-0.4142135623730898
 10
24.5
 20
-44.03454685436981
  0
LWPOLYLINE
  5
16E
100
AcDbEntity
  8
0
  6
ByLayer
 62
  256
370
   -1
100
AcDbPolyline
 90
    8
 70
    1
 43
0
 10
90.175
 20
-2.172046854369811
 42
-0.4142135623730953
 10
91.175
 20
-1.17204685436981
 10
103.175
 20
-1.172046854369797
 42
-0.4142135623730824
 10
104.175
 20
-2.172046854369811
 10
104.175
 20
-14.1720468543698
 42
-0.414213562373095
 10
103.175
 20
-15.1720468543698
 10
91.175
 20
-15.17204685436981
 42
-0.4142135623730857
 10
90.17499999999998
 20
-14.1720468543698
  0
LWPOLYLINE
  5
16F
100
AcDbEntity
  8
0
  6
ByLayer
 62
  256
370
   -1
100
AcDbPolyline
 90
    8
 70
    1
 43
0
 10
47.3125
 20
-64.0845468543698
 10
47.3125
 20
-76.0845468543698
 42
0.4142135623730909
 10
48.31250000000001
 20
-77.0845468543698
 10
60.3125
 20
-77.0845468543698
 42
0.414213562373095
 10
61.3125
 20
-76.0845468543698
 10
61.3125
 20
-64.0845468543698
 42
0.4142135623730867
 10
60.3125
 20
-63.0845468543698
 10
48.31250000000001
 20
-63.0845468543698
 42
0.4142135623730992
  0
LWPOLYLINE
  5
170
100
AcDbEntity
  8
0
  6
ByLayer
 62
  256
370
   -1
100
AcDbPolyline
 90
    8
 70
    1
 43
0
 10
33.02500000000001
 20
-2.172046854369811
 10
33.02500000000001
 20
-14.1720468543698
 42
0.414213562373095
 10
34.025
 20
-15.1720468543698
 10
46.025
 20
-15.1720468543698
 42
0.414213562373095
 10
47.025
 20
-14.1720468543698
 10
47.02500000000001
 20
-2.17204685436981
 42
0.414213562373095
 10
46.025
 20
-1.17204685436981
 10
34.025
 20
-1.172046854369809
 42
0.4142135623730953
  0
LWPOLYLINE
  5
171
100
AcDbEntity
  8
0
  6
ByLayer
 62
  256
370
   -1
100
AcDbPolyline
 90
   10
 70
    1
 43
0
 10
-137.33125
 20
-63.0845468543698
 10
-154.09375
 20
-63.0845468543698
 42
0.1084391695173647
 10
-154.5125
 20
-63.17644529754925
 42
0.547232772491086
 10
-155.93125
 20
-64.0845468543698
 10
-155.93125
 20
-76.0845468543698
 42
0.5472327724910765
 10
-154.5125
 20
-76.99264841119042
 42
0.1084391695173635
 10
-154.09375
 20
-77.0845468543698
 10
-137.33125
 20
-77.0845468543698
 42
0.414213562373095
 10
-136.33125
 20
-76.0845468543698
 10
-136.33125
 20
-64.0845468543698
 42
0.414213562373095
  0
LWPOLYLINE
  5
172
100
AcDbEntity
  8
0
  6
ByLayer
 62
  256
370
   -1
100
AcDbPolyline
 90
    8
 70
    1
 43
0
 10
56.83750000000001
 20
-83.1345468543698
 42
-0.414213562373095
 10
57.83750000000001
 20
-82.1345468543698
 10
69.83750000000001
 20
-82.1345468543698
 42
-0.4142135623730701
 10
70.83750000000001
 20
-83.1345468543698
 10
70.83750000000001
 20
-95.1345468543698
 42
-0.4142135623730784
 10
69.83750000000001
 20
-96.13454685436983
 10
57.83750000000001
 20
-96.13454685436979
 42
-0.4142135623730992
 10
56.83750000000003
 20
-95.13454685436982
  0
LWPOLYLINE
  5
173
100
AcDbEntity
  8
0
  6
ByLayer
 62
  256
370
   -1
100
AcDbPolyline
 90
    8
 70
    1
 43
0
 10
28.2625
 20
-64.0845468543698
 42
-0.4142135623730971
 10
29.2625
 20
-63.08454685436981
 10
41.2625
 20
-63.0845468543698
 42
-0.4142135623730888
 10
42.26250000000002
 20
-64.0845468543698
 10
42.2625
 20
-76.0845468543698
 42
-0.414213562373095
 10
41.2625
 20
-77.0845468543698
 10
29.2625
 20
-77.08454685436982
 42
-0.4142135623730929
 10
28.26249999999999
 20
-76.0845468543698
  0
LWPOLYLINE
  5
174
100
AcDbEntity
  8
0
  6
ByLayer
 62
  256
370
   -1
100
AcDbPolyline
 90
    8
 70
    1
 43
0
 10
84.125
 20
-1.172046854369797
 42
-0.4142135623730824
 10
85.125
 20
-2.172046854369811
 10
85.125
 20
-14.1720468543698
 42
-0.414213562373095
 10
84.125
 20
-15.1720468543698
 10
72.125
 20
-15.17204685436982
 42
-0.4142135623730888
 10
71.12499999999999
 20
-14.1720468543698
 10
71.125
 20
-2.172046854369812
 42
-0.4142135623730957
 10
72.125
 20
-1.17204685436981
  0
LWPOLYLINE
  5
175
100
AcDbEntity
  8
0
  6
ByLayer
 62
  256
370
   -1
100
AcDbPolyline
 90
    8
 70
    1
 43
0
 10
37.78750000000001
 20
-83.1345468543698
 10
37.78750000000001
 20
-95.13454685436982
 42
0.4142135623730909
 10
38.7875
 20
-96.13454685436979
 10
50.7875
 20
-96.13454685436983
 42
0.4142135623730846
 10
51.78750000000001
 20
-95.13454685436982
 10
51.78750000000001
 20
-83.1345468543698
 42
0.4142135623730825
 10
50.7875
 20
-82.1345468543698
 10
38.7875
 20
-82.1345468543698
 42
0.4142135623730992
  0
LWPOLYLINE
  5
176
100
AcDbEntity
  8
0
  6
ByLayer
 62
  256
370
   -1
100
AcDbPolyline
 90
    8
 70
    1
 43
0
 10
-90.8
 20
-2.172046854369811
 42
-0.4142135623730993
 10
-89.80000000000001
 20
-1.17204685436981
 10
-77.8
 20
-1.172046854369813
 42
-0.414213562373095
 10
-76.80000000000003
 20
-2.172046854369814
 10
-76.80000000000003
 20
-14.1720468543698
 42
-0.4142135623730945
 10
-77.8
 20
-15.1720468543698
 10
-89.80000000000001
 20
-15.17204685436978
 42
-0.4142135623730888
 10
-90.79999999999998
 20
-14.1720468543698
  0
LWPOLYLINE
  5
177
100
AcDbEntity
  8
0
  6
ByLayer
 62
  256
370
   -1
100
AcDbPolyline
 90
    8
 70
    1
 43
0
 10
79.3625
 20
-63.0845468543698
 42
-0.4142135623731034
 10
80.36250000000003
 20
-64.0845468543698
 10
80.36249999999998
 20
-76.0845468543698
 42
-0.4142135623730992
 10
79.3625
 20
-77.0845468543698
 10
67.3625
 20
-77.08454685436978
 42
-0.414213562373095
 10
66.36250000000003
 20
-76.0845468543698
 10
66.36250000000003
 20
-64.0845468543698
 42
-0.414213562373095
 10
67.3625
 20
-63.0845468543698
  0
LWPOLYLINE
  5
178
100
AcDbEntity
  8
0
  6
ByLayer
 62
  256
370
   -1
100
AcDbPolyline
 90
    8
 70
    1
 43
0
 10
-14.60000000000001
 20
-45.03454685436981
 42
-0.4142135623730935
 10
-13.6
 20
-44.03454685436979
 10
-1.599999999999982
 20
-44.03454685436981
 42
-0.4142135623730944
 10
-0.5999999999999842
 20
-45.03454685436981
 10
-0.5999999999999828
 20
-57.03454685436981
 42
-0.4142135623730945
 10
-1.599999999999981
 20
-58.03454685436981
 10
-13.6
 20
-58.03454685436981
 42
-0.414213562373095
 10
-14.6
 20
-57.03454685436981
  0
LWPOLYLINE
  5
179
100
AcDbEntity
  8
0
  6
ByLayer
 62
  256
370
   -1
100
AcDbPolyline
 90
    8
 70
    1
 43
0
 10
-96.85000000000001
 20
-1.172046854369817
 42
-0.4142135623730933
 10
-95.85000000000001
 20
-2.172046854369811
 10
-95.85000000000001
 20
-14.1720468543698
 42
-0.414213562373095
 10
-96.85000000000001
 20
-15.1720468543698
 10
-108.85
 20
-15.17204685436979
 42
-0.4142135623730929
 10
-109.85
 20
-14.1720468543698
 10
-109.85
 20
-2.172046854369812
 42
-0.4142135623730955
 10
-108.85
 20
-1.17204685436981
  0
LWPOLYLINE
  5
17A
100
AcDbEntity
  8
0
  6
ByLayer
 62
  256
370
   -1
100
AcDbPolyline
 90
   20
 70
    1
 43
0
 10
33.18750000000001
 20
-115.1625
 10
33.81617556428333
 20
-115.1625
 42
0.05264173015807899
 10
34.025
 20
-115.18454685437
 10
46.0250000000001
 20
-115.18454685437
 42
0.0526417301581587
 10
46.23382443571671
 20
-115.1625
 10
52.86617556428333
 20
-115.1625
 42
0.05264173015807921
 10
53.07500000000001
 20
-115.18454685437
 10
65.075
 20
-115.18454685437
 42
0.05264173015815759
 10
65.28382443571661
 20
-115.1625
 10
71.91617556428332
 20
-115.1625
 42
0.05264173015807921
 10
72.125
 20
-115.18454685437
 10
84.125
 20
-115.18454685437
 42
0.0526417301581449
 10
84.33382443571661
 20
-115.1625
 10
84.96250000000003
 20
-115.1625
 42
0.4142135623731159
 10
85.96250000000005
 20
-114.1625
 10
85.96250000000003
 20
-102.1625
 42
0.414213562373095
 10
84.96250000000003
 20
-101.1625
 10
33.18750000000001
 20
-101.1625
 42
0.4142135623731013
 10
32.18749999999999
 20
-102.1625
 10
32.1875
 20
-114.1625
 42
0.4142135623731075
  0
LWPOLYLINE
  5
17B
100
AcDbEntity
  8
0
  6
ByLayer
 62
  256
370
   -1
100
AcDbPolyline
 90
    8
 70
    1
 43
0
 10
-5.07499999999999
 20
-25.9845468543698
 42
-0.414213562373095
 10
-4.07499999999999
 20
-24.9845468543698
 10
7.925
 20
-24.98454685436979
 42
-0.4142135623730966
 10
8.925000000000008
 20
-25.9845468543698
 10
8.924999999999999
 20
-37.9845468543698
 42
-0.4142135623730948
 10
7.925
 20
-38.9845468543698
 10
-4.07499999999999
 20
-38.9845468543698
 42
-0.4142135623730943
 10
-5.074999999999987
 20
-37.9845468543698
  0
LWPOLYLINE
  5
17C
100
AcDbEntity
  8
0
  6
ByLayer
 62
  256
370
   -1
100
AcDbPolyline
 90
    8
 70
    1
 43
0
 10
-47.93749999999999
 20
-2.172046854369811
 42
-0.4142135623730951
 10
-46.93750000000001
 20
-1.17204685436981
 10
-34.9375
 20
-1.172046854369813
 42
-0.4142135623730974
 10
-33.93750000000001
 20
-2.172046854369814
 10
-33.93750000000001
 20
-14.1720468543698
 42
-0.4142135623730966
 10
-34.9375
 20
-15.1720468543698
 10
-46.93750000000001
 20
-15.1720468543698
 42
-0.414213562373095
 10
-47.93749999999999
 20
-14.1720468543698
  0
LWPOLYLINE
  5
17D
100
AcDbEntity
  8
0
  6
ByLayer
 62
  256
370
   -1
100
AcDbPolyline
 90
    8
 70
    1
 43
0
 10
-107.46875
 20
-102.18454685437
 42
-0.414213562373095
 10
-106.46875
 20
-101.18454685437
 10
-94.46875
 20
-101.18454685437
 42
-0.414213562373095
 10
-93.46875000000003
 20
-102.18454685437
 10
-93.46875
 20
-114.18454685437
 42
-0.414213562373095
 10
-94.46875
 20
-115.18454685437
 10
-106.46875
 20
-115.18454685437
 42
-0.414213562373095
 10
-107.46875
 20
-114.18454685437
  0
LWPOLYLINE
  5
17E
100
AcDbEntity
  8
0
  6
ByLayer
 62
  256
370
   -1
100
AcDbPolyline
 90
    8
 70
    1
 43
0
 10
-95.5625
 20
-83.1345468543698
 10
-95.5625
 20
-95.13454685436982
 42
0.4142135623730784
 10
-94.5625
 20
-96.13454685436979
 10
-82.5625
 20
-96.13454685436983
 42
0.4142135623730742
 10
-81.5625
 20
-95.13454685436982
 10
-81.5625
 20
-83.1345468543698
 42
0.414213562373095
 10
-82.5625
 20
-82.1345468543698
 10
-94.5625
 20
-82.1345468543698
 42
0.4142135623731034
  0
LWPOLYLINE
  5
17F
100
AcDbEntity
  8
0
  6
ByLayer
 62
  256
370
   -1
100
AcDbPolyline
 90
    8
 70
    1
 43
0
 10
22.2125
 20
-63.0845468543698
 42
-0.4142135623730888
 10
23.21250000000001
 20
-64.0845468543698
 10
23.2125
 20
-76.0845468543698
 42
-0.4142135623730961
 10
22.2125
 20
-77.0845468543698
 10
10.2125
 20
-77.08454685436983
 42
-0.4142135623730976
 10
9.21249999999999
 20
-76.0845468543698
 10
9.212500000000002
 20
-64.0845468543698
 42
-0.4142135623730961
 10
10.2125
 20
-63.08454685436981
  0
LWPOLYLINE
  5
180
100
AcDbEntity
  8
0
  6
ByLayer
 62
  256
370
   -1
100
AcDbPolyline
 90
    8
 70
    1
 43
0
 10
137.8
 20
-45.03454685436981
 10
137.8
 20
-57.03454685436981
 42
0.4142135623730805
 10
138.8
 20
-58.03454685436981
 10
150.8
 20
-58.03454685436981
 42
0.414213562373095
 10
151.8
 20
-57.03454685436981
 10
151.8
 20
-45.03454685436981
 42
0.4142135623730784
 10
150.8
 20
-44.03454685436981
 10
138.8
 20
-44.03454685436979
 42
0.4142135623730825
  0
LWPOLYLINE
  5
181
100
AcDbEntity
  8
0
  6
ByLayer
 62
  256
370
   -1
100
AcDbPolyline
 90
    8
 70
    1
 43
0
 10
-128.9
 20
-2.172046854369811
 42
-0.4142135623730951
 10
-127.9
 20
-1.17204685436981
 10
-115.9
 20
-1.172046854369817
 42
-0.4142135623730933
 10
-114.9
 20
-2.172046854369811
 10
-114.9
 20
-14.1720468543698
 42
-0.414213562373095
 10
-115.9
 20
-15.1720468543698
 10
-127.9
 20
-15.17204685436981
 42
-0.4142135623730898
 10
-128.9
 20
-14.1720468543698
  0
LWPOLYLINE
  5
182
100
AcDbEntity
  8
0
  6
ByLayer
 62
  256
370
   -1
100
AcDbPolyline
 90
    8
 70
    1
 43
0
 10
71.125
 20
-25.9845468543698
 42
-0.414213562373095
 10
72.125
 20
-24.9845468543698
 10
84.125
 20
-24.98454685436979
 42
-0.4142135623730805
 10
85.125
 20
-25.9845468543698
 10
85.125
 20
-37.9845468543698
 42
-0.414213562373095
 10
84.125
 20
-38.9845468543698
 10
72.125
 20
-38.98454685436982
 42
-0.4142135623730825
 10
71.125
 20
-37.9845468543698
  0
LWPOLYLINE
  5
183
100
AcDbEntity
  8
0
  6
ByLayer
 62
  256
370
   -1
100
AcDbPolyline
 90
    8
 70
    1
 43
0
 10
80.65000000000001
 20
-45.03454685436981
 42
-0.414213562373095
 10
81.65000000000001
 20
-44.03454685436981
 10
93.65000000000001
 20
-44.03454685436979
 42
-0.4142135623730825
 10
94.65000000000001
 20
-45.03454685436981
 10
94.65000000000001
 20
-57.03454685436981
 42
-0.414213562373095
 10
93.65000000000001
 20
-58.03454685436981
 10
81.65000000000003
 20
-58.03454685436981
 42
-0.4142135623730825
 10
80.64999999999999
 20
-57.03454685436981
  0
LWPOLYLINE
  5
184
100
AcDbEntity
  8
0
  6
ByLayer
 62
  256
370
   -1
100
AcDbPolyline
 90
    8
 70
    1
 43
0
 10
18.73750000000001
 20
-83.1345468543698
 42
-0.4142135623730929
 10
19.7375
 20
-82.1345468543698
 10
31.7375
 20
-82.1345468543698
 42
-0.4142135623730794
 10
32.73750000000001
 20
-83.1345468543698
 10
32.7375
 20
-95.13454685436982
 42
-0.4142135623730919
 10
31.7375
 20
-96.13454685436979
 10
19.7375
 20
-96.13454685436983
 42
-0.4142135623730846
 10
18.73749999999999
 20
-95.13454685436982
  0
LWPOLYLINE
  5
185
100
AcDbEntity
  8
0
  6
ByLayer
 62
  256
370
   -1
100
AcDbPolyline
 90
    8
 70
    1
 43
0
 10
9.212500000000004
 20
-2.17204685436981
 42
-0.414213562373094
 10
10.2125
 20
-1.17204685436981
 10
22.2125
 20
-1.172046854369809
 42
-0.4142135623731003
 10
23.21250000000001
 20
-2.172046854369831
 10
23.2125
 20
-14.1720468543698
 42
-0.4142135623730909
 10
22.2125
 20
-15.1720468543698
 10
10.2125
 20
-15.17204685436981
 42
-0.4142135623730961
 10
9.21249999999999
 20
-14.1720468543698
  0
LWPOLYLINE
  5
186
100
AcDbEntity
  8
0
  6
ByLayer
 62
  256
370
   -1
100
AcDbPolyline
 90
    8
 70
    1
 43
0
 10
-58.75
 20
-1.172046854369799
 42
-0.4142135623730924
 10
-57.74999999999999
 20
-2.172046854369811
 10
-57.75
 20
-14.1720468543698
 42
-0.414213562373095
 10
-58.75
 20
-15.1720468543698
 10
-70.75
 20
-15.1720468543698
 42
-0.414213562373095
 10
-71.75
 20
-14.1720468543698
 10
-71.75
 20
-2.172046854369812
 42
-0.4142135623730957
 10
-70.75
 20
-1.17204685436981
  0
LWPOLYLINE
  5
187
100
AcDbEntity
  8
0
  6
ByLayer
 62
  256
370
   -1
100
AcDbPolyline
 90
    8
 70
    1
 43
0
 10
83.03125000000001
 20
-83.1345468543698
 42
-0.414213562373095
 10
84.03125000000001
 20
-82.1345468543698
 10
96.03125
 20
-82.13454685436983
 42
-0.4142135623730867
 10
97.03125
 20
-83.1345468543698
 10
97.03125
 20
-95.13454685436982
 42
-0.4142135623730701
 10
96.03125
 20
-96.13454685436984
 10
84.03125000000001
 20
-96.13454685436984
 42
-0.4142135623730784
 10
83.03124999999999
 20
-95.13454685436982
  0
LWPOLYLINE
  5
188
100
AcDbEntity
  8
0
  6
ByLayer
 62
  256
370
   -1
100
AcDbPolyline
 90
    8
 70
    1
 43
0
 10
113.9875
 20
-87.8970468543698
 42
-0.4142135623731034
 10
114.9875
 20
-86.8970468543698
 10
126.9875
 20
-86.89704685436982
 42
-0.4142135623730742
 10
127.9875
 20
-87.8970468543698
 10
127.9875
 20
-99.89704685436982
 42
-0.4142135623730825
 10
126.9875
 20
-100.8970468543698
 10
114.9875
 20
-100.8970468543698
 42
-0.4142135623730784
 10
113.9875
 20
-99.89704685436982
  0
LWPOLYLINE
  5
189
100
AcDbEntity
  8
0
  6
ByLayer
 62
  256
370
   -1
100
AcDbPolyline
 90
    8
 70
    1
 43
0
 10
-155.09375
 20
-102.18454685437
 42
-0.414213562373095
 10
-154.09375
 20
-101.18454685437
 10
-142.09375
 20
-101.18454685437
 42
-0.4142135623730992
 10
-141.09375
 20
-102.18454685437
 10
-141.09375
 20
-114.18454685437
 42
-0.414213562373095
 10
-142.09375
 20
-115.18454685437
 10
-154.09375
 20
-115.18454685437
 42
-0.414213562373095
 10
-155.09375
 20
-114.18454685437
  0
LWPOLYLINE
  5
18A
100
AcDbEntity
  8
0
  6
ByLayer
 62
  256
370
   -1
100
AcDbPolyline
 90
    8
 70
    1
 43
0
 10
-96.84999999999999
 20
-44.03454685436984
 42
-0.4142135623730971
 10
-95.85000000000002
 20
-45.03454685436981
 10
-95.85000000000001
 20
-57.03454685436981
 42
-0.414213562373095
 10
-96.85000000000001
 20
-58.03454685436981
 10
-108.85
 20
-58.03454685436981
 42
-0.414213562373095
 10
-109.85
 20
-57.03454685436981
 10
-109.85
 20
-45.03454685436981
 42
-0.414213562373095
 10
-108.85
 20
-44.03454685436981
  0
LWPOLYLINE
  5
18B
100
AcDbEntity
  8
0
  6
ByLayer
 62
  256
370
   -1
100
AcDbPolyline
 90
    8
 70
    1
 43
0
 10
104.4625
 20
-45.03454685436981
 42
-0.414213562373095
 10
105.4625
 20
-44.03454685436981
 10
117.4625
 20
-44.03454685436979
 42
-0.4142135623730825
 10
118.4625
 20
-45.03454685436981
 10
118.4625
 20
-57.03454685436981
 42
-0.414213562373095
 10
117.4625
 20
-58.03454685436981
 10
105.4625
 20
-58.03454685436981
 42
-0.4142135623730784
 10
104.4625
 20
-57.03454685436981
  0
LWPOLYLINE
  5
18C
100
AcDbEntity
  8
0
  6
ByLayer
 62
  256
370
   -1
100
AcDbPolyline
 90
    8
 70
    1
 43
0
 10
146.0375
 20
-105.94704685437
 42
-0.4142135623730784
 10
147.0375
 20
-106.94704685437
 10
147.0375
 20
-118.94704685437
 42
-0.414213562373095
 10
146.0375
 20
-119.94704685437
 10
134.0375
 20
-119.94704685437
 42
-0.4142135623730784
 10
133.0375
 20
-118.94704685437
 10
133.0375
 20
-106.94704685437
 42
-0.414213562373095
 10
134.0375
 20
-105.94704685437
  0
LWPOLYLINE
  5
18D
100
AcDbEntity
  8
0
  6
ByLayer
 62
  256
370
   -1
100
AcDbPolyline
 90
    8
 70
    1
 43
0
 10
61.59999999999998
 20
-45.03454685436981
 42
-0.414213562373095
 10
62.60000000000001
 20
-44.03454685436979
 10
74.59999999999999
 20
-44.03454685436979
 42
-0.4142135623730909
 10
75.59999999999999
 20
-45.03454685436981
 10
75.59999999999999
 20
-57.03454685436981
 42
-0.414213562373095
 10
74.59999999999999
 20
-58.03454685436981
 10
62.60000000000001
 20
-58.03454685436981
 42
-0.414213562373095
 10
61.59999999999998
 20
-57.03454685436981
  0
LWPOLYLINE
  5
18E
100
AcDbEntity
  8
0
  6
ByLayer
 62
  256
370
   -1
100
AcDbPolyline
 90
    8
 70
    1
 43
0
 10
-157.475
 20
-25.9845468543698
 10
-157.475
 20
-37.9845468543698
 42
0.4142135623730992
 10
-156.475
 20
-38.98454685436981
 10
-144.475
 20
-38.9845468543698
 42
0.414213562373095
 10
-143.475
 20
-37.9845468543698
 10
-143.475
 20
-25.9845468543698
 42
0.414213562373095
 10
-144.475
 20
-24.9845468543698
 10
-156.475
 20
-24.9845468543698
 42
0.414213562373095
  0
LWPOLYLINE
  5
18F
100
AcDbEntity
  8
0
  6
ByLayer
 62
  256
370
   -1
100
AcDbPolyline
 90
    8
 70
    1
 43
0
 10
-33.65000000000001
 20
-45.03454685436979
 42
-0.414213562373095
 10
-32.65
 20
-44.03454685436981
 10
-20.65
 20
-44.03454685436981
 42
-0.414213562373095
 10
-19.65
 20
-45.03454685436981
 10
-19.65
 20
-57.03454685436981
 42
-0.414213562373095
 10
-20.65
 20
-58.03454685436981
 10
-32.65
 20
-58.03454685436981
 42
-0.414213562373095
 10
-33.65
 20
-57.03454685436981
  0
LWPOLYLINE
  5
190
100
AcDbEntity
  8
0
  6
ByLayer
 62
  256
370
   -1
100
AcDbPolyline
 90
    8
 70
    1
 43
0
 10
-52.70000000000002
 20
-45.03454685436981
 42
-0.414213562373095
 10
-51.70000000000001
 20
-44.03454685436979
 10
-39.7
 20
-44.03454685436982
 42
-0.4142135623730971
 10
-38.70000000000001
 20
-45.03454685436981
 10
-38.7
 20
-57.03454685436981
 42
-0.414213562373095
 10
-39.7
 20
-58.03454685436981
 10
-51.70000000000001
 20
-58.03454685436981
 42
-0.4142135623730929
 10
-52.7
 20
-57.03454685436981
  0
LWPOLYLINE
  5
191
100
AcDbEntity
  8
0
  6
ByLayer
 62
  256
370
   -1
100
AcDbPolyline
 90
    8
 70
    1
 43
0
 10
-131.28125
 20
-102.18454685437
 42
-0.414213562373095
 10
-130.28125
 20
-101.18454685437
 10
-118.28125
 20
-101.18454685437
 42
-0.4142135623730701
 10
-117.28125
 20
-102.18454685437
 10
-117.28125
 20
-114.18454685437
 42
-0.414213562373095
 10
-118.28125
 20
-115.18454685437
 10
-130.28125
 20
-115.18454685437
 42
-0.4142135623730659
 10
-131.28125
 20
-114.18454685437
  0
LWPOLYLINE
  5
192
100
AcDbEntity
  8
0
  6
ByLayer
 62
  256
370
   -1
100
AcDbPolyline
 90
    8
 70
    1
 43
0
 10
-124.1375
 20
-64.0845468543698
 42
-0.414213562373095
 10
-123.1375
 20
-63.0845468543698
 10
-111.1375
 20
-63.0845468543698
 42
-0.414213562373095
 10
-110.1375
 20
-64.0845468543698
 10
-110.1375
 20
-76.0845468543698
 42
-0.414213562373095
 10
-111.1375
 20
-77.0845468543698
 10
-123.1375
 20
-77.0845468543698
 42
-0.414213562373095
 10
-124.1375
 20
-76.0845468543698
  0
LWPOLYLINE
  5
193
100
AcDbEntity
  8
0
  6
ByLayer
 62
  256
370
   -1
100
AcDbPolyline
 90
    8
 70
    1
 43
0
 10
12.6875
 20
-82.1345468543698
 42
-0.414213562373081
 10
13.68750000000001
 20
-83.1345468543698
 10
13.68749999999999
 20
-95.13454685436982
 42
-0.4142135623730919
 10
12.6875
 20
-96.13454685436979
 10
0.6875000000000134
 20
-96.13454685436979
 42
-0.4142135623730938
 10
-0.3124999999999821
 20
-95.13454685436982
 10
-0.3124999999999885
 20
-83.1345468543698
 42
-0.4142135623730959
 10
0.6875000000000144
 20
-82.1345468543698
  0
LWPOLYLINE
  5
194
100
AcDbEntity
  8
0
  6
ByLayer
 62
  256
370
   -1
100
AcDbPolyline
 90
    8
 70
    1
 43
0
 10
-49.22499999999999
 20
-24.98454685436979
 42
-0.4142135623730898
 10
-48.22499999999999
 20
-25.9845468543698
 10
-48.22499999999999
 20
-37.9845468543698
 42
-0.414213562373095
 10
-49.225
 20
-38.98454685436982
 10
-61.22500000000001
 20
-38.9845468543698
 42
-0.4142135623730971
 10
-62.225
 20
-37.9845468543698
 10
-62.22500000000001
 20
-25.9845468543698
 42
-0.4142135623730961
 10
-61.22500000000001
 20
-24.9845468543698
  0
LWPOLYLINE
  5
195
100
AcDbEntity
  8
0
  6
ByLayer
 62
  256
370
   -1
100
AcDbPolyline
 90
    8
 70
    1
 43
0
 10
-24.125
 20
-25.9845468543698
 42
-0.4142135623730929
 10
-23.125
 20
-24.9845468543698
 10
-11.125
 20
-24.98454685436981
 42
-0.4142135623730955
 10
-10.125
 20
-25.9845468543698
 10
-10.12500000000001
 20
-37.9845468543698
 42
-0.4142135623730919
 10
-11.125
 20
-38.9845468543698
 10
-23.125
 20
-38.9845468543698
 42
-0.4142135623730981
 10
-24.125
 20
-37.9845468543698
  0
LWPOLYLINE
  5
196
100
AcDbEntity
  8
0
  6
ByLayer
 62
  256
370
   -1
100
AcDbPolyline
 90
    8
 70
    1
 43
0
 10
-119.375
 20
-25.9845468543698
 42
-0.414213562373094
 10
-118.375
 20
-24.9845468543698
 10
-106.375
 20
-24.9845468543698
 42
-0.414213562373095
 10
-105.375
 20
-25.9845468543698
 10
-105.375
 20
-37.9845468543698
 42
-0.4142135623730825
 10
-106.375
 20
-38.98454685436981
 10
-118.375
 20
-38.98454685436981
 42
-0.4142135623730805
 10
-119.375
 20
-37.9845468543698
  0
LWPOLYLINE
  5
197
100
AcDbEntity
  8
0
  6
ByLayer
 62
  256
370
   -1
100
AcDbPolyline
 90
    8
 70
    1
 43
0
 10
13.975
 20
-25.9845468543698
 42
-0.4142135623730914
 10
14.975
 20
-24.9845468543698
 10
26.975
 20
-24.98454685436983
 42
-0.4142135623730961
 10
27.97499999999998
 20
-25.9845468543698
 10
27.97500000000002
 20
-37.9845468543698
 42
-0.4142135623730961
 10
26.975
 20
-38.98454685436982
 10
14.975
 20
-38.98454685436979
 42
-0.4142135623730976
 10
13.97500000000002
 20
-37.9845468543698
  0
LWPOLYLINE
  5
198
100
AcDbEntity
  8
0
  6
ByLayer
 62
  256
370
   -1
100
AcDbPolyline
 90
    8
 70
    1
 43
0
 10
-138.425
 20
-25.9845468543698
 42
-0.414213562373094
 10
-137.425
 20
-24.9845468543698
 10
-125.425
 20
-24.98454685436979
 42
-0.4142135623730805
 10
-124.425
 20
-25.9845468543698
 10
-124.425
 20
-37.9845468543698
 42
-0.4142135623730825
 10
-125.425
 20
-38.98454685436982
 10
-137.425
 20
-38.9845468543698
 42
-0.414213562373095
 10
-138.425
 20
-37.9845468543698
  0
LWPOLYLINE
  5
199
100
AcDbEntity
  8
0
  6
ByLayer
 62
  256
370
   -1
100
AcDbPolyline
 90
    8
 70
    1
 43
0
 10
-76.51250000000002
 20
-83.1345468543698
 42
-0.4142135623730992
 10
-75.5125
 20
-82.1345468543698
 10
-63.5125
 20
-82.1345468543698
 42
-0.4142135623730742
 10
-62.51249999999999
 20
-83.1345468543698
 10
-62.5125
 20
-95.1345468543698
 42
-0.4142135623730805
 10
-63.5125
 20
-96.13454685436983
 10
-75.5125
 20
-96.13454685436979
 42
-0.4142135623730867
 10
-76.51249999999997
 20
-95.13454685436982
  0
CIRCLE
  5
19A
100
AcDbEntity
  8
0
  6
ByLayer
 62
  256
370
   -1
100
AcDbCircle
 10
49.56250000000001
 20
4.20295315308078
 40
1.1
  0
CIRCLE
  5
19B
100
AcDbEntity
  8
0
  6
ByLayer
 62
  256
370
   -1
100
AcDbCircle
 10
102.400000163789
 20
-125.289854147629
 40
1.09999999999999
  0
CIRCLE
  5
19C
100
AcDbEntity
  8
0
  6
ByLayer
 62
  256
370
   -1
100
AcDbCircle
 10
-162.824995083534
 20
-105.982691643323
 40
1.09999999999999
  0
CIRCLE
  5
19D
100
AcDbEntity
  8
0
  6
ByLayer
 62
  256
370
   -1
100
AcDbCircle
 10
-120.705098153166
 20
4.20295315308066
 40
1.09999999999999
  0
CIRCLE
  5
19E
100
AcDbEntity
  8
0
  6
ByLayer
 62
  256
370
   -1
100
AcDbCircle
 10
-108.075000163789
 20
-125.289854147629
 40
1.09999999999999
  0
CIRCLE
  5
19F
100
AcDbEntity
  8
0
  6
ByLayer
 62
  256
370
   -1
100
AcDbCircle
 10
157.149995083534
 20
-105.982691643323
 40
1.09999999999999
  0
CIRCLE
  5
1A0
100
AcDbEntity
  8
0
  6
ByLayer
 62
  256
370
   -1
100
AcDbCircle
 10
115.030098153166
 20
4.20295315308078
 40
1.09999999999999
  0
CIRCLE
  5
1A1
100
AcDbEntity
  8
0
  6
ByLayer
 62
  256
370
   -1
100
AcDbCircle
 10
36.46250000000001
 20
-125.289850495482
 40
1.1
  0
CIRCLE
  5
1A2
100
AcDbEntity
  8
0
  6
ByLayer
 62
  256
370
   -1
100
AcDbCircle
 10
-162.824995083534
 20
-15.1042056990779
 40
1.09999999999999
  0
CIRCLE
  5
1A3
100
AcDbEntity
  8
0
  6
ByLayer
 62
  256
370
   -1
100
AcDbCircle
 10
-55.2375
 20
4.20295315308075
 40
1.1
  0
CIRCLE
  5
1A4
100
AcDbEntity
  8
0
  6
ByLayer
 62
  256
370
   -1
100
AcDbCircle
 10
-42.1375
 20
-125.289850495482
 40
1.09999999999999
  0
CIRCLE
  5
1A5
100
AcDbEntity
  8
0
  6
ByLayer
 62
  256
370
   -1
100
AcDbCircle
 10
157.149995083533
 20
-15.1042056990778
 40
1.09999999999999
  0
LWPOLYLINE
  5
1A6
100
AcDbEntity
  8
0
  6
ByLayer
 62
  256
370
   -1
100
AcDbPolyline
 90
    8
 70
    1
 43
0
 10
151.8
 20
-34.7220468543698
 10
151.8
 20
-19.7220468543698
 42
0.414213562373095
 10
150.8
 20
-18.7220468543698
 10
138.8
 20
-18.7220468543698
 42
0.414213562373095
 10
137.8
 20
-19.7220468543698
 10
137.8
 20
-34.7220468543698
 42
0.4142135623730992
 10
138.8
 20
-35.72204685436981
 10
150.8
 20
-35.7220468543698
 42
0.414213562373095
  0
LWPOLYLINE
  5
1A7
100
AcDbEntity
  8
0
  6
ByLayer
 62
  256
370
   -1
100
AcDbPolyline
 90
    8
 70
    1
 43
0
 10
109.463
 20
-2.15424320580748
 10
109.463
 20
-14.1542432058075
 42
0.4142135623730953
 10
111.463
 20
-16.1542432058075
 10
149.563
 20
-16.1542432058075
 42
0.414213562373095
 10
151.563
 20
-14.1542432058075
 10
151.563
 20
-2.15424320580747
 42
0.4142135623730938
 10
149.563
 20
-0.154243205807479
 10
111.463
 20
-0.1542432058074805
 42
0.414213562373095
  0
LWPOLYLINE
  5
1A8
100
AcDbEntity
  8
0
  6
ByLayer
 62
  256
370
   -1
100
AcDbPolyline
 90
  104
 70
    1
 43
0
 10
-158
 20
-122.464850495482
 42
-0.414213562373095
 10
-160
 20
-120.464850495482
 10
-160
 20
-115.739536340188
 42
0.2679491924304641
 10
-160.499999999998
 20
-114.873510936405
 10
-163.899995083535
 20
-112.910522859673
 42
-0.2679491924330247
 10
-164.524995083541
 20
-111.827991104937
 10
-164.5249950835257
 20
-100.137392181599
 42
-0.2679491925338099
 10
-163.899995083198
 20
-99.05486042677991
 10
-160.5000000003321
 20
-97.09187235217267
 42
0.2679491925338677
 10
-160
 20
-96.22584694819651
 10
-160
 20
-24.8610503942043
 42
0.2679491925338517
 10
-160.500000000332
 20
-23.99502499022818
 10
-163.8999950832008
 20
-22.03203691562777
 42
-0.2679491925338939
 10
-164.524995083534
 20
-20.9495051608018
 10
-164.5249950835411
 20
-9.258906237463503
 42
-0.2679491924329868
 10
-163.899995083535
 20
-8.176374482727658
 10
-160.4999999999981
 20
-6.213386405996093
 42
0.2679491924305503
 10
-160
 20
-5.34736100221272
 10
-160
 20
-0.6220468469192113
 42
-0.4142135623730953
 10
-158
 20
1.37795315308079
 10
-130.461945688546
 20
1.37795315308079
 42
0.2679491924310579
 10
-129.595920284762
 20
1.877953153080786
 10
-127.6329293695173
 20
5.277953153080794
 42
-0.2679491924312762
 10
-126.550397614786
 20
5.90295315308048
 10
-114.859798691545
 20
5.902953153080983
 42
-0.2679491924311755
 10
-113.777266936814
 20
5.277953153080599
 10
-111.8142760215696
 20
1.877953153081027
 42
0.2679491924311965
 10
-110.948250617785
 20
1.37795315308078
 10
-64.9943475353804
 20
1.37795315308078
 42
0.2679491924311153
 10
-64.12832213159601
 20
1.877953153080769
 10
-62.16533121635125
 20
5.277953153080793
 42
-0.267949192431105
 10
-61.08279946162081
 20
5.90295315308069
 10
-49.39220053837921
 20
5.902953153080732
 42
-0.2679491924311163
 10
-48.3096687836487
 20
5.277953153080784
 10
-46.34667786840403
 20
1.877953153080758
 42
0.2679491924311193
 10
-45.4806524646196
 20
1.37795315308078
 10
39.8056524646195
 20
1.37795315308078
 42
0.2679491924311316
 10
40.671677868404
 20
1.877953153080776
 10
42.63466878364867
 20
5.27795315308083
 42
-0.2679491924311362
 10
43.7172005383793
 20
5.9029531530808
 10
55.4077994616208
 20
5.902953153080751
 42
-0.2679491924311201
 10
56.49033121635131
 20
5.277953153080779
 10
58.45332213159605
 20
1.877953153080795
 42
0.2679491924311034
 10
59.31934753538041
 20
1.37795315308077
 10
105.273250617785
 20
1.37795315308077
 42
0.2679491924312045
 10
106.13927602157
 20
1.877953153080763
 10
108.1022669368143
 20
5.27795315308046
 42
-0.2679491924311695
 10
109.184798691545
 20
5.90295315308067
 10
120.875397614786
 20
5.902953153080208
 42
-0.2679491924312841
 10
121.957929369517
 20
5.27795315308069
 10
123.9209202847617
 20
1.877953153080582
 42
0.2679491924310595
 10
124.786945688546
 20
1.37795315308077
 10
152.325
 20
1.377953153080774
 42
-0.4142135623730945
 10
154.325
 20
-0.622046846919222
 10
154.325
 20
-5.34736100221262
 42
0.2679491924305405
 10
154.824999999998
 20
-6.213386405996165
 10
158.224995083535
 20
-8.176374482727626
 42
-0.2679491924329882
 10
158.849995083541
 20
-9.25890623746341
 10
158.8499950835333
 20
-20.9495051608018
 42
-0.2679491925340038
 10
158.224995083201
 20
-22.03203691562791
 10
154.8250000003321
 20
-23.99502499022812
 42
0.2679491925338767
 10
154.325
 20
-24.8610503942043
 10
154.325
 20
-96.22584694819651
 42
0.2679491925338507
 10
154.825000000332
 20
-97.0918723521726
 10
158.2249950832016
 20
-99.05486042677354
 42
-0.2679491925338117
 10
158.849995083533
 20
-100.137392181599
 10
158.8499950835415
 20
-111.827991104937
 42
-0.2679491924332283
 10
158.224995083535
 20
-112.910522859673
 10
154.8249999999979
 20
-114.8735109364048
 42
0.2679491924304692
 10
154.325
 20
-115.739536340188
 10
154.325
 20
-120.464850495482
 42
-0.414213562373095
 10
152.325
 20
-122.464850495482
 10
112.156849807738
 20
-122.464850495482
 42
0.2679491924311992
 10
111.290824403953
 20
-122.964850495482
 10
109.3278313801407
 20
-126.3648541476294
 42
-0.2679491924311421
 10
108.245299625411
 20
-126.989854147629
 10
96.55470070216872
 20
-126.989854147628
 42
-0.2679491924311929
 10
95.47216894743779
 20
-126.364854147628
 10
93.50917592362526
 20
-122.964850495482
 42
0.2679491924311291
 10
92.64315051984082
 20
-122.464850495482
 10
46.2193475353805
 20
-122.464850495482
 42
0.2679491924311196
 10
45.35332213159609
 20
-122.964850495482
 10
43.39033121635133
 20
-126.364850495482
 42
-0.2679491924311138
 10
42.3077994616208
 20
-126.989850495482
 10
30.6172002950249
 20
-126.9898504954812
 42
-0.2679489586343478
 10
29.5346692073099
 20
-126.364851229284
 10
27.57167786840396
 20
-122.964850495482
 42
0.267949192431132
 10
26.7056524646195
 20
-122.464850495482
 10
-32.3806524646195
 20
-122.464850495482
 42
0.267949192431136
 10
-33.24667786840401
 20
-122.964850495482
 10
-35.20966920730929
 20
-126.3648512292844
 42
-0.2679489586343271
 10
-36.2922002950249
 20
-126.989850495482
 10
-47.9827994616208
 20
-126.9898504954824
 42
-0.2679494241287271
 10
-49.06533175679331
 20
-126.364849559409
 10
-51.02832213159596
 20
-122.964850495482
 42
0.267949192431123
 10
-51.8943475353804
 20
-122.464850495482
 10
-98.31815051984071
 20
-122.464850495482
 42
0.267949192431136
 10
-99.18417592362522
 20
-122.964850495482
 10
-101.1471689474372
 20
-126.3648541476285
 42
-0.2679491924314668
 10
-102.229700702169
 20
-126.989854147629
 10
-113.920299625411
 20
-126.9898541476282
 42
-0.2679491924311386
 10
-115.00283138014
 20
-126.364854147629
 10
-116.9658244039534
 20
-122.9648504954823
 42
0.2679491924312019
 10
-117.831849807738
 20
-122.464850495482
  0
INSERT
  5
1A9
100
AcDbEntity
  8
0
  6
ByLayer
 62
  256
370
   -1
100
AcDbBlockReference
  2
S75_ANSI_625_WK_BKSP_Stabilizers_Only-3
 10
-156.4749992017176
 20
-1.17204685436981
 30
0
 41
1
 42
1
 43
0
 50
0
 70
    1
 71
    1
 44
0
 45
0
  0
ENDSEC
  0
SECTION
  2
OBJECTS
  0
DICTIONARY
  5
C
330
0
100
AcDbDictionary
281
    1
  3
ACAD_GROUP
350
D
  0
DICTIONARY
  5
D
330
C
100
AcDbDictionary
281
    1
  0
PLOTSETTINGS
  5
1AA
100
AcDbPlotSettings
  6
1x1
 40
0
 41
0
 42
0
 43
0
  0
ENDSEC
  0
EOF
