999
dxfrw 0.6.3
  0
SECTION
  2
HEADER
  9
$ACADVER
  1
AC1021
  9
$DWGCODEPAGE
  3
ANSI_1252
  9
$INSBASE
 10
0
 20
0
 30
0
  9
$EXTMIN
 10
-164.5249950835411
 20
-126.989854147629
 30
0
  9
$EXTMAX
 10
158.8499950835415
 20
5.902953153080981
 30
0
  9
$LIMMIN
 10
0
 20
0
  9
$LIMMAX
 10
420
 20
297
  9
$ORTHOMODE
 70
    0
  9
$REGENMODE
 70
    1
  9
$FILLMODE
 70
    1
  9
$QTEXTMODE
 70
    0
  9
$MIRRTEXT
 70
    0
  9
$LTSCALE
 40
1
  9
$ATTMODE
 70
    0
  9
$TEXTSIZE
 40
2.5
  9
$TRACEWID
 40
15.68
  9
$TEXTSTYLE
  7
STANDARD
  9
$CLAYER
  8
0
  9
$CELTYPE
  6
BYLAYER
  9
$CECOLOR
 62
  256
  9
$CELTSCALE
 40
1
  9
$DISPSILH
 70
    0
  9
$DIMSCALE
 40
2.5
  9
$DIMASZ
 40
2.5
  9
$DIMEXO
 40
0.625
  9
$DIMDLI
 40
3.75
  9
$DIMRND
 40
0
  9
$DIMDLE
 40
0
  9
$DIMEXE
 40
1.25
  9
$DIMTP
 40
0
  9
$DIMTM
 40
0
  9
$DIMTXT
 40
2.5
  9
$DIMCEN
 40
2.5
  9
$DIMTSZ
 40
0
  9
$DIMTOL
 70
    0
  9
$DIMLIM
 70
    0
  9
$DIMTIH
 70
    0
  9
$DIMTOH
 70
    0
  9
$DIMSE1
 70
    0
  9
$DIMSE2
 70
    0
  9
$DIMTAD
 70
    1
  9
$DIMZIN
 70
    8
  9
$DIMBLK
  1

  9
$DIMASO
 70
    1
  9
$DIMSHO
 70
    1
  9
$DIMPOST
  1

  9
$DIMAPOST
  1

  9
$DIMALT
 70
    0
  9
$DIMALTD
 70
    3
  9
$DIMALTF
 40
0.03937
  9
$DIMLFAC
 40
1
  9
$DIMTOFL
 70
    1
  9
$DIMTVP
 40
0
  9
$DIMTIX
 70
    0
  9
$DIMSOXD
 70
    0
  9
$DIMSAH
 70
    0
  9
$DIMBLK1
  1

  9
$DIMBLK2
  1

  9
$DIMSTYLE
  2
Standard
  9
$DIMCLRD
 70
    0
  9
$DIMCLRE
 70
    0
  9
$DIMCLRT
 70
    0
  9
$DIMTFAC
 40
1
  9
$DIMGAP
 40
0.625
  9
$DIMJUST
 70
    0
  9
$DIMSD1
 70
    0
  9
$DIMSD2
 70
    0
  9
$DIMTOLJ
 70
    0
  9
$DIMTZIN
 70
    8
  9
$DIMALTZ
 70
    0
  9
$DIMALTTZ
 70
    0
  9
$DIMUPT
 70
    0
  9
$DIMDEC
 70
    2
  9
$DIMTDEC
 70
    2
  9
$DIMALTU
 70
    2
  9
$DIMALTTD
 70
    3
  9
$DIMTXSTY
  7
STANDARD
  9
$DIMAUNIT
 70
    0
  9
$DIMADEC
 70
    0
  9
$DIMALTRND
 40
0
  9
$DIMAZIN
 70
    0
  9
$DIMDSEP
 70
   44
  9
$DIMATFIT
 70
    3
  9
$DIMFRAC
 70
    0
  9
$DIMLDRBLK
  1
STANDARD
  9
$DIMLUNIT
 70
    2
  9
$DIMLWD
 70
   -2
  9
$DIMLWE
 70
   -2
  9
$DIMTMOVE
 70
    0
  9
$DIMFXL
 40
1
  9
$DIMFXLON
 70
    0
  9
$DIMJOGANG
 40
0.7854
  9
$DIMTFILL
 70
    0
  9
$DIMTFILLCLR
 70
    0
  9
$DIMARCSYM
 70
    0
  9
$DIMLTYPE
  6

  9
$DIMLTEX1
  6

  9
$DIMLTEX2
  6

  9
$LUNITS
 70
    2
  9
$LUPREC
 70
    4
  9
$SKETCHINC
 40
1
  9
$FILLETRAD
 40
0
  9
$AUNITS
 70
    0
  9
$AUPREC
 70
    2
  9
$MENU
  1
.
  9
$ELEVATION
 40
0
  9
$PELEVATION
 40
0
  9
$THICKNESS
 40
0
  9
$LIMCHECK
 70
    0
  9
$CHAMFERA
 40
0
  9
$CHAMFERB
 40
0
  9
$CHAMFERC
 40
0
  9
$CHAMFERD
 40
0
  9
$SKPOLY
 70
    0
  9
$USRTIMER
 70
    1
  9
$ANGBASE
 50
0
  9
$ANGDIR
 70
    0
  9
$PDMODE
 70
   34
  9
$PDSIZE
 40
0
  9
$PLINEWID
 40
0
  9
$SPLFRAME
 70
    0
  9
$SPLINETYPE
 70
    2
  9
$SPLINESEGS
 70
    8
  9
$HANDSEED
  5
20000
  9
$SURFTAB1
 70
    6
  9
$SURFTAB2
 70
    6
  9
$SURFTYPE
 70
    6
  9
$SURFU
 70
    6
  9
$SURFV
 70
    6
  9
$UCSBASE
  2

  9
$UCSNAME
  2

  9
$UCSORG
 10
0
 20
0
 30
0
  9
$UCSXDIR
 10
1
 20
0
 30
0
  9
$UCSYDIR
 10
0
 20
1
 30
0
  9
$UCSORTHOREF
  2

  9
$UCSORTHOVIEW
 70
    0
  9
$UCSORGTOP
 10
0
 20
0
 30
0
  9
$UCSORGBOTTOM
 10
0
 20
0
 30
0
  9
$UCSORGLEFT
 10
0
 20
0
 30
0
  9
$UCSORGRIGHT
 10
0
 20
0
 30
0
  9
$UCSORGFRONT
 10
0
 20
0
 30
0
  9
$UCSORGBACK
 10
0
 20
0
 30
0
  9
$PUCSBASE
  2

  9
$PUCSNAME
  2

  9
$PUCSORG
 10
0
 20
0
 30
0
  9
$PUCSXDIR
 10
1
 20
0
 30
0
  9
$PUCSYDIR
 10
0
 20
1
 30
0
  9
$PUCSORTHOREF
  2

  9
$PUCSORTHOVIEW
 70
    0
  9
$PUCSORGTOP
 10
0
 20
0
 30
0
  9
$PUCSORGBOTTOM
 10
0
 20
0
 30
0
  9
$PUCSORGLEFT
 10
0
 20
0
 30
0
  9
$PUCSORGRIGHT
 10
0
 20
0
 30
0
  9
$PUCSORGFRONT
 10
0
 20
0
 30
0
  9
$PUCSORGBACK
 10
0
 20
0
 30
0
  9
$USERI1
 70
    0
  9
$USERI2
 70
    0
  9
$USERI3
 70
    0
  9
$USERI4
 70
    0
  9
$USERI5
 70
    0
  9
$USERR1
 40
0
  9
$USERR2
 40
0
  9
$USERR3
 40
0
  9
$USERR4
 40
0
  9
$USERR5
 40
0
  9
$WORLDVIEW
 70
    1
  9
$SHADEDGE
 70
    3
  9
$SHADEDIF
 70
   70
  9
$TILEMODE
 70
    1
  9
$MAXACTVP
 70
   64
  9
$PINSBASE
 10
0
 20
0
 30
0
  9
$PLIMCHECK
 70
    0
  9
$PEXTMIN
 10
0
 20
0
 30
0
  9
$PEXTMAX
 10
0
 20
0
 30
0
  9
$SNAPSTYLE
 70
    0
  9
$PLIMMIN
 10
0
 20
0
  9
$PLIMMAX
 10
210
 20
297
  9
$UNITMODE
 70
    0
  9
$VISRETAIN
 70
    1
  9
$PLINEGEN
 70
    0
  9
$PSLTSCALE
 70
    1
  9
$TREEDEPTH
 70
 3020
  9
$CMLSTYLE
  2
Standard
  9
$CMLJUST
 70
    0
  9
$CMLSCALE
 40
20
  9
$PROXYGRAPHICS
 70
    1
  9
$MEASUREMENT
 70
    1
  9
$CELWEIGHT
370
   -1
  9
$ENDCAPS
280
    0
  9
$JOINSTYLE
280
    0
  9
$LWDISPLAY
290
    0
  9
$INSUNITS
 70
    4
  9
$HYPERLINKBASE
  1

  9
$STYLESHEET
  1

  9
$XEDIT
290
    1
  9
$CEPSNTYPE
380
    0
  9
$PSTYLEMODE
290
    1
  9
$EXTNAMES
290
    1
  9
$PSVPSCALE
 40
1
  9
$OLESTARTUP
290
    0
  9
$SORTENTS
280
  127
  9
$INDEXCTL
280
    0
  9
$HIDETEXT
280
    1
  9
$XCLIPFRAME
290
    0
  9
$HALOGAP
280
    0
  9
$OBSCOLOR
 70
  257
  9
$OBSLTYPE
280
    0
  9
$INTERSECTIONDISPLAY
280
    0
  9
$INTERSECTIONCOLOR
 70
  257
  9
$DIMASSOC
280
    1
  9
$PROJECTNAME
  1

  9
$CAMERADISPLAY
290
    0
  9
$LENSLENGTH
 40
50
  9
$CAMERAHEIGHT
 40
0
  9
$STEPSPERSEC
 40
2
  9
$STEPSIZE
 40
50
  9
$3DDWFPREC
 40
2
  9
$PSOLWIDTH
 40
5
  9
$PSOLHEIGHT
 40
80
  9
$LOFTANG1
 40
1.570796326794897
  9
$LOFTANG2
 40
1.570796326794897
  9
$LOFTMAG1
 40
0
  9
$LOFTMAG2
 40
0
  9
$LOFTPARAM
 70
    7
  9
$LOFTNORMALS
280
    1
  9
$LATITUDE
 40
1
  9
$LONGITUDE
 40
1
  9
$NORTHDIRECTION
 40
0
  9
$TIMEZONE
 70
-8000
  9
$LIGHTGLYPHDISPLAY
280
    1
  9
$TILEMODELIGHTSYNCH
280
    1
  9
$SOLIDHIST
280
    1
  9
$SHOWHIST
280
    1
  9
$DWFFRAME
280
    2
  9
$DGNFRAME
280
    0
  9
$REALWORLDSCALE
290
    1
  9
$INTERFERECOLOR
 62
    1
  9
$CSHADOW
280
    0
  9
$SHADOWPLANELOCATION
 40
0
  0
ENDSEC
  0
SECTION
  2
CLASSES
  0
ENDSEC
  0
SECTION
  2
TABLES
  0
TABLE
  2
VPORT
  5
8
330
0
100
AcDbSymbolTable
 70
    1
  0
VPORT
  5
31
330
2
100
AcDbSymbolTableRecord
100
AcDbViewportTableRecord
  2
*ACTIVE
 70
    0
 10
0
 20
0
 11
1
 21
1
 12
133.6399953750004
 22
37.1671087500001
 13
0
 23
0
 14
10
 24
10
 15
10
 25
10
 16
0
 26
0
 36
1
 17
0
 27
0
 37
0
 40
262.1089147500007
 41
1.955610357583231
 42
50
 43
0
 44
0
 50
0
 51
0
 71
    0
 72
  100
 73
    1
 74
    3
 75
    0
 76
    1
 77
    0
 78
    0
281
    0
 65
    1
110
0
120
0
130
0
111
1
121
0
131
0
112
0
122
1
132
0
 79
    0
146
0
348
10020
 60
    7
 61
    5
292
1
282
    1
141
0
142
0
 63
  250
421
3358443
  0
ENDTAB
  0
TABLE
  2
LTYPE
  5
5
330
0
100
AcDbSymbolTable
 70
    4
  0
LTYPE
  5
14
330
5
100
AcDbSymbolTableRecord
100
AcDbLinetypeTableRecord
  2
ByBlock
 70
    0
  3

 72
   65
 73
    0
 40
0
  0
LTYPE
  5
15
330
5
100
AcDbSymbolTableRecord
100
AcDbLinetypeTableRecord
  2
ByLayer
 70
    0
  3

 72
   65
 73
    0
 40
0
  0
LTYPE
  5
16
330
5
100
AcDbSymbolTableRecord
100
AcDbLinetypeTableRecord
  2
Continuous
 70
    0
  3
Solid line
 72
   65
 73
    0
 40
0
  0
LTYPE
  5
32
330
5
100
AcDbSymbolTableRecord
100
AcDbLinetypeTableRecord
  2
DOT
 70
    0
  3
Dot . . . . . . . . . . . . . . . . . . . . . .
 72
   65
 73
    2
 40
6.35
 49
0
 74
    0
 49
-6.35
 74
    0
  0
LTYPE
  5
33
330
5
100
AcDbSymbolTableRecord
100
AcDbLinetypeTableRecord
  2
DOTTINY
 70
    0
  3
Dot (.15x) .....................................
 72
   65
 73
    2
 40
0.9525
 49
0
 74
    0
 49
-0.9525
 74
    0
  0
LTYPE
  5
34
330
5
100
AcDbSymbolTableRecord
100
AcDbLinetypeTableRecord
  2
DOT2
 70
    0
  3
Dot (.5x) .....................................
 72
   65
 73
    2
 40
3.175
 49
0
 74
    0
 49
-3.175
 74
    0
  0
LTYPE
  5
35
330
5
100
AcDbSymbolTableRecord
100
AcDbLinetypeTableRecord
  2
DOTX2
 70
    0
  3
Dot (2x) .  .  .  .  .  .  .  .  .  .  .  .  .
 72
   65
 73
    2
 40
12.7
 49
0
 74
    0
 49
-12.7
 74
    0
  0
LTYPE
  5
36
330
5
100
AcDbSymbolTableRecord
100
AcDbLinetypeTableRecord
  2
DASHED
 70
    0
  3
Dashed _ _ _ _ _ _ _ _ _ _ _ _ _ _ _ _ _
 72
   65
 73
    2
 40
19.05
 49
12.7
 74
    0
 49
-6.35
 74
    0
  0
LTYPE
  5
37
330
5
100
AcDbSymbolTableRecord
100
AcDbLinetypeTableRecord
  2
DASHEDTINY
 70
    0
  3
Dashed (.15x) _ _ _ _ _ _ _ _ _ _ _ _ _ _ _ _ _
 72
   65
 73
    2
 40
2.8575
 49
1.905
 74
    0
 49
-0.9525
 74
    0
  0
LTYPE
  5
38
330
5
100
AcDbSymbolTableRecord
100
AcDbLinetypeTableRecord
  2
DASHED2
 70
    0
  3
Dashed (.5x) _ _ _ _ _ _ _ _ _ _ _ _ _ _ _ _ _
 72
   65
 73
    2
 40
9.524999999999999
 49
6.35
 74
    0
 49
-3.175
 74
    0
  0
LTYPE
  5
39
330
5
100
AcDbSymbolTableRecord
100
AcDbLinetypeTableRecord
  2
DASHEDX2
 70
    0
  3
Dashed (2x) ____  ____  ____  ____  ____  ___
 72
   65
 73
    2
 40
38.09999999999999
 49
25.4
 74
    0
 49
-12.7
 74
    0
  0
LTYPE
  5
3A
330
5
100
AcDbSymbolTableRecord
100
AcDbLinetypeTableRecord
  2
DASHDOT
 70
    0
  3
Dash dot __ . __ . __ . __ . __ . __ . __ . __
 72
   65
 73
    4
 40
25.4
 49
12.7
 74
    0
 49
-6.35
 74
    0
 49
0
 74
    0
 49
-6.35
 74
    0
  0
LTYPE
  5
3B
330
5
100
AcDbSymbolTableRecord
100
AcDbLinetypeTableRecord
  2
DASHDOTTINY
 70
    0
  3
Dash dot (.15x) _._._._._._._._._._._._._._._.
 72
   65
 73
    4
 40
3.81
 49
1.905
 74
    0
 49
-0.9525
 74
    0
 49
0
 74
    0
 49
-0.9525
 74
    0
  0
LTYPE
  5
3C
330
5
100
AcDbSymbolTableRecord
100
AcDbLinetypeTableRecord
  2
DASHDOT2
 70
    0
  3
Dash dot (.5x) _._._._._._._._._._._._._._._.
 72
   65
 73
    4
 40
12.7
 49
6.35
 74
    0
 49
-3.175
 74
    0
 49
0
 74
    0
 49
-3.175
 74
    0
  0
LTYPE
  5
3D
330
5
100
AcDbSymbolTableRecord
100
AcDbLinetypeTableRecord
  2
DASHDOTX2
 70
    0
  3
Dash dot (2x) ____  .  ____  .  ____  .  ___
 72
   65
 73
    4
 40
50.8
 49
25.4
 74
    0
 49
-12.7
 74
    0
 49
0
 74
    0
 49
-12.7
 74
    0
  0
LTYPE
  5
3E
330
5
100
AcDbSymbolTableRecord
100
AcDbLinetypeTableRecord
  2
DIVIDE
 70
    0
  3
Divide ____ . . ____ . . ____ . . ____ . . ____
 72
   65
 73
    6
 40
31.75
 49
12.7
 74
    0
 49
-6.35
 74
    0
 49
0
 74
    0
 49
-6.35
 74
    0
 49
0
 74
    0
 49
-6.35
 74
    0
  0
LTYPE
  5
3F
330
5
100
AcDbSymbolTableRecord
100
AcDbLinetypeTableRecord
  2
DIVIDETINY
 70
    0
  3
Divide (.15x) __..__..__..__..__..__..__..__.._
 72
   65
 73
    6
 40
4.7625
 49
1.905
 74
    0
 49
-0.9525
 74
    0
 49
0
 74
    0
 49
-0.9525
 74
    0
 49
0
 74
    0
 49
-0.9525
 74
    0
  0
LTYPE
  5
40
330
5
100
AcDbSymbolTableRecord
100
AcDbLinetypeTableRecord
  2
DIVIDE2
 70
    0
  3
Divide (.5x) __..__..__..__..__..__..__..__.._
 72
   65
 73
    6
 40
15.875
 49
6.35
 74
    0
 49
-3.175
 74
    0
 49
0
 74
    0
 49
-3.175
 74
    0
 49
0
 74
    0
 49
-3.175
 74
    0
  0
LTYPE
  5
41
330
5
100
AcDbSymbolTableRecord
100
AcDbLinetypeTableRecord
  2
DIVIDEX2
 70
    0
  3
Divide (2x) ________  .  .  ________  .  .  _
 72
   65
 73
    6
 40
63.5
 49
25.4
 74
    0
 49
-12.7
 74
    0
 49
0
 74
    0
 49
-12.7
 74
    0
 49
0
 74
    0
 49
-12.7
 74
    0
  0
LTYPE
  5
42
330
5
100
AcDbSymbolTableRecord
100
AcDbLinetypeTableRecord
  2
BORDER
 70
    0
  3
Border __ __ . __ __ . __ __ . __ __ . __ __ .
 72
   65
 73
    6
 40
44.45
 49
12.7
 74
    0
 49
-6.35
 74
    0
 49
12.7
 74
    0
 49
-6.35
 74
    0
 49
0
 74
    0
 49
-6.35
 74
    0
  0
LTYPE
  5
43
330
5
100
AcDbSymbolTableRecord
100
AcDbLinetypeTableRecord
  2
BORDERTINY
 70
    0
  3
Border (.15x) __.__.__.__.__.__.__.__.__.__.__.
 72
   65
 73
    6
 40
6.6675
 49
1.905
 74
    0
 49
-0.9525
 74
    0
 49
1.905
 74
    0
 49
-0.9525
 74
    0
 49
0
 74
    0
 49
-0.9525
 74
    0
  0
LTYPE
  5
44
330
5
100
AcDbSymbolTableRecord
100
AcDbLinetypeTableRecord
  2
BORDER2
 70
    0
  3
Border (.5x) __.__.__.__.__.__.__.__.__.__.__.
 72
   65
 73
    6
 40
22.225
 49
6.35
 74
    0
 49
-3.175
 74
    0
 49
6.35
 74
    0
 49
-3.175
 74
    0
 49
0
 74
    0
 49
-3.175
 74
    0
  0
LTYPE
  5
45
330
5
100
AcDbSymbolTableRecord
100
AcDbLinetypeTableRecord
  2
BORDERX2
 70
    0
  3
Border (2x) ____  ____  .  ____  ____  .  ___
 72
   65
 73
    6
 40
88.89999999999999
 49
25.4
 74
    0
 49
-12.7
 74
    0
 49
25.4
 74
    0
 49
-12.7
 74
    0
 49
0
 74
    0
 49
-12.7
 74
    0
  0
LTYPE
  5
46
330
5
100
AcDbSymbolTableRecord
100
AcDbLinetypeTableRecord
  2
CENTER
 70
    0
  3
Center ____ _ ____ _ ____ _ ____ _ ____ _ ____
 72
   65
 73
    4
 40
50.8
 49
31.75
 74
    0
 49
-6.35
 74
    0
 49
6.35
 74
    0
 49
-6.35
 74
    0
  0
LTYPE
  5
47
330
5
100
AcDbSymbolTableRecord
100
AcDbLinetypeTableRecord
  2
CENTERTINY
 70
    0
  3
Center (.15x) ___ _ ___ _ ___ _ ___ _ ___ _ ___
 72
   65
 73
    4
 40
7.62
 49
4.7625
 74
    0
 49
-0.9525
 74
    0
 49
0.9525
 74
    0
 49
-0.9525
 74
    0
  0
LTYPE
  5
48
330
5
100
AcDbSymbolTableRecord
100
AcDbLinetypeTableRecord
  2
CENTER2
 70
    0
  3
Center (.5x) ___ _ ___ _ ___ _ ___ _ ___ _ ___
 72
   65
 73
    4
 40
28.575
 49
19.05
 74
    0
 49
-3.175
 74
    0
 49
3.175
 74
    0
 49
-3.175
 74
    0
  0
LTYPE
  5
49
330
5
100
AcDbSymbolTableRecord
100
AcDbLinetypeTableRecord
  2
CENTERX2
 70
    0
  3
Center (2x) ________  __  ________  __  _____
 72
   65
 73
    4
 40
101.6
 49
63.5
 74
    0
 49
-12.7
 74
    0
 49
12.7
 74
    0
 49
-12.7
 74
    0
  0
ENDTAB
  0
TABLE
  2
LAYER
  5
2
330
0
100
AcDbSymbolTable
 70
    1
  0
LAYER
  5
10
330
2
100
AcDbSymbolTableRecord
100
AcDbLayerTableRecord
  2
0
 70
    0
 62
    7
  6
CONTINUOUS
370
   -3
390
F
  0
ENDTAB
  0
TABLE
  2
STYLE
  5
3
330
0
100
AcDbSymbolTable
 70
    3
  0
STYLE
  5
4A
330
2
100
AcDbSymbolTableRecord
100
AcDbTextStyleTableRecord
  2
Standard
 70
    0
 40
0
 41
1
 50
0
 71
    0
 42
1
  3
txt
  4

  0
ENDTAB
  0
TABLE
  2
VIEW
  5
6
330
0
100
AcDbSymbolTable
 70
    0
  0
ENDTAB
  0
TABLE
  2
UCS
  5
7
330
0
100
AcDbSymbolTable
 70
    0
  0
ENDTAB
  0
TABLE
  2
APPID
  5
9
330
0
100
AcDbSymbolTable
 70
    1
  0
APPID
  5
12
330
9
100
AcDbSymbolTableRecord
100
AcDbRegAppTableRecord
  2
ACAD
 70
    0
  0
APPID
  5
4B
330
9
100
AcDbSymbolTableRecord
100
AcDbRegAppTableRecord
  2
LibreCad
 70
    0
  0
ENDTAB
  0
TABLE
  2
DIMSTYLE
  5
A
330
0
100
AcDbSymbolTable
 70
    1
100
AcDbDimStyleTable
 71
    1
  0
DIMSTYLE
105
4C
330
A
100
AcDbSymbolTableRecord
100
AcDbDimStyleTableRecord
  2
Standard
 70
    0
 40
1
 41
2.5
 42
0.625
 43
0.38
 44
1.25
 45
0
 46
0
 47
0
 48
0
 49
1
140
2.5
141
0.09
142
2.5
143
25.4
144
1
145
0
146
1
147
0.625
148
0
 71
    0
 72
    0
 73
    0
 74
    1
 75
    0
 76
    0
 77
    0
 78
    1
 79
    0
170
    0
171
    2
172
    0
173
    0
174
    0
175
    0
176
    0
177
    0
178
    0
179
    0
271
    2
272
    4
273
    2
274
    2
275
    0
276
    0
277
    2
278
    0
279
    0
280
    0
281
    0
282
    0
283
    1
284
    0
285
    0
286
    0
288
    0
289
    3
340
standard
341

371
   -2
372
   -2
  0
ENDTAB
  0
TABLE
  2
BLOCK_RECORD
  5
1
330
0
100
AcDbSymbolTable
 70
    2
  0
BLOCK_RECORD
  5
1F
330
1
100
AcDbSymbolTableRecord
100
AcDbBlockTableRecord
  2
*Model_Space
 70
    0
280
    1
281
    0
  0
BLOCK_RECORD
  5
1E
330
1
100
AcDbSymbolTableRecord
100
AcDbBlockTableRecord
  2
*Paper_Space
 70
    0
280
    1
281
    0
  0
ENDTAB
  0
ENDSEC
  0
SECTION
  2
BLOCKS
  0
BLOCK
  5
20
330
1F
100
AcDbEntity
  8
0
100
AcDbBlockBegin
  2
*Model_Space
 70
    0
 10
0
 20
0
 30
0
  3
*Model_Space
  1

  0
ENDBLK
  5
21
330
1F
100
AcDbEntity
  8
0
100
AcDbBlockEnd
  0
BLOCK
  5
1C
330
1B
100
AcDbEntity
  8
0
100
AcDbBlockBegin
  2
*Paper_Space
 70
    0
 10
0
 20
0
 30
0
  3
*Paper_Space
  1

  0
ENDBLK
  5
1D
330
1F
100
AcDbEntity
  8
0
100
AcDbBlockEnd
  0
ENDSEC
  0
SECTION
  2
ENTITIES
  0
LWPOLYLINE
  5
4D
100
AcDbEntity
  8
0
  6
ByLayer
 62
  256
370
   -1
100
AcDbPolyline
 90
    8
 70
    1
 43
0
 10
-44.4625
 20
-82.1345468543698
 42
-0.4142135623730929
 10
-43.46250000000001
 20
-83.1345468543698
 10
-43.46250000000001
 20
-95.13454685436982
 42
-0.4142135623730909
 10
-44.4625
 20
-96.13454685436979
 10
-56.46250000000001
 20
-96.13454685436979
 42
-0.4142135623730929
 10
-57.46250000000001
 20
-95.13454685436982
 10
-57.46250000000001
 20
-83.1345468543698
 42
-0.414213562373095
 10
-56.46250000000001
 20
-82.1345468543698
  0
LWPOLYLINE
  5
4E
100
AcDbEntity
  8
0
  6
ByLayer
 62
  256
370
   -1
100
AcDbPolyline
 90
    8
 70
    1
 43
0
 10
-130.00575
 20
-84.1345468543698
 42
-0.414213562373095
 10
-129.00575
 20
-83.1345468543698
 10
-124.25575
 20
-83.1345468543698
 42
-0.414213562373095
 10
-123.25575
 20
-84.1345468543698
 10
-123.25575
 20
-96.1345468543698
 42
-0.414213562373095
 10
-124.25575
 20
-97.1345468543698
 10
-129.00575
 20
-97.1345468543698
 42
-0.414213562373095
 10
-130.00575
 20
-96.1345468543698
  0
LWPOLYLINE
  5
4F
100
AcDbEntity
  8
0
  6
ByLayer
 62
  256
370
   -1
100
AcDbPolyline
 90
    8
 70
    1
 43
0
 10
-71.75
 20
-45.03454685436981
 10
-71.75
 20
-57.03454685436981
 42
0.414213562373095
 10
-70.75
 20
-58.03454685436981
 10
-58.75
 20
-58.03454685436981
 42
0.414213562373095
 10
-57.75
 20
-57.03454685436981
 10
-57.75
 20
-45.03454685436981
 42
0.4142135623730929
 10
-58.75
 20
-44.03454685436981
 10
-70.75
 20
-44.03454685436981
 42
0.414213562373095
  0
LWPOLYLINE
  5
50
100
AcDbEntity
  8
0
  6
ByLayer
 62
  256
370
   -1
100
AcDbPolyline
 90
    8
 70
    1
 43
0
 10
-9.837499999999986
 20
-64.0845468543698
 42
-0.4142135623730955
 10
-8.83749999999999
 20
-63.08454685436981
 10
3.162500000000001
 20
-63.08454685436979
 42
-0.4142135623730943
 10
4.16250000000001
 20
-64.0845468543698
 10
4.162499999999997
 20
-76.0845468543698
 42
-0.4142135623730945
 10
3.162500000000001
 20
-77.0845468543698
 10
-8.83749999999999
 20
-77.0845468543698
 42
-0.4142135623730945
 10
-9.837499999999986
 20
-76.0845468543698
  0
LWPOLYLINE
  5
51
100
AcDbEntity
  8
0
  6
ByLayer
 62
  256
370
   -1
100
AcDbPolyline
 90
    8
 70
    1
 43
0
 10
-81.27500000000001
 20
-25.9845468543698
 42
-0.4142135623730929
 10
-80.27500000000002
 20
-24.9845468543698
 10
-68.27500000000001
 20
-24.9845468543698
 42
-0.414213562373095
 10
-67.27500000000001
 20
-25.9845468543698
 10
-67.27500000000001
 20
-37.9845468543698
 42
-0.414213562373095
 10
-68.27500000000001
 20
-38.9845468543698
 10
-80.27500000000002
 20
-38.98454685436982
 42
-0.414213562373095
 10
-81.27500000000003
 20
-37.9845468543698
  0
LWPOLYLINE
  5
52
100
AcDbEntity
  8
0
  6
ByLayer
 62
  256
370
   -1
100
AcDbPolyline
 90
    8
 70
    1
 43
0
 10
52.07500000000002
 20
-25.9845468543698
 42
-0.414213562373094
 10
53.07500000000001
 20
-24.9845468543698
 10
65.075
 20
-24.98454685436979
 42
-0.414213562373095
 10
66.07500000000002
 20
-25.9845468543698
 10
66.075
 20
-37.9845468543698
 42
-0.414213562373095
 10
65.075
 20
-38.9845468543698
 10
53.07500000000001
 20
-38.98454685436982
 42
-0.414213562373095
 10
52.075
 20
-37.9845468543698
  0
LWPOLYLINE
  5
53
100
AcDbEntity
  8
0
  6
ByLayer
 62
  256
370
   -1
100
AcDbPolyline
 90
    8
 70
    1
 43
0
 10
-28.8875
 20
-64.0845468543698
 42
-0.4142135623730961
 10
-27.8875
 20
-63.08454685436981
 10
-15.8875
 20
-63.08454685436981
 42
-0.4142135623730955
 10
-14.8875
 20
-64.0845468543698
 10
-14.8875
 20
-76.0845468543698
 42
-0.4142135623730945
 10
-15.8875
 20
-77.0845468543698
 10
-27.8875
 20
-77.0845468543698
 42
-0.414213562373095
 10
-28.8875
 20
-76.0845468543698
  0
LWPOLYLINE
  5
54
100
AcDbEntity
  8
0
  6
ByLayer
 62
  256
370
   -1
100
AcDbPolyline
 90
    8
 70
    1
 43
0
 10
52.075
 20
-2.172046854369811
 10
52.075
 20
-14.1720468543698
 42
0.4142135623730961
 10
53.07500000000001
 20
-15.1720468543698
 10
65.075
 20
-15.1720468543698
 42
0.4142135623730945
 10
66.075
 20
-14.1720468543698
 10
66.07500000000003
 20
-2.17204685436983
 42
0.4142135623731015
 10
65.075
 20
-1.17204685436981
 10
53.07500000000001
 20
-1.17204685436981
 42
0.4142135623730963
  0
LWPOLYLINE
  5
55
100
AcDbEntity
  8
0
  6
ByLayer
 62
  256
370
   -1
100
AcDbPolyline
 90
    8
 70
    1
 43
0
 10
-114.6125
 20
-83.1345468543698
 42
-0.414213562373095
 10
-113.6125
 20
-82.1345468543698
 10
-101.6125
 20
-82.1345468543698
 42
-0.414213562373095
 10
-100.6125
 20
-83.1345468543698
 10
-100.6125
 20
-95.13454685436982
 42
-0.4142135623730909
 10
-101.6125
 20
-96.13454685436983
 10
-113.6125
 20
-96.13454685436983
 42
-0.414213562373095
 10
-114.6125
 20
-95.13454685436982
  0
LWPOLYLINE
  5
56
100
AcDbEntity
  8
0
  6
ByLayer
 62
  256
370
   -1
100
AcDbPolyline
 90
    8
 70
    1
 43
0
 10
-66.9875
 20
-64.0845468543698
 42
-0.414213562373095
 10
-65.9875
 20
-63.0845468543698
 10
-53.9875
 20
-63.08454685436979
 42
-0.414213562373095
 10
-52.98749999999998
 20
-64.0845468543698
 10
-52.9875
 20
-76.0845468543698
 42
-0.414213562373095
 10
-53.9875
 20
-77.0845468543698
 10
-65.9875
 20
-77.0845468543698
 42
-0.414213562373095
 10
-66.9875
 20
-76.0845468543698
  0
LWPOLYLINE
  5
57
100
AcDbEntity
  8
0
  6
ByLayer
 62
  256
370
   -1
100
AcDbPolyline
 90
    8
 70
    1
 43
0
 10
-128.9
 20
-45.03454685436981
 42
-0.414213562373095
 10
-127.9
 20
-44.03454685436981
 10
-115.9
 20
-44.03454685436981
 42
-0.414213562373095
 10
-114.9
 20
-45.03454685436981
 10
-114.9
 20
-57.03454685436981
 42
-0.414213562373095
 10
-115.9
 20
-58.03454685436981
 10
-127.9
 20
-58.03454685436982
 42
-0.4142135623730971
 10
-128.9
 20
-57.03454685436981
  0
LWPOLYLINE
  5
58
100
AcDbEntity
  8
0
  6
ByLayer
 62
  256
370
   -1
100
AcDbPolyline
 90
    8
 70
    1
 43
0
 10
97.31875000000001
 20
-64.0845468543698
 42
-0.414213562373095
 10
98.31874999999999
 20
-63.08454685436981
 10
110.31875
 20
-63.08454685436979
 42
-0.4142135623730909
 10
111.31875
 20
-64.0845468543698
 10
111.31875
 20
-76.0845468543698
 42
-0.414213562373095
 10
110.31875
 20
-77.0845468543698
 10
98.31874999999999
 20
-77.08454685436983
 42
-0.414213562373095
 10
97.31874999999999
 20
-76.0845468543698
  0
LWPOLYLINE
  5
59
100
AcDbEntity
  8
0
  6
ByLayer
 62
  256
370
   -1
100
AcDbPolyline
 90
    8
 70
    1
 43
0
 10
94.9375
 20
-106.94704685437
 42
-0.414213562373095
 10
95.9375
 20
-105.94704685437
 10
107.9375
 20
-105.94704685437
 42
-0.414213562373095
 10
108.9375
 20
-106.94704685437
 10
108.9375
 20
-118.94704685437
 42
-0.4142135623730909
 10
107.9375
 20
-119.94704685437
 10
95.9375
 20
-119.94704685437
 42
-0.414213562373095
 10
94.93750000000003
 20
-118.94704685437
  0
LWPOLYLINE
  5
5A
100
AcDbEntity
  8
0
  6
ByLayer
 62
  256
370
   -1
100
AcDbPolyline
 90
    8
 70
    1
 43
0
 10
-6.3625
 20
-82.1345468543698
 42
-0.4142135623730945
 10
-5.362500000000003
 20
-83.1345468543698
 10
-5.362500000000003
 20
-95.13454685436982
 42
-0.4142135623730924
 10
-6.3625
 20
-96.13454685436979
 10
-18.3625
 20
-96.13454685436984
 42
-0.4142135623730981
 10
-19.36250000000001
 20
-95.13454685436982
 10
-19.3625
 20
-83.1345468543698
 42
-0.414213562373094
 10
-18.3625
 20
-82.1345468543698
  0
LWPOLYLINE
  5
5B
100
AcDbEntity
  8
0
  6
ByLayer
 62
  256
370
   -1
100
AcDbPolyline
 90
    8
 70
    1
 43
0
 10
-100.325
 20
-25.9845468543698
 42
-0.4142135623730971
 10
-99.32500000000002
 20
-24.9845468543698
 10
-87.325
 20
-24.9845468543698
 42
-0.414213562373095
 10
-86.325
 20
-25.9845468543698
 10
-86.325
 20
-37.9845468543698
 42
-0.414213562373095
 10
-87.325
 20
-38.9845468543698
 10
-99.32500000000002
 20
-38.98454685436979
 42
-0.4142135623730971
 10
-100.325
 20
-37.9845468543698
  0
LWPOLYLINE
  5
5C
100
AcDbEntity
  8
0
  6
ByLayer
 62
  256
370
   -1
100
AcDbPolyline
 90
    8
 70
    1
 43
0
 10
150.8
 20
-82.1345468543698
 42
-0.4142135623730909
 10
151.8
 20
-83.1345468543698
 10
151.8
 20
-95.13454685436982
 42
-0.414213562373095
 10
150.8
 20
-96.13454685436983
 10
138.8
 20
-96.13454685436984
 42
-0.4142135623730992
 10
137.8
 20
-95.13454685436982
 10
137.8
 20
-83.1345468543698
 42
-0.4142135623730992
 10
138.8
 20
-82.1345468543698
  0
LWPOLYLINE
  5
5D
100
AcDbEntity
  8
0
  6
ByLayer
 62
  256
370
   -1
100
AcDbPolyline
 90
    8
 70
    1
 43
0
 10
113.9875
 20
-106.94704685437
 42
-0.414213562373095
 10
114.9875
 20
-105.94704685437
 10
126.9875
 20
-105.94704685437
 42
-0.4142135623730909
 10
127.9875
 20
-106.94704685437
 10
127.9875
 20
-118.94704685437
 42
-0.414213562373095
 10
126.9875
 20
-119.94704685437
 10
114.9875
 20
-119.94704685437
 42
-0.414213562373095
 10
113.9875
 20
-118.94704685437
  0
LWPOLYLINE
  5
5E
100
AcDbEntity
  8
0
  6
ByLayer
 62
  256
370
   -1
100
AcDbPolyline
 90
    8
 70
    1
 43
0
 10
-47.93749999999999
 20
-64.0845468543698
 42
-0.4142135623730929
 10
-46.93750000000001
 20
-63.08454685436981
 10
-34.9375
 20
-63.08454685436981
 42
-0.414213562373095
 10
-33.93750000000001
 20
-64.0845468543698
 10
-33.9375
 20
-76.0845468543698
 42
-0.414213562373095
 10
-34.9375
 20
-77.0845468543698
 10
-46.93750000000001
 20
-77.0845468543698
 42
-0.4142135623730929
 10
-47.9375
 20
-76.0845468543698
  0
LWPOLYLINE
  5
5F
100
AcDbEntity
  8
0
  6
ByLayer
 62
  256
370
   -1
100
AcDbPolyline
 90
    8
 70
    1
 43
0
 10
-105.0875
 20
-64.0845468543698
 42
-0.414213562373095
 10
-104.0875
 20
-63.0845468543698
 10
-92.08750000000001
 20
-63.0845468543698
 42
-0.414213562373095
 10
-91.08750000000001
 20
-64.0845468543698
 10
-91.08750000000001
 20
-76.0845468543698
 42
-0.414213562373095
 10
-92.08750000000001
 20
-77.0845468543698
 10
-104.0875
 20
-77.0845468543698
 42
-0.414213562373095
 10
-105.0875
 20
-76.0845468543698
  0
LWPOLYLINE
  5
60
100
AcDbEntity
  8
0
  6
ByLayer
 62
  256
370
   -1
100
AcDbPolyline
 90
    8
 70
    1
 43
0
 10
137.8
 20
-64.0845468543698
 42
-0.4142135623730992
 10
138.8
 20
-63.0845468543698
 10
150.8
 20
-63.0845468543698
 42
-0.4142135623730909
 10
151.8
 20
-64.0845468543698
 10
151.8
 20
-76.0845468543698
 42
-0.414213562373095
 10
150.8
 20
-77.0845468543698
 10
138.8
 20
-77.08454685436983
 42
-0.4142135623730992
 10
137.8
 20
-76.0845468543698
  0
LWPOLYLINE
  5
61
100
AcDbEntity
  8
0
  6
ByLayer
 62
  256
370
   -1
100
AcDbPolyline
 90
    8
 70
    1
 43
0
 10
-38.4125
 20
-83.1345468543698
 42
-0.414213562373095
 10
-37.4125
 20
-82.1345468543698
 10
-25.4125
 20
-82.1345468543698
 42
-0.414213562373095
 10
-24.4125
 20
-83.1345468543698
 10
-24.4125
 20
-95.13454685436982
 42
-0.4142135623730929
 10
-25.4125
 20
-96.13454685436979
 10
-37.4125
 20
-96.1345468543698
 42
-0.4142135623730929
 10
-38.4125
 20
-95.13454685436982
  0
LWPOLYLINE
  5
62
100
AcDbEntity
  8
0
  6
ByLayer
 62
  256
370
   -1
100
AcDbPolyline
 90
    8
 70
    1
 43
0
 10
33.025
 20
-25.9845468543698
 42
-0.414213562373095
 10
34.025
 20
-24.9845468543698
 10
46.025
 20
-24.98454685436982
 42
-0.414213562373095
 10
47.02499999999998
 20
-25.9845468543698
 10
47.025
 20
-37.9845468543698
 42
-0.414213562373095
 10
46.025
 20
-38.9845468543698
 10
34.025
 20
-38.98454685436982
 42
-0.414213562373095
 10
33.02499999999998
 20
-37.9845468543698
  0
LWPOLYLINE
  5
63
100
AcDbEntity
  8
0
  6
ByLayer
 62
  256
370
   -1
100
AcDbPolyline
 90
    8
 70
    1
 43
0
 10
-30.175
 20
-24.98454685436981
 42
-0.414213562373094
 10
-29.17500000000001
 20
-25.9845468543698
 10
-29.17499999999999
 20
-37.9845468543698
 42
-0.414213562373094
 10
-30.175
 20
-38.98454685436982
 10
-42.175
 20
-38.9845468543698
 42
-0.4142135623730929
 10
-43.175
 20
-37.9845468543698
 10
-43.17500000000001
 20
-25.9845468543698
 42
-0.4142135623730961
 10
-42.175
 20
-24.9845468543698
  0
LWPOLYLINE
  5
64
100
AcDbEntity
  8
0
  6
ByLayer
 62
  256
370
   -1
100
AcDbPolyline
 90
    8
 70
    1
 43
0
 10
-145.56875
 20
-83.1345468543698
 42
-0.414213562373095
 10
-144.56875
 20
-82.1345468543698
 10
-132.56875
 20
-82.1345468543698
 42
-0.4142135623730909
 10
-131.56875
 20
-83.1345468543698
 10
-131.56875
 20
-95.13454685436982
 42
-0.414213562373095
 10
-132.56875
 20
-96.13454685436983
 10
-144.56875
 20
-96.1345468543698
 42
-0.4142135623730909
 10
-145.56875
 20
-95.13454685436982
  0
LWPOLYLINE
  5
65
100
AcDbEntity
  8
0
  6
ByLayer
 62
  256
370
   -1
100
AcDbPolyline
 90
    8
 70
    1
 43
0
 10
-9.83749999999999
 20
-2.17204685436981
 42
-0.414213562373095
 10
-8.83749999999999
 20
-1.17204685436981
 10
3.162500000000001
 20
-1.1720468543698
 42
-0.414213562373095
 10
4.16250000000001
 20
-2.172046854369812
 10
4.162499999999997
 20
-14.1720468543698
 42
-0.414213562373095
 10
3.162500000000001
 20
-15.1720468543698
 10
-8.83749999999999
 20
-15.17204685436981
 42
-0.414213562373095
 10
-9.8375
 20
-14.1720468543698
  0
LWPOLYLINE
  5
66
100
AcDbEntity
  8
0
  6
ByLayer
 62
  256
370
   -1
100
AcDbPolyline
 90
    8
 70
    1
 43
0
 10
-86.03749999999999
 20
-64.0845468543698
 10
-86.03749999999999
 20
-76.0845468543698
 42
0.414213562373095
 10
-85.03749999999999
 20
-77.0845468543698
 10
-73.03749999999999
 20
-77.0845468543698
 42
0.414213562373095
 10
-72.03749999999999
 20
-76.0845468543698
 10
-72.03749999999999
 20
-64.0845468543698
 42
0.4142135623730992
 10
-73.03749999999999
 20
-63.0845468543698
 10
-85.03749999999999
 20
-63.0845468543698
 42
0.414213562373095
  0
LWPOLYLINE
  5
67
100
AcDbEntity
  8
0
  6
ByLayer
 62
  256
370
   -1
100
AcDbPolyline
 90
    8
 70
    1
 43
0
 10
-28.8875
 20
-2.17204685436981
 42
-0.414213562373095
 10
-27.8875
 20
-1.17204685436981
 10
-15.8875
 20
-1.172046854369813
 42
-0.4142135623730953
 10
-14.8875
 20
-2.172046854369812
 10
-14.8875
 20
-14.1720468543698
 42
-0.414213562373095
 10
-15.8875
 20
-15.1720468543698
 10
-27.8875
 20
-15.1720468543698
 42
-0.414213562373095
 10
-28.8875
 20
-14.1720468543698
  0
LWPOLYLINE
  5
68
100
AcDbEntity
  8
0
  6
ByLayer
 62
  256
370
   -1
100
AcDbPolyline
 90
    8
 70
    1
 43
0
 10
-90.80000000000001
 20
-45.03454685436981
 42
-0.4142135623730971
 10
-89.80000000000001
 20
-44.03454685436981
 10
-77.8
 20
-44.03454685436981
 42
-0.4142135623730929
 10
-76.80000000000001
 20
-45.03454685436981
 10
-76.80000000000001
 20
-57.03454685436981
 42
-0.4142135623730929
 10
-77.8
 20
-58.03454685436981
 10
-89.80000000000001
 20
-58.03454685436979
 42
-0.414213562373095
 10
-90.79999999999998
 20
-57.03454685436981
  0
LWPOLYLINE
  5
69
100
AcDbEntity
  8
0
  6
ByLayer
 62
  256
370
   -1
100
AcDbPolyline
 90
    8
 70
    1
 43
0
 10
42.55
 20
-45.03454685436981
 42
-0.414213562373095
 10
43.55
 20
-44.03454685436981
 10
55.55
 20
-44.03454685436984
 42
-0.4142135623730909
 10
56.54999999999997
 20
-45.03454685436981
 10
56.55
 20
-57.03454685436981
 42
-0.414213562373095
 10
55.55
 20
-58.03454685436981
 10
43.55
 20
-58.03454685436982
 42
-0.414213562373095
 10
42.54999999999998
 20
-57.03454685436981
  0
LWPOLYLINE
  5
6A
100
AcDbEntity
  8
0
  6
ByLayer
 62
  256
370
   -1
100
AcDbPolyline
 90
    8
 70
    1
 43
0
 10
4.450000000000006
 20
-45.03454685436981
 42
-0.4142135623730953
 10
5.450000000000021
 20
-44.03454685436979
 10
17.45
 20
-44.03454685436984
 42
-0.4142135623730929
 10
18.44999999999998
 20
-45.03454685436981
 10
18.45
 20
-57.03454685436981
 42
-0.414213562373094
 10
17.45
 20
-58.03454685436981
 10
5.449999999999982
 20
-58.03454685436982
 42
-0.4142135623730948
 10
4.449999999999971
 20
-57.03454685436981
  0
LWPOLYLINE
  5
6B
100
AcDbEntity
  8
0
  6
ByLayer
 62
  256
370
   -1
100
AcDbPolyline
 90
    8
 70
    1
 43
0
 10
-152.7125
 20
-45.03454685436981
 42
-0.414213562373095
 10
-151.7125
 20
-44.03454685436981
 10
-139.7125
 20
-44.03454685436981
 42
-0.414213562373095
 10
-138.7125
 20
-45.03454685436981
 10
-138.7125
 20
-57.03454685436981
 42
-0.414213562373095
 10
-139.7125
 20
-58.03454685436981
 10
-151.7125
 20
-58.03454685436981
 42
-0.414213562373095
 10
-152.7125
 20
-57.03454685436981
  0
LWPOLYLINE
  5
6C
100
AcDbEntity
  8
0
  6
ByLayer
 62
  256
370
   -1
100
AcDbPolyline
 90
    8
 70
    1
 43
0
 10
36.5
 20
-44.0345468543698
 42
-0.4142135623730929
 10
37.50000000000001
 20
-45.03454685436981
 10
37.5
 20
-57.03454685436981
 42
-0.414213562373095
 10
36.5
 20
-58.03454685436981
 10
24.5
 20
-58.03454685436978
 42
-0.4142135623730929
 10
23.50000000000002
 20
-57.03454685436981
 10
23.49999999999999
 20
-45.03454685436981
 42
-0.414213562373095
 10
24.5
 20
-44.03454685436979
  0
LWPOLYLINE
  5
6D
100
AcDbEntity
  8
0
  6
ByLayer
 62
  256
370
   -1
100
AcDbPolyline
 90
    8
 70
    1
 43
0
 10
-153.88175
 20
-84.1345468543698
 42
-0.414213562373095
 10
-152.88175
 20
-83.1345468543698
 10
-148.13175
 20
-83.1345468543698
 42
-0.414213562373095
 10
-147.13175
 20
-84.1345468543698
 10
-147.13175
 20
-96.1345468543698
 42
-0.414213562373095
 10
-148.13175
 20
-97.1345468543698
 10
-152.88175
 20
-97.1345468543698
 42
-0.414213562373095
 10
-153.88175
 20
-96.1345468543698
  0
LWPOLYLINE
  5
6E
100
AcDbEntity
  8
0
  6
ByLayer
 62
  256
370
   -1
100
AcDbPolyline
 90
    8
 70
    1
 43
0
 10
90.175
 20
-2.17204685436981
 42
-0.414213562373095
 10
91.175
 20
-1.17204685436981
 10
103.175
 20
-1.172046854369796
 42
-0.4142135623730909
 10
104.175
 20
-2.172046854369811
 10
104.175
 20
-14.1720468543698
 42
-0.414213562373095
 10
103.175
 20
-15.1720468543698
 10
91.175
 20
-15.17204685436981
 42
-0.414213562373095
 10
90.17499999999998
 20
-14.1720468543698
  0
LWPOLYLINE
  5
6F
100
AcDbEntity
  8
0
  6
ByLayer
 62
  256
370
   -1
100
AcDbPolyline
 90
    8
 70
    1
 43
0
 10
47.3125
 20
-64.0845468543698
 10
47.3125
 20
-76.0845468543698
 42
0.4142135623730971
 10
48.31250000000001
 20
-77.0845468543698
 10
60.3125
 20
-77.0845468543698
 42
0.414213562373095
 10
61.3125
 20
-76.0845468543698
 10
61.31250000000001
 20
-64.0845468543698
 42
0.4142135623730929
 10
60.3125
 20
-63.08454685436981
 10
48.31250000000001
 20
-63.0845468543698
 42
0.4142135623730992
  0
LWPOLYLINE
  5
70
100
AcDbEntity
  8
0
  6
ByLayer
 62
  256
370
   -1
100
AcDbPolyline
 90
    8
 70
    1
 43
0
 10
33.02500000000001
 20
-2.172046854369811
 10
33.02500000000001
 20
-14.1720468543698
 42
0.414213562373094
 10
34.025
 20
-15.1720468543698
 10
46.025
 20
-15.1720468543698
 42
0.4142135623730945
 10
47.025
 20
-14.1720468543698
 10
47.02500000000001
 20
-2.17204685436981
 42
0.414213562373095
 10
46.025
 20
-1.17204685436981
 10
34.025
 20
-1.17204685436981
 42
0.4142135623730943
  0
LWPOLYLINE
  5
71
100
AcDbEntity
  8
0
  6
ByLayer
 62
  256
370
   -1
100
AcDbPolyline
 90
   10
 70
    1
 43
0
 10
-137.33125
 20
-63.0845468543698
 10
-154.09375
 20
-63.08454685436981
 42
0.1084391695173793
 10
-154.5125
 20
-63.17644529754924
 42
0.5472327724910756
 10
-155.93125
 20
-64.0845468543698
 10
-155.93125
 20
-76.0845468543698
 42
0.5472327724910652
 10
-154.5125
 20
-76.99264841119037
 42
0.1084391695173794
 10
-154.09375
 20
-77.0845468543698
 10
-137.33125
 20
-77.0845468543698
 42
0.414213562373095
 10
-136.33125
 20
-76.0845468543698
 10
-136.33125
 20
-64.0845468543698
 42
0.414213562373095
  0
LWPOLYLINE
  5
72
100
AcDbEntity
  8
0
  6
ByLayer
 62
  256
370
   -1
100
AcDbPolyline
 90
    8
 70
    1
 43
0
 10
56.83750000000001
 20
-83.1345468543698
 42
-0.414213562373095
 10
57.83750000000001
 20
-82.1345468543698
 10
69.83750000000001
 20
-82.1345468543698
 42
-0.4142135623730867
 10
70.83750000000001
 20
-83.1345468543698
 10
70.83750000000001
 20
-95.13454685436982
 42
-0.4142135623730909
 10
69.83750000000001
 20
-96.13454685436983
 10
57.83750000000001
 20
-96.13454685436979
 42
-0.414213562373095
 10
56.83750000000003
 20
-95.13454685436982
  0
LWPOLYLINE
  5
73
100
AcDbEntity
  8
0
  6
ByLayer
 62
  256
370
   -1
100
AcDbPolyline
 90
    8
 70
    1
 43
0
 10
28.2625
 20
-64.0845468543698
 42
-0.414213562373095
 10
29.2625
 20
-63.08454685436981
 10
41.2625
 20
-63.08454685436979
 42
-0.414213562373095
 10
42.26250000000002
 20
-64.0845468543698
 10
42.2625
 20
-76.0845468543698
 42
-0.414213562373095
 10
41.2625
 20
-77.0845468543698
 10
29.2625
 20
-77.08454685436983
 42
-0.4142135623730981
 10
28.26249999999999
 20
-76.0845468543698
  0
LWPOLYLINE
  5
74
100
AcDbEntity
  8
0
  6
ByLayer
 62
  256
370
   -1
100
AcDbPolyline
 90
    8
 70
    1
 43
0
 10
84.125
 20
-1.172046854369796
 42
-0.4142135623730909
 10
85.125
 20
-2.172046854369811
 10
85.125
 20
-14.1720468543698
 42
-0.4142135623730945
 10
84.125
 20
-15.1720468543698
 10
72.125
 20
-15.17204685436981
 42
-0.4142135623730909
 10
71.125
 20
-14.1720468543698
 10
71.125
 20
-2.172046854369811
 42
-0.4142135623730953
 10
72.125
 20
-1.17204685436981
  0
LWPOLYLINE
  5
75
100
AcDbEntity
  8
0
  6
ByLayer
 62
  256
370
   -1
100
AcDbPolyline
 90
    8
 70
    1
 43
0
 10
37.78750000000001
 20
-83.1345468543698
 10
37.78750000000001
 20
-95.13454685436982
 42
0.4142135623730909
 10
38.7875
 20
-96.13454685436979
 10
50.7875
 20
-96.13454685436984
 42
0.4142135623730992
 10
51.78750000000002
 20
-95.13454685436982
 10
51.78750000000002
 20
-83.1345468543698
 42
0.4142135623730971
 10
50.7875
 20
-82.13454685436979
 10
38.7875
 20
-82.1345468543698
 42
0.4142135623730929
  0
LWPOLYLINE
  5
76
100
AcDbEntity
  8
0
  6
ByLayer
 62
  256
370
   -1
100
AcDbPolyline
 90
    8
 70
    1
 43
0
 10
-90.80000000000001
 20
-2.17204685436981
 42
-0.4142135623730971
 10
-89.80000000000001
 20
-1.17204685436981
 10
-77.8
 20
-1.172046854369813
 42
-0.4142135623730927
 10
-76.80000000000003
 20
-2.172046854369812
 10
-76.80000000000003
 20
-14.1720468543698
 42
-0.4142135623730924
 10
-77.8
 20
-15.1720468543698
 10
-89.80000000000001
 20
-15.17204685436978
 42
-0.4142135623730961
 10
-90.79999999999998
 20
-14.1720468543698
  0
LWPOLYLINE
  5
77
100
AcDbEntity
  8
0
  6
ByLayer
 62
  256
370
   -1
100
AcDbPolyline
 90
    8
 70
    1
 43
0
 10
79.3625
 20
-63.08454685436981
 42
-0.414213562373095
 10
80.36250000000003
 20
-64.0845468543698
 10
80.36249999999998
 20
-76.0845468543698
 42
-0.4142135623730909
 10
79.3625
 20
-77.08454685436979
 10
67.3625
 20
-77.08454685436979
 42
-0.4142135623730909
 10
66.36250000000004
 20
-76.0845468543698
 10
66.36250000000003
 20
-64.0845468543698
 42
-0.4142135623730909
 10
67.3625
 20
-63.08454685436981
  0
LWPOLYLINE
  5
78
100
AcDbEntity
  8
0
  6
ByLayer
 62
  256
370
   -1
100
AcDbPolyline
 90
    8
 70
    1
 43
0
 10
-14.60000000000002
 20
-45.03454685436981
 42
-0.414213562373095
 10
-13.6
 20
-44.03454685436979
 10
-1.599999999999981
 20
-44.03454685436981
 42
-0.4142135623730948
 10
-0.5999999999999843
 20
-45.03454685436981
 10
-0.5999999999999837
 20
-57.03454685436981
 42
-0.4142135623730945
 10
-1.59999999999998
 20
-58.03454685436981
 10
-13.6
 20
-58.03454685436981
 42
-0.4142135623730955
 10
-14.6
 20
-57.03454685436981
  0
LWPOLYLINE
  5
79
100
AcDbEntity
  8
0
  6
ByLayer
 62
  256
370
   -1
100
AcDbPolyline
 90
   16
 70
    1
 43
0
 10
90.175
 20
-25.9845468543698
 10
90.175
 20
-37.9845468543698
 42
0.414213562373095
 10
91.175
 20
-38.9845468543698
 10
91.38699999999999
 20
-38.9845468543698
 42
0.414213562373095
 10
92.387
 20
-39.98454685436982
 10
97.13700000000001
 20
-39.9845468543698
 42
0.4142135623730929
 10
98.137
 20
-38.9845468543698
 10
115.263
 20
-38.9845468543698
 42
0.414213562373095
 10
116.263
 20
-39.98454685436982
 10
121.013
 20
-39.9845468543698
 42
0.414213562373095
 10
122.013
 20
-38.9845468543698
 10
122.225
 20
-38.98454685436982
 42
0.4142135623730971
 10
123.225
 20
-37.9845468543698
 10
123.225
 20
-25.9845468543698
 42
0.414213562373095
 10
122.225
 20
-24.9845468543698
 10
91.175
 20
-24.9845468543698
 42
0.414213562373095
  0
LWPOLYLINE
  5
7A
100
AcDbEntity
  8
0
  6
ByLayer
 62
  256
370
   -1
100
AcDbPolyline
 90
    8
 70
    1
 43
0
 10
-96.85000000000001
 20
-1.172046854369814
 42
-0.4142135623730946
 10
-95.85000000000001
 20
-2.172046854369811
 10
-95.85000000000001
 20
-14.1720468543698
 42
-0.414213562373095
 10
-96.85000000000001
 20
-15.1720468543698
 10
-108.85
 20
-15.1720468543698
 42
-0.4142135623730945
 10
-109.85
 20
-14.1720468543698
 10
-109.85
 20
-2.172046854369811
 42
-0.4142135623730953
 10
-108.85
 20
-1.17204685436981
  0
LWPOLYLINE
  5
7B
100
AcDbEntity
  8
0
  6
ByLayer
 62
  256
370
   -1
100
AcDbPolyline
 90
    8
 70
    1
 43
0
 10
89.00575000000002
 20
-65.0845468543698
 10
89.00575000000002
 20
-77.0845468543698
 42
0.4142135623730992
 10
90.00575000000001
 20
-78.08454685436983
 10
94.75575000000001
 20
-78.08454685436983
 42
0.4142135623730992
 10
95.75575000000002
 20
-77.0845468543698
 10
95.75575000000002
 20
-65.0845468543698
 42
0.4142135623730909
 10
94.75575000000001
 20
-64.0845468543698
 10
90.00575000000001
 20
-64.08454685436982
 42
0.414213562373095
  0
LWPOLYLINE
  5
7C
100
AcDbEntity
  8
0
  6
ByLayer
 62
  256
370
   -1
100
AcDbPolyline
 90
   20
 70
    1
 43
0
 10
33.18750000000001
 20
-115.1625
 10
33.81617556428333
 20
-115.1625
 42
0.05264173015812753
 10
34.025
 20
-115.18454685437
 10
46.0250000000001
 20
-115.18454685437
 42
0.05264173015811061
 10
46.23382443571671
 20
-115.1625
 10
52.86617556428333
 20
-115.1625
 42
0.05264173015812842
 10
53.07500000000001
 20
-115.18454685437
 10
65.075
 20
-115.18454685437
 42
0.05264173015811061
 10
65.28382443571661
 20
-115.1625
 10
71.91617556428332
 20
-115.1625
 42
0.05264173015812842
 10
72.125
 20
-115.18454685437
 10
84.125
 20
-115.18454685437
 42
0.05264173015811283
 10
84.33382443571661
 20
-115.1625
 10
84.96250000000003
 20
-115.1625
 42
0.4142135623730909
 10
85.96250000000005
 20
-114.1625
 10
85.96250000000003
 20
-102.1625
 42
0.414213562373095
 10
84.96250000000003
 20
-101.1625
 10
33.18750000000001
 20
-101.1625
 42
0.414213562373095
 10
32.1875
 20
-102.1625
 10
32.1875
 20
-114.1625
 42
0.4142135623730992
  0
LWPOLYLINE
  5
7D
100
AcDbEntity
  8
0
  6
ByLayer
 62
  256
370
   -1
100
AcDbPolyline
 90
    8
 70
    1
 43
0
 10
-5.074999999999992
 20
-25.9845468543698
 42
-0.4142135623730953
 10
-4.07499999999999
 20
-24.9845468543698
 10
7.925
 20
-24.98454685436979
 42
-0.4142135623730958
 10
8.92500000000001
 20
-25.9845468543698
 10
8.924999999999997
 20
-37.9845468543698
 42
-0.4142135623730948
 10
7.925
 20
-38.9845468543698
 10
-4.07499999999999
 20
-38.9845468543698
 42
-0.4142135623730945
 10
-5.074999999999987
 20
-37.9845468543698
  0
LWPOLYLINE
  5
7E
100
AcDbEntity
  8
0
  6
ByLayer
 62
  256
370
   -1
100
AcDbPolyline
 90
    8
 70
    1
 43
0
 10
-47.9375
 20
-2.17204685436981
 42
-0.414213562373094
 10
-46.93750000000001
 20
-1.17204685436981
 10
-34.9375
 20
-1.172046854369814
 42
-0.4142135623730955
 10
-33.93750000000001
 20
-2.172046854369811
 10
-33.93750000000001
 20
-14.1720468543698
 42
-0.4142135623730955
 10
-34.9375
 20
-15.1720468543698
 10
-46.93750000000001
 20
-15.1720468543698
 42
-0.4142135623730935
 10
-47.93749999999999
 20
-14.1720468543698
  0
LWPOLYLINE
  5
7F
100
AcDbEntity
  8
0
  6
ByLayer
 62
  256
370
   -1
100
AcDbPolyline
 90
    8
 70
    1
 43
0
 10
-107.46875
 20
-102.18454685437
 42
-0.414213562373095
 10
-106.46875
 20
-101.18454685437
 10
-94.46875
 20
-101.18454685437
 42
-0.414213562373095
 10
-93.46875000000003
 20
-102.18454685437
 10
-93.46875
 20
-114.18454685437
 42
-0.414213562373095
 10
-94.46875
 20
-115.18454685437
 10
-106.46875
 20
-115.18454685437
 42
-0.414213562373095
 10
-107.46875
 20
-114.18454685437
  0
LWPOLYLINE
  5
80
100
AcDbEntity
  8
0
  6
ByLayer
 62
  256
370
   -1
100
AcDbPolyline
 90
    8
 70
    1
 43
0
 10
-95.5625
 20
-83.1345468543698
 10
-95.5625
 20
-95.13454685436982
 42
0.4142135623730909
 10
-94.5625
 20
-96.1345468543698
 10
-82.5625
 20
-96.13454685436984
 42
0.4142135623730992
 10
-81.56249999999999
 20
-95.13454685436982
 10
-81.5625
 20
-83.1345468543698
 42
0.414213562373095
 10
-82.5625
 20
-82.1345468543698
 10
-94.5625
 20
-82.1345468543698
 42
0.414213562373095
  0
LWPOLYLINE
  5
81
100
AcDbEntity
  8
0
  6
ByLayer
 62
  256
370
   -1
100
AcDbPolyline
 90
    8
 70
    1
 43
0
 10
22.2125
 20
-63.08454685436979
 42
-0.414213562373095
 10
23.21250000000001
 20
-64.0845468543698
 10
23.2125
 20
-76.0845468543698
 42
-0.414213562373095
 10
22.2125
 20
-77.0845468543698
 10
10.2125
 20
-77.08454685436983
 42
-0.4142135623730987
 10
9.21249999999999
 20
-76.0845468543698
 10
9.212500000000004
 20
-64.0845468543698
 42
-0.4142135623730955
 10
10.2125
 20
-63.08454685436981
  0
LWPOLYLINE
  5
82
100
AcDbEntity
  8
0
  6
ByLayer
 62
  256
370
   -1
100
AcDbPolyline
 90
    8
 70
    1
 43
0
 10
137.8
 20
-45.03454685436981
 10
137.8
 20
-57.03454685436981
 42
0.414213562373095
 10
138.8
 20
-58.03454685436981
 10
150.8
 20
-58.03454685436981
 42
0.414213562373095
 10
151.8
 20
-57.03454685436981
 10
151.8
 20
-45.03454685436981
 42
0.4142135623730909
 10
150.8
 20
-44.0345468543698
 10
138.8
 20
-44.03454685436979
 42
0.4142135623730971
  0
LWPOLYLINE
  5
83
100
AcDbEntity
  8
0
  6
ByLayer
 62
  256
370
   -1
100
AcDbPolyline
 90
    8
 70
    1
 43
0
 10
-128.9
 20
-2.17204685436981
 42
-0.414213562373095
 10
-127.9
 20
-1.17204685436981
 10
-115.9
 20
-1.172046854369814
 42
-0.4142135623730946
 10
-114.9
 20
-2.172046854369811
 10
-114.9
 20
-14.1720468543698
 42
-0.414213562373095
 10
-115.9
 20
-15.1720468543698
 10
-127.9
 20
-15.17204685436981
 42
-0.4142135623730971
 10
-128.9
 20
-14.1720468543698
  0
LWPOLYLINE
  5
84
100
AcDbEntity
  8
0
  6
ByLayer
 62
  256
370
   -1
100
AcDbPolyline
 90
    8
 70
    1
 43
0
 10
71.125
 20
-25.9845468543698
 42
-0.414213562373095
 10
72.125
 20
-24.9845468543698
 10
84.125
 20
-24.98454685436979
 42
-0.4142135623730909
 10
85.125
 20
-25.9845468543698
 10
85.125
 20
-37.9845468543698
 42
-0.414213562373095
 10
84.125
 20
-38.9845468543698
 10
72.125
 20
-38.98454685436982
 42
-0.4142135623730909
 10
71.125
 20
-37.9845468543698
  0
LWPOLYLINE
  5
85
100
AcDbEntity
  8
0
  6
ByLayer
 62
  256
370
   -1
100
AcDbPolyline
 90
    8
 70
    1
 43
0
 10
80.65000000000001
 20
-45.03454685436981
 42
-0.414213562373095
 10
81.65000000000001
 20
-44.03454685436981
 10
93.65000000000001
 20
-44.03454685436979
 42
-0.4142135623730909
 10
94.65000000000001
 20
-45.03454685436981
 10
94.65000000000001
 20
-57.03454685436981
 42
-0.414213562373095
 10
93.65000000000001
 20
-58.03454685436981
 10
81.65000000000001
 20
-58.03454685436982
 42
-0.4142135623730909
 10
80.65000000000001
 20
-57.03454685436981
  0
LWPOLYLINE
  5
86
100
AcDbEntity
  8
0
  6
ByLayer
 62
  256
370
   -1
100
AcDbPolyline
 90
    8
 70
    1
 43
0
 10
18.7375
 20
-83.1345468543698
 42
-0.414213562373094
 10
19.7375
 20
-82.1345468543698
 10
31.7375
 20
-82.13454685436979
 42
-0.414213562373094
 10
32.73750000000001
 20
-83.1345468543698
 10
32.7375
 20
-95.13454685436982
 42
-0.4142135623730919
 10
31.7375
 20
-96.13454685436979
 10
19.7375
 20
-96.13454685436984
 42
-0.4142135623730981
 10
18.73749999999999
 20
-95.13454685436982
  0
LWPOLYLINE
  5
87
100
AcDbEntity
  8
0
  6
ByLayer
 62
  256
370
   -1
100
AcDbPolyline
 90
    8
 70
    1
 43
0
 10
9.2125
 20
-2.17204685436981
 42
-0.414213562373095
 10
10.2125
 20
-1.17204685436981
 10
22.2125
 20
-1.17204685436981
 42
-0.4142135623730987
 10
23.21250000000001
 20
-2.172046854369829
 10
23.2125
 20
-14.1720468543698
 42
-0.414213562373095
 10
22.2125
 20
-15.1720468543698
 10
10.2125
 20
-15.17204685436981
 42
-0.414213562373095
 10
9.21249999999999
 20
-14.1720468543698
  0
LWPOLYLINE
  5
88
100
AcDbEntity
  8
0
  6
ByLayer
 62
  256
370
   -1
100
AcDbPolyline
 90
    8
 70
    1
 43
0
 10
-58.75
 20
-1.172046854369796
 42
-0.414213562373095
 10
-57.74999999999999
 20
-2.172046854369811
 10
-57.75
 20
-14.1720468543698
 42
-0.4142135623730945
 10
-58.75
 20
-15.1720468543698
 10
-70.75
 20
-15.1720468543698
 42
-0.4142135623730945
 10
-71.75
 20
-14.1720468543698
 10
-71.75
 20
-2.172046854369811
 42
-0.4142135623730953
 10
-70.75
 20
-1.17204685436981
  0
LWPOLYLINE
  5
89
100
AcDbEntity
  8
0
  6
ByLayer
 62
  256
370
   -1
100
AcDbPolyline
 90
    8
 70
    1
 43
0
 10
83.03125000000001
 20
-83.1345468543698
 42
-0.414213562373095
 10
84.03125000000001
 20
-82.1345468543698
 10
96.03125
 20
-82.13454685436983
 42
-0.4142135623730992
 10
97.03125
 20
-83.1345468543698
 10
97.03125
 20
-95.13454685436982
 42
-0.4142135623730909
 10
96.03125
 20
-96.13454685436983
 10
84.03125000000001
 20
-96.13454685436983
 42
-0.414213562373095
 10
83.03125
 20
-95.13454685436982
  0
LWPOLYLINE
  5
8A
100
AcDbEntity
  8
0
  6
ByLayer
 62
  256
370
   -1
100
AcDbPolyline
 90
    8
 70
    1
 43
0
 10
113.9875
 20
-87.8970468543698
 42
-0.414213562373095
 10
114.9875
 20
-86.8970468543698
 10
126.9875
 20
-86.89704685436982
 42
-0.4142135623730909
 10
127.9875
 20
-87.8970468543698
 10
127.9875
 20
-99.89704685436982
 42
-0.414213562373095
 10
126.9875
 20
-100.8970468543698
 10
114.9875
 20
-100.8970468543698
 42
-0.4142135623730867
 10
113.9875
 20
-99.89704685436982
  0
LWPOLYLINE
  5
8B
100
AcDbEntity
  8
0
  6
ByLayer
 62
  256
370
   -1
100
AcDbPolyline
 90
    8
 70
    1
 43
0
 10
-155.09375
 20
-102.18454685437
 42
-0.414213562373095
 10
-154.09375
 20
-101.18454685437
 10
-142.09375
 20
-101.18454685437
 42
-0.4142135623730992
 10
-141.09375
 20
-102.18454685437
 10
-141.09375
 20
-114.18454685437
 42
-0.4142135623730992
 10
-142.09375
 20
-115.18454685437
 10
-154.09375
 20
-115.18454685437
 42
-0.414213562373095
 10
-155.09375
 20
-114.18454685437
  0
LWPOLYLINE
  5
8C
100
AcDbEntity
  8
0
  6
ByLayer
 62
  256
370
   -1
100
AcDbPolyline
 90
    8
 70
    1
 43
0
 10
-96.85000000000001
 20
-44.03454685436984
 42
-0.4142135623730929
 10
-95.85000000000002
 20
-45.03454685436981
 10
-95.85000000000001
 20
-57.03454685436981
 42
-0.414213562373095
 10
-96.85000000000001
 20
-58.03454685436981
 10
-108.85
 20
-58.03454685436981
 42
-0.414213562373095
 10
-109.85
 20
-57.03454685436981
 10
-109.85
 20
-45.03454685436981
 42
-0.414213562373095
 10
-108.85
 20
-44.03454685436981
  0
LWPOLYLINE
  5
8D
100
AcDbEntity
  8
0
  6
ByLayer
 62
  256
370
   -1
100
AcDbPolyline
 90
    8
 70
    1
 43
0
 10
104.4625
 20
-45.03454685436981
 42
-0.414213562373095
 10
105.4625
 20
-44.03454685436981
 10
117.4625
 20
-44.03454685436979
 42
-0.414213562373095
 10
118.4625
 20
-45.03454685436981
 10
118.4625
 20
-57.03454685436981
 42
-0.4142135623730929
 10
117.4625
 20
-58.03454685436981
 10
105.4625
 20
-58.03454685436982
 42
-0.4142135623730909
 10
104.4625
 20
-57.03454685436981
  0
LWPOLYLINE
  5
8E
100
AcDbEntity
  8
0
  6
ByLayer
 62
  256
370
   -1
100
AcDbPolyline
 90
    8
 70
    1
 43
0
 10
146.0375
 20
-105.94704685437
 42
-0.4142135623731034
 10
147.0375000000001
 20
-106.94704685437
 10
147.0375
 20
-118.94704685437
 42
-0.414213562373095
 10
146.0375
 20
-119.94704685437
 10
134.0375
 20
-119.94704685437
 42
-0.414213562373095
 10
133.0375
 20
-118.94704685437
 10
133.0375
 20
-106.94704685437
 42
-0.4142135623730909
 10
134.0375
 20
-105.94704685437
  0
LWPOLYLINE
  5
8F
100
AcDbEntity
  8
0
  6
ByLayer
 62
  256
370
   -1
100
AcDbPolyline
 90
    8
 70
    1
 43
0
 10
24.34375
 20
-113.18454685437
 10
24.34375
 20
-101.18454685437
 42
0.4142135623730929
 10
23.34375
 20
-100.18454685437
 10
18.59375
 20
-100.18454685437
 42
0.414213562373095
 10
17.59375
 20
-101.18454685437
 10
17.59374999999999
 20
-113.18454685437
 42
0.4142135623730992
 10
18.59375
 20
-114.18454685437
 10
23.34375
 20
-114.18454685437
 42
0.414213562373095
  0
LWPOLYLINE
  5
90
100
AcDbEntity
  8
0
  6
ByLayer
 62
  256
370
   -1
100
AcDbPolyline
 90
    8
 70
    1
 43
0
 10
-157.475
 20
-2.17204685436981
 42
-0.4142135623730992
 10
-156.475
 20
-1.17204685436981
 10
-144.475
 20
-1.172046854369814
 42
-0.4142135623730946
 10
-143.475
 20
-2.172046854369811
 10
-143.475
 20
-14.1720468543698
 42
-0.414213562373095
 10
-144.475
 20
-15.1720468543698
 10
-156.475
 20
-15.1720468543698
 42
-0.4142135623730987
 10
-157.475
 20
-14.1720468543698
  0
LWPOLYLINE
  5
91
100
AcDbEntity
  8
0
  6
ByLayer
 62
  256
370
   -1
100
AcDbPolyline
 90
    8
 70
    1
 43
0
 10
61.59999999999999
 20
-45.03454685436981
 42
-0.414213562373095
 10
62.60000000000001
 20
-44.03454685436979
 10
74.59999999999999
 20
-44.03454685436979
 42
-0.4142135623730909
 10
75.59999999999999
 20
-45.03454685436981
 10
75.59999999999999
 20
-57.03454685436981
 42
-0.414213562373095
 10
74.59999999999999
 20
-58.03454685436981
 10
62.60000000000001
 20
-58.03454685436982
 42
-0.414213562373095
 10
61.59999999999999
 20
-57.03454685436981
  0
LWPOLYLINE
  5
92
100
AcDbEntity
  8
0
  6
ByLayer
 62
  256
370
   -1
100
AcDbPolyline
 90
    8
 70
    1
 43
0
 10
112.88175
 20
-65.0845468543698
 42
-0.414213562373095
 10
113.88175
 20
-64.0845468543698
 10
118.63175
 20
-64.08454685436979
 42
-0.414213562373095
 10
119.63175
 20
-65.0845468543698
 10
119.63175
 20
-77.0845468543698
 42
-0.414213562373095
 10
118.63175
 20
-78.08454685436982
 10
113.88175
 20
-78.08454685436982
 42
-0.414213562373095
 10
112.88175
 20
-77.0845468543698
  0
LWPOLYLINE
  5
93
100
AcDbEntity
  8
0
  6
ByLayer
 62
  256
370
   -1
100
AcDbPolyline
 90
    8
 70
    1
 43
0
 10
-157.475
 20
-25.9845468543698
 10
-157.475
 20
-37.9845468543698
 42
0.4142135623730992
 10
-156.475
 20
-38.9845468543698
 10
-144.475
 20
-38.9845468543698
 42
0.414213562373095
 10
-143.475
 20
-37.9845468543698
 10
-143.475
 20
-25.9845468543698
 42
0.414213562373095
 10
-144.475
 20
-24.9845468543698
 10
-156.475
 20
-24.9845468543698
 42
0.4142135623730992
  0
LWPOLYLINE
  5
94
100
AcDbEntity
  8
0
  6
ByLayer
 62
  256
370
   -1
100
AcDbPolyline
 90
    8
 70
    1
 43
0
 10
-33.65
 20
-45.03454685436981
 42
-0.414213562373095
 10
-32.65
 20
-44.03454685436981
 10
-20.65
 20
-44.03454685436981
 42
-0.414213562373095
 10
-19.65
 20
-45.03454685436981
 10
-19.65
 20
-57.03454685436981
 42
-0.414213562373095
 10
-20.65
 20
-58.03454685436981
 10
-32.65
 20
-58.03454685436981
 42
-0.414213562373095
 10
-33.65
 20
-57.03454685436981
  0
LWPOLYLINE
  5
95
100
AcDbEntity
  8
0
  6
ByLayer
 62
  256
370
   -1
100
AcDbPolyline
 90
    8
 70
    1
 43
0
 10
-75.65625
 20
-113.18454685437
 10
-75.65625
 20
-101.18454685437
 42
0.4142135623730909
 10
-76.65625
 20
-100.18454685437
 10
-81.40625
 20
-100.18454685437
 42
0.414213562373095
 10
-82.40625
 20
-101.18454685437
 10
-82.40625
 20
-113.18454685437
 42
0.414213562373095
 10
-81.40625
 20
-114.18454685437
 10
-76.65625
 20
-114.18454685437
 42
0.414213562373095
  0
LWPOLYLINE
  5
96
100
AcDbEntity
  8
0
  6
ByLayer
 62
  256
370
   -1
100
AcDbPolyline
 90
    8
 70
    1
 43
0
 10
-52.70000000000002
 20
-45.03454685436981
 42
-0.414213562373095
 10
-51.70000000000001
 20
-44.03454685436979
 10
-39.7
 20
-44.03454685436981
 42
-0.414213562373095
 10
-38.7
 20
-45.03454685436981
 10
-38.7
 20
-57.03454685436981
 42
-0.414213562373095
 10
-39.7
 20
-58.03454685436981
 10
-51.70000000000001
 20
-58.03454685436981
 42
-0.4142135623730929
 10
-52.7
 20
-57.03454685436981
  0
LWPOLYLINE
  5
97
100
AcDbEntity
  8
0
  6
ByLayer
 62
  256
370
   -1
100
AcDbPolyline
 90
    8
 70
    1
 43
0
 10
-131.28125
 20
-102.18454685437
 42
-0.414213562373095
 10
-130.28125
 20
-101.18454685437
 10
-118.28125
 20
-101.18454685437
 42
-0.4142135623730867
 10
-117.28125
 20
-102.18454685437
 10
-117.28125
 20
-114.18454685437
 42
-0.414213562373095
 10
-118.28125
 20
-115.18454685437
 10
-130.28125
 20
-115.18454685437
 42
-0.414213562373095
 10
-131.28125
 20
-114.18454685437
  0
LWPOLYLINE
  5
98
100
AcDbEntity
  8
0
  6
ByLayer
 62
  256
370
   -1
100
AcDbPolyline
 90
    8
 70
    1
 43
0
 10
-124.1375
 20
-64.0845468543698
 42
-0.414213562373095
 10
-123.1375
 20
-63.0845468543698
 10
-111.1375
 20
-63.0845468543698
 42
-0.414213562373095
 10
-110.1375
 20
-64.0845468543698
 10
-110.1375
 20
-76.0845468543698
 42
-0.414213562373095
 10
-111.1375
 20
-77.0845468543698
 10
-123.1375
 20
-77.0845468543698
 42
-0.414213562373095
 10
-124.1375
 20
-76.0845468543698
  0
LWPOLYLINE
  5
99
100
AcDbEntity
  8
0
  6
ByLayer
 62
  256
370
   -1
100
AcDbPolyline
 90
    8
 70
    1
 43
0
 10
12.6875
 20
-82.13454685436979
 42
-0.4142135623730945
 10
13.68750000000001
 20
-83.1345468543698
 10
13.6875
 20
-95.13454685436982
 42
-0.4142135623730924
 10
12.6875
 20
-96.13454685436979
 10
0.6875000000000141
 20
-96.13454685436979
 42
-0.4142135623730924
 10
-0.3124999999999819
 20
-95.13454685436982
 10
-0.3124999999999825
 20
-83.1345468543698
 42
-0.4142135623730945
 10
0.6875000000000143
 20
-82.1345468543698
  0
LWPOLYLINE
  5
9A
100
AcDbEntity
  8
0
  6
ByLayer
 62
  256
370
   -1
100
AcDbPolyline
 90
    8
 70
    1
 43
0
 10
-49.225
 20
-24.98454685436979
 42
-0.414213562373095
 10
-48.22499999999999
 20
-25.9845468543698
 10
-48.22499999999999
 20
-37.9845468543698
 42
-0.414213562373095
 10
-49.225
 20
-38.98454685436982
 10
-61.22500000000001
 20
-38.9845468543698
 42
-0.414213562373095
 10
-62.22500000000001
 20
-37.9845468543698
 10
-62.22500000000001
 20
-25.9845468543698
 42
-0.4142135623730961
 10
-61.22500000000001
 20
-24.9845468543698
  0
LWPOLYLINE
  5
9B
100
AcDbEntity
  8
0
  6
ByLayer
 62
  256
370
   -1
100
AcDbPolyline
 90
    8
 70
    1
 43
0
 10
-24.125
 20
-25.9845468543698
 42
-0.414213562373095
 10
-23.125
 20
-24.9845468543698
 10
-11.125
 20
-24.98454685436981
 42
-0.414213562373095
 10
-10.125
 20
-25.9845468543698
 10
-10.125
 20
-37.9845468543698
 42
-0.4142135623730945
 10
-11.125
 20
-38.9845468543698
 10
-23.125
 20
-38.9845468543698
 42
-0.414213562373095
 10
-24.125
 20
-37.9845468543698
  0
LWPOLYLINE
  5
9C
100
AcDbEntity
  8
0
  6
ByLayer
 62
  256
370
   -1
100
AcDbPolyline
 90
    8
 70
    1
 43
0
 10
-119.375
 20
-25.9845468543698
 42
-0.414213562373095
 10
-118.375
 20
-24.9845468543698
 10
-106.375
 20
-24.9845468543698
 42
-0.414213562373095
 10
-105.375
 20
-25.9845468543698
 10
-105.375
 20
-37.9845468543698
 42
-0.414213562373095
 10
-106.375
 20
-38.98454685436982
 10
-118.375
 20
-38.98454685436982
 42
-0.4142135623730909
 10
-119.375
 20
-37.9845468543698
  0
LWPOLYLINE
  5
9D
100
AcDbEntity
  8
0
  6
ByLayer
 62
  256
370
   -1
100
AcDbPolyline
 90
    8
 70
    1
 43
0
 10
13.975
 20
-25.9845468543698
 42
-0.414213562373095
 10
14.975
 20
-24.9845468543698
 10
26.975
 20
-24.98454685436982
 42
-0.414213562373095
 10
27.97499999999998
 20
-25.9845468543698
 10
27.97500000000002
 20
-37.9845468543698
 42
-0.414213562373095
 10
26.975
 20
-38.98454685436982
 10
14.975
 20
-38.98454685436978
 42
-0.414213562373095
 10
13.97500000000002
 20
-37.9845468543698
  0
LWPOLYLINE
  5
9E
100
AcDbEntity
  8
0
  6
ByLayer
 62
  256
370
   -1
100
AcDbPolyline
 90
    8
 70
    1
 43
0
 10
-138.425
 20
-25.9845468543698
 42
-0.414213562373095
 10
-137.425
 20
-24.9845468543698
 10
-125.425
 20
-24.98454685436979
 42
-0.4142135623730929
 10
-124.425
 20
-25.9845468543698
 10
-124.425
 20
-37.9845468543698
 42
-0.4142135623730929
 10
-125.425
 20
-38.98454685436982
 10
-137.425
 20
-38.9845468543698
 42
-0.414213562373095
 10
-138.425
 20
-37.9845468543698
  0
LWPOLYLINE
  5
9F
100
AcDbEntity
  8
0
  6
ByLayer
 62
  256
370
   -1
100
AcDbPolyline
 90
    8
 70
    1
 43
0
 10
-36.03125
 20
-102.18454685437
 42
-0.414213562373095
 10
-35.03125
 20
-101.18454685437
 10
-23.03125
 20
-101.18454685437
 42
-0.414213562373095
 10
-22.03125
 20
-102.18454685437
 10
-22.03125
 20
-114.18454685437
 42
-0.414213562373095
 10
-23.03125
 20
-115.18454685437
 10
-35.03125
 20
-115.18454685437
 42
-0.414213562373095
 10
-36.03125
 20
-114.18454685437
  0
LWPOLYLINE
  5
A0
100
AcDbEntity
  8
0
  6
ByLayer
 62
  256
370
   -1
100
AcDbPolyline
 90
    8
 70
    1
 43
0
 10
-76.5125
 20
-83.1345468543698
 42
-0.414213562373095
 10
-75.5125
 20
-82.1345468543698
 10
-63.5125
 20
-82.1345468543698
 42
-0.4142135623730909
 10
-62.51249999999999
 20
-83.1345468543698
 10
-62.51249999999999
 20
-95.13454685436982
 42
-0.414213562373095
 10
-63.5125
 20
-96.13454685436983
 10
-75.5125
 20
-96.1345468543698
 42
-0.4142135623730909
 10
-76.51249999999999
 20
-95.13454685436982
  0
LWPOLYLINE
  5
A1
100
AcDbEntity
  8
0
  6
ByLayer
 62
  256
370
   -1
100
AcDbPolyline
 90
    8
 70
    1
 43
0
 10
151.8
 20
-34.7220468543698
 10
151.8
 20
-19.7220468543698
 42
0.414213562373095
 10
150.8
 20
-18.7220468543698
 10
138.8
 20
-18.7220468543698
 42
0.414213562373095
 10
137.8
 20
-19.7220468543698
 10
137.8
 20
-34.7220468543698
 42
0.4142135623730992
 10
138.8
 20
-35.7220468543698
 10
150.8
 20
-35.7220468543698
 42
0.414213562373095
  0
LWPOLYLINE
  5
A2
100
AcDbEntity
  8
0
  6
ByLayer
 62
  256
370
   -1
100
AcDbPolyline
 90
    8
 70
    1
 43
0
 10
109.463
 20
-2.15424320580748
 10
109.463
 20
-14.1542432058075
 42
0.4142135623730958
 10
111.463
 20
-16.1542432058075
 10
149.563
 20
-16.1542432058075
 42
0.4142135623730948
 10
151.563
 20
-14.1542432058075
 10
151.563
 20
-2.15424320580747
 42
0.4142135623730936
 10
149.563
 20
-0.1542432058074787
 10
111.463
 20
-0.1542432058074803
 42
0.4142135623730959
  0
LWPOLYLINE
  5
A3
100
AcDbEntity
  8
0
  6
ByLayer
 62
  256
370
   -1
100
AcDbPolyline
 90
  104
 70
    1
 43
0
 10
-158
 20
-122.464850495482
 42
-0.414213562373095
 10
-160
 20
-120.464850495482
 10
-160
 20
-115.739536340188
 42
0.2679491924304641
 10
-160.499999999998
 20
-114.873510936405
 10
-163.899995083535
 20
-112.910522859673
 42
-0.267949192433039
 10
-164.524995083541
 20
-111.827991104937
 10
-164.5249950835257
 20
-100.137392181599
 42
-0.2679491925338047
 10
-163.899995083198
 20
-99.05486042677991
 10
-160.5000000003321
 20
-97.09187235217264
 42
0.2679491925338498
 10
-160
 20
-96.22584694819651
 10
-160
 20
-24.8610503942043
 42
0.2679491925338421
 10
-160.500000000332
 20
-23.9950249902282
 10
-163.8999950832008
 20
-22.03203691562777
 42
-0.2679491925338944
 10
-164.524995083534
 20
-20.9495051608018
 10
-164.5249950835411
 20
-9.258906237463499
 42
-0.2679491924329928
 10
-163.899995083535
 20
-8.17637448272764
 10
-160.4999999999981
 20
-6.213386405996073
 42
0.2679491924305401
 10
-160
 20
-5.34736100221272
 10
-160
 20
-0.6220468469192124
 42
-0.4142135623730951
 10
-158
 20
1.37795315308079
 10
-130.461945688546
 20
1.37795315308079
 42
0.2679491924310607
 10
-129.595920284762
 20
1.877953153080778
 10
-127.6329293695173
 20
5.277953153080796
 42
-0.2679491924312763
 10
-126.550397614786
 20
5.90295315308048
 10
-114.859798691545
 20
5.902953153080981
 42
-0.2679491924311738
 10
-113.777266936814
 20
5.277953153080592
 10
-111.8142760215696
 20
1.87795315308103
 42
0.2679491924311952
 10
-110.948250617785
 20
1.37795315308078
 10
-64.9943475353804
 20
1.37795315308078
 42
0.2679491924311153
 10
-64.12832213159601
 20
1.877953153080769
 10
-62.16533121635125
 20
5.277953153080793
 42
-0.267949192431105
 10
-61.08279946162081
 20
5.90295315308069
 10
-49.39220053837921
 20
5.902953153080732
 42
-0.267949192431116
 10
-48.3096687836487
 20
5.277953153080782
 10
-46.34667786840403
 20
1.877953153080761
 42
0.267949192431119
 10
-45.4806524646196
 20
1.37795315308078
 10
39.8056524646195
 20
1.37795315308078
 42
0.2679491924311314
 10
40.671677868404
 20
1.877953153080778
 10
42.63466878364867
 20
5.27795315308083
 42
-0.2679491924311362
 10
43.7172005383793
 20
5.9029531530808
 10
55.4077994616208
 20
5.902953153080749
 42
-0.2679491924311199
 10
56.49033121635131
 20
5.277953153080779
 10
58.45332213159605
 20
1.877953153080795
 42
0.2679491924311037
 10
59.31934753538041
 20
1.37795315308077
 10
105.273250617785
 20
1.37795315308077
 42
0.2679491924312016
 10
106.13927602157
 20
1.877953153080776
 10
108.1022669368143
 20
5.277953153080462
 42
-0.2679491924311699
 10
109.184798691545
 20
5.90295315308067
 10
120.875397614786
 20
5.902953153080208
 42
-0.2679491924312796
 10
121.957929369517
 20
5.277953153080688
 10
123.9209202847617
 20
1.87795315308057
 42
0.2679491924310617
 10
124.786945688546
 20
1.37795315308077
 10
152.325
 20
1.377953153080771
 42
-0.4142135623730945
 10
154.325
 20
-0.622046846919222
 10
154.325
 20
-5.34736100221262
 42
0.2679491924305427
 10
154.824999999998
 20
-6.213386405996167
 10
158.224995083535
 20
-8.176374482727612
 42
-0.2679491924329944
 10
158.849995083541
 20
-9.25890623746341
 10
158.8499950835333
 20
-20.9495051608018
 42
-0.2679491925339986
 10
158.224995083201
 20
-22.0320369156279
 10
154.8250000003321
 20
-23.99502499022814
 42
0.2679491925338643
 10
154.325
 20
-24.8610503942043
 10
154.325
 20
-96.22584694819651
 42
0.2679491925338489
 10
154.825000000332
 20
-97.0918723521726
 10
158.2249950832016
 20
-99.05486042677354
 42
-0.2679491925338132
 10
158.849995083533
 20
-100.137392181599
 10
158.8499950835415
 20
-111.827991104937
 42
-0.2679491924332252
 10
158.224995083535
 20
-112.910522859673
 10
154.8249999999979
 20
-114.8735109364048
 42
0.2679491924304722
 10
154.325
 20
-115.739536340188
 10
154.325
 20
-120.464850495482
 42
-0.414213562373095
 10
152.325
 20
-122.464850495482
 10
112.156849807738
 20
-122.464850495482
 42
0.2679491924311974
 10
111.290824403953
 20
-122.964850495482
 10
109.3278313801407
 20
-126.3648541476294
 42
-0.2679491924311431
 10
108.245299625411
 20
-126.989854147629
 10
96.55470070216872
 20
-126.989854147628
 42
-0.2679491924311923
 10
95.47216894743781
 20
-126.364854147628
 10
93.50917592362526
 20
-122.964850495482
 42
0.2679491924311306
 10
92.64315051984082
 20
-122.464850495482
 10
46.2193475353805
 20
-122.464850495482
 42
0.2679491924311191
 10
45.3533221315961
 20
-122.964850495482
 10
43.39033121635133
 20
-126.364850495482
 42
-0.2679491924311136
 10
42.3077994616208
 20
-126.989850495482
 10
30.6172002950249
 20
-126.9898504954812
 42
-0.2679489586343471
 10
29.5346692073099
 20
-126.364851229284
 10
27.57167786840396
 20
-122.964850495482
 42
0.2679491924311315
 10
26.7056524646195
 20
-122.464850495482
 10
-32.3806524646195
 20
-122.464850495482
 42
0.2679491924311331
 10
-33.246677868404
 20
-122.964850495482
 10
-35.2096692073093
 20
-126.3648512292844
 42
-0.2679489586343252
 10
-36.2922002950249
 20
-126.989850495482
 10
-47.9827994616208
 20
-126.9898504954824
 42
-0.2679494241287283
 10
-49.06533175679331
 20
-126.364849559409
 10
-51.02832213159596
 20
-122.964850495482
 42
0.267949192431123
 10
-51.8943475353804
 20
-122.464850495482
 10
-98.31815051984071
 20
-122.464850495482
 42
0.267949192431134
 10
-99.18417592362522
 20
-122.964850495482
 10
-101.1471689474372
 20
-126.3648541476285
 42
-0.2679491924314644
 10
-102.229700702169
 20
-126.989854147629
 10
-113.920299625411
 20
-126.9898541476282
 42
-0.2679491924311388
 10
-115.00283138014
 20
-126.364854147629
 10
-116.9658244039534
 20
-122.9648504954823
 42
0.2679491924312024
 10
-117.831849807738
 20
-122.464850495482
  0
CIRCLE
  5
A4
100
AcDbEntity
  8
0
  6
ByLayer
 62
  256
370
   -1
100
AcDbCircle
 10
49.56250000000001
 20
4.20295315308078
 40
1.1
  0
CIRCLE
  5
A5
100
AcDbEntity
  8
0
  6
ByLayer
 62
  256
370
   -1
100
AcDbCircle
 10
102.400000163789
 20
-125.289854147629
 40
1.09999999999999
  0
CIRCLE
  5
A6
100
AcDbEntity
  8
0
  6
ByLayer
 62
  256
370
   -1
100
AcDbCircle
 10
-162.824995083534
 20
-105.982691643323
 40
1.09999999999999
  0
CIRCLE
  5
A7
100
AcDbEntity
  8
0
  6
ByLayer
 62
  256
370
   -1
100
AcDbCircle
 10
-120.705098153166
 20
4.20295315308066
 40
1.09999999999999
  0
CIRCLE
  5
A8
100
AcDbEntity
  8
0
  6
ByLayer
 62
  256
370
   -1
100
AcDbCircle
 10
-108.075000163789
 20
-125.289854147629
 40
1.09999999999999
  0
CIRCLE
  5
A9
100
AcDbEntity
  8
0
  6
ByLayer
 62
  256
370
   -1
100
AcDbCircle
 10
157.149995083534
 20
-105.982691643323
 40
1.09999999999999
  0
CIRCLE
  5
AA
100
AcDbEntity
  8
0
  6
ByLayer
 62
  256
370
   -1
100
AcDbCircle
 10
115.030098153166
 20
4.20295315308078
 40
1.09999999999999
  0
CIRCLE
  5
AB
100
AcDbEntity
  8
0
  6
ByLayer
 62
  256
370
   -1
100
AcDbCircle
 10
36.46250000000001
 20
-125.289850495482
 40
1.1
  0
CIRCLE
  5
AC
100
AcDbEntity
  8
0
  6
ByLayer
 62
  256
370
   -1
100
AcDbCircle
 10
-162.824995083534
 20
-15.1042056990779
 40
1.09999999999999
  0
CIRCLE
  5
AD
100
AcDbEntity
  8
0
  6
ByLayer
 62
  256
370
   -1
100
AcDbCircle
 10
-55.2375
 20
4.20295315308075
 40
1.1
  0
CIRCLE
  5
AE
100
AcDbEntity
  8
0
  6
ByLayer
 62
  256
370
   -1
100
AcDbCircle
 10
-42.1375
 20
-125.289850495482
 40
1.09999999999999
  0
CIRCLE
  5
AF
100
AcDbEntity
  8
0
  6
ByLayer
 62
  256
370
   -1
100
AcDbCircle
 10
157.149995083533
 20
-15.1042056990778
 40
1.09999999999999
  0
LWPOLYLINE
  5
B0
100
AcDbEntity
  8
0
  6
ByLayer
 62
  256
370
   -1
100
AcDbPolyline
 90
    8
 70
    1
 43
0
 10
-44.4625
 20
-82.13454685436983
 42
-0.4142135623730992
 10
-43.46250000000001
 20
-83.1345468543698
 10
-43.46250000000001
 20
-95.13454685436982
 42
-0.4142135623730909
 10
-44.4625
 20
-96.13454685436979
 10
-56.46250000000001
 20
-96.13454685436979
 42
-0.4142135623730929
 10
-57.46250000000001
 20
-95.13454685436982
 10
-57.46250000000001
 20
-83.1345468543698
 42
-0.4142135623730971
 10
-56.46250000000001
 20
-82.1345468543698
  0
LWPOLYLINE
  5
B1
100
AcDbEntity
  8
0
  6
ByLayer
 62
  256
370
   -1
100
AcDbPolyline
 90
    8
 70
    1
 43
0
 10
-130.00575
 20
-84.1345468543698
 42
-0.414213562373095
 10
-129.00575
 20
-83.1345468543698
 10
-124.25575
 20
-83.1345468543698
 42
-0.414213562373095
 10
-123.25575
 20
-84.1345468543698
 10
-123.25575
 20
-96.1345468543698
 42
-0.4142135623731034
 10
-124.25575
 20
-97.1345468543698
 10
-129.00575
 20
-97.1345468543698
 42
-0.414213562373095
 10
-130.00575
 20
-96.1345468543698
  0
LWPOLYLINE
  5
B2
100
AcDbEntity
  8
0
  6
ByLayer
 62
  256
370
   -1
100
AcDbPolyline
 90
    8
 70
    1
 43
0
 10
-71.75
 20
-45.03454685436981
 10
-71.75
 20
-57.03454685436981
 42
0.414213562373095
 10
-70.75
 20
-58.03454685436981
 10
-58.75
 20
-58.03454685436981
 42
0.414213562373095
 10
-57.75
 20
-57.03454685436981
 10
-57.75
 20
-45.03454685436981
 42
0.4142135623730929
 10
-58.75
 20
-44.03454685436981
 10
-70.75
 20
-44.03454685436981
 42
0.414213562373095
  0
LWPOLYLINE
  5
B3
100
AcDbEntity
  8
0
  6
ByLayer
 62
  256
370
   -1
100
AcDbPolyline
 90
    8
 70
    1
 43
0
 10
-9.83749999999999
 20
-64.0845468543698
 42
-0.4142135623730966
 10
-8.83749999999999
 20
-63.08454685436981
 10
3.162500000000001
 20
-63.08454685436979
 42
-0.4142135623730938
 10
4.16250000000001
 20
-64.0845468543698
 10
4.162499999999998
 20
-76.0845468543698
 42
-0.4142135623730948
 10
3.162500000000001
 20
-77.0845468543698
 10
-8.83749999999999
 20
-77.0845468543698
 42
-0.414213562373095
 10
-9.837499999999986
 20
-76.0845468543698
  0
LWPOLYLINE
  5
B4
100
AcDbEntity
  8
0
  6
ByLayer
 62
  256
370
   -1
100
AcDbPolyline
 90
    8
 70
    1
 43
0
 10
-81.27500000000001
 20
-25.9845468543698
 42
-0.4142135623730919
 10
-80.27500000000002
 20
-24.9845468543698
 10
-68.27500000000001
 20
-24.9845468543698
 42
-0.4142135623730961
 10
-67.27500000000001
 20
-25.9845468543698
 10
-67.27500000000001
 20
-37.9845468543698
 42
-0.414213562373095
 10
-68.27500000000001
 20
-38.9845468543698
 10
-80.27500000000002
 20
-38.98454685436982
 42
-0.4142135623730846
 10
-81.27500000000003
 20
-37.9845468543698
  0
LWPOLYLINE
  5
B5
100
AcDbEntity
  8
0
  6
ByLayer
 62
  256
370
   -1
100
AcDbPolyline
 90
    8
 70
    1
 43
0
 10
52.07500000000002
 20
-25.9845468543698
 42
-0.414213562373094
 10
53.07500000000001
 20
-24.9845468543698
 10
65.075
 20
-24.98454685436979
 42
-0.4142135623730929
 10
66.07500000000003
 20
-25.9845468543698
 10
66.075
 20
-37.9845468543698
 42
-0.414213562373095
 10
65.075
 20
-38.9845468543698
 10
53.07500000000001
 20
-38.98454685436982
 42
-0.4142135623730909
 10
52.075
 20
-37.9845468543698
  0
LWPOLYLINE
  5
B6
100
AcDbEntity
  8
0
  6
ByLayer
 62
  256
370
   -1
100
AcDbPolyline
 90
    8
 70
    1
 43
0
 10
-28.8875
 20
-64.0845468543698
 42
-0.4142135623730971
 10
-27.8875
 20
-63.08454685436981
 10
-15.8875
 20
-63.08454685436981
 42
-0.4142135623730955
 10
-14.8875
 20
-64.0845468543698
 10
-14.8875
 20
-76.0845468543698
 42
-0.4142135623730945
 10
-15.8875
 20
-77.0845468543698
 10
-27.8875
 20
-77.08454685436978
 42
-0.414213562373094
 10
-28.8875
 20
-76.0845468543698
  0
LWPOLYLINE
  5
B7
100
AcDbEntity
  8
0
  6
ByLayer
 62
  256
370
   -1
100
AcDbPolyline
 90
    8
 70
    1
 43
0
 10
52.075
 20
-2.172046854369811
 10
52.075
 20
-14.1720468543698
 42
0.4142135623730919
 10
53.07500000000001
 20
-15.1720468543698
 10
65.075
 20
-15.1720468543698
 42
0.4142135623730945
 10
66.075
 20
-14.1720468543698
 10
66.07500000000003
 20
-2.17204685436983
 42
0.4142135623730945
 10
65.075
 20
-1.17204685436981
 10
53.07500000000001
 20
-1.17204685436981
 42
0.4142135623730966
  0
LWPOLYLINE
  5
B8
100
AcDbEntity
  8
0
  6
ByLayer
 62
  256
370
   -1
100
AcDbPolyline
 90
    8
 70
    1
 43
0
 10
-114.6125
 20
-83.1345468543698
 42
-0.414213562373095
 10
-113.6125
 20
-82.1345468543698
 10
-101.6125
 20
-82.1345468543698
 42
-0.414213562373095
 10
-100.6125
 20
-83.1345468543698
 10
-100.6125
 20
-95.13454685436982
 42
-0.4142135623730742
 10
-101.6125
 20
-96.13454685436984
 10
-113.6125
 20
-96.13454685436984
 42
-0.4142135623730784
 10
-114.6125
 20
-95.13454685436982
  0
LWPOLYLINE
  5
B9
100
AcDbEntity
  8
0
  6
ByLayer
 62
  256
370
   -1
100
AcDbPolyline
 90
    8
 70
    1
 43
0
 10
-66.9875
 20
-64.0845468543698
 42
-0.414213562373095
 10
-65.9875
 20
-63.0845468543698
 10
-53.9875
 20
-63.0845468543698
 42
-0.4142135623730888
 10
-52.98749999999998
 20
-64.0845468543698
 10
-52.9875
 20
-76.0845468543698
 42
-0.414213562373095
 10
-53.9875
 20
-77.0845468543698
 10
-65.9875
 20
-77.0845468543698
 42
-0.414213562373095
 10
-66.9875
 20
-76.0845468543698
  0
LWPOLYLINE
  5
BA
100
AcDbEntity
  8
0
  6
ByLayer
 62
  256
370
   -1
100
AcDbPolyline
 90
    8
 70
    1
 43
0
 10
-128.9
 20
-45.03454685436981
 42
-0.414213562373095
 10
-127.9
 20
-44.03454685436981
 10
-115.9
 20
-44.03454685436981
 42
-0.414213562373095
 10
-114.9
 20
-45.03454685436981
 10
-114.9
 20
-57.03454685436981
 42
-0.414213562373095
 10
-115.9
 20
-58.03454685436981
 10
-127.9
 20
-58.03454685436981
 42
-0.4142135623730784
 10
-128.9
 20
-57.03454685436981
  0
LWPOLYLINE
  5
BB
100
AcDbEntity
  8
0
  6
ByLayer
 62
  256
370
   -1
100
AcDbPolyline
 90
    8
 70
    1
 43
0
 10
97.31875000000002
 20
-64.0845468543698
 42
-0.4142135623730992
 10
98.31874999999999
 20
-63.08454685436981
 10
110.31875
 20
-63.0845468543698
 42
-0.4142135623730784
 10
111.31875
 20
-64.0845468543698
 10
111.31875
 20
-76.0845468543698
 42
-0.414213562373095
 10
110.31875
 20
-77.0845468543698
 10
98.31874999999999
 20
-77.08454685436983
 42
-0.4142135623730867
 10
97.31874999999999
 20
-76.0845468543698
  0
LWPOLYLINE
  5
BC
100
AcDbEntity
  8
0
  6
ByLayer
 62
  256
370
   -1
100
AcDbPolyline
 90
    8
 70
    1
 43
0
 10
94.9375
 20
-106.94704685437
 42
-0.414213562373095
 10
95.9375
 20
-105.94704685437
 10
107.9375
 20
-105.94704685437
 42
-0.4142135623730784
 10
108.9375
 20
-106.94704685437
 10
108.9375
 20
-118.94704685437
 42
-0.4142135623730909
 10
107.9375
 20
-119.94704685437
 10
95.9375
 20
-119.94704685437
 42
-0.4142135623730867
 10
94.93750000000003
 20
-118.94704685437
  0
LWPOLYLINE
  5
BD
100
AcDbEntity
  8
0
  6
ByLayer
 62
  256
370
   -1
100
AcDbPolyline
 90
    8
 70
    1
 43
0
 10
-6.3625
 20
-82.1345468543698
 42
-0.4142135623730955
 10
-5.362500000000003
 20
-83.1345468543698
 10
-5.362500000000005
 20
-95.13454685436982
 42
-0.4142135623730919
 10
-6.3625
 20
-96.13454685436979
 10
-18.3625
 20
-96.13454685436983
 42
-0.4142135623730846
 10
-19.36250000000001
 20
-95.13454685436982
 10
-19.36250000000001
 20
-83.1345468543698
 42
-0.4142135623730971
 10
-18.3625
 20
-82.1345468543698
  0
LWPOLYLINE
  5
BE
100
AcDbEntity
  8
0
  6
ByLayer
 62
  256
370
   -1
100
AcDbPolyline
 90
    8
 70
    1
 43
0
 10
-100.325
 20
-25.9845468543698
 42
-0.4142135623730981
 10
-99.32500000000002
 20
-24.9845468543698
 10
-87.325
 20
-24.9845468543698
 42
-0.414213562373095
 10
-86.325
 20
-25.9845468543698
 10
-86.325
 20
-37.9845468543698
 42
-0.414213562373095
 10
-87.325
 20
-38.9845468543698
 10
-99.32500000000002
 20
-38.98454685436979
 42
-0.4142135623730846
 10
-100.325
 20
-37.9845468543698
  0
LWPOLYLINE
  5
BF
100
AcDbEntity
  8
0
  6
ByLayer
 62
  256
370
   -1
100
AcDbPolyline
 90
    8
 70
    1
 43
0
 10
150.8
 20
-82.1345468543698
 42
-0.4142135623730617
 10
151.8
 20
-83.1345468543698
 10
151.8
 20
-95.13454685436982
 42
-0.4142135623730659
 10
150.8
 20
-96.13454685436983
 10
138.8
 20
-96.13454685436984
 42
-0.4142135623730742
 10
137.8
 20
-95.13454685436982
 10
137.8
 20
-83.1345468543698
 42
-0.4142135623731117
 10
138.8
 20
-82.1345468543698
  0
LWPOLYLINE
  5
C0
100
AcDbEntity
  8
0
  6
ByLayer
 62
  256
370
   -1
100
AcDbPolyline
 90
    8
 70
    1
 43
0
 10
113.9875
 20
-106.94704685437
 42
-0.414213562373095
 10
114.9875
 20
-105.94704685437
 10
126.9875
 20
-105.94704685437
 42
-0.4142135623730825
 10
127.9875
 20
-106.94704685437
 10
127.9875
 20
-118.94704685437
 42
-0.414213562373095
 10
126.9875
 20
-119.94704685437
 10
114.9875
 20
-119.94704685437
 42
-0.4142135623730867
 10
113.9875
 20
-118.94704685437
  0
LWPOLYLINE
  5
C1
100
AcDbEntity
  8
0
  6
ByLayer
 62
  256
370
   -1
100
AcDbPolyline
 90
    8
 70
    1
 43
0
 10
-47.93749999999999
 20
-64.0845468543698
 42
-0.4142135623730929
 10
-46.93750000000001
 20
-63.08454685436981
 10
-34.9375
 20
-63.08454685436981
 42
-0.4142135623730971
 10
-33.9375
 20
-64.0845468543698
 10
-33.9375
 20
-76.0845468543698
 42
-0.414213562373095
 10
-34.9375
 20
-77.0845468543698
 10
-46.93750000000001
 20
-77.0845468543698
 42
-0.4142135623730929
 10
-47.9375
 20
-76.0845468543698
  0
LWPOLYLINE
  5
C2
100
AcDbEntity
  8
0
  6
ByLayer
 62
  256
370
   -1
100
AcDbPolyline
 90
    8
 70
    1
 43
0
 10
-105.0875
 20
-64.0845468543698
 42
-0.4142135623731034
 10
-104.0875
 20
-63.0845468543698
 10
-92.08750000000001
 20
-63.0845468543698
 42
-0.414213562373095
 10
-91.08750000000001
 20
-64.0845468543698
 10
-91.08750000000001
 20
-76.0845468543698
 42
-0.414213562373095
 10
-92.08750000000001
 20
-77.0845468543698
 10
-104.0875
 20
-77.08454685436982
 42
-0.4142135623730992
 10
-105.0875
 20
-76.0845468543698
  0
LWPOLYLINE
  5
C3
100
AcDbEntity
  8
0
  6
ByLayer
 62
  256
370
   -1
100
AcDbPolyline
 90
    8
 70
    1
 43
0
 10
137.8
 20
-64.0845468543698
 42
-0.4142135623730992
 10
138.8
 20
-63.08454685436981
 10
150.8
 20
-63.08454685436981
 42
-0.4142135623730742
 10
151.8
 20
-64.0845468543698
 10
151.8
 20
-76.0845468543698
 42
-0.414213562373095
 10
150.8
 20
-77.0845468543698
 10
138.8
 20
-77.08454685436983
 42
-0.4142135623730867
 10
137.8
 20
-76.0845468543698
  0
LWPOLYLINE
  5
C4
100
AcDbEntity
  8
0
  6
ByLayer
 62
  256
370
   -1
100
AcDbPolyline
 90
    8
 70
    1
 43
0
 10
-38.41250000000002
 20
-83.1345468543698
 42
-0.4142135623730992
 10
-37.4125
 20
-82.1345468543698
 10
-25.4125
 20
-82.13454685436983
 42
-0.4142135623730961
 10
-24.4125
 20
-83.1345468543698
 10
-24.4125
 20
-95.13454685436982
 42
-0.4142135623730929
 10
-25.4125
 20
-96.13454685436979
 10
-37.4125
 20
-96.1345468543698
 42
-0.4142135623730929
 10
-38.4125
 20
-95.13454685436982
  0
LWPOLYLINE
  5
C5
100
AcDbEntity
  8
0
  6
ByLayer
 62
  256
370
   -1
100
AcDbPolyline
 90
    8
 70
    1
 43
0
 10
33.025
 20
-25.9845468543698
 42
-0.4142135623730919
 10
34.025
 20
-24.9845468543698
 10
46.025
 20
-24.98454685436982
 42
-0.4142135623730992
 10
47.02499999999998
 20
-25.9845468543698
 10
47.02499999999998
 20
-37.9845468543698
 42
-0.414213562373095
 10
46.025
 20
-38.9845468543698
 10
34.025
 20
-38.98454685436982
 42
-0.4142135623730992
 10
33.02499999999998
 20
-37.9845468543698
  0
LWPOLYLINE
  5
C6
100
AcDbEntity
  8
0
  6
ByLayer
 62
  256
370
   -1
100
AcDbPolyline
 90
    8
 70
    1
 43
0
 10
-30.175
 20
-24.9845468543698
 42
-0.4142135623730981
 10
-29.175
 20
-25.9845468543698
 10
-29.17499999999999
 20
-37.9845468543698
 42
-0.4142135623730971
 10
-30.175
 20
-38.98454685436982
 10
-42.175
 20
-38.9845468543698
 42
-0.414213562373095
 10
-43.175
 20
-37.9845468543698
 10
-43.17500000000001
 20
-25.9845468543698
 42
-0.4142135623730961
 10
-42.175
 20
-24.9845468543698
  0
LWPOLYLINE
  5
C7
100
AcDbEntity
  8
0
  6
ByLayer
 62
  256
370
   -1
100
AcDbPolyline
 90
    8
 70
    1
 43
0
 10
-145.56875
 20
-83.1345468543698
 42
-0.4142135623731075
 10
-144.56875
 20
-82.1345468543698
 10
-132.56875
 20
-82.1345468543698
 42
-0.4142135623730617
 10
-131.56875
 20
-83.1345468543698
 10
-131.56875
 20
-95.13454685436982
 42
-0.4142135623730659
 10
-132.56875
 20
-96.13454685436983
 10
-144.56875
 20
-96.1345468543698
 42
-0.4142135623730909
 10
-145.56875
 20
-95.13454685436982
  0
LWPOLYLINE
  5
C8
100
AcDbEntity
  8
0
  6
ByLayer
 62
  256
370
   -1
100
AcDbPolyline
 90
    8
 70
    1
 43
0
 10
-9.83749999999999
 20
-2.172046854369811
 42
-0.4142135623730953
 10
-8.83749999999999
 20
-1.17204685436981
 10
3.162500000000001
 20
-1.1720468543698
 42
-0.4142135623730955
 10
4.16250000000001
 20
-2.172046854369812
 10
4.162499999999994
 20
-14.1720468543698
 42
-0.4142135623730943
 10
3.162500000000001
 20
-15.1720468543698
 10
-8.83749999999999
 20
-15.17204685436981
 42
-0.4142135623730961
 10
-9.8375
 20
-14.1720468543698
  0
LWPOLYLINE
  5
C9
100
AcDbEntity
  8
0
  6
ByLayer
 62
  256
370
   -1
100
AcDbPolyline
 90
    8
 70
    1
 43
0
 10
-86.03749999999999
 20
-64.0845468543698
 10
-86.03749999999999
 20
-76.0845468543698
 42
0.4142135623730867
 10
-85.03749999999999
 20
-77.0845468543698
 10
-73.03749999999999
 20
-77.0845468543698
 42
0.414213562373095
 10
-72.03749999999999
 20
-76.0845468543698
 10
-72.03749999999999
 20
-64.0845468543698
 42
0.4142135623730992
 10
-73.03749999999999
 20
-63.0845468543698
 10
-85.03749999999999
 20
-63.08454685436981
 42
0.4142135623730992
  0
LWPOLYLINE
  5
CA
100
AcDbEntity
  8
0
  6
ByLayer
 62
  256
370
   -1
100
AcDbPolyline
 90
    8
 70
    1
 43
0
 10
-28.8875
 20
-2.17204685436981
 42
-0.4142135623730935
 10
-27.8875
 20
-1.17204685436981
 10
-15.8875
 20
-1.172046854369817
 42
-0.4142135623730944
 10
-14.8875
 20
-2.172046854369811
 10
-14.8875
 20
-14.1720468543698
 42
-0.414213562373094
 10
-15.8875
 20
-15.1720468543698
 10
-27.8875
 20
-15.1720468543698
 42
-0.414213562373095
 10
-28.8875
 20
-14.1720468543698
  0
LWPOLYLINE
  5
CB
100
AcDbEntity
  8
0
  6
ByLayer
 62
  256
370
   -1
100
AcDbPolyline
 90
    8
 70
    1
 43
0
 10
-90.79999999999998
 20
-45.03454685436981
 42
-0.4142135623730971
 10
-89.80000000000001
 20
-44.03454685436981
 10
-77.8
 20
-44.03454685436981
 42
-0.4142135623730929
 10
-76.80000000000001
 20
-45.03454685436981
 10
-76.80000000000001
 20
-57.03454685436981
 42
-0.4142135623730929
 10
-77.8
 20
-58.03454685436981
 10
-89.80000000000001
 20
-58.03454685436978
 42
-0.4142135623730805
 10
-90.79999999999998
 20
-57.03454685436981
  0
LWPOLYLINE
  5
CC
100
AcDbEntity
  8
0
  6
ByLayer
 62
  256
370
   -1
100
AcDbPolyline
 90
    8
 70
    1
 43
0
 10
42.55
 20
-45.03454685436981
 42
-0.414213562373095
 10
43.55
 20
-44.03454685436981
 10
55.55
 20
-44.03454685436984
 42
-0.4142135623730909
 10
56.54999999999997
 20
-45.03454685436981
 10
56.55
 20
-57.03454685436981
 42
-0.414213562373095
 10
55.55
 20
-58.03454685436981
 10
43.55
 20
-58.03454685436981
 42
-0.4142135623730909
 10
42.54999999999998
 20
-57.03454685436981
  0
LWPOLYLINE
  5
CD
100
AcDbEntity
  8
0
  6
ByLayer
 62
  256
370
   -1
100
AcDbPolyline
 90
    8
 70
    1
 43
0
 10
4.450000000000019
 20
-45.03454685436981
 42
-0.4142135623730961
 10
5.450000000000021
 20
-44.03454685436979
 10
17.45
 20
-44.03454685436984
 42
-0.4142135623730971
 10
18.44999999999998
 20
-45.03454685436981
 10
18.45
 20
-57.03454685436981
 42
-0.414213562373094
 10
17.45
 20
-58.03454685436981
 10
5.449999999999982
 20
-58.03454685436982
 42
-0.4142135623730943
 10
4.449999999999971
 20
-57.03454685436981
  0
LWPOLYLINE
  5
CE
100
AcDbEntity
  8
0
  6
ByLayer
 62
  256
370
   -1
100
AcDbPolyline
 90
    8
 70
    1
 43
0
 10
-152.7124999999999
 20
-45.03454685436981
 42
-0.4142135623730929
 10
-151.7125
 20
-44.03454685436981
 10
-139.7125
 20
-44.0345468543698
 42
-0.4142135623730971
 10
-138.7125
 20
-45.03454685436981
 10
-138.7125000000001
 20
-57.03454685436981
 42
-0.4142135623730929
 10
-139.7125
 20
-58.03454685436981
 10
-151.7125
 20
-58.03454685436981
 42
-0.4142135623730971
 10
-152.7125
 20
-57.03454685436981
  0
LWPOLYLINE
  5
CF
100
AcDbEntity
  8
0
  6
ByLayer
 62
  256
370
   -1
100
AcDbPolyline
 90
    8
 70
    1
 43
0
 10
36.5
 20
-44.03454685436978
 42
-0.414213562373095
 10
37.50000000000001
 20
-45.03454685436981
 10
37.5
 20
-57.03454685436981
 42
-0.414213562373095
 10
36.5
 20
-58.03454685436981
 10
24.5
 20
-58.03454685436978
 42
-0.4142135623730878
 10
23.50000000000002
 20
-57.03454685436981
 10
23.49999999999999
 20
-45.03454685436981
 42
-0.4142135623730919
 10
24.5
 20
-44.0345468543698
  0
LWPOLYLINE
  5
D0
100
AcDbEntity
  8
0
  6
ByLayer
 62
  256
370
   -1
100
AcDbPolyline
 90
    8
 70
    1
 43
0
 10
-153.88175
 20
-84.1345468543698
 42
-0.414213562373095
 10
-152.88175
 20
-83.1345468543698
 10
-148.13175
 20
-83.1345468543698
 42
-0.414213562373095
 10
-147.13175
 20
-84.1345468543698
 10
-147.13175
 20
-96.1345468543698
 42
-0.4142135623731075
 10
-148.13175
 20
-97.1345468543698
 10
-152.88175
 20
-97.1345468543698
 42
-0.4142135623731075
 10
-153.88175
 20
-96.1345468543698
  0
LWPOLYLINE
  5
D1
100
AcDbEntity
  8
0
  6
ByLayer
 62
  256
370
   -1
100
AcDbPolyline
 90
    8
 70
    1
 43
0
 10
90.175
 20
-2.172046854369811
 42
-0.4142135623730961
 10
91.175
 20
-1.17204685436981
 10
103.175
 20
-1.172046854369797
 42
-0.4142135623730814
 10
104.175
 20
-2.172046854369811
 10
104.175
 20
-14.1720468543698
 42
-0.4142135623730945
 10
103.175
 20
-15.1720468543698
 10
91.175
 20
-15.17204685436981
 42
-0.4142135623730852
 10
90.17499999999998
 20
-14.1720468543698
  0
LWPOLYLINE
  5
D2
100
AcDbEntity
  8
0
  6
ByLayer
 62
  256
370
   -1
100
AcDbPolyline
 90
    8
 70
    1
 43
0
 10
47.3125
 20
-64.0845468543698
 10
47.3125
 20
-76.0845468543698
 42
0.4142135623730909
 10
48.31250000000001
 20
-77.0845468543698
 10
60.3125
 20
-77.0845468543698
 42
0.414213562373095
 10
61.3125
 20
-76.0845468543698
 10
61.31250000000001
 20
-64.0845468543698
 42
0.4142135623730909
 10
60.3125
 20
-63.0845468543698
 10
48.31250000000001
 20
-63.0845468543698
 42
0.4142135623730992
  0
LWPOLYLINE
  5
D3
100
AcDbEntity
  8
0
  6
ByLayer
 62
  256
370
   -1
100
AcDbPolyline
 90
    8
 70
    1
 43
0
 10
33.02500000000001
 20
-2.172046854369811
 10
33.02500000000001
 20
-14.1720468543698
 42
0.414213562373095
 10
34.025
 20
-15.1720468543698
 10
46.025
 20
-15.1720468543698
 42
0.4142135623730945
 10
47.025
 20
-14.1720468543698
 10
47.02500000000001
 20
-2.17204685436981
 42
0.4142135623730958
 10
46.025
 20
-1.17204685436981
 10
34.025
 20
-1.17204685436981
 42
0.4142135623730932
  0
LWPOLYLINE
  5
D4
100
AcDbEntity
  8
0
  6
ByLayer
 62
  256
370
   -1
100
AcDbPolyline
 90
   10
 70
    1
 43
0
 10
-137.33125
 20
-63.0845468543698
 10
-154.09375
 20
-63.0845468543698
 42
0.1084391695173651
 10
-154.5125
 20
-63.17644529754922
 42
0.5472327724910803
 10
-155.93125
 20
-64.0845468543698
 10
-155.93125
 20
-76.0845468543698
 42
0.5472327724910765
 10
-154.5125
 20
-76.99264841119042
 42
0.1084391695173635
 10
-154.09375
 20
-77.0845468543698
 10
-137.33125
 20
-77.0845468543698
 42
0.414213562373095
 10
-136.33125
 20
-76.0845468543698
 10
-136.33125
 20
-64.0845468543698
 42
0.414213562373095
  0
LWPOLYLINE
  5
D5
100
AcDbEntity
  8
0
  6
ByLayer
 62
  256
370
   -1
100
AcDbPolyline
 90
    8
 70
    1
 43
0
 10
56.8375
 20
-83.1345468543698
 42
-0.4142135623730971
 10
57.83750000000001
 20
-82.1345468543698
 10
69.83750000000001
 20
-82.13454685436979
 42
-0.4142135623730784
 10
70.83750000000002
 20
-83.1345468543698
 10
70.83750000000001
 20
-95.1345468543698
 42
-0.4142135623730784
 10
69.83750000000001
 20
-96.13454685436983
 10
57.83750000000001
 20
-96.1345468543698
 42
-0.4142135623731013
 10
56.83750000000003
 20
-95.13454685436982
  0
LWPOLYLINE
  5
D6
100
AcDbEntity
  8
0
  6
ByLayer
 62
  256
370
   -1
100
AcDbPolyline
 90
    8
 70
    1
 43
0
 10
28.2625
 20
-64.0845468543698
 42
-0.4142135623730971
 10
29.2625
 20
-63.08454685436981
 10
41.2625
 20
-63.0845468543698
 42
-0.4142135623730888
 10
42.26250000000002
 20
-64.0845468543698
 10
42.2625
 20
-76.0845468543698
 42
-0.414213562373095
 10
41.2625
 20
-77.0845468543698
 10
29.2625
 20
-77.08454685436982
 42
-0.4142135623730929
 10
28.26249999999999
 20
-76.0845468543698
  0
LWPOLYLINE
  5
D7
100
AcDbEntity
  8
0
  6
ByLayer
 62
  256
370
   -1
100
AcDbPolyline
 90
    8
 70
    1
 43
0
 10
84.125
 20
-1.172046854369797
 42
-0.4142135623730814
 10
85.125
 20
-2.172046854369811
 10
85.125
 20
-14.1720468543698
 42
-0.414213562373094
 10
84.125
 20
-15.1720468543698
 10
72.125
 20
-15.17204685436982
 42
-0.4142135623730893
 10
71.12499999999999
 20
-14.1720468543698
 10
71.125
 20
-2.172046854369812
 42
-0.4142135623730957
 10
72.125
 20
-1.17204685436981
  0
LWPOLYLINE
  5
D8
100
AcDbEntity
  8
0
  6
ByLayer
 62
  256
370
   -1
100
AcDbPolyline
 90
    8
 70
    1
 43
0
 10
37.78750000000001
 20
-83.1345468543698
 10
37.78750000000001
 20
-95.13454685436982
 42
0.4142135623730909
 10
38.7875
 20
-96.13454685436979
 10
50.7875
 20
-96.13454685436983
 42
0.4142135623730846
 10
51.78750000000001
 20
-95.13454685436982
 10
51.78750000000001
 20
-83.1345468543698
 42
0.4142135623730825
 10
50.7875
 20
-82.1345468543698
 10
38.7875
 20
-82.1345468543698
 42
0.4142135623730992
  0
LWPOLYLINE
  5
D9
100
AcDbEntity
  8
0
  6
ByLayer
 62
  256
370
   -1
100
AcDbPolyline
 90
    8
 70
    1
 43
0
 10
-90.8
 20
-2.172046854369811
 42
-0.4142135623730981
 10
-89.80000000000001
 20
-1.17204685436981
 10
-77.8
 20
-1.172046854369813
 42
-0.4142135623730929
 10
-76.80000000000003
 20
-2.172046854369812
 10
-76.80000000000003
 20
-14.1720468543698
 42
-0.4142135623730924
 10
-77.8
 20
-15.1720468543698
 10
-89.80000000000001
 20
-15.17204685436978
 42
-0.4142135623730872
 10
-90.79999999999998
 20
-14.1720468543698
  0
LWPOLYLINE
  5
DA
100
AcDbEntity
  8
0
  6
ByLayer
 62
  256
370
   -1
100
AcDbPolyline
 90
    8
 70
    1
 43
0
 10
79.3625
 20
-63.0845468543698
 42
-0.4142135623731034
 10
80.36250000000003
 20
-64.0845468543698
 10
80.36249999999998
 20
-76.0845468543698
 42
-0.4142135623730992
 10
79.3625
 20
-77.0845468543698
 10
67.3625
 20
-77.08454685436979
 42
-0.4142135623730909
 10
66.36250000000004
 20
-76.0845468543698
 10
66.36250000000003
 20
-64.0845468543698
 42
-0.4142135623730909
 10
67.3625
 20
-63.08454685436981
  0
LWPOLYLINE
  5
DB
100
AcDbEntity
  8
0
  6
ByLayer
 62
  256
370
   -1
100
AcDbPolyline
 90
    8
 70
    1
 43
0
 10
-14.60000000000001
 20
-45.03454685436981
 42
-0.4142135623730929
 10
-13.6
 20
-44.03454685436979
 10
-1.599999999999982
 20
-44.03454685436981
 42
-0.414213562373095
 10
-0.5999999999999847
 20
-45.03454685436981
 10
-0.5999999999999827
 20
-57.03454685436981
 42
-0.4142135623730948
 10
-1.59999999999998
 20
-58.03454685436981
 10
-13.6
 20
-58.03454685436981
 42
-0.414213562373095
 10
-14.6
 20
-57.03454685436981
  0
LWPOLYLINE
  5
DC
100
AcDbEntity
  8
0
  6
ByLayer
 62
  256
370
   -1
100
AcDbPolyline
 90
    8
 70
    1
 43
0
 10
-96.85000000000001
 20
-1.172046854369817
 42
-0.4142135623730939
 10
-95.85000000000001
 20
-2.172046854369811
 10
-95.85000000000001
 20
-14.1720468543698
 42
-0.4142135623730945
 10
-96.85000000000001
 20
-15.1720468543698
 10
-108.85
 20
-15.17204685436979
 42
-0.4142135623730935
 10
-109.85
 20
-14.1720468543698
 10
-109.85
 20
-2.172046854369812
 42
-0.414213562373095
 10
-108.85
 20
-1.17204685436981
  0
LWPOLYLINE
  5
DD
100
AcDbEntity
  8
0
  6
ByLayer
 62
  256
370
   -1
100
AcDbPolyline
 90
    8
 70
    1
 43
0
 10
89.00575000000002
 20
-65.0845468543698
 10
89.00575000000002
 20
-77.0845468543698
 42
0.4142135623730867
 10
90.00575000000001
 20
-78.08454685436982
 10
94.75575000000001
 20
-78.08454685436983
 42
0.4142135623730867
 10
95.75575000000001
 20
-77.0845468543698
 10
95.75575000000001
 20
-65.0845468543698
 42
0.4142135623730784
 10
94.75575000000001
 20
-64.0845468543698
 10
90.00575000000001
 20
-64.0845468543698
 42
0.4142135623730992
  0
LWPOLYLINE
  5
DE
100
AcDbEntity
  8
0
  6
ByLayer
 62
  256
370
   -1
100
AcDbPolyline
 90
   20
 70
    1
 43
0
 10
33.18750000000001
 20
-115.1625
 10
33.81617556428333
 20
-115.1625
 42
0.05264173015807921
 10
34.025
 20
-115.18454685437
 10
46.0250000000001
 20
-115.18454685437
 42
0.05264173015816026
 10
46.23382443571671
 20
-115.1625
 10
52.86617556428333
 20
-115.1625
 42
0.05264173015807944
 10
53.07500000000001
 20
-115.18454685437
 10
65.075
 20
-115.18454685437
 42
0.05264173015816026
 10
65.28382443571661
 20
-115.1625
 10
71.91617556428332
 20
-115.1625
 42
0.05264173015807966
 10
72.125
 20
-115.18454685437
 10
84.125
 20
-115.18454685437
 42
0.05264173015814601
 10
84.33382443571661
 20
-115.1625
 10
84.96250000000003
 20
-115.1625
 42
0.4142135623731159
 10
85.96250000000005
 20
-114.1625
 10
85.96250000000003
 20
-102.1625
 42
0.414213562373095
 10
84.96250000000003
 20
-101.1625
 10
33.18750000000001
 20
-101.1625
 42
0.4142135623731013
 10
32.1875
 20
-102.1625
 10
32.1875
 20
-114.1625
 42
0.4142135623731075
  0
LWPOLYLINE
  5
DF
100
AcDbEntity
  8
0
  6
ByLayer
 62
  256
370
   -1
100
AcDbPolyline
 90
    8
 70
    1
 43
0
 10
-5.07499999999999
 20
-25.9845468543698
 42
-0.4142135623730948
 10
-4.07499999999999
 20
-24.9845468543698
 10
7.925
 20
-24.98454685436979
 42
-0.4142135623730979
 10
8.92500000000001
 20
-25.9845468543698
 10
8.924999999999999
 20
-37.9845468543698
 42
-0.414213562373095
 10
7.925
 20
-38.9845468543698
 10
-4.07499999999999
 20
-38.9845468543698
 42
-0.4142135623730945
 10
-5.074999999999987
 20
-37.9845468543698
  0
LWPOLYLINE
  5
E0
100
AcDbEntity
  8
0
  6
ByLayer
 62
  256
370
   -1
100
AcDbPolyline
 90
    8
 70
    1
 43
0
 10
-47.93749999999999
 20
-2.172046854369811
 42
-0.4142135623730944
 10
-46.93750000000001
 20
-1.17204685436981
 10
-34.9375
 20
-1.172046854369813
 42
-0.4142135623730961
 10
-33.93750000000001
 20
-2.172046854369812
 10
-33.93750000000001
 20
-14.1720468543698
 42
-0.4142135623730955
 10
-34.9375
 20
-15.1720468543698
 10
-46.93750000000001
 20
-15.1720468543698
 42
-0.4142135623730935
 10
-47.93749999999999
 20
-14.1720468543698
  0
LWPOLYLINE
  5
E1
100
AcDbEntity
  8
0
  6
ByLayer
 62
  256
370
   -1
100
AcDbPolyline
 90
    8
 70
    1
 43
0
 10
-107.46875
 20
-102.18454685437
 42
-0.414213562373095
 10
-106.46875
 20
-101.18454685437
 10
-94.46875
 20
-101.18454685437
 42
-0.414213562373095
 10
-93.46875000000003
 20
-102.18454685437
 10
-93.46875
 20
-114.18454685437
 42
-0.414213562373095
 10
-94.46875
 20
-115.18454685437
 10
-106.46875
 20
-115.18454685437
 42
-0.414213562373095
 10
-107.46875
 20
-114.18454685437
  0
LWPOLYLINE
  5
E2
100
AcDbEntity
  8
0
  6
ByLayer
 62
  256
370
   -1
100
AcDbPolyline
 90
    8
 70
    1
 43
0
 10
-95.5625
 20
-83.1345468543698
 10
-95.5625
 20
-95.13454685436982
 42
0.4142135623730825
 10
-94.5625
 20
-96.1345468543698
 10
-82.5625
 20
-96.13454685436983
 42
0.4142135623730742
 10
-81.5625
 20
-95.13454685436982
 10
-81.5625
 20
-83.1345468543698
 42
0.414213562373095
 10
-82.5625
 20
-82.1345468543698
 10
-94.5625
 20
-82.1345468543698
 42
0.4142135623731034
  0
LWPOLYLINE
  5
E3
100
AcDbEntity
  8
0
  6
ByLayer
 62
  256
370
   -1
100
AcDbPolyline
 90
    8
 70
    1
 43
0
 10
22.2125
 20
-63.0845468543698
 42
-0.4142135623730909
 10
23.21250000000001
 20
-64.0845468543698
 10
23.2125
 20
-76.0845468543698
 42
-0.4142135623730961
 10
22.2125
 20
-77.0845468543698
 10
10.2125
 20
-77.08454685436983
 42
-0.4142135623730971
 10
9.21249999999999
 20
-76.0845468543698
 10
9.212500000000002
 20
-64.0845468543698
 42
-0.4142135623730961
 10
10.2125
 20
-63.08454685436981
  0
LWPOLYLINE
  5
E4
100
AcDbEntity
  8
0
  6
ByLayer
 62
  256
370
   -1
100
AcDbPolyline
 90
    8
 70
    1
 43
0
 10
137.8
 20
-45.03454685436981
 10
137.8
 20
-57.03454685436981
 42
0.4142135623730805
 10
138.8
 20
-58.03454685436981
 10
150.8
 20
-58.03454685436981
 42
0.4142135623730971
 10
151.8
 20
-57.03454685436981
 10
151.8
 20
-45.03454685436981
 42
0.4142135623730784
 10
150.8
 20
-44.0345468543698
 10
138.8
 20
-44.03454685436979
 42
0.4142135623730825
  0
LWPOLYLINE
  5
E5
100
AcDbEntity
  8
0
  6
ByLayer
 62
  256
370
   -1
100
AcDbPolyline
 90
    8
 70
    1
 43
0
 10
-128.9
 20
-2.172046854369811
 42
-0.4142135623730948
 10
-127.9
 20
-1.17204685436981
 10
-115.9
 20
-1.172046854369817
 42
-0.4142135623730939
 10
-114.9
 20
-2.172046854369811
 10
-114.9
 20
-14.1720468543698
 42
-0.4142135623730945
 10
-115.9
 20
-15.1720468543698
 10
-127.9
 20
-15.17204685436981
 42
-0.4142135623730872
 10
-128.9
 20
-14.1720468543698
  0
LWPOLYLINE
  5
E6
100
AcDbEntity
  8
0
  6
ByLayer
 62
  256
370
   -1
100
AcDbPolyline
 90
    8
 70
    1
 43
0
 10
71.125
 20
-25.9845468543698
 42
-0.414213562373095
 10
72.125
 20
-24.9845468543698
 10
84.125
 20
-24.98454685436979
 42
-0.4142135623730805
 10
85.125
 20
-25.9845468543698
 10
85.125
 20
-37.9845468543698
 42
-0.414213562373095
 10
84.125
 20
-38.9845468543698
 10
72.125
 20
-38.98454685436982
 42
-0.4142135623730888
 10
71.12499999999999
 20
-37.9845468543698
  0
LWPOLYLINE
  5
E7
100
AcDbEntity
  8
0
  6
ByLayer
 62
  256
370
   -1
100
AcDbPolyline
 90
    8
 70
    1
 43
0
 10
80.65000000000001
 20
-45.03454685436981
 42
-0.414213562373095
 10
81.65000000000001
 20
-44.03454685436981
 10
93.65000000000001
 20
-44.03454685436979
 42
-0.4142135623730805
 10
94.65000000000001
 20
-45.03454685436981
 10
94.65000000000001
 20
-57.03454685436981
 42
-0.414213562373095
 10
93.65000000000001
 20
-58.03454685436981
 10
81.65000000000003
 20
-58.03454685436981
 42
-0.4142135623730825
 10
80.64999999999999
 20
-57.03454685436981
  0
LWPOLYLINE
  5
E8
100
AcDbEntity
  8
0
  6
ByLayer
 62
  256
370
   -1
100
AcDbPolyline
 90
    8
 70
    1
 43
0
 10
18.73750000000001
 20
-83.1345468543698
 42
-0.414213562373094
 10
19.7375
 20
-82.1345468543698
 10
31.7375
 20
-82.1345468543698
 42
-0.4142135623730794
 10
32.73750000000001
 20
-83.1345468543698
 10
32.7375
 20
-95.13454685436982
 42
-0.4142135623730919
 10
31.7375
 20
-96.13454685436979
 10
19.7375
 20
-96.13454685436983
 42
-0.4142135623730846
 10
18.73749999999999
 20
-95.13454685436982
  0
LWPOLYLINE
  5
E9
100
AcDbEntity
  8
0
  6
ByLayer
 62
  256
370
   -1
100
AcDbPolyline
 90
    8
 70
    1
 43
0
 10
9.212500000000004
 20
-2.17204685436981
 42
-0.414213562373094
 10
10.2125
 20
-1.17204685436981
 10
22.2125
 20
-1.172046854369809
 42
-0.4142135623730984
 10
23.21250000000001
 20
-2.172046854369829
 10
23.2125
 20
-14.1720468543698
 42
-0.4142135623730914
 10
22.2125
 20
-15.1720468543698
 10
10.2125
 20
-15.17204685436981
 42
-0.4142135623730961
 10
9.21249999999999
 20
-14.1720468543698
  0
LWPOLYLINE
  5
EA
100
AcDbEntity
  8
0
  6
ByLayer
 62
  256
370
   -1
100
AcDbPolyline
 90
    8
 70
    1
 43
0
 10
-58.75
 20
-1.172046854369799
 42
-0.4142135623730941
 10
-57.74999999999999
 20
-2.172046854369811
 10
-57.75
 20
-14.1720468543698
 42
-0.4142135623730945
 10
-58.75
 20
-15.1720468543698
 10
-70.75
 20
-15.1720468543698
 42
-0.4142135623730945
 10
-71.75
 20
-14.1720468543698
 10
-71.75
 20
-2.172046854369812
 42
-0.4142135623730957
 10
-70.75
 20
-1.17204685436981
  0
LWPOLYLINE
  5
EB
100
AcDbEntity
  8
0
  6
ByLayer
 62
  256
370
   -1
100
AcDbPolyline
 90
    8
 70
    1
 43
0
 10
83.03125000000001
 20
-83.1345468543698
 42
-0.414213562373095
 10
84.03125000000001
 20
-82.1345468543698
 10
96.03125
 20
-82.13454685436983
 42
-0.4142135623730867
 10
97.03125
 20
-83.1345468543698
 10
97.03125000000001
 20
-95.13454685436982
 42
-0.4142135623730742
 10
96.03125
 20
-96.13454685436984
 10
84.03125000000001
 20
-96.13454685436984
 42
-0.4142135623730784
 10
83.03124999999999
 20
-95.13454685436982
  0
LWPOLYLINE
  5
EC
100
AcDbEntity
  8
0
  6
ByLayer
 62
  256
370
   -1
100
AcDbPolyline
 90
    8
 70
    1
 43
0
 10
113.9875
 20
-87.8970468543698
 42
-0.4142135623731034
 10
114.9875
 20
-86.8970468543698
 10
126.9875
 20
-86.89704685436982
 42
-0.4142135623730742
 10
127.9875
 20
-87.8970468543698
 10
127.9875
 20
-99.89704685436982
 42
-0.4142135623730701
 10
126.9875
 20
-100.8970468543698
 10
114.9875
 20
-100.8970468543698
 42
-0.4142135623730701
 10
113.9875
 20
-99.89704685436982
  0
LWPOLYLINE
  5
ED
100
AcDbEntity
  8
0
  6
ByLayer
 62
  256
370
   -1
100
AcDbPolyline
 90
    8
 70
    1
 43
0
 10
-155.09375
 20
-102.18454685437
 42
-0.414213562373095
 10
-154.09375
 20
-101.18454685437
 10
-142.09375
 20
-101.18454685437
 42
-0.4142135623730992
 10
-141.09375
 20
-102.18454685437
 10
-141.09375
 20
-114.18454685437
 42
-0.4142135623730992
 10
-142.09375
 20
-115.18454685437
 10
-154.09375
 20
-115.18454685437
 42
-0.414213562373095
 10
-155.09375
 20
-114.18454685437
  0
LWPOLYLINE
  5
EE
100
AcDbEntity
  8
0
  6
ByLayer
 62
  256
370
   -1
100
AcDbPolyline
 90
    8
 70
    1
 43
0
 10
-96.84999999999999
 20
-44.03454685436984
 42
-0.4142135623730971
 10
-95.85000000000002
 20
-45.03454685436981
 10
-95.85000000000001
 20
-57.03454685436981
 42
-0.414213562373095
 10
-96.85000000000001
 20
-58.03454685436981
 10
-108.85
 20
-58.03454685436981
 42
-0.414213562373095
 10
-109.85
 20
-57.03454685436981
 10
-109.85
 20
-45.03454685436981
 42
-0.414213562373095
 10
-108.85
 20
-44.03454685436981
  0
LWPOLYLINE
  5
EF
100
AcDbEntity
  8
0
  6
ByLayer
 62
  256
370
   -1
100
AcDbPolyline
 90
    8
 70
    1
 43
0
 10
104.4625
 20
-45.03454685436981
 42
-0.4142135623730971
 10
105.4625
 20
-44.03454685436981
 10
117.4625
 20
-44.03454685436979
 42
-0.4142135623730846
 10
118.4625
 20
-45.03454685436981
 10
118.4625
 20
-57.03454685436981
 42
-0.4142135623730929
 10
117.4625
 20
-58.03454685436981
 10
105.4625
 20
-58.03454685436981
 42
-0.4142135623730784
 10
104.4625
 20
-57.03454685436981
  0
LWPOLYLINE
  5
F0
100
AcDbEntity
  8
0
  6
ByLayer
 62
  256
370
   -1
100
AcDbPolyline
 90
    8
 70
    1
 43
0
 10
146.0375
 20
-105.94704685437
 42
-0.4142135623730742
 10
147.0375
 20
-106.94704685437
 10
147.0375
 20
-118.94704685437
 42
-0.414213562373095
 10
146.0375
 20
-119.94704685437
 10
134.0375
 20
-119.94704685437
 42
-0.4142135623730701
 10
133.0375
 20
-118.94704685437
 10
133.0375
 20
-106.94704685437
 42
-0.4142135623730909
 10
134.0375
 20
-105.94704685437
  0
LWPOLYLINE
  5
F1
100
AcDbEntity
  8
0
  6
ByLayer
 62
  256
370
   -1
100
AcDbPolyline
 90
    8
 70
    1
 43
0
 10
24.34375
 20
-113.18454685437
 10
24.34375
 20
-101.18454685437
 42
0.4142135623730846
 10
23.34375
 20
-100.18454685437
 10
18.59375
 20
-100.18454685437
 42
0.4142135623730961
 10
17.59375
 20
-101.18454685437
 10
17.59374999999999
 20
-113.18454685437
 42
0.4142135623730857
 10
18.59375
 20
-114.18454685437
 10
23.34375
 20
-114.18454685437
 42
0.4142135623730846
  0
LWPOLYLINE
  5
F2
100
AcDbEntity
  8
0
  6
ByLayer
 62
  256
370
   -1
100
AcDbPolyline
 90
    8
 70
    1
 43
0
 10
-157.475
 20
-2.172046854369811
 42
-0.4142135623731003
 10
-156.475
 20
-1.17204685436981
 10
-144.475
 20
-1.172046854369817
 42
-0.4142135623730939
 10
-143.475
 20
-2.172046854369811
 10
-143.475
 20
-14.1720468543698
 42
-0.4142135623730945
 10
-144.475
 20
-15.1720468543698
 10
-156.475
 20
-15.1720468543698
 42
-0.4142135623730997
 10
-157.475
 20
-14.1720468543698
  0
LWPOLYLINE
  5
F3
100
AcDbEntity
  8
0
  6
ByLayer
 62
  256
370
   -1
100
AcDbPolyline
 90
    8
 70
    1
 43
0
 10
61.59999999999999
 20
-45.03454685436981
 42
-0.414213562373095
 10
62.60000000000001
 20
-44.03454685436979
 10
74.59999999999999
 20
-44.03454685436979
 42
-0.4142135623730909
 10
75.59999999999999
 20
-45.03454685436981
 10
75.59999999999999
 20
-57.03454685436981
 42
-0.414213562373095
 10
74.59999999999999
 20
-58.03454685436981
 10
62.60000000000001
 20
-58.03454685436981
 42
-0.4142135623730909
 10
61.59999999999999
 20
-57.03454685436981
  0
LWPOLYLINE
  5
F4
100
AcDbEntity
  8
0
  6
ByLayer
 62
  256
370
   -1
100
AcDbPolyline
 90
    8
 70
    1
 43
0
 10
112.88175
 20
-65.0845468543698
 42
-0.4142135623730992
 10
113.88175
 20
-64.0845468543698
 10
118.63175
 20
-64.0845468543698
 42
-0.4142135623730784
 10
119.63175
 20
-65.0845468543698
 10
119.63175
 20
-77.0845468543698
 42
-0.4142135623730867
 10
118.63175
 20
-78.08454685436982
 10
113.88175
 20
-78.08454685436983
 42
-0.4142135623730867
 10
112.88175
 20
-77.0845468543698
  0
LWPOLYLINE
  5
F5
100
AcDbEntity
  8
0
  6
ByLayer
 62
  256
370
   -1
100
AcDbPolyline
 90
    8
 70
    1
 43
0
 10
-157.475
 20
-25.9845468543698
 10
-157.475
 20
-37.9845468543698
 42
0.4142135623731013
 10
-156.475
 20
-38.9845468543698
 10
-144.475
 20
-38.9845468543698
 42
0.414213562373095
 10
-143.475
 20
-37.9845468543698
 10
-143.475
 20
-25.9845468543698
 42
0.414213562373095
 10
-144.475
 20
-24.9845468543698
 10
-156.475
 20
-24.9845468543698
 42
0.4142135623731003
  0
LWPOLYLINE
  5
F6
100
AcDbEntity
  8
0
  6
ByLayer
 62
  256
370
   -1
100
AcDbPolyline
 90
    8
 70
    1
 43
0
 10
-33.65000000000001
 20
-45.03454685436979
 42
-0.414213562373095
 10
-32.65
 20
-44.03454685436981
 10
-20.65
 20
-44.03454685436981
 42
-0.414213562373095
 10
-19.65
 20
-45.03454685436981
 10
-19.65
 20
-57.03454685436981
 42
-0.414213562373095
 10
-20.65
 20
-58.03454685436981
 10
-32.65
 20
-58.03454685436981
 42
-0.414213562373095
 10
-33.65
 20
-57.03454685436981
  0
LWPOLYLINE
  5
F7
100
AcDbEntity
  8
0
  6
ByLayer
 62
  256
370
   -1
100
AcDbPolyline
 90
    8
 70
    1
 43
0
 10
-75.65625
 20
-113.18454685437
 10
-75.65625
 20
-101.18454685437
 42
0.414213562373095
 10
-76.65625
 20
-100.18454685437
 10
-81.40625
 20
-100.18454685437
 42
0.4142135623731034
 10
-82.40625
 20
-101.18454685437
 10
-82.40625
 20
-113.18454685437
 42
0.4142135623731075
 10
-81.40625
 20
-114.18454685437
 10
-76.65625
 20
-114.18454685437
 42
0.4142135623730784
  0
LWPOLYLINE
  5
F8
100
AcDbEntity
  8
0
  6
ByLayer
 62
  256
370
   -1
100
AcDbPolyline
 90
    8
 70
    1
 43
0
 10
-52.70000000000002
 20
-45.03454685436981
 42
-0.414213562373095
 10
-51.70000000000001
 20
-44.03454685436979
 10
-39.7
 20
-44.03454685436982
 42
-0.4142135623730971
 10
-38.70000000000001
 20
-45.03454685436981
 10
-38.7
 20
-57.03454685436981
 42
-0.414213562373095
 10
-39.7
 20
-58.03454685436981
 10
-51.70000000000001
 20
-58.03454685436981
 42
-0.4142135623730929
 10
-52.7
 20
-57.03454685436981
  0
LWPOLYLINE
  5
F9
100
AcDbEntity
  8
0
  6
ByLayer
 62
  256
370
   -1
100
AcDbPolyline
 90
    8
 70
    1
 43
0
 10
-131.28125
 20
-102.18454685437
 42
-0.414213562373095
 10
-130.28125
 20
-101.18454685437
 10
-118.28125
 20
-101.18454685437
 42
-0.4142135623730701
 10
-117.28125
 20
-102.18454685437
 10
-117.28125
 20
-114.18454685437
 42
-0.414213562373095
 10
-118.28125
 20
-115.18454685437
 10
-130.28125
 20
-115.18454685437
 42
-0.4142135623730659
 10
-131.28125
 20
-114.18454685437
  0
LWPOLYLINE
  5
FA
100
AcDbEntity
  8
0
  6
ByLayer
 62
  256
370
   -1
100
AcDbPolyline
 90
    8
 70
    1
 43
0
 10
-124.1375
 20
-64.0845468543698
 42
-0.414213562373095
 10
-123.1375
 20
-63.0845468543698
 10
-111.1375
 20
-63.0845468543698
 42
-0.414213562373095
 10
-110.1375
 20
-64.0845468543698
 10
-110.1375
 20
-76.0845468543698
 42
-0.414213562373095
 10
-111.1375
 20
-77.0845468543698
 10
-123.1375
 20
-77.0845468543698
 42
-0.414213562373095
 10
-124.1375
 20
-76.0845468543698
  0
LWPOLYLINE
  5
FB
100
AcDbEntity
  8
0
  6
ByLayer
 62
  256
370
   -1
100
AcDbPolyline
 90
    8
 70
    1
 43
0
 10
12.6875
 20
-82.1345468543698
 42
-0.4142135623730805
 10
13.68750000000001
 20
-83.1345468543698
 10
13.68749999999999
 20
-95.13454685436982
 42
-0.4142135623730914
 10
12.6875
 20
-96.13454685436979
 10
0.6875000000000138
 20
-96.13454685436979
 42
-0.4142135623730919
 10
-0.3124999999999819
 20
-95.13454685436982
 10
-0.3124999999999885
 20
-83.1345468543698
 42
-0.4142135623730963
 10
0.6875000000000143
 20
-82.1345468543698
  0
LWPOLYLINE
  5
FC
100
AcDbEntity
  8
0
  6
ByLayer
 62
  256
370
   -1
100
AcDbPolyline
 90
    8
 70
    1
 43
0
 10
-49.22499999999999
 20
-24.98454685436979
 42
-0.4142135623730898
 10
-48.22499999999999
 20
-25.9845468543698
 10
-48.22499999999999
 20
-37.9845468543698
 42
-0.414213562373095
 10
-49.225
 20
-38.98454685436982
 10
-61.22500000000001
 20
-38.9845468543698
 42
-0.4142135623730971
 10
-62.225
 20
-37.9845468543698
 10
-62.22500000000001
 20
-25.9845468543698
 42
-0.4142135623730961
 10
-61.22500000000001
 20
-24.9845468543698
  0
LWPOLYLINE
  5
FD
100
AcDbEntity
  8
0
  6
ByLayer
 62
  256
370
   -1
100
AcDbPolyline
 90
    8
 70
    1
 43
0
 10
-24.125
 20
-25.9845468543698
 42
-0.4142135623730929
 10
-23.125
 20
-24.9845468543698
 10
-11.125
 20
-24.98454685436981
 42
-0.4142135623730945
 10
-10.125
 20
-25.9845468543698
 10
-10.12500000000001
 20
-37.9845468543698
 42
-0.4142135623730935
 10
-11.125
 20
-38.9845468543698
 10
-23.125
 20
-38.9845468543698
 42
-0.4142135623730981
 10
-24.125
 20
-37.9845468543698
  0
LWPOLYLINE
  5
FE
100
AcDbEntity
  8
0
  6
ByLayer
 62
  256
370
   -1
100
AcDbPolyline
 90
    8
 70
    1
 43
0
 10
-119.375
 20
-25.9845468543698
 42
-0.414213562373094
 10
-118.375
 20
-24.9845468543698
 10
-106.375
 20
-24.9845468543698
 42
-0.414213562373095
 10
-105.375
 20
-25.9845468543698
 10
-105.375
 20
-37.9845468543698
 42
-0.4142135623730846
 10
-106.375
 20
-38.98454685436982
 10
-118.375
 20
-38.98454685436982
 42
-0.4142135623730805
 10
-119.375
 20
-37.9845468543698
  0
LWPOLYLINE
  5
FF
100
AcDbEntity
  8
0
  6
ByLayer
 62
  256
370
   -1
100
AcDbPolyline
 90
    8
 70
    1
 43
0
 10
13.975
 20
-25.9845468543698
 42
-0.4142135623730919
 10
14.975
 20
-24.9845468543698
 10
26.975
 20
-24.98454685436983
 42
-0.4142135623730961
 10
27.97499999999998
 20
-25.9845468543698
 10
27.97500000000002
 20
-37.9845468543698
 42
-0.4142135623730961
 10
26.975
 20
-38.98454685436982
 10
14.975
 20
-38.98454685436979
 42
-0.4142135623730976
 10
13.97500000000002
 20
-37.9845468543698
  0
LWPOLYLINE
  5
100
100
AcDbEntity
  8
0
  6
ByLayer
 62
  256
370
   -1
100
AcDbPolyline
 90
    8
 70
    1
 43
0
 10
-138.425
 20
-25.9845468543698
 42
-0.414213562373094
 10
-137.425
 20
-24.9845468543698
 10
-125.425
 20
-24.98454685436979
 42
-0.4142135623730825
 10
-124.425
 20
-25.9845468543698
 10
-124.425
 20
-37.9845468543698
 42
-0.4142135623730825
 10
-125.425
 20
-38.98454685436982
 10
-137.425
 20
-38.9845468543698
 42
-0.414213562373095
 10
-138.425
 20
-37.9845468543698
  0
LWPOLYLINE
  5
101
100
AcDbEntity
  8
0
  6
ByLayer
 62
  256
370
   -1
100
AcDbPolyline
 90
    8
 70
    1
 43
0
 10
-36.03125
 20
-102.18454685437
 42
-0.414213562373095
 10
-35.03125
 20
-101.18454685437
 10
-23.03125
 20
-101.18454685437
 42
-0.414213562373095
 10
-22.03125
 20
-102.18454685437
 10
-22.03125
 20
-114.18454685437
 42
-0.414213562373095
 10
-23.03125
 20
-115.18454685437
 10
-35.03125
 20
-115.18454685437
 42
-0.414213562373095
 10
-36.03125
 20
-114.18454685437
  0
LWPOLYLINE
  5
102
100
AcDbEntity
  8
0
  6
ByLayer
 62
  256
370
   -1
100
AcDbPolyline
 90
    8
 70
    1
 43
0
 10
-76.51250000000002
 20
-83.1345468543698
 42
-0.4142135623730992
 10
-75.5125
 20
-82.1345468543698
 10
-63.5125
 20
-82.13454685436979
 42
-0.4142135623730805
 10
-62.51249999999999
 20
-83.1345468543698
 10
-62.5125
 20
-95.1345468543698
 42
-0.4142135623730805
 10
-63.5125
 20
-96.13454685436983
 10
-75.5125
 20
-96.1345468543698
 42
-0.4142135623730909
 10
-76.51249999999999
 20
-95.13454685436982
  0
CIRCLE
  5
103
100
AcDbEntity
  8
0
  6
ByLayer
 62
  256
370
   -1
100
AcDbCircle
 10
49.56250000000001
 20
4.20295315308078
 40
1.1
  0
CIRCLE
  5
104
100
AcDbEntity
  8
0
  6
ByLayer
 62
  256
370
   -1
100
AcDbCircle
 10
102.400000163789
 20
-125.289854147629
 40
1.09999999999999
  0
CIRCLE
  5
105
100
AcDbEntity
  8
0
  6
ByLayer
 62
  256
370
   -1
100
AcDbCircle
 10
-162.824995083534
 20
-105.982691643323
 40
1.09999999999999
  0
CIRCLE
  5
106
100
AcDbEntity
  8
0
  6
ByLayer
 62
  256
370
   -1
100
AcDbCircle
 10
-120.705098153166
 20
4.20295315308066
 40
1.09999999999999
  0
CIRCLE
  5
107
100
AcDbEntity
  8
0
  6
ByLayer
 62
  256
370
   -1
100
AcDbCircle
 10
-108.075000163789
 20
-125.289854147629
 40
1.09999999999999
  0
CIRCLE
  5
108
100
AcDbEntity
  8
0
  6
ByLayer
 62
  256
370
   -1
100
AcDbCircle
 10
157.149995083534
 20
-105.982691643323
 40
1.09999999999999
  0
CIRCLE
  5
109
100
AcDbEntity
  8
0
  6
ByLayer
 62
  256
370
   -1
100
AcDbCircle
 10
115.030098153166
 20
4.20295315308078
 40
1.09999999999999
  0
CIRCLE
  5
10A
100
AcDbEntity
  8
0
  6
ByLayer
 62
  256
370
   -1
100
AcDbCircle
 10
36.46250000000001
 20
-125.289850495482
 40
1.1
  0
CIRCLE
  5
10B
100
AcDbEntity
  8
0
  6
ByLayer
 62
  256
370
   -1
100
AcDbCircle
 10
-162.824995083534
 20
-15.1042056990779
 40
1.09999999999999
  0
CIRCLE
  5
10C
100
AcDbEntity
  8
0
  6
ByLayer
 62
  256
370
   -1
100
AcDbCircle
 10
-55.2375
 20
4.20295315308075
 40
1.1
  0
CIRCLE
  5
10D
100
AcDbEntity
  8
0
  6
ByLayer
 62
  256
370
   -1
100
AcDbCircle
 10
-42.1375
 20
-125.289850495482
 40
1.09999999999999
  0
CIRCLE
  5
10E
100
AcDbEntity
  8
0
  6
ByLayer
 62
  256
370
   -1
100
AcDbCircle
 10
157.149995083533
 20
-15.1042056990778
 40
1.09999999999999
  0
LWPOLYLINE
  5
10F
100
AcDbEntity
  8
0
  6
ByLayer
 62
  256
370
   -1
100
AcDbPolyline
 90
    8
 70
    1
 43
0
 10
151.8
 20
-34.7220468543698
 10
151.8
 20
-19.7220468543698
 42
0.414213562373095
 10
150.8
 20
-18.7220468543698
 10
138.8
 20
-18.7220468543698
 42
0.414213562373095
 10
137.8
 20
-19.7220468543698
 10
137.8
 20
-34.7220468543698
 42
0.4142135623730992
 10
138.8
 20
-35.7220468543698
 10
150.8
 20
-35.7220468543698
 42
0.414213562373095
  0
LWPOLYLINE
  5
110
100
AcDbEntity
  8
0
  6
ByLayer
 62
  256
370
   -1
100
AcDbPolyline
 90
    8
 70
    1
 43
0
 10
109.463
 20
-2.15424320580748
 10
109.463
 20
-14.1542432058075
 42
0.4142135623730958
 10
111.463
 20
-16.1542432058075
 10
149.563
 20
-16.1542432058075
 42
0.414213562373095
 10
151.563
 20
-14.1542432058075
 10
151.563
 20
-2.15424320580747
 42
0.4142135623730955
 10
149.563
 20
-0.154243205807479
 10
111.463
 20
-0.1542432058074801
 42
0.4142135623730962
  0
LWPOLYLINE
  5
111
100
AcDbEntity
  8
0
  6
ByLayer
 62
  256
370
   -1
100
AcDbPolyline
 90
  104
 70
    1
 43
0
 10
-158
 20
-122.464850495482
 42
-0.414213562373095
 10
-160
 20
-120.464850495482
 10
-160
 20
-115.739536340188
 42
0.2679491924304641
 10
-160.499999999998
 20
-114.873510936405
 10
-163.899995083535
 20
-112.910522859673
 42
-0.267949192433039
 10
-164.524995083541
 20
-111.827991104937
 10
-164.5249950835257
 20
-100.137392181599
 42
-0.2679491925338084
 10
-163.899995083198
 20
-99.05486042677991
 10
-160.5000000003321
 20
-97.09187235217264
 42
0.2679491925338498
 10
-160
 20
-96.22584694819651
 10
-160
 20
-24.8610503942043
 42
0.2679491925338421
 10
-160.500000000332
 20
-23.9950249902282
 10
-163.8999950832008
 20
-22.03203691562777
 42
-0.2679491925338944
 10
-164.524995083534
 20
-20.9495051608018
 10
-164.5249950835411
 20
-9.258906237463503
 42
-0.2679491924329932
 10
-163.899995083535
 20
-8.176374482727642
 10
-160.4999999999981
 20
-6.213386405996072
 42
0.2679491924305398
 10
-160
 20
-5.34736100221272
 10
-160
 20
-0.6220468469192127
 42
-0.4142135623730954
 10
-158
 20
1.37795315308079
 10
-130.461945688546
 20
1.37795315308079
 42
0.2679491924310607
 10
-129.595920284762
 20
1.877953153080778
 10
-127.6329293695173
 20
5.277953153080796
 42
-0.2679491924312763
 10
-126.550397614786
 20
5.90295315308048
 10
-114.859798691545
 20
5.902953153080981
 42
-0.2679491924311738
 10
-113.777266936814
 20
5.277953153080592
 10
-111.8142760215696
 20
1.87795315308103
 42
0.2679491924311953
 10
-110.948250617785
 20
1.37795315308078
 10
-64.9943475353804
 20
1.37795315308078
 42
0.2679491924311153
 10
-64.12832213159601
 20
1.877953153080769
 10
-62.16533121635125
 20
5.277953153080793
 42
-0.267949192431105
 10
-61.08279946162081
 20
5.90295315308069
 10
-49.39220053837921
 20
5.902953153080732
 42
-0.267949192431116
 10
-48.3096687836487
 20
5.277953153080782
 10
-46.34667786840403
 20
1.87795315308076
 42
0.2679491924311186
 10
-45.4806524646196
 20
1.37795315308078
 10
39.8056524646195
 20
1.37795315308078
 42
0.2679491924311314
 10
40.671677868404
 20
1.877953153080778
 10
42.63466878364867
 20
5.27795315308083
 42
-0.2679491924311362
 10
43.7172005383793
 20
5.9029531530808
 10
55.4077994616208
 20
5.902953153080749
 42
-0.2679491924311199
 10
56.49033121635131
 20
5.277953153080779
 10
58.45332213159605
 20
1.877953153080795
 42
0.2679491924311034
 10
59.31934753538041
 20
1.37795315308077
 10
105.273250617785
 20
1.37795315308077
 42
0.2679491924312016
 10
106.13927602157
 20
1.877953153080776
 10
108.1022669368143
 20
5.277953153080462
 42
-0.2679491924311699
 10
109.184798691545
 20
5.90295315308067
 10
120.875397614786
 20
5.902953153080208
 42
-0.2679491924312841
 10
121.957929369517
 20
5.27795315308069
 10
123.9209202847617
 20
1.877953153080572
 42
0.2679491924310623
 10
124.786945688546
 20
1.37795315308077
 10
152.325
 20
1.377953153080774
 42
-0.414213562373095
 10
154.325
 20
-0.622046846919222
 10
154.325
 20
-5.34736100221262
 42
0.2679491924305427
 10
154.824999999998
 20
-6.213386405996167
 10
158.224995083535
 20
-8.176374482727612
 42
-0.2679491924329944
 10
158.849995083541
 20
-9.25890623746341
 10
158.8499950835333
 20
-20.9495051608018
 42
-0.2679491925339978
 10
158.224995083201
 20
-22.0320369156279
 10
154.8250000003321
 20
-23.99502499022814
 42
0.2679491925338643
 10
154.325
 20
-24.8610503942043
 10
154.325
 20
-96.22584694819651
 42
0.2679491925338489
 10
154.825000000332
 20
-97.0918723521726
 10
158.2249950832016
 20
-99.05486042677354
 42
-0.2679491925338132
 10
158.849995083533
 20
-100.137392181599
 10
158.8499950835415
 20
-111.827991104937
 42
-0.2679491924332252
 10
158.224995083535
 20
-112.910522859673
 10
154.8249999999979
 20
-114.8735109364048
 42
0.2679491924304722
 10
154.325
 20
-115.739536340188
 10
154.325
 20
-120.464850495482
 42
-0.414213562373095
 10
152.325
 20
-122.464850495482
 10
112.156849807738
 20
-122.464850495482
 42
0.2679491924311974
 10
111.290824403953
 20
-122.964850495482
 10
109.3278313801407
 20
-126.3648541476294
 42
-0.2679491924311431
 10
108.245299625411
 20
-126.989854147629
 10
96.55470070216872
 20
-126.989854147628
 42
-0.2679491924311923
 10
95.47216894743781
 20
-126.364854147628
 10
93.50917592362526
 20
-122.964850495482
 42
0.2679491924311306
 10
92.64315051984082
 20
-122.464850495482
 10
46.2193475353805
 20
-122.464850495482
 42
0.2679491924311191
 10
45.3533221315961
 20
-122.964850495482
 10
43.39033121635133
 20
-126.364850495482
 42
-0.2679491924311136
 10
42.3077994616208
 20
-126.989850495482
 10
30.6172002950249
 20
-126.9898504954812
 42
-0.2679489586343471
 10
29.5346692073099
 20
-126.364851229284
 10
27.57167786840396
 20
-122.964850495482
 42
0.2679491924311315
 10
26.7056524646195
 20
-122.464850495482
 10
-32.3806524646195
 20
-122.464850495482
 42
0.2679491924311331
 10
-33.246677868404
 20
-122.964850495482
 10
-35.2096692073093
 20
-126.3648512292844
 42
-0.2679489586343252
 10
-36.2922002950249
 20
-126.989850495482
 10
-47.9827994616208
 20
-126.9898504954824
 42
-0.2679494241287283
 10
-49.06533175679331
 20
-126.364849559409
 10
-51.02832213159596
 20
-122.964850495482
 42
0.267949192431123
 10
-51.8943475353804
 20
-122.464850495482
 10
-98.31815051984071
 20
-122.464850495482
 42
0.267949192431134
 10
-99.18417592362522
 20
-122.964850495482
 10
-101.1471689474372
 20
-126.3648541476285
 42
-0.2679491924314644
 10
-102.229700702169
 20
-126.989854147629
 10
-113.920299625411
 20
-126.9898541476282
 42
-0.2679491924311388
 10
-115.00283138014
 20
-126.364854147629
 10
-116.9658244039534
 20
-122.9648504954823
 42
0.2679491924312024
 10
-117.831849807738
 20
-122.464850495482
  0
ENDSEC
  0
SECTION
  2
OBJECTS
  0
DICTIONARY
  5
C
330
0
100
AcDbDictionary
281
    1
  3
ACAD_GROUP
350
D
  0
DICTIONARY
  5
D
330
C
100
AcDbDictionary
281
    1
  0
PLOTSETTINGS
  5
112
100
AcDbPlotSettings
  6
1x1
 40
0
 41
0
 42
0
 43
0
  0
ENDSEC
  0
EOF
