0
SECTION
2
HEADER
9
$INSUNITS
70
4
9
$ACADVER
1
AC1014
9
$HANDSEED
5
FFFF
0
ENDSEC
0
SECTION
2
TABLES
0
TABLE
2
VPORT
5
8
100
AcDbSymbolTable
0
ENDTAB
0
TABLE
2
LTYPE
5
5
100
AcDbSymbolTable
0
LTYPE
5
14
100
AcDbSymbolTableRecord
100
AcDbLinetypeTableRecord
2
BYBLOCK
70
0
0
LTYPE
5
15
100
AcDbSymbolTableRecord
100
AcDbLinetypeTableRecord
2
BYLAYER
70
0
0
ENDTAB
0
TABLE
2
LAYER
5
2
100
AcDbSymbolTable
70
2
0
LAYER
5
50
100
AcDbSymbolTableRecord
100
AcDbLayerTableRecord
2
0
70
0
6
CONTINUOUS
0
ENDTAB
0
TABLE
2
STYLE
5
3
100
AcDbSymbolTable
70
1
0
STYLE
5
11
100
AcDbSymbolTableRecord
100
AcDbTextStyleTableRecord
2
STANDARD
70
0
0
ENDTAB
0
TABLE
2
VIEW
5
6
100
AcDbSymbolTable
70
0
0
ENDTAB
0
TABLE
2
UCS
5
7
100
AcDbSymbolTable
70
0
0
ENDTAB
0
TABLE
2
APPID
5
9
100
AcDbSymbolTable
70
2
0
APPID
5
12
100
AcDbSymbolTableRecord
100
AcDbRegAppTableRecord
2
ACAD
70
0
0
ENDTAB
0
TABLE
2
DIMSTYLE
5
A
100
AcDbSymbolTable
70
1
0
ENDTAB
0
TABLE
2
BLOCK_RECORD
5
1
100
AcDbSymbolTable
70
1
0
BLOCK_RECORD
5
1F
100
AcDbSymbolTableRecord
100
AcDbBlockTableRecord
2
*MODEL_SPACE
0
BLOCK_RECORD
5
1B
100
AcDbSymbolTableRecord
100
AcDbBlockTableRecord
2
*PAPER_SPACE
0
ENDTAB
0
ENDSEC
0
SECTION
2
BLOCKS
0
BLOCK
5
20
100
AcDbEntity
100
AcDbBlockBegin
2
*MODEL_SPACE
0
ENDBLK
5
21
100
AcDbEntity
100
AcDbBlockEnd
0
BLOCK
5
1C
100
AcDbEntity
100
AcDbBlockBegin
2
*PAPER_SPACE
0
ENDBLK
5
1D
100
AcDbEntity
100
AcDbBlockEnd
0
ENDSEC
0
SECTION
2
ENTITIES
0
LWPOLYLINE
5
100
100
AcDbEntity
8
0
100
AcDbPolyline
90
32
70
1
43
0.0
10
-17.862500000000001
20
-109.68454685436997
10
-12.716601966249691
20
-109.68454685437003
42
-0.21342176528337753
10
-11.598567977499801
20
-110.18454685437001
42
0.44721359549995643
10
-7.1264320225002207
20
-110.18454685437001
42
-0.21342176528338194
10
-6.0083980337503151
20
-109.68454685437001
10
-0.86250000000001048
20
-109.68454685437001
42
0.99999999999999989
10
-0.86250000000000937
20
-106.68454685437
10
-6.0083980337503142
20
-106.68454685437001
42
-0.2134217652833931
10
-7.126432022500218
20
-106.18454685437001
42
0.44721359549995743
10
-11.598567977499794
20
-106.18454685437
42
-0.21342176528338588
10
-12.716601966249691
20
-106.68454685437
10
-17.862500000000004
20
-106.68454685437
42
0.38942964498446397
10
-19.357039511205361
20
-108.05667328616302
42
-0.073892637104474246
10
-19.42487816353696
20
-108.34270407055905
42
-0.67712001706882519
10
-52.925121836463035
20
-108.34270407055904
42
-0.073892637104269396
10
-52.992960488794537
20
-108.056673286164
42
0.3894296449846531
10
-54.487500000000004
20
-106.68454685437001
10
-59.633398033750296
20
-106.68454685437001
42
-0.21342176528340226
10
-60.751432022500211
20
-106.18454685437001
42
0.44721359549995687
10
-65.223567977499755
20
-106.18454685437004
42
-0.21342176528337742
10
-66.341601966249613
20
-106.68454685437
10
-71.487499999999997
20
-106.68454685437
42
0.99999999999999989
10
-71.487499999999997
20
-109.68454685437001
10
-66.341601966249613
20
-109.68454685437007
42
-0.21342176528336118
10
-65.223567977499812
20
-110.18454685437
42
0.44721359549996365
10
-60.751432022500197
20
-110.18454685437
42
-0.21342176528338461
10
-59.633398033750318
20
-109.68454685437001
10
-54.487500000000004
20
-109.68454685437001
42
0.041256734406939978
10
-54.24122004525087
20
-109.66419079258232
42
-0.3285185070597918
10
-53.18369928968729
20
-110.20122699208005
42
0.61635047358652739
10
-19.166300710312612
20
-110.20122699208001
42
-0.32851850705977931
10
-18.108779954749167
20
-109.66419079258239
42
0.041256734406942011
0
LWPOLYLINE
5
101
100
AcDbEntity
8
0
100
AcDbPolyline
90
4
70
1
43
0.0
10
60.766590125820983
20
-102.18632215733643
10
60.766590125820983
20
-114.18632215733645
42
0.99999999999999989
10
62.766590125820976
20
-114.18632215733645
10
62.766590125820976
20
-102.18632215733643
42
0.99999999999999989
0
LWPOLYLINE
5
102
100
AcDbEntity
8
0
100
AcDbPolyline
90
8
70
1
43
0.0
10
24.354090125820989
20
-113.18632215733643
10
24.354090125820992
20
-101.18632215733643
42
0.41421356237309503
10
23.354090125820992
20
-100.18632215733645
10
18.604090125820978
20
-100.18632215733645
42
0.41421356237309503
10
17.604090125820978
20
-101.18632215733643
10
17.604090125820978
20
-113.18632215733643
42
0.41421356237309503
10
18.604090125820978
20
-114.18632215733643
10
23.354090125820992
20
-114.18632215733643
42
0.41421356237309503
0
LWPOLYLINE
5
103
100
AcDbEntity
8
0
100
AcDbPolyline
90
8
70
1
43
0.0
10
-124.13340987417902
20
-102.18632215733643
10
-124.13340987417902
20
-114.18632215733645
42
0.41421356237309503
10
-123.13340987417902
20
-115.18632215733645
10
-111.13340987417901
20
-115.18632215733645
42
0.41421356237309503
10
-110.13340987417902
20
-114.18632215733645
10
-110.13340987417902
20
-102.18632215733643
42
0.41421356237309503
10
-111.13340987417901
20
-101.18632215733643
10
-123.13340987417902
20
-101.18632215733643
42
0.41421356237309503
0
LWPOLYLINE
5
104
100
AcDbEntity
8
0
100
AcDbPolyline
90
8
70
1
43
0.0
10
-139.70840987417901
20
-101.18632215733643
10
-151.70840987417901
20
-101.18632215733643
42
0.41421356237309503
10
-152.70840987417901
20
-102.18632215733643
10
-152.70840987417901
20
-114.18632215733645
42
0.41421356237309503
10
-151.70840987417901
20
-115.18632215733645
10
-139.70840987417901
20
-115.18632215733645
42
0.41421356237309503
10
-138.70840987417901
20
-114.18632215733645
10
-138.70840987417901
20
-102.18632215733643
42
0.41421356237309503
0
LWPOLYLINE
5
105
100
AcDbEntity
8
0
100
AcDbPolyline
90
4
70
1
43
0.0
10
-129.73340987417902
20
-102.18632215733643
10
-129.73340987417902
20
-114.18632215733645
42
0.99999999999999989
10
-127.73340987417902
20
-114.18632215733645
10
-127.73340987417902
20
-102.18632215733643
42
0.99999999999999989
0
LWPOLYLINE
5
106
100
AcDbEntity
8
0
100
AcDbPolyline
90
8
70
1
43
0.0
10
-43.170909874179003
20
-102.18632215733643
10
-43.170909874179003
20
-114.18632215733645
42
0.41421356237309503
10
-42.17090987417901
20
-115.18632215733645
10
-30.170909874179017
20
-115.18632215733645
42
0.41421356237309503
10
-29.170909874179017
20
-114.18632215733645
10
-29.170909874179017
20
-102.18632215733643
42
0.41421356237309503
10
-30.170909874179017
20
-101.18632215733643
10
-42.17090987417901
20
-101.18632215733643
42
0.41421356237309503
0
LWPOLYLINE
5
107
100
AcDbEntity
8
0
100
AcDbPolyline
90
4
70
1
43
0.0
10
55.391590125821004
20
-102.18632215733643
10
55.391590125821004
20
-114.18632215733645
42
0.99999999999999989
10
57.391590125820997
20
-114.18632215733645
10
57.391590125820997
20
-102.18632215733643
42
0.99999999999999989
0
LWPOLYLINE
5
108
100
AcDbEntity
8
0
100
AcDbPolyline
90
8
70
1
43
0.0
10
67.366590125821006
20
-115.18632215733645
42
-0.41421356237309503
10
66.366590125821006
20
-114.18632215733645
10
66.366590125821006
20
-102.18632215733643
42
-0.41421356237309503
10
67.366590125821006
20
-101.18632215733643
10
79.366590125820991
20
-101.18632215733643
42
-0.41421356237309503
10
80.366590125820991
20
-102.18632215733643
10
80.366590125820991
20
-114.18632215733645
42
-0.41421356237309503
10
79.366590125820991
20
-115.18632215733645
0
LWPOLYLINE
5
109
100
AcDbEntity
8
0
100
AcDbPolyline
90
4
70
1
43
0.0
10
32.191590125820994
20
-102.18632215733643
10
32.191590125820994
20
-114.18632215733645
42
0.99999999999999989
10
34.191590125820994
20
-114.18632215733645
10
34.191590125821001
20
-102.18632215733643
42
0.99999999999999989
0
LWPOLYLINE
5
110
100
AcDbEntity
8
0
100
AcDbPolyline
90
4
70
1
43
0.0
10
-106.533409874179
20
-102.18632215733643
10
-106.533409874179
20
-114.18632215733645
42
0.99999999999999989
10
-104.53340987417901
20
-114.18632215733645
10
-104.53340987417901
20
-102.18632215733643
42
0.99999999999999989
0
LWPOLYLINE
5
111
100
AcDbEntity
8
0
100
AcDbPolyline
90
4
70
1
43
0.0
10
-158.30840987417901
20
-102.18632215733643
10
-158.30840987417901
20
-114.18632215733645
42
0.99999999999999989
10
-156.30840987417901
20
-114.18632215733645
10
-156.30840987417901
20
-102.18632215733643
42
0.99999999999999989
0
LWPOLYLINE
5
112
100
AcDbEntity
8
0
100
AcDbPolyline
90
4
70
1
43
0.0
10
-135.10840987417902
20
-102.18632215733643
10
-135.10840987417902
20
-114.18632215733645
42
0.99999999999999989
10
-133.10840987417902
20
-114.18632215733645
10
-133.10840987417902
20
-102.18632215733643
42
0.99999999999999989
0
LWPOLYLINE
5
113
100
AcDbEntity
8
0
100
AcDbPolyline
90
8
70
1
43
0.0
10
-89.945909874179023
20
-113.18632215733643
10
-89.945909874179023
20
-101.18632215733643
42
0.41421356237309503
10
-90.945909874179023
20
-100.18632215733645
10
-95.695909874179037
20
-100.18632215733645
42
0.41421356237308982
10
-96.695909874179023
20
-101.18632215733643
10
-96.695909874179023
20
-113.18632215733643
42
0.41421356237308982
10
-95.695909874179037
20
-114.18632215733643
10
-90.945909874179023
20
-114.18632215733643
42
0.41421356237309503
0
LWPOLYLINE
5
114
100
AcDbEntity
8
0
100
AcDbPolyline
90
8
70
1
43
0.0
10
37.791590125820989
20
-102.18632215733643
10
37.791590125820981
20
-114.18632215733645
42
0.41421356237309503
10
38.791590125820989
20
-115.18632215733645
10
50.791590125820974
20
-115.18632215733645
42
0.41421356237309503
10
51.791590125820974
20
-114.18632215733645
10
51.791590125820974
20
-102.18632215733643
42
0.41421356237309503
10
50.791590125820974
20
-101.18632215733643
10
38.791590125820989
20
-101.18632215733643
42
0.41421356237309503
0
LWPOLYLINE
5
115
100
AcDbEntity
8
0
100
AcDbPolyline
90
4
70
1
43
0.0
10
83.966590125821028
20
-102.18632215733643
10
83.966590125821028
20
-114.18632215733645
42
0.99999999999999989
10
85.966590125821014
20
-114.18632215733645
10
85.966590125821014
20
-102.18632215733643
42
0.99999999999999989
0
LWPOLYLINE
5
116
100
AcDbEntity
8
0
100
AcDbPolyline
90
104
70
1
43
0.0
10
-158
20
-122.464850495482
42
-0.41421356237309503
10
-160
20
-120.46485049548201
10
-160
20
-115.739536340188
42
0.267949192430466
10
-160.49999999999801
20
-114.873510936405
10
-163.899995083535
20
-112.91052285967304
42
-0.26794919243304199
10
-164.524995083541
20
-111.82799110493701
10
-164.52499508352571
20
-100.137392181599
42
-0.26794919253380434
10
-163.89999508319801
20
-99.054860426779911
10
-160.50000000033205
20
-97.091872352172643
42
0.2679491925338533
10
-160
20
-96.225846948196505
10
-160
20
-24.861050394204302
42
0.26794919253384031
10
-160.50000000033202
20
-23.995024990228199
10
-163.89999508320085
20
-22.032036915627771
42
-0.2679491925338961
10
-164.52499508353401
20
-20.949505160801799
10
-164.52499508354109
20
-9.2589062374634992
42
-0.26794919243299298
10
-163.899995083535
20
-8.1763744827276401
10
-160.49999999999812
20
-6.2133864059960695
42
0.26794919243053816
10
-160
20
-5.34736100221272
10
-160
20
-0.62204684691921319
42
-0.41421356237309503
10
-158
20
1.37795315308079
10
-130.461945688546
20
1.37795315308079
42
0.2679491924310603
10
-129.59592028476203
20
1.8779531530807803
10
-127.6329293695173
20
5.2779531530807988
42
-0.26794919243127685
10
-126.55039761478599
20
5.90295315308048
10
-114.859798691545
20
5.90295315308098
42
-0.26794919243117332
10
-113.77726693681402
20
5.2779531530805901
10
-111.81427602156958
20
1.8779531530810269
42
0.26794919243119603
10
-110.94825061778501
20
1.37795315308078
10
-64.994347535380399
20
1.3779531530807798
42
0.26794919243111504
10
-64.128322131596008
20
1.8779531530807703
10
-62.165331216351248
20
5.2779531530807953
42
-0.26794919243110527
10
-61.082799461620809
20
5.9029531530806896
10
-49.392200538379207
20
5.9029531530807322
42
-0.26794919243111548
10
-48.309668783648704
20
5.2779531530807802
10
-46.346677868404029
20
1.8779531530807612
42
0.26794919243111892
10
-45.480652464619595
20
1.37795315308078
10
39.805652464619499
20
1.3779531530807798
42
0.26794919243113047
10
40.671677868403997
20
1.8779531530807803
10
42.634668783648671
20
5.2779531530808299
42
-0.26794919243113619
10
43.717200538379302
20
5.9029531530807997
10
55.407799461620797
20
5.9029531530807491
42
-0.26794919243112014
10
56.490331216351308
20
5.2779531530807802
10
58.453322131596053
20
1.877953153080794
42
0.26794919243110388
10
59.319347535380409
20
1.37795315308077
10
105.273250617785
20
1.3779531530807698
42
0.26794919243120058
10
106.13927602157
20
1.8779531530807803
10
108.1022669368143
20
5.2779531530804586
42
-0.26794919243116888
10
109.18479869154501
20
5.90295315308067
10
120.87539761478601
20
5.9029531530802082
42
-0.26794919243128018
10
121.95792936951702
20
5.2779531530806896
10
123.92092028476168
20
1.8779531530805706
42
0.26794919243106152
10
124.786945688546
20
1.37795315308077
10
152.32499999999999
20
1.3779531530807709
42
-0.41421356237309503
10
154.32499999999999
20
-0.62204684691922196
10
154.32499999999999
20
-5.3473610022126197
42
0.2679491924305446
10
154.824999999998
20
-6.2133864059961708
10
158.22499508353496
20
-8.1763744827276099
42
-0.26794919243299486
10
158.84999508354099
20
-9.2589062374634103
10
158.84999508353326
20
-20.949505160801799
42
-0.26794919253399807
10
158.22499508320101
20
-22.032036915627899
10
154.82500000033207
20
-23.995024990228146
42
0.26794919253386279
10
154.32499999999999
20
-24.861050394204298
10
154.32499999999999
20
-96.225846948196505
42
0.26794919253384858
10
154.82500000033201
20
-97.091872352172601
10
158.22499508320163
20
-99.054860426773544
42
-0.26794919253381194
10
158.849995083533
20
-100.137392181599
10
158.8499950835415
20
-111.82799110493701
42
-0.26794919243322429
10
158.22499508353499
20
-112.91052285967299
10
154.82499999999789
20
-114.87351093640477
42
0.26794919243047222
10
154.32499999999999
20
-115.739536340188
10
154.32499999999999
20
-120.46485049548201
42
-0.41421356237309503
10
152.32499999999999
20
-122.464850495482
10
112.15684980773801
20
-122.464850495482
42
0.26794919243120069
10
111.29082440395301
20
-122.96485049548201
10
109.32783138014072
20
-126.36485414762943
42
-0.26794919243114285
10
108.24529962541099
20
-126.98985414762902
10
96.554700702168716
20
-126.98985414762805
42
-0.26794919243119436
10
95.472168947437808
20
-126.36485414762801
10
93.509175923625264
20
-122.96485049548203
42
0.26794919243113108
10
92.643150519840816
20
-122.464850495482
10
46.2193475353805
20
-122.464850495482
42
0.26794919243111975
10
45.353322131596101
20
-122.96485049548201
10
43.390331216351335
20
-126.36485049548205
42
-0.26794919243111581
10
42.307799461620803
20
-126.989850495482
10
30.617200295024904
20
-126.98985049548119
42
-0.26794895863434731
10
29.534669207309904
20
-126.364851229284
10
27.57167786840396
20
-122.96485049548203
42
0.26794919243113163
10
26.705652464619504
20
-122.464850495482
10
-32.380652464619502
20
-122.464850495482
42
0.26794919243113346
10
-33.246677868403999
20
-122.96485049548201
10
-35.20966920730929
20
-126.36485122928441
42
-0.26794895863432638
10
-36.292200295024898
20
-126.989850495482
10
-47.9827994616208
20
-126.98985049548243
42
-0.2679494241287258
10
-49.065331756793299
20
-126.36484955940901
10
-51.028322131595971
20
-122.96485049548198
42
0.26794919243112042
10
-51.894347535380405
20
-122.464850495482
10
-98.318150519840714
20
-122.464850495482
42
0.26794919243113402
10
-99.184175923625219
20
-122.96485049548201
10
-101.14716894743717
20
-126.36485414762848
42
-0.2679491924314657
10
-102.22970070216901
20
-126.98985414762902
10
-113.92029962541102
20
-126.98985414762815
42
-0.26794919243113918
10
-115.00283138013999
20
-126.36485414762902
10
-116.96582440395341
20
-122.96485049548225
42
0.26794919243120363
10
-117.831849807738
20
-122.464850495482
0
LWPOLYLINE
5
117
100
AcDbEntity
8
0
100
AcDbPolyline
90
8
70
1
43
0.0
10
109.46300000000001
20
-2.1542432058074801
10
109.46300000000001
20
-14.154243205807502
42
0.41421356237309503
10
111.46299999999999
20
-16.1542432058075
10
149.56299999999999
20
-16.1542432058075
42
0.41421356237309503
10
151.56299999999999
20
-14.154243205807502
10
151.56299999999999
20
-2.1542432058074699
42
0.41421356237309359
10
149.56299999999999
20
-0.15424320580747899
10
111.46299999999999
20
-0.15424320580747997
42
0.41421356237309503
0
LWPOLYLINE
5
118
100
AcDbEntity
8
0
100
AcDbPolyline
90
8
70
1
43
0.0
10
151.80000000000001
20
-34.7220468543698
10
151.80000000000001
20
-19.7220468543698
42
0.41421356237309503
10
150.80000000000001
20
-18.7220468543698
10
138.80000000000001
20
-18.7220468543698
42
0.41421356237309503
10
137.80000000000001
20
-19.7220468543698
10
137.80000000000004
20
-34.7220468543698
42
0.41421356237309503
10
138.80000000000001
20
-35.7220468543698
10
150.80000000000001
20
-35.7220468543698
42
0.41421356237309503
0
LWPOLYLINE
5
119
100
AcDbEntity
8
0
100
AcDbPolyline
90
4
70
1
43
0.0
10
-135.11250000000001
20
-45.034546854369808
42
-0.99999999999999989
10
-133.11250000000004
20
-45.034546854369808
10
-133.11250000000001
20
-57.034546854369808
42
-0.99999999999999989
10
-135.11250000000004
20
-57.034546854369808
0
LWPOLYLINE
5
120
100
AcDbEntity
8
0
100
AcDbPolyline
90
8
70
1
43
0.0
10
-76.512500000000003
20
-83.134546854369802
42
-0.41421356237309503
10
-75.512500000000003
20
-82.134546854369802
10
-63.512500000000003
20
-82.134546854369788
42
-0.41421356237309503
10
-62.512499999999989
20
-83.134546854369802
10
-62.512499999999989
20
-95.134546854369816
42
-0.41421356237309503
10
-63.512500000000003
20
-96.13454685436983
10
-75.512500000000003
20
-96.134546854369802
42
-0.41421356237309503
10
-76.512500000000003
20
-95.134546854369816
0
LWPOLYLINE
5
121
100
AcDbEntity
8
0
100
AcDbPolyline
90
8
70
1
43
0.0
10
-138.42500000000001
20
-25.984546854369803
42
-0.41421356237309503
10
-137.42500000000001
20
-24.984546854369803
10
-125.42500000000001
20
-24.984546854369789
42
-0.41421356237309503
10
-124.42499999999998
20
-25.984546854369803
10
-124.42499999999998
20
-37.984546854369803
42
-0.41421356237309503
10
-125.42500000000001
20
-38.984546854369817
10
-137.42500000000001
20
-38.984546854369803
42
-0.41421356237309503
10
-138.42500000000001
20
-37.984546854369803
0
LWPOLYLINE
5
122
100
AcDbEntity
8
0
100
AcDbPolyline
90
8
70
1
43
0.0
10
13.975
20
-25.984546854369803
42
-0.41421356237309503
10
14.975000000000001
20
-24.984546854369803
10
26.975000000000001
20
-24.984546854369825
42
-0.41421356237309503
10
27.97499999999998
20
-25.984546854369803
10
27.975000000000012
20
-37.984546854369803
42
-0.41421356237309503
10
26.975000000000001
20
-38.984546854369817
10
14.975000000000001
20
-38.984546854369782
42
-0.41421356237309503
10
13.975000000000023
20
-37.984546854369803
0
LWPOLYLINE
5
123
100
AcDbEntity
8
0
100
AcDbPolyline
90
8
70
1
43
0.0
10
-119.375
20
-25.984546854369803
42
-0.41421356237309503
10
-118.375
20
-24.984546854369803
10
-106.37500000000001
20
-24.984546854369807
42
-0.41421356237309503
10
-105.37500000000001
20
-25.984546854369803
10
-105.375
20
-37.984546854369803
42
-0.41421356237309503
10
-106.37500000000001
20
-38.984546854369817
10
-118.375
20
-38.984546854369817
42
-0.41421356237309503
10
-119.37500000000001
20
-37.984546854369803
0
LWPOLYLINE
5
124
100
AcDbEntity
8
0
100
AcDbPolyline
90
8
70
1
43
0.0
10
-24.125
20
-25.984546854369803
42
-0.41421356237309503
10
-23.125
20
-24.984546854369803
10
-11.125
20
-24.984546854369807
42
-0.41421356237309503
10
-10.125000000000004
20
-25.984546854369803
10
-10.125000000000004
20
-37.984546854369803
42
-0.41421356237309503
10
-11.125
20
-38.984546854369803
10
-23.125
20
-38.984546854369803
42
-0.41421356237309503
10
-24.124999999999996
20
-37.984546854369803
0
LWPOLYLINE
5
125
100
AcDbEntity
8
0
100
AcDbPolyline
90
8
70
1
43
0.0
10
-49.225000000000001
20
-24.984546854369789
42
-0.41421356237309503
10
-48.224999999999987
20
-25.984546854369803
10
-48.224999999999994
20
-37.984546854369803
42
-0.41421356237309503
10
-49.225000000000001
20
-38.984546854369817
10
-61.225000000000009
20
-38.984546854369803
42
-0.41421356237309503
10
-62.225000000000001
20
-37.984546854369803
10
-62.225000000000001
20
-25.984546854369803
42
-0.41421356237309503
10
-61.225000000000009
20
-24.984546854369803
0
LWPOLYLINE
5
126
100
AcDbEntity
8
0
100
AcDbPolyline
90
8
70
1
43
0.0
10
12.6875
20
-82.134546854369788
42
-0.41421356237309503
10
13.687500000000011
20
-83.134546854369802
10
13.687499999999996
20
-95.134546854369816
42
-0.41421356237309503
10
12.6875
20
-96.134546854369802
10
0.68750000000001432
20
-96.134546854369802
42
-0.41421356237309509
10
-0.31249999999998196
20
-95.134546854369816
10
-0.31249999999998235
20
-83.134546854369802
42
-0.41421356237309503
10
0.68750000000001421
20
-82.134546854369802
0
LWPOLYLINE
5
127
100
AcDbEntity
8
0
100
AcDbPolyline
90
8
70
1
43
0.0
10
-124.1375
20
-64.084546854369805
42
-0.41421356237309503
10
-123.1375
20
-63.084546854369812
10
-111.13750000000002
20
-63.084546854369812
42
-0.41421356237309503
10
-110.13750000000002
20
-64.084546854369805
10
-110.13750000000002
20
-76.084546854369805
42
-0.41421356237309503
10
-111.13750000000002
20
-77.084546854369805
10
-123.1375
20
-77.084546854369805
42
-0.41421356237309503
10
-124.1375
20
-76.084546854369805
0
LWPOLYLINE
5
128
100
AcDbEntity
8
0
100
AcDbPolyline
90
8
70
1
43
0.0
10
-52.700000000000024
20
-45.034546854369808
42
-0.41421356237309503
10
-51.70000000000001
20
-44.034546854369793
10
-39.700000000000003
20
-44.034546854369808
42
-0.41421356237309503
10
-38.70000000000001
20
-45.034546854369808
10
-38.70000000000001
20
-57.034546854369808
42
-0.41421356237309503
10
-39.700000000000003
20
-58.034546854369808
10
-51.70000000000001
20
-58.034546854369808
42
-0.41421356237309503
10
-52.700000000000003
20
-57.034546854369808
0
LWPOLYLINE
5
129
100
AcDbEntity
8
0
100
AcDbPolyline
90
8
70
1
43
0.0
10
-33.649999999999999
20
-45.034546854369808
42
-0.41421356237309503
10
-32.649999999999999
20
-44.034546854369808
10
-20.649999999999999
20
-44.034546854369808
42
-0.41421356237309503
10
-19.650000000000002
20
-45.034546854369808
10
-19.650000000000002
20
-57.034546854369808
42
-0.41421356237309503
10
-20.649999999999999
20
-58.034546854369808
10
-32.649999999999999
20
-58.034546854369808
42
-0.41421356237309503
10
-33.649999999999999
20
-57.034546854369808
0
LWPOLYLINE
5
130
100
AcDbEntity
8
0
100
AcDbPolyline
90
8
70
1
43
0.0
10
-157.47499999999999
20
-25.984546854369803
10
-157.47499999999999
20
-37.984546854369803
42
0.41421356237309503
10
-156.47500000000002
20
-38.984546854369803
10
-144.47499999999999
20
-38.984546854369803
42
0.41421356237309503
10
-143.47499999999999
20
-37.984546854369803
10
-143.47499999999999
20
-25.984546854369803
42
0.41421356237309503
10
-144.47499999999999
20
-24.984546854369803
10
-156.47500000000002
20
-24.984546854369803
42
0.41421356237309503
0
LWPOLYLINE
5
131
100
AcDbEntity
8
0
100
AcDbPolyline
90
8
70
1
43
0.0
10
112.88175000000001
20
-65.084546854369805
42
-0.41421356237309503
10
113.88175000000001
20
-64.084546854369805
10
118.63175
20
-64.08454685436979
42
-0.41421356237309503
10
119.63175000000001
20
-65.084546854369805
10
119.63175000000001
20
-77.084546854369805
42
-0.41421356237309503
10
118.63175
20
-78.084546854369819
10
113.88175000000001
20
-78.084546854369819
42
-0.41421356237309503
10
112.88174999999998
20
-77.084546854369805
0
LWPOLYLINE
5
132
100
AcDbEntity
8
0
100
AcDbPolyline
90
4
70
1
43
0.0
10
98.862499999999983
20
-45.034546854369808
42
-0.99999999999999989
10
100.86250000000001
20
-45.034546854369808
10
100.86250000000001
20
-57.034546854369808
42
-0.99999999999999989
10
98.862499999999983
20
-57.034546854369808
0
LWPOLYLINE
5
133
100
AcDbEntity
8
0
100
AcDbPolyline
90
8
70
1
43
0.0
10
61.599999999999994
20
-45.034546854369808
42
-0.41421356237309503
10
62.600000000000009
20
-44.034546854369793
10
74.599999999999994
20
-44.034546854369793
42
-0.41421356237309503
10
75.600000000000009
20
-45.034546854369808
10
75.599999999999994
20
-57.034546854369808
42
-0.41421356237309503
10
74.599999999999994
20
-58.034546854369808
10
62.600000000000009
20
-58.034546854369822
42
-0.41421356237309503
10
61.599999999999994
20
-57.034546854369808
0
LWPOLYLINE
5
134
100
AcDbEntity
8
0
100
AcDbPolyline
90
4
70
1
43
0.0
10
77.431249999999991
20
-83.134546854369802
42
-0.99999999999999989
10
79.43125000000002
20
-83.134546854369802
10
79.43125000000002
20
-95.134546854369816
42
-0.99999999999999989
10
77.431249999999991
20
-95.134546854369816
0
LWPOLYLINE
5
135
100
AcDbEntity
8
0
100
AcDbPolyline
90
8
70
1
43
0.0
10
-157.47499999999999
20
-2.1720468543698104
42
-0.41421356237309503
10
-156.47500000000002
20
-1.1720468543698102
10
-144.47499999999999
20
-1.1720468543698137
42
-0.41421356237309503
10
-143.47499999999999
20
-2.1720468543698113
10
-143.47499999999999
20
-14.1720468543698
42
-0.41421356237309503
10
-144.47499999999999
20
-15.1720468543698
10
-156.47500000000002
20
-15.172046854369796
42
-0.41421356237309503
10
-157.47499999999999
20
-14.1720468543698
0
LWPOLYLINE
5
136
100
AcDbEntity
8
0
100
AcDbPolyline
90
8
70
1
43
0.0
10
146.03749999999999
20
-105.94704685437
42
-0.41421356237309503
10
147.03750000000002
20
-106.94704685437002
10
147.03749999999999
20
-118.94704685437
42
-0.41421356237309503
10
146.03749999999999
20
-119.94704685437
10
134.03749999999999
20
-119.94704685437002
42
-0.41421356237309503
10
133.03749999999999
20
-118.94704685437
10
133.03750000000002
20
-106.94704685437002
42
-0.41421356237309503
10
134.03749999999999
20
-105.94704685437002
0
LWPOLYLINE
5
137
100
AcDbEntity
8
0
100
AcDbPolyline
90
8
70
1
43
0.0
10
104.46250000000001
20
-45.034546854369808
42
-0.41421356237309503
10
105.46250000000001
20
-44.034546854369808
10
117.46250000000002
20
-44.034546854369793
42
-0.41421356237309503
10
118.46250000000003
20
-45.034546854369808
10
118.46250000000001
20
-57.034546854369808
42
-0.41421356237309503
10
117.46250000000002
20
-58.034546854369808
10
105.46250000000001
20
-58.034546854369822
42
-0.41421356237309503
10
104.46249999999999
20
-57.034546854369808
0
LWPOLYLINE
5
138
100
AcDbEntity
8
0
100
AcDbPolyline
90
8
70
1
43
0.0
10
-96.850000000000009
20
-44.034546854369829
42
-0.41421356237309503
10
-95.850000000000023
20
-45.034546854369808
10
-95.850000000000009
20
-57.034546854369808
42
-0.41421356237309503
10
-96.850000000000009
20
-58.034546854369808
10
-108.84999999999999
20
-58.034546854369808
42
-0.41421356237309503
10
-109.84999999999999
20
-57.034546854369808
10
-109.84999999999999
20
-45.034546854369808
42
-0.41421356237309503
10
-108.84999999999999
20
-44.034546854369808
0
LWPOLYLINE
5
139
100
AcDbEntity
8
0
100
AcDbPolyline
90
8
70
1
43
0.0
10
113.98750000000001
20
-87.897046854369805
42
-0.41421356237309503
10
114.98750000000001
20
-86.897046854369805
10
126.98750000000001
20
-86.897046854369819
42
-0.41421356237309503
10
127.98749999999998
20
-87.897046854369805
10
127.98750000000001
20
-99.897046854369819
42
-0.41421356237309503
10
126.98750000000001
20
-100.89704685436983
10
114.98750000000001
20
-100.89704685436983
42
-0.41421356237309503
10
113.9875
20
-99.897046854369819
0
LWPOLYLINE
5
140
100
AcDbEntity
8
0
100
AcDbPolyline
90
8
70
1
43
0.0
10
83.031250000000014
20
-83.134546854369802
42
-0.41421356237309503
10
84.031250000000014
20
-82.134546854369802
10
96.03125
20
-82.13454685436983
42
-0.41421356237309503
10
97.031249999999986
20
-83.134546854369802
10
97.031250000000014
20
-95.134546854369816
42
-0.41421356237309503
10
96.03125
20
-96.13454685436983
10
84.031250000000014
20
-96.13454685436983
42
-0.41421356237309503
10
83.03125
20
-95.134546854369816
0
LWPOLYLINE
5
141
100
AcDbEntity
8
0
100
AcDbPolyline
90
8
70
1
43
0.0
10
-58.75
20
-1.1720468543697959
42
-0.41421356237309503
10
-57.749999999999986
20
-2.1720468543698113
10
-57.75
20
-14.1720468543698
42
-0.41421356237309503
10
-58.75
20
-15.172046854369796
10
-70.75
20
-15.172046854369796
42
-0.41421356237309503
10
-71.75
20
-14.1720468543698
10
-71.75
20
-2.1720468543698113
42
-0.41421356237309537
10
-70.75
20
-1.1720468543698102
0
LWPOLYLINE
5
142
100
AcDbEntity
8
0
100
AcDbPolyline
90
8
70
1
43
0.0
10
9.2125000000000004
20
-2.1720468543698104
42
-0.41421356237309503
10
10.2125
20
-1.1720468543698102
10
22.212499999999999
20
-1.1720468543698104
42
-0.41421356237309798
10
23.212500000000009
20
-2.172046854369829
10
23.212499999999999
20
-14.1720468543698
42
-0.41421356237309503
10
22.212499999999999
20
-15.1720468543698
10
10.2125
20
-15.17204685436981
42
-0.41421356237309503
10
9.2124999999999897
20
-14.1720468543698
0
LWPOLYLINE
5
143
100
AcDbEntity
8
0
100
AcDbPolyline
90
8
70
1
43
0.0
10
18.737500000000004
20
-83.134546854369802
42
-0.41421356237309503
10
19.737500000000001
20
-82.134546854369802
10
31.737500000000001
20
-82.134546854369788
42
-0.41421356237309503
10
32.737500000000011
20
-83.134546854369802
10
32.737499999999997
20
-95.134546854369816
42
-0.41421356237309503
10
31.737500000000001
20
-96.134546854369802
10
19.737500000000001
20
-96.13454685436983
42
-0.41421356237309503
10
18.73749999999999
20
-95.134546854369816
0
LWPOLYLINE
5
144
100
AcDbEntity
8
0
100
AcDbPolyline
90
8
70
1
43
0.0
10
80.650000000000006
20
-45.034546854369808
42
-0.41421356237309503
10
81.650000000000006
20
-44.034546854369808
10
93.650000000000006
20
-44.034546854369793
42
-0.41421356237309503
10
94.65000000000002
20
-45.034546854369808
10
94.650000000000006
20
-57.034546854369808
42
-0.41421356237309503
10
93.650000000000006
20
-58.034546854369808
10
81.650000000000006
20
-58.034546854369822
42
-0.41421356237309503
10
80.649999999999991
20
-57.034546854369808
0
LWPOLYLINE
5
145
100
AcDbEntity
8
0
100
AcDbPolyline
90
8
70
1
43
0.0
10
71.125
20
-25.984546854369803
42
-0.41421356237309503
10
72.125
20
-24.984546854369803
10
84.125
20
-24.984546854369789
42
-0.41421356237309503
10
85.125000000000014
20
-25.984546854369803
10
85.125
20
-37.984546854369803
42
-0.41421356237309503
10
84.125
20
-38.984546854369803
10
72.125
20
-38.984546854369817
42
-0.41421356237309503
10
71.124999999999986
20
-37.984546854369803
0
LWPOLYLINE
5
146
100
AcDbEntity
8
0
100
AcDbPolyline
90
8
70
1
43
0.0
10
-128.90000000000001
20
-2.1720468543698104
42
-0.41421356237309503
10
-127.90000000000001
20
-1.1720468543698102
10
-115.90000000000002
20
-1.1720468543698137
42
-0.41421356237309503
10
-114.90000000000002
20
-2.1720468543698113
10
-114.90000000000002
20
-14.1720468543698
42
-0.41421356237309503
10
-115.90000000000002
20
-15.1720468543698
10
-127.90000000000001
20
-15.172046854369814
42
-0.41421356237309503
10
-128.90000000000003
20
-14.1720468543698
0
LWPOLYLINE
5
147
100
AcDbEntity
8
0
100
AcDbPolyline
90
8
70
1
43
0.0
10
137.80000000000001
20
-45.034546854369808
10
137.80000000000001
20
-57.034546854369808
42
0.41421356237309503
10
138.80000000000001
20
-58.034546854369808
10
150.80000000000001
20
-58.034546854369808
42
0.41421356237309503
10
151.80000000000001
20
-57.034546854369808
10
151.80000000000004
20
-45.034546854369808
42
0.41421356237309503
10
150.80000000000001
20
-44.0345468543698
10
138.80000000000001
20
-44.034546854369793
42
0.41421356237309503
0
LWPOLYLINE
5
148
100
AcDbEntity
8
0
100
AcDbPolyline
90
8
70
1
43
0.0
10
22.212499999999999
20
-63.08454685436979
42
-0.41421356237309503
10
23.212500000000009
20
-64.084546854369805
10
23.212499999999995
20
-76.084546854369805
42
-0.41421356237309503
10
22.212499999999999
20
-77.084546854369805
10
10.2125
20
-77.084546854369819
42
-0.41421356237309503
10
9.2124999999999897
20
-76.084546854369805
10
9.2125000000000039
20
-64.084546854369805
42
-0.41421356237309503
10
10.2125
20
-63.084546854369812
0
LWPOLYLINE
5
149
100
AcDbEntity
8
0
100
AcDbPolyline
90
8
70
1
43
0.0
10
-95.5625
20
-83.134546854369802
10
-95.5625
20
-95.134546854369816
42
0.41421356237309503
10
-94.5625
20
-96.134546854369802
10
-82.5625
20
-96.13454685436983
42
0.41421356237309503
10
-81.5625
20
-95.134546854369816
10
-81.5625
20
-83.134546854369802
42
0.41421356237309503
10
-82.5625
20
-82.134546854369802
10
-94.5625
20
-82.134546854369802
42
0.41421356237309503
0
LWPOLYLINE
5
150
100
AcDbEntity
8
0
100
AcDbPolyline
90
4
70
1
43
0.0
10
122.06249999999999
20
-45.034546854369808
42
-0.99999999999999989
10
124.06250000000001
20
-45.034546854369808
10
124.06250000000001
20
-57.034546854369808
42
-0.99999999999999989
10
122.06249999999999
20
-57.034546854369808
0
LWPOLYLINE
5
151
100
AcDbEntity
8
0
100
AcDbPolyline
90
8
70
1
43
0.0
10
-47.9375
20
-2.1720468543698104
42
-0.41421356237309503
10
-46.937500000000007
20
-1.1720468543698102
10
-34.9375
20
-1.1720468543698137
42
-0.41421356237309503
10
-33.937500000000007
20
-2.1720468543698113
10
-33.937500000000007
20
-14.1720468543698
42
-0.41421356237309503
10
-34.9375
20
-15.172046854369796
10
-46.937500000000007
20
-15.172046854369796
42
-0.41421356237309503
10
-47.9375
20
-14.1720468543698
0
LWPOLYLINE
5
152
100
AcDbEntity
8
0
100
AcDbPolyline
90
8
70
1
43
0.0
10
-5.0749999999999922
20
-25.984546854369803
42
-0.41421356237309503
10
-4.0749999999999904
20
-24.984546854369803
10
7.9249999999999998
20
-24.984546854369793
42
-0.41421356237309503
10
8.9250000000000096
20
-25.984546854369803
10
8.9249999999999972
20
-37.984546854369803
42
-0.41421356237309503
10
7.9249999999999998
20
-38.984546854369803
10
-4.0749999999999904
20
-38.984546854369803
42
-0.41421356237309503
10
-5.0749999999999869
20
-37.984546854369803
0
LWPOLYLINE
5
153
100
AcDbEntity
8
0
100
AcDbPolyline
90
8
70
1
43
0.0
10
89.00575000000002
20
-65.084546854369805
10
89.00575000000002
20
-77.084546854369805
42
0.41421356237309503
10
90.005750000000006
20
-78.084546854369819
10
94.755750000000006
20
-78.084546854369819
42
0.41421356237309503
10
95.755750000000006
20
-77.084546854369805
10
95.75575000000002
20
-65.084546854369805
42
0.41421356237309503
10
94.755750000000006
20
-64.084546854369805
10
90.005750000000006
20
-64.084546854369805
42
0.41421356237309503
0
LWPOLYLINE
5
154
100
AcDbEntity
8
0
100
AcDbPolyline
90
8
70
1
43
0.0
10
-96.850000000000009
20
-1.1720468543698137
42
-0.41421356237309503
10
-95.850000000000009
20
-2.1720468543698113
10
-95.850000000000009
20
-14.1720468543698
42
-0.41421356237309503
10
-96.850000000000009
20
-15.1720468543698
10
-108.84999999999999
20
-15.172046854369796
42
-0.41421356237309503
10
-109.84999999999999
20
-14.1720468543698
10
-109.84999999999999
20
-2.1720468543698113
42
-0.41421356237309537
10
-108.84999999999999
20
-1.1720468543698102
0
LWPOLYLINE
5
155
100
AcDbEntity
8
0
100
AcDbPolyline
90
16
70
1
43
0.0
10
90.174999999999997
20
-25.984546854369803
10
90.174999999999997
20
-37.984546854369803
42
0.41421356237309503
10
91.174999999999997
20
-38.984546854369803
10
91.386999999999986
20
-38.984546854369803
42
0.41421356237309503
10
92.387
20
-39.98454685436981
10
97.137000000000015
20
-39.984546854369803
42
0.41421356237309503
10
98.137
20
-38.984546854369803
10
115.26299999999999
20
-38.984546854369803
42
0.41421356237309503
10
116.26300000000001
20
-39.98454685436981
10
121.01300000000002
20
-39.984546854369803
42
0.41421356237309503
10
122.01300000000002
20
-38.984546854369803
10
122.22499999999999
20
-38.984546854369817
42
0.41421356237309503
10
123.22499999999999
20
-37.984546854369803
10
123.22500000000002
20
-25.984546854369803
42
0.41421356237309503
10
122.22499999999999
20
-24.984546854369803
10
91.174999999999997
20
-24.984546854369803
42
0.41421356237309503
0
LWPOLYLINE
5
156
100
AcDbEntity
8
0
100
AcDbPolyline
90
8
70
1
43
0.0
10
-14.600000000000016
20
-45.034546854369808
42
-0.41421356237309503
10
-13.600000000000001
20
-44.034546854369793
10
-1.5999999999999814
20
-44.034546854369808
42
-0.41421356237309537
10
-0.59999999999998432
20
-45.034546854369808
10
-0.59999999999998388
20
-57.034546854369808
42
-0.41421356237309503
10
-1.5999999999999792
20
-58.034546854369808
10
-13.599999999999998
20
-58.034546854369808
42
-0.4142135623730957
10
-14.599999999999998
20
-57.034546854369808
0
LWPOLYLINE
5
157
100
AcDbEntity
8
0
100
AcDbPolyline
90
8
70
1
43
0.0
10
79.362499999999997
20
-63.084546854369805
42
-0.41421356237309503
10
80.362500000000011
20
-64.084546854369805
10
80.362499999999983
20
-76.084546854369805
42
-0.41421356237309503
10
79.362499999999997
20
-77.084546854369805
10
67.362499999999997
20
-77.08454685436979
42
-0.41421356237309503
10
66.362500000000026
20
-76.084546854369805
10
66.362500000000011
20
-64.084546854369805
42
-0.41421356237309503
10
67.362499999999997
20
-63.084546854369812
0
LWPOLYLINE
5
158
100
AcDbEntity
8
0
100
AcDbPolyline
90
8
70
1
43
0.0
10
-90.799999999999997
20
-2.1720468543698104
42
-0.41421356237309503
10
-89.800000000000011
20
-1.1720468543698102
10
-77.799999999999997
20
-1.1720468543698137
42
-0.41421356237309503
10
-76.800000000000011
20
-2.1720468543698113
10
-76.800000000000011
20
-14.1720468543698
42
-0.41421356237309503
10
-77.799999999999997
20
-15.172046854369796
10
-89.800000000000011
20
-15.172046854369778
42
-0.41421356237309503
10
-90.799999999999983
20
-14.1720468543698
0
LWPOLYLINE
5
159
100
AcDbEntity
8
0
100
AcDbPolyline
90
8
70
1
43
0.0
10
37.787500000000009
20
-83.134546854369802
10
37.787500000000009
20
-95.134546854369816
42
0.41421356237309503
10
38.787500000000001
20
-96.134546854369802
10
50.787500000000001
20
-96.13454685436983
42
0.41421356237309503
10
51.787500000000009
20
-95.134546854369816
10
51.787500000000016
20
-83.134546854369802
42
0.41421356237309503
10
50.787500000000001
20
-82.134546854369802
10
38.787500000000001
20
-82.134546854369802
42
0.41421356237309503
0
LWPOLYLINE
5
160
100
AcDbEntity
8
0
100
AcDbPolyline
90
8
70
1
43
0.0
10
84.125
20
-1.1720468543697959
42
-0.41421356237309503
10
85.125000000000014
20
-2.1720468543698113
10
85.125
20
-14.1720468543698
42
-0.41421356237309503
10
84.125
20
-15.172046854369796
10
72.125
20
-15.172046854369814
42
-0.41421356237309503
10
71.124999999999986
20
-14.1720468543698
10
71.125
20
-2.1720468543698113
42
-0.41421356237309537
10
72.125
20
-1.1720468543698102
0
LWPOLYLINE
5
161
100
AcDbEntity
8
0
100
AcDbPolyline
90
8
70
1
43
0.0
10
28.262500000000003
20
-64.084546854369805
42
-0.41421356237309503
10
29.262499999999999
20
-63.084546854369812
10
41.262500000000003
20
-63.08454685436979
42
-0.41421356237309503
10
42.262500000000017
20
-64.084546854369805
10
42.262500000000003
20
-76.084546854369805
42
-0.41421356237309503
10
41.262500000000003
20
-77.084546854369805
10
29.262499999999999
20
-77.084546854369819
42
-0.41421356237309503
10
28.262499999999989
20
-76.084546854369805
0
LWPOLYLINE
5
162
100
AcDbEntity
8
0
100
AcDbPolyline
90
4
70
1
43
0.0
10
-158.3125
20
-45.034546854369808
42
-0.99999999999999989
10
-156.3125
20
-45.034546854369808
10
-156.3125
20
-57.034546854369808
42
-0.99999999999999989
10
-158.31250000000003
20
-57.034546854369808
0
LWPOLYLINE
5
163
100
AcDbEntity
8
0
100
AcDbPolyline
90
8
70
1
43
0.0
10
56.837500000000006
20
-83.134546854369802
42
-0.41421356237309503
10
57.837500000000006
20
-82.134546854369802
10
69.837500000000006
20
-82.134546854369788
42
-0.41421356237309503
10
70.83750000000002
20
-83.134546854369802
10
70.83750000000002
20
-95.134546854369816
42
-0.41421356237309503
10
69.837500000000006
20
-96.13454685436983
10
57.837500000000006
20
-96.134546854369788
42
-0.41421356237309503
10
56.837500000000027
20
-95.134546854369816
0
LWPOLYLINE
5
164
100
AcDbEntity
8
0
100
AcDbPolyline
90
10
70
1
43
0.0
10
-137.33125000000001
20
-63.084546854369805
10
-154.09375
20
-63.084546854369805
42
0.10843916951738018
10
-154.51249999999999
20
-63.176445297549215
42
0.54723277249106994
10
-155.93125000000001
20
-64.084546854369805
10
-155.93125000000001
20
-76.084546854369805
42
0.54723277249106994
10
-154.51249999999999
20
-76.992648411190402
42
0.10843916951738025
10
-154.09375
20
-77.084546854369805
10
-137.33125000000001
20
-77.084546854369805
42
0.41421356237309503
10
-136.33125000000001
20
-76.084546854369805
10
-136.33125000000001
20
-64.084546854369805
42
0.41421356237309503
0
LWPOLYLINE
5
165
100
AcDbEntity
8
0
100
AcDbPolyline
90
8
70
1
43
0.0
10
33.025000000000006
20
-2.1720468543698113
10
33.025000000000006
20
-14.1720468543698
42
0.41421356237309503
10
34.024999999999999
20
-15.1720468543698
10
46.024999999999999
20
-15.172046854369796
42
0.41421356237309503
10
47.024999999999999
20
-14.1720468543698
10
47.025000000000013
20
-2.1720468543698104
42
0.41421356237309503
10
46.024999999999999
20
-1.1720468543698099
10
34.024999999999999
20
-1.1720468543698102
42
0.41421356237309537
0
LWPOLYLINE
5
166
100
AcDbEntity
8
0
100
AcDbPolyline
90
8
70
1
43
0.0
10
47.3125
20
-64.084546854369805
10
47.3125
20
-76.084546854369805
42
0.41421356237309503
10
48.312500000000007
20
-77.084546854369805
10
60.3125
20
-77.084546854369805
42
0.41421356237309503
10
61.312500000000007
20
-76.084546854369805
10
61.312500000000014
20
-64.084546854369805
42
0.41421356237309503
10
60.3125
20
-63.084546854369805
10
48.312500000000007
20
-63.084546854369812
42
0.41421356237309503
0
LWPOLYLINE
5
167
100
AcDbEntity
8
0
100
AcDbPolyline
90
8
70
1
43
0.0
10
90.174999999999997
20
-2.1720468543698104
42
-0.41421356237309503
10
91.174999999999997
20
-1.1720468543698102
10
103.17500000000001
20
-1.1720468543697959
42
-0.41421356237309503
10
104.17500000000003
20
-2.1720468543698113
10
104.17500000000001
20
-14.1720468543698
42
-0.41421356237309503
10
103.17500000000001
20
-15.1720468543698
10
91.174999999999997
20
-15.172046854369814
42
-0.41421356237309503
10
90.174999999999983
20
-14.1720468543698
0
LWPOLYLINE
5
168
100
AcDbEntity
8
0
100
AcDbPolyline
90
8
70
1
43
0.0
10
-153.88175000000001
20
-84.134546854369802
42
-0.41421356237309503
10
-152.88175000000001
20
-83.134546854369802
10
-148.13175000000001
20
-83.134546854369802
42
-0.41421356237309503
10
-147.13175000000001
20
-84.134546854369802
10
-147.13175000000001
20
-96.134546854369802
42
-0.41421356237309503
10
-148.13175000000001
20
-97.134546854369802
10
-152.88175000000001
20
-97.134546854369802
42
-0.41421356237309503
10
-153.88175000000001
20
-96.134546854369802
0
LWPOLYLINE
5
169
100
AcDbEntity
8
0
100
AcDbPolyline
90
8
70
1
43
0.0
10
36.5
20
-44.0345468543698
42
-0.41421356237309503
10
37.500000000000014
20
-45.034546854369808
10
37.5
20
-57.034546854369808
42
-0.41421356237309503
10
36.5
20
-58.034546854369808
10
24.5
20
-58.034546854369786
42
-0.41421356237309503
10
23.500000000000021
20
-57.034546854369808
10
23.499999999999986
20
-45.034546854369808
42
-0.41421356237309503
10
24.5
20
-44.034546854369793
0
LWPOLYLINE
5
170
100
AcDbEntity
8
0
100
AcDbPolyline
90
8
70
1
43
0.0
10
-152.71250000000001
20
-45.034546854369808
42
-0.41421356237309503
10
-151.71250000000001
20
-44.034546854369808
10
-139.71250000000001
20
-44.034546854369808
42
-0.41421356237309503
10
-138.71250000000001
20
-45.034546854369808
10
-138.71250000000001
20
-57.034546854369808
42
-0.41421356237309503
10
-139.71250000000001
20
-58.034546854369808
10
-151.71250000000001
20
-58.034546854369808
42
-0.41421356237309503
10
-152.71250000000001
20
-57.034546854369808
0
LWPOLYLINE
5
171
100
AcDbEntity
8
0
100
AcDbPolyline
90
8
70
1
43
0.0
10
4.4500000000000064
20
-45.034546854369808
42
-0.41421356237309503
10
5.4500000000000215
20
-44.034546854369793
10
17.450000000000003
20
-44.034546854369829
42
-0.41421356237309503
10
18.449999999999982
20
-45.034546854369808
10
18.449999999999996
20
-57.034546854369808
42
-0.41421356237309503
10
17.450000000000003
20
-58.034546854369808
10
5.4499999999999815
20
-58.034546854369822
42
-0.41421356237309537
10
4.4499999999999709
20
-57.034546854369808
0
LWPOLYLINE
5
172
100
AcDbEntity
8
0
100
AcDbPolyline
90
8
70
1
43
0.0
10
42.549999999999997
20
-45.034546854369808
42
-0.41421356237309503
10
43.549999999999997
20
-44.034546854369808
10
55.549999999999997
20
-44.034546854369829
42
-0.41421356237309503
10
56.549999999999976
20
-45.034546854369808
10
56.549999999999997
20
-57.034546854369808
42
-0.41421356237309503
10
55.549999999999997
20
-58.034546854369808
10
43.549999999999997
20
-58.034546854369822
42
-0.41421356237309503
10
42.549999999999983
20
-57.034546854369808
0
LWPOLYLINE
5
173
100
AcDbEntity
8
0
100
AcDbPolyline
90
8
70
1
43
0.0
10
-90.799999999999997
20
-45.034546854369808
42
-0.41421356237309503
10
-89.800000000000011
20
-44.034546854369808
10
-77.799999999999997
20
-44.034546854369808
42
-0.41421356237309503
10
-76.800000000000011
20
-45.034546854369808
10
-76.800000000000011
20
-57.034546854369808
42
-0.41421356237309503
10
-77.799999999999997
20
-58.034546854369808
10
-89.800000000000011
20
-58.034546854369786
42
-0.41421356237309503
10
-90.799999999999983
20
-57.034546854369808
0
LWPOLYLINE
5
174
100
AcDbEntity
8
0
100
AcDbPolyline
90
8
70
1
43
0.0
10
-28.887500000000003
20
-2.1720468543698104
42
-0.41421356237309503
10
-27.887500000000003
20
-1.1720468543698102
10
-15.887500000000001
20
-1.1720468543698137
42
-0.41421356237309503
10
-14.887500000000005
20
-2.1720468543698113
10
-14.887500000000005
20
-14.1720468543698
42
-0.41421356237309503
10
-15.887500000000001
20
-15.172046854369796
10
-27.887500000000003
20
-15.172046854369796
42
-0.41421356237309503
10
-28.887499999999999
20
-14.1720468543698
0
LWPOLYLINE
5
175
100
AcDbEntity
8
0
100
AcDbPolyline
90
8
70
1
43
0.0
10
-86.037499999999994
20
-64.084546854369805
10
-86.037499999999994
20
-76.084546854369805
42
0.41421356237309503
10
-85.037499999999994
20
-77.084546854369805
10
-73.037499999999994
20
-77.084546854369805
42
0.41421356237309503
10
-72.037499999999994
20
-76.084546854369805
10
-72.037500000000009
20
-64.084546854369805
42
0.41421356237309503
10
-73.037499999999994
20
-63.084546854369805
10
-85.037499999999994
20
-63.084546854369812
42
0.41421356237309503
0
LWPOLYLINE
5
176
100
AcDbEntity
8
0
100
AcDbPolyline
90
8
70
1
43
0.0
10
-9.8374999999999897
20
-2.1720468543698104
42
-0.41421356237309503
10
-8.8374999999999897
20
-1.1720468543698102
10
3.1625000000000005
20
-1.1720468543698004
42
-0.41421356237309503
10
4.1625000000000103
20
-2.1720468543698113
10
4.162499999999997
20
-14.1720468543698
42
-0.41421356237309503
10
3.1625000000000005
20
-15.172046854369796
10
-8.8374999999999897
20
-15.17204685436981
42
-0.41421356237309503
10
-9.8375000000000004
20
-14.1720468543698
0
LWPOLYLINE
5
177
100
AcDbEntity
8
0
100
AcDbPolyline
90
8
70
1
43
0.0
10
-145.56874999999999
20
-83.134546854369802
42
-0.41421356237309503
10
-144.56874999999999
20
-82.134546854369802
10
-132.56875000000002
20
-82.134546854369788
42
-0.41421356237309503
10
-131.56874999999999
20
-83.134546854369802
10
-131.56874999999999
20
-95.134546854369816
42
-0.41421356237309503
10
-132.56875000000002
20
-96.13454685436983
10
-144.56874999999999
20
-96.134546854369802
42
-0.41421356237309503
10
-145.56874999999999
20
-95.134546854369816
0
LWPOLYLINE
5
178
100
AcDbEntity
8
0
100
AcDbPolyline
90
8
70
1
43
0.0
10
-30.175000000000001
20
-24.984546854369807
42
-0.41421356237309503
10
-29.175000000000004
20
-25.984546854369803
10
-29.17499999999999
20
-37.984546854369803
42
-0.41421356237309503
10
-30.175000000000001
20
-38.984546854369817
10
-42.175000000000004
20
-38.984546854369803
42
-0.41421356237309503
10
-43.174999999999997
20
-37.984546854369803
10
-43.175000000000011
20
-25.984546854369803
42
-0.41421356237309503
10
-42.175000000000004
20
-24.984546854369803
0
LWPOLYLINE
5
179
100
AcDbEntity
8
0
100
AcDbPolyline
90
8
70
1
43
0.0
10
33.024999999999999
20
-25.984546854369803
42
-0.41421356237309503
10
34.024999999999999
20
-24.984546854369803
10
46.024999999999999
20
-24.984546854369825
42
-0.41421356237309503
10
47.024999999999977
20
-25.984546854369803
10
47.024999999999999
20
-37.984546854369803
42
-0.41421356237309503
10
46.024999999999999
20
-38.984546854369803
10
34.024999999999999
20
-38.984546854369817
42
-0.41421356237309503
10
33.024999999999991
20
-37.984546854369803
0
LWPOLYLINE
5
180
100
AcDbEntity
8
0
100
AcDbPolyline
90
4
70
1
43
0.0
10
-132.73124999999999
20
-64.084546854369805
42
-0.99999999999999989
10
-130.73124999999999
20
-64.084546854369805
10
-130.73124999999999
20
-76.084546854369805
42
-0.99999999999999989
10
-132.73124999999999
20
-76.084546854369805
0
LWPOLYLINE
5
181
100
AcDbEntity
8
0
100
AcDbPolyline
90
8
70
1
43
0.0
10
-38.412500000000001
20
-83.134546854369802
42
-0.41421356237309503
10
-37.412500000000001
20
-82.134546854369802
10
-25.412500000000001
20
-82.134546854369802
42
-0.41421356237309503
10
-24.412500000000005
20
-83.134546854369802
10
-24.412500000000005
20
-95.134546854369816
42
-0.41421356237309503
10
-25.412500000000001
20
-96.134546854369802
10
-37.412500000000001
20
-96.134546854369802
42
-0.41421356237309503
10
-38.412500000000001
20
-95.134546854369816
0
LWPOLYLINE
5
182
100
AcDbEntity
8
0
100
AcDbPolyline
90
8
70
1
43
0.0
10
137.80000000000004
20
-64.084546854369805
42
-0.41421356237309503
10
138.80000000000001
20
-63.084546854369812
10
150.80000000000001
20
-63.08454685436979
42
-0.41421356237309503
10
151.80000000000004
20
-64.084546854369805
10
151.80000000000001
20
-76.084546854369805
42
-0.41421356237309503
10
150.80000000000001
20
-77.084546854369805
10
138.80000000000001
20
-77.084546854369819
42
-0.41421356237309503
10
137.80000000000001
20
-76.084546854369805
0
LWPOLYLINE
5
183
100
AcDbEntity
8
0
100
AcDbPolyline
90
8
70
1
43
0.0
10
-105.08750000000001
20
-64.084546854369805
42
-0.41421356237309503
10
-104.08750000000001
20
-63.084546854369812
10
-92.087500000000006
20
-63.084546854369812
42
-0.41421356237309503
10
-91.087500000000006
20
-64.084546854369805
10
-91.087500000000006
20
-76.084546854369805
42
-0.41421356237309503
10
-92.087500000000006
20
-77.084546854369805
10
-104.08750000000001
20
-77.084546854369805
42
-0.41421356237309503
10
-105.08750000000001
20
-76.084546854369805
0
LWPOLYLINE
5
184
100
AcDbEntity
8
0
100
AcDbPolyline
90
8
70
1
43
0.0
10
-47.9375
20
-64.084546854369805
42
-0.41421356237309503
10
-46.937500000000007
20
-63.084546854369812
10
-34.9375
20
-63.084546854369812
42
-0.41421356237309503
10
-33.937500000000007
20
-64.084546854369805
10
-33.937500000000007
20
-76.084546854369805
42
-0.41421356237309503
10
-34.9375
20
-77.084546854369805
10
-46.937500000000007
20
-77.084546854369805
42
-0.41421356237309503
10
-47.9375
20
-76.084546854369805
0
LWPOLYLINE
5
185
100
AcDbEntity
8
0
100
AcDbPolyline
90
8
70
1
43
0.0
10
113.98750000000001
20
-106.94704685437002
42
-0.41421356237309503
10
114.98750000000001
20
-105.94704685437002
10
126.98750000000001
20
-105.94704685437003
42
-0.41421356237309503
10
127.98749999999998
20
-106.94704685437002
10
127.9875
20
-118.94704685437
42
-0.41421356237309503
10
126.98750000000001
20
-119.94704685437
10
114.98750000000001
20
-119.94704685436999
42
-0.41421356237309503
10
113.98750000000004
20
-118.94704685437
0
LWPOLYLINE
5
186
100
AcDbEntity
8
0
100
AcDbPolyline
90
8
70
1
43
0.0
10
150.80000000000001
20
-82.134546854369788
42
-0.41421356237309503
10
151.80000000000004
20
-83.134546854369802
10
151.80000000000004
20
-95.134546854369816
42
-0.41421356237309503
10
150.80000000000001
20
-96.13454685436983
10
138.80000000000001
20
-96.13454685436983
42
-0.41421356237309503
10
137.80000000000001
20
-95.134546854369816
10
137.80000000000004
20
-83.134546854369802
42
-0.41421356237309503
10
138.80000000000001
20
-82.134546854369802
0
LWPOLYLINE
5
187
100
AcDbEntity
8
0
100
AcDbPolyline
90
8
70
1
43
0.0
10
-100.325
20
-25.984546854369803
42
-0.41421356237309503
10
-99.325000000000017
20
-24.984546854369803
10
-87.325000000000003
20
-24.984546854369807
42
-0.41421356237309503
10
-86.325000000000003
20
-25.984546854369803
10
-86.325000000000003
20
-37.984546854369803
42
-0.41421356237309503
10
-87.325000000000003
20
-38.984546854369803
10
-99.325000000000017
20
-38.984546854369782
42
-0.41421356237309503
10
-100.32499999999999
20
-37.984546854369803
0
LWPOLYLINE
5
188
100
AcDbEntity
8
0
100
AcDbPolyline
90
8
70
1
43
0.0
10
-6.3624999999999998
20
-82.134546854369802
42
-0.41421356237309503
10
-5.3625000000000034
20
-83.134546854369802
10
-5.3625000000000034
20
-95.134546854369816
42
-0.41421356237309503
10
-6.3624999999999998
20
-96.134546854369802
10
-18.362500000000001
20
-96.13454685436983
42
-0.41421356237309503
10
-19.362500000000011
20
-95.134546854369816
10
-19.362499999999997
20
-83.134546854369802
42
-0.41421356237309503
10
-18.362500000000001
20
-82.134546854369802
0
LWPOLYLINE
5
189
100
AcDbEntity
8
0
100
AcDbPolyline
90
8
70
1
43
0.0
10
94.9375
20
-106.94704685437002
42
-0.41421356237309503
10
95.9375
20
-105.94704685437002
10
107.93750000000001
20
-105.94704685437
42
-0.41421356237309503
10
108.93750000000003
20
-106.94704685437002
10
108.9375
20
-118.94704685437
42
-0.41421356237309503
10
107.93750000000001
20
-119.94704685437
10
95.9375
20
-119.94704685436999
42
-0.41421356237309503
10
94.937500000000028
20
-118.94704685437
0
LWPOLYLINE
5
190
100
AcDbEntity
8
0
100
AcDbPolyline
90
8
70
1
43
0.0
10
97.318750000000009
20
-64.084546854369805
42
-0.41421356237309503
10
98.318749999999994
20
-63.084546854369812
10
110.31874999999999
20
-63.08454685436979
42
-0.41421356237309503
10
111.31875000000001
20
-64.084546854369805
10
111.31874999999999
20
-76.084546854369805
42
-0.41421356237309503
10
110.31874999999999
20
-77.084546854369805
10
98.318749999999994
20
-77.084546854369819
42
-0.41421356237309503
10
97.318749999999994
20
-76.084546854369805
0
LWPOLYLINE
5
191
100
AcDbEntity
8
0
100
AcDbPolyline
90
8
70
1
43
0.0
10
-128.90000000000001
20
-45.034546854369808
42
-0.41421356237309503
10
-127.90000000000001
20
-44.034546854369808
10
-115.90000000000002
20
-44.034546854369808
42
-0.41421356237309503
10
-114.90000000000002
20
-45.034546854369808
10
-114.90000000000002
20
-57.034546854369808
42
-0.41421356237309503
10
-115.90000000000002
20
-58.034546854369808
10
-127.90000000000001
20
-58.034546854369822
42
-0.41421356237309503
10
-128.90000000000003
20
-57.034546854369808
0
LWPOLYLINE
5
192
100
AcDbEntity
8
0
100
AcDbPolyline
90
4
70
1
43
0.0
10
100.63125000000002
20
-83.134546854369802
42
-0.99999999999999989
10
102.63124999999999
20
-83.134546854369802
10
102.63125000000002
20
-95.134546854369816
42
-0.99999999999999989
10
100.63124999999999
20
-95.134546854369816
0
LWPOLYLINE
5
193
100
AcDbEntity
8
0
100
AcDbPolyline
90
8
70
1
43
0.0
10
-66.987499999999997
20
-64.084546854369805
42
-0.41421356237309503
10
-65.987499999999997
20
-63.084546854369812
10
-53.987499999999997
20
-63.08454685436979
42
-0.41421356237309503
10
-52.987499999999983
20
-64.084546854369805
10
-52.987499999999997
20
-76.084546854369805
42
-0.41421356237309503
10
-53.987499999999997
20
-77.084546854369805
10
-65.987499999999997
20
-77.084546854369805
42
-0.41421356237309503
10
-66.987499999999997
20
-76.084546854369805
0
LWPOLYLINE
5
194
100
AcDbEntity
8
0
100
AcDbPolyline
90
8
70
1
43
0.0
10
-114.6125
20
-83.134546854369802
42
-0.41421356237309503
10
-113.6125
20
-82.134546854369802
10
-101.61250000000001
20
-82.134546854369802
42
-0.41421356237309503
10
-100.61250000000001
20
-83.134546854369802
10
-100.6125
20
-95.134546854369816
42
-0.41421356237309503
10
-101.61250000000001
20
-96.13454685436983
10
-113.6125
20
-96.13454685436983
42
-0.41421356237309503
10
-114.61250000000001
20
-95.134546854369816
0
LWPOLYLINE
5
195
100
AcDbEntity
8
0
100
AcDbPolyline
90
8
70
1
43
0.0
10
52.075000000000003
20
-2.1720468543698113
10
52.075000000000003
20
-14.1720468543698
42
0.41421356237309503
10
53.07500000000001
20
-15.1720468543698
10
65.075000000000003
20
-15.172046854369796
42
0.41421356237309503
10
66.075000000000003
20
-14.1720468543698
10
66.075000000000017
20
-2.1720468543698299
42
0.41421356237309798
10
65.075000000000003
20
-1.1720468543698099
10
53.07500000000001
20
-1.1720468543698102
42
0.41421356237309537
0
LWPOLYLINE
5
196
100
AcDbEntity
8
0
100
AcDbPolyline
90
8
70
1
43
0.0
10
-28.887499999999999
20
-64.084546854369805
42
-0.41421356237309503
10
-27.887500000000003
20
-63.084546854369812
10
-15.887500000000001
20
-63.084546854369812
42
-0.41421356237309503
10
-14.887500000000005
20
-64.084546854369805
10
-14.887500000000005
20
-76.084546854369805
42
-0.41421356237309503
10
-15.887500000000001
20
-77.084546854369805
10
-27.887500000000003
20
-77.084546854369805
42
-0.41421356237309503
10
-28.887499999999999
20
-76.084546854369805
0
LWPOLYLINE
5
197
100
AcDbEntity
8
0
100
AcDbPolyline
90
8
70
1
43
0.0
10
52.075000000000017
20
-25.984546854369803
42
-0.41421356237309503
10
53.07500000000001
20
-24.984546854369803
10
65.075000000000003
20
-24.984546854369789
42
-0.41421356237309503
10
66.075000000000017
20
-25.984546854369803
10
66.075000000000003
20
-37.984546854369803
42
-0.41421356237309503
10
65.075000000000003
20
-38.984546854369803
10
53.07500000000001
20
-38.984546854369817
42
-0.41421356237309503
10
52.074999999999996
20
-37.984546854369803
0
LWPOLYLINE
5
198
100
AcDbEntity
8
0
100
AcDbPolyline
90
8
70
1
43
0.0
10
-81.275000000000006
20
-25.984546854369803
42
-0.41421356237309503
10
-80.27500000000002
20
-24.984546854369803
10
-68.275000000000006
20
-24.984546854369807
42
-0.41421356237309503
10
-67.275000000000006
20
-25.984546854369803
10
-67.275000000000006
20
-37.984546854369803
42
-0.41421356237309503
10
-68.275000000000006
20
-38.984546854369803
10
-80.27500000000002
20
-38.984546854369817
42
-0.41421356237309503
10
-81.275000000000034
20
-37.984546854369803
0
LWPOLYLINE
5
199
100
AcDbEntity
8
0
100
AcDbPolyline
90
8
70
1
43
0.0
10
-9.8374999999999861
20
-64.084546854369805
42
-0.41421356237309503
10
-8.8374999999999897
20
-63.084546854369812
10
3.1625000000000005
20
-63.08454685436979
42
-0.41421356237309503
10
4.1625000000000103
20
-64.084546854369805
10
4.162499999999997
20
-76.084546854369805
42
-0.41421356237309503
10
3.1625000000000005
20
-77.084546854369805
10
-8.8374999999999897
20
-77.084546854369805
42
-0.41421356237309503
10
-9.8374999999999861
20
-76.084546854369805
0
LWPOLYLINE
5
200
100
AcDbEntity
8
0
100
AcDbPolyline
90
8
70
1
43
0.0
10
-71.75
20
-45.034546854369808
10
-71.75
20
-57.034546854369808
42
0.41421356237309503
10
-70.75
20
-58.034546854369808
10
-58.75
20
-58.034546854369808
42
0.41421356237309503
10
-57.75
20
-57.034546854369808
10
-57.75
20
-45.034546854369808
42
0.41421356237309503
10
-58.75
20
-44.0345468543698
10
-70.75
20
-44.034546854369808
42
0.41421356237309503
0
LWPOLYLINE
5
201
100
AcDbEntity
8
0
100
AcDbPolyline
90
8
70
1
43
0.0
10
-130.00575000000001
20
-84.134546854369802
42
-0.41421356237309503
10
-129.00575000000001
20
-83.134546854369802
10
-124.25575000000002
20
-83.134546854369802
42
-0.41421356237309503
10
-123.25575000000002
20
-84.134546854369802
10
-123.25575000000002
20
-96.134546854369802
42
-0.41421356237309503
10
-124.25575000000002
20
-97.134546854369802
10
-129.00575000000001
20
-97.134546854369802
42
-0.41421356237309503
10
-130.00575000000001
20
-96.134546854369802
0
LWPOLYLINE
5
202
100
AcDbEntity
8
0
100
AcDbPolyline
90
8
70
1
43
0.0
10
-44.462499999999999
20
-82.134546854369802
42
-0.41421356237309503
10
-43.462500000000006
20
-83.134546854369802
10
-43.462500000000006
20
-95.134546854369816
42
-0.41421356237309503
10
-44.462499999999999
20
-96.134546854369802
10
-56.462500000000006
20
-96.134546854369802
42
-0.41421356237309503
10
-57.462499999999999
20
-95.134546854369816
10
-57.462499999999999
20
-83.134546854369802
42
-0.41421356237309503
10
-56.462500000000006
20
-82.134546854369802
0
CIRCLE
5
203
100
AcDbEntity
8
0
100
AcDbCircle
10
157.14999508353301
20
-15.104205699077802
30
0
40
1.0999999999999901
0
CIRCLE
5
204
100
AcDbEntity
8
0
100
AcDbCircle
10
-42.137500000000003
20
-125.289850495482
30
0
40
1.0999999999999901
0
CIRCLE
5
205
100
AcDbEntity
8
0
100
AcDbCircle
10
-55.237499999999997
20
4.2029531530807498
30
0
40
1.1000000000000001
0
CIRCLE
5
206
100
AcDbEntity
8
0
100
AcDbCircle
10
-162.82499508353399
20
-15.104205699077902
30
0
40
1.0999999999999901
0
CIRCLE
5
207
100
AcDbEntity
8
0
100
AcDbCircle
10
36.462500000000006
20
-125.289850495482
30
0
40
1.1000000000000001
0
CIRCLE
5
208
100
AcDbEntity
8
0
100
AcDbCircle
10
115.03009815316601
20
4.20295315308078
30
0
40
1.0999999999999901
0
CIRCLE
5
209
100
AcDbEntity
8
0
100
AcDbCircle
10
157.14999508353401
20
-105.98269164332301
30
0
40
1.0999999999999901
0
CIRCLE
5
210
100
AcDbEntity
8
0
100
AcDbCircle
10
-108.07500016378901
20
-125.289854147629
30
0
40
1.0999999999999901
0
CIRCLE
5
211
100
AcDbEntity
8
0
100
AcDbCircle
10
-120.70509815316601
20
4.2029531530806601
30
0
40
1.0999999999999901
0
CIRCLE
5
212
100
AcDbEntity
8
0
100
AcDbCircle
10
-162.82499508353399
20
-105.98269164332301
30
0
40
1.0999999999999901
0
CIRCLE
5
213
100
AcDbEntity
8
0
100
AcDbCircle
10
102.400000163789
20
-125.289854147629
30
0
40
1.0999999999999901
0
CIRCLE
5
214
100
AcDbEntity
8
0
100
AcDbCircle
10
49.562500000000007
20
4.20295315308078
30
0
40
1.1000000000000001
0
ENDSEC
0
SECTION
2
OBJECTS
0
DICTIONARY
5
C
100
AcDbDictionary
3
ACAD_GROUP
350
D
3
ACAD_MLINESTYLE
350
17
0
DICTIONARY
5
D
100
AcDbDictionary
0
DICTIONARY
5
1A
330
C
100
AcDbDictionary
0
DICTIONARY
5
17
100
AcDbDictionary
0
ENDSEC
0
EOF
