  0
SECTION
  2
HEADER
  9
$ACADVER
  1
AC1009
  9
$FILLMODE
 70
 0
  9
$SPLFRAME
 70
 1
  9
$EXTMIN
 10
0
 20
0
 30
0.0
  9
$EXTMAX
 10
1058.33
 20
1058.33
 30
0.0
  0
ENDSEC
  0
SECTION
  2
TABLES
  0
TABLE
  2
LAYER
 70
1
  0
LAYER
  2
0
 70
     0
 62
     7
  6
CONTINUOUS
  0
ENDTAB
  0
ENDSEC
  0
SECTION
  2
ENTITIES
  0
LINE
  8
0
 62
     0
 10
0.0950846
 20
153.01
 30
0.0
 11
372.046
 21
153.01
 31
0.0
  0
LINE
  8
0
 62
     0
 10
372.046
 20
153.01
 30
0.0
 11
372.046
 21
0.135048
 31
0.0
  0
LINE
  8
0
 62
     0
 10
372.046
 20
0.135048
 30
0.0
 11
0.0950846
 21
0.135048
 31
0.0
  0
LINE
  8
0
 62
     0
 10
0.0950846
 20
0.135048
 30
0.0
 11
0.0950846
 21
153.01
 31
0.0
  0
LINE
  8
0
 62
     0
 10
10.0004
 20
21.6614
 30
0.0
 11
23.9999
 21
21.6614
 31
0.0
  0
LINE
  8
0
 62
     0
 10
23.9999
 20
21.6614
 30
0.0
 11
23.9999
 21
7.6605
 31
0.0
  0
LINE
  8
0
 62
     0
 10
23.9999
 20
7.6605
 30
0.0
 11
10.0004
 21
7.6605
 31
0.0
  0
LINE
  8
0
 62
     0
 10
10.0004
 20
7.6605
 30
0.0
 11
10.0004
 21
21.6614
 31
0.0
  0
LINE
  8
0
 62
     0
 10
202.882
 20
21.6614
 30
0.0
 11
216.881
 21
21.6614
 31
0.0
  0
LINE
  8
0
 62
     0
 10
216.881
 20
21.6614
 30
0.0
 11
216.881
 21
7.6605
 31
0.0
  0
LINE
  8
0
 62
     0
 10
216.881
 20
7.6605
 30
0.0
 11
202.882
 21
7.6605
 31
0.0
  0
LINE
  8
0
 62
     0
 10
202.882
 20
7.6605
 30
0.0
 11
202.882
 21
21.6614
 31
0.0
  0
LINE
  8
0
 62
     0
 10
231.457
 20
21.6614
 30
0.0
 11
245.456
 21
21.6614
 31
0.0
  0
LINE
  8
0
 62
     0
 10
245.456
 20
21.6614
 30
0.0
 11
245.456
 21
7.6605
 31
0.0
  0
LINE
  8
0
 62
     0
 10
245.456
 20
7.6605
 30
0.0
 11
231.457
 21
7.6605
 31
0.0
  0
LINE
  8
0
 62
     0
 10
231.457
 20
7.6605
 30
0.0
 11
231.457
 21
21.6614
 31
0.0
  0
LINE
  8
0
 62
     0
 10
260.032
 20
40.7113
 30
0.0
 11
274.031
 21
40.7113
 31
0.0
  0
LINE
  8
0
 62
     0
 10
274.031
 20
40.7113
 30
0.0
 11
274.031
 21
26.7105
 31
0.0
  0
LINE
  8
0
 62
     0
 10
274.031
 20
26.7105
 30
0.0
 11
260.032
 21
26.7105
 31
0.0
  0
LINE
  8
0
 62
     0
 10
260.032
 20
26.7105
 30
0.0
 11
260.032
 21
40.7113
 31
0.0
  0
LINE
  8
0
 62
     0
 10
279.082
 20
40.7113
 30
0.0
 11
293.081
 21
40.7113
 31
0.0
  0
LINE
  8
0
 62
     0
 10
293.081
 20
40.7113
 30
0.0
 11
293.081
 21
26.7105
 31
0.0
  0
LINE
  8
0
 62
     0
 10
293.081
 20
26.7105
 30
0.0
 11
279.082
 21
26.7105
 31
0.0
  0
LINE
  8
0
 62
     0
 10
279.082
 20
26.7105
 30
0.0
 11
279.082
 21
40.7113
 31
0.0
  0
LINE
  8
0
 62
     0
 10
298.132
 20
40.7113
 30
0.0
 11
312.131
 21
40.7113
 31
0.0
  0
LINE
  8
0
 62
     0
 10
312.131
 20
40.7113
 30
0.0
 11
312.131
 21
26.7105
 31
0.0
  0
LINE
  8
0
 62
     0
 10
312.131
 20
26.7105
 30
0.0
 11
298.132
 21
26.7105
 31
0.0
  0
LINE
  8
0
 62
     0
 10
298.132
 20
26.7105
 30
0.0
 11
298.132
 21
40.7113
 31
0.0
  0
LINE
  8
0
 62
     0
 10
129.063
 20
45.4738
 30
0.0
 11
129.063
 21
40.7734
 31
0.0
  0
LINE
  8
0
 62
     0
 10
129.063
 20
40.7734
 30
0.0
 11
89.4373
 21
40.7734
 31
0.0
  0
LINE
  8
0
 62
     0
 10
89.4373
 20
40.7734
 30
0.0
 11
89.4373
 21
44.0034
 31
0.0
  0
LINE
  8
0
 62
     0
 10
89.4373
 20
44.0034
 30
0.0
 11
82.6879
 21
44.0034
 31
0.0
  0
LINE
  8
0
 62
     0
 10
82.6879
 20
44.0034
 30
0.0
 11
82.6879
 21
40.7734
 31
0.0
  0
LINE
  8
0
 62
     0
 10
82.6879
 20
40.7734
 30
0.0
 11
81.8624
 21
40.7734
 31
0.0
  0
LINE
  8
0
 62
     0
 10
81.8624
 20
40.7734
 30
0.0
 11
81.8624
 21
37.9748
 31
0.0
  0
LINE
  8
0
 62
     0
 10
81.8624
 20
37.9748
 30
0.0
 11
82.6879
 21
37.9748
 31
0.0
  0
LINE
  8
0
 62
     0
 10
82.6879
 20
37.9748
 30
0.0
 11
82.6879
 21
31.7045
 31
0.0
  0
LINE
  8
0
 62
     0
 10
82.6879
 20
31.7045
 30
0.0
 11
84.413
 21
31.7045
 31
0.0
  0
LINE
  8
0
 62
     0
 10
84.413
 20
31.7045
 30
0.0
 11
84.413
 21
30.5043
 31
0.0
  0
LINE
  8
0
 62
     0
 10
84.413
 20
30.5043
 30
0.0
 11
87.7122
 21
30.5043
 31
0.0
  0
LINE
  8
0
 62
     0
 10
87.7122
 20
30.5043
 30
0.0
 11
87.7122
 21
31.7045
 31
0.0
  0
LINE
  8
0
 62
     0
 10
87.7122
 20
31.7045
 30
0.0
 11
89.4373
 21
31.7045
 31
0.0
  0
LINE
  8
0
 62
     0
 10
89.4373
 20
31.7045
 30
0.0
 11
89.4373
 21
36.1735
 31
0.0
  0
LINE
  8
0
 62
     0
 10
89.4373
 20
36.1735
 30
0.0
 11
129.063
 21
36.1735
 31
0.0
  0
LINE
  8
0
 62
     0
 10
129.063
 20
36.1735
 30
0.0
 11
129.063
 21
31.4744
 31
0.0
  0
LINE
  8
0
 62
     0
 10
129.063
 20
31.4744
 30
0.0
 11
143.062
 21
31.4744
 31
0.0
  0
LINE
  8
0
 62
     0
 10
143.062
 20
31.4744
 30
0.0
 11
143.062
 21
36.1735
 31
0.0
  0
LINE
  8
0
 62
     0
 10
143.062
 20
36.1735
 30
0.0
 11
182.688
 21
36.1735
 31
0.0
  0
LINE
  8
0
 62
     0
 10
182.688
 20
36.1735
 30
0.0
 11
182.688
 21
31.7045
 31
0.0
  0
LINE
  8
0
 62
     0
 10
182.688
 20
31.7045
 30
0.0
 11
184.412
 21
31.7045
 31
0.0
  0
LINE
  8
0
 62
     0
 10
184.412
 20
31.7045
 30
0.0
 11
184.412
 21
30.5043
 31
0.0
  0
LINE
  8
0
 62
     0
 10
184.412
 20
30.5043
 30
0.0
 11
187.712
 21
30.5043
 31
0.0
  0
LINE
  8
0
 62
     0
 10
187.712
 20
30.5043
 30
0.0
 11
187.712
 21
31.7045
 31
0.0
  0
LINE
  8
0
 62
     0
 10
187.712
 20
31.7045
 30
0.0
 11
189.437
 21
31.7045
 31
0.0
  0
LINE
  8
0
 62
     0
 10
189.437
 20
31.7045
 30
0.0
 11
189.437
 21
37.9748
 31
0.0
  0
LINE
  8
0
 62
     0
 10
189.437
 20
37.9748
 30
0.0
 11
190.263
 21
37.9748
 31
0.0
  0
LINE
  8
0
 62
     0
 10
190.263
 20
37.9748
 30
0.0
 11
190.263
 21
40.7734
 31
0.0
  0
LINE
  8
0
 62
     0
 10
190.263
 20
40.7734
 30
0.0
 11
189.437
 21
40.7734
 31
0.0
  0
LINE
  8
0
 62
     0
 10
189.437
 20
40.7734
 30
0.0
 11
189.437
 21
44.0034
 31
0.0
  0
LINE
  8
0
 62
     0
 10
189.437
 20
44.0034
 30
0.0
 11
182.688
 21
44.0034
 31
0.0
  0
LINE
  8
0
 62
     0
 10
182.688
 20
44.0034
 30
0.0
 11
182.688
 21
40.7734
 31
0.0
  0
LINE
  8
0
 62
     0
 10
182.688
 20
40.7734
 30
0.0
 11
143.062
 21
40.7734
 31
0.0
  0
LINE
  8
0
 62
     0
 10
143.062
 20
40.7734
 30
0.0
 11
143.062
 21
45.4738
 31
0.0
  0
LINE
  8
0
 62
     0
 10
143.062
 20
45.4738
 30
0.0
 11
129.063
 21
45.4738
 31
0.0
  0
LINE
  8
0
 62
     0
 10
10.0004
 20
45.4738
 30
0.0
 11
23.9999
 21
45.4738
 31
0.0
  0
LINE
  8
0
 62
     0
 10
23.9999
 20
45.4738
 30
0.0
 11
23.9999
 21
31.4744
 31
0.0
  0
LINE
  8
0
 62
     0
 10
23.9999
 20
31.4744
 30
0.0
 11
10.0004
 21
31.4744
 31
0.0
  0
LINE
  8
0
 62
     0
 10
10.0004
 20
31.4744
 30
0.0
 11
10.0004
 21
45.4738
 31
0.0
  0
LINE
  8
0
 62
     0
 10
33.8129
 20
45.4738
 30
0.0
 11
47.8123
 21
45.4738
 31
0.0
  0
LINE
  8
0
 62
     0
 10
47.8123
 20
45.4738
 30
0.0
 11
47.8123
 21
31.4744
 31
0.0
  0
LINE
  8
0
 62
     0
 10
47.8123
 20
31.4744
 30
0.0
 11
33.8129
 21
31.4744
 31
0.0
  0
LINE
  8
0
 62
     0
 10
33.8129
 20
31.4744
 30
0.0
 11
33.8129
 21
45.4738
 31
0.0
  0
LINE
  8
0
 62
     0
 10
57.6255
 20
45.4738
 30
0.0
 11
71.6248
 21
45.4738
 31
0.0
  0
LINE
  8
0
 62
     0
 10
71.6248
 20
45.4738
 30
0.0
 11
71.6248
 21
31.4744
 31
0.0
  0
LINE
  8
0
 62
     0
 10
71.6248
 20
31.4744
 30
0.0
 11
57.6255
 21
31.4744
 31
0.0
  0
LINE
  8
0
 62
     0
 10
57.6255
 20
31.4744
 30
0.0
 11
57.6255
 21
45.4738
 31
0.0
  0
LINE
  8
0
 62
     0
 10
198.119
 20
45.4738
 30
0.0
 11
212.12
 21
45.4738
 31
0.0
  0
LINE
  8
0
 62
     0
 10
212.12
 20
45.4738
 30
0.0
 11
212.12
 21
31.4744
 31
0.0
  0
LINE
  8
0
 62
     0
 10
212.12
 20
31.4744
 30
0.0
 11
198.119
 21
31.4744
 31
0.0
  0
LINE
  8
0
 62
     0
 10
198.119
 20
31.4744
 30
0.0
 11
198.119
 21
45.4738
 31
0.0
  0
LINE
  8
0
 62
     0
 10
217.169
 20
45.4738
 30
0.0
 11
231.17
 21
45.4738
 31
0.0
  0
LINE
  8
0
 62
     0
 10
231.17
 20
45.4738
 30
0.0
 11
231.17
 21
31.4744
 31
0.0
  0
LINE
  8
0
 62
     0
 10
231.17
 20
31.4744
 30
0.0
 11
217.169
 21
31.4744
 31
0.0
  0
LINE
  8
0
 62
     0
 10
217.169
 20
31.4744
 30
0.0
 11
217.169
 21
45.4738
 31
0.0
  0
LINE
  8
0
 62
     0
 10
236.219
 20
45.4738
 30
0.0
 11
250.22
 21
45.4738
 31
0.0
  0
LINE
  8
0
 62
     0
 10
250.22
 20
45.4738
 30
0.0
 11
250.22
 21
31.4744
 31
0.0
  0
LINE
  8
0
 62
     0
 10
250.22
 20
31.4744
 30
0.0
 11
236.219
 21
31.4744
 31
0.0
  0
LINE
  8
0
 62
     0
 10
236.219
 20
31.4744
 30
0.0
 11
236.219
 21
45.4738
 31
0.0
  0
LINE
  8
0
 62
     0
 10
279.082
 20
59.7613
 30
0.0
 11
293.081
 21
59.7613
 31
0.0
  0
LINE
  8
0
 62
     0
 10
293.081
 20
59.7613
 30
0.0
 11
293.081
 21
45.7606
 31
0.0
  0
LINE
  8
0
 62
     0
 10
293.081
 20
45.7606
 30
0.0
 11
279.082
 21
45.7606
 31
0.0
  0
LINE
  8
0
 62
     0
 10
279.082
 20
45.7606
 30
0.0
 11
279.082
 21
59.7613
 31
0.0
  0
LINE
  8
0
 62
     0
 10
19.5254
 20
64.5238
 30
0.0
 11
19.5254
 21
59.8234
 31
0.0
  0
LINE
  8
0
 62
     0
 10
19.5254
 20
59.8234
 30
0.0
 11
17.9999
 21
59.8234
 31
0.0
  0
LINE
  8
0
 62
     0
 10
17.9999
 20
59.8234
 30
0.0
 11
17.9999
 21
63.0534
 31
0.0
  0
LINE
  8
0
 62
     0
 10
17.9999
 20
63.0534
 30
0.0
 11
11.2489
 21
63.0534
 31
0.0
  0
LINE
  8
0
 62
     0
 10
11.2489
 20
63.0534
 30
0.0
 11
11.2489
 21
59.8234
 31
0.0
  0
LINE
  8
0
 62
     0
 10
11.2489
 20
59.8234
 30
0.0
 11
10.4249
 21
59.8234
 31
0.0
  0
LINE
  8
0
 62
     0
 10
10.4249
 20
59.8234
 30
0.0
 11
10.4249
 21
57.0248
 31
0.0
  0
LINE
  8
0
 62
     0
 10
10.4249
 20
57.0248
 30
0.0
 11
11.2489
 21
57.0248
 31
0.0
  0
LINE
  8
0
 62
     0
 10
11.2489
 20
57.0248
 30
0.0
 11
11.2489
 21
50.7545
 31
0.0
  0
LINE
  8
0
 62
     0
 10
11.2489
 20
50.7545
 30
0.0
 11
12.9756
 21
50.7545
 31
0.0
  0
LINE
  8
0
 62
     0
 10
12.9756
 20
50.7545
 30
0.0
 11
12.9756
 21
49.5543
 31
0.0
  0
LINE
  8
0
 62
     0
 10
12.9756
 20
49.5543
 30
0.0
 11
16.276
 21
49.5543
 31
0.0
  0
LINE
  8
0
 62
     0
 10
16.276
 20
49.5543
 30
0.0
 11
16.276
 21
50.7545
 31
0.0
  0
LINE
  8
0
 62
     0
 10
16.276
 20
50.7545
 30
0.0
 11
17.9999
 21
50.7545
 31
0.0
  0
LINE
  8
0
 62
     0
 10
17.9999
 20
50.7545
 30
0.0
 11
17.9999
 21
55.2235
 31
0.0
  0
LINE
  8
0
 62
     0
 10
17.9999
 20
55.2235
 30
0.0
 11
19.5254
 21
55.2235
 31
0.0
  0
LINE
  8
0
 62
     0
 10
19.5254
 20
55.2235
 30
0.0
 11
19.5254
 21
50.5245
 31
0.0
  0
LINE
  8
0
 62
     0
 10
19.5254
 20
50.5245
 30
0.0
 11
33.5249
 21
50.5245
 31
0.0
  0
LINE
  8
0
 62
     0
 10
33.5249
 20
50.5245
 30
0.0
 11
33.5249
 21
55.2235
 31
0.0
  0
LINE
  8
0
 62
     0
 10
33.5249
 20
55.2235
 30
0.0
 11
35.0504
 21
55.2235
 31
0.0
  0
LINE
  8
0
 62
     0
 10
35.0504
 20
55.2235
 30
0.0
 11
35.0504
 21
50.7545
 31
0.0
  0
LINE
  8
0
 62
     0
 10
35.0504
 20
50.7545
 30
0.0
 11
36.7757
 21
50.7545
 31
0.0
  0
LINE
  8
0
 62
     0
 10
36.7757
 20
50.7545
 30
0.0
 11
36.7757
 21
49.5543
 31
0.0
  0
LINE
  8
0
 62
     0
 10
36.7757
 20
49.5543
 30
0.0
 11
40.0763
 21
49.5543
 31
0.0
  0
LINE
  8
0
 62
     0
 10
40.0763
 20
49.5543
 30
0.0
 11
40.0763
 21
50.7545
 31
0.0
  0
LINE
  8
0
 62
     0
 10
40.0763
 20
50.7545
 30
0.0
 11
41.7999
 21
50.7545
 31
0.0
  0
LINE
  8
0
 62
     0
 10
41.7999
 20
50.7545
 30
0.0
 11
41.7999
 21
57.0248
 31
0.0
  0
LINE
  8
0
 62
     0
 10
41.7999
 20
57.0248
 30
0.0
 11
42.6254
 21
57.0248
 31
0.0
  0
LINE
  8
0
 62
     0
 10
42.6254
 20
57.0248
 30
0.0
 11
42.6254
 21
59.8234
 31
0.0
  0
LINE
  8
0
 62
     0
 10
42.6254
 20
59.8234
 30
0.0
 11
41.7999
 21
59.8234
 31
0.0
  0
LINE
  8
0
 62
     0
 10
41.7999
 20
59.8234
 30
0.0
 11
41.7999
 21
63.0534
 31
0.0
  0
LINE
  8
0
 62
     0
 10
41.7999
 20
63.0534
 30
0.0
 11
35.0504
 21
63.0534
 31
0.0
  0
LINE
  8
0
 62
     0
 10
35.0504
 20
63.0534
 30
0.0
 11
35.0504
 21
59.8234
 31
0.0
  0
LINE
  8
0
 62
     0
 10
35.0504
 20
59.8234
 30
0.0
 11
33.5249
 21
59.8234
 31
0.0
  0
LINE
  8
0
 62
     0
 10
33.5249
 20
59.8234
 30
0.0
 11
33.5249
 21
64.5238
 31
0.0
  0
LINE
  8
0
 62
     0
 10
33.5249
 20
64.5238
 30
0.0
 11
19.5254
 21
64.5238
 31
0.0
  0
LINE
  8
0
 62
     0
 10
50.4818
 20
64.5238
 30
0.0
 11
64.4811
 21
64.5238
 31
0.0
  0
LINE
  8
0
 62
     0
 10
64.4811
 20
64.5238
 30
0.0
 11
64.4811
 21
50.5245
 31
0.0
  0
LINE
  8
0
 62
     0
 10
64.4811
 20
50.5245
 30
0.0
 11
50.4818
 21
50.5245
 31
0.0
  0
LINE
  8
0
 62
     0
 10
50.4818
 20
50.5245
 30
0.0
 11
50.4818
 21
64.5238
 31
0.0
  0
LINE
  8
0
 62
     0
 10
69.5318
 20
64.5238
 30
0.0
 11
83.5311
 21
64.5238
 31
0.0
  0
LINE
  8
0
 62
     0
 10
83.5311
 20
64.5238
 30
0.0
 11
83.5311
 21
50.5245
 31
0.0
  0
LINE
  8
0
 62
     0
 10
83.5311
 20
50.5245
 30
0.0
 11
69.5318
 21
50.5245
 31
0.0
  0
LINE
  8
0
 62
     0
 10
69.5318
 20
50.5245
 30
0.0
 11
69.5318
 21
64.5238
 31
0.0
  0
LINE
  8
0
 62
     0
 10
88.5818
 20
64.5238
 30
0.0
 11
102.581
 21
64.5238
 31
0.0
  0
LINE
  8
0
 62
     0
 10
102.581
 20
64.5238
 30
0.0
 11
102.581
 21
50.5245
 31
0.0
  0
LINE
  8
0
 62
     0
 10
102.581
 20
50.5245
 30
0.0
 11
88.5818
 21
50.5245
 31
0.0
  0
LINE
  8
0
 62
     0
 10
88.5818
 20
50.5245
 30
0.0
 11
88.5818
 21
64.5238
 31
0.0
  0
LINE
  8
0
 62
     0
 10
107.632
 20
64.5238
 30
0.0
 11
121.631
 21
64.5238
 31
0.0
  0
LINE
  8
0
 62
     0
 10
121.631
 20
64.5238
 30
0.0
 11
121.631
 21
50.5245
 31
0.0
  0
LINE
  8
0
 62
     0
 10
121.631
 20
50.5245
 30
0.0
 11
107.632
 21
50.5245
 31
0.0
  0
LINE
  8
0
 62
     0
 10
107.632
 20
50.5245
 30
0.0
 11
107.632
 21
64.5238
 31
0.0
  0
LINE
  8
0
 62
     0
 10
126.682
 20
64.5238
 30
0.0
 11
140.681
 21
64.5238
 31
0.0
  0
LINE
  8
0
 62
     0
 10
140.681
 20
64.5238
 30
0.0
 11
140.681
 21
50.5245
 31
0.0
  0
LINE
  8
0
 62
     0
 10
140.681
 20
50.5245
 30
0.0
 11
126.682
 21
50.5245
 31
0.0
  0
LINE
  8
0
 62
     0
 10
126.682
 20
50.5245
 30
0.0
 11
126.682
 21
64.5238
 31
0.0
  0
LINE
  8
0
 62
     0
 10
145.732
 20
64.5238
 30
0.0
 11
159.731
 21
64.5238
 31
0.0
  0
LINE
  8
0
 62
     0
 10
159.731
 20
64.5238
 30
0.0
 11
159.731
 21
50.5245
 31
0.0
  0
LINE
  8
0
 62
     0
 10
159.731
 20
50.5245
 30
0.0
 11
145.732
 21
50.5245
 31
0.0
  0
LINE
  8
0
 62
     0
 10
145.732
 20
50.5245
 30
0.0
 11
145.732
 21
64.5238
 31
0.0
  0
LINE
  8
0
 62
     0
 10
164.782
 20
64.5238
 30
0.0
 11
178.781
 21
64.5238
 31
0.0
  0
LINE
  8
0
 62
     0
 10
178.781
 20
64.5238
 30
0.0
 11
178.781
 21
50.5245
 31
0.0
  0
LINE
  8
0
 62
     0
 10
178.781
 20
50.5245
 30
0.0
 11
164.782
 21
50.5245
 31
0.0
  0
LINE
  8
0
 62
     0
 10
164.782
 20
50.5245
 30
0.0
 11
164.782
 21
64.5238
 31
0.0
  0
LINE
  8
0
 62
     0
 10
183.832
 20
64.5238
 30
0.0
 11
197.831
 21
64.5238
 31
0.0
  0
LINE
  8
0
 62
     0
 10
197.831
 20
64.5238
 30
0.0
 11
197.831
 21
50.5245
 31
0.0
  0
LINE
  8
0
 62
     0
 10
197.831
 20
50.5245
 30
0.0
 11
183.832
 21
50.5245
 31
0.0
  0
LINE
  8
0
 62
     0
 10
183.832
 20
50.5245
 30
0.0
 11
183.832
 21
64.5238
 31
0.0
  0
LINE
  8
0
 62
     0
 10
202.882
 20
64.5238
 30
0.0
 11
216.881
 21
64.5238
 31
0.0
  0
LINE
  8
0
 62
     0
 10
216.881
 20
64.5238
 30
0.0
 11
216.881
 21
50.5245
 31
0.0
  0
LINE
  8
0
 62
     0
 10
216.881
 20
50.5245
 30
0.0
 11
202.882
 21
50.5245
 31
0.0
  0
LINE
  8
0
 62
     0
 10
202.882
 20
50.5245
 30
0.0
 11
202.882
 21
64.5238
 31
0.0
  0
LINE
  8
0
 62
     0
 10
221.932
 20
64.5238
 30
0.0
 11
235.931
 21
64.5238
 31
0.0
  0
LINE
  8
0
 62
     0
 10
235.931
 20
64.5238
 30
0.0
 11
235.931
 21
50.5245
 31
0.0
  0
LINE
  8
0
 62
     0
 10
235.931
 20
50.5245
 30
0.0
 11
221.932
 21
50.5245
 31
0.0
  0
LINE
  8
0
 62
     0
 10
221.932
 20
50.5245
 30
0.0
 11
221.932
 21
64.5238
 31
0.0
  0
LINE
  8
0
 62
     0
 10
248.126
 20
64.5238
 30
0.0
 11
262.125
 21
64.5238
 31
0.0
  0
LINE
  8
0
 62
     0
 10
262.125
 20
64.5238
 30
0.0
 11
262.125
 21
50.5245
 31
0.0
  0
LINE
  8
0
 62
     0
 10
262.125
 20
50.5245
 30
0.0
 11
248.126
 21
50.5245
 31
0.0
  0
LINE
  8
0
 62
     0
 10
248.126
 20
50.5245
 30
0.0
 11
248.126
 21
64.5238
 31
0.0
  0
LINE
  8
0
 62
     0
 10
302.894
 20
64.5238
 30
0.0
 11
316.895
 21
64.5238
 31
0.0
  0
LINE
  8
0
 62
     0
 10
316.895
 20
64.5238
 30
0.0
 11
316.895
 21
50.5245
 31
0.0
  0
LINE
  8
0
 62
     0
 10
316.895
 20
50.5245
 30
0.0
 11
302.894
 21
50.5245
 31
0.0
  0
LINE
  8
0
 62
     0
 10
302.894
 20
50.5245
 30
0.0
 11
302.894
 21
64.5238
 31
0.0
  0
LINE
  8
0
 62
     0
 10
262.413
 20
83.5738
 30
0.0
 11
262.413
 21
78.8734
 31
0.0
  0
LINE
  8
0
 62
     0
 10
262.413
 20
78.8734
 30
0.0
 11
260.887
 21
78.8734
 31
0.0
  0
LINE
  8
0
 62
     0
 10
260.887
 20
78.8734
 30
0.0
 11
260.887
 21
82.1034
 31
0.0
  0
LINE
  8
0
 62
     0
 10
260.887
 20
82.1034
 30
0.0
 11
254.138
 21
82.1034
 31
0.0
  0
LINE
  8
0
 62
     0
 10
254.138
 20
82.1034
 30
0.0
 11
254.138
 21
78.8734
 31
0.0
  0
LINE
  8
0
 62
     0
 10
254.138
 20
78.8734
 30
0.0
 11
253.312
 21
78.8734
 31
0.0
  0
LINE
  8
0
 62
     0
 10
253.312
 20
78.8734
 30
0.0
 11
253.312
 21
76.0748
 31
0.0
  0
LINE
  8
0
 62
     0
 10
253.312
 20
76.0748
 30
0.0
 11
254.138
 21
76.0748
 31
0.0
  0
LINE
  8
0
 62
     0
 10
254.138
 20
76.0748
 30
0.0
 11
254.138
 21
69.8045
 31
0.0
  0
LINE
  8
0
 62
     0
 10
254.138
 20
69.8045
 30
0.0
 11
255.862
 21
69.8045
 31
0.0
  0
LINE
  8
0
 62
     0
 10
255.862
 20
69.8045
 30
0.0
 11
255.862
 21
68.6043
 31
0.0
  0
LINE
  8
0
 62
     0
 10
255.862
 20
68.6043
 30
0.0
 11
259.162
 21
68.6043
 31
0.0
  0
LINE
  8
0
 62
     0
 10
259.162
 20
68.6043
 30
0.0
 11
259.162
 21
69.8045
 31
0.0
  0
LINE
  8
0
 62
     0
 10
259.162
 20
69.8045
 30
0.0
 11
260.887
 21
69.8045
 31
0.0
  0
LINE
  8
0
 62
     0
 10
260.887
 20
69.8045
 30
0.0
 11
260.887
 21
74.2735
 31
0.0
  0
LINE
  8
0
 62
     0
 10
260.887
 20
74.2735
 30
0.0
 11
262.413
 21
74.2735
 31
0.0
  0
LINE
  8
0
 62
     0
 10
262.413
 20
74.2735
 30
0.0
 11
262.413
 21
69.5745
 31
0.0
  0
LINE
  8
0
 62
     0
 10
262.413
 20
69.5745
 30
0.0
 11
276.412
 21
69.5745
 31
0.0
  0
LINE
  8
0
 62
     0
 10
276.412
 20
69.5745
 30
0.0
 11
276.412
 21
74.2735
 31
0.0
  0
LINE
  8
0
 62
     0
 10
276.412
 20
74.2735
 30
0.0
 11
277.938
 21
74.2735
 31
0.0
  0
LINE
  8
0
 62
     0
 10
277.938
 20
74.2735
 30
0.0
 11
277.938
 21
69.8045
 31
0.0
  0
LINE
  8
0
 62
     0
 10
277.938
 20
69.8045
 30
0.0
 11
279.662
 21
69.8045
 31
0.0
  0
LINE
  8
0
 62
     0
 10
279.662
 20
69.8045
 30
0.0
 11
279.662
 21
68.6043
 31
0.0
  0
LINE
  8
0
 62
     0
 10
279.662
 20
68.6043
 30
0.0
 11
282.962
 21
68.6043
 31
0.0
  0
LINE
  8
0
 62
     0
 10
282.962
 20
68.6043
 30
0.0
 11
282.962
 21
69.8045
 31
0.0
  0
LINE
  8
0
 62
     0
 10
282.962
 20
69.8045
 30
0.0
 11
284.687
 21
69.8045
 31
0.0
  0
LINE
  8
0
 62
     0
 10
284.687
 20
69.8045
 30
0.0
 11
284.687
 21
76.0748
 31
0.0
  0
LINE
  8
0
 62
     0
 10
284.687
 20
76.0748
 30
0.0
 11
285.513
 21
76.0748
 31
0.0
  0
LINE
  8
0
 62
     0
 10
285.513
 20
76.0748
 30
0.0
 11
285.513
 21
78.8734
 31
0.0
  0
LINE
  8
0
 62
     0
 10
285.513
 20
78.8734
 30
0.0
 11
284.687
 21
78.8734
 31
0.0
  0
LINE
  8
0
 62
     0
 10
284.687
 20
78.8734
 30
0.0
 11
284.687
 21
82.1034
 31
0.0
  0
LINE
  8
0
 62
     0
 10
284.687
 20
82.1034
 30
0.0
 11
277.938
 21
82.1034
 31
0.0
  0
LINE
  8
0
 62
     0
 10
277.938
 20
82.1034
 30
0.0
 11
277.938
 21
78.8734
 31
0.0
  0
LINE
  8
0
 62
     0
 10
277.938
 20
78.8734
 30
0.0
 11
276.412
 21
78.8734
 31
0.0
  0
LINE
  8
0
 62
     0
 10
276.412
 20
78.8734
 30
0.0
 11
276.412
 21
83.5738
 31
0.0
  0
LINE
  8
0
 62
     0
 10
276.412
 20
83.5738
 30
0.0
 11
262.413
 21
83.5738
 31
0.0
  0
LINE
  8
0
 62
     0
 10
14.7629
 20
83.5738
 30
0.0
 11
28.7624
 21
83.5738
 31
0.0
  0
LINE
  8
0
 62
     0
 10
28.7624
 20
83.5738
 30
0.0
 11
28.7624
 21
69.5745
 31
0.0
  0
LINE
  8
0
 62
     0
 10
28.7624
 20
69.5745
 30
0.0
 11
14.7629
 21
69.5745
 31
0.0
  0
LINE
  8
0
 62
     0
 10
14.7629
 20
69.5745
 30
0.0
 11
14.7629
 21
83.5738
 31
0.0
  0
LINE
  8
0
 62
     0
 10
40.9568
 20
83.5738
 30
0.0
 11
54.9561
 21
83.5738
 31
0.0
  0
LINE
  8
0
 62
     0
 10
54.9561
 20
83.5738
 30
0.0
 11
54.9561
 21
69.5745
 31
0.0
  0
LINE
  8
0
 62
     0
 10
54.9561
 20
69.5745
 30
0.0
 11
40.9568
 21
69.5745
 31
0.0
  0
LINE
  8
0
 62
     0
 10
40.9568
 20
69.5745
 30
0.0
 11
40.9568
 21
83.5738
 31
0.0
  0
LINE
  8
0
 62
     0
 10
60.0068
 20
83.5738
 30
0.0
 11
74.0061
 21
83.5738
 31
0.0
  0
LINE
  8
0
 62
     0
 10
74.0061
 20
83.5738
 30
0.0
 11
74.0061
 21
69.5745
 31
0.0
  0
LINE
  8
0
 62
     0
 10
74.0061
 20
69.5745
 30
0.0
 11
60.0068
 21
69.5745
 31
0.0
  0
LINE
  8
0
 62
     0
 10
60.0068
 20
69.5745
 30
0.0
 11
60.0068
 21
83.5738
 31
0.0
  0
LINE
  8
0
 62
     0
 10
79.0568
 20
83.5738
 30
0.0
 11
93.0561
 21
83.5738
 31
0.0
  0
LINE
  8
0
 62
     0
 10
93.0561
 20
83.5738
 30
0.0
 11
93.0561
 21
69.5745
 31
0.0
  0
LINE
  8
0
 62
     0
 10
93.0561
 20
69.5745
 30
0.0
 11
79.0568
 21
69.5745
 31
0.0
  0
LINE
  8
0
 62
     0
 10
79.0568
 20
69.5745
 30
0.0
 11
79.0568
 21
83.5738
 31
0.0
  0
LINE
  8
0
 62
     0
 10
98.1068
 20
83.5738
 30
0.0
 11
112.106
 21
83.5738
 31
0.0
  0
LINE
  8
0
 62
     0
 10
112.106
 20
83.5738
 30
0.0
 11
112.106
 21
69.5745
 31
0.0
  0
LINE
  8
0
 62
     0
 10
112.106
 20
69.5745
 30
0.0
 11
98.1068
 21
69.5745
 31
0.0
  0
LINE
  8
0
 62
     0
 10
98.1068
 20
69.5745
 30
0.0
 11
98.1068
 21
83.5738
 31
0.0
  0
LINE
  8
0
 62
     0
 10
117.157
 20
83.5738
 30
0.0
 11
131.156
 21
83.5738
 31
0.0
  0
LINE
  8
0
 62
     0
 10
131.156
 20
83.5738
 30
0.0
 11
131.156
 21
69.5745
 31
0.0
  0
LINE
  8
0
 62
     0
 10
131.156
 20
69.5745
 30
0.0
 11
117.157
 21
69.5745
 31
0.0
  0
LINE
  8
0
 62
     0
 10
117.157
 20
69.5745
 30
0.0
 11
117.157
 21
83.5738
 31
0.0
  0
LINE
  8
0
 62
     0
 10
136.207
 20
83.5738
 30
0.0
 11
150.206
 21
83.5738
 31
0.0
  0
LINE
  8
0
 62
     0
 10
150.206
 20
83.5738
 30
0.0
 11
150.206
 21
69.5745
 31
0.0
  0
LINE
  8
0
 62
     0
 10
150.206
 20
69.5745
 30
0.0
 11
136.207
 21
69.5745
 31
0.0
  0
LINE
  8
0
 62
     0
 10
136.207
 20
69.5745
 30
0.0
 11
136.207
 21
83.5738
 31
0.0
  0
LINE
  8
0
 62
     0
 10
155.257
 20
83.5738
 30
0.0
 11
169.256
 21
83.5738
 31
0.0
  0
LINE
  8
0
 62
     0
 10
169.256
 20
83.5738
 30
0.0
 11
169.256
 21
69.5745
 31
0.0
  0
LINE
  8
0
 62
     0
 10
169.256
 20
69.5745
 30
0.0
 11
155.257
 21
69.5745
 31
0.0
  0
LINE
  8
0
 62
     0
 10
155.257
 20
69.5745
 30
0.0
 11
155.257
 21
83.5738
 31
0.0
  0
LINE
  8
0
 62
     0
 10
174.307
 20
83.5738
 30
0.0
 11
188.306
 21
83.5738
 31
0.0
  0
LINE
  8
0
 62
     0
 10
188.306
 20
83.5738
 30
0.0
 11
188.306
 21
69.5745
 31
0.0
  0
LINE
  8
0
 62
     0
 10
188.306
 20
69.5745
 30
0.0
 11
174.307
 21
69.5745
 31
0.0
  0
LINE
  8
0
 62
     0
 10
174.307
 20
69.5745
 30
0.0
 11
174.307
 21
83.5738
 31
0.0
  0
LINE
  8
0
 62
     0
 10
193.357
 20
83.5738
 30
0.0
 11
207.356
 21
83.5738
 31
0.0
  0
LINE
  8
0
 62
     0
 10
207.356
 20
83.5738
 30
0.0
 11
207.356
 21
69.5745
 31
0.0
  0
LINE
  8
0
 62
     0
 10
207.356
 20
69.5745
 30
0.0
 11
193.357
 21
69.5745
 31
0.0
  0
LINE
  8
0
 62
     0
 10
193.357
 20
69.5745
 30
0.0
 11
193.357
 21
83.5738
 31
0.0
  0
LINE
  8
0
 62
     0
 10
212.407
 20
83.5738
 30
0.0
 11
226.406
 21
83.5738
 31
0.0
  0
LINE
  8
0
 62
     0
 10
226.406
 20
83.5738
 30
0.0
 11
226.406
 21
69.5745
 31
0.0
  0
LINE
  8
0
 62
     0
 10
226.406
 20
69.5745
 30
0.0
 11
212.407
 21
69.5745
 31
0.0
  0
LINE
  8
0
 62
     0
 10
212.407
 20
69.5745
 30
0.0
 11
212.407
 21
83.5738
 31
0.0
  0
LINE
  8
0
 62
     0
 10
231.457
 20
83.5738
 30
0.0
 11
245.456
 21
83.5738
 31
0.0
  0
LINE
  8
0
 62
     0
 10
245.456
 20
83.5738
 30
0.0
 11
245.456
 21
69.5745
 31
0.0
  0
LINE
  8
0
 62
     0
 10
245.456
 20
69.5745
 30
0.0
 11
231.457
 21
69.5745
 31
0.0
  0
LINE
  8
0
 62
     0
 10
231.457
 20
69.5745
 30
0.0
 11
231.457
 21
83.5738
 31
0.0
  0
LINE
  8
0
 62
     0
 10
302.894
 20
83.5738
 30
0.0
 11
316.895
 21
83.5738
 31
0.0
  0
LINE
  8
0
 62
     0
 10
316.895
 20
83.5738
 30
0.0
 11
316.895
 21
69.5745
 31
0.0
  0
LINE
  8
0
 62
     0
 10
316.895
 20
69.5745
 30
0.0
 11
302.894
 21
69.5745
 31
0.0
  0
LINE
  8
0
 62
     0
 10
302.894
 20
69.5745
 30
0.0
 11
302.894
 21
83.5738
 31
0.0
  0
LINE
  8
0
 62
     0
 10
12.3817
 20
102.624
 30
0.0
 11
26.3812
 21
102.624
 31
0.0
  0
LINE
  8
0
 62
     0
 10
26.3812
 20
102.624
 30
0.0
 11
26.3812
 21
88.6245
 31
0.0
  0
LINE
  8
0
 62
     0
 10
26.3812
 20
88.6245
 30
0.0
 11
12.3817
 21
88.6245
 31
0.0
  0
LINE
  8
0
 62
     0
 10
12.3817
 20
88.6245
 30
0.0
 11
12.3817
 21
102.624
 31
0.0
  0
LINE
  8
0
 62
     0
 10
36.1943
 20
102.624
 30
0.0
 11
50.195
 21
102.624
 31
0.0
  0
LINE
  8
0
 62
     0
 10
50.195
 20
102.624
 30
0.0
 11
50.195
 21
88.6245
 31
0.0
  0
LINE
  8
0
 62
     0
 10
50.195
 20
88.6245
 30
0.0
 11
36.1943
 21
88.6245
 31
0.0
  0
LINE
  8
0
 62
     0
 10
36.1943
 20
88.6245
 30
0.0
 11
36.1943
 21
102.624
 31
0.0
  0
LINE
  8
0
 62
     0
 10
55.2443
 20
102.624
 30
0.0
 11
69.245
 21
102.624
 31
0.0
  0
LINE
  8
0
 62
     0
 10
69.245
 20
102.624
 30
0.0
 11
69.245
 21
88.6245
 31
0.0
  0
LINE
  8
0
 62
     0
 10
69.245
 20
88.6245
 30
0.0
 11
55.2443
 21
88.6245
 31
0.0
  0
LINE
  8
0
 62
     0
 10
55.2443
 20
88.6245
 30
0.0
 11
55.2443
 21
102.624
 31
0.0
  0
LINE
  8
0
 62
     0
 10
74.2943
 20
102.624
 30
0.0
 11
88.295
 21
102.624
 31
0.0
  0
LINE
  8
0
 62
     0
 10
88.295
 20
102.624
 30
0.0
 11
88.295
 21
88.6245
 31
0.0
  0
LINE
  8
0
 62
     0
 10
88.295
 20
88.6245
 30
0.0
 11
74.2943
 21
88.6245
 31
0.0
  0
LINE
  8
0
 62
     0
 10
74.2943
 20
88.6245
 30
0.0
 11
74.2943
 21
102.624
 31
0.0
  0
LINE
  8
0
 62
     0
 10
93.3443
 20
102.624
 30
0.0
 11
107.345
 21
102.624
 31
0.0
  0
LINE
  8
0
 62
     0
 10
107.345
 20
102.624
 30
0.0
 11
107.345
 21
88.6245
 31
0.0
  0
LINE
  8
0
 62
     0
 10
107.345
 20
88.6245
 30
0.0
 11
93.3443
 21
88.6245
 31
0.0
  0
LINE
  8
0
 62
     0
 10
93.3443
 20
88.6245
 30
0.0
 11
93.3443
 21
102.624
 31
0.0
  0
LINE
  8
0
 62
     0
 10
112.394
 20
102.624
 30
0.0
 11
126.395
 21
102.624
 31
0.0
  0
LINE
  8
0
 62
     0
 10
126.395
 20
102.624
 30
0.0
 11
126.395
 21
88.6245
 31
0.0
  0
LINE
  8
0
 62
     0
 10
126.395
 20
88.6245
 30
0.0
 11
112.394
 21
88.6245
 31
0.0
  0
LINE
  8
0
 62
     0
 10
112.394
 20
88.6245
 30
0.0
 11
112.394
 21
102.624
 31
0.0
  0
LINE
  8
0
 62
     0
 10
131.444
 20
102.624
 30
0.0
 11
145.445
 21
102.624
 31
0.0
  0
LINE
  8
0
 62
     0
 10
145.445
 20
102.624
 30
0.0
 11
145.445
 21
88.6245
 31
0.0
  0
LINE
  8
0
 62
     0
 10
145.445
 20
88.6245
 30
0.0
 11
131.444
 21
88.6245
 31
0.0
  0
LINE
  8
0
 62
     0
 10
131.444
 20
88.6245
 30
0.0
 11
131.444
 21
102.624
 31
0.0
  0
LINE
  8
0
 62
     0
 10
150.494
 20
102.624
 30
0.0
 11
164.495
 21
102.624
 31
0.0
  0
LINE
  8
0
 62
     0
 10
164.495
 20
102.624
 30
0.0
 11
164.495
 21
88.6245
 31
0.0
  0
LINE
  8
0
 62
     0
 10
164.495
 20
88.6245
 30
0.0
 11
150.494
 21
88.6245
 31
0.0
  0
LINE
  8
0
 62
     0
 10
150.494
 20
88.6245
 30
0.0
 11
150.494
 21
102.624
 31
0.0
  0
LINE
  8
0
 62
     0
 10
169.544
 20
102.624
 30
0.0
 11
183.545
 21
102.624
 31
0.0
  0
LINE
  8
0
 62
     0
 10
183.545
 20
102.624
 30
0.0
 11
183.545
 21
88.6245
 31
0.0
  0
LINE
  8
0
 62
     0
 10
183.545
 20
88.6245
 30
0.0
 11
169.544
 21
88.6245
 31
0.0
  0
LINE
  8
0
 62
     0
 10
169.544
 20
88.6245
 30
0.0
 11
169.544
 21
102.624
 31
0.0
  0
LINE
  8
0
 62
     0
 10
188.594
 20
102.624
 30
0.0
 11
202.595
 21
102.624
 31
0.0
  0
LINE
  8
0
 62
     0
 10
202.595
 20
102.624
 30
0.0
 11
202.595
 21
88.6245
 31
0.0
  0
LINE
  8
0
 62
     0
 10
202.595
 20
88.6245
 30
0.0
 11
188.594
 21
88.6245
 31
0.0
  0
LINE
  8
0
 62
     0
 10
188.594
 20
88.6245
 30
0.0
 11
188.594
 21
102.624
 31
0.0
  0
LINE
  8
0
 62
     0
 10
207.644
 20
102.624
 30
0.0
 11
221.645
 21
102.624
 31
0.0
  0
LINE
  8
0
 62
     0
 10
221.645
 20
102.624
 30
0.0
 11
221.645
 21
88.6245
 31
0.0
  0
LINE
  8
0
 62
     0
 10
221.645
 20
88.6245
 30
0.0
 11
207.644
 21
88.6245
 31
0.0
  0
LINE
  8
0
 62
     0
 10
207.644
 20
88.6245
 30
0.0
 11
207.644
 21
102.624
 31
0.0
  0
LINE
  8
0
 62
     0
 10
226.694
 20
102.624
 30
0.0
 11
240.695
 21
102.624
 31
0.0
  0
LINE
  8
0
 62
     0
 10
240.695
 20
102.624
 30
0.0
 11
240.695
 21
88.6245
 31
0.0
  0
LINE
  8
0
 62
     0
 10
240.695
 20
88.6245
 30
0.0
 11
226.694
 21
88.6245
 31
0.0
  0
LINE
  8
0
 62
     0
 10
226.694
 20
88.6245
 30
0.0
 11
226.694
 21
102.624
 31
0.0
  0
LINE
  8
0
 62
     0
 10
245.744
 20
102.624
 30
0.0
 11
259.745
 21
102.624
 31
0.0
  0
LINE
  8
0
 62
     0
 10
259.745
 20
102.624
 30
0.0
 11
259.745
 21
88.6245
 31
0.0
  0
LINE
  8
0
 62
     0
 10
259.745
 20
88.6245
 30
0.0
 11
245.744
 21
88.6245
 31
0.0
  0
LINE
  8
0
 62
     0
 10
245.744
 20
88.6245
 30
0.0
 11
245.744
 21
102.624
 31
0.0
  0
LINE
  8
0
 62
     0
 10
269.557
 20
102.624
 30
0.0
 11
283.556
 21
102.624
 31
0.0
  0
LINE
  8
0
 62
     0
 10
283.556
 20
102.624
 30
0.0
 11
283.556
 21
88.6245
 31
0.0
  0
LINE
  8
0
 62
     0
 10
283.556
 20
88.6245
 30
0.0
 11
269.557
 21
88.6245
 31
0.0
  0
LINE
  8
0
 62
     0
 10
269.557
 20
88.6245
 30
0.0
 11
269.557
 21
102.624
 31
0.0
  0
LINE
  8
0
 62
     0
 10
302.894
 20
102.624
 30
0.0
 11
316.895
 21
102.624
 31
0.0
  0
LINE
  8
0
 62
     0
 10
316.895
 20
102.624
 30
0.0
 11
316.895
 21
88.6245
 31
0.0
  0
LINE
  8
0
 62
     0
 10
316.895
 20
88.6245
 30
0.0
 11
302.894
 21
88.6245
 31
0.0
  0
LINE
  8
0
 62
     0
 10
302.894
 20
88.6245
 30
0.0
 11
302.894
 21
102.624
 31
0.0
  0
LINE
  8
0
 62
     0
 10
264.794
 20
121.674
 30
0.0
 11
264.794
 21
116.973
 31
0.0
  0
LINE
  8
0
 62
     0
 10
264.794
 20
116.973
 30
0.0
 11
263.27
 21
116.973
 31
0.0
  0
LINE
  8
0
 62
     0
 10
263.27
 20
116.973
 30
0.0
 11
263.27
 21
120.203
 31
0.0
  0
LINE
  8
0
 62
     0
 10
263.27
 20
120.203
 30
0.0
 11
256.519
 21
120.203
 31
0.0
  0
LINE
  8
0
 62
     0
 10
256.519
 20
120.203
 30
0.0
 11
256.519
 21
116.973
 31
0.0
  0
LINE
  8
0
 62
     0
 10
256.519
 20
116.973
 30
0.0
 11
255.695
 21
116.973
 31
0.0
  0
LINE
  8
0
 62
     0
 10
255.695
 20
116.973
 30
0.0
 11
255.695
 21
114.175
 31
0.0
  0
LINE
  8
0
 62
     0
 10
255.695
 20
114.175
 30
0.0
 11
256.519
 21
114.175
 31
0.0
  0
LINE
  8
0
 62
     0
 10
256.519
 20
114.175
 30
0.0
 11
256.519
 21
107.904
 31
0.0
  0
LINE
  8
0
 62
     0
 10
256.519
 20
107.904
 30
0.0
 11
258.244
 21
107.904
 31
0.0
  0
LINE
  8
0
 62
     0
 10
258.244
 20
107.904
 30
0.0
 11
258.244
 21
106.704
 31
0.0
  0
LINE
  8
0
 62
     0
 10
258.244
 20
106.704
 30
0.0
 11
261.545
 21
106.704
 31
0.0
  0
LINE
  8
0
 62
     0
 10
261.545
 20
106.704
 30
0.0
 11
261.545
 21
107.904
 31
0.0
  0
LINE
  8
0
 62
     0
 10
261.545
 20
107.904
 30
0.0
 11
263.27
 21
107.904
 31
0.0
  0
LINE
  8
0
 62
     0
 10
263.27
 20
107.904
 30
0.0
 11
263.27
 21
112.373
 31
0.0
  0
LINE
  8
0
 62
     0
 10
263.27
 20
112.373
 30
0.0
 11
264.794
 21
112.373
 31
0.0
  0
LINE
  8
0
 62
     0
 10
264.794
 20
112.373
 30
0.0
 11
264.794
 21
107.674
 31
0.0
  0
LINE
  8
0
 62
     0
 10
264.794
 20
107.674
 30
0.0
 11
278.795
 21
107.674
 31
0.0
  0
LINE
  8
0
 62
     0
 10
278.795
 20
107.674
 30
0.0
 11
278.795
 21
112.373
 31
0.0
  0
LINE
  8
0
 62
     0
 10
278.795
 20
112.373
 30
0.0
 11
280.319
 21
112.373
 31
0.0
  0
LINE
  8
0
 62
     0
 10
280.319
 20
112.373
 30
0.0
 11
280.319
 21
107.904
 31
0.0
  0
LINE
  8
0
 62
     0
 10
280.319
 20
107.904
 30
0.0
 11
282.044
 21
107.904
 31
0.0
  0
LINE
  8
0
 62
     0
 10
282.044
 20
107.904
 30
0.0
 11
282.044
 21
106.704
 31
0.0
  0
LINE
  8
0
 62
     0
 10
282.044
 20
106.704
 30
0.0
 11
285.345
 21
106.704
 31
0.0
  0
LINE
  8
0
 62
     0
 10
285.345
 20
106.704
 30
0.0
 11
285.345
 21
107.904
 31
0.0
  0
LINE
  8
0
 62
     0
 10
285.345
 20
107.904
 30
0.0
 11
287.07
 21
107.904
 31
0.0
  0
LINE
  8
0
 62
     0
 10
287.07
 20
107.904
 30
0.0
 11
287.07
 21
114.175
 31
0.0
  0
LINE
  8
0
 62
     0
 10
287.07
 20
114.175
 30
0.0
 11
287.894
 21
114.175
 31
0.0
  0
LINE
  8
0
 62
     0
 10
287.894
 20
114.175
 30
0.0
 11
287.894
 21
116.973
 31
0.0
  0
LINE
  8
0
 62
     0
 10
287.894
 20
116.973
 30
0.0
 11
287.07
 21
116.973
 31
0.0
  0
LINE
  8
0
 62
     0
 10
287.07
 20
116.973
 30
0.0
 11
287.07
 21
120.203
 31
0.0
  0
LINE
  8
0
 62
     0
 10
287.07
 20
120.203
 30
0.0
 11
280.319
 21
120.203
 31
0.0
  0
LINE
  8
0
 62
     0
 10
280.319
 20
120.203
 30
0.0
 11
280.319
 21
116.973
 31
0.0
  0
LINE
  8
0
 62
     0
 10
280.319
 20
116.973
 30
0.0
 11
278.795
 21
116.973
 31
0.0
  0
LINE
  8
0
 62
     0
 10
278.795
 20
116.973
 30
0.0
 11
278.795
 21
121.674
 31
0.0
  0
LINE
  8
0
 62
     0
 10
278.795
 20
121.674
 30
0.0
 11
264.794
 21
121.674
 31
0.0
  0
LINE
  8
0
 62
     0
 10
7.61919
 20
121.674
 30
0.0
 11
21.6201
 21
121.674
 31
0.0
  0
LINE
  8
0
 62
     0
 10
21.6201
 20
121.674
 30
0.0
 11
21.6201
 21
107.674
 31
0.0
  0
LINE
  8
0
 62
     0
 10
21.6201
 20
107.674
 30
0.0
 11
7.61919
 21
107.674
 31
0.0
  0
LINE
  8
0
 62
     0
 10
7.61919
 20
107.674
 30
0.0
 11
7.61919
 21
121.674
 31
0.0
  0
LINE
  8
0
 62
     0
 10
26.6692
 20
121.674
 30
0.0
 11
40.67
 21
121.674
 31
0.0
  0
LINE
  8
0
 62
     0
 10
40.67
 20
121.674
 30
0.0
 11
40.67
 21
107.674
 31
0.0
  0
LINE
  8
0
 62
     0
 10
40.67
 20
107.674
 30
0.0
 11
26.6692
 21
107.674
 31
0.0
  0
LINE
  8
0
 62
     0
 10
26.6692
 20
107.674
 30
0.0
 11
26.6692
 21
121.674
 31
0.0
  0
LINE
  8
0
 62
     0
 10
45.7193
 20
121.674
 30
0.0
 11
59.72
 21
121.674
 31
0.0
  0
LINE
  8
0
 62
     0
 10
59.72
 20
121.674
 30
0.0
 11
59.72
 21
107.674
 31
0.0
  0
LINE
  8
0
 62
     0
 10
59.72
 20
107.674
 30
0.0
 11
45.7193
 21
107.674
 31
0.0
  0
LINE
  8
0
 62
     0
 10
45.7193
 20
107.674
 30
0.0
 11
45.7193
 21
121.674
 31
0.0
  0
LINE
  8
0
 62
     0
 10
64.7693
 20
121.674
 30
0.0
 11
78.77
 21
121.674
 31
0.0
  0
LINE
  8
0
 62
     0
 10
78.77
 20
121.674
 30
0.0
 11
78.77
 21
107.674
 31
0.0
  0
LINE
  8
0
 62
     0
 10
78.77
 20
107.674
 30
0.0
 11
64.7693
 21
107.674
 31
0.0
  0
LINE
  8
0
 62
     0
 10
64.7693
 20
107.674
 30
0.0
 11
64.7693
 21
121.674
 31
0.0
  0
LINE
  8
0
 62
     0
 10
83.8193
 20
121.674
 30
0.0
 11
97.82
 21
121.674
 31
0.0
  0
LINE
  8
0
 62
     0
 10
97.82
 20
121.674
 30
0.0
 11
97.82
 21
107.674
 31
0.0
  0
LINE
  8
0
 62
     0
 10
97.82
 20
107.674
 30
0.0
 11
83.8193
 21
107.674
 31
0.0
  0
LINE
  8
0
 62
     0
 10
83.8193
 20
107.674
 30
0.0
 11
83.8193
 21
121.674
 31
0.0
  0
LINE
  8
0
 62
     0
 10
102.869
 20
121.674
 30
0.0
 11
116.869
 21
121.674
 31
0.0
  0
LINE
  8
0
 62
     0
 10
116.869
 20
121.674
 30
0.0
 11
116.869
 21
107.674
 31
0.0
  0
LINE
  8
0
 62
     0
 10
116.869
 20
107.674
 30
0.0
 11
102.869
 21
107.674
 31
0.0
  0
LINE
  8
0
 62
     0
 10
102.869
 20
107.674
 30
0.0
 11
102.869
 21
121.674
 31
0.0
  0
LINE
  8
0
 62
     0
 10
121.919
 20
121.674
 30
0.0
 11
135.92
 21
121.674
 31
0.0
  0
LINE
  8
0
 62
     0
 10
135.92
 20
121.674
 30
0.0
 11
135.92
 21
107.674
 31
0.0
  0
LINE
  8
0
 62
     0
 10
135.92
 20
107.674
 30
0.0
 11
121.919
 21
107.674
 31
0.0
  0
LINE
  8
0
 62
     0
 10
121.919
 20
107.674
 30
0.0
 11
121.919
 21
121.674
 31
0.0
  0
LINE
  8
0
 62
     0
 10
140.969
 20
121.674
 30
0.0
 11
154.97
 21
121.674
 31
0.0
  0
LINE
  8
0
 62
     0
 10
154.97
 20
121.674
 30
0.0
 11
154.97
 21
107.674
 31
0.0
  0
LINE
  8
0
 62
     0
 10
154.97
 20
107.674
 30
0.0
 11
140.969
 21
107.674
 31
0.0
  0
LINE
  8
0
 62
     0
 10
140.969
 20
107.674
 30
0.0
 11
140.969
 21
121.674
 31
0.0
  0
LINE
  8
0
 62
     0
 10
160.019
 20
121.674
 30
0.0
 11
174.02
 21
121.674
 31
0.0
  0
LINE
  8
0
 62
     0
 10
174.02
 20
121.674
 30
0.0
 11
174.02
 21
107.674
 31
0.0
  0
LINE
  8
0
 62
     0
 10
174.02
 20
107.674
 30
0.0
 11
160.019
 21
107.674
 31
0.0
  0
LINE
  8
0
 62
     0
 10
160.019
 20
107.674
 30
0.0
 11
160.019
 21
121.674
 31
0.0
  0
LINE
  8
0
 62
     0
 10
179.069
 20
121.674
 30
0.0
 11
193.07
 21
121.674
 31
0.0
  0
LINE
  8
0
 62
     0
 10
193.07
 20
121.674
 30
0.0
 11
193.07
 21
107.674
 31
0.0
  0
LINE
  8
0
 62
     0
 10
193.07
 20
107.674
 30
0.0
 11
179.069
 21
107.674
 31
0.0
  0
LINE
  8
0
 62
     0
 10
179.069
 20
107.674
 30
0.0
 11
179.069
 21
121.674
 31
0.0
  0
LINE
  8
0
 62
     0
 10
198.119
 20
121.674
 30
0.0
 11
212.12
 21
121.674
 31
0.0
  0
LINE
  8
0
 62
     0
 10
212.12
 20
121.674
 30
0.0
 11
212.12
 21
107.674
 31
0.0
  0
LINE
  8
0
 62
     0
 10
212.12
 20
107.674
 30
0.0
 11
198.119
 21
107.674
 31
0.0
  0
LINE
  8
0
 62
     0
 10
198.119
 20
107.674
 30
0.0
 11
198.119
 21
121.674
 31
0.0
  0
LINE
  8
0
 62
     0
 10
217.169
 20
121.674
 30
0.0
 11
231.17
 21
121.674
 31
0.0
  0
LINE
  8
0
 62
     0
 10
231.17
 20
121.674
 30
0.0
 11
231.17
 21
107.674
 31
0.0
  0
LINE
  8
0
 62
     0
 10
231.17
 20
107.674
 30
0.0
 11
217.169
 21
107.674
 31
0.0
  0
LINE
  8
0
 62
     0
 10
217.169
 20
107.674
 30
0.0
 11
217.169
 21
121.674
 31
0.0
  0
LINE
  8
0
 62
     0
 10
236.219
 20
121.674
 30
0.0
 11
250.22
 21
121.674
 31
0.0
  0
LINE
  8
0
 62
     0
 10
250.22
 20
121.674
 30
0.0
 11
250.22
 21
107.674
 31
0.0
  0
LINE
  8
0
 62
     0
 10
250.22
 20
107.674
 30
0.0
 11
236.219
 21
107.674
 31
0.0
  0
LINE
  8
0
 62
     0
 10
236.219
 20
107.674
 30
0.0
 11
236.219
 21
121.674
 31
0.0
  0
LINE
  8
0
 62
     0
 10
331.469
 20
121.674
 30
0.0
 11
345.47
 21
121.674
 31
0.0
  0
LINE
  8
0
 62
     0
 10
345.47
 20
121.674
 30
0.0
 11
345.47
 21
107.674
 31
0.0
  0
LINE
  8
0
 62
     0
 10
345.47
 20
107.674
 30
0.0
 11
331.469
 21
107.674
 31
0.0
  0
LINE
  8
0
 62
     0
 10
331.469
 20
107.674
 30
0.0
 11
331.469
 21
121.674
 31
0.0
  0
LINE
  8
0
 62
     0
 10
350.519
 20
121.674
 30
0.0
 11
364.522
 21
121.674
 31
0.0
  0
LINE
  8
0
 62
     0
 10
364.522
 20
121.674
 30
0.0
 11
364.522
 21
107.674
 31
0.0
  0
LINE
  8
0
 62
     0
 10
364.522
 20
107.674
 30
0.0
 11
350.519
 21
107.674
 31
0.0
  0
LINE
  8
0
 62
     0
 10
350.519
 20
107.674
 30
0.0
 11
350.519
 21
121.674
 31
0.0
  0
LINE
  8
0
 62
     0
 10
302.894
 20
131.199
 30
0.0
 11
316.895
 21
131.199
 31
0.0
  0
LINE
  8
0
 62
     0
 10
316.895
 20
131.199
 30
0.0
 11
316.895
 21
117.199
 31
0.0
  0
LINE
  8
0
 62
     0
 10
316.895
 20
117.199
 30
0.0
 11
302.894
 21
117.199
 31
0.0
  0
LINE
  8
0
 62
     0
 10
302.894
 20
117.199
 30
0.0
 11
302.894
 21
131.199
 31
0.0
  0
LINE
  8
0
 62
     0
 10
7.61919
 20
145.486
 30
0.0
 11
21.6201
 21
145.486
 31
0.0
  0
LINE
  8
0
 62
     0
 10
21.6201
 20
145.486
 30
0.0
 11
21.6201
 21
131.486
 31
0.0
  0
LINE
  8
0
 62
     0
 10
21.6201
 20
131.486
 30
0.0
 11
7.61919
 21
131.486
 31
0.0
  0
LINE
  8
0
 62
     0
 10
7.61919
 20
131.486
 30
0.0
 11
7.61919
 21
145.486
 31
0.0
  0
LINE
  8
0
 62
     0
 10
36.1943
 20
145.486
 30
0.0
 11
50.195
 21
145.486
 31
0.0
  0
LINE
  8
0
 62
     0
 10
50.195
 20
145.486
 30
0.0
 11
50.195
 21
131.486
 31
0.0
  0
LINE
  8
0
 62
     0
 10
50.195
 20
131.486
 30
0.0
 11
36.1943
 21
131.486
 31
0.0
  0
LINE
  8
0
 62
     0
 10
36.1943
 20
131.486
 30
0.0
 11
36.1943
 21
145.486
 31
0.0
  0
LINE
  8
0
 62
     0
 10
55.2443
 20
145.486
 30
0.0
 11
69.245
 21
145.486
 31
0.0
  0
LINE
  8
0
 62
     0
 10
69.245
 20
145.486
 30
0.0
 11
69.245
 21
131.486
 31
0.0
  0
LINE
  8
0
 62
     0
 10
69.245
 20
131.486
 30
0.0
 11
55.2443
 21
131.486
 31
0.0
  0
LINE
  8
0
 62
     0
 10
55.2443
 20
131.486
 30
0.0
 11
55.2443
 21
145.486
 31
0.0
  0
LINE
  8
0
 62
     0
 10
74.2943
 20
145.486
 30
0.0
 11
88.295
 21
145.486
 31
0.0
  0
LINE
  8
0
 62
     0
 10
88.295
 20
145.486
 30
0.0
 11
88.295
 21
131.486
 31
0.0
  0
LINE
  8
0
 62
     0
 10
88.295
 20
131.486
 30
0.0
 11
74.2943
 21
131.486
 31
0.0
  0
LINE
  8
0
 62
     0
 10
74.2943
 20
131.486
 30
0.0
 11
74.2943
 21
145.486
 31
0.0
  0
LINE
  8
0
 62
     0
 10
93.3443
 20
145.486
 30
0.0
 11
107.345
 21
145.486
 31
0.0
  0
LINE
  8
0
 62
     0
 10
107.345
 20
145.486
 30
0.0
 11
107.345
 21
131.486
 31
0.0
  0
LINE
  8
0
 62
     0
 10
107.345
 20
131.486
 30
0.0
 11
93.3443
 21
131.486
 31
0.0
  0
LINE
  8
0
 62
     0
 10
93.3443
 20
131.486
 30
0.0
 11
93.3443
 21
145.486
 31
0.0
  0
LINE
  8
0
 62
     0
 10
117.157
 20
145.486
 30
0.0
 11
131.156
 21
145.486
 31
0.0
  0
LINE
  8
0
 62
     0
 10
131.156
 20
145.486
 30
0.0
 11
131.156
 21
131.486
 31
0.0
  0
LINE
  8
0
 62
     0
 10
131.156
 20
131.486
 30
0.0
 11
117.157
 21
131.486
 31
0.0
  0
LINE
  8
0
 62
     0
 10
117.157
 20
131.486
 30
0.0
 11
117.157
 21
145.486
 31
0.0
  0
LINE
  8
0
 62
     0
 10
136.207
 20
145.486
 30
0.0
 11
150.206
 21
145.486
 31
0.0
  0
LINE
  8
0
 62
     0
 10
150.206
 20
145.486
 30
0.0
 11
150.206
 21
131.486
 31
0.0
  0
LINE
  8
0
 62
     0
 10
150.206
 20
131.486
 30
0.0
 11
136.207
 21
131.486
 31
0.0
  0
LINE
  8
0
 62
     0
 10
136.207
 20
131.486
 30
0.0
 11
136.207
 21
145.486
 31
0.0
  0
LINE
  8
0
 62
     0
 10
155.257
 20
145.486
 30
0.0
 11
169.256
 21
145.486
 31
0.0
  0
LINE
  8
0
 62
     0
 10
169.256
 20
145.486
 30
0.0
 11
169.256
 21
131.486
 31
0.0
  0
LINE
  8
0
 62
     0
 10
169.256
 20
131.486
 30
0.0
 11
155.257
 21
131.486
 31
0.0
  0
LINE
  8
0
 62
     0
 10
155.257
 20
131.486
 30
0.0
 11
155.257
 21
145.486
 31
0.0
  0
LINE
  8
0
 62
     0
 10
174.307
 20
145.486
 30
0.0
 11
188.306
 21
145.486
 31
0.0
  0
LINE
  8
0
 62
     0
 10
188.306
 20
145.486
 30
0.0
 11
188.306
 21
131.486
 31
0.0
  0
LINE
  8
0
 62
     0
 10
188.306
 20
131.486
 30
0.0
 11
174.307
 21
131.486
 31
0.0
  0
LINE
  8
0
 62
     0
 10
174.307
 20
131.486
 30
0.0
 11
174.307
 21
145.486
 31
0.0
  0
LINE
  8
0
 62
     0
 10
198.119
 20
145.486
 30
0.0
 11
212.12
 21
145.486
 31
0.0
  0
LINE
  8
0
 62
     0
 10
212.12
 20
145.486
 30
0.0
 11
212.12
 21
131.486
 31
0.0
  0
LINE
  8
0
 62
     0
 10
212.12
 20
131.486
 30
0.0
 11
198.119
 21
131.486
 31
0.0
  0
LINE
  8
0
 62
     0
 10
198.119
 20
131.486
 30
0.0
 11
198.119
 21
145.486
 31
0.0
  0
LINE
  8
0
 62
     0
 10
217.169
 20
145.486
 30
0.0
 11
231.17
 21
145.486
 31
0.0
  0
LINE
  8
0
 62
     0
 10
231.17
 20
145.486
 30
0.0
 11
231.17
 21
131.486
 31
0.0
  0
LINE
  8
0
 62
     0
 10
231.17
 20
131.486
 30
0.0
 11
217.169
 21
131.486
 31
0.0
  0
LINE
  8
0
 62
     0
 10
217.169
 20
131.486
 30
0.0
 11
217.169
 21
145.486
 31
0.0
  0
LINE
  8
0
 62
     0
 10
236.219
 20
145.486
 30
0.0
 11
250.22
 21
145.486
 31
0.0
  0
LINE
  8
0
 62
     0
 10
250.22
 20
145.486
 30
0.0
 11
250.22
 21
131.486
 31
0.0
  0
LINE
  8
0
 62
     0
 10
250.22
 20
131.486
 30
0.0
 11
236.219
 21
131.486
 31
0.0
  0
LINE
  8
0
 62
     0
 10
236.219
 20
131.486
 30
0.0
 11
236.219
 21
145.486
 31
0.0
  0
LINE
  8
0
 62
     0
 10
255.269
 20
145.486
 30
0.0
 11
269.27
 21
145.486
 31
0.0
  0
LINE
  8
0
 62
     0
 10
269.27
 20
145.486
 30
0.0
 11
269.27
 21
131.486
 31
0.0
  0
LINE
  8
0
 62
     0
 10
269.27
 20
131.486
 30
0.0
 11
255.269
 21
131.486
 31
0.0
  0
LINE
  8
0
 62
     0
 10
255.269
 20
131.486
 30
0.0
 11
255.269
 21
145.486
 31
0.0
  0
ENDSEC
  0
EOF
